<?xml version="1.0" encoding="UTF-8"?><svg id="africa" xmlns="http://www.w3.org/2000/svg" width="235" height="321.866" viewBox="0 0 235 321.866"><defs><style>.cls-1{fill:#281f15;}.cls-1,.cls-2,.cls-3,.cls-4,.cls-5,.cls-6,.cls-7,.cls-8,.cls-9,.cls-10,.cls-11,.cls-12{stroke:#000;stroke-linecap:round;stroke-linejoin:round;}.cls-2{fill:#2b388d;}.cls-3{fill:#4a62ba;}.cls-4{fill:#423426;}.cls-5{fill:#16100d;}.cls-6{fill:#9b78bc;}.cls-7{fill:#926b4d;}.cls-8{fill:#805297;}.cls-9{fill:#a687b5;}.cls-10{fill:#fff;}.cls-11{fill:none;}</style></defs><path class="cls-10" d="M56.049,123.097l-.39.43c-2.55.88-5.44,1.38-6.73,3.93-.26.521-.46,1.12-.57,1.83-.54-1.79-.86-3.4-1.5-4.81-.5-1.1-1.21-2.09-2.37-2.96,1.22-.14,2.63-.27,4.01-.4,2.43-.24,4.74-.46,5.66-.7.23-.07.38-.13.41-.19-.05.89.53,1.9,1.48,2.87Z"/><path class="cls-11" d="M71.559,118.007c0-.11-.01-.23-.02-.35"/><path class="cls-3" d="M86.169,135.097c-.01-1.53-.25-3.16-.68-4.79h-.01c-.25-.27-.52-.55-.8-.81-.37-.36-.77-.71-1.18-1.05-1.7-1.4-3.74-2.66-5.87-3.53-2.27-.96-4.63-1.49-6.79-1.34-1.01,2.58-3.07,4.17-6.47,3.77-2.69-.32-6.32-2.2-8.32-4.25l-.39.43c-2.55.88-5.44,1.38-6.73,3.93-.26.521-.46,1.12-.57,1.83.08.25.14.5.21.75.46,1.89.57,3.86.33,5.79-.14,1.12-.39,2.22-.77,3.28-.11.25-.23.51-.35.78-.08.19-.17.39-.26.59-.28.65-.58,1.34-.89,2.06-.98,2.29-2.08,4.89-3.19,7.32l.19.08c.04,0,.26,5.68.39,7.24.27,3.25.61,6.56.41,9.89-.08,1.27-.31,3.22-.6,5.47-.47,3.69-1.12,8.17-1.61,11.78-.31,2.31-.55,4.26-.64,5.41.09.19.26.37.49.55,3.25,2.53,19.26,4.41,22.84,4.61,4.38.23,8.85-.1,13.16-.59,2.85-.32,5.66-1.87,8.41-1.96.11-3.15.2-6.48.26-9.88.09-4.44.15-9.01.18-13.45.01-2.77.02-5.49.02-8.09,0-1.89.05-3.88.1-5.9v-.02c-.01-.02-.02-.04-.02-.06q.01,0,.02-.01c.17-6.67.38-13.8-.87-19.83ZM78.219,167.027h-17.95c.11-4.19.88-7.57,2.3-10.12,1.21-2.15,3.25-4.27,6.13-6.37,1.16-.84,1.95-1.55,2.38-2.16.43-.6.65-1.3.65-2.08,0-.67-.2-1.22-.59-1.65-.39-.43-.88-.64-1.47-.64-.89,0-1.65.2-2.3.6-.75.43-1.63,1.28-2.62,2.54l-4.4-3.63c1.32-1.77,2.64-3.05,3.96-3.83,1.5-.89,3.32-1.33,5.44-1.33,2.66,0,4.72.66,6.17,1.99,1.45,1.34,2.18,3.13,2.18,5.39,0,1.69-.35,3.16-1.05,4.39-.75,1.32-2.06,2.65-3.91,4-2.05,1.5-3.51,2.82-4.4,3.95-.78,1.02-1.26,2.14-1.45,3.35h10.93v5.6Z"/><path class="cls-2" d="M98.999,149.207c-.42.79-.91,1.42-1.46,1.91v.01c-2.21,1.99-5.52,2.1-10.5,3.8.17-6.67.38-13.8-.87-19.83-.01-1.53-.25-3.16-.68-4.79-.89-3.3-2.55-6.58-4.63-8.88l.07-.32c.06,0,.11.02.16.03,3.15.78,4.6,2.76,7.03,5.04,3.9,3.69,8.02,11.5,10.88,23.03Z"/><path class="cls-2" d="M48.129,139.107c-1.28,2.82-2.97,6.99-4.69,10.75-1.31,2.86-2.64,5.49-3.81,7.11-.26-.1-.56-.22-.9-.37-3.25-1.39-10.01-4.68-13.02-7.45-.96-.88-1.54-1.71-1.5-2.4,0,0,6.84-14.3,8.7-16.11,2.58-2.5,5.15-7.1,8.39-8.57.43-.2,1.65-.38,3.19-.55,2.66,2,2.91,4.58,3.87,7.77.96,3.18.88,6.68-.23,9.82Z"/><path class="cls-11" d="M43.629,149.937c-.01,0-.01.07-.01.23"/><path class="cls-8" d="M90.439,244.907c-.3.54-.98,1-1.98,1.38-3.36,1.3-10.29,1.76-18.15,1.59h-.01c-4.58-.11-9.46-.42-14.14-.92-8.8-.92-16.89-2.45-20.83-4.34-1.01-.49-1.75-.99-2.16-1.52,0,0,5.56-39.78,8.9-50.82,3.25,2.53,19.26,4.41,22.84,4.61,4.38.23,8.85-.1,13.16-.59,2.85-.32,5.66-1.87,8.41-1.96,1.98,6.53,3.96,46,3.96,52.57Z"/><path class="cls-7" d="M86.739,182.457c.09-4.44.15-9.01.18-13.45,1.05-1.12,1.71-1.87,2.35-2.43-.63-.25-1.54-8.62-2.23-11.56v-.09c4.98-1.7,8.29-1.81,10.5-3.8.71,3.61,1.72,12.2,2.43,15.14,1.85,7.61-6.93,12.6-13.23,16.19Z"/><path class="cls-11" d="M89.269,166.577c.05.04.09.01.13-.05"/><path class="cls-11" d="M89.269,166.577c1.11-.97,2.16-1.39,5.05-2.22"/><path class="cls-7" d="M43.829,172.537c-.47,3.69-1.12,8.17-1.61,11.78l-.64-.09c-3.8-2.08-2.39-1.48-6.21-3.1-5.18-2.21-13.9-8-13.84-13.74.04-4.75,1.85-12.04,4.18-18.24,3.01,2.77,9.77,6.06,13.02,7.45-.54,1.71-3.15,8.64-3.66,10.26,2.95,1.84,5.87,3.73,8.76,5.68Z"/><line class="cls-11" x1="25.709" y1="149.147" x2="25.709" y2="149.137"/><path class="cls-11" d="M35.069,166.857c-.64-.4-1.27-.79-1.91-1.18"/><path class="cls-10" d="M85.489,130.307h-.01c-.25-.27-.52-.55-.8-.81-.37-.36-.77-.71-1.18-1.05-1.7-1.4-3.74-2.66-5.87-3.53-2.27-.96-4.63-1.49-6.79-1.34.36-.93.59-1.99.68-3.14l.55.05c1.36-.15,4.52.01,6.89.3.77.1,1.46.2,1.97.32l-.07.32c1.41,1.56,2.62,3.56,3.53,5.72.27.63.51,1.26.72,1.9.14.42.27.84.38,1.26Z"/><path class="cls-11" d="M70.839,123.577c-.1,0-.21.01-.31.02"/><path class="cls-10" d="M78.219,161.427v5.6h-17.95c.11-4.19.88-7.57,2.3-10.12,1.21-2.15,3.25-4.27,6.13-6.37,1.16-.84,1.95-1.55,2.38-2.16.43-.6.65-1.3.65-2.08,0-.67-.2-1.22-.59-1.65-.39-.43-.88-.64-1.47-.64-.89,0-1.65.2-2.3.6-.75.43-1.63,1.28-2.62,2.54l-4.4-3.63c1.32-1.77,2.64-3.05,3.96-3.83,1.5-.89,3.32-1.33,5.44-1.33,2.66,0,4.72.66,6.17,1.99,1.45,1.34,2.18,3.13,2.18,5.39,0,1.69-.35,3.16-1.05,4.39-.75,1.32-2.06,2.65-3.91,4-2.05,1.5-3.51,2.82-4.4,3.95-.78,1.02-1.26,2.14-1.45,3.35h10.93Z"/><path class="cls-11" d="M54.159,114.447v-.27"/><path class="cls-11" d="M54.159,120.417c-.01.03-.01.07-.01.1"/><path class="cls-11" d="M89.189,290.697c-.07-.45-.13-1.19-.18-2.14"/><path class="cls-7" d="M89.189,262.107c-.23,3.34-.51,19.92-.18,26.45-.18-.77-.49-1.48-1.03-2.02-1.78-1.82-7.11-1.16-8.9.64-1.08,1.08-1.69,2.5-1.93,4.01l-.32-.05c-.65-15.19-2.17-15.06-5.25-29.66-.47-2.23-1.69-9.45-1.28-13.6h.01c7.86.17,14.79-.29,18.15-1.59,0,4.93,1.08,10.59.73,15.82Z"/><path class="cls-11" d="M70.309,247.877v-.06"/><path class="cls-7" d="M56.159,246.957v.01c-.61,7.96-2.81,14.68-4.9,24.85-.86,4.18-2.97,12.25-3.09,20.06-1.04-5.07-5.76-6.92-7.37-6.76-1.95.18-3.78,1.27-4.42,3.09,1.55-15.47-1.98-37.29-1.05-45.59,3.94,1.89,12.03,3.42,20.83,4.34Z"/><line class="cls-11" x1="35.329" y1="242.617" x2="35.329" y2="242.607"/><path class="cls-6" d="M48.209,294.517c-1.08-.67-2.3-.85-4.16-1.17-2.4-.4-5.6-.71-8.76.54.58-.37,1.09-.82,1.43-1.41.43-.771-.63-3.44-.34-4.271.64-1.82,2.47-2.91,4.42-3.09,1.61-.16,6.33,1.69,7.37,6.76-.02.89-.01,1.77.04,2.64Z"/><path class="cls-6" d="M50.159,307.337c-1.08,1.3-2.97,1.54-4.67,1.68-4.68.39-9.37.72-14.06.98-1.48.09-3.15.1-4.2-.92-.93-.91-1.32-5.62-1.11-6.9.44-2.58,4.42-5.62,6.71-6.96.79-.46,1.67-.83,2.43-1.31.01,0,.02-.01.03-.02,3.16-1.25,6.36-.94,8.76-.54,1.86.32,3.08.5,4.16,1.17.01.35.03.7.06,1.05.04-.33.07-.65.09-.96.62.42,1.2,1.01,1.84,1.89,1.19,1.66,1.28,9.28-.04,10.84Z"/><path class="cls-6" d="M48.209,294.517c.05.02.1.06.15.09"/><path class="cls-6" d="M35.259,293.907c-.82.32-1.63.75-2.43,1.31"/><path class="cls-6" d="M48.359,294.607c.05-1-.02-1.91-.19-2.73"/><path class="cls-6" d="M89.249,292.587c-.01.3-.02.63-.15.9-.01.04-.04.08-.06.12-.37.56-1.18.57-1.85.51-2.1-.17-6.03-.49-8.1-.1-.65.12-1.17.32-1.61.59l-.37-.38c-.12-1-.12-2.04.04-3.04.24-1.51.85-2.93,1.93-4.01,1.79-1.8,7.12-2.46,8.9-.64.54.54.85,1.25,1.03,2.02.31,1.29.25,2.78.24,4.03Z"/><path class="cls-6" d="M97.669,309.267c-.37.15-2.94.57-3.34.56-4.34-.06-17.98-.39-19.18-1.26-1.69-1.23-1.02-9.41.03-11.2.71-1.24,1.32-2.17,2.3-2.76.44-.27.96-.47,1.61-.59,2.07-.39,6-.07,8.1.1.67.06,1.48.05,1.85-.51.02-.04.05-.08.06-.12,3.31,1.2,7.69,3.21,8.92,6.24.53,1.3.97,9.02-.35,9.54Z"/><path class="cls-7" d="M85.659,88.667c-1.05-4.19-.99-7.07-.91-10.69-4.06-2.19-7.36-6.18-6.64-12.35-1.17,1.27-3.28,4.15-6.8,3.87-2.88-.23-3.43-1.3-5.28-2.96-.66,3.33-8.7,4.63-10.33,2.28-.14,3.6-5.38,7.33-7.26,6.34,1.48,3.35-1.74,13.81-3.8,13.51-.34-.44-.8-.74-1.32-.9-.31-.1-.64-.15-.98-.15-.84,0-1.69.3-2.33.86-1.31,1.14-1.77,3.06-1.6,4.81.09.96,1.21,4.26,1.83,4.99.48.57,1.07,1.15,1.72,1.64.96.72,2.07,1.25,3.17,1.26.55,2.78,1.46,5.01,2.49,6.78,2.07,3.57,4.63,5.33,5.77,6.03.26.16.52.31.77.46,8.62,5.1,13.01,5.78,17.4,3.56.73-.36,1.45-.81,2.2-1.33,1.49-1.05,3.06-2.38,4.87-3.96.1-.09.21-.18.32-.28,3.14-2.75,5.04-6.63,5.67-10.76.19-1.25.27-2.52.23-3.79-.23-7.09.81-9.22.81-9.22ZM53.259,81.727c.61-1.71,5.5-3.21,9.42-1.49.1.05.3.99-.25,1.31-.55.31-1.26.37-1.93.41-1.5.09-2.99.18-4.48.271-1.07.06-1.94,0-2.76-.5ZM58.909,85.957c.99,0,1.79,1.53,1.79,3.43,0,1.89-.8,3.42-1.79,3.42-.98,0-1.79-1.53-1.79-3.42,0-1.9.81-3.43,1.79-3.43ZM69.329,109.937c-1.78.23-5.35-.11-7.1-1.16-1.7-1.03-2.42-1.38-4.47-4.19.96.91,11.95,3.33,17.01,1.65l.03.09c-1.24,2.1-2.58,3.24-5.47,3.61ZM78.559,92.307c-.81,0-1.46-1.33-1.46-2.98s.65-2.98,1.46-2.98c.8,0,1.45,1.33,1.45,2.98s-.65,2.98-1.45,2.98ZM80.499,82.047c-1.36-.09-2.72-.17-4.08-.26-.6-.04-1.25-.09-1.76-.36-.5-.27-.75-.85-.34-1.16h.01c3.55-1.43,8.1-.07,8.67,1.37-.75.42-1.53.47-2.5.41Z"/><path class="cls-7" d="M71.519,120.437c-.09,1.15-.32,2.21-.68,3.14-1.01,2.58-3.07,4.17-6.47,3.77-2.69-.32-6.32-2.2-8.32-4.25-.95-.97-1.53-1.98-1.48-2.87-.03.06-.18.12-.41.19.16-2.32.01-2.56,0-5.97,8.62,5.1,13.01,5.78,17.4,3.56.05.84.03,1.66-.04,2.43Z"/><path class="cls-1" d="M89.358,94.068c0,2.88-2.25,5.8-3.74,7.01-.04.04-.08.07-.12.1-.36.28-.66.45-.88.5.19-1.25.27-2.52.23-3.79-.23-7.09.81-9.22.81-9.22.33-.2.86-.12,1.43.23.09.06.18.13.27.19,1,.77,2,2.42,2,4.98Z"/><path class="cls-1" d="M87.358,89.088c-.09-.06-.18-.13-.27-.19-.2-.17-.42-.36-.64-.59.43-1.92.58-3.79.44-5.61-.15-2.23-.71-4.39-1.69-6.48-.35-.75-.75-1.49-1.21-2.22-1.82-2.93-4.42-5.44-5.54-8.7.43-.21.81-.48,1.1-.8.82-.15,1.68-.14,2.51,0,1.11.18,2.16.6,3,1.15.32.21.6.44.85.68,1.43,1.42,3.54,4.59,4.34,6.89.12.35.21.67.26.97.22,1.19.39,2.49.5,3.83.5,6.31-.33,13.27-3.65,11.07Z"/><path class="cls-1" d="M84.628,129.548c.88,1.83,1.23,3.18-.77,6.23-.03.07-.06.16-.09.27-.1-.02-.2-.03-.3-.04-.57-.04-1.52-.28-2.34-.31h-.01c-.45-.03-.87.02-1.15.2-.17.11-.3.28-.4.5-.25-.66-.45-.96-.45-.96-.73-.93-1.09-1.91-1.22-2.81v-.01c-.1-.57-.09-1.11-.02-1.58.16-1.18.7-1.9,1.04-1.58-1.49-1.31-2.34-4.3-.13-6.25.3-.27.39-.72.36-1.26-.03-.57-.19-1.24-.37-1.9h-.01c-.24-.87-.53-1.72-.61-2.28-.09-.63-.17-1.16-.22-1.65-.11-1.16-.01-2.06.75-3.33l-.06-.07c.1-.09.21-.18.32-.28,3.14-2.75,5.04-6.63,5.67-10.76.22-.05.52-.22.88-.5.04-.03.08-.06.12-.1l.1.13c2.73,3.13,2.57,8.42-.33,11.38.03.07.06.14.08.21,1.15,2.85.81,6.28-.89,8.84.4.35.73.73,1,1.15,1.39,2.12,1.07,4.94-.95,6.76Z"/><path class="cls-1" d="M49.928,135.628c-.13.01-.27.04-.4.07-.88.24-2.84.32-3.5,1.07-.1.11-.17.24-.21.39-.64-1.22-.85-2.04.07-3.42-.11.01-.2.01-.3,0h-.01c-1.04-.1-1.73-1.38-1.8-2.51-.07-1.24.28-2.52-.11-3.69-.33-.98-1.12-1.72-1.64-2.61-.38-.66-.6-1.4-.65-2.15-.12-1.48.37-3.01,1.39-4.07.04-.05.08-.1.13-.14-1.44-.41-1.98-2.24-1.8-3.74.17-1.51.82-2.95.78-4.46-.01-.21-.03-.41-.05-.62-.21-1.43-.91-2.76-1.27-4.18-.23-.92-.23-2.39.09-3.62.25-.93.67-1.72,1.31-2.03.96.72,2.07,1.25,3.17,1.26.55,2.78,1.46,5.01,2.49,6.78.48.74.82,1.64,1.02,2.6.49,2.28.2,4.94-.86,6.87-.16.32-.35.62-.57.9,1.34.74,1.47,2.57,1.13,4.13-.09.01-.19.02-.28.03-.15.02-.3.03-.45.05.1.08.19.18.29.28.08.1.17.2.25.31-.51,1.66-.71,3.37-.29,3.58.66.32,1.09.69,1.38,1.12.45.64.57,1.41.62,2.3.05,1.04.15,2.81-.73,3.35.87.95.86,1.42.8,2.15Z"/><path class="cls-11" d="M45.128,101.178c-.23-1.14-.41-2.38-.5-3.72"/><path class="cls-11" d="M85.578,122.788c-.01-.01-.03-.01-.04-.01"/><path class="cls-11" d="M79.498,121.998c-.12-.02-.24-.03-.35-.05"/><path class="cls-11" d="M74.616,98.982c0,2.413-7.552,3.09-9.473,2.037"/><path class="cls-11" d="M75.168,106.098c-.13.05-.26.1-.4.14"/><path class="cls-11" d="M45.128,101.178h.12"/><path class="cls-11" d="M84.618,101.678c-.04.01-.08.01-.11.01"/><path class="cls-4" d="M78.108,65.628c-1.17,1.27-3.28,4.15-6.8,3.87-2.88-.23-3.43-1.3-5.28-2.96-.66,3.33-8.7,4.63-10.33,2.28-.14,3.6-5.38,7.33-7.26,6.34,1.48,3.35-1.74,13.81-3.8,13.51-.34-.44-.8-.74-1.32-.9-.31-.1-.64-.15-.98-.15l1.15-.32c-.63-3.32-.43-6.44.53-9.32,1.01-3.12,2.9-5.96,5.52-8.46l.01-.01c.79-.75,1.63-1.44,2.53-2.04.31-.22.63-.43.96-.61,2.81-1.7,6.02-2.71,9.28-2.95.19-.02.38-.03.57-.04,2-.09,4,.11,5.94.62,2.07.54,4.08,1.42,6.22,1.5.18.01.36.01.55-.01.81-.02,1.68-.18,2.45-.5l.06.15Z"/><path class="cls-1" d="M80.268,63.028c-.07.58-.33,1.07-.72,1.47-.43.08-.85.2-1.24.37.04.15.09.29.14.43-.13.07-.26.13-.4.18-.77.32-1.64.48-2.45.5-.19.02-.37.02-.55.01-2.14-.08-4.15-.96-6.22-1.5-1.94-.51-3.94-.71-5.94-.62-.19.01-.38.02-.57.04-3.26.24-6.47,1.25-9.28,2.95-.33.18-.65.39-.96.61-.9.6-1.74,1.29-2.53,2.04l-.01.01c-2.62,2.5-4.51,5.34-5.52,8.46-.96,2.88-1.16,6-.53,9.32l-1.15.32c-.84,0-1.69.3-2.33.86-1.31,1.14-1.77,3.06-1.6,4.81.09.96,1.21,4.26,1.83,4.99.48.57,1.07,1.15,1.72,1.64-.64.31-1.06,1.1-1.31,2.03-3.93-4.32-5.31-9.78-5.34-15.17v-.01c-.04-7.44,2.47-14.72,4.34-18.59,1.96-4.08,4.75-7.07,8.36-9.17h.01c1.4-.82,2.91-1.5,4.55-2.06,1.5-.51,3.1-.94,4.75-1.28,1.3-.28,2.63-.5,3.97-.64,2.79-.33,5.61-.37,8.26-.05.83.1,1.64.24,2.43.41,1.82.4,8.87,3.09,8.29,7.64Z"/><path class="cls-4" d="M87.088,88.898c-.57-.35-1.1-.43-1.43-.23-1.05-4.19-.99-7.07-.91-10.69-4.06-2.19-7.36-6.18-6.64-12.35l-.06-.15c.14-.05.27-.11.4-.18,1.12,3.26,3.72,5.77,5.54,8.7.46.73.86,1.47,1.21,2.22.98,2.09,1.54,4.25,1.69,6.48.14,1.82-.01,3.69-.44,5.61.22.23.44.42.64.59Z"/><path class="cls-5" d="M62.428,81.548c-.55.31-1.26.37-1.93.41-1.5.09-2.99.18-4.48.27-1.07.06-1.94,0-2.76-.5.61-1.71,5.5-3.21,9.42-1.49.1.05.3.99-.25,1.31Z"/><path class="cls-12" d="M80.008,89.328c0,1.65-.65,2.98-1.45,2.98-.81,0-1.46-1.33-1.46-2.98s.65-2.98,1.46-2.98c.8,0,1.45,1.33,1.45,2.98Z"/><path class="cls-12" d="M60.698,89.388c0,1.89-.8,3.42-1.79,3.42-.98,0-1.79-1.53-1.79-3.42,0-1.9.81-3.43,1.79-3.43.99,0,1.79,1.53,1.79,3.43Z"/><path class="cls-10" d="M74.798,106.328c-1.24,2.1-2.58,3.24-5.47,3.61-1.78.23-5.35-.11-7.1-1.16-1.7-1.03-2.42-1.38-4.47-4.19.96.91,11.95,3.33,17.01,1.65l.03.09Z"/><path class="cls-11" d="M75.594,65.982c-1.41-1.394-3.95-3.391-4.96-5.106-1.01-1.716-1.572-3.796-1.104-5.738"/><path class="cls-11" d="M61.299,55.132c-.362,1.471-.727,2.964-.682,4.479.045,1.515.556,3.082,1.684,4.073"/><path class="cls-11" d="M52.083,67.465c-2.479-1.494-4.407-5.508-4.042-8.413"/><path class="cls-11" d="M49.516,69.501c-1.449.074-2.911.147-4.341-.097-1.43-.244-4.537-.151-5.53-1.226"/><path class="cls-11" d="M57.331,55.734c-2.333,3.769-3.638,6.412-4.498,10.778"/><path class="cls-11" d="M62.89,63.759c.969-3.408,3.258-6.408,6.265-8.21"/><path class="cls-11" d="M35,87.034c2.637-2.248,7.323-6.01,9.014-9.057-1.978-1.957-3.771-7.059-4.369-9.798"/><path class="cls-11" d="M80.844,68.814c1.617-1.318,1.161-2.439,1.214-4.545"/><path class="cls-11" d="M85.329,76.144c1.061-3.921,1.505-6.877-.276-10.518"/><path class="cls-11" d="M91.031,77.977c-.862,1.278-2.584,4.748-4.108,4.725"/><path class="cls-11" d="M85.62,76.144c2.173-.329,3.483-1.517,4.884-3.237"/><path class="cls-11" d="M42,109.747c1.873,1.245,4.311,1.57,6.437.858"/><path class="cls-11" d="M42.59,118.689c1.718.263,3.538-.278,4.845-1.441"/><path class="cls-11" d="M43.722,127.516c1.901-1.285,3.448-3.104,4.426-5.201"/><path class="cls-11" d="M45.611,133.473c1.521-.299,3.6-4.068,3.63-5.642"/><path class="cls-5" d="M82.998,81.638c-.75.42-1.53.47-2.5.41-1.36-.09-2.72-.17-4.08-.26-.6-.04-1.25-.09-1.76-.36-.5-.27-.75-.85-.34-1.16h.01c3.55-1.43,8.1-.07,8.67,1.37Z"/><path class="cls-11" d="M85.744,112.458c-1.617,2.148-5.196,3.817-7.853,3.664"/><path class="cls-11" d="M78.158,131.118c1.88-.28,4.67-1.67,5.81-3.21,1.15-1.54.86-4.36.61-6.27-1.79.95-3.81-1.23-5.8-1.59h-.01"/><path class="cls-11" d="M83.608,136.948c-.92-.44-1.74-.82-2.48-1.25h-.01c-1.26-.74-2.28-1.6-3.22-3.07"/><path class="cls-9" d="M51.488,143.008c-.06.08-.13.14-.2.19-.24.2-.53.31-.82.39-.6.18-1.22.33-1.84.43-.36.06-.74.1-1.08-.05-.03-.01-.05-.03-.08-.05-.39-.23-.7-.8-.84-1.4-.13-.61-.09-1.25.23-1.61.15-.17.36-.3.61-.41.79-.35,1.96-.46,2.68-.61.08-.02.15-.03.21-.05.24-.07.51-.13.74-.02.31.16.44.59.52.97.18.75.32,1.64-.13,2.22Z"/><path class="cls-1" d="M51.278,157.168c-.78-2.06-1.12-6.72-1.87-8.95.08-.01.15-.02.23-.04.61-.15,1.22-.34,1.81-.57.1-.04.2-.08.3-.12-.24,3.1-1.01,6.25-.47,9.68Z"/><path class="cls-9" d="M52.428,146.958c-.18.25-.42.41-.68.53-.1.04-.2.08-.3.12-.59.23-1.2.42-1.81.57-.08.02-.15.03-.23.04-.29.06-.58.08-.85-.02-.85-.32-1.48-2.21-.87-3,.04-.06.09-.11.15-.16.74-.67,2.47-.88,3.28-1.17.14-.05.29-.09.43-.1.1-.01.2,0,.3.04.33.13.48.55.59.92.21.74.41,1.62-.01,2.23Z"/><path class="cls-9" d="M84.078,141.668c-.05.78-.16,1.67-.74,2.06-.14.1-.3.15-.46.17-.2.04-.42.04-.62.02-.6-.04-1.19-.11-1.79-.23h-.01c-.35-.07-.71-.17-.97-.43-.65-.66-.59-2.67.21-3.14.18-.11.4-.16.65-.18.9-.07,2.16.33,2.84.39h.04c.23.02.47.06.63.24.25.26.24.71.22,1.1Z"/><path class="cls-1" d="M81.968,148.268c-.63,2.97-.21,5.91-1.34,8.9-.64-2.81-.53-5.98-.35-9.09.5.09,1.01.15,1.52.18.06.01.11.01.17.01Z"/><path class="cls-9" d="M83.618,146.008c-.05.78-.17,1.67-.74,2.06-.27.19-.59.21-.91.2-.06,0-.11,0-.17-.01-.51-.03-1.02-.09-1.52-.18-.09-.01-.19-.03-.28-.05-.35-.07-.71-.16-.98-.43-.65-.65-.59-2.66.21-3.14.31-.18.75-.21,1.23-.17.8.07,1.71.33,2.26.38.02,0,.05,0,.07.01.22.02.45.07.61.23.25.27.24.71.22,1.1Z"/><path class="cls-9" d="M50.658,138.878c-.15.2-.36.32-.58.41-.14.07-.29.12-.43.17-.61.18-1.23.32-1.85.43-.19.03-.38.06-.56.05-.18,0-.35-.03-.52-.11-.71-.33-1.19-1.78-.9-2.67.04-.15.11-.28.21-.39.66-.75,2.62-.83,3.5-1.07.13-.03.27-.06.4-.07.12-.01.23.01.34.06.32.16.44.59.53.96.17.76.32,1.65-.14,2.23Z"/><path class="cls-9" d="M84.378,137.328c-.01.29-.03.6-.08.89-.08.49-.25.93-.61,1.19-.12.09-.25.14-.39.17-.23.05-.46.06-.69.05-.6-.02-1.2-.08-1.8-.19-.18-.03-.37-.06-.54-.13-.16-.06-.31-.15-.44-.27-.52-.49-.63-1.83-.26-2.63v-.01c.1-.22.23-.39.4-.5.28-.18.7-.23,1.15-.2h.01c.82.03,1.77.27,2.34.31.1.01.2.02.3.04.14.03.27.08.37.18.26.26.26.71.24,1.1Z"/></svg>