<?xml version="1.0" encoding="UTF-8"?><svg id="africa" xmlns="http://www.w3.org/2000/svg" width="235" height="321.9" viewBox="0 0 235 321.9"><defs><style>.cls-1{stroke-linecap:round;stroke-linejoin:round;}.cls-1,.cls-2{fill:none;stroke:#000;}.cls-2{stroke-miterlimit:10;}.cls-3,.cls-4,.cls-5,.cls-6,.cls-7,.cls-8,.cls-9,.cls-10,.cls-11,.cls-12{stroke-width:0px;}.cls-4{fill:#4f4f4f;}.cls-5{fill:#808180;}.cls-6{fill:#1e160d;}.cls-7{fill:#d66749;}.cls-8{fill:#e0bfa4;}.cls-9{fill:#d8bb2b;}.cls-10{fill:#b18d6b;}.cls-11{fill:#f2d949;}.cls-12{fill:#fff;}</style></defs><path class="cls-4" d="M20.8,299.4c-.4,1.3-.3,7.2.7,8.2,1.1,1.2,3.1,1.3,4.8,1.3,5.5,0,10.9.1,16.4,0,2,0,5.8.3,7.2-1,1.7-1.6.8-10.2-.5-12.1-5.3.4-12.4-.8-16.7-2-1.7-.5-3-1-3.5-1.4-2.8,1.2-7.7,4.2-8.4,6.9Z"/><path class="cls-10" d="M67.2,180l.2-.6c-1.2-5.1-7.1-1.3-10.7-.7-5.7.7-11.3-7.5-14.5-10-1.9-1.5-3.4-2.5-4.9-3.1.7-1.2,1.2-2.5,1.7-3.9h0c.4-1.4.9-3.2,1.5-5.2-4.4-3-9.8-3.3-15.2-3.8-1.1,5.9-2.1,12.3-2.2,14-.3,5.8,8.9,13.7,14.2,15.9.7.3,1.5.6,2.3.9,4,1.3,9.7,2.7,13,4.3h0c0,3.1,5.2,5.7,7.8,6.5.2,0,.4.1.6.1,0,0,.1,0,.2,0,.2,0,.4,0,.6,0,0,0,0,0,.1,0,2.3.3,6.1.4,7.8.2.2,0,.5,0,.8,0,2.1-.4,6.3-2.1,8.2-3.7-1.7-5.3-6.2-9.5-11.5-11Z"/><path class="cls-9" d="M27.3,143.3c-.6,1.7-1.4,5.4-2.1,9.5,5.4.5,10.8.8,15.2,3.8.7-2.4,1.4-5.2,2.2-8,.9-3.4,1.7-6.9,2.4-10.2.7-5,.9-8.7-.4-12.6-.5-1.4-1.2-2.9-2.1-4.4-1.3-2-3.1-2.2-4.5-2.6-1.8.9-1.9,1-3.1,2.4-2.5,2.9-6,17-7.6,22.1Z"/><path class="cls-7" d="M32.8,250.5c-.5,7.2-3.6,41.9-3.6,41.9.5.4,1.8.9,3.5,1.4l10.9-101.9c-2.6-.5-4.4-1-4.7-1.5-.2,3.3-.4,6.6-.4,6.6-.7,6.6-4.8,40.9-5.7,53.4Z"/><path class="cls-5" d="M61.8,194.6s0,0-.1,0c-.2,0-.4,0-.6,0,0,0-.1,0-.2,0-4.6-.6-12.4-1.5-17.3-2.5l-10.9,101.9c4.3,1.2,11.5,2.4,16.7,2,1.1,0,2.1-.2,3-.4,0,.2,4.8-39.7,5.2-43,1-7.3,3.4-21.2,5.6-31.8h0c-.2,3,4.4,25.5,4.9,33.2.1,1.5,6,41.6,6,42.1.9,0,1.8.1,2.6.2,9,.5,13.2-1,18.1-2.6l-9.4-100.7c-5,.5-12.8,1.6-15.1,1.8h0c-.3,0-.6,0-.8,0-1.8.2-5.6,0-7.8-.2Z"/><path class="cls-10" d="M74.9,101.9h0c-1.7,2.4-4.1,2.8-7.4,2.3-5.6-.7-9.4-5.6-8.6-5.2,4.1,1.7,11.6,3.8,15.9,2.9ZM87.8,77.7c0-1.2,0-2.3,0-3.5-2-11.3-10.1-14.6-19.1-15.2-6.4-.4-13.9,1.6-19.6,10.7-2,3.2-3.3,7.8-4,9-.7,1.2-2.8,1-2.8-.4h0c-.5-1.3-1.7-1.8-2.7-1.6-.2,0-.4.1-.6.3-1.2.8-1.9,2.7-1.9,4.5,0,1.8.5,3.6,1.2,5.2.6,1.5,1.4,2.9,2.5,3.6.7.5,1.5.7,2.3.4h0c1.2,7.8,7.4,14.2,10,16.5.5.4,1,.8,1.4,1.2h0c8.3,6.8,13.9,6.5,18.4,3.5,2.8-1.9,5.2-4.8,7.6-7.6,2.7-3.2,5.1-7.1,6.3-13,.6-2.8.9-6,1-9.8,0-1.6,0-2.8,0-3.9ZM58.2,84c0-1.7.8-3.1,1.7-3.1s1.7,1.4,1.7,3.1-.8,3.1-1.7,3.1-1.7-1.4-1.7-3.1ZM78,83.8c0-1.5.6-2.7,1.4-2.7s1.4,1.2,1.4,2.7-.6,2.7-1.4,2.7-1.4-1.2-1.4-2.7Z"/><path class="cls-11" d="M43.5,192c5,1,12.7,1.8,17.3,2.5-.3,0-.5,0-.6-.1-2.6-.8-7.7-3.5-7.8-6.5h0c-3.3-1.6-9-3-13-4.3l-.2.7s-.2,3.2-.4,6.3c.3.5,2.1,1,4.7,1.5Z"/><path class="cls-12" d="M37.9,118.7c1.4.4,3.2.5,4.5,2.6,1,1.5,1.6,3,2.1,4.4h.4c2.4-4.4,5.7-7.6,10.5-8.4h0c-1-1-1.6-2-1.5-3.1-1.2.7-14.8,3.8-16,4.5Z"/><path class="cls-11" d="M87.5,155.8c0-.8,0-1.5,0-2.2,0-7.8.4-11.3-.2-19.4-.4-2.7-.6-5.2-1.1-7.5h-.1c-2.3-4.7-10.9-9.1-14.1-9.4h-.1c-1.7,3.5-5.4,5.8-9.9,3.8-2.4-1.1-5-2.3-6.5-3.8h0c-4.9.8-8.1,4-10.5,8.3h-.4c1.3,4,1.1,7.7.4,12.7-.7,3.3-1.5,6.8-2.4,10.2h.3c-.1,2.1-.3,17.6-.7,20.2,3.3,2.5,8.8,10.8,14.5,10,3.6-.6,9.5-4.4,10.7.7,4,1.4,10.6,0,16.9-6,1.2-1.1,2.2-2.4,3.2-3.7,0-3.6,0-9.8,0-14ZM57.3,156.2v-4.3l10.6-16.8h5.9v16.2h2.3v5.1h-2.3v5.1h-5.4v-5.2h-11.1Z"/><path class="cls-12" d="M57.3,151.9v4.3h11.1v5.2h5.4v-5.1h2.3v-5.1h-2.3v-16.2h-5.9l-10.6,16.8ZM63.5,151.3c.6-.9,1.4-2,2.3-3.5l.5-.8c.9-1.5,1.7-3,2.3-4.5-.1,1.3-.2,3.1-.2,5.4v3.4h-1.6c-1.6,0-2.7,0-3.4,0Z"/><path class="cls-3" d="M59.9,80.8c-.9,0-1.7,1.4-1.7,3.1s.8,3.1,1.7,3.1,1.7-1.4,1.7-3.1-.8-3.1-1.7-3.1Z"/><path class="cls-12" d="M59,99c-.9-.4,3,4.5,8.6,5.2,3.3.4,5.6,0,7.4-2.2h0c-4.3.8-11.8-1.3-15.9-3Z"/><path class="cls-8" d="M61.7,194.6c-.2,0-.4,0-.6,0,.2,0,.4,0,.6,0Z"/><path class="cls-11" d="M65.8,147.8c-.9,1.5-1.7,2.7-2.3,3.5.6,0,1.8,0,3.4,0h1.6v-3.4c0-2.3,0-4.1.2-5.4-.6,1.6-1.4,3.1-2.3,4.5l-.5.8Z"/><path class="cls-10" d="M87.5,169.8c-1.1,1.3-2.1,2.6-3.2,3.7-6.4,6-12.9,7.4-16.9,6l-.2.6c5.3,1.5,9.8,5.7,11.5,11,.3-.2.5-.5.7-.7,2.6-3.8,5.4-5.1,9.3-7.3.5-.3,1.1-.6,1.7-.9,6.4-3.7,13.1-8.9,10.7-16.6-.4-1.3-1-4.2-1.9-7.9-.3-1-.5-2.3-.8-3.9-3.2-.1-8.1.4-10.9,2.2,0,4.3,0,10.4,0,14Z"/><path class="cls-11" d="M88.4,192.6c.4,0,.7,0,1,0,0-1.7-.6-7.2-.7-9.5-3.9,2.2-6.7,3.5-9.3,7.3-.2.2-.4.5-.7.7-1.9,1.5-6.1,3.3-8.2,3.7h0c2.3-.2,10.1-1.3,15.1-1.8,1.1-.1,2.1-.2,2.8-.3Z"/><path class="cls-10" d="M72.8,112c-4.5,3-10,3.3-18.4-3.5,0,3.6-.3,3.4-.5,5.8-.1,1.1.5,2.1,1.5,3.1,1.6,1.4,4.1,2.7,6.5,3.8,4.6,2,8.3-.3,9.9-3.9s.6-1.5.8-2.2c.2-.9.3-1.9.2-2.9h0Z"/><path class="cls-4" d="M95,293.6c-5,1.6-9.2,3-18.1,2.6-1.1,2-1.1,10.4.9,11.6,1.5.8,19.6,1.4,24.7,1.1.5,0,3.4-.6,3.8-.8,1.5-.6.8-8.8,0-10.2-1.1-2-4.2-3.8-7.3-5.1v-.4c-1.5.4-2.8.8-4.1,1.2Z"/><path class="cls-3" d="M79.4,81.1c-.8,0-1.4,1.2-1.4,2.7s.6,2.7,1.4,2.7,1.4-1.2,1.4-2.7-.6-2.7-1.4-2.7Z"/><path class="cls-12" d="M86.2,126.6c-.5-2.9-1.2-5.7-2.5-8.7-3.7-1.2-9.4-2.6-10.8-2.9h-.2c-.2.7-.4,1.5-.8,2.2h.1c3.2.3,11.8,4.8,14.1,9.4h.1Z"/><path class="cls-7" d="M85.6,192.9l9.4,100.7c1.2-.4,2.5-.8,4-1.2,0,0,.2,0,.3,0,0-1.1-5.2-37.2-5.4-39.6-1.1-12.5-3.2-38.9-3.7-44.2-.6-5.5-.8-10.3-1.7-16-.7,0-1.7.2-2.8.3Z"/><path class="cls-9" d="M83.7,117.9c1.3,3,2,5.8,2.5,8.7.4,2.3.7,4.8,1.1,7.5.6,8.1.2,11.6.2,19.4s0,1.4,0,2.2c2.7-1.8,7.6-2.3,10.9-2.2-1.5-8.4-3.2-23.4-5.7-27.4-1.9-3-2.8-5.4-5.9-7.1-.5-.3-1.7-.7-3.1-1.2Z"/><path class="cls-10" d="M86.7,91.4h.3c1.5,1.1,3.7-2.5,4.1-5.1.3-1.9,0-3.9-.3-5.8-.1-.7-.2-1.4-.6-1.9-.2-.3-.6-.5-1-.6-.5-.2-1.1-.3-1.4-.2,0,1.1,0,2.4,0,3.9,0,3.8-.4,7-1,9.8Z"/><path class="cls-6" d="M87.8,74.2c0,1.2,0,2.3,0,3.5.3,0,.9,0,1.4.2,0-4.9.8-13.2-2.2-20-4-9-17.2-10.8-24.5-10.6-8.3.2-14.1,3.9-19,11.7-3.3,5.3-4.5,9.9-3.9,17.8h0c1-.2,2.2.4,2.7,1.6h0c0,1.5,2.1,1.7,2.8.4.7-1.2,2-5.8,4-9,5.7-9.1,13.2-11.1,19.6-10.7,9,.6,17.1,3.9,19.1,15.2Z"/><path class="cls-2" d="M72.9,112.1c0,1,0,1.9-.2,2.9-.2.8-.4,1.5-.8,2.2-1.7,3.5-5.4,5.9-9.9,3.9-2.4-1.1-5-2.3-6.5-3.8-1-.9-1.6-1.9-1.5-3.1.2-2.4.5-2.2.5-5.8"/><path class="cls-2" d="M72.9,115c1.4.3,7.1,1.7,10.8,2.9,1.4.5,2.6.9,3.1,1.2,3.1,1.7,4,4.1,5.9,7.1,2.5,4,4.2,19.1,5.7,27.4.3,1.6.6,2.9.8,3.9"/><path class="cls-2" d="M38.9,161.7c.4-1.4.9-3.2,1.5-5.2.7-2.4,1.4-5.2,2.2-8,.9-3.4,1.7-6.9,2.4-10.2"/><path class="cls-2" d="M53.9,114.3c-1.2.7-14.8,3.8-16,4.5-1.8.9-1.9,1-3.1,2.4-2.5,2.9-6,17-7.6,22.1"/><path class="cls-2" d="M60.9,194.5c-4.6-.6-12.4-1.5-17.3-2.5-2.6-.5-4.4-1-4.7-1.5"/><path class="cls-2" d="M61.7,194.6c-.2,0-.4,0-.6,0"/><path class="cls-2" d="M62,194.6c0,0-.1,0-.2,0"/><path class="cls-2" d="M88.7,182.5c0,.1,0,.3,0,.5,0,2.3.8,7.8.7,9.5-.3,0-.6,0-1,0-.7,0-1.7.2-2.8.3-5,.5-12.8,1.6-15.1,1.8"/><path class="cls-2" d="M87.3,134.2c.6,8.1.2,11.6.2,19.4s0,1.4,0,2.2c0,4.3,0,10.4,0,14"/><path class="cls-2" d="M42.8,148.6c-.1,2.1-.3,17.5-.7,20.2"/><path class="cls-2" d="M99.2,157.5c.8,3.8,1.5,6.7,1.9,7.9,2.4,7.7-4.3,12.9-10.7,16.6-.6.3-1.1.6-1.7.9-3.9,2.2-6.7,3.5-9.3,7.3-.2.2-.4.5-.7.7-1.9,1.5-6.1,3.3-8.2,3.7-.3,0-.6.1-.8,0"/><path class="cls-2" d="M95,163.7c-3.3,1-5.4,3.6-7.5,6.1-1.1,1.3-2.1,2.6-3.2,3.7-6.4,6-12.9,7.4-16.9,6"/><path class="cls-2" d="M27.3,143.3c-.6,1.7-1.4,5.4-2.1,9.5-1.1,5.9-2.1,12.3-2.2,14-.3,5.8,8.9,13.7,14.2,15.9.7.3,1.5.6,2.3.9,4,1.3,9.7,2.7,13,4.3.2,0,.4.2.6.3"/><path class="cls-2" d="M56.6,178.8c-5.7.7-11.3-7.5-14.5-10-1.9-1.5-3.4-2.5-4.9-3.1-1.8-.8-3.7-1.1-6.6-1.2"/><path class="cls-2" d="M69.6,194.8c-1.8.2-5.6,0-7.8-.2,0,0,0,0-.1,0-.2,0-.4,0-.6,0,0,0-.1,0-.2,0-.3,0-.5,0-.6-.1-2.6-.8-7.7-3.5-7.8-6.5"/><path class="cls-2" d="M56.6,178.8c3.6-.6,9.5-4.4,10.7.7"/><path class="cls-2" d="M88.4,192.5s0,0,0,0c1,5.6,1.1,10.5,1.7,16,.6,5.3,2.6,31.7,3.7,44.2.2,2.4,5.4,38.5,5.4,39.6,0,0-.2,0-.3,0-1.4.4-2.7.8-4,1.2-5,1.6-9.2,3-18.1,2.6-.8,0-1.7,0-2.6-.2,0-.5-5.9-40.6-6-42.1-.6-7.8-5.1-30.2-4.9-33.2"/><path class="cls-2" d="M66.6,206.7c0,0,0,.2-.1.3-.7,1.9-1.9,7.2-3.3,13.6-2.2,10.6-4.6,24.5-5.6,31.8-.4,3.3-5.2,43.3-5.2,43-.9.2-1.9.4-3,.4-5.3.4-12.4-.8-16.7-2-1.7-.5-3-1-3.5-1.4,0,0,3.1-34.8,3.6-41.9.9-12.5,5-46.8,5.7-53.4,0,0,.2-3.4.4-6.6.2-3.2.4-6.3.4-6.3"/><path class="cls-2" d="M72.9,200.8c-1.7,1.4-4.7,4.4-6.4,6.2-.5.5-.8.8-1,1"/><path class="cls-1" d="M29.2,292.5c-2.8,1.2-7.7,4.2-8.4,6.9-.4,1.3-.3,7.2.7,8.2,1.1,1.2,3.1,1.3,4.8,1.3,5.5,0,10.9.1,16.4,0,2,0,5.8.3,7.2-1,1.7-1.6.8-10.2-.5-12.1"/><path class="cls-1" d="M76.8,296.1c-1.1,2-1.1,10.4.9,11.6,1.5.8,19.6,1.4,24.7,1.1.5,0,3.4-.6,3.8-.8,1.5-.6.8-8.8,0-10.2-1.1-2-4.2-3.8-7.3-5.1"/><path class="cls-2" d="M65.4,179.6c.6,0,1.2.2,1.8.4,5.3,1.5,9.8,5.7,11.5,11,0,0,0,.1,0,.2"/><path class="cls-2" d="M38.9,161.7c-.4,1.3-1,2.6-1.7,3.9,0,0,0,0,0,0"/><path class="cls-2" d="M25.1,152.7c5.4.5,10.8.8,15.2,3.8,0,0,.2.1.3.2"/><path class="cls-2" d="M87.5,155.8s0,0,0,0c2.7-1.8,7.6-2.3,10.9-2.2"/><path class="cls-2" d="M37.9,118.7c1.4.4,3.2.5,4.5,2.6,1,1.5,1.6,3,2.1,4.4,1.3,3.8,1.1,7.6.4,12.6"/><path class="cls-2" d="M83.7,117.9c1.3,3,2,5.8,2.5,8.7.4,2.3.7,4.8,1.1,7.5"/><path class="cls-2" d="M55.4,117.4c-4.9.8-8.1,3.9-10.5,8.2"/><path class="cls-2" d="M72.1,117.3c3.2.2,11.8,4.7,14.1,9.4"/><polygon class="cls-2" points="76.1 156.3 73.8 156.3 73.8 161.4 68.4 161.4 68.4 156.2 57.3 156.2 57.3 151.9 67.9 135.1 73.8 135.1 73.8 151.2 76.1 151.2 76.1 156.3"/><path class="cls-2" d="M68.6,142.4c-.6,1.6-1.4,3.1-2.3,4.5l-.5.8c-.9,1.5-1.7,2.7-2.3,3.5.6,0,1.8,0,3.4,0h1.6v-3.4c0-2.3,0-4.1.2-5.4Z"/><path class="cls-1" d="M87.9,70.7c0,1.3,0,2.4-.1,3.4,0,1.2,0,2.3,0,3.5,0,1.1,0,2.4,0,3.9,0,3.8-.4,7-1,9.8-1.3,6-3.6,9.8-6.3,13-2.4,2.8-4.8,5.7-7.6,7.6-4.5,3-10,3.3-18.4-3.5h0c-.5-.4-.9-.8-1.4-1.2-2.6-2.3-8.8-8.7-10-16.4"/><path class="cls-1" d="M82.6,76c-1-.8-5.2-.9-6.2-.4"/><path class="cls-1" d="M63.9,75.3c-1.9-1-7-.3-7.4.4"/><path class="cls-1" d="M78,83.8c0,1.5.6,2.7,1.4,2.7s1.4-1.2,1.4-2.7-.6-2.7-1.4-2.7-1.4,1.2-1.4,2.7Z"/><path class="cls-1" d="M58.2,84c0,1.7.8,3.1,1.7,3.1s1.7-1.4,1.7-3.1-.8-3.1-1.7-3.1-1.7,1.4-1.7,3.1Z"/><path class="cls-1" d="M74.6,91.6c1.2,2.9-.4,5.2-4.4,5"/><path class="cls-1" d="M75.4,101.8c-.2,0-.3,0-.5.1-4.3.9-11.8-1.2-15.9-2.9-.9-.4,3,4.5,8.6,5.2,3.3.4,5.6,0,7.4-2.2"/><path class="cls-1" d="M89.2,77.9c0-4.9.8-13.2-2.2-20-4-9-17.2-10.8-24.5-10.6-8.3.2-14.1,3.9-19,11.7-3.3,5.3-4.5,9.9-3.9,17.8"/><path class="cls-1" d="M42.4,78.6c0,0,0-.2,0-.2-.5-1.2-1.7-1.8-2.7-1.6-.2,0-.4.1-.6.3-1.2.8-1.9,2.7-1.9,4.5,0,1.8.5,3.6,1.2,5.2.6,1.5,1.4,2.9,2.5,3.6.7.5,1.5.7,2.3.4.5-.1.9-.4,1.2-.8"/><path class="cls-1" d="M87.8,77.7h0c.3,0,.9,0,1.4.2.4.2.8.4,1,.6.3.6.5,1.3.6,1.9.3,1.9.6,3.9.3,5.8-.4,2.6-2.5,6.2-4.1,5.2"/><path class="cls-1" d="M42.3,78.4c0,1.5,2.1,1.6,2.8.4.7-1.2,2-5.8,4-9,5.7-9.1,13.2-11.1,19.6-10.7,9,.6,17.1,3.9,19.1,15.2,0,.2,0,.4.1.7"/><polyline class="cls-1" points="43.6 191.3 43.5 192 32.7 293.9"/><polyline class="cls-1" points="85.6 192.9 95 293.6 95 294.4"/></svg>