<?xml version="1.0" encoding="UTF-8"?><svg id="africa" xmlns="http://www.w3.org/2000/svg" width="235" height="321.9" viewBox="0 0 235 321.9"><defs><style>.cls-1{stroke-linecap:round;stroke-linejoin:round;}.cls-1,.cls-2{fill:none;stroke:#000;}.cls-2{stroke-miterlimit:10;}.cls-3,.cls-4,.cls-5,.cls-6,.cls-7,.cls-8,.cls-9,.cls-10,.cls-11{stroke-width:0px;}.cls-4{fill:#4f4f4f;}.cls-5{fill:#808180;}.cls-6{fill:#1e160d;}.cls-7{fill:#d66749;}.cls-8{fill:#d8bb2b;}.cls-9{fill:#b18d6b;}.cls-10{fill:#f2d949;}.cls-11{fill:#fff;}</style></defs><path class="cls-4" d="M216.7,207.3c3.1,1.3,3.6,5.4,1.9,8.3s-4.9,4.8-8,6.3c-9.5,4.8-19.7,8.2-29.9,11.5-1.2.4-2.6.8-3.7.3-1.7-3.4-2.5-4.2-3.4-8,3.1-2.2,5.5-4.7,7.3-7.3.9-1.2,1.6-2.5,2.2-3.7,1.1-2.2,1.8-4.3,2.1-6.3,9.4-.8,17.2-.7,26.6-1.5,1.6-.1,3.3-.3,4.8.3Z"/><path class="cls-5" d="M105.9,180.7c16.2,5,79.9,24.7,79.7,26.4,0,.4,0,.9-.2,1.4-.3,1.9-1,4.1-2.1,6.3-17.7-5-72.4-20.3-88.5-23.7-5.5-1.2-15.7-3.6-20.5-6.6-4.8-2.9-5.9-6.8-6.9-12.4h0c6.1-.2,14.3,1.5,23.3,3.9,3.4.9,7.6,2.4,11.7,3.7.4.1,1.7.5,3.5,1.1Z"/><path class="cls-7" d="M183.3,214.7c-.6,1.2-1.3,2.4-2.2,3.7-17.7-5-75.3-19.8-91.4-23.2-5.5-1.2-16-5-20.8-7.9-4.8-2.9-6.9-8.2-7.9-13.8h0c1.7-1,3.9-1.5,6.4-1.6h0c1,5.6,2.1,9.5,6.9,12.4,4.8,2.9,15,5.4,20.5,6.6,16.1,3.4,70.7,18.7,88.5,23.7Z"/><path class="cls-5" d="M111.6,212.8c-17.3-3.8-32.7-7.2-37.3-8.1-2.3-.6-4.2-1.1-5.4-1.6-4.5-2.2-10.5-7.8-11.6-17.9-.2-2-.2-4.1,0-6.5.4-2.5,1.7-4.2,3.7-5.3h0c1,5.7,3.1,10.9,7.9,13.9,4.8,2.9,15.3,6.7,20.8,7.9,16.1,3.4,73.6,18.1,91.4,23.2-1.8,2.5-4.2,5-7.3,7.3-.7.5-34-6.7-62.1-12.9Z"/><path class="cls-4" d="M131.1,299.5c16.9,7.5,1,15.4-7,14.5-11.1-1.2-24.2-2.5-36.3-4.7-1.3-.2-2.7-1-3.2-2.2-.4-.9-.2-1.9,0-2.8.9-4,.8-5.2,1.6-7,10.9.5,16.5-3.8,25.3-6.4,8.1,4.3,9.5,4.2,19.6,8.7Z"/><path class="cls-6" d="M125.1,61.6c1.7,2.9,2.1,7,1.7,11.1-2.4-6.7-17.3-13.1-24-10.7-9.2,3.3-12.5,15.1-13.7,16.4-1.1,1.2-5.1.6-6.8-.3h0c-.7-1.7-2.7-2.1-4.1-1.2-1.4,1-2.1,2.9-2.2,4.7-.3,3.3.9,6.9,3.4,8.3.3,1.7.4,4.4.4,7.3h0c-5.3-5.2-7.6-12.3-7.9-20-.4-9.3,1-26.5,17.4-30.4,23.6-5.7,32.4,8.9,35.9,14.7Z"/><path class="cls-9" d="M82.4,78.2c1.7.9,5.7,1.5,6.8.3,1.2-1.3,4.4-13.1,13.7-16.4,6.7-2.4,21.6,4,24,10.7h0c-.3,3.1-.9,6.3-1.7,8.9-1.3,4.5-2,4.6-2.7,7.1-.6,2.1-.6,10.5-7.9,19.1,0,0-4.3,5.4-8.1,6.1-.9.2-3.1-.3-5.9-1.5,0,.2,0,.4,0,.6-.2,2.2,0,2.3.3,5.1-2.8,4.3-11,4.5-15.1,3-3.7-1.4-6.1-3.9-6.9-8.7,0-.4-.1-.8-.2-1.2.3-.7.6-2.2.7-4,.3-2.8.5-6.4.5-9.8,0-2.9-.1-5.6-.4-7.3-2.5-1.4-3.7-5.1-3.4-8.3.2-1.9.9-3.8,2.2-4.7,1.4-1,3.4-.6,4.1,1.1h0ZM101.9,97.5l-.2.2c0,12.2,8.6,12.7,11.2,4.7-4.3-.5-7.2-2.3-11-5ZM119.4,89.5c.3-1.5,0-2.8-.9-3-.8-.2-1.7.9-2.1,2.4-.3,1.5,0,2.8.9,3,.8.2,1.7-.9,2.1-2.4ZM103.7,85.6c.3-1.4-.1-2.8-.9-2.9-.8-.2-1.8.8-2.1,2.3-.3,1.5,0,2.8.9,2.9.8.2,1.8-.8,2.1-2.3Z"/><path class="cls-3" d="M118.5,86.4c.8.2,1.2,1.5.9,3-.3,1.5-1.3,2.6-2.1,2.4-.8-.2-1.2-1.5-.9-3,.3-1.5,1.3-2.6,2.1-2.4Z"/><path class="cls-8" d="M114.1,123.3c4.4,10.5,4.1,28.2,4.1,29,0,.8,0,1.5-.2,2.1-1.5-2.4-2.1-3.7-4.2-4.7-1-.8-3.7-2.6-10.6-1-.4-2.9-1-5.8-1-10.7,0-3.8-.3-8.8,1.3-12.3.5-1,1-1.9,1.7-2.6,1.6-1.7,3.7-2.5,6.5-2.6l.2-.2c1.1,1,1.9,2,2.3,3Z"/><path class="cls-5" d="M118.1,235.3c.5,9.4-6.3,50.7-6.6,55.5-8.8,2.6-14.4,6.9-25.3,6.4-.9,0-1.8-.1-2.7-.2,0-6.2,8.5-52.8,6.5-61.7-2.6-11.3-10.9-21.3-15.6-30.6,4.6.9,20,4.3,37.3,8.1,1.4,4.8,6.1,15.4,6.5,22.5Z"/><path class="cls-9" d="M83.9,151.3c8.6-.9,10.7-.8,19.2-2.6h0c6.9-1.6,9.7.2,10.6,1,2.1,1.1,2.7,2.4,4.2,4.7-.2,1-.5,1.9-1,2.9-1.1,2.1-1.1,1.1-2.1,1.8-3.9,1.5-7.3,2.3-10.3,2.8-7.3,1.1-13.1-.2-22.3-1.3-1.1-.1-2.3-.3-3.5-.4-.6.2-1.4.4-2.4.5-4,.5-10.5.2-11.4-1.9,0-.2-.1-.6-.1-1.1,0-2.1,1.3-6.1,2.8-9.2,1-2,2.1-3.7,3.2-4.2,0,0,0,0,0,0,1.3-.6,4,.2,6.7,1.4,2.2,1,4.4,2.4,5.6,3.7.6.6.9,1.2.9,1.7v.2Z"/><path class="cls-11" d="M111.7,120.3l-.2.2c-2.7,0-4.9.9-6.5,2.6h0c0-2.3-2.3-5-4.4-5.1-.3-2.8-.5-2.9-.3-5.1h.1c2.6,1.4,8,4.4,11.2,7.4Z"/><path class="cls-11" d="M112.9,102.4c-2.6,8-11.3,7.5-11.2-4.7l.2-.2c3.8,2.7,6.6,4.5,11,5Z"/><path class="cls-10" d="M105.1,123.1h0c-.7.7-1.2,1.6-1.7,2.6-1.6,3.5-1.3,8.4-1.3,12.3,0,4.9.7,7.8,1,10.7h0c-8.5,1.8-10.7,1.7-19.2,2.7v-.2c0-.5-.4-1.1-.9-1.7h0c0,0,1.1-14.3,1.1-14.3l-6.5-.5-7.1,9.6h0c-1.1.7-2.2,2.3-3.2,4.4h-.1s-2.7,3.6-2.7,3.6v5.7c0,.4,0,.8.1,1.1.9,2.1,7.4,2.3,11.4,1.9l-.2,2.8,5.9.5.3-3.3c9.2,1.1,15,2.4,22.3,1.3-.8,3,1.2,13.9,1.4,18.8-1.8-.6-3.1-.9-3.5-1.1-4.1-1.3-8.3-2.8-11.7-3.7-8.9-2.4-17.2-4.1-23.3-3.9-2.6,0-4.7.5-6.4,1.5-2,1.1-3.3,2.8-3.7,5.3-.2,2.3-.2,4.5,0,6.5h0c-3.9-13.1-1.3-14.7.9-39.4,0-5,.4-8.6.4-12.5,0-2.2-.1-4.5-.4-7.1-.3-3.8.4-8.2,1.9-12.1h0c6.1-1.6,11.8-3.5,18.6-1.8.7,4.8,3.1,7.3,6.9,8.7,4.1,1.5,12.3,1.3,15.1-3,2.1.1,4.4,2.8,4.4,5.1Z"/><path class="cls-3" d="M102.8,82.7c.8.2,1.3,1.5.9,2.9-.3,1.4-1.3,2.5-2.1,2.3-.8-.2-1.3-1.5-.9-2.9.3-1.4,1.3-2.5,2.1-2.3Z"/><path class="cls-11" d="M77.4,145.7c-2.7-1.2-5.4-2-6.7-1.4,0,0,0,0,0,0h0c0-.1,7.1-9.7,7.1-9.7l6.5.5-1.1,14.3h0c-1.2-1.2-3.3-2.6-5.6-3.7Z"/><path class="cls-11" d="M82.2,160.6l-.3,3.3-5.9-.5.2-2.8c1-.1,1.9-.3,2.4-.5,1.2.1,2.4.3,3.5.4Z"/><path class="cls-11" d="M79.4,107.1c-.2,1.8-.5,3.2-.7,4,0,.4,0,.8.2,1.2-6.8-1.7-12.5.2-18.6,1.8.9-2.3,2.2-4.5,3.6-6.3,3.2-.5,10.4-1.5,15.5-.7Z"/><path class="cls-11" d="M67.4,148.5h.1c-1.5,3.2-2.7,7.2-2.8,9.3v-5.7l2.7-3.6Z"/><path class="cls-8" d="M36.8,130.9c0-.1,0-.3,0-.4,4.2-5.2,12.1-14.2,12.7-14.7,4.3-3.7,7.5-6.7,13.2-7.8.3,0,.7-.1,1.3-.2-1.5,1.8-2.7,3.9-3.6,6.3h0c-1.6,3.9-2.3,8.3-1.9,12.1.3,2.7.4,5,.4,7.1h-.4c-4.9,4.3-11.8,8.9-14.4,10.7-.4-.4-.8-.7-1.1-1.1-1.3-1.4-2.5-2.9-3.4-4.6-1.1-2.1-2.3-5.1-2.6-7.4Z"/><path class="cls-9" d="M27.1,165.4h0c2.5.7,4.9,9.5,3.3,11.5-1.8,2.1-11.9,2.9-13.6,1.8-2-1.3.2-9,1.6-10.9,2.8-12.2,4.5-18.5,12-28.7,1.7-2.4,2.8-3.8,3.7-5,.8-1.1,1.6-2,2.7-3.2.3,2.4,1.4,5.3,2.6,7.4.9,1.7,2.1,3.2,3.4,4.6h0c-.7.5-2.2,2-3.5,3-4.9,8.5-8.5,12.5-12.1,19.4Z"/><path class="cls-1" d="M34,134.1c0-.3,1.1-1.7,2.7-3.6,4.2-5.2,12.1-14.2,12.7-14.7,4.3-3.7,7.5-6.7,13.2-7.8.3,0,.7-.1,1.3-.2,3.2-.5,10.4-1.5,15.5-.7,0,0,0,0,0,0"/><path class="cls-1" d="M58.2,133.4c-4.9,4.3-11.8,8.9-14.4,10.7"/><path class="cls-1" d="M36.8,130.9s0,0,0,0c-1.1,1.2-1.9,2.1-2.7,3.2-.9,1.2-1.9,2.6-3.7,5-7.5,10.2-9.2,16.5-12,28.7"/><path class="cls-1" d="M42.7,143c-.7.5-2.2,2-3.5,3-4.9,8.5-8.5,12.5-12.1,19.4,0,.2-.2.4-.3.5"/><path class="cls-1" d="M27.2,165.4c2.5.6,4.9,9.5,3.3,11.4-1.8,2.1-11.9,2.9-13.6,1.8-2-1.3.2-9,1.6-10.9"/><path class="cls-1" d="M118.1,152.4c0-.8.4-18.5-4.1-29-.4-1-1.2-2-2.3-3-3.2-3-8.6-6-11.2-7.4"/><path class="cls-1" d="M102.1,138c0,4.9.7,7.8,1,10.7,6.9-1.6,9.7.2,10.6,1"/><path class="cls-1" d="M114.8,159.1c-3.9,1.5-7.3,2.3-10.3,2.8-7.3,1.1-13.1-.2-22.3-1.3-1.1-.1-2.3-.3-3.5-.4"/><path class="cls-1" d="M104.1,148.5c-.3,0-.6.1-.9.2-8.5,1.8-10.7,1.7-19.2,2.6-.2,0-.5,0-.7,0"/><path class="cls-1" d="M83.9,151.1c0-.5-.3-1.1-.9-1.7-1.2-1.3-3.3-2.7-5.6-3.7-2.7-1.2-5.4-2-6.7-1.4,0,0,0,0,0,0-1.1.5-2.2,2.2-3.2,4.2-1.5,3.1-2.7,7.1-2.8,9.2,0,.4,0,.8.1,1.1.9,2.1,7.4,2.3,11.4,1.9,1-.1,1.9-.3,2.4-.5"/><path class="cls-1" d="M118.1,152.4c0,.8,0,1.5-.2,2.1-.2,1-.5,1.9-1,2.9-1.1,2.1-1.1,1.1-2.1,1.8"/><path class="cls-1" d="M58.2,145.9c-2.3,24.7-4.8,26.3-.9,39.4"/><path class="cls-1" d="M104.5,161.9s0,0,0,0c-.8,3,1.2,13.9,1.4,18.8h0"/><path class="cls-1" d="M58.2,126.2c.3,2.7.4,5,.4,7.1,0,4-.3,7.6-.4,12.5"/><path class="cls-1" d="M74.3,204.7c4.6.9,20,4.3,37.3,8.1,28.1,6.2,61.4,13.4,62.1,12.9,3.1-2.2,5.5-4.7,7.3-7.3.9-1.2,1.6-2.5,2.2-3.7,1.1-2.2,1.8-4.3,2.1-6.3,0-.5.1-.9.2-1.4.1-1.6-63.6-21.3-79.7-26.4-1.8-.6-3.1-.9-3.5-1.1"/><path class="cls-1" d="M68.9,203.2c1.2.5,3.1,1,5.4,1.6"/><path class="cls-1" d="M74.3,204.7c4.7,9.2,13.1,19.3,15.6,30.6,2,8.9-6.5,55.5-6.5,61.7,1,.1,1.9.2,2.7.2,10.9.5,16.5-3.8,25.3-6.4.3-4.8,7.1-46.1,6.6-55.5-.4-7.1-5-17.7-6.5-22.5,0,0,0-.1,0-.2"/><path class="cls-1" d="M86.2,297.2c-.8,1.8-.7,3.1-1.6,7-.2.9-.4,1.9,0,2.8.5,1.2,1.9,2,3.2,2.2,12,2.2,25.2,3.5,36.3,4.7,8,.9,24-7,7-14.5-10.1-4.5-11.6-4.4-19.6-8.7"/><path class="cls-1" d="M57.3,178.8c-.2,2.3-.2,4.5,0,6.5,1.1,10.1,7,15.7,11.6,17.9"/><path class="cls-1" d="M177.1,233.6c1.1.5,2.5.1,3.7-.3,10.2-3.3,20.4-6.7,29.9-11.5,3.1-1.6,6.3-3.5,8-6.3s1.2-7-1.9-8.3c-1.5-.6-3.2-.5-4.8-.3-9.4.8-17.2.7-26.6,1.5"/><path class="cls-1" d="M173.8,225.7c.8,3.7,1.6,4.5,3.4,8"/><path class="cls-1" d="M102.3,179.6c-4.1-1.3-8.3-2.8-11.7-3.7-8.9-2.4-17.2-4.1-23.3-3.9-2.6,0-4.7.5-6.4,1.5-2,1.1-3.3,2.8-3.7,5.3"/><path class="cls-2" d="M100.5,112.1c0,0,0,.1,0,.2,0,.2,0,.4,0,.6-.2,2.2,0,2.3.3,5.1-2.8,4.3-11,4.5-15.1,3-3.7-1.4-6.1-3.9-6.9-8.7,0-.4-.1-.8-.2-1.2"/><path class="cls-2" d="M36.7,130.2c0,.1,0,.2,0,.3,0,.1,0,.2,0,.4.3,2.4,1.4,5.3,2.6,7.4.9,1.7,2.1,3.2,3.4,4.6.4.4.7.7,1.1,1.1"/><path class="cls-2" d="M117.9,154.4c-1.5-2.4-2.1-3.7-4.2-4.7"/><path class="cls-2" d="M60.2,114.1c-1.6,3.9-2.3,8.3-1.9,12.1"/><path class="cls-2" d="M63.8,107.8c-1.5,1.8-2.7,3.9-3.6,6.3"/><path class="cls-2" d="M102.1,138c0-3.8-.3-8.8,1.3-12.3.5-1,1-1.9,1.7-2.6,1.6-1.7,3.7-2.5,6.5-2.6"/><path class="cls-2" d="M78.8,112.3c-6.8-1.7-12.5.2-18.6,1.8h0"/><path class="cls-2" d="M100.7,118c2.1.1,4.4,2.8,4.4,5.1"/><polyline class="cls-2" points="64.7 157.8 64.7 152.1 67.4 148.5"/><polyline class="cls-2" points="82.2 160.6 81.9 163.9 76 163.4 76.2 160.7 76.2 160.7"/><polyline class="cls-2" points="70.6 144.1 77.7 134.6 84.2 135.1 83.1 149.3"/><path class="cls-2" d="M77.4,146c0-.1,0-.3,0-.4.1-1.2.3-2.2.4-3-.4.8-.9,1.7-1.3,2.5"/><path class="cls-1" d="M125.1,81.6c-1.3,4.5-2,4.6-2.7,7.1-.6,2.1-.6,10.5-7.9,19.1,0,0-4.3,5.4-8.1,6.1-.9.2-3.1-.3-5.9-1.5-4.4-1.9-10.4-5.6-15.4-11.3"/><path class="cls-1" d="M121.6,83c-.1-2.5-3.7-2.8-4.7-1.5"/><path class="cls-1" d="M107,78.5c-1.2-1.9-5.7-3.6-8.2-1.5"/><path class="cls-1" d="M114.6,94.4c.5,6.6-6.4,3.3-7.6,1.8"/><path class="cls-1" d="M116.4,88.8c-.3,1.5,0,2.8.9,3,.8.2,1.7-.9,2.1-2.4.3-1.5,0-2.8-.9-3-.8-.2-1.7.9-2.1,2.4Z"/><path class="cls-1" d="M100.7,85c-.3,1.5,0,2.8.9,2.9.8.2,1.8-.8,2.1-2.3.3-1.4-.1-2.8-.9-2.9-.8-.2-1.8.8-2.1,2.3Z"/><path class="cls-1" d="M112.9,102.4c-4.3-.5-7.2-2.3-11-5-.3-.2-.6-.4-.9-.6"/><path class="cls-1" d="M112.9,102.4c-2.6,8-11.3,7.5-11.2-4.7"/><path class="cls-1" d="M79.5,90.1c.3,1.7.4,4.4.4,7.3,0,3.3-.2,7-.5,9.8-.2,1.8-.5,3.2-.7,4"/><path class="cls-1" d="M126.8,72.7c.4-4.1,0-8.2-1.7-11.1-3.5-5.8-12.3-20.5-35.9-14.7-16.4,4-17.8,21.1-17.4,30.4.3,7.7,2.7,14.7,7.9,20"/><path class="cls-1" d="M125.1,81.6c.8-2.6,1.4-5.8,1.7-8.9"/><path class="cls-1" d="M82.4,78.2c-.7-1.7-2.7-2.1-4.1-1.1-1.4,1-2.1,2.9-2.2,4.7-.3,3.3.9,6.9,3.4,8.3,1.1.6,2.7.6,3.3-.7"/><path class="cls-1" d="M82.1,78c0,0,.2.1.3.2,1.7.9,5.7,1.5,6.8.3,1.2-1.3,4.4-13.1,13.7-16.4,6.7-2.4,21.6,4,24,10.7h0"/><path class="cls-1" d="M61,173.6c1,5.6,3.1,10.8,7.9,13.8,4.8,2.9,15.3,6.7,20.8,7.9,16.1,3.4,73.6,18.1,91.4,23.2"/><path class="cls-1" d="M67.4,172c1,5.6,2.1,9.4,6.9,12.4,4.8,2.9,15,5.4,20.5,6.6,16.1,3.4,70.7,18.7,88.5,23.7"/></svg>