<?xml version="1.0" encoding="UTF-8"?><svg id="africa" xmlns="http://www.w3.org/2000/svg" width="235" height="321.9" viewBox="0 0 235 321.9"><defs><style>.cls-1{stroke-linecap:round;stroke-linejoin:round;}.cls-1,.cls-2{fill:none;stroke:#000;}.cls-2{stroke-miterlimit:10;}.cls-3,.cls-4,.cls-5,.cls-6,.cls-7,.cls-8,.cls-9,.cls-10{stroke-width:0px;}.cls-4{fill:#181817;}.cls-5{fill:#414a61;}.cls-6{fill:#d14752;}.cls-7{fill:#8d352e;}.cls-8{fill:#b62026;}.cls-9{fill:#684c45;}.cls-10{fill:#fff;}</style></defs><path class="cls-7" d="M231.5,189.9c3.4,1.4,3.9,6,2.1,9.2-1.8,3.2-5.3,5.3-8.7,7.1-10.4,5.4-21.5,9.1-32.5,12.8-1.3.4-2.8.9-4,.3-.9-.5-.9-.6-1.4-1.5-1.9-3.8-2.5-4.6-3.4-8.7,12.7-6.7,13.5-11.8,12.1-16.5,10.2-.9,20.3-2.1,30.5-3,1.8-.2,3.6-.3,5.2.4Z"/><path class="cls-5" d="M58,162.6c0-1.4,0-2.9.1-4.5,1.7-10.9,17.4-7.2,36.3-3.2,9.2,2,11.8,4.2,16.3,5.4,16.9,5.8,84,29,84.6,30.8.2.5.3,1,.5,1.4,1.4,4.8.6,9.8-12.1,16.5-.9.5-33.2-6.3-62.4-12.5-20.4-4.3-39.3-8.4-44.7-9.5-2.5-.6-4.6-1.2-5.9-1.7-5.3-2.6-12.4-9.8-12.7-22.7Z"/><path class="cls-7" d="M141.3,302.9c1.8,3.5-.7,7.9-4.3,9.5-3.6,1.6-7.8,1-11.7.3-11.9-2.4-23.4-6.7-34.9-11-1.4-.5-2.9-1.2-3.5-2.5-.4-1-.3-2.1,0-3.1.9-4.4.9-5.4,2.9-9.5,12.9,2.5,14.8.9,24.5-4.7,8.9,6.2,14.1,10.9,23,17.1,1.5,1.1,3.1,2.2,4,3.9Z"/><path class="cls-4" d="M82,58.7c.4.2.7.3,1,.4-.3,3-.3,3.3,0,4.3-7.4-14.6-4.8-24.3-2-35,2-7.6,5.9-11.3,7.6-12.2,11.5-6.8,39,4.8,45.1,11.2,2.7,8.1-1.7,16.6-5.1,23.7.9-2.4,1.6-4.9,1.6-7.3.5-3.5-7-5.3-10-6.9-3.1-1.5-14.4-5.4-17.9-4.3-3.3,1.4-6.3,1.5-7.2,6.2-.9,4.7-4.7,16.8-4.9,16.5-1.6-2.3-.9-5.4-2.1-8-.7-1.5-4.6-3.5-6.7-2-1.2.8-2.2,4.7-2.1,6.4s1.5,6.3,2.8,7Z"/><path class="cls-9" d="M125,54.5c0-.8-3.3-4-4.5-3.8-1.1.2-2.3,2.3-.9,3.1.5.3,3.3,1.6,3.8,1.9.7.3,1.5-.4,1.6-1.2ZM83,59.2c-.3-.1-.6-.3-1-.4-1.3-.7-2.7-5.2-2.8-7s.9-5.6,2.1-6.4c2.1-1.5,6,.5,6.7,2,1.2,2.6.5,5.7,2.1,8,.2.3,4-11.8,4.9-16.5.9-4.7,3.9-4.8,7.2-6.2,3.5-1.1,14.8,2.8,17.9,4.3,3,1.6,10.5,3.4,10,6.9,0,2.4-.7,5-1.6,7.3,0,0,0,0,0,0-1.5,4-3.6,7.5-3.6,9.5s-2.1,9-6.5,16.2c0,0-4.4,6.4-9.7,8.2-.6.2-1.1.3-1.7.4-.2,0-.3,0-.5,0-.8,0-1.5,0-2.3-.2-5.6-1.2-11.2-7.7-14.9-11.4-3-2.9-4.8-5.2-6-9.2,0,0,0,0,0-.1-.1-.4-.2-.8-.3-1.2-.3-1-.3-1.3,0-4.3ZM121.7,61.1c.3-1.6,0-3.1-.9-3.3s-1.7,1-2,2.6c-.3,1.6,0,3.1.8,3.3.8.2,1.7-1,2-2.6ZM103.4,69c-1.6,6.5,8.4,13.6,10.9,5.1-4.5-.6-6.8-1.8-10.9-5.1ZM110.2,49.3c.7.2,2.4-2.2-.3-3-2.8-.9-8.3-1.8-8.6,1.6,0,.3,7,.9,8.9,1.4ZM106.4,57c.3-1.6-.1-3-.9-3.2-.8-.2-1.7.9-2,2.4-.3,1.6.1,3,.9,3.2.8.2,1.7-.9,2-2.5Z"/><path class="cls-3" d="M120.5,50.8c1.3-.2,4.6,3,4.5,3.8,0,.8-.9,1.5-1.6,1.2-.5-.2-3.3-1.6-3.8-1.9-1.4-.8-.2-2.9.9-3.1Z"/><path class="cls-5" d="M121,197.8c3.3,11.5,4,18.6,3.7,27.1,0,.6-10.3,56.4-10.4,57.1-9.7,5.6-11.6,7.3-24.5,4.7-.5,0-.9-.2-1.4-.3,0-.3,6.3-60.4,6-61.3-2.2-6.3-9.8-27.1-17.9-38.1,5.4,1.1,24.3,5.1,44.7,9.5l-.3,1.3Z"/><path class="cls-8" d="M123.4,105.5c2.2,18.7,1.2,27.4-1.7,28.4,0,0,0-13-13.9-9.3-.4-3.2-.9-6.5-1-12-.2-6.5.3-11.4.6-17,0-1.5,1-2.8,2-3.9.2-.2.5-.5.7-.7,1.3-1.2,4.1-2.3,5.8-1.7.8.6,1.7,1.3,2.6,2.1,2.3,2,4.2,9,4.8,14.1Z"/><path class="cls-3" d="M120.8,57.8c.8.2,1.2,1.7.9,3.3s-1.2,2.8-2,2.6c-.8-.2-1.2-1.7-.8-3.3.3-1.6,1.2-2.8,2-2.6Z"/><path class="cls-10" d="M87.5,138.1c-1.5-.2-3.1-.4-4.7-.6-.8-3.6.7-7.7,3.6-10,.2,0,.4,0,.6-.1,9.9-2,8,.5,20.7-2.9,14-3.7,13.9,9.3,13.9,9.3-4.2,2.8-8.2,4.4-12.3,5.1-6.6,1.1-13.5.2-21.8-.9Z"/><path class="cls-10" d="M114.3,74.1c-2.5,8.6-12.5,1.4-10.9-5.1,4.1,3.3,6.3,4.5,10.9,5.1Z"/><path class="cls-3" d="M109.9,46.2c2.7.8.9,3.2.3,3-1.9-.5-8.9-1.1-8.9-1.4.3-3.4,5.8-2.4,8.6-1.6Z"/><path class="cls-10" d="M109.4,91.6c-.6-.7-1.4-1.2-2.2-1.4h-.2c.5-1.6.6-3.2,0-4.5h0c.6-.1,1.2-.3,1.7-.5,2.8,1.5,4.9,2.5,7.2,4.1-1.7-.6-4.5.4-5.8,1.7-.2.2-.5.4-.7.7h0Z"/><path class="cls-10" d="M79.4,84.1v-.2c0-2,2.9-5.5,4.9-5.6.2,0,.4,0,.5,0h.1c-.1,2.1-.5,3.6-1.2,4.1-2.4,7.7,3.4,10,7.9,11.3,6.2,1.9,14.6-2.6,12.6-8.1v-.2c.8.2,1.6.2,2.4.2.2,0,.3,0,.5,0h0c.5,1.4.4,3,0,4.5-1.6,4.8-7.7,9.6-16.6,7.5-7.2-1.7-11-3-11.1-13.5Z"/><path class="cls-3" d="M105.5,53.8c.8.2,1.2,1.6.9,3.2-.3,1.6-1.2,2.7-2,2.5-.8-.2-1.2-1.6-.9-3.2.3-1.6,1.2-2.7,2-2.4Z"/><path class="cls-10" d="M87.7,113.2c1.5,1.5,2.2,3.5,2,6-.2,2.9-1.5,4.9-3.7,6-1-1.1-2.6-2.2-4.3-3.2.7-.5,1.1-1.3,1.1-2.5.2-1.9-.6-2.9-2.3-3.1-1.5-.1-3.2.8-4.9,2.6l-4.2-4.2c2.8-3.1,6-4.5,9.8-4.2,2.9.2,5.1,1.1,6.6,2.6Z"/><path class="cls-9" d="M86.4,127.6c-2.9,2.3-4.3,6.3-3.6,10-.5,0-1-.1-1.5-.2-1.8.6-6.5,1-10.1.6-2.4-.3-4.4-.9-4.9-2.1-1-2.4,3.1-14.7,6.4-16.2.6-.3,1.5-.3,2.7,0,1.8.3,4.1,1.3,6.2,2.4,1.7,1,3.3,2.1,4.3,3.2.7.7,1.1,1.4,1.1,2.1h0c-.2.2-.4.2-.6.3Z"/><path class="cls-9" d="M85,78.4c.2-3.7-.6-9.3-1.6-13.5,1.2,4.1,3,6.3,6,9.2,3.7,3.7,9.4,10.2,14.9,11.4v.2c2,5.5-6.4,10-12.6,8.1-4.5-1.4-10.4-3.6-7.9-11.3.8-.5,1.1-2,1.2-4.1Z"/><path class="cls-10" d="M82.8,137.6c1.6.2,3.2.4,4.7.6-.4.6-1,1.2-1.6,1.6-1.9,1.4-4.4,2-7.6,1.8-2.8-.2-5.2-1.4-7.2-3.5,3.7.4,8.3,0,10.1-.6.5,0,1,.1,1.5.2Z"/><path class="cls-8" d="M80.4,116.5c1.7.1,2.5,1.2,2.3,3.1,0,1.2-.5,2-1.1,2.5-2.1-1.2-4.4-2.1-6.2-2.4v-.5c1.8-1.9,3.5-2.8,5-2.6Z"/><path class="cls-10" d="M80.3,78.1c1.4,0,2.8,0,4,.2-2,0-4.9,3.6-4.9,5.6v.2c-3.5-.8-7.2-1-10.8-.5,2.9-3.2,6.7-4.9,11.8-5.5Z"/><path class="cls-6" d="M58.1,158.2c-.1,1.6-.2,3-.1,4.5-3.4-12.6-.6-21.5,1.7-42.7.3-2.4.5-4.9.8-7.6,1.3-14.6,3.5-23.5,8.1-28.7,3.6-.5,7.3-.3,10.8.5,0,10.5,3.8,11.8,11.1,13.5,8.9,2.1,15-2.7,16.6-7.5h.2c.8.3,1.6.8,2.2,1.5h0c-1.1,1.2-1.9,2.5-2,4-.4,5.6-.8,10.6-.6,17,0,5.5.6,8.8,1,12-12.7,3.4-10.8.9-20.7,2.9h0c0-.8-.4-1.5-1.1-2.2,2.2-1.1,3.5-3.1,3.7-6,.2-2.5-.4-4.5-2-6-1.5-1.5-3.7-2.3-6.6-2.6-3.8-.3-7,1.1-9.8,4.2l4.2,4.2v.5c-1.2-.2-2.1-.2-2.7,0-3.3,1.5-7.4,13.8-6.4,16.2.5,1.2,2.5,1.8,4.9,2.1,2,2.1,4.3,3.3,7.2,3.5,3.2.3,5.7-.3,7.6-1.8.6-.5,1.1-1,1.6-1.6,8.3,1,15.2,2,21.8.9v.3c-.9,3.4,1.4,15.6,1.5,21.1,0,0-.1,0-.2,0-4.5-1.1-7.1-3.4-16.3-5.4-18.8-4-34.6-7.7-36.3,3.2Z"/><path class="cls-8" d="M68.6,83.6c-4.6,5.1-6.8,14.1-8.1,28.7-.2,2.7-.5,5.2-.8,7.6.2-5,.3-8.9-.4-13.2h0c-5.3,4.8-12.2,10.8-15,12.8-.5-.3-1.1-.6-1.6-.9-4.3-2.9-7.8-8-9-10.9-.4-.8-.5-1.5-.5-1.8.2-1.1,15.6-17,16.5-17.8,4.7-4.2,8.1-7.5,14.3-8.7,1.7-.3,9.9-1.3,16.5-1.2-5.1.7-8.9,2.4-11.8,5.5Z"/><path class="cls-9" d="M25.3,143.3c2.7.7,5.3,10.6,3.5,12.7-1.9,2.3-12.9,3.3-14.8,2.1-2.2-1.5.3-10,1.7-12.2,0,0,0-.2,0-.3h.3c2.5-1.4,5.4-2.1,8.3-1.9h.5c.1,0,.2-.3.3-.5h.1Z"/><path class="cls-10" d="M25.2,143.2c-.1.2-.2.4-.3.6h-.5c-2.9-.3-5.8.4-8.3,1.9h-.3c3-13.4,4.9-20.5,13-31.8,1.5-2,2.6-3.6,4.7-6.3,1.2,2.9,4.7,8,9,10.9h0c-1.8,1.3-2.4,1.8-4.1,3.1-5.3,9.5-9.3,13.9-13.2,21.7Z"/><path class="cls-1" d="M59.1,106.7c-5.3,4.8-12.2,10.8-15,12.8-.5-.3-1.1-.6-1.6-.9-4.3-2.9-7.8-8-9-10.9-.4-.8-.5-1.5-.5-1.8.2-1.1,15.6-17,16.5-17.8,4.7-4.2,8.1-7.5,14.3-8.7,1.7-.3,9.9-1.3,16.5-1.2,1.4,0,2.8,0,4,.2.2,0,.4,0,.5,0"/><path class="cls-1" d="M33.5,107.6c-2.1,2.7-3.3,4.3-4.7,6.3-8.1,11.3-10,18.3-13,31.7,0,0,0,.2,0,.3"/><path class="cls-1" d="M42.5,118.6c-1.8,1.2-2.4,1.7-4.1,3-5.3,9.5-9.3,13.9-13.2,21.7-.1.2-.2.4-.3.6"/><path class="cls-1" d="M25.3,143.3c2.7.7,5.3,10.6,3.5,12.7-1.9,2.3-12.9,3.3-14.8,2.1-2.2-1.5.3-10,1.7-12.2"/><path class="cls-2" d="M115.9,89.3c-2.3-1.6-4.4-2.6-7.2-4.1"/><path class="cls-1" d="M106.8,112.6c0,5.5.6,8.8,1,12,14-3.7,13.9,9.3,13.9,9.3,2.9-1,3.9-9.7,1.7-28.4-.6-5.1-2.5-12.1-4.8-14.1-.9-.8-1.8-1.5-2.6-2.1"/><path class="cls-1" d="M121.7,133.9c-4.2,2.8-8.2,4.4-12.3,5.1-6.6,1.1-13.5.2-21.8-.9-1.5-.2-3.1-.4-4.7-.6-.5,0-1-.1-1.5-.2"/><path class="cls-1" d="M107.8,124.6c-12.7,3.4-10.8.9-20.7,2.9-.2,0-.4,0-.6.1,0,0-.1,0-.2,0"/><path class="cls-2" d="M71.2,138c3.7.4,8.3,0,10.1-.6"/><path class="cls-1" d="M87,127.3c0-.6-.4-1.3-1.1-2.1-1-1.1-2.6-2.2-4.3-3.2-2.1-1.2-4.4-2.1-6.2-2.4-1.1-.2-2-.2-2.7,0-3.3,1.5-7.4,13.8-6.4,16.2.5,1.2,2.5,1.8,4.9,2.1"/><path class="cls-1" d="M80.3,78.1c-5.1.7-8.9,2.4-11.8,5.5-4.6,5.1-6.8,14.1-8.1,28.7-.2,2.7-.5,5.2-.8,7.6-2.3,21.2-5.1,30.2-1.7,42.7,0,.3.2.7.3,1.1"/><path class="cls-1" d="M109.4,139.3c-.9,3.4,1.4,15.6,1.5,21.1"/><path class="cls-1" d="M57.5,99.5c.8,2.6,1.3,4.9,1.7,7.1.7,4.3.7,8.2.4,13.2,0,.6,0,1.2,0,1.8"/><path class="cls-1" d="M76.6,187.1c5.4,1.1,24.3,5.1,44.7,9.5,29.2,6.2,61.6,13,62.4,12.5,12.7-6.7,13.5-11.8,12.1-16.5-.1-.5-.3-1-.5-1.4-.6-1.7-67.6-25-84.6-30.8-1.9-.7-3.2-1.1-3.6-1.2"/><path class="cls-1" d="M70.7,185.3c1.3.5,3.3,1.1,5.9,1.7"/><path class="cls-1" d="M76.6,187.1c8,11,15.6,31.8,17.9,38.1.3.8-6.1,61-6,61.3.5,0,1,.2,1.4.3,12.9,2.5,14.8.9,24.5-4.7,0-.7,10.3-56.4,10.4-57.1.3-8.5-.4-15.6-3.7-27.1"/><path class="cls-1" d="M89.8,286.7c-2,4.1-2,5-2.9,9.5-.2,1-.4,2.1,0,3.1.6,1.3,2.1,2,3.5,2.5,11.4,4.3,22.9,8.6,34.9,11,3.9.8,8.1,1.3,11.7-.3,3.6-1.6,6.1-6,4.3-9.5-.9-1.7-2.5-2.8-4-3.9-8.9-6.2-14.1-10.9-23-17.1"/><path class="cls-1" d="M58.1,158.2c-.1,1.6-.2,3-.1,4.5.4,13,7.4,20.1,12.7,22.7"/><path class="cls-1" d="M188.4,219.3c1.2.6,2.7.1,4-.3,11-3.7,22.1-7.4,32.5-12.8,3.4-1.8,6.9-3.9,8.7-7.1,1.8-3.2,1.3-7.8-2.1-9.2-1.6-.7-3.4-.5-5.2-.4-10.2.9-20.3,2.1-30.5,3h0"/><path class="cls-1" d="M183.7,209.1c.9,4.2,1.5,4.9,3.4,8.7.4.9.5,1,1.4,1.5"/><path class="cls-1" d="M112.5,160.7c-.6,0-1.1-.2-1.6-.3,0,0-.1,0-.2,0-4.5-1.1-7.1-3.4-16.3-5.4-18.8-4-34.6-7.7-36.3,3.2"/><path class="cls-1" d="M104.2,85.7c2.1,5.5-6.4,10-12.6,8.1-4.5-1.4-10.4-3.6-7.9-11.3"/><path class="cls-2" d="M115.9,89.3c-1.7-.6-4.5.4-5.8,1.7-.2.2-.5.4-.7.7-1.1,1.1-1.9,2.4-2,3.9-.4,5.6-.8,10.6-.6,17"/><path class="cls-2" d="M84.8,78.4c-.2,0-.4,0-.5,0-2,0-4.9,3.6-4.9,5.6v.2c0,10.5,3.8,11.8,11.1,13.5,8.9,2.1,15-2.7,16.6-7.5.5-1.6.6-3.1,0-4.5"/><path class="cls-2" d="M68.3,83.6c0,0,.2,0,.3,0,3.6-.5,7.3-.3,10.8.5,0,0,0,0,0,0"/><path class="cls-2" d="M107.2,90.2c.8.2,1.6.7,2.2,1.4"/><path class="cls-2" d="M16.2,145.7c2.5-1.5,5.4-2.2,8.3-2"/><path class="cls-2" d="M86.7,127.4c0,0-.2.1-.3.2-2.9,2.3-4.3,6.3-3.6,10,0,0,0,.1,0,.2"/><path class="cls-2" d="M87.8,137.8c0,.1-.2.2-.3.4-.4.6-1,1.2-1.6,1.6-1.9,1.4-4.4,2-7.6,1.8-2.8-.2-5.2-1.4-7.2-3.5,0,0-.1-.1-.2-.2"/><path class="cls-2" d="M81.3,122.2c0,0,.2-.1.3-.2.7-.5,1.1-1.3,1.1-2.5.2-1.9-.6-2.9-2.3-3.1-1.5-.1-3.2.8-4.9,2.6l-4.2-4.2c2.8-3.1,6-4.5,9.8-4.2,2.9.2,5.1,1.1,6.6,2.6,1.5,1.5,2.2,3.5,2,6-.2,2.9-1.5,4.9-3.7,6"/><path class="cls-1" d="M88.6,16.3c-1.7.9-5.6,4.7-7.6,12.2-2.8,10.7-5.5,20.4,2,35"/><path class="cls-1" d="M83.3,64.8c-.1-.4-.2-.8-.3-1.2-.3-1-.3-1.3,0-4.3"/><path class="cls-1" d="M128.5,51.2c-1.5,4-3.6,7.5-3.6,9.5s-2.1,9-6.5,16.2c0,0-4.4,6.4-9.7,8.2-.6.2-1.1.3-1.7.4-.2,0-.3,0-.5,0-.8,0-1.5,0-2.3-.2-5.6-1.2-11.2-7.7-14.9-11.4-3-2.9-4.8-5.2-6-9.2"/><path class="cls-1" d="M130.2,43.9c0,2.4-.7,5-1.6,7.3"/><path class="cls-1" d="M116.4,67.2c.8,4.2-5.4,2.3-8.5.9"/><path class="cls-1" d="M118.8,60.4c-.3,1.6,0,3.1.8,3.3.8.2,1.7-1,2-2.6s0-3.1-.9-3.3-1.7,1-2,2.6Z"/><path class="cls-1" d="M103.4,56.2c-.3,1.6.1,3,.9,3.2.8.2,1.7-.9,2-2.5.3-1.6-.1-3-.9-3.2-.8-.2-1.7.9-2,2.4Z"/><path class="cls-1" d="M114.3,74.1c-4.5-.6-6.8-1.8-10.9-5.1"/><path class="cls-1" d="M114.3,74.1c-2.5,8.6-12.5,1.4-10.9-5.1"/><path class="cls-1" d="M83,63.5c.1.4.2.8.3,1.2,0,0,0,0,0,.1,1.1,4.3,1.8,9.8,1.6,13.5-.1,2.1-.5,3.6-1.2,4.1"/><path class="cls-1" d="M102.3,32.6c3.5-1.1,14.8,2.8,17.9,4.3,3,1.6,10.5,3.4,10,6.9"/><path class="cls-1" d="M102.3,32.6c-3.3,1.4-6.3,1.5-7.2,6.2-.9,4.7-4.7,16.8-4.9,16.5-1.6-2.3-.9-5.4-2.1-8-.7-1.5-4.6-3.5-6.7-2-1.2.8-2.2,4.7-2.1,6.4s1.5,6.3,2.8,7c.4.2.7.3,1,.4.9.3,1.6.3,2.5-.3"/><path class="cls-1" d="M127.9,52.6c.2-.4.4-.9.6-1.3,0,0,0,0,0,0,3.4-7.1,7.8-15.6,5.1-23.7-6.1-6.4-33.6-18-45.1-11.2"/><path class="cls-1" d="M101.3,47.8c0,.3,7,.9,8.9,1.4.7.2,2.4-2.2-.3-3-2.8-.9-8.3-1.8-8.6,1.6Z"/><path class="cls-1" d="M119.6,53.9c.5.3,3.3,1.6,3.8,1.9.7.3,1.5-.4,1.6-1.2,0-.8-3.3-4-4.5-3.8-1.1.2-2.3,2.3-.9,3.1Z"/></svg>