<?xml version="1.0" encoding="UTF-8"?><svg id="africaModest" xmlns="http://www.w3.org/2000/svg" width="235" height="321.9" viewBox="0 0 235 321.9"><defs><style>.cls-1{stroke-linecap:round;stroke-linejoin:round;}.cls-1,.cls-2{fill:none;stroke:#000;}.cls-2{stroke-miterlimit:10;}.cls-3,.cls-4,.cls-5,.cls-6,.cls-7,.cls-8,.cls-9,.cls-10,.cls-11{stroke-width:0px;}.cls-4{fill:#4a62ba;}.cls-5{fill:#2b388d;}.cls-6{fill:#1b2f60;}.cls-7{fill:#19a7d4;}.cls-8{fill:#0690b6;}.cls-9{fill:#c48f6f;}.cls-10{fill:#805530;}.cls-11{fill:#fff;}</style></defs><path class="cls-6" d="M14.7,299c-.3,1.3-.3,7,.7,8,1,1.2,2.8,1.3,4.4,1.3,5.1,0,10.1.1,15.2,0,1.8,0,5.4.3,6.6-1,1.1-1.1.9-6.1.3-9.5-8.5-1.6-18.2-4.5-19.4-5.7-2.6,1.2-7.1,4.1-7.8,6.7Z"/><path class="cls-11" d="M33.9,160.3h0c.5-1.6,3.1-8.6,3.7-10.3-3.3-1.4-10-4.7-13-7.4-2.3,6.2-4.1,13.5-4.2,18.2,0,5.7,8.7,11.5,13.8,13.7,3.8,1.6,4.6,3,8.4,5.1h0c.1-4,.3-9.3.4-13.5-3-2-6-4-9.1-5.9Z"/><path class="cls-5" d="M24.5,142.5c3,2.8,9.8,6.1,13,7.4.3.1.6.3.9.4,1.2-1.6,2.5-4.3,3.8-7.1,1.7-3.8,3.4-7.9,4.7-10.8,1.1-3.1,1.2-6.6.2-9.8-1-3.2-1.2-5.8-3.9-7.8-1.5.2-2.8.4-3.2.5-3.2,1.5-5.8,6.1-8.4,8.6-1.9,1.8-8.7,16.1-8.7,16.1,0,.7.5,1.5,1.5,2.4Z"/><path class="cls-8" d="M82.6,299.3c7.9,0,15.1-3.7,20.6-5.9h0c.9-.3,1.7-.7,2.4-.9,0-6.6-16.2-79.2-17.1-85.3-.8-5.2-2.6-13.8-3-19.4-2.2.5-4.4,1.5-6.7,1.7-4.3.5-8.8.8-13.2.6-3.6-.2-19.6-2.1-22.8-4.6,0,0,0,0,0,0-1.4,7.9-20.3,106.7-20.3,106.7,1.2,1.2,10.9,4.1,19.4,5.7,4.7.9,9,1.4,11.3,1,.2-.8,6.9-59.1,10.7-82.6h0c0,3.5,11.1,78.7,11.1,81.7,2.5.9,5,1.3,7.5,1.3Z"/><path class="cls-10" d="M45.4,94.9c1.1,4,1,3.1,3.7,6.5h0c1.5,1.6,3,2.9,4.4,4.1,9.4,8.2,14.7,7.6,18.6,4.5,2.6-2,4.6-5.1,6.8-7.5,2.7-2.9,4.2-6.3,5-9.4.9-3.4,1-6.4,1-8.3,0-1.1-.1-1.8-.1-1.8.8-3.9.9-5.2.8-8.7-.9-3.8-5.9-13.7-17.1-13.7-10.5,0-23.9,7.6-24.2,20.5-1.5-.7-3,.1-4,1.5-1,1.3-1.7,3.1-1.5,4.4.5,3.4,4.1,8.1,6.6,7.1,0,.3.2.6.2.8ZM52,75.5c-.6,0-.9-.3-.6-.9.4-.8,1.6-1.8,3.6-2.3,1.6-.4,7-.5,6.2,2-.2.6-.7,1-1.4,1.1-.6.1-2.3-.3-2.9-.3-1.7,0-3,.2-4.9.4ZM55.9,84c0-2,.8-3.6,1.8-3.6s1.8,1.6,1.8,3.6-.8,3.6-1.8,3.6-1.8-1.6-1.8-3.6ZM62.7,102.6c-1.7-1.2-1.7-.4-3.8-3.7,1,1.1,10.9,3.5,15.9,1.2-1.3,2.4-2.6,3.8-5.6,4.2-1.8.3-4.7-.5-6.5-1.7ZM75.5,76.2c-.8,0-1.5-.8-1.5-1.6,0-.8.6-1.5,1.4-1.8,2-.8,4.2.1,5.6,1.4.2.2.4.4.5.6,0,.3,0,.6,0,.8-.2.2-.5.3-.8.2-.3,0-4.4.4-5.1.4ZM76.5,83.8c0-1.8.7-3.2,1.5-3.2s1.5,1.5,1.5,3.2-.7,3.2-1.5,3.2-1.5-1.4-1.5-3.2Z"/><path class="cls-7" d="M47.5,52.9c-8.8,6.8-12.2,19.2-7.7,29.5h.2c1.1-1.3,2.6-2.1,4-1.4.3-12.9,13.7-20.5,24.2-20.5,11.3,0,16.3,9.9,17.1,13.7.2,3.6,0,4.8-.8,8.7,0,0,0,.7.1,1.8h.2c.4-1.3.7-2.6.9-3.8,2.1-10,.9-19.7-6.4-26.3-8.2-7.5-23.2-8.4-32-1.7Z"/><path class="cls-7" d="M49,101.4c-2.7-3.4-2.6-2.5-3.7-6.5-2.5,4.6-5.1,15.5-5.3,20.6.4-.2,1.6-.4,3.2-.5,3.9-.4,9.8-.8,10.1-1.3h0s0,0,0,0c-.2-2.6,0-4.6,0-8.1-1.4-1.2-2.8-2.5-4.4-4.1h0Z"/><path class="cls-4" d="M85.5,187.8c.6-.1,1.1-.2,1.7-.2.1-3,0-6.4-.2-9.9-.3-5.1-.7-10.6-1-15.6-.2-2.7-.3-5.4-.3-7.8s0-3.9,0-5.9c0,0,0,0,0,0,0,0,0,0,0,0,.2-6.7.4-13.8-.9-19.8,0-1.5-.3-3.2-.7-4.8h0c-3.4-3.7-9.6-7.1-14.7-6.7-1.6,1.5-3.8,2.2-6.5,1.9-2.5-.3-5.7-1.2-7.7-2.6-3.1,1.1-7.6,2.2-8.2,6.4,1,3.2.9,6.7-.2,9.8-1.3,2.8-3,7-4.7,10.8h.2c0,0,.3,5.8.4,7.3.3,3.3.6,6.6.4,9.9,0,1.3-.2,3.3-.2,5.7-.1,4.2-.3,9.4-.4,13.5,0,2.4-.2,4.3-.3,5.4,0,.2.3.4.5.5,3.2,2.5,19.3,4.4,22.8,4.6,4.4.2,8.9,0,13.2-.6,2.3-.3,4.5-1.3,6.7-1.7ZM77,160.4h-17.9c.1-4.2.9-7.6,2.3-10.1,1.2-2.1,3.3-4.3,6.1-6.4,1.2-.8,1.9-1.6,2.4-2.2.4-.6.6-1.3.6-2.1s-.2-1.2-.6-1.7-.9-.6-1.5-.6c-.9,0-1.7.2-2.3.6-.8.4-1.6,1.3-2.6,2.5l-4.4-3.6c1.3-1.8,2.6-3.1,4-3.8,1.5-.9,3.3-1.3,5.4-1.3s4.7.7,6.2,2c1.5,1.3,2.2,3.1,2.2,5.4s-.4,3.2-1,4.4c-.8,1.3-2.1,2.7-3.9,4-2,1.5-3.5,2.8-4.4,4-.8,1-1.3,2.1-1.5,3.3h10.9v5.6Z"/><path class="cls-11" d="M43.3,114.9c2.7,2,2.9,4.6,3.9,7.8.7-4.2,5.2-5.3,8.2-6.4-1.1-.8-1.9-1.7-2-2.7-.3.4-6.2.8-10.1,1.3Z"/><path class="cls-3" d="M51.4,74.7c-.3.6,0,.9.6.9,1.9-.2,3.2-.4,4.9-.4.6,0,2.3.4,2.9.3.6,0,1.2-.6,1.4-1.1.8-2.6-4.6-2.5-6.2-2-2,.5-3.3,1.5-3.6,2.3Z"/><path class="cls-11" d="M69.6,117c.9-.8,1.6-1.9,2-3.1.4-1.2.6-2.5.5-3.9-3.9,3.1-9.2,3.7-18.6-4.5,0,3.5-.2,5.5,0,8.1,0,0,0,0,0,0h0c.1,1,.9,1.9,2,2.7,2,1.4,5.2,2.3,7.7,2.6,2.7.3,4.9-.4,6.5-1.9Z"/><path class="cls-9" d="M53.4,113.6s0,0,0,0c0,0,0,0,0,0Z"/><path class="cls-3" d="M57.7,80.4c-1,0-1.8,1.6-1.8,3.6s.8,3.6,1.8,3.6,1.8-1.6,1.8-3.6-.8-3.6-1.8-3.6Z"/><path class="cls-11" d="M59.1,160.4h17.9v-5.6h-10.9c.2-1.2.7-2.3,1.5-3.3.9-1.1,2.4-2.4,4.4-4,1.9-1.3,3.2-2.7,3.9-4,.7-1.2,1-2.7,1-4.4s-.7-4.1-2.2-5.4c-1.5-1.3-3.5-2-6.2-2s-3.9.4-5.4,1.3c-1.3.8-2.6,2.1-4,3.8l4.4,3.6c1-1.3,1.9-2.1,2.6-2.5.6-.4,1.4-.6,2.3-.6s1.1.2,1.5.6.6,1,.6,1.7-.2,1.5-.6,2.1c-.4.6-1.2,1.3-2.4,2.2-2.9,2.1-4.9,4.2-6.1,6.4-1.4,2.6-2.2,5.9-2.3,10.1Z"/><path class="cls-11" d="M58.9,98.8c2.1,3.3,2,2.5,3.8,3.7,1.8,1.2,4.7,2,6.5,1.7,2.9-.4,4.3-1.8,5.6-4.2-5,2.3-14.9-.1-15.9-1.2Z"/><path class="cls-11" d="M69.6,117c5.1-.4,11.3,3,14.7,6.7h0c-.9-3.3-2.6-6.6-4.6-8.9v-.3c-1.8-.4-5.9-.7-8.1-.7-.4,1.2-1.1,2.3-2,3.1Z"/><path class="cls-3" d="M74,74.6c0,.8.7,1.6,1.5,1.6.6,0,4.8-.4,5.1-.4.3,0,.6,0,.8-.2.2-.2.2-.5,0-.8,0-.3-.3-.5-.5-.6-1.4-1.3-3.7-2.3-5.6-1.4-.8.3-1.4,1-1.4,1.8Z"/><path class="cls-3" d="M78.1,80.5c-.8,0-1.5,1.5-1.5,3.2s.7,3.2,1.5,3.2,1.5-1.4,1.5-3.2-.7-3.2-1.5-3.2Z"/><path class="cls-5" d="M79.8,114.5v.3c2,2.3,3.7,5.6,4.6,8.9.4,1.6.7,3.3.7,4.8,1.2,6,1,13.2.9,19.8,5-1.7,8.3-1.8,10.5-3.8s1-1.1,1.5-1.9c-2.9-11.5-7-19.3-10.9-23-2.4-2.3-3.9-4.3-7-5,0,0-.1,0-.2,0Z"/><path class="cls-6" d="M82.6,299.3c-.5,3.3.9,7.7,2.3,8.5,1.4.8,18.1,1.4,22.8,1.1.4,0,3.2-.6,3.6-.8,1.4-.6.7-8.6,0-9.9-1.1-2.2-4.9-3.5-8.2-4.8h0c-5.5,2.2-12.7,5.9-20.6,5.9Z"/><path class="cls-10" d="M83.8,93h.5c.7.2,1.4-.2,2-.7.5-.5.9-1.2,1.1-1.9.9-2.3,1.3-4.8,1-7.3,0-.6-.2-1.2-.5-1.7s-1.1-.7-1.6-.4h-.3c-.3,1.2-.6,2.5-.9,3.8h-.2c0,1.8,0,4.9-1,8.3Z"/><path class="cls-4" d="M85.8,148.3s0,0,0,0h0c0,0,0,0,0,0Z"/><path class="cls-11" d="M88.1,160c-.6.5-1.2,1.2-2.1,2.1.3,5.1.7,10.5,1,15.6,6.3-3.6,13.7-10.3,11.8-18.1-.7-2.9-1.7-11.6-2.4-15.2-2.2,2-5.5,2.1-10.5,3.8h0c.7,3,1.6,11.3,2.2,11.7Z"/><path class="cls-2" d="M53.4,113.6s0,0,0,0c-.2-2.6,0-4.6,0-8.1"/><path class="cls-2" d="M72.1,109.9c0,1.4,0,2.7-.5,3.9-.4,1.2-1.1,2.3-2,3.1-1.6,1.5-3.8,2.2-6.5,1.9-2.5-.3-5.7-1.2-7.7-2.6-1.1-.8-1.9-1.7-2-2.7"/><path class="cls-2" d="M70.9,113.9c.2,0,.4,0,.7,0,2.2,0,6.3.2,8.2.7,0,0,.1,0,.2,0,3.1.8,4.6,2.8,7,5,3.9,3.7,8,11.5,10.9,23-.4.8-.9,1.4-1.5,1.9-2.2,2-5.5,2.1-10.5,3.8,0,0,0,0,0,0"/><path class="cls-2" d="M53.4,113.6s0,0,0,0h0c-.3.5-6.2.8-10.1,1.3-1.5.2-2.8.4-3.2.5-3.2,1.5-5.8,6.1-8.4,8.6-1.9,1.8-8.7,16.1-8.7,16.1,0,.7.5,1.5,1.5,2.4,3,2.8,9.8,6.1,13,7.4.3.1.6.3.9.4,1.2-1.6,2.5-4.3,3.8-7.1,1.7-3.8,3.4-7.9,4.7-10.8"/><path class="cls-2" d="M85,128.5c1.2,6,1,13.2.9,19.8h0c0,2.1,0,4.1,0,6s.1,5,.3,7.8c.3,5.1.7,10.5,1,15.6.2,3.5.3,6.9.2,9.9-.6,0-1.1,0-1.7.2-2.2.5-4.4,1.5-6.7,1.7-4.3.5-8.8.8-13.2.6-3.6-.2-19.6-2.1-22.8-4.6-.2-.2-.4-.4-.5-.5"/><path class="cls-2" d="M42.4,143.6c0-.2,0-.2,0-.2,0,0,.3,5.7.4,7.2.3,3.3.6,6.6.4,9.9,0,1.3-.2,3.3-.2,5.7-.1,4.2-.3,9.4-.4,13.5,0,2.4-.2,4.3-.3,5.4"/><path class="cls-2" d="M103.2,293.4c-5.5,2.2-12.7,5.9-20.6,5.9-2.4,0-5-.4-7.5-1.3,0-3-11.1-78.2-11.1-81.7"/><path class="cls-2" d="M85.5,187.5c0,.1,0,.3,0,.4.5,5.6,2.2,14.3,3,19.4.9,6.1,17.1,78.7,17.1,85.3-.8.3-1.6.6-2.4.9"/><path class="cls-2" d="M42.8,185.6s0,0,0,0c-.1.6-2.2,9.8-2.2,9.8"/><path class="cls-2" d="M53.2,298.9h0c-2.3.4-6.6,0-11.3-1-8.5-1.6-18.2-4.5-19.4-5.7,0,0,18.9-98.8,20.3-106.7"/><path class="cls-2" d="M65.9,206.9c-.4.9-1.1,4.4-1.9,9.4-3.8,23.5-10.6,81.8-10.7,82.6"/><path class="cls-2" d="M72.8,199.9c-1.9,1.8-5.9,6-6.9,7"/><path class="cls-1" d="M22.5,292.3c-2.6,1.2-7.1,4.1-7.8,6.7-.3,1.3-.3,7,.7,8,1,1.2,2.8,1.3,4.4,1.3,5.1,0,10.1.1,15.2,0,1.8,0,5.4.3,6.6-1,1.1-1.1.9-6.1.3-9.5"/><path class="cls-1" d="M82.6,299.3h0c-.5,3.3.9,7.7,2.3,8.5,1.4.8,18.1,1.4,22.8,1.1.4,0,3.2-.6,3.6-.8,1.4-.6.7-8.6,0-9.9-1.1-2.2-4.9-3.5-8.2-4.8h0"/><path class="cls-1" d="M96.4,144.5c.7,3.6,1.7,12.2,2.4,15.2,1.9,7.8-5.4,14.4-11.8,18.1"/><path class="cls-1" d="M85.8,148.3s0,0,0,0c.7,2.9,1.6,11.2,2.2,11.6,0,0,0,0,.1,0"/><path class="cls-1" d="M93.2,157.7c-2.9.8-4,1.3-5.1,2.2-.6.5-1.2,1.2-2.1,2.1-.2.2-.4.4-.6.7"/><path class="cls-1" d="M37.6,150c-.5,1.7-3.2,8.6-3.7,10.3"/><path class="cls-1" d="M24.5,142.5h0c-2.3,6.2-4.1,13.5-4.2,18.2,0,5.7,8.7,11.5,13.8,13.7,3.8,1.6,4.6,3,8.4,5.1"/><path class="cls-1" d="M32,159.1c.6.4,1.3.8,1.9,1.2,3.1,1.9,6.1,3.9,9.1,5.9,0,0,0,0,.1,0"/><path class="cls-1" d="M43.3,114.9c2.7,2,2.9,4.6,3.9,7.8,1,3.2.9,6.7-.2,9.8"/><path class="cls-1" d="M79.7,114.8c2.1,2.3,3.7,5.6,4.6,8.9.4,1.6.7,3.3.7,4.8"/><path class="cls-2" d="M47.2,122.7c.7-4.2,5.2-5.3,8.2-6.4"/><path class="cls-2" d="M69.4,117c0,0,.2,0,.3,0,5.1-.4,11.3,3,14.7,6.7"/><path class="cls-2" d="M77,160.4h-17.9c.1-4.2.9-7.6,2.3-10.1,1.2-2.1,3.3-4.3,6.1-6.4,1.2-.8,1.9-1.6,2.4-2.2.4-.6.6-1.3.6-2.1s-.2-1.2-.6-1.7-.9-.6-1.5-.6c-.9,0-1.7.2-2.3.6-.8.4-1.6,1.3-2.6,2.5l-4.4-3.6c1.3-1.8,2.6-3.1,4-3.8,1.5-.9,3.3-1.3,5.4-1.3s4.7.7,6.2,2c1.5,1.3,2.2,3.1,2.2,5.4s-.4,3.2-1,4.4c-.8,1.3-2.1,2.7-3.9,4-2,1.5-3.5,2.8-4.4,4-.8,1-1.3,2.1-1.5,3.3h10.9v5.6Z"/><path class="cls-1" d="M85.5,74.3c.2,3.6,0,4.8-.8,8.7,0,0,0,.7.1,1.8,0,1.8,0,4.9-1,8.3-.8,3.1-2.3,6.5-5,9.4-2.2,2.4-4.2,5.5-6.8,7.5-3.9,3.1-9.2,3.7-18.6-4.5-1.4-1.2-2.8-2.5-4.4-4.1"/><path class="cls-1" d="M76.5,83.8c0,1.8.7,3.2,1.5,3.2s1.5-1.4,1.5-3.2-.7-3.2-1.5-3.2-1.5,1.5-1.5,3.2Z"/><path class="cls-1" d="M55.9,84c0,2,.8,3.6,1.8,3.6s1.8-1.6,1.8-3.6-.8-3.6-1.8-3.6-1.8,1.6-1.8,3.6Z"/><path class="cls-1" d="M74,92.5c-.5,4.6-4.6,3.3-7.8,3.2"/><path class="cls-1" d="M74.8,100.1c-5,2.3-14.9-.1-15.9-1.2,2.1,3.3,2,2.5,3.8,3.7,1.8,1.2,4.7,2,6.5,1.7,2.9-.4,4.3-1.8,5.6-4.2Z"/><path class="cls-1" d="M85.5,74.3c-.9-3.8-5.9-13.7-17.1-13.7-10.5,0-23.9,7.6-24.2,20.5-1.5-.7-3,.1-4,1.5-1,1.3-1.7,3.1-1.5,4.4.5,3.4,4.1,8.1,6.6,7.1,0,.3.2.6.2.8,1.1,4,1,3.1,3.7,6.5.1.1.2.3.3.4"/><path class="cls-1" d="M39.8,82.5c-4.4-10.3-1.1-22.7,7.7-29.5,8.8-6.8,23.8-5.9,32,1.7,7.3,6.7,8.4,16.3,6.4,26.3-.3,1.3-.6,2.6-.9,3.8"/><path class="cls-1" d="M61.2,74.4c-.2.6-.7,1-1.4,1.1-.6.1-2.3-.3-2.9-.3-1.7,0-3,.2-4.9.4-.6,0-.9-.3-.6-.9.4-.8,1.6-1.8,3.6-2.3,1.6-.4,7-.5,6.2,2Z"/><path class="cls-1" d="M75.4,72.7c-.8.3-1.4,1-1.4,1.8,0,.8.7,1.6,1.5,1.6.6,0,4.8-.4,5.1-.4.3,0,.6,0,.8-.2.2-.2.2-.5,0-.8,0-.3-.3-.5-.5-.6-1.4-1.3-3.7-2.3-5.6-1.4Z"/><path class="cls-1" d="M86.3,81c.5-.3,1.2,0,1.6.4s.5,1.1.5,1.7c.3,2.5-.1,5-1,7.3-.3.7-.6,1.4-1.1,1.9-.5.5-1.2.9-2,.8"/><path class="cls-1" d="M45.5,94.7c0,0,0,.1-.1.2-2.5,4.6-5.1,15.5-5.3,20.6"/></svg>