<?xml version="1.0" encoding="UTF-8"?><svg id="africaModest" xmlns="http://www.w3.org/2000/svg" width="235" height="321.9" viewBox="0 0 235 321.9"><defs><style>.cls-1{stroke-linecap:round;stroke-linejoin:round;}.cls-1,.cls-2{fill:none;stroke:#000;}.cls-2{stroke-miterlimit:10;}.cls-3,.cls-4,.cls-5,.cls-6,.cls-7,.cls-8,.cls-9,.cls-10{stroke-width:0px;}.cls-4{fill:#4a62ba;}.cls-5{fill:#2b388d;}.cls-6{fill:#1b2f60;}.cls-7{fill:#19a7d4;}.cls-8{fill:#0690b6;}.cls-9{fill:#805530;}.cls-10{fill:#fff;}</style></defs><path class="cls-6" d="M136.1,301.4c2.2,2.5.9,6.7-1.8,8.7-2.7,2-6.3,2.4-9.6,2.6-10.3.5-21.4-3.8-31.7-5-1.2-.1-2.6-.4-3.3-1.3-.5-.7-.6-1.6-.6-2.5,0-3,0-3.7,0-3.8,7.1.7,15.4-5,22.8-11.2,8.5,3.3,11.8,7,20.3,10.3,1.5.6,3,1.2,4,2.4Z"/><path class="cls-9" d="M124.4,174c1.3,2.9-2,5.9-4.5,7.8-2.5,1.9-4.1,2.6-6.7.9-1.3-.9-2.3-2.1-2.7-3.6,0-.1,0-.2,0-.3-.5-2.6,1.1-5.3,3.3-6.9,2.3-1.6,0-.9,2.8-1.5,3-.9,6.6.8,7.9,3.7Z"/><path class="cls-10" d="M116.5,170.3c-2.7.6-.5-.2-2.8,1.5-2.2,1.6-3.8,4.3-3.3,6.9h-.1c-2.5-6.8-17.9-16.3-18.6-21.7,0-.7,0-1.3.1-2h0c2.7,0,5.1-1.5,8.5-3.7,3.4,6.1,10.2,14.8,16.2,19Z"/><path class="cls-8" d="M23.9,290.1c-.5-.3-1.1-.7-1.6-1,0-.8,18.2-50,18.3-50.8.6-15.5-2.8-27,3.3-45.2h0c16,4.6,27.9,7.1,44.7,5.4,8.1,7.9,17.5,22,19.4,31.6.2.8,3.9,57.9,4,58.6-7.4,6.2-15.7,11.9-22.8,11.2-1.2-.1-2.3-.4-3.4-.9-.4-.6-1.9-54.6-2.5-55.7-3.6-6.2-10.9-18.4-13-22h0c-1.5,6.6-3,13.5-6.2,21.5-.3.8-13.3,55.4-13.7,56.2-.8,0-1.5,0-2.3,0-10.2,0-16.9-4.6-24-9Z"/><path class="cls-7" d="M107.5,82.6c-.2-5.9-1.7-9.7-5-12.1-6.3-4.5-11.9-4.2-18.6-1.8-7.3,2.6-13.6,13.5-14.1,21.2-.5,7.7-3,12.1,1.6,18.3,3.2,2.1,5.9,3.8,8.2,5v.6c-7.6-.8-12.8-3.6-16.3-7.3-5.4-5.5-7.1-12.8-8.1-17.2-.2-.8-.3-1.5-.4-2.1-2.5-11.2-1.7-21.4,8.4-30,5.1-4.3,18.4-5.5,25.2-4.2,4.8.9,16.7,6.5,19.5,15.2,3.3,10.2,2.4,19-4,30.5,0,0-1,1.3-1.5,1.9,2.3-6.1,2.7-11.5,3.1-12.9.7-2.5.8-.7,2.1-5.2Z"/><path class="cls-9" d="M84,99.6l-.2.3c0,12.5,8.7,12.9,11.3,4.8-4.4-.5-7.3-2.3-11.1-5.1ZM102.3,100.7c-1.2,3.1-2.9,6.5-5.5,9.4,0,0-3.3,4.5-7,6.1-1.9.8-5.1-.1-10.3-3-2.3-1.3-5-3-8.2-5-4.6-6.2-2.1-10.6-1.6-18.3.5-7.7,6.9-18.5,14.1-21.2,6.7-2.4,12.3-2.7,18.6,1.8,3.3,2.4,4.9,6.1,5,12.1-1.3,4.5-1.4,2.7-2.1,5.2-.4,1.4-.7,6.8-3.1,12.9ZM105,85.6c0-.3-.2-.6-.4-.8-1-1.1-1.6-2.3-2.9-3-.9-.5-1.9-.9-2.9-.8s-2,1.1-1.6,2.1c.3.7,1,1,1.7,1.3,1.5.5,3,1.1,4.6,1.6.3,0,.6.2.8.2s.6-.2.6-.5ZM101.7,91.4c.3-1.5,0-2.9-.9-3.1-.8-.2-1.8.9-2.1,2.4s0,2.9.9,3.1c.8.2,1.8-.9,2.1-2.4ZM88.1,80.6c1.4.4,3.9-.7,1.5-2.6-1.5-1.3-5.5-.8-7.3-.7-.5,0-1,0-1.5.3s-.8.7-.7,1.2c0,.5,1.7.5,3.3.7,2.4.3,3.7.9,4.7,1.2ZM85.9,87.5c.3-1.5-.1-2.8-1-3-.9-.2-1.8.8-2.1,2.3-.3,1.5.1,2.8,1,3,.8.2,1.8-.9,2.1-2.3Z"/><path class="cls-3" d="M104.6,84.8c.2.2.4.5.4.8,0,.3-.3.5-.6.5s-.6,0-.8-.2c-1.5-.5-3-1.1-4.6-1.6-.7-.2-1.5-.6-1.7-1.3-.3-1,.6-2,1.6-2.1s2,.4,2.9.8c1.4.7,2,1.9,2.9,3Z"/><path class="cls-5" d="M100.3,151.4c-3.3,2.2-5.8,3.7-8.5,3.7h0c.4-8.8.3-17.6-.9-26.2-.2-1.3-.5-2.5-1-3.7-.7-2-1.7-3.8-2.9-5.5-.4-.6-.9-1.1-1.4-1.4,7.6,3.6,12.9,24.4,16.8,31.8-.7.5-1.4.9-2,1.3Z"/><path class="cls-3" d="M100.9,88.4c.8.2,1.2,1.6.9,3.1-.3,1.5-1.3,2.6-2.1,2.4-.8-.2-1.2-1.6-.9-3.1s1.3-2.6,2.1-2.4Z"/><path class="cls-4" d="M91.7,157c-.8,13.9-2.7,27.9-3.2,41.5-16.8,1.7-28.7-.8-44.7-5.5-.3,0-.6-.2-1-.3,1.7-5.1,1.7-4,2.6-9.3h0c0,0,.2,0,.3.2.6.6,1.3,1.1,2,1.7,1.1,2,6.6,7.4,8.6,6.4,1.7-.9,5.5-9.5,4.5-12-.9-2.3-9.6-4.4-11.2-2.7h0c-.1-.1-.2-.3-.3-.4-1-1.5-1.9-2.8-2.7-4.2h.4c1.1-10.8,2.6-20.3,1.7-27h-.1c3.8-7,8.4-16.6,9.3-21.8h.4c1.2-2.5,3.6-4.4,6.3-4.9,2.9,2.2,6.9,3.9,8.4,4.3,2.3.6,5,.2,6.7-1.5.6-.6.7-1.3.6-2.1h0c2-.2,3.9.5,5.5,1.7,1.6,1.2,2.8,2.7,4.1,4.3h0c.4,1.2.8,2.4,1,3.7,1.3,8.6,1.4,17.4.9,26.2,0,.6,0,1.3-.1,2ZM84.8,163.9v-5.4s-8.5,0-8.5,0c.1-1.2.5-2.2,1.1-3.2.7-1.1,1.8-2.4,3.4-3.8,1.4-1.3,2.5-2.6,3-3.9.5-1.2.8-2.6.8-4.2,0-2.2-.6-3.9-1.7-5.2-1.1-1.3-2.7-1.9-4.8-1.9-1.7,0-3.1.4-4.2,1.3-1,.8-2.1,2-3.1,3.7l3.4,3.5c.8-1.2,1.5-2,2-2.5.5-.4,1.1-.6,1.8-.6.5,0,.8.2,1.1.6.3.4.5,1,.5,1.6,0,.8-.2,1.4-.5,2-.3.6-1,1.3-1.9,2.1-2.2,2-3.8,4.1-4.8,6.2-1.1,2.5-1.7,5.7-1.8,9.8h14Z"/><path class="cls-10" d="M85.6,118.2c.5.3,1,.8,1.4,1.4,1.2,1.7,2.2,3.6,2.9,5.5h0c-1.2-1.5-2.5-3.1-4.1-4.2-1.6-1.2-3.6-1.9-5.5-1.7h0c-.1-.9-.5-1.9-.6-3.1h0c1.8,1,4,.9,5.8,2.1Z"/><path class="cls-10" d="M95.2,104.7c-2.6,8.1-11.4,7.7-11.3-4.8l.2-.3c3.8,2.7,6.7,4.6,11.1,5.1Z"/><path class="cls-3" d="M89.6,77.9c2.3,2,0,3-1.5,2.6-1-.3-2.3-.9-4.7-1.2-1.6-.2-3.2-.1-3.3-.7,0-.5.3-1,.7-1.2s1-.3,1.5-.3c1.8,0,5.8-.5,7.3.7Z"/><path class="cls-10" d="M84.8,158.5v5.4s-14,0-14,0c0-4.1.7-7.3,1.8-9.8.9-2.1,2.5-4.1,4.8-6.2.9-.8,1.5-1.5,1.9-2.1.3-.6.5-1.3.5-2,0-.6-.2-1.2-.5-1.6-.3-.4-.7-.6-1.1-.6-.7,0-1.3.2-1.8.6-.6.4-1.3,1.2-2,2.5l-3.4-3.5c1-1.7,2.1-3,3.1-3.7,1.2-.9,2.6-1.3,4.2-1.3,2.1,0,3.7.6,4.8,1.9,1.1,1.3,1.7,3,1.7,5.2,0,1.6-.3,3.1-.8,4.2-.6,1.3-1.6,2.6-3,3.9-1.6,1.5-2.7,2.7-3.4,3.8-.6,1-1,2.1-1.1,3.2h8.5Z"/><path class="cls-3" d="M84.9,84.5c.8.2,1.3,1.5,1,3-.3,1.5-1.3,2.5-2.1,2.3-.9-.2-1.3-1.5-1-3,.3-1.5,1.3-2.5,2.1-2.3Z"/><path class="cls-10" d="M64.6,118.6c-1.6-1.1-2.8-2.4-3.3-3.7v-.2s0,0,0,0c1.1-2.8,1.5-5.1,1.5-7.8l.3-.3c3.6,3.6,8.7,6.5,16.3,7.3.1,0,.2,0,.3,0v.3c-.2.7-.2,1.4-.1,2,.1,1.2.5,2.2.6,3.1,0,.8,0,1.5-.6,2.1-1.6,1.7-4.4,2.2-6.7,1.5-1.5-.4-5.5-2.1-8.4-4.3Z"/><path class="cls-6" d="M60.4,308.9c1.7,7.6-4.1,10.7-10.3,9.2-9.8-2.2-15-5.4-29.8-15.6-1-.7-2.1-1.3-2.4-2.5-.2-.8.1-1.7.5-2.5,1.5-3.5,3.3-4.4,5.6-7.4,7.2,4.4,13.8,9,24,9h0c1,2.2,3.2,4.2,9.3,8.1,1.3.8,2.8.2,3.1,1.7Z"/><path class="cls-9" d="M49.7,177.1h0c1.7-1.8,10.3.4,11.2,2.6,1,2.4-2.8,11.1-4.5,12-2,1-7.6-4.4-8.6-6.4-.7-.6-1.3-1.2-2-1.7l.2-.2c-.8-2.6.7-5.8,3.3-6.7h0c.1.1.2.3.3.5Z"/><path class="cls-7" d="M63.2,106.5l-.3.3c0,2.7-.4,5.1-1.5,7.8,0,0,0,0,0,0-5.2.8-5.5.7-9.7,1.9-.4,0-.8.2-1.3.4-2.6.9-4.8,2-6.8,3.5l-1-1c1.7-8.1,3.9-12.7,7-20.4,1-2.6,2.6-6.7,5.4-9.6h.3c.9,4.3,2.6,11.6,8.1,17.1Z"/><path class="cls-10" d="M64.6,118.6c-2.7.6-5.2,2.5-6.3,5h-.4c.2-1.3.3-2.4,0-3-1.3-3.3-3-4.8-6.3-4.1,4.2-1.2,4.5-1,9.7-1.9v.2c.5,1.3,1.7,2.5,3.3,3.7Z"/><path class="cls-5" d="M57.9,120.6c.3.6.2,1.7,0,2.9-1,5.2-5.5,14.8-9.3,21.7-2,3.6-3.8,6.5-4.8,7.6-.7-.3-1.4-.6-2.1-.9-4.4-1.9-8.9-4.5-11.1-6.1-.7-.6-1.2-1-1.3-1.3-.3-.9,5.7-13.2,6.4-14.4,2.1-4,4.5-7.3,7.8-9.7,2-1.5,4.2-2.6,6.8-3.5.5-.1.9-.3,1.3-.4,3.2-.7,5,.8,6.3,4.1Z"/><path class="cls-10" d="M49.3,176.6h0c-2.6,1-4.1,4.1-3.3,6.8l-.2.2c-.1,0-.2-.2-.3-.3-7.7-6.8-12-11.3-16.9-21.2-1.6-3.2-.2-10.5,2-16.2,2.2,1.7,6.6,4.2,11.1,6.1-.7,1.2-1.9,3.6-3.3,6,3.7,5.9,5.7,10.1,8.2,14.3.8,1.4,1.7,2.8,2.7,4.2Z"/><path class="cls-1" d="M107.5,82.5s0,0,0,0c-1.3,4.5-1.4,2.7-2.1,5.2-.4,1.4-.7,6.8-3.1,12.9-1.2,3.1-2.9,6.5-5.5,9.4,0,0-3.3,4.5-7,6.1-1.9.8-5.1-.1-10.3-3-2.3-1.3-5-3-8.2-5"/><path class="cls-1" d="M96.7,99.9c-1.9,2.5-5.6.5-7.6,0"/><path class="cls-1" d="M98.8,90.8c-.3,1.5,0,2.9.9,3.1.8.2,1.8-.9,2.1-2.4.3-1.5,0-2.9-.9-3.1-.8-.2-1.8.9-2.1,2.4Z"/><path class="cls-1" d="M82.8,86.9c-.3,1.5.1,2.8,1,3,.8.2,1.8-.9,2.1-2.3.3-1.5-.1-2.8-1-3-.9-.2-1.8.8-2.1,2.3Z"/><path class="cls-1" d="M95.2,104.7c-4.4-.5-7.3-2.3-11.1-5.1-.3-.2-.6-.4-.9-.6"/><path class="cls-1" d="M95.2,104.7c-2.6,8.1-11.4,7.7-11.3-4.8"/><path class="cls-1" d="M62.9,106.8c0,2.7-.4,5.1-1.5,7.8"/><path class="cls-1" d="M61.4,114.9c.4,1.3,1.7,2.5,3.3,3.7,2.9,2.2,6.9,3.9,8.4,4.3,2.3.6,5,.2,6.7-1.5.6-.6.7-1.3.6-2.1-.1-.9-.5-1.9-.6-3.1,0-.6,0-1.3,0-2"/><path class="cls-1" d="M48.6,145.3c-2,3.6-3.8,6.5-4.8,7.6-.7-.3-1.4-.6-2.1-.9-4.4-1.9-8.9-4.5-11.1-6.1-.7-.6-1.2-1-1.3-1.3-.3-.9,5.7-13.2,6.4-14.4,2.1-4,4.5-7.3,7.8-9.7,2-1.5,4.2-2.6,6.8-3.5.5-.2.9-.3,1.3-.4,3.2-.7,5,.8,6.3,4.1.3.6.2,1.7,0,2.9-1,5.2-5.5,14.8-9.3,21.7Z"/><path class="cls-1" d="M45.5,183.3c-.9,5.3-.9,4.2-2.6,9.3.3,0,.6.2,1,.3,16,4.8,27.9,7.2,44.7,5.5.5-13.6,2.5-27.6,3.2-41.5,0-.7,0-1.3.1-2,.4-8.8.3-17.6-.9-26.2-.2-1.3-.5-2.5-1-3.7-.7-2-1.7-3.8-2.9-5.5-.4-.6-.9-1.1-1.4-1.4-1.8-1.2-4-1.1-5.8-2.1"/><path class="cls-1" d="M48.7,145.3c1,6.7-.6,16.2-1.7,26.9"/><path class="cls-1" d="M30.6,145.9c-2.2,5.7-3.6,13-2,16.2,4.9,10,9.2,14.4,16.9,21.2,0,0,.2.2.3.3.6.6,1.3,1.1,2,1.7"/><path class="cls-1" d="M41.7,152c-.7,1.2-1.9,3.6-3.3,6,3.7,5.9,5.7,10.1,8.2,14.3.8,1.4,1.7,2.8,2.7,4.2.1.2.2.3.3.5.1.2.2.3.3.5"/><path class="cls-1" d="M85.5,118.2s0,0,0,0c7.6,3.6,12.9,24.4,16.8,31.8-.7.5-1.4.9-2,1.3-3.3,2.2-5.8,3.7-8.5,3.7"/><path class="cls-1" d="M49.7,177c1.7-1.8,10.3.4,11.2,2.7,1,2.4-2.8,11.1-4.5,12-2,1-7.6-4.4-8.6-6.4"/><path class="cls-1" d="M91.7,156.6c0,.1,0,.3,0,.4.6,5.4,16,15,18.6,21.7"/><path class="cls-1" d="M100.3,151.2s0,0,0,.1c3.4,6.1,10.2,14.8,16.2,19"/><path class="cls-1" d="M116.5,170.3c-2.7.6-.5-.2-2.8,1.5-2.2,1.6-3.8,4.3-3.3,6.9,0,.1,0,.2,0,.3.4,1.5,1.4,2.7,2.7,3.6,2.6,1.8,4.2,1,6.7-.9,2.5-1.9,5.8-4.9,4.5-7.8-1.3-2.9-4.9-4.6-7.9-3.7"/><path class="cls-1" d="M43.8,193.1c-6.1,18.2-2.7,29.7-3.3,45.2,0,.7-18.2,50-18.3,50.8.6.3,1.1.7,1.6,1,7.2,4.4,13.8,9,24,9,.7,0,1.5,0,2.3,0,.4-.8,13.3-55.4,13.7-56.2,3.3-8,4.7-14.9,6.2-21.5,1-4.5,2.1-9,3.9-13.5"/><path class="cls-1" d="M70.1,221.3c2.2,3.6,9.4,15.9,13,22,.6,1.1,2.1,55.1,2.5,55.7,1.1.5,2.3.8,3.4.9,7.1.7,15.4-5,22.8-11.2,0-.7-3.8-57.8-4-58.6-1.9-9.6-11.3-23.7-19.4-31.6"/><path class="cls-1" d="M50.3,116.9c.5-.1.9-.3,1.3-.4,4.2-1.2,4.5-1,9.7-1.9,0,0,0,0,0,0"/><path class="cls-1" d="M89.1,299.9h0c0,.2,0,.8,0,3.8,0,.9,0,1.8.6,2.5.7,1,2.1,1.2,3.3,1.3,10.2,1.2,21.4,5.5,31.7,5,3.4-.1,6.9-.5,9.6-2.6,2.7-2,4-6.1,1.8-8.7-1-1.2-2.5-1.8-4-2.4-8.5-3.3-11.8-7-20.3-10.3"/><path class="cls-1" d="M23.9,290.1s0,0,0,0c-2.3,3-4.1,3.9-5.6,7.4-.3.8-.7,1.7-.5,2.5.3,1.2,1.4,1.8,2.4,2.5,14.8,10.3,20,13.4,29.8,15.6,6.2,1.4,12-1.6,10.3-9.2-.3-1.5-1.9-.9-3.1-1.7-6.1-3.9-8.3-5.9-9.3-8.1"/><path class="cls-2" d="M64.8,118.5c0,0,0,0-.2,0-2.7.6-5.2,2.5-6.3,5"/><path class="cls-2" d="M80.3,119.2c2-.2,3.9.5,5.5,1.7,1.6,1.2,2.8,2.7,4.1,4.3"/><path class="cls-2" d="M84.8,163.9h-14c0-4.1.7-7.3,1.8-9.8.9-2.1,2.5-4.1,4.8-6.2.9-.8,1.5-1.5,1.9-2.1.3-.6.5-1.3.5-2,0-.6-.2-1.2-.5-1.6-.3-.4-.7-.6-1.1-.6-.7,0-1.3.2-1.8.6-.6.4-1.3,1.2-2,2.5l-3.4-3.5c1-1.7,2.1-3,3.1-3.7,1.2-.9,2.6-1.3,4.2-1.3,2.1,0,3.7.6,4.8,1.9,1.1,1.3,1.7,3,1.7,5.2,0,1.6-.3,3.1-.8,4.2-.6,1.3-1.6,2.6-3,3.9-1.6,1.5-2.7,2.7-3.4,3.8-.6,1-1,2.1-1.1,3.2h8.5s0,5.4,0,5.4Z"/><path class="cls-1" d="M88.1,80.6c-1-.3-2.3-.9-4.7-1.2-1.6-.2-3.2-.1-3.3-.7,0-.5.3-1,.7-1.2s1-.3,1.5-.3c1.8,0,5.8-.5,7.3.7,2.3,2,0,3-1.5,2.6Z"/><path class="cls-2" d="M101.7,81.8c-.9-.5-1.9-.9-2.9-.8s-2,1.1-1.6,2.1c.3.7,1,1,1.7,1.3,1.5.5,3,1.1,4.6,1.6.3,0,.6.2.8.2s.6-.2.6-.5c0-.3-.2-.6-.4-.8-1-1.1-1.6-2.3-2.9-3Z"/><path class="cls-1" d="M107.5,83.6c0-.3,0-.7,0-1-.2-5.9-1.7-9.7-5-12.1-6.3-4.5-11.9-4.2-18.6-1.8-7.3,2.6-13.6,13.5-14.1,21.2-.5,7.7-3,12.1,1.6,18.3"/><path class="cls-1" d="M102.1,101s.1-.1.2-.3c.5-.6,1.5-1.8,1.5-1.9,6.4-11.5,7.3-20.3,4-30.5-2.8-8.7-14.7-14.3-19.5-15.2-6.8-1.3-20.1-.2-25.2,4.2-10.1,8.6-11,18.8-8.4,30,.1.6.3,1.3.4,2.1.9,4.4,2.6,11.7,8.1,17.2,3.6,3.6,8.7,6.5,16.3,7.3.1,0,.2,0,.3,0,0,0,.1,0,.2,0"/><path class="cls-1" d="M54.9,89.4c-2.8,2.9-4.3,7-5.4,9.6-3.1,7.7-5.3,12.3-7,20.4"/><path class="cls-1" d="M49.3,176.6c-2.6,1-4.1,4.1-3.3,6.7"/></svg>