<?xml version="1.0" encoding="UTF-8"?><svg id="latinAmerica" xmlns="http://www.w3.org/2000/svg" width="235" height="321.9" viewBox="0 0 235 321.9"><defs><style>.cls-1{fill:#2e1617;}.cls-1,.cls-2,.cls-3,.cls-4,.cls-5,.cls-6,.cls-7,.cls-8,.cls-9,.cls-10,.cls-11{stroke:#000;stroke-linecap:round;stroke-linejoin:round;}.cls-2{fill:#c95f80;}.cls-3{fill:#d2809b;}.cls-4{fill:#90a5c8;}.cls-5{fill:#b62026;}.cls-6{fill:#8ab0d2;}.cls-7{fill:#875239;}.cls-8{fill:#d14752;}.cls-9{fill:#fff;}.cls-10{fill:none;}</style></defs><path class="cls-2" d="M35.1,150c-3.5,1.1-6.7,3.5-8.9,6.7-2.1-3.9-12.4-18.9-11.7-23.3.7-4.4,2.4-8.6,4.4-12.6.3-.5.1-.2.4-.7,4.1,1.7,8,4.1,11.4,6.9h.5c-.2.5-.5.8-.7,1.1-2.1,3-2.5,4.6-3.3,5.7,1,1.4,1.7,3.1,2.8,6,1.2,3,3.2,6.3,5.2,10.1Z"/><path class="cls-4" d="M89.5,231.3c3.6,11.6-.9,29.2-3.8,43.8-5.3,2.2-11.2,2.4-16.5,1.3h0c-.9-14.8-1-29.4-1.5-37.8-1-16.6-1.4-40-.9-57.4h0c-.4,1.3-.8,2.8-1.2,4.5-2.4,14.9-2.2,39.8-3.3,52.9-.8,9.8.4,23.5,0,37.5-5.7.9-11.5.9-16.7-1.6h0c-3.4-16.5-9-37.6-5.5-46,3.5-8.4-3.3-40.4-1.5-50.1l.3-.6c2,1,3.9,1.1,3.8-1.5,1,0,3.3-1.4,2-3.3,1.2-.2,2.7-1.9,1.9-4.2,1-.3,1.7-.7,2.1-1.1,1.2-1.4,0-3.4-1.5-5.1.4-2.4-.4-3.7-1.8-4.5,6.8,2.4,15.3,3.9,23.3,3.9,9,0,17.4-2.2,21.9-7.5,2,5.4,2.8,12.2,2.9,19.5.4,22.8-5.9,50.5-3.8,57.5Z"/><path class="cls-2" d="M112,136.9c-.2,2.1-.8,4-1.4,5.7-2.6,5.5-5.3,10.5-8.5,15.3h-.2c-1.8-4.5-4.8-8.3-8.5-10.8.9-1.5,1.7-2.9,2.1-3.6,1.4-2.5,2.5-4.7,3.5-6.6-.3-.5-1.2-2.4-2.3-4.8-.2-.4-.4-.8-.6-1.2,2.9-3.8,6.9-6.5,11.4-7.7,1.7,4.4,3.2,8.7,4.5,13.7Z"/><path class="cls-7" d="M87.8,60.8c-.7.5-1.6.8-2.5.8-2.9,0-5,0-7.6-.1-.3,0-.7-.1-1-.3-1.5-.8-2.8-2.8-3-3.9-.1-.9-.2-1.8-.4-2.7h-.3c-2,0,.5,0-3.4-.2-.1.9-.3,1.9-.4,2.8-.2,1.3-2.2,4.1-4.1,4.2-2.7,0-4.9.1-7.9.1-2.9,0-5.4-3.2-5.6-5.3,0-.8-.1-1.7-.2-2.5h-.2c-.8,0-1.7,0-2.7-.1-1-1.2-3.1-1.4-4.5-.5-.2.1-.4.3-.6.5-1.3,1.4-1.2,3.7,0,5.2,1.2,1.5,3.8,4.3,5.8,4,.7,6.4,1.9,5.4,4.4,9,.5.6,1,1.2,1.5,1.7,1.3,1.4,2.7,2.6,3.9,3.6,7.2,5.7,13,4.8,17.5,1.9,1.8-1.1,3.4-2.6,4.8-4,.3-.4.7-.7,1-1.1,1.7-1.9,3.8-5.1,5-8.7.5-1.3.8-2.9,1-4.4h-.6ZM71.7,73c-1.8.2-4.8-.4-6.5-1.5-1.7-1.1-1.7-.4-3.8-3.4,1,1,10.9,3.1,15.9,1.1-1.3,2.2-2.6,3.4-5.6,3.8Z"/><path class="cls-9" d="M77.3,69.2c-1.3,2.2-2.6,3.4-5.6,3.8-1.8.2-4.8-.4-6.5-1.5-1.7-1.1-1.7-.4-3.8-3.4,1,1,10.9,3.1,15.9,1.1Z"/><path class="cls-10" d="M76.5,60.7c1.4,3.4-3.9,5-8.8,3.9"/><path class="cls-10" d="M49.2,62.8c-.1-.9-.2-2-.3-3.3"/><path class="cls-10" d="M76.6,81.6c0,1.1,0,2.7,0,4.4"/><path class="cls-10" d="M48.6,53.7s0,0,0,0"/><path class="cls-1" d="M84,47.5c-2-.4-4.1-.4-6.1,0-.3,0-.7.1-1,0-.3-.2-.4-.7-.3-1,0-.6,0-1,.4-1.2.4-.2,1.2-.1,1.7-.1,1.1,0,2.2.2,3.3.4.6,0,1.2.2,1.6.6.4.3.7,1,.4,1.5Z"/><path class="cls-1" d="M64.9,46.4c0,.3,0,.6-.2.9-3-.2-6-.2-9,.2.1-.3.4-.5.7-.7,1.5-.8,3.1-1.4,4.8-1.7.8-.1,1.7-.2,2.6-.2.3,0,1,0,1.1.1,0,.1,0,1.1,0,1.3Z"/><path class="cls-5" d="M109,122.8h0c-.5.1-1,.2-1.5.4-4.6,1.2-8.6,3.9-11.4,7.7-2-3.9-5.7-9.1-6.8-10.7.5-6.3,1.2-10.7.8-16.1-.3-5.2-.2-10.1-1.7-15.1h-.1c.6-.6,1.2-1.2,1.7-1.8l.5.2c5.9.9,6.6,8.5,8.6,12,3,5.1,7.6,16.7,10.1,23.5Z"/><path class="cls-10" d="M27,133.9s0,0,0,0"/><path class="cls-2" d="M17.5,119.5c-3.2,5.9-5.7,11.4-4.5,17.9-1.3-3.8-1.8-7.5-.5-10.1,1.6-3.4,1.7-4.4,3.4-7.4,0,0,.2-.3.5-.9.4.1.8.3,1.2.4h0Z"/><path class="cls-5" d="M42.2,105.4h-.1c-.2.5-.5,1.1-.8,1.8-2.5,5.6-6.9,14.9-10.2,19.9h-.5c-3.4-2.9-7.3-5.2-11.4-7-.6-.2-1.1-.5-1.7-.7-.4-.2-.8-.3-1.2-.4,2.3-4.6,12.5-25.2,14.3-27.2,2-2.2,4.5-4.6,6.9-5.9,1.3,0,2.6.6,3.5,1.5.7.7,1.2,1.6,1.6,2.6.1.3.2.6.3.8,1.7,4.8,1.3,9.9-.7,14.5Z"/><path class="cls-10" d="M39.9,84.9s0,0,0,0"/><path class="cls-7" d="M96.1,162.9c-.5,1.1-.3,2.3-.7,3.6-.7,2.6-1.1,4.8-1.9,7.3h-.3c-.1-7.3-.9-14.1-2.9-19.5,1.5,3.5,3.5,5.9,5.8,8.6Z"/><path class="cls-10" d="M99,136.9s0,0,0,0"/><path class="cls-10" d="M90.2,152.7c0,.2-.1.3,0,.3"/><path class="cls-10" d="M102.1,132.1c-1.3,1.4-2.2,2.9-3.2,4.8"/><path class="cls-10" d="M27,133.9c-.9-1.4-2.1-2.4-4.2-4.1"/><path class="cls-7" d="M48.5,167.6c-.4.4-1.1.8-2.1,1.1.8,2.3-.6,4-1.9,4.2,1.2,1.9-1,3.3-2,3.3.1,2.6-1.8,2.5-3.8,1.5-1.8-.9-3.6-2.3-4.2-3.1-1.9-2.3-4.8-7.1-3.6-10.4l-.4-.2c1.8-3.4,4.3-6,7.5-7.8,1.5.5,3.5.7,5.3,1.1,0,0,0,0,0,0,.6.2,1.2.5,1.8.7,1.4.8,2.3,2,1.8,4.5,1.4,1.7,2.7,3.7,1.5,5.1Z"/><path class="cls-10" d="M47,162.4c-.8-1-1.7-1.9-2.1-2.5"/><path class="cls-10" d="M47,162.4s0,0,0,0"/><path class="cls-10" d="M58.1,86.3c0-.2,0-.4,0-.5"/><path class="cls-9" d="M26.2,156.7c-.4.5-.7,1.1-1,1.7-2.1-2.9-4.2-5.9-5.7-8.4-2-2.9-4.9-7.8-6.5-12.6-1.2-6.6,1.4-12,4.5-17.9h0c.6.2,1.1.4,1.7.6-.3.5-.1.2-.4.7-2,4-3.7,8.2-4.4,12.6-.7,4.4,9.6,19.4,11.7,23.3Z"/><path class="cls-3" d="M38,156.1c-3.3,1.8-5.7,4.4-7.5,7.8-.2.4-.4.8-.6,1.2-1.2-1.8-2.9-4.2-4.7-6.7.3-.6.6-1.1,1-1.7,2.2-3.2,5.4-5.6,8.9-6.7h0c1,1.9,2,3.9,2.9,6.1Z"/><path class="cls-8" d="M90.2,152.7c-1.4-13.8-1.7-16.4-1.5-23.2,0-3.6.3-6.6.5-9.3.5-6.3,1.2-10.7.8-16.1-.3-5.2-.2-10.1-1.7-15.1h-.1c-.6.4-1.3.8-2,1.1-3.1,1.4-4.9,2-8.5,3.6h0c-1.9.8-4.6,2.3-8.3,2.5h0c-.3,0-.6,0-.8,0h-.4c0,0-.1,0-.2,0,0,0-.2,0-.3,0-.2,0-.3,0-.4,0-.3,0-.6,0-.9,0-.8,0-1.6-.2-2.5-.5-.3,0-.7-.2-1-.3-.3-.1-.7-.2-1.1-.4-.5-.2-1.1-.4-1.7-.7-3.2-1.5-8.8-3.6-13.4-5.6h0c-1.4,0-2.9.5-4,1.4.1.3.2.6.3.8,1.7,4.8,1.3,9.9-.7,14.5h-.1c-.2.5-.5,1.1-.8,1.8.9,2.3,1.1,44.6.8,49.6.4.2.9.4,1.3.5,0,0,0,0,0,0,.7.2,1.3.4,1.8.7,6.8,2.4,15.3,3.9,23.3,3.9,9,0,17.4-2.2,21.9-7.5,0-.6-.1-1.1-.2-1.6ZM74.2,130.2c-1.5,1.4-3.6,2-6.3,2-3.3,0-6-1.8-8.1-5.2l4.2-3.2c1.2,2.1,2.5,3.1,4.1,3.2,1.8,0,2.7-1,2.7-3,0-1.3-.2-2.2-.7-2.7-.5-.5-1.3-.8-2.4-.8h-2.1s0-5.1,0-5.1h2.2c1.7,0,2.6-.9,2.6-2.8,0-1.7-.7-2.5-2.1-2.6-1.3,0-2.6.8-4,2.6l-3.7-3.5c2.1-2.9,4.8-4.3,7.9-4.3,2.4,0,4.3.7,5.6,1.9,1.3,1.2,2,2.9,1.9,5.1,0,2.8-1.1,4.7-3.2,5.8,2.5.9,3.7,3,3.6,6.3,0,2.7-.8,4.8-2.3,6.1Z"/><path class="cls-3" d="M102.1,157.9c-1.5,2.2-3,4.4-4.7,6.6-.4-.5-.8-1.1-1.2-1.6-2.2-2.8-4.2-5.2-5.8-8.6,0-.6-.1-1.1-.2-1.6.4-.8,1.8-3.3,3.1-5.6,3.7,2.5,6.7,6.3,8.5,10.7h.2Z"/><path class="cls-10" d="M78.1,93.6c-.1,0-.2,0-.4.1"/><path class="cls-7" d="M76.8,88c-1,3.3-3.8,5.9-7.5,6.2-.2,0-.5,0-.8,0s-.2,0-.3,0c-.5,0-1.1,0-1.6-.2-4.3-.9-8.2-4.6-8.4-7.8h.1c.3-.9.3-6.3.3-8.8l.6-.3c7.2,5.7,13,4.8,17.5,1.9h0c0,.4,0,1.2,0,2.5h.2c0,1.8,0,4.3,0,6.4Z"/><path class="cls-2" d="M89.9,87.1c-.5.6-1,1.2-1.7,1.7-.6.5-1.3.9-2,1.2-3.1,1.4-4.9,2-8.5,3.6h0c-1.9.8-4.6,2.3-8.3,2.5h0c-.3,0-.6,0-.8,0h-.4c0,0-.1,0-.2,0,0,0-.1,0-.2,0-.2,0-.3,0-.4,0-.2,0-.5,0-.7,0,0,0-.1,0-.2,0-.2,0-.3,0-.5,0-.3,0-.6,0-1-.2-.2,0-.3,0-.5-.1-.5-.1-1-.2-1.6-.4-.3-.1-.7-.2-1.1-.4-.3,0-.5-.2-.8-.3s-.6-.2-.9-.4c-3.2-1.5-8.8-3.6-13.4-5.6-2.9-1.3-5.4-2.6-6.8-3.7-.6-.5-1-1-1.1-1.5-.5-3.1,2-5.2,4.6-6.7,3.6-2.1,8.8-4,11.5-2.8l.4-.4c1.3,1.4,2.7,2.6,3.9,3.6l-.6.3c0,2.5,0,7.9-.3,8.8h-.1c.2,3.1,4.2,6.8,8.4,7.8.5.1,1.1.2,1.6.2.1,0,.2,0,.3,0,.2,0,.5,0,.8,0,3.7-.3,6.5-3,7.5-6.2,0-2.1,0-4.6,0-6.4h-.2c0-1.3,0-2.2,0-2.4h0c1.8-1.2,3.4-2.7,4.8-4.1,3.8.6,9.1,5.1,9.7,8,.3,1.4-.2,2.9-1.2,4.1Z"/><path class="cls-10" d="M25.2,158.4s0,0,0,.1"/><path class="cls-10" d="M35.2,150c0,0,0,0-.1,0"/><path class="cls-10" d="M93.3,147.1s0,0,0,0"/><path class="cls-10" d="M68.5,164.5c.2,10.6-.7,12.8-3,21.2"/><path class="cls-6" d="M61,308.1c-1.3,1.2-4.8.9-6.7.9-5.1,0-10.1,0-15.2,0-1.6,0-3.4-.1-4.4-1.2-.9-1-1-6.4-.7-7.7.7-2.5,5.2-5.3,7.8-6.4,2-1.1,4-1.6,5.9-1.7,2.3-.1,4.5.2,6.3.7,3.2.7,4.7,1,6.4,3.6,1.1,1.7,2.1,10.4.6,11.9Z"/><path class="cls-6" d="M97.8,308.1c-.4.2-3.1.8-3.5.8-4.7.2-21.5-.3-22.9-1.1-1.9-1.1-1.4-9.2-.4-11.1,1-1.9,1.8-3.1,4-3.6,1.5-.4,5.8-.7,8.5-.9,1.2,0,2-.1,2.2-.1,3.7.9,10.6,3.4,12.2,6.6.7,1.3,1.3,8.9,0,9.5Z"/><path class="cls-9" d="M61.6,287.4c-.3,3-.7,5.9-1.2,8.8-1.7-2.6-3.1-2.9-6.4-3.6-1.8-.4-3.9-.8-6.3-.7v-.2c0-1.4,0-3.1-.2-5.1,4.8,1.5,9.1,1.3,14.1.8Z"/><path class="cls-7" d="M62.3,276.1c0,3.8-.3,7.6-.6,11.3-4.9.5-9.3.8-14.1-.8-.4-3.5-1.2-7.6-2.1-12.2h0c5.2,2.5,11,2.5,16.7,1.6Z"/><path class="cls-10" d="M83.5,292.4h0"/><path class="cls-9" d="M83.5,292.2c-2.7.2-7.1.6-8.5.9-2.2.5-3,1.7-4,3.6-.4-2.8-.7-5.6-1-8.5,4.7-.3,9.2.6,13.7-1.1h0c-.2,1.9-.3,3.6-.2,5.1Z"/><path class="cls-7" d="M85.7,275.1c-.9,4.4-1.6,8.4-2,12h0c-4.4,1.7-8.9.8-13.7,1.1-.4-3.9-.7-7.9-.9-11.8h0c5.3,1.1,11.2.9,16.5-1.3Z"/><path class="cls-10" d="M13,137.6v-.2"/><path class="cls-9" d="M112,136.9c-1.3-5-2.8-9.3-4.5-13.7.5-.1,1-.3,1.5-.4h0c.7,1.8,1.2,3.3,1.5,4.2.5,1.8.8,2.8,1.1,4.3.5,2,.5,3.8.3,5.6Z"/><path class="cls-10" d="M112.1,137.2c0-.1,0-.3,0-.4"/><path class="cls-10" d="M107.5,123.1s0,0,0-.1"/><line class="cls-10" x1="19.2" y1="120.1" x2="19.2" y2="120.1"/><line class="cls-10" x1="48.2" y1="48.7" x2="48.2" y2="48.6"/><line class="cls-10" x1="71.2" y1="26.3" x2="71.2" y2="26.3"/><path class="cls-1" d="M91.2,43.6h0c-.1,0-.3-.1-.5-.2-.5-.2-1.1.1-1.4.5h0c0-.7,0-1.4-.4-2.5h0c.7-.2,1.4-.6,2-.8.1,0,.2-.1.3-.2.2,1.2.2,1.9.1,3.2Z"/><path class="cls-10" d="M85,27.2h0"/><path class="cls-10" d="M42,39.4s0,0,0,0"/><path class="cls-7" d="M92.4,56c-.1.8-.3,1.6-.7,2.3-.4.7-1.6,1.9-2.3,2.2-.6.3-.3.2-.9,0l-.2-.2c1.3-1.1,2.2-2.8,2.3-4.1.1-1.5.2-2.9.4-4,.6,0,1,0,1.3-.1,0,.3,0,.6.2.9.2,1,.1,2,0,3Z"/><path class="cls-10" d="M92.3,52.1c0,0,0-.2,0-.3"/><path class="cls-1" d="M76,28.4c-.5.7-.7,1.1-1.7,1.4-.7.2-1.5.1-2.1-.3-1.1-.8-1-2-1-3.2,0-.3,0-.7,0-1-.2-1.3-1.2-2.4-2.2-3.3-1-.9-2.2-1.6-3.2-2.5-.1,0-.2-.2-.3-.3-.5-.5-.8-1.1-.6-1.7.2-.6,1-.9,1.8-.9.2,0,.4,0,.6,0,2.6,0,5.1,1.5,6.6,3.7.9,1.3,1.5,2.9,1.8,4.5.2.9.2,1,.3,2.8,0,.3,0,.6,0,.9Z"/><path class="cls-1" d="M54.3,36.4c-.7,0-1.4-.2-2-.5-.2-.1-.4-.2-.6-.3-2.4-1.4-3.4-1.8-5.8-3.2-.3-.2-.8-.5-1.3-.8-.2-.2-.4-.3-.6-.5-.6-.8-.6-2.1,0-2.9.1-.2.3-.4.5-.5,1.1-.7,2-.8,3.2-.2,0,0,.1,0,.2.1.8.4,4.1,2.9,6.1,5.2,1.6,1.8,2.3,3.4.3,3.6Z"/><path class="cls-1" d="M67.7,28.7v.2c-.7.8-1.8.9-2.7.3-.7-.5-1.2-1.2-1.6-2,0-.2-.2-.3-.2-.5-.4-.9-.8-1.9-1.6-2.7-.9-.9-2.2-1.4-3.3-2-.4-.3-.8-.6-1.1-1-.5-.6-.8-1.3-.6-2.1.3-1.1,1.5-1.8,2.7-1.7,1.2,0,2.2.7,3,1.6.2.2.4.5.7.7.5.6,1,1.3,1.5,1.9.9,1.1,2,2.1,2.7,3.3.3.5.5,1.1.6,1.6.1.8,0,1.6,0,2.4Z"/><path class="cls-1" d="M52.3,35.9c-.4.7-.5.9-.8,1.7h0c-2.3-1.4-6.4-2.5-7.1-2.6-.3,0-.6-.1-1-.2h0c.4-1.1.7-2.1,1.2-3.1.4.3.9.6,1.3.8,2.4,1.4,3.4,1.8,5.8,3.2.2.1.4.2.6.3Z"/><path class="cls-1" d="M51.9,40.7c-.6.3-1.2.4-1.8.4,0,0-.1,0-.2,0-2.4,0-4.9-.4-7.2-1.4-.2-.1-.4-.2-.6-.3-.3-.1-.5-.3-.8-.6-.5-.5-.7-.7-.6-1.5.1-.9.4-2.3,1.2-2.6.5-.1,1-.1,1.5,0,.3,0,.7.1,1,.2.7.1,4.8,1.3,7.1,2.6,1.7,1,2.4,2.1.5,3.1Z"/><path class="cls-1" d="M78.3,28.3c0,.1,0,.2,0,.3-.9-.5-1.4-.8-2.3-1.2h0c-.2-1.8-.2-1.9-.3-2.8-.3-1.6-.8-3.1-1.8-4.5,1.2.3,1.6.5,2.3.8.2.9.8,1.7,1.3,2.5.9,1.5,1.2,3.1.9,4.8Z"/><path class="cls-1" d="M82.3,29.9c-.2.4-.4.8-.8,1.2-.4.4-1,.7-1.5.7-2.3.1-1.9-1.8-1.7-3.1,0-.1,0-.2,0-.3.2-1.7,0-3.3-.9-4.8-.5-.8-1.1-1.6-1.3-2.5-.2-.9.5-1,1.4-1.3.6-.2,1.3,0,1.9.3.5.4.9.9,1.2,1.5.6,1,1,1.8,1.2,2.6.3.8.5,1.6.6,2.7.2,1,.2,2.1-.2,3.1Z"/><path class="cls-1" d="M85,27.1s0,0,0,0c0,.3-.8,4.1-.8,6.5h0c-.9-1.1-1.5-1.7-2.7-2.7.4-.3.6-.7.8-1.2.4-1,.3-2,.2-3.1-.2-1.1-.3-1.9-.6-2.7h0c.2.2,1,.8,1.2.9,1,.8,1.2,1.2,1.9,2.1Z"/><path class="cls-1" d="M89.5,31.7c-.1.5-.4.9-.7,1.4-.7,1-1.9,1.9-3.4,2.3-.2,0-.4.1-.5.1-.5.1-.7-.7-.8-1.8,0-2.4.7-6.2.8-6.5,0,0,0,0,0,0,0-.2.1-.5.3-.7.5-.4,1.5-.1,2.1.2,1.8,1.2,2.6,3.2,2.1,5Z"/><path class="cls-1" d="M89.9,35.9h0c-.9,0-2,1.1-2.7,2.4-.6-1.1-.9-1.8-1.8-3,1.4-.4,2.6-1.3,3.4-2.3.5,1.1.7,1.8,1.1,2.9Z"/><path class="cls-1" d="M91,40.4c0,0-.2.1-.3.2-.6.2-1.3.6-2,.8-.7.2-1.3.2-1.6-.4-.4-.7-.2-1.8.2-2.7.6-1.3,1.8-2.5,2.7-2.4.2,0,.4.1.6.3.5.5.9,1.1,1.1,1.8.3.9,0,1.9-.6,2.4Z"/><path class="cls-1" d="M49.9,41.1h0c-.4,1-.4,1-.7,2-1.1-1-5.6-1.1-6.8-.9-.2,0-.5,0-.7.2h0c0-1.5,0-1.4.3-2.9.2,0,.4.1.6.3,2.3.9,4.8,1.4,7.2,1.4Z"/><path class="cls-1" d="M48.7,45.3c-.9.7-2.2,1.2-3,1.5-1.1.3-2.4,1-3.6.9-.3,0-.6,0-.9-.2-1.3-.6-1.6-2.2-1-3.5.3-.8.8-1.3,1.5-1.6.2,0,.4-.1.7-.2,1.2-.1,5.7,0,6.8.9,0,0,.1.1.2.2.4.8,0,1.4-.6,2Z"/><path class="cls-1" d="M48.7,45.3c-.4,1.5-.5,2.1-.6,3.4-.2,0-.4-.2-.6-.2-1.1-.3-3.6.3-5,1-.2-.7-.4-1.1-.4-1.8,1.2,0,2.5-.6,3.6-.9.7-.2,2.1-.8,3-1.5Z"/><path class="cls-1" d="M48.7,49.5c-2.1.9-5.2,2.2-5.8,2.4,0,0-.1,0-.1,0-.7.2-1.5,0-1.8-.6-.2-.5,0-1.1.5-1.4.2-.2.5-.4.9-.5,1.5-.7,3.9-1.3,5-1,.2,0,.4.1.6.2.4.2.6.6.6.9Z"/><path class="cls-1" d="M91.7,45.8c0,.5-.2,1-.5,1.5-.3.4-.8.7-1.2.7,0,0,0,0,0,0-.5,0-.9-.5-1.1-1-.2-.5-.1-1,0-1.5,0-.5.1-1.1.5-1.5,0,0,0,0,0,0,.3-.4.9-.7,1.4-.5.2,0,.3.2.5.3.2.2.4.5.5.7.2.4.1.9,0,1.4Z"/><path class="cls-1" d="M56.4,30.1c-.9.6-1.5,1.2-2.5,2.7-2-2.3-5.2-4.8-6.1-5.2,0,0-.1,0-.2-.1h0c.8-1,1.1-1.4,2.1-2.2.6.7,1.4,1.4,2.2,2,1.4,1,2.9,2,4.4,2.9Z"/><path class="cls-1" d="M60.6,30.3c-.7,1.5-3.3.4-4.2-.2-1.5-.9-3-1.8-4.4-2.9-.8-.6-1.6-1.2-2.2-2-.3-.3-.5-.7-.7-1.1-.4-.9.2-1.5,1-2,.8-.5,1.8-.1,2.7.2.2,0,.3.1.5.2,2.3,1.1,4,2.3,5.7,4.3.3.3.8.9,1.2,1.4.5.6.8,1.3.6,1.9Z"/><path class="cls-1" d="M63.3,27.1c-1.2.4-1.8.6-3.2,1.2h0c-.4-.5-.9-1-1.2-1.4-1.7-2-3.3-3.2-5.7-4.3,1.5-.9,2.2-1.2,3.9-1.7h0c.3.4.7.7,1.1,1,1.1.7,2.4,1.1,3.3,2,.7.8,1.1,1.7,1.6,2.7,0,.2.2.3.2.5Z"/><path class="cls-1" d="M71.2,26.3c-.4,0-.4,0-.8,0-1.1,0-1.9,0-2.8,0h0c0-.6-.2-1.1-.6-1.6-.8-1.2-1.8-2.2-2.7-3.3-.5-.6-1-1.3-1.5-1.9,1.3-.2,1.3-.3,2.6-.3,0,0,.2.2.3.3,1,.9,2.2,1.6,3.2,2.5,1,.9,1.9,2,2.2,3.3,0,.3,0,.7,0,1Z"/><path class="cls-1" d="M67.3,16.2v.3c-.2,0-.4,0-.6,0-.7,0-1.5.3-1.8.9-.2.6,0,1.2.6,1.7-1.3,0-1.3,0-2.6.3-.2-.2-.4-.5-.7-.7-.8-.8-1.9-1.5-3-1.6-1.2,0-2.4.6-2.7,1.7-.2.7.1,1.5.6,2.1h0c-1.6.6-2.4.8-3.9,1.7-.2,0-.3-.2-.5-.2-.8-.4-1.9-.7-2.7-.2-.8.5-1.4,1.1-1,2,.2.4.4.8.7,1.1-1,.8-1.3,1.2-2.1,2.1h0c-1.2-.5-2.1-.4-3.2.3-.2.1-.4.3-.5.5-2.2-3.8-1.9-8.8.6-12.5,2.5-3.7,7-5.9,11.4-5.7,4.4.2,8.7,2.6,11.3,6.1Z"/><path class="cls-10" d="M44.1,28.4c0,0,0,0,0-.1"/><line class="cls-10" x1="61.6" y1="287.4" x2="61.6" y2="287.4"/><path class="cls-10" d="M47.6,286.7c0,0-.2,0-.3,0"/><path class="cls-10" d="M64.1,164.5c-.3,5.1-.6,10.3-.9,15.4"/><path class="cls-10" d="M82.7,163.2c2.1,2.2,4.9,3.6,7.9,4.1"/><path class="cls-10" d="M53.9,164.7c-2.6,1.4-5.3,2.7-7.9,4.1"/><path class="cls-11" d="M62.8,53.8c0,1.6-.6,2.8-1.4,3,0,0-.1,0-.2,0-.9,0-1.6-1.4-1.6-3.1s0-1.1.2-1.6c.3-.9.8-1.5,1.4-1.5.9,0,1.6,1.4,1.6,3Z"/><line class="cls-10" x1="70" y1="54.5" x2="69.6" y2="54.5"/><line class="cls-10" x1="70" y1="51.3" x2="70" y2="51.3"/><line class="cls-10" x1="72.9" y1="51.3" x2="72.9" y2="51.3"/><line class="cls-10" x1="73.4" y1="54.6" x2="73.3" y2="54.6"/><path class="cls-10" d="M89.4,50s0,0,0,0"/><line class="cls-10" x1="72.6" y1="48.1" x2="72.6" y2="48.1"/><path class="cls-3" d="M92.3,52.1h0c-.3,0-.7.1-1.3.1.2-1.6.4-2.9.5-3.5,1.1.3,1.5,1.5,1.5,1.5,0,.9.5,1.6-.7,1.9Z"/><path class="cls-3" d="M73.3,54.6h-.3c-2,0,.5,0-3.4-.2.1-1,.3-2,.4-3.1h.2c2.4,0,.8,0,2.5,0h.2c.1,1.2.3,2.2.4,3.3Z"/><path class="cls-10" d="M69.6,54.5h0"/><path class="cls-3" d="M89.9,48.5c0,0,0,0-.1,0h0c-4.5-.8-9.2-1.4-13.7-.8l-3.2.4h-.2c.1,1.2.2,2.3.3,3.3.1,1.2.3,2.2.4,3.3.1.9.2,1.7.4,2.7.1,1.1,1.5,3.1,3,3.9.3.2.7.3,1,.3,2.6,0,4.7.1,7.6.1.9,0,1.7-.3,2.5-.8.2-.1.4-.3.5-.4,1.3-1.1,2.2-2.8,2.3-4.1.1-1.5.2-2.9.4-4,.2-1.6.4-2.9.5-3.5-.5,0-1.1-.2-1.6-.3ZM89,56.2c-.1,1.3-1.5,3.9-3.2,3.9-2.8,0-5,0-7.6-.1-1.3,0-2.5-2.4-2.6-3.4-.3-2.3-.7-4.1-.9-7,2.5-.5,9.6-.5,14.7.5,0,.5-.2,3.8-.4,6.1Z"/><path class="cls-9" d="M74.7,49.6c.2,2.9.6,4.7.9,7,.1,1,1.3,3.4,2.6,3.4,2.5,0,4.7.1,7.6.1,1.7,0,3.1-2.6,3.2-3.9.2-2.3.4-5.6.4-6.1-5.1-1-12.2-1-14.7-.5ZM82.5,54.3c-.1,1.3-.7,2.3-1.4,2.3s-.7-.3-.9-.8c-.3-.5-.5-1.2-.5-2,0-1.6.6-2.8,1.4-2.8s1.4,1.2,1.4,2.8,0,.3,0,.5Z"/><path class="cls-11" d="M82.6,53.8c0,.2,0,.3,0,.5-.1,1.3-.7,2.3-1.4,2.3s-.7-.3-.9-.8c-.3-.5-.5-1.2-.5-2,0-1.6.6-2.8,1.4-2.8s1.4,1.2,1.4,2.8Z"/><path class="cls-10" d="M50.7,48.8h0"/><path class="cls-3" d="M51.4,53.8h-.2c-.8,0-1.7,0-2.7-.1-1-1.2-3.1-1.4-4.5-.5-.8-.2-1.3-.6-1.2-1.2,0,0,0,0,.1,0,.5-.2,3.6-1.5,5.8-2.4.9-.4,1.7-.7,1.9-.8h0s0,0,0,0h0c0,0,.4,2.4.7,5Z"/><path class="cls-3" d="M69,47.9c-1.4-.2-2.8-.4-4.2-.5-3-.2-6-.2-9,.2-1.4.2-2.8.4-4.2.7l-.8.2v.2s0,0,0,0c0,0,.4,2.5.7,5.1,0,.8.2,1.7.2,2.5.2,2.1,2.6,5.3,5.6,5.3,3,0,5.2,0,7.9-.1,1.9,0,3.9-2.8,4.1-4.2.1-1,.3-1.9.4-2.8.1-1,.3-2,.4-3.1.1-1,.2-2,.3-3.2l-1.4-.2ZM67.2,56.6c-.2,1-1.2,3.4-2.6,3.4-2.7,0-4.9.1-7.9.1-1.8,0-3.3-2.6-3.4-3.9-.3-2.8-.5-6.9-.4-6.1,6.2-1.3,12.4-1,15.3-.5-.3,2.9-.6,4.7-1,7Z"/><path class="cls-9" d="M52.9,50.1c0-.8.2,3.3.4,6.1.1,1.3,1.6,3.9,3.4,3.9,3,0,5.2,0,7.9-.1,1.4,0,2.4-2.4,2.6-3.4.3-2.3.7-4.1,1-7-2.9-.5-9.1-.8-15.3.5ZM61.4,56.8c0,0-.1,0-.2,0-.9,0-1.6-1.4-1.6-3.1s0-1.1.2-1.6c.3-.9.8-1.5,1.4-1.5.9,0,1.6,1.4,1.6,3s-.6,2.8-1.4,3Z"/><path class="cls-7" d="M89.8,48c-.5,0-.9-.5-1.1-1-.2-.5-.1-1,0-1.5,0-.5.1-1.1.5-1.5,0,0,0,0,0,0h0c0-.7,0-1.4-.4-2.5h0c-.7.2-1.3.2-1.6-.4-.4-.7-.2-1.8.2-2.7-.6-1.1-.9-1.8-1.8-3-.2,0-.4.1-.5.1-.5.1-.7-.7-.8-1.8h0c-.9-1.1-1.5-1.7-2.7-2.7-.4.4-1,.7-1.5.7-2.3.1-1.9-1.8-1.7-3.1-.9-.5-1.4-.8-2.3-1.2h0c0,.3,0,.6,0,.9-.5.7-.7,1.1-1.7,1.4-.7.2-1.5.1-2.1-.3-1.1-.8-1-2-1-3.2-.4,0-.4,0-.8,0-1.1,0-1.9,0-2.8,0h0c.1.8,0,1.6,0,2.4v.2c-.7.8-1.8.9-2.7.3-.7-.5-1.2-1.2-1.6-2-1.2.4-1.8.6-3.2,1.2h0c.5.7.8,1.4.6,1.9-.7,1.5-3.3.4-4.2-.2-.9.6-1.5,1.2-2.5,2.7,1.6,1.8,2.3,3.4.3,3.6-.7,0-1.4-.2-2-.5-.4.7-.5.9-.8,1.7h0c1.7,1,2.4,2.1.5,3.1-.6.3-1.2.4-1.8.4,0,0-.1,0-.2,0h0c-.4,1-.4,1-.7,2,0,0,.1.1.2.2.4.8,0,1.4-.6,2-.4,1.5-.5,2.1-.6,3.4.4.2.6.6.6.9.9-.4,1.7-.7,1.9-.8h0s0,0,0,0h0c0,0,0-.3,0-.3l.8-.2c1.4-.3,2.8-.5,4.2-.7.1-.3.4-.5.7-.7,1.5-.8,3.1-1.4,4.8-1.7.8-.1,1.7-.2,2.6-.2.3,0,1,0,1.1.1,0,.1,0,1.1,0,1.3,0,.3,0,.6-.2.9,1.4.1,2.8.3,4.2.5l1.4.2c0,1.2-.2,2.3-.3,3.2h.2c2.4,0,.8,0,2.5,0h.2c0-1-.2-2.1-.3-3.2h.2s0,0,0,0l3.2-.4c4.5-.6,9.2,0,13.7.8h0s0,0,.1,0v-.5s0,0,0,0ZM84,47.5c-2-.4-4.1-.4-6.1,0-.3,0-.7.1-1,0-.3-.2-.4-.7-.3-1,0-.6,0-1,.4-1.2.4-.2,1.2-.1,1.7-.1,1.1,0,2.2.2,3.3.4.6,0,1.2.2,1.6.6.4.3.7,1,.4,1.5Z"/><path class="cls-9" d="M76.5,124c0,2.7-.8,4.8-2.3,6.1s-3.6,2-6.3,2c-3.3,0-6-1.8-8.1-5.2l4.2-3.2c1.2,2.1,2.5,3.1,4.1,3.2,1.8,0,2.7-1,2.7-3,0-1.3-.2-2.2-.7-2.7-.5-.5-1.3-.8-2.4-.8h-2.1s0-5.1,0-5.1h2.2c1.7,0,2.6-.9,2.6-2.8,0-1.7-.7-2.5-2.1-2.6-1.3,0-2.6.8-4,2.6l-3.7-3.5c2.1-2.9,4.8-4.3,7.9-4.3,2.4,0,4.3.7,5.6,1.9,1.3,1.2,2,2.9,1.9,5.1,0,2.8-1.1,4.7-3.2,5.8,2.5.9,3.7,3,3.6,6.3Z"/><path class="cls-10" d="M16.3,119s0,0,0,0"/><path class="cls-10" d="M96,130.9s0,0,0,0"/><path class="cls-10" d="M42.2,105.4c0,0,0,.1,0,.2"/><path class="cls-10" d="M37.5,85.9h0"/><path class="cls-9" d="M46.7,88.6h0c-1.4,0-2.9.5-4,1.4-.4-1-.9-1.9-1.6-2.6-.9-.9-2.2-1.6-3.5-1.5.8-.5,1.6-.8,2.4-1,1.4,1.2,3.9,2.4,6.8,3.7Z"/></svg>