<?xml version="1.0" encoding="UTF-8"?><svg id="latinAmerica" xmlns="http://www.w3.org/2000/svg" width="235" height="321.9" viewBox="0 0 235 321.9"><defs><style>.cls-1{stroke-linecap:round;stroke-linejoin:round;}.cls-1,.cls-2{fill:none;stroke:#000;}.cls-2{stroke-miterlimit:10;}.cls-3,.cls-4,.cls-5,.cls-6,.cls-7,.cls-8,.cls-9,.cls-10{stroke-width:0px;}.cls-4{fill:#4d443e;}.cls-5{fill:#4a62ba;}.cls-6{fill:#2b388d;}.cls-7{fill:#444746;}.cls-8{fill:#af856a;}.cls-9{fill:#fff;}.cls-10{fill:#e6ced6;}</style></defs><path class="cls-7" d="M210.9,209.1c17.8.4,7,13.7-.3,16-10.2,3.1-22.2,7-33.5,9.6-1.3.3-2.7,0-3.7-.8-.7-.6-.9-1.6-1.1-2.5-.9-4-2.6-9.3-2.5-13.3,1.7,2,6.9,2.5,8.6.6,1-1.1,1.3-2.7,1.4-4.3.2-1.5.3-3.1,1.1-4.4.2-.3.4-.6.7-.8.7-.6,1.5-.8,2.5-.2h.1c8.7.9,16.1,0,26.7.2Z"/><path class="cls-9" d="M169.8,217.9c-1.2-.4-2.4-.8-3.5-1.1l.2-.7c0-4.1,2.2-8.1,5.6-10.4h0c2.8,1,5.7,2.1,8.9,3.3l.5.2c-.2.2-.5.5-.7.8-.8,1.3-.9,2.9-1.1,4.4-.2,1.5-.4,3.1-1.4,4.3-1.7,1.9-6.9,1.4-8.6-.6v-.2Z"/><path class="cls-8" d="M172.1,205.5h0c-3.4,2.5-5.5,6.5-5.6,10.6l-.2.7c-15-4.3-20.7,1-31.5-8.8-10.9-2-12.2.2-19.8-.2-2.5-7.2,2.6-20.9,6.1-24.1,9.2,3.8,8.5,2.3,19.9,9.3,11.9,4.4,20.6,8.3,31.1,12.5Z"/><path class="cls-7" d="M130.2,299.2c16.1,7.5.9,15.4-6.7,14.5-10.6-1.2-23.1-2.5-34.6-4.7-1.3-.2-2.5-1-3-2.2-.4-.9-.2-1.8,0-2.8.8-4,1.3-9.6,3.1-13.2,0,.3.2.5.4.8,1.3,2.2,5.1,4.2,7.3,3.2,1.4-.6,2.3-2,3-3.3.5-.9,1-1.7,1.6-2.5.3-.4.7-.8,1.2-1.1,1.2-.9,2.4-.9,3.4.3h.1c7.7,4.4,14.7,6.5,24.4,11Z"/><path class="cls-4" d="M109,113.1c.5-3.4.9-6.9.7-10.2h0c.8-.9,1.7-2,3-4.1h0c1.2-2,2.8-4.7,3.2-7.1.5-2.6.7-5.2,1-7.9.3-2.1.6-4.2.5-6.3-.3-9.1-4.6-13.3-11.3-18.9-1-.8-10.5,1.5-16.5,7.6-2.4,2.5-5.1,4.1-6.6,8.9h0c-2.2,7.3-3.8,14.6-4.2,22-.1,2.4-.1,4.7,0,7.1,0,1.7.3,3.4.5,5.1,0,.4.1.9.2,1.3.2,1.3.5,2.6.8,3.9.8,3.5,2.5,8.6,1.8,12.3-.1.7-.9,1-1.5.7-4.2-2.3-7-8.7-8.3-13.2-.5-1.7-1-3.5-1.4-5.2-.3-1.3-.6-2.7-.9-4,0-.5-.2-1-.3-1.5-1.4-8.8-1.5-17.6-.3-26.5,1.3-9.5,3.4-20.1,12.4-25.6,7.7-4.7,21.6-4.9,24.7-2.6v-.2c8.7,4.5,12,10.2,14.6,17.4,1.8,5.1,2.1,12.6,1.2,17.9-.9,5.3-2.1,10.7-3.3,15.9-1.2,5.7-3,11.8-5.1,17.4-1.4,3.8-2.9,7.4-4.5,10.4-.6,1.3-2.6.7-2.5-.7.1-4,1-8.5,1.7-13,0-.3,0-.5.1-.8Z"/><path class="cls-7" d="M115.1,207.8c0,.3.2.6.3.9.1.2-.7.3-2.3.1-7-.7-28-4.8-37.5-6.7-2.2-.6-4.1-1.1-5.2-1.6-4.7-2.4-11-8.9-11.3-20.6,0-1.3,0-2.6.1-4.1,1.5-9.9,15.5-6.6,32.2-2.9,8.3,1.8,10.5,3.9,14.7,4.9.3,0,.7.2,1,.2,6.1,1.9,15.1,4.7,14,5.6-3.5,3.2-8.5,16.9-6.1,24.1Z"/><path class="cls-6" d="M118.8,143.6c-3.2-.7-10.7-1.7-15.5.9-.3-2.9-.9-5-.9-10,0-2.4-.9-11,1.6-16.3,1-2.1,2.5-3.7,4.8-4.3-.7,4.5-1.6,9-1.7,13,0,1.4,1.9,1.9,2.5.7,1.6-3,3.1-6.6,4.5-10.4.6.6.8.8,1,1.4,4.3,10.6,5.6,25.5,5,25.3-.2,0-.7-.2-1.3-.3Z"/><path class="cls-8" d="M78.6,142.3c1.6.8,3.2,1.8,4.4,2.8,1.1,1,1.8,1.9,1.9,2.7h0c7.5-1.4,11.2-1,18.7-2.5l-.2-.9c4.8-2.6,12.3-1.6,15.5-.9.3,3.4.6,6.2-1,9.5-1,2.1-2.2,2.3-3.1,2.9-3.8,1.5-7,2.4-10,2.8-7.9,1.2-14-.5-24.9-1.7-2.6,1-12.3,1.3-13.3-1.4-.9-2.2,2.8-13.3,5.7-14.7,1.2-.6,3.8.1,6.4,1.4Z"/><path class="cls-8" d="M101,109.2c0,0-.1,0-.2,0-4.4,1.2-10.1-.6-19.2-9.5-.9-.9-1.8-1.8-2.8-2.8.4-7.3,2-14.6,4.2-21.9h0c1.5-4.9,4.2-6.5,6.6-9,6-6.1,15.5-8.4,16.5-7.6,6.6,5.6,11,9.8,11.3,18.9,0,2.1-.2,4.2-.5,6.3-.3,2.6-.6,5.3-1,7.9-.4,2.5-2,5.1-3.2,7.1h0c-1.3,2.2-2.2,3.4-3,4.2-.5.6-1,1-1.6,1.6-2.2,2.1-4.4,4-7,4.8ZM115.5,75c.4-.3.2-.9-.2-1.3-.8-.9-2-1.4-3.2-1.5s-2.4-.1-3.6,0c-.9.2-1.7.7-1.8,1.3,0,.6.6,1.4,1.6,1.5.4,0,6.9,0,7.1-.1ZM112.1,82.8c.2-1.7-.4-3.1-1.2-3.2-.9,0-1.7,1.2-1.9,2.8s.4,3.1,1.2,3.2c.9,0,1.7-1.2,1.9-2.8ZM99.6,101.6c3,0,4.4-.8,6-3.1-5.2,1.7-14.9-1.8-15.8-2.9.9,2.1,1.4,2.8,3.4,4,1.8,1.2,4.6,2,6.4,2ZM97.4,73.3c1.1-2.7-4.8-3.2-6.6-3-1.2.1-5.1,1.3-4.5,2.8.2.4,8.7,1.3,9.4,1.2s1.4-.5,1.7-1.1ZM93.8,80.8c.2-1.7-.4-3.1-1.2-3.2-.8,0-1.7,1.2-1.9,2.8s.4,3.1,1.2,3.2c.9,0,1.7-1.2,1.9-2.8Z"/><path class="cls-7" d="M117.6,231.4c-.5,0-1,.2-1.4.2-8.4,1.4-13.4,1.7-22.7.8-1.1-.1-2.3-.2-3.6-.4-1.6-4.5-6.3-19.3-14.2-29.9,9.5,1.9,30.6,6,37.5,6.7v.2c3.1,11.2,3.8,14.3,4.4,22.4Z"/><path class="cls-8" d="M116.2,232c3.1,4.8-2.1,13.5-4.7,23.5-2.1,7.7-4.7,17-7.4,25.3h-.3c-4.6.5-9.4-.3-13.6-2.4,0-9.1-.5-18.3,1.8-24.9,1.1-3.4,2.4-7.3,2.9-10.8.5-3.6.2-6.4-1.4-9.6v-.6c9.4.9,14.4.6,22.8-.8v.4Z"/><path class="cls-3" d="M115.3,73.7c.3.4.5,1,.2,1.3-.2.2-6.7.2-7.1.1-1-.1-1.7-.9-1.6-1.5,0-.6.9-1.2,1.8-1.3,1.2-.2,2.4-.2,3.6,0s2.4.6,3.2,1.5Z"/><path class="cls-3" d="M110.9,79.7c.8,0,1.4,1.5,1.2,3.2-.2,1.7-1,2.9-1.9,2.8-.9,0-1.4-1.5-1.2-3.2s1-2.9,1.9-2.8Z"/><path class="cls-4" d="M109.7,102.8c.2,3.3-.2,6.8-.7,10.2-3-1.8-6.1-2.8-7.9-3.8,2.6-.8,4.8-2.7,7-4.8.6-.6,1.1-1,1.6-1.6h0Z"/><path class="cls-9" d="M109,113.1c0,.3,0,.5-.1.8-2.3.6-3.8,2.2-4.8,4.3h0c-1.5-1.5-3.3-2.7-5.3-3.5h-.1c.5-.8,1-1.5,1.5-2.2.5-1.3.5-.8.8-3.3,0,0,.1,0,.2,0,1.8,1,4.9,2.1,7.9,3.8Z"/><path class="cls-5" d="M106.1,177.7s0,0,0,.1c-4.1-1-6.4-3.1-14.7-4.9-16.7-3.6-30.7-7-32.2,2.9-.1,1.4-.2,2.8-.1,4.1-3.3-12-1.1-15.5,1-38.2h0c.1-5.5.2-8.7.5-13.2.1-1.5.3-3.1.4-4.9.4-4.2,1.4-8.2,3.4-11.8.6-1.1,1.2-2,1.6-2.8h.1c1.5-.3,3.1-.4,4.7,0,.4,1.8.9,3.5,1.4,5.2,1.4,4.5,4.2,10.9,8.3,13.2.6.3,1.3,0,1.5-.7.7-3.7-1-8.9-1.8-12.3-.3-1.3-.6-2.6-.8-3.9h.2c.9,5.1,4.7,8.9,8.5,9.7,3.4.7,7.5-2.1,10.3-5.6h.1c2,.9,3.8,2.1,5.3,3.5h0c-2.5,5.4-1.6,14-1.6,16.4,0,4.9.6,7.1.9,10l.2.9c-7.4,1.5-11.2,1.1-18.7,2.6h0c0-.9-.8-1.9-1.9-2.9h0c1.6-1.2,1.8-1.6,2.5-2.8.7-1.1,1.1-2.5,1.3-4.1.3-2.2,0-4-1-5.4-1-1.4-2.5-2.2-4.5-2.5-1.6-.2-3.1,0-4.4.8-1.1.6-2.3,1.7-3.5,3.3l3,3.9c.9-1.1,1.7-1.8,2.3-2.2.5-.3,1.2-.4,1.8-.4.5,0,.8.3,1.1.8.2.5.3,1,.3,1.6,0,.7-.3,1.4-.7,1.9-.4.5-1.1,1.2-2.1,1.8-.2.1-.3.2-.5.4-2.5-1.2-5.2-2-6.4-1.4-2.9,1.4-6.6,12.5-5.7,14.7,1,2.6,10.7,2.3,13.3,1.4,11,1.2,17,3,24.9,1.7-.8,3,1.2,14,1.3,19Z"/><path class="cls-9" d="M103.7,280.7h.3c-.9,3-1.9,5.7-2.8,8.3h0c-.6.8-1.1,1.7-1.6,2.5-.7,1.3-1.6,2.7-3,3.3-2.1,1-6-1-7.3-3.2h.2c.5-4.2.6-8.7.6-13.2,4.2,2.1,9,2.9,13.6,2.3Z"/><path class="cls-9" d="M105.6,98.5c-1.5,2.2-3,3-6,3.1-1.8,0-4.6-.8-6.4-2-2-1.3-2.4-1.9-3.4-4,.9,1.2,10.6,4.6,15.8,2.9Z"/><path class="cls-8" d="M79.7,110.5h-.2c0-.4-.1-.9-.2-1.3h.5c.6-1.6,1.1-3.6,1.4-5.6.2-1.4.3-2.7.3-3.8,9.1,8.9,14.8,10.8,19.2,9.5-.3,2.5-.3,2-.8,3.3-.4.7-.9,1.4-1.5,2.1-2.8,3.5-6.9,6.3-10.3,5.6-3.8-.8-7.6-4.6-8.5-9.7Z"/><path class="cls-3" d="M90.7,70.3c1.8-.2,7.8.3,6.6,3-.3.6-.9,1-1.7,1.1s-9.3-.8-9.4-1.2c-.6-1.5,3.2-2.7,4.5-2.8Z"/><path class="cls-3" d="M92.6,77.6c.9,0,1.4,1.5,1.2,3.2-.2,1.7-1,2.9-1.9,2.8-.9,0-1.4-1.5-1.2-3.2s1-2.9,1.9-2.8Z"/><path class="cls-9" d="M85.8,132.8c1,1.4,1.3,3.2,1,5.4-.2,1.6-.6,3-1.3,4.1-.7,1.2-.9,1.6-2.5,2.7h0c-1.2-1-2.8-2-4.4-2.8.2-.1.3-.2.5-.4,1-.7,1.7-1.3,2.1-1.8.4-.5.7-1.2.7-1.9,0-.6,0-1.2-.3-1.6-.3-.5-.6-.7-1.1-.8-.7,0-1.3,0-1.8.4-.6.3-1.4,1.1-2.3,2.2l-3-3.9c1.2-1.6,2.4-2.7,3.5-3.3,1.3-.7,2.7-1,4.4-.8,2.1.3,3.6,1.1,4.5,2.5Z"/><path class="cls-4" d="M81.6,99.8c0,1.1-.1,2.4-.3,3.8h-.1c-.8.3-2,0-2.2.5h0c-.1-2.4-.1-4.7,0-7.1,1,1,1.9,1.9,2.8,2.8Z"/><path class="cls-9" d="M81.1,103.6h.1c-.3,2-.8,4-1.4,5.6h-.5c-.2-1.7-.4-3.4-.5-5.1h0c.2-.4,1.4-.2,2.2-.5Z"/><path class="cls-9" d="M70.1,104.9c.2,1.3.5,2.7.9,4-1.5-.4-3.2-.4-4.7,0h-.1c1.6-2.7,2.6-3.5,4-4.1h0Z"/><path class="cls-6" d="M43,122.9c0-.6-.1-1.1,0-1.3.1-1,7.9-8.8,8.6-9.5,4.2-3.8,6.5-6.5,12-7.6.8-.2,3.6-.8,6.2-1.1,0,.5.2,1,.3,1.5h0c-1.3.6-2.3,1.4-4,4-.5.8-1,1.7-1.6,2.8-2,3.7-3,7.6-3.4,11.8-.2,1.9-.3,3.5-.4,4.9-1.7,1.5-3.1,2.8-4.4,3.9h0c-1.5,1.2-3.7,2.7-6.1,4.3-4.5-2.8-6.7-10.5-7.1-13.7Z"/><path class="cls-10" d="M56.3,132.4h0c-2.4,2-4.2,3.3-5.8,4.5-.1,0-.3-.1-.4-.2,2.4-1.6,4.6-3.1,6.1-4.3Z"/><path class="cls-8" d="M30,162.3h0c2.4.7,4.7,9.6,3.2,11.6-1.7,2.1-11.5,3-13.1,1.9-1.9-1.3.2-9.1,1.5-11.1,2.7-12.3,4.3-18.7,11.6-29,3.3-4.7,6.6-9.4,9.8-12.8.4,3.2,2.6,11,7.1,13.7-2.7,1.8-5.7,3.8-8.4,5.9-4.7,8.6-8.2,12.6-11.7,19.7Z"/><path class="cls-1" d="M60.7,128.5h0c-1.7,1.6-3.1,2.8-4.4,3.9-2.4,2-4.2,3.3-5.8,4.5-.1,0-.3-.1-.4-.2-4.5-2.8-6.7-10.5-7.1-13.7,0-.6-.1-1.1,0-1.3.1-1,7.9-8.8,8.6-9.5,4.2-3.8,6.5-6.5,12-7.6.8-.2,3.6-.8,6.2-1.1,0,0,.1,0,.2,0"/><path class="cls-1" d="M43,122.9s0,0,0,0c-3.3,3.4-6.6,8.1-9.8,12.8-7.2,10.3-8.9,16.7-11.6,29"/><path class="cls-1" d="M56.3,132.4c-1.5,1.2-3.7,2.7-6.1,4.3-2.7,1.8-5.7,3.8-8.4,5.9-4.7,8.6-8.2,12.6-11.7,19.7,0,.2-.2.4-.3.5"/><path class="cls-1" d="M30.1,162.3c2.4.7,4.7,9.6,3.2,11.6-1.7,2.1-11.5,3-13.1,1.9-1.9-1.3.2-9.1,1.5-11.1"/><path class="cls-1" d="M109,113.1s0,0,0,0c-3-1.8-6.1-2.8-7.9-3.8,0,0,0,0,0,0"/><path class="cls-1" d="M102.4,134.5c0,4.9.6,7.1.9,10,4.8-2.6,12.3-1.6,15.5-.9.6.1,1,.2,1.3.3.7.2-.7-14.7-5-25.3-.3-.6-.4-.9-1-1.4h0"/><path class="cls-1" d="M114.7,155.9c-3.8,1.5-7,2.4-10,2.8-7.9,1.2-14-.5-24.9-1.7"/><path class="cls-1" d="M108.8,144.1c-2,.5-3.7.9-5.3,1.3-7.4,1.5-11.2,1.1-18.7,2.6-.2,0-.5,0-.7.1"/><path class="cls-1" d="M84.9,147.8c0-.8-.8-1.8-1.9-2.7-1.2-1-2.8-2-4.4-2.8-2.5-1.2-5.2-2-6.4-1.4-2.9,1.4-6.6,12.5-5.7,14.7,1,2.6,10.7,2.3,13.3,1.4"/><path class="cls-1" d="M118.8,143.5s0,0,0,0c.3,3.4.6,6.2-1,9.5-1,2.1-2.2,2.3-3.1,2.9"/><path class="cls-1" d="M60.1,141.7c-2.1,22.7-4.3,26.1-1,38.2,0,.3.2.6.3,1"/><path class="cls-1" d="M104.8,158.7s0,0,0,0c-.8,3,1.2,14,1.3,19,0,0,0,0,0,.1"/><path class="cls-1" d="M70.1,104.9c-1.3.6-2.3,1.4-4,4-.5.8-1,1.7-1.6,2.8-2,3.7-3,7.6-3.4,11.8-.2,1.9-.3,3.5-.4,4.9-.3,4.5-.4,7.8-.5,13.2,0,.3,0,.5,0,.8"/><path class="cls-1" d="M75.6,202.1c9.5,1.9,30.6,6,37.5,6.7,1.6.2,2.4.1,2.3-.1-.1-.3-.3-.6-.3-.9-2.5-7.2,2.6-20.9,6.1-24.1,1-.9-7.9-3.8-14-5.6-.3-.1-.7-.2-1-.3-1.4-.4-2.6-.8-3.4-1.1"/><path class="cls-1" d="M70.4,200.5c1.2.5,3,1,5.2,1.6"/><path class="cls-1" d="M75.6,202.1c7.8,10.6,12.6,25.5,14.2,29.9,1.3.1,2.5.3,3.6.4,9.3.9,14.3.6,22.7-.8.5,0,.9-.2,1.4-.2-.6-8.2-1.3-11.3-4.4-22.4"/><path class="cls-1" d="M116.2,232c3.1,4.8-2.1,13.5-4.7,23.5-2.1,7.7-4.7,17-7.4,25.3-.9,2.9-1.9,5.6-2.8,8.2"/><path class="cls-1" d="M93.3,233.1c1.6,3.3,2,6,1.4,9.6-.5,3.5-1.8,7.4-2.9,10.8-2.3,6.6-1.8,15.8-1.8,24.9,0,4.5,0,9-.6,13.2"/><path class="cls-1" d="M59.2,175.8c-.1,1.4-.2,2.8-.1,4.1.3,11.7,6.6,18.2,11.3,20.6"/><path class="cls-1" d="M121.1,183.7c9.2,3.8,8.5,2.3,19.9,9.3"/><path class="cls-1" d="M115.1,207.8h0c7.6.3,8.8-1.9,19.8.2"/><path class="cls-1" d="M134.8,208c10.7,9.8,16.5,4.5,31.5,8.8,1.1.3,2.3.7,3.5,1.1,1,.4,2.1.8,3.2,1.2"/><path class="cls-1" d="M181,208.9c-3.2-1.2-6.1-2.3-8.9-3.4-10.5-4.2-19.2-8.2-31.1-12.5"/><path class="cls-1" d="M107.5,178.1c-.1,0-.3,0-.4,0-.3,0-.7-.1-1-.2-4.1-1-6.4-3.1-14.7-4.9-16.7-3.6-30.7-7-32.2,2.9"/><path class="cls-2" d="M100.9,108.7c0,.2,0,.4,0,.6-.3,2.5-.3,2-.8,3.3-.4.7-.9,1.4-1.5,2.1-2.8,3.5-6.9,6.3-10.3,5.6-3.8-.8-7.6-4.6-8.5-9.7,0-.3-.1-.7-.1-1"/><path class="cls-2" d="M109,113.8c0,0-.1,0-.2,0-2.3.6-3.8,2.2-4.8,4.3-2.5,5.4-1.6,14-1.6,16.3"/><path class="cls-1" d="M81.6,99.4c0,.1,0,.2,0,.4,0,1.1-.1,2.4-.3,3.8-.3,2-.8,4-1.4,5.6"/><path class="cls-1" d="M81.1,103.6c-.8.3-2,0-2.2.5"/><path class="cls-1" d="M112.6,98.7c-1.3,2.2-2.2,3.3-3,4.1-.5.6-1,1-1.6,1.6-2.2,2.1-4.4,4-7,4.8,0,0-.1,0-.2,0-4.4,1.2-10.1-.6-19.2-9.5-.9-.9-1.8-1.8-2.8-2.8h0"/><path class="cls-1" d="M90.8,80.5c-.2,1.7.4,3.1,1.2,3.2.9,0,1.7-1.2,1.9-2.8.2-1.7-.4-3.1-1.2-3.2-.8,0-1.7,1.2-1.9,2.8Z"/><path class="cls-1" d="M105.9,92.7c-3.3,2.1-3.4,1.7-7.4,1.1"/><path class="cls-1" d="M105.6,98.5c-5.2,1.7-14.9-1.8-15.8-2.9.9,2.1,1.4,2.8,3.4,4,1.8,1.2,4.6,2,6.4,2,3,0,4.4-.8,6-3.1Z"/><path class="cls-1" d="M112.6,98.6c1.2-1.9,2.8-4.6,3.2-7.1.5-2.6.7-5.2,1-7.9.3-2.1.6-4.2.5-6.3-.3-9.1-4.6-13.3-11.3-18.9-1-.8-10.5,1.5-16.5,7.6-2.4,2.5-5.1,4.1-6.6,8.9"/><path class="cls-1" d="M106.7,48.6s0,0,0,0c8.6,4.5,11.9,10.2,14.5,17.4,1.8,5.1,2.1,12.6,1.2,17.9-.9,5.3-2.1,10.7-3.3,15.9-1.2,5.7-3,11.8-5.1,17.4-1.4,3.8-2.9,7.4-4.5,10.4-.6,1.3-2.6.7-2.5-.7.1-4,1-8.5,1.7-13,0-.3,0-.5.1-.8.5-3.4.9-6.9.7-10.2"/><path class="cls-1" d="M70.1,104.9c.2,1.3.5,2.7.9,4,.4,1.8.9,3.5,1.4,5.2,1.4,4.5,4.2,10.9,8.3,13.2.6.3,1.3,0,1.5-.7.7-3.7-1-8.9-1.8-12.3-.3-1.3-.6-2.6-.8-3.9,0-.4-.1-.9-.2-1.3-.2-1.7-.4-3.4-.5-5.1-.1-2.4-.1-4.7,0-7.1.4-7.3,2-14.6,4.2-21.9"/><path class="cls-1" d="M69.8,103.4c0,.5.2,1,.3,1.5"/><path class="cls-1" d="M106.7,48.8c-3.1-2.4-17.1-2.1-24.7,2.6-9,5.5-11.2,16-12.4,25.6-1.2,8.9-1.2,17.8.3,26.5"/><path class="cls-1" d="M97.4,73.3c-.3.6-.9,1-1.7,1.1s-9.3-.8-9.4-1.2c-.6-1.5,3.2-2.7,4.5-2.8,1.8-.2,7.8.3,6.6,3Z"/><path class="cls-1" d="M108.4,75.1c-1-.1-1.7-.9-1.6-1.5,0-.6.9-1.2,1.8-1.3,1.2-.2,2.4-.2,3.6,0s2.4.6,3.2,1.5c.3.4.5,1,.2,1.3-.2.2-6.7.2-7.1.1Z"/><path class="cls-1" d="M109,82.5c-.2,1.7.4,3.1,1.2,3.2.9,0,1.7-1.2,1.9-2.8.2-1.7-.4-3.1-1.2-3.2-.9,0-1.7,1.2-1.9,2.8Z"/><path class="cls-2" d="M98.7,114.7c2,.8,3.8,2,5.3,3.4"/><path class="cls-2" d="M66.3,109c1.5-.4,3.1-.4,4.7,0,0,0,0,0,.1,0"/><path class="cls-1" d="M78.2,142.5c.1,0,.2-.2.3-.2.2-.1.3-.2.5-.4,1-.7,1.7-1.3,2.1-1.8.4-.5.7-1.2.7-1.9,0-.6,0-1.2-.3-1.6-.3-.5-.6-.7-1.1-.8-.7,0-1.3,0-1.8.4-.6.3-1.4,1.1-2.3,2.2l-3-3.9c1.2-1.6,2.4-2.7,3.5-3.3,1.3-.7,2.7-1,4.4-.8,2.1.3,3.6,1.1,4.5,2.5,1,1.4,1.3,3.2,1,5.4-.2,1.6-.6,3-1.3,4.1-.7,1.2-.9,1.6-2.5,2.7"/><path class="cls-1" d="M89,290.8c0,.3.2.5.4.8,1.3,2.2,5.1,4.2,7.3,3.2,1.4-.6,2.3-2,3-3.3.5-.9,1-1.7,1.6-2.5.3-.4.7-.8,1.2-1.1,1.2-.9,2.4-.9,3.4.3"/><path class="cls-1" d="M89,290.8c-1.7,3.6-2.3,9.2-3.1,13.2-.2.9-.3,1.9,0,2.8.5,1.2,1.8,2,3,2.2,11.4,2.2,24,3.5,34.6,4.7,7.6.9,22.8-7,6.7-14.5-9.7-4.5-16.7-6.6-24.4-10.9"/><path class="cls-1" d="M169.7,218c1.7,2,6.9,2.5,8.6.6,1-1.1,1.3-2.7,1.4-4.3.2-1.5.3-3.1,1.1-4.4.2-.3.4-.6.7-.8.7-.6,1.5-.8,2.5-.2"/><path class="cls-1" d="M169.7,218c-.1,4,1.6,9.4,2.5,13.3.2.9.5,1.9,1.1,2.5.9.9,2.4,1.1,3.7.8,11.4-2.6,23.3-6.5,33.5-9.6,7.4-2.3,18.1-15.6.3-16-10.7-.2-18,.7-26.7-.2"/><path class="cls-2" d="M90,278.4s0,0,0,0c4.2,2.1,9,2.9,13.6,2.3"/><path class="cls-2" d="M172.1,205.6c-3.4,2.3-5.5,6.3-5.6,10.4"/></svg>