<?xml version="1.0" encoding="UTF-8"?><svg id="latinAmerica" xmlns="http://www.w3.org/2000/svg" width="235" height="321.9" viewBox="0 0 235 321.9"><defs><style>.cls-1{stroke-linecap:round;stroke-linejoin:round;}.cls-1,.cls-2{fill:none;stroke:#000;}.cls-2{stroke-miterlimit:10;}.cls-3,.cls-4,.cls-5,.cls-6,.cls-7,.cls-8,.cls-9,.cls-10{stroke-width:0px;}.cls-4{fill:#4e7495;}.cls-5{fill:#241b1b;}.cls-6{fill:#bc8c75;}.cls-7{fill:#d8bb2b;}.cls-8{fill:#f2d949;}.cls-9{fill:#fff;}.cls-10{fill:#ecc95a;}</style></defs><path class="cls-9" d="M217.7,209.2c2.7,1.1,3.1,4.8,1.7,7.4-1.5,2.6-4.2,4.3-6.9,5.7-8.2,4.3-16.9,7.3-25.7,10.3-1,.4-2.2.7-3.2.2h-.4c-.3-5.4,3.7-16,7.2-21.7,8-.7,15.1-1.6,23.1-2.3,1.4-.1,2.9-.2,4.1.3Z"/><path class="cls-4" d="M69.2,181.4c0-1.3,0-2.7.1-4.1,1.5-10,15.7-6.6,32.6-2.9,9,2,11,4.3,15.9,5.2,4.2,1.3,9.7,3,12.5,4.3,1.3.6,62.9,24,62.6,24.3-.7.6-1.5,1.7-2.4,3.1-3.5,5.7-7.5,16.3-7.2,21.6,0,.3-55.9-22.2-57.8-22.4-.4,0-.9-.1-1.5-.2h0c-8.7-1.1-29.2-4.6-38.1-6.4-2.3-.6-4.1-1.1-5.3-1.6-4.8-2.4-11.1-8.9-11.4-20.8Z"/><path class="cls-5" d="M141.3,62c3.2,14.8-5.3,30.6-14.6,40.3-1.1,1.5-5.4,5.1-9.3,6.9-1.9.8-2.1.7-3.7-.6,4.1-1.1,8.4-6.1,8.4-6.1,8-8.7,7.7-14.9,8.3-17.1.7,2.7,1,5.9,1,7.3,2.5-1.7,4.8-7.3,5.8-10.2,3.1-8.8,5.1-13.4,4.2-20.4h0Z"/><path class="cls-5" d="M130.3,85.4c-.2-.8-.5-1.6-.8-2.2-.3-.6-.7-1.2-1.2-1.8-.7-.8-1.5-1.6-2.4-2.4-1.9-1.6-3.9-3.2-5.4-4.5-1.9-1.8-18.9-18.9-17.2-20.9-5.7,6.7-11.1,31.4-11.8,44.4-.2,2.9-.1,5.3.2,6.7-.5-.2-1-.5-1.6-.8-.1,0-.2-.1-.3-.2-4.7-3.1-12.1-10.5-13.9-14.2-3.4-7.2-2.7-20.8-.9-28.5,1.8-7.8,8.3-16.6,14.9-20.9,6.9-4.5,11.9-4.4,20.1-4.2,5.4.1,12.5,3.5,17.6,5.4,5.1,1.8,10.4,8.8,12,14,.8,2.6,1.3,4.9,1.6,7,.9,7-1.1,11.7-4.2,20.4-1,2.8-3.3,8.5-5.8,10.2,0-1.4-.3-4.6-1-7.3Z"/><path class="cls-9" d="M137.1,303.4c1.9,2.2.7,5.7-1.7,7.5-2.4,1.7-5.6,2.1-8.6,2.2-9.2.4-19.1-3.2-28.2-4.2-1.1-.1-2.3-.3-3-1.1-.5-.6-.5-1.4-.5-2.2,0-3.3.2-5.6,1-8.8,11,1.2,15.8.4,24.9-1.2,4.3,2.2,8.3,4.4,12.4,5.9,1.3.5,2.7,1,3.6,2Z"/><path class="cls-7" d="M125.9,119.4c4.3,10.7,4.4,29.5,3.9,30.1v.2c0,.7-.2,1.5-.4,2.2h-.3c-3.3-4.8-9.5-7.3-15.1-6.2-.3-2.8-.9-5.3-1-10.1h-.1c.2-4.7-.3-9.4.6-13.9.5-2.5,1.5-4.2,2.7-5.3,1.5-1.4,3.4-1.7,4.9-1.3v-.2c2.3,1.4,4.1,2.9,4.8,4.6Z"/><path class="cls-6" d="M113.6,108.7c-.2,0-.4,0-.6.1-.2,0-.5,0-.9,0-3.5,0-12.5-2.4-20.7-10.9.8-13,6.1-37.7,11.8-44.4-1.7,2,15.3,19.1,17.2,20.9,1.5,1.4,3.6,2.9,5.4,4.5-.4.4-.7,1.1-.9,1.8-.4,1.5,0,2.9,1,3.1.9.2,1.9-.9,2.3-2.5h0c.5.6.9,1.2,1.2,1.8.3.6.6,1.4.8,2.2-.6,2.3-.3,8.5-8.3,17.1,0,0-4.3,5.1-8.4,6.1ZM106.5,92.9l-.2.3c-1.6,8.4,9.5,13.1,12.4,4.9-4.8-.5-8-2.4-12.2-5.1ZM114.1,70.6c.1-.4.1-1.5.2-1.9-1.3-1.9-5.1-2.6-9.1-1.5-.5,1-.8,2-.4,3.1,3.1-.6,6.3-.5,9.3.4ZM110.8,77.5c.4-1.5-.1-2.8-1-3-.9-.2-2,.9-2.3,2.4-.4,1.5.1,2.9,1,3.1.9.2,2-.9,2.3-2.4Z"/><path class="cls-10" d="M115.4,160c-7.5,1.2-13.3-.3-23.1-1.5v-.2c-1.2-3.1-.1-6.9,2.5-9h0c.2,0,.4,0,.5-.1,8.8-1.8,7.8-.3,18.8-3.2h0c0-.1,0-.2,0-.3,5.7-1.1,11.9,1.5,15.1,6.2h.3c-.2.9-.5,1.7-.8,2.4-1.1,2.1-2.2,2.3-3.2,2.9-3.8,1.5-7.1,2.4-10.1,2.9Z"/><path class="cls-4" d="M96.1,296.7c-.4,0-.7,0-1.1-.1-.5-1.4,7-63.5,5.9-66.4-2.5-6.6-9.5-18.9-15-26.4,8.9,1.8,29.4,5.3,38.1,6.4h0c2.7,9.8,4.5,12.2,4.4,19.8,0,1.2-5.8,64.1-5.8,65.3-.5,0-1,.2-1.5.3-9.1,1.6-13.9,2.4-24.9,1.2Z"/><path class="cls-3" d="M128.2,81.4h0c-.4,1.6-1.4,2.7-2.3,2.5-.9-.2-1.3-1.6-1-3.1.2-.7.5-1.4.9-1.8.9.8,1.7,1.6,2.4,2.4Z"/><path class="cls-9" d="M121.3,114.8v.2c-1.6-.3-3.5,0-5,1.3l-.5-.4c-2.6-1.1-5.2-2.1-7.8-3.2h0c1.7-1.2,3.3-2.3,4.5-2.7h0c2,1.1,5.8,2.7,8.8,4.7Z"/><path class="cls-8" d="M69.6,131.8c0-.5.1-1,.2-1.6.4-2.3,1.1-5.3,2-8.2h0c.8-3.3,1.5-7.7,2.5-10.9.3-1,.7-1.9,1-2.7h0c4.2-1.7,8.9-2.2,13.4-1.5h.5c-.5,6.9,5.4,12.6,13.4,9.5,1.6-1,3.5-2.4,5.2-3.6h0c2.6,1.1,5.2,2.1,7.8,3.2l.5.4c-1.2,1.1-2.2,2.7-2.7,5.3-.9,4.5-.4,9.2-.6,13.8h.1c0,4.9.6,7.4,1,10.2,0,.1,0,.2,0,.3h0c-11,2.9-9.9,1.4-18.8,3.2h0c0-1.6-2.5-3.7-5.2-5.2l2.5-13.9-4.5-.8-11,15.4-.8,4.3,1.8.3h0c-1.1,3.2-1.8,6.5-1.4,7.6,1,2.7,10.8,2.4,13.5,1.4.7,0,1.4.2,2.1.2,9.8,1.2,15.6,2.7,23.1,1.5-.8,3.1,1.2,14.2,1.3,19.2.3.1.7.2,1,.3-4.9-.9-6.8-3.2-15.9-5.2-16.9-3.7-31-7-32.6,2.9-.1,1.4-.2,2.8-.1,4.1-3.5-13-1.8-24.9.4-49.6h0Z"/><path class="cls-5" d="M114.4,68.6c-.1.4-.1,1.5-.2,1.9-3-.9-6.2-1-9.3-.4-.4-1-.1-2.1.4-3.1,4-1.1,7.8-.4,9.1,1.5Z"/><path class="cls-9" d="M118.7,98c-2.8,8.2-14,3.5-12.4-4.9l.2-.3c4.2,2.8,7.4,4.6,12.2,5.1Z"/><path class="cls-6" d="M112.3,110s0,0,.1,0h0c-1.1.4-2.8,1.5-4.5,2.7h0c-1.7,1.2-3.6,2.6-5.2,3.6-7.9,3.1-13.9-2.5-13.4-9.5,0-1.1.3-2.1.7-3.2.6.4,1.1.6,1.6.8-.4-1.4-.4-3.7-.2-6.7,8.2,8.5,17.2,10.9,20.7,10.9h0c0,.3-.1.6-.2.8l.4.4Z"/><path class="cls-3" d="M109.8,74.4c.9.2,1.4,1.5,1,3-.4,1.5-1.4,2.6-2.3,2.4-.9-.2-1.4-1.6-1-3.1.4-1.5,1.4-2.5,2.3-2.4Z"/><path class="cls-6" d="M94.8,149.2h0c-2.6,2.1-3.6,5.9-2.5,9v.2c-.7,0-1.4-.2-2.1-.2-2.7,1-12.5,1.3-13.5-1.4-.4-1.1.2-4.4,1.4-7.6,1.2-3.3,2.9-6.6,4.4-7.3.4-.2,1-.3,1.7-.2.6,0,1.2.2,1.9.4,1.3.4,2.6,1,3.9,1.7,2.8,1.5,5.2,3.6,5.2,5h0c-.2.2-.3.2-.5.2Z"/><path class="cls-9" d="M92.6,130l-2.5,13.9c-1.3-.7-2.7-1.3-3.9-1.7h0c.4-2.5.8-4.2,1.1-5.5-.8,1.5-1.6,2.9-2.6,4.2l-.5.7h0c-.7,0-1.3,0-1.7.3-1.5.7-3.2,4-4.4,7.3h0l-1.8-.3.8-4.3,11-15.4,4.5.8Z"/><path class="cls-9" d="M77.5,104.6v-.3c3.2-.6,8.1-1.3,12.2-.7.1,0,.2.1.3.2-.4,1.1-.6,2.2-.7,3.2h-.5c-4.5-.7-9.2-.2-13.4,1.5h0c.9-2,1.7-3.3,2.1-3.9Z"/><path class="cls-8" d="M87.3,136.7c-.3,1.3-.7,3.1-1.1,5.4h0c-.7,0-1.3-.2-1.9-.3h0c0-.1.5-.8.5-.8,1-1.3,1.8-2.7,2.6-4.2Z"/><path class="cls-7" d="M47.9,130c0-.4-.1-.8,0-1,.1-1,13.1-15.4,13.9-16.1,4.2-3.8,7.3-6.9,12.8-8,.5-.1,1.6-.3,3-.6v.3c-.3.6-1.1,1.9-2,3.8-.3.8-.7,1.7-1,2.7-1,3.2-1.8,7.6-2.5,10.9h0c-.9,2.9-1.7,5.9-2,8.2h-.4c-4.8,4.4-11.4,8-13.9,9.8-.3-.2-.7-.4-1-.6-4.2-2.7-6.3-7.2-6.7-9.5Z"/><path class="cls-10" d="M54.6,139.4l-.5.3c-4.9,8.9-10.4,16.4-14.1,23.9h0s0,0,0,0h-.2c-2.6-.9-6.1-.1-8.1,1.8h-.1c2.8-12.4,8.8-31.4,16.4-35.4.4,2.2,2.5,6.8,6.7,9.5Z"/><path class="cls-6" d="M40,163.7c2.4.9,4.7,9.7,3.1,11.7-1.7,2.1-11.6,3-13.3,1.9-2-1.3.2-9.2,1.5-11.2,0-.2,0-.4.1-.6h.1c2-1.9,5.5-2.7,8.1-1.9h.2c0,.2,0,.2,0,.2Z"/><path class="cls-1" d="M69.5,130.2c-4.8,4.4-11.4,8-13.9,9.9-.3-.2-.7-.4-1-.6-4.2-2.7-6.3-7.2-6.7-9.5,0-.4-.1-.8,0-1,.1-1,13.1-15.4,13.9-16.1,4.2-3.8,7.3-6.9,12.8-8,.5-.1,1.6-.3,3-.6,3.2-.6,8.2-1.3,12.3-.7.1,0,.2,0,.3,0"/><path class="cls-1" d="M48.1,129.9c0,0-.1,0-.2.1-7.5,4.1-13.6,23-16.4,35.4,0,.2,0,.4-.1.6"/><path class="cls-1" d="M54.1,139.7c-4.9,8.9-10.4,16.4-14.1,23.9"/><path class="cls-1" d="M39.9,163.6s0,0,0,0c2.4.9,4.7,9.7,3.1,11.7-1.7,2.1-11.6,3-13.3,1.9-2-1.3.2-9.2,1.5-11.2"/><path class="cls-1" d="M129.8,149.4c.5-.5.4-19.3-3.9-30.1-.7-1.6-2.5-3.2-4.6-4.6-3.1-2-6.8-3.6-8.8-4.8,0,0,0,0-.1,0"/><path class="cls-1" d="M113.1,135.5c0,4.8.6,7.3,1,10.1,0,.1,0,.2,0,.3"/><path class="cls-1" d="M125.5,157.2c-3.8,1.5-7.1,2.4-10.1,2.9-7.5,1.2-13.3-.3-23.1-1.5-.7,0-1.4-.2-2.1-.2"/><path class="cls-1" d="M114.6,145.8c-.2,0-.3,0-.5.1-11,2.9-9.9,1.3-18.8,3.2-.2,0-.3,0-.5.1,0,0-.1,0-.2,0"/><path class="cls-1" d="M95.3,149c0-1.5-2.5-3.5-5.2-5-1.3-.7-2.7-1.3-3.9-1.7-.7-.2-1.3-.4-1.9-.4-.7,0-1.3,0-1.7.2-1.5.7-3.2,4-4.4,7.3-1.1,3.2-1.8,6.5-1.4,7.6,1,2.7,10.8,2.4,13.5,1.4"/><path class="cls-1" d="M129.8,149.7c0,.7-.2,1.5-.4,2.2-.2.9-.5,1.7-.8,2.4-1.1,2.1-2.2,2.3-3.2,2.9"/><path class="cls-1" d="M69.6,131.8c-2.2,24.7-3.8,36.6-.4,49.6,0,.3.2.6.3.9"/><path class="cls-1" d="M115.4,160s0,0,0,0c-.8,3.1,1.2,14.2,1.3,19.2h0"/><path class="cls-1" d="M124,210.2c.5,0,1,.1,1.5.2,1.9.2,57.8,22.7,57.8,22.4-.3-5.3,3.7-15.9,7.2-21.6.8-1.4,1.6-2.4,2.4-3.1.3-.3-61.2-23.7-62.6-24.3-2.8-1.3-8.3-3-12.5-4.3-.4-.1-.7-.2-1-.3-1.4-.4-2.6-.8-3.4-1.1"/><path class="cls-1" d="M85.9,203.8c8.9,1.8,29.4,5.3,38.1,6.4"/><path class="cls-1" d="M80.7,202.2c1.2.5,3,1,5.3,1.6"/><path class="cls-1" d="M85.9,203.8c5.5,7.5,12.5,19.7,15,26.4,1.1,2.9-6.4,65-5.9,66.4.4,0,.8,0,1.1.1,11,1.2,15.8.4,24.9-1.2.5,0,1-.2,1.5-.3,0-1.2,5.8-64.1,5.8-65.3,0-7.6-1.7-10-4.4-19.8h0"/><path class="cls-1" d="M69.3,177.3c-.1,1.4-.2,2.8-.1,4.1.3,11.9,6.7,18.4,11.4,20.8"/><path class="cls-1" d="M183.7,232.9c.9.5,2.1.1,3.2-.2,8.7-3,17.5-6,25.7-10.3,2.7-1.4,5.4-3.1,6.9-5.7,1.4-2.6,1-6.3-1.7-7.4-1.2-.5-2.7-.4-4.1-.3-8,.7-15.1,1.6-23.1,2.3"/><path class="cls-1" d="M118.2,179.6c-.1,0-.2,0-.4,0-4.9-.9-6.8-3.2-15.9-5.2-16.9-3.7-31-7-32.6,2.9"/><path class="cls-2" d="M69.6,132.5c0-.2,0-.4,0-.7,0-.5.1-1,.2-1.6.4-2.3,1.1-5.3,2-8.2"/><path class="cls-1" d="M96.1,296.7h0c-.8,3.2-1,5.6-1,8.9,0,.8,0,1.6.5,2.2.6.8,1.9,1,3,1.1,9.1,1,19,4.7,28.2,4.2,3-.1,6.2-.5,8.6-2.2,2.4-1.7,3.6-5.3,1.7-7.5-.9-1-2.3-1.5-3.6-2-4.1-1.5-8.1-3.6-12.4-5.9"/><path class="cls-1" d="M112.4,110.1c-1.1.4-2.8,1.5-4.5,2.7h0c-1.7,1.2-3.6,2.6-5.2,3.6-7.9,3.1-13.9-2.5-13.4-9.5,0-1.1.3-2.1.7-3.2,0,0,0,0,0,0"/><path class="cls-1" d="M113.9,145.6s0,0,.1,0c5.7-1.1,11.9,1.5,15.1,6.2"/><path class="cls-2" d="M39.7,163.5c-2.6-.8-6.1,0-8.1,1.9"/><path class="cls-2" d="M94.8,149.2c-2.6,2.1-3.6,5.9-2.5,9"/><path class="cls-1" d="M121.1,115c-1.5-.3-3.4,0-4.9,1.3-1.2,1.1-2.2,2.7-2.7,5.3-.9,4.5-.4,9.2-.6,13.8"/><path class="cls-1" d="M77.6,104.4s0,0,0,.1c-.3.6-1.2,1.9-2.1,3.8-.3.8-.7,1.7-1,2.7-1,3.2-1.8,7.6-2.5,10.9,0,0,0,.1,0,.2"/><path class="cls-1" d="M113,108.8c-.2,0-.5,0-.9,0-3.5,0-12.5-2.4-20.7-10.9-.1-.1-.3-.3-.4-.4"/><path class="cls-1" d="M130.3,85.2s0,0,0,.1c-.6,2.3-.3,8.5-8.3,17.1,0,0-4.3,5.1-8.4,6.1-.2,0-.4,0-.6.1"/><path class="cls-1" d="M114.4,68.6c-1.3-1.9-5.1-2.6-9.1-1.5-.5,1-.8,2-.4,3.1,3.1-.6,6.3-.5,9.3.4.1-.4.1-1.5.2-1.9Z"/><path class="cls-1" d="M122.4,90.4c-1,2.7-6.8,3.2-8.1,1.6"/><path class="cls-1" d="M126.2,78.5c-.2.1-.3.3-.5.4-.4.4-.7,1.1-.9,1.8-.4,1.5,0,2.9,1,3.1.9.2,1.9-.9,2.3-2.5"/><path class="cls-1" d="M107.4,76.8c-.4,1.5.1,2.9,1,3.1.9.2,2-.9,2.3-2.4.4-1.5-.1-2.8-1-3-.9-.2-2,.9-2.3,2.4Z"/><path class="cls-1" d="M118.7,98c-4.8-.5-8-2.4-12.2-5.1-.3-.2-.6-.4-.9-.6"/><path class="cls-1" d="M118.7,98c-2.8,8.2-14,3.5-12.4-4.9"/><path class="cls-1" d="M89.7,103.5c-4.7-3.1-12.1-10.5-13.9-14.2-3.4-7.2-2.7-20.8-.9-28.5,1.8-7.8,8.3-16.6,14.9-20.9,6.9-4.5,11.9-4.4,20.1-4.2,5.4.1,12.5,3.5,17.6,5.4,5.1,1.8,10.4,8.8,12,14,.8,2.6,1.3,4.9,1.6,7,.9,7-1.1,11.7-4.2,20.4-1,2.8-3.3,8.5-5.8,10.2,0-1.4-.3-4.6-1-7.3-.2-.8-.5-1.6-.8-2.2-.3-.6-.7-1.2-1.2-1.8-.7-.8-1.5-1.6-2.4-2.4-1.9-1.6-3.9-3.2-5.4-4.5-1.9-1.8-18.9-18.9-17.2-20.9-5.7,6.7-11.1,31.4-11.8,44.4-.2,2.9-.1,5.3.2,6.7-.5-.2-1-.5-1.6-.8-.1,0-.2-.1-.3-.2Z"/><path class="cls-1" d="M113.6,108.7h0c1.6,1.3,1.8,1.4,3.7.6,4-1.8,8.2-5.4,9.3-6.9,9.3-9.7,17.8-25.5,14.6-40.3"/><path class="cls-1" d="M111.9,109.6c0-.2.1-.5.2-.7"/><path class="cls-1" d="M75.5,108.4c4.2-1.7,8.9-2.2,13.4-1.5"/><path class="cls-1" d="M108,112.8c2.6,1.1,5.2,2.1,7.8,3.2"/><polyline class="cls-1" points="78.1 149.3 76.3 149 77.1 144.6 88.1 129.2 92.6 130 90.1 143.9 90 144.3"/><path class="cls-1" d="M86.2,142.1c.4-2.3.8-4.1,1.1-5.4-.8,1.5-1.6,2.9-2.6,4.2l-.5.7"/></svg>