<?xml version="1.0" encoding="UTF-8"?><svg id="latinAmerica" xmlns="http://www.w3.org/2000/svg" width="235" height="321.9" viewBox="0 0 235 321.9"><defs><style>.cls-1{fill:#2e1617;}.cls-1,.cls-2,.cls-3,.cls-4,.cls-5,.cls-6,.cls-7,.cls-8,.cls-9,.cls-10,.cls-11{stroke:#000;stroke-linecap:round;stroke-linejoin:round;}.cls-2{fill:#c95f80;}.cls-3{fill:#d2809b;}.cls-4{fill:#90a5c8;}.cls-5{fill:#b62026;}.cls-6{fill:#8ab0d2;}.cls-7{fill:#875239;}.cls-8{fill:#d14752;}.cls-9{fill:#fff;}.cls-10{fill:none;}</style></defs><path class="cls-9" d="M39.9,93.6l-.2.3c-.8-.6-2.4-1.3-3.4-1.5,1.1-1,2.2-1.6,3.2-1.7-.2.8-.2,1.6,0,2.3,0,.2.2.4.4.6Z"/><path class="cls-5" d="M40.9,112.9c-.4.9-2.2,4.6-4.1,8.6-.9,1.9-1.9,3.8-2.7,5.5h-.3c-1.8-2.8-4.5-4.9-7.4-5.8h0c-.9-.3-1.8-.5-2.7-.5-.9,0-1.8,0-2.7.2,3.8-10.1,10-23.7,15.3-28.4,1,.2,2.6.9,3.4,1.5,0,0,.2.1.2.2,2.1,1.6,3.6,4.2,3.9,6.9.5,3.9-1.3,7.9-2.9,11.9Z"/><path class="cls-4" d="M107.9,275.2c-5,1.9-9.9,2.1-15,.8h-.1c-.6-8.1-2-16.2-4-23.2-.9-3.1-1.8-14.5-1.2-17.7.5-2.7-.8-5.5-.8-5.5-2.1-4.9-16.5-26.4-20.5-34.8-.7,6.1-1.4,12.3-2.7,19.3,0,0,0,0,0,0-.7,5.7-1.2,11.7-3.2,17-5.3,13.9-10.7,26.4-21.8,42.8h-.1c-5.3-1.2-10-3.7-14-7.3,2.6-9.5,5.3-18.7,9.4-26.3,1.5-2.8,3.4-5.5,4.5-8.5,1.8-5.2-.5-14-1.4-19.5h.1c-2.5-13.3-4.1-30.8-2.7-44.1h.8c4.2,3.2,24.5,2.3,30.3,2.8,7,.6,14.9-1.2,20.3-4.2v.3c4.9,6.1,11.9,20.9,16.4,32.6,3.7,9.7,6.3,18.3,6.3,20.8.2,16.2.8,36.8-.5,54.6Z"/><path class="cls-2" d="M44.6,144h0c-2.3,2.3-4.6,4.8-5.7,7.8l-.4-.2c-4.1-2.4-17.1-12.1-16.7-16.9.3-4.8,2.5-8.9,4.5-13.3v-.3c3,.9,5.7,3.1,7.5,5.7h.3c-1.4,3-2.6,5.4-2.9,5.9,1.8,1.2,2.9,2.1,5.6,4.8.2.2.4.4.6.6,0,0,.1.1.2.2,1.8,1.6,4.3,3.6,7,5.5Z"/><path class="cls-7" d="M64,156.5c.4.5.6.9.7,1.3.3,1.2-.5,2.3-1.3,2.7,1.8,1.2,0,3-1.1,3.3,1.7,4.1-6.7,2-8.5,1-2.6-1.3-7.6-5-7.3-8.1h0c1.2-3,2.8-5.7,4.8-8.1v-.3s0,0,0,0h0c3.8,0,10.6-2.2,11.3,2.8,2.5,1.4,5,3.2,1.3,5.4Z"/><line class="cls-10" x1="64.8" y1="157.8" x2="64.7" y2="157.8"/><line class="cls-10" x1="51.1" y1="148.3" x2="51" y2="148.4"/><line class="cls-10" x1="31.2" y1="132.9" x2="31.2" y2="132.9"/><path class="cls-9" d="M38.9,151.8c-.2.7-.4,1.4-.5,2.1-.5-.3-1.1-.6-1.6-.9h0c-2.1-1.2-4.1-2.4-5.6-3.3-2.7-1.7-6.5-4.8-9.5-8.2h0c-3-3.4-3.4-6.2-2.3-10.2,1.5-5.1,2.4-6.5,4.2-10.4v-.2c.9,0,1.8.2,2.7.5h0s-.1.3-.1.3c-2,4.3-4.2,8.5-4.5,13.3-.3,4.8,12.6,14.5,16.7,16.9l.4.2Z"/><path class="cls-10" d="M45.8,158.7s0,0,0,0"/><path class="cls-10" d="M39.5,90.7s0,0,0,0"/><path class="cls-10" d="M31.2,132.9c-.9-.6-2-1.3-3.6-2.4"/><path class="cls-10" d="M51.8,148.5c-.1,0-.3-.1-.4-.2"/><path class="cls-10" d="M62.7,151.1c-1.1-.6-2.2-1.1-2.8-1.5"/><path class="cls-10" d="M62.8,151.2s0,0,0,0"/><path class="cls-10" d="M51.1,148.3h.2"/><path class="cls-2" d="M100.4,143.3h0c-3.3,1.6-5.6,5.3-5.4,9v.3c-5.2-2.5-11-5.3-12.6-6.2h-.4c-.7-4-1.3-8.1-1.4-11.9-.1-3.3-.5-3.2-.3-6,1.1.3,2.3.3,3.5,0h.1c-.3,1.5-.6,3.1-1,4.6,2.3,1.4,3.5,1.8,6.5,3.8,2.5,1.7,7,4.1,11.1,6.4Z"/><path class="cls-3" d="M101.5,153.4c0,.8,0,1.7.3,2.5h-.3c-1.5-.7-4-1.9-6.8-3.3v-.3c0-3.7,2.2-7.4,5.6-9h0c2,1.1,3.9,2.2,5.5,3.1-3,1.5-4,3.7-4.3,6.9Z"/><path class="cls-5" d="M83.8,128.4h-.1c-1.1.3-2.3.3-3.5,0,0-.8.2-1.9.3-3.5,1-8.6,1.5-17.6-1-25.9-.4-1.3-.8-2.6-1.3-3.9-.5-1.2-1-2.5-1.7-3.6,3.1,1.5,6.8,4.3,7.5,9.3,1.3,9.6,1.4,18.3-.3,27.5Z"/><path class="cls-7" d="M118,152.5c0,4-2.4,8.6-6.8,9.5-4.2.9-8.3-2.3-9.4-6.1-.2-.8-.3-1.7-.3-2.5.3-3.2,1.3-5.5,4.3-6.9,1.4-.7,3.2-1.2,5.5-1.6,2-.4,4.2.7,5.3,2.3,1.1,1.6,1.5,3.5,1.4,5.3Z"/><path class="cls-10" d="M68.6,176.9c-1,6.4-1.6,12.1-2.2,18"/><path class="cls-10" d="M63.6,214.2l-.2.9"/><path class="cls-10" d="M37.5,214.4c-.1-.6-.3-1.3-.4-2"/><path class="cls-7" d="M38.6,274.1c-1.9,2.8-3.9,5.6-6.1,8.7-4.1,0-8.2-2-10.8-5.2h-.2c1-3.6,2-7.2,3-10.8,3.9,3.7,8.7,6.1,14,7.2h.1Z"/><path class="cls-10" d="M19.3,285.1c0,.1,0,.2-.1.4"/><path class="cls-10" d="M63.6,213.7c0,.2,0,.3,0,.5"/><path class="cls-10" d="M76.6,91.5c0,0,0,0,0-.1"/><path class="cls-8" d="M81.9,146.4h0c-.7-4-1.3-8.1-1.4-12-.1-3.3-.5-3.2-.3-6,0-.8.2-1.9.3-3.5,1-8.6,1.5-17.6-1-25.9-.4-1.3-.8-2.6-1.3-3.9-1.3-.4-3.3-.2-4.9.1h0c-.9.4-2,.6-2.7,1.2-3.1,2.5-12.8,2.6-18.8.2-2.1-.9-9.4-1.1-11.7-2.8,0,0-.2-.1-.2-.2l-.2.3c0,0,.2.1.2.2,2.1,1.6,3.6,4.2,3.9,6.9.5,3.9-1.3,7.9-2.9,11.9-.4.9-2.2,4.6-4.1,8.6h0c1.2,6.2,1.3,6.9,1,16.7l-.2.3c1.8,1.6,4.3,3.6,7,5.5,2.3,1.6,4.6,3.1,6.8,4.2h0c3.8,0,10.6-2.2,11.3,2.8,2.5,1.4,5,3.2,1.3,5.4.4.5.6.9.7,1.3.3,1.2-.5,2.3-1.3,2.7,1.8,1.2,0,3-1.1,3.3,1.7,4.1-6.7,2-8.5,1-2.6-1.3-7.6-5-7.3-8.1h0c-.2.6-.4,1.1-.6,1.7v.2c-2-1.4-4.8-3.1-7.5-4.7-.5-.3-1.1-.6-1.6-.9l-.2.4c-.7,4.6-.9,7.7-1.6,11.3-.2,1.2-.4,2.4-.5,3.7h.8c4.2,3.2,24.5,2.3,30.3,2.8,7,.6,14.9-1.2,20.3-4.2.1,0,.3-.1.4-.2-.6-3.8-2.8-11.8-4.2-20.3ZM69,133c-1.4,1.4-3.3,2.1-5.7,2-3,0-5.4-1.8-7.3-5.2l3.7-3.2c1.1,2.1,2.3,3.1,3.7,3.2,1.6,0,2.4-1,2.5-3,0-1.3-.2-2.2-.6-2.7-.4-.5-1.2-.8-2.2-.8h-1.9s.1-5,.1-5h1.9c1.5,0,2.3-.9,2.3-2.8,0-1.7-.6-2.5-1.9-2.6-1.2,0-2.4.8-3.6,2.6l-3.3-3.5c1.9-2.9,4.3-4.3,7.1-4.3,2.2,0,3.9.7,5.1,1.9,1.2,1.2,1.8,2.9,1.8,5.1,0,2.8-1,4.7-2.9,5.8,2.2.8,3.3,3,3.2,6.3,0,2.7-.8,4.8-2.1,6.1Z"/><path class="cls-7" d="M85.8,72.9c-2.1-.4-3.6-.8-5.5-1.2-1.3-.3-2.5-2-2.3-3.7.1-1.2.3-2.3.4-3.4h-.2s0,0,0,0c-1.6-.3-1.6-.3-4.6-1.1h-.3c-.3,1.1-.7,2.2-1,3.4-.5,1.6-2.5,2.7-4.1,2.5-2.3-.3-4.2-.6-6.7-1.1-2.5-.5-4.1-2.9-3.8-5.5.2-1.3.3-2.4.4-3.5h0c-1.4,0-5-.9-8.1-.7-1,0-2,.2-2.7.6-.8.5-1.4,1.2-1.6,2.1-.7,2.6,2,7.1,4.5,6.6.5,4.4,1.5,7.4,3.4,11,.2.5.5.9.8,1.4h0c5.6,5.8,10.1,8.4,13.9,8.8,1.5.2,3,0,4.3-.4h0c2.2-.7,4.1-2,6-3.8,1.8-1.7,4.5-4.6,7.6-10.6.2-.4.4-.9.6-1.3-.3,0-.7,0-1,0ZM72,82.4c-1.6,0-4-1.1-5.3-2.4-1.3-1.3-1.3-.6-2.7-4,.7,1.1,8.7,4.7,13.3,3.2-1.4,2.1-2.8,3.2-5.3,3.2Z"/><path class="cls-10" d="M54.4,80.2c-.1-.1-.3-.3-.4-.4"/><path class="cls-10" d="M90,56.3c0,.4,0,.7-.1,1"/><path class="cls-7" d="M64,96c-2.7.9-6-1.3-8.2-2.4-2.5-1.3-2-3.3-3.4-5.7.2-1,.4-2.7.6-4.5h0c.2-1.6.3-3.2.5-4.6.2.5.5.9.8,1.4h0c5.6,5.8,10.1,8.4,13.9,8.8v.7c1.1,2.6-1.6,5.3-4.2,6.2Z"/><path class="cls-10" d="M53.6,78.7s0,0,0,0"/><path class="cls-10" d="M78.4,72.5c.2,3.8-3.5,2-6.3,1.9"/><path class="cls-9" d="M77.3,79.2c-1.4,2.1-2.8,3.2-5.3,3.2-1.6,0-4-1.1-5.3-2.4-1.3-1.3-1.3-.6-2.7-4,.7,1.1,8.7,4.7,13.3,3.2Z"/><path class="cls-10" d="M54.4,80.3s0,0,0,0"/><path class="cls-10" d="M51.8,59.4c-.5-.5-1.1-.7-1.7-.8"/><path class="cls-1" d="M72.8,53.8c0,.1-.2.3-.4.4-4.1-1.5-8.4-2.1-12.8-1.5h0c0,0,.1-.2.2-.2.4-.2.8-.4,1.2-.6,1-.5,2.5-.7,4-.7,2.2,0,9.2.7,7.9,2.7Z"/><path class="cls-1" d="M87.7,56.9c-2.2-.8-4.5-1.1-6.9-1l-1,.2c0-.1,0-.3,0-.4.1-.6.9-1.1,1.7-1.3,2.2-.4,4.5.8,5.9,2.1.1.1.2.2.3.4Z"/><path class="cls-9" d="M32.5,282.7c-.1.2-.3.3-.4.5-1.4.6-2.4,1.9-3.5,3-.8.9-6.6.3-9.3-1.2.8-2.5,1.5-5,2.2-7.5h.2c2.6,3.2,6.6,5.2,10.8,5.2Z"/><path class="cls-6" d="M43.3,314.7c-10.1-2.3-15.4-5.5-30.7-16.1-1-.7-2.2-1.4-2.5-2.6-.2-.9.1-1.8.5-2.6,1.5-3.6,4.8-6.8,7.1-10,0,.6.6,1.1,1.4,1.6,2.8,1.5,8.5,2.1,9.3,1.2,1-1.2,2-2.4,3.5-3,1.4-.6,2.1-.6,2.9.8,6.3,12.5,6.2,13.8,15.8,19.4,1.3.8,3.1,1.2,3.4,2.8,1.7,7.8-4.4,9.9-10.8,8.5Z"/><path class="cls-10" d="M72.6,88.7c-.1,0-.2-.1-.4-.2"/><path class="cls-9" d="M78.3,95.1c-1.3-.4-3.3-.2-4.9.1.7-.3,1.3-.6,1.6-1.2.4-.7.7-1.9.1-3.1h0c.5.1.9.3,1.4.6h0c.7,1.1,1.2,2.3,1.7,3.6Z"/><path class="cls-2" d="M74.9,94c-.3.6-.9.9-1.6,1.2h0c-.9.4-2,.6-2.7,1.2-3.1,2.5-12.8,2.6-18.8.2-2.1-.9-9.4-1.1-11.7-2.8,0,0-.2-.1-.2-.2-.2-.2-.4-.4-.4-.6-.2-.7-.2-1.5,0-2.3.5-2.1,2.3-4.4,4.2-5.2,2.6-1.2,6.5-2.4,9.3-2.2h.1c-.2,1.8-.4,3.4-.6,4.5,1.5,2.4,1,4.4,3.4,5.7,2.1,1.1,5.5,3.3,8.2,2.4,2.7-.9,5.3-3.6,4.1-6.2v-.7c1.6.2,3,0,4.4-.4h0c1.4.7,2.1,1.5,2.5,2.3.6,1.2.3,2.4-.1,3.1Z"/><path class="cls-3" d="M51.3,148.3v.3c-2,2.4-3.7,5.2-4.8,8.1-.2.6-.4,1.1-.6,1.7v.2c-2-1.4-4.8-3.1-7.5-4.7,0-.7.3-1.4.5-2.1,1.1-3,3.3-5.6,5.7-7.8h0c2.3,1.5,4.6,3,6.8,4.2,0,0,0,0,0,0Z"/><path class="cls-10" d="M38.3,153.9s0,0,0,0"/><path class="cls-10" d="M23.3,143.1c-.6-.6-1.1-1.1-1.6-1.6"/><path class="cls-10" d="M66.3,194.8c0-.2-.1-.3-.2-.5"/><line class="cls-10" x1="93.1" y1="292" x2="93.1" y2="292"/><path class="cls-10" d="M93.2,291c0,.3,0,.7,0,1"/><path class="cls-7" d="M107.9,275.2c-.3,3.8-.6,7.6-1.1,11.1h0c-4.3,1.5-8.3,1.8-13.4.9h-.2c0-3.6-.1-7.4-.4-11.2h.1c5.1,1.3,9.9,1.1,15-.8Z"/><path class="cls-9" d="M106.8,286.3c0,.5-.1,1.1-.2,1.6-1.2.9-1.9,2.3-2.6,3.6-.7,1.3-1.5,2.6-2.9,3.4-2.3,1.2-6.8-.6-8-2.8h0c0-.3,0-.7,0-1h0c0-.3,0-.6,0-.8,0-1,0-1.9,0-2.9h.2c5.1.9,9,.6,13.4-.9h0Z"/><line class="cls-10" x1="93.1" y1="292" x2="93.1" y2="292"/><line class="cls-10" x1="93.1" y1="292" x2="93.1" y2="292"/><path class="cls-6" d="M134,312.6c-3.2,1.6-7,1.5-10.6,1.1-11-1.1-19.5-3.8-30.1-6.5-1.3-.3-2.7-.8-3.3-1.8-.5-.8-.4-1.7-.2-2.6.6-3.8,1.6-7.5,3.2-11.1h.1c0,0,0,.2.1.2h0v.2c0,0,0-.1,0-.2,1.2,2.2,5.6,4,8,2.8,1.4-.7,2.2-2,2.9-3.4.7-1.3,1.4-2.7,2.6-3.6,1.2-.9,2.4-1,3.5,0h.1c8.5,4.6,14.7,9,23.2,13.5,1.5.8,3,1.6,3.9,3,1.9,2.8-.1,6.7-3.3,8.3Z"/><path class="cls-10" d="M32.6,282.7h-.1"/><path class="cls-10" d="M24.5,266.7s0,0,0,0"/><line class="cls-10" x1="107.9" y1="275.2" x2="107.9" y2="275.2"/><path class="cls-1" d="M70,39.5h0c-1.2.2-1.7.4-3,.9h0c-.3-.6-.7-1.1-.9-1.5-1.1-2-3.1-4.6-5-6.4,1.3-.6,2-.8,3.4-1.2.2.4.6.8.9,1.1.9.8,2.7,2.6,3.3,3.6.6.8.8,1.9,1.1,2.9,0,.2,0,.3.2.5Z"/><line class="cls-10" x1="77.2" y1="39.4" x2="77.2" y2="39.4"/><path class="cls-1" d="M92.6,51.3c-.8-.2-1.9.9-2.7,2.2-.4-1.2-.6-1.9-1.2-3.2h0c1.3-.3,2.5-1,3.3-2,.3,1.1.4,1.9.6,3Z"/><path class="cls-10" d="M89.4,41.9s0,0,0,0"/><path class="cls-10" d="M61.2,32.5c0,0-.2,0-.3.1"/><path class="cls-10" d="M50.9,40.2s0,0,0,0"/><path class="cls-10" d="M47.4,47.5s0,0,0,0"/><path class="cls-1" d="M81.2,41.1c0,.3,0,.6,0,1-.5.7-.8,1-1.7,1.2-.6.1-1.3,0-1.8-.5-.9-.9-.6-2.1-.5-3.3,0-.4,0-.7,0-1.1,0-1.3-.7-2.5-1.5-3.5-.8-1-1.8-1.9-2.6-2.9,0-.1-.2-.2-.2-.3h0c-.3-.5-.6-1.2-.3-1.8.3-.6,1-.8,1.7-.8.2,0,.4,0,.5,0,2.3.3,4.4,2.1,5.4,4.4.7,1.5,1,3.1,1,4.7,0,.9,0,1,0,2.8Z"/><path class="cls-1" d="M60.8,47.8c-.6,0-1.2-.3-1.8-.8-.2-.1-.3-.3-.5-.4-1.9-1.7-4.3-3.2-6.3-4.9-.3-.2-1-1-1.5-1.6-.2-.2-.3-.5-.4-.6-.4-.9-.3-2.2.3-3,.1-.2.3-.3.5-.4,1.1-.6,3.3.4,4.4,1.1,0,0,.1,0,.2.1.7.5,3.6,3.9,5.2,6.7,1.1,2,1.5,3.7-.2,3.7Z"/><path class="cls-1" d="M74,39.1c0,.8-.1,1.6-.2,2.4,0,0,0,.1,0,.2-.7.7-1.8.7-2.5,0-.6-.6-.9-1.4-1.2-2.2,0-.2-.1-.3-.2-.5-.3-1-.5-2.1-1.1-2.9-.7-1-2.5-2.8-3.3-3.6-.3-.3-.7-.7-.9-1.1-.4-.7-.5-1.4-.3-2.2.4-1.1,1.6-1.6,2.6-1.4s2.6,2.2,3.2,3.1c.2.3.3.6.5.8.4.7.7,1.4,1.1,2.1.7,1.2,1.5,2.3,2,3.6.2.6.3,1.1.3,1.7Z"/><path class="cls-1" d="M59.1,47.1c-.4.7-.5.9-1,1.6h0c-2.3-2.4-7.4-5.2-8.1-5.4-.3-.1-.6-.2-.9-.3.5-1,1-1.8,1.6-2.8.5.6,1.2,1.3,1.5,1.6,1.9,1.7,4.3,3.2,6.3,4.9.2.1.3.3.5.4Z"/><path class="cls-1" d="M58.2,51.9c-.5.2-1.1.2-1.7.2,0,0-.1,0-.2,0-2.3-.3-6.4-2.9-8.4-4.2-.2-.1-.4-.2-.5-.3-.2-.1-.4-.3-.6-.7-.4-.6-.5-.8-.3-1.5.2-.9.6-2.3,1.4-2.5.5,0,.9,0,1.4,0,.3,0,.6.2.9.3.7.3,5.8,3,8.1,5.5,1.2,1.3,1.6,2.5,0,3.2Z"/><path class="cls-1" d="M83.3,42.3c0,.1,0,.2,0,.3-.7-.6-1.1-1-1.9-1.5h0c0-1.8,0-1.9,0-2.8,0-1.6-.3-3.2-1-4.7,1,.5,1.4.7,2,1,0,.9.5,1.8.8,2.6.6,1.6.6,3.3.2,5Z"/><path class="cls-1" d="M87.2,41.2c0,1,0,2.1-.5,3.1-.2.4-.5.8-.9,1.1-.4.4-1,.6-1.5.5-2.1-.1-1.5-2-1.1-3.4,0-.1,0-.2,0-.3.4-1.7.4-3.4-.2-5-.3-.9-.7-1.7-.8-2.6,0-.9.5-.9,1.4-1.2.6-.2,1.2,0,1.6.5.4.5.7,1.1.9,1.7.4,1.1.6,1.9.8,2.8.1.8.2,1.7.2,2.9Z"/><path class="cls-1" d="M89.4,41.8s0,0,0,0c0,.3-1.2,4.1-1.5,6.5h0c-.7-1.2-1.2-1.9-2-3h0c.4-.3.7-.7.9-1.1.5-.9.5-2,.5-3.1,0-1.1,0-2-.2-2.9.2.2.8.9,1,1.1.8.9.9,1.4,1.5,2.4Z"/><path class="cls-1" d="M92.8,47c-.2.5-.4.9-.8,1.3-.8,1-2,1.7-3.3,2-.2,0-.3,0-.5,0-.5,0-.6-.8-.4-1.9.3-2.4,1.4-6.2,1.5-6.5,0,0,0,0,0,0,0-.2.2-.5.4-.6.5-.4,1.3,0,1.8.5,1.4,1.4,1.9,3.5,1.3,5.3Z"/><path class="cls-1" d="M93.6,54.4c0,2.8-1.2,3.4-2.1,3.8-.8.3-1.2-.2-1.6-.9-.2-.3-.3-.7-.4-1.1-.3-.8,0-1.8.5-2.7h0c.7-1.3,1.9-2.3,2.7-2.2.2,0,.4.2.5.4.4.6.4,2,.4,2.7Z"/><path class="cls-1" d="M54.7,53.4c-2.1.5-4.5,1.3-6.3,2.5-1,.1-2,.2-2.7-.3-1.1-.8-1.1-2.4-.5-3.7.4-.8.9-1.3,1.5-1.4.2,0,.4,0,.6,0,.9,0,5.4,1.7,7.4,3.1Z"/><path class="cls-1" d="M63.5,41.7c-.9.5-1.5,1.1-2.6,2.4-1.5-2.8-4.4-6.1-5.2-6.7,0,0-.1,0-.2-.1h0c.8-.9,1.2-1.3,2.1-2h0c.6.9,1.2,1.7,1.7,2.2,1.1,1.2,2.8,3.1,4,4.1Z"/><path class="cls-1" d="M67.3,42.3c-.8,1.4-3,0-3.7-.6-1.3-1-2.9-2.9-4-4.1-.5-.5-1.1-1.4-1.7-2.2-.5-.8-1-1.7-1.2-2.4-.2-.9.3-1.5,1.1-1.9.7-.4,1.6,0,2.3.6.3.2.7.5,1,.9,1.9,1.7,3.8,4.4,5,6.4.2.4.6.9.9,1.5.3.7.5,1.4.3,1.9Z"/><path class="cls-1" d="M77.3,38.4c0,.3,0,.7,0,1.1-.3,0-.3,0-.7-.1-1-.1-1.7-.2-2.5-.2h0c0-.6,0-1.2-.3-1.7-.5-1.3-1.3-2.4-2-3.6-.4-.7-.7-1.4-1.1-2.1,1.2,0,1.2-.1,2.3,0h0c0,.1.1.2.2.3.8,1,1.7,1.9,2.6,2.9.8,1,1.5,2.2,1.5,3.5Z"/><path class="cls-1" d="M75,28.8v.3c-.2,0-.4,0-.6,0-.6,0-1.4.1-1.7.8-.3.6,0,1.2.3,1.8-1.2-.1-1.2,0-2.3,0-.2-.3-.3-.6-.5-.8-.6-.9-2.2-2.9-3.2-3.1s-2.2.4-2.6,1.4c-.3.7,0,1.5.3,2.2-1.4.4-2.1.5-3.4,1.2-.3-.3-.7-.6-1-.9-.7-.5-1.6-.9-2.3-.6-.8.4-1.4,1-1.1,1.9.2.6.6,1.5,1.2,2.4h0c-.9.7-1.3,1.1-2.1,1.9h0c-1.1-.7-3.3-1.7-4.4-1.1-.2.1-.4.3-.5.4-1.4-4.1-.1-8.4,2.5-11.8,2.7-3.5,8.5-4.1,12.4-3.5,3.9.7,7.4,3.6,9.3,7.5Z"/><path class="cls-10" d="M50.8,36.8c0,0,0-.1,0-.1"/><path class="cls-10" d="M55.6,53.2c0,0,0,.1-.1.2"/><line class="cls-10" x1="76.2" y1="59.9" x2="76" y2="59.9"/><line class="cls-10" x1="75.8" y1="64.1" x2="75.5" y2="64.1"/><path class="cls-10" d="M91.2,61s0,0,0,0h0s0,0,0,0"/><path class="cls-3" d="M90.6,58.2c-.3-.1-.5-.3-.8-.4-.7-.3-1.4-.6-2.1-.9-2.2-.8-4.5-1.1-6.9-1l-1,.2h-.3c-.2,1.6-.4,2.9-.6,4.2-.2,1.5-.3,2.9-.5,4.2h0c-.1,1.1-.2,2.2-.4,3.4-.2,1.7,1,3.4,2.3,3.7,1.9.5,3.4.8,5.5,1.2.3,0,.7,0,1,0,1.7-.2,3.2-1.8,3.7-3.9,1.1-4.6,2-8,2.4-9.4l-2.4-1.5ZM89.4,68.7c-.3,1.2-1,2-1.9,2.3-.3.1-.6.1-1,0-2.1-.4-3.6-.7-5.5-1.2-.9-.2-1.5-1.3-1.4-2.6.3-2.9.5-5.2,1-8.9,1.6-.2,5.5.4,8.7,1.8.6.3,1.2.6,1.8.9-.2.7-1,4.8-1.8,7.6Z"/><path class="cls-9" d="M89.4,60.2c-3.2-1.4-7.1-2-8.7-1.8-.5,3.7-.7,6-1,8.9-.1,1.2.5,2.3,1.4,2.6,1.8.4,3.4.8,5.5,1.2.3,0,.7,0,1,0,.9-.3,1.6-1.1,1.9-2.3.7-2.9,1.6-6.9,1.8-7.6-.6-.3-1.2-.6-1.8-.9ZM85.9,65.4c-.2,1.3-.8,2.2-1.3,2.1-.3,0-.5-.6-.5-1.3,0-.3,0-.7.1-1.1.1-.7.4-1.3.6-1.7.2-.3.4-.5.7-.5.5,0,.6,1.2.4,2.5Z"/><line class="cls-10" x1="78.8" y1="60.3" x2="78.8" y2="60.3"/><path class="cls-3" d="M78.9,60.3c-.2,1.5-.3,2.9-.5,4.2h-.2s0,0,0,0c-1.6-.3-1.6-.3-4.6-1.1h-.3c.3-1.3.7-2.6,1.1-3.9h.1s0,0,0,0c1.9.4,2.9.6,4.3.8h0s.2,0,.2,0Z"/><path class="cls-10" d="M60.3,55.1s0,0,0,0h0s0,0,0,0"/><path class="cls-3" d="M74.3,54.9c-.6-.3-1.2-.6-1.9-.8-4.1-1.5-8.4-2.1-12.8-1.5h-.7c0,0-.1,0-.1,0v.5c0,.8-.2,3.1-.6,6.1-.1,1.1-.3,2.3-.4,3.5-.4,2.6,1.3,5.1,3.8,5.5,2.5.5,4.4.8,6.7,1.1,1.6.2,3.6-.9,4.1-2.5.4-1.2.7-2.4,1-3.5.3-1.2.7-2.5,1.1-3.9.3-1.2.7-2.6,1-4.1l-1.1-.5ZM70.7,65.6c-.4,1.2-1.5,1.9-2.6,1.8-2.2-.3-4.2-.6-6.6-1.1-1.5-.3-2.5-1.8-2.3-3.4.4-2.9,1-7.1,1.1-7.7,5.5-.7,10.6.7,13,1.8-.9,3.6-1.6,5.8-2.5,8.6Z"/><path class="cls-9" d="M60.3,55.2c-.1.7-.7,4.8-1.1,7.7-.2,1.6.8,3.1,2.3,3.4,2.5.5,4.4.8,6.6,1.1,1.2.2,2.3-.6,2.6-1.8.8-2.8,1.5-5,2.5-8.6-2.3-1.1-7.4-2.5-13-1.8ZM68.3,62.1c-.2,1.2-.9,2.1-1.5,2-.5,0-.8-.8-.8-1.7h0c0-.3,0-.5,0-.8.1-.7.4-1.2.7-1.6.3-.3.6-.5.9-.4.6.1.9,1.2.7,2.5Z"/><path class="cls-1" d="M56.3,52h0c-.3.6-.4.7-.7,1.1-.3,0-.6.1-.9.2-1.9-1.4-6.4-3.1-7.4-3.1-.2,0-.4,0-.6,0,.2-1.6.2-1.4.6-2.9.2.1.3.2.5.3,1.9,1.2,6.1,3.8,8.4,4.2Z"/><path class="cls-10" d="M45.5,61c0-.4-.1-.8,0-1.1"/><path class="cls-7" d="M90,53.5c-.5.9-.8,1.9-.5,2.7.1.4.3.8.4,1.1,0,.2,0,.4,0,.5-.7-.3-1.4-.6-2.1-.9,0-.1-.2-.2-.3-.4-1.4-1.3-3.7-2.5-5.9-2.1-.9.1-1.6.6-1.7,1.3,0,.1,0,.3,0,.4h-.3c-.2,1.6-.4,2.9-.6,4.2h-.2c-1.3-.2-2.4-.4-4.3-.8h0s-.1,0-.1,0h0c.3-1.2.7-2.6,1-4.1l-1.1-.5c-.6-.3-1.2-.6-1.9-.8.2,0,.3-.2.4-.4,1.4-2-5.7-2.7-7.9-2.7-1.5,0-2.9.2-4,.7-.4.2-.8.4-1.2.6-.1,0-.2.2-.2.2h-.7c0,0-.1,0-.1,0-.5,0-1.7.2-3.1.5.2-.4.3-.5.7-1.1h0c0,0,.1,0,.2,0,.6,0,1.1,0,1.7-.2,1.6-.7,1.2-1.9,0-3.2h0c.4-.8.5-1,1-1.6.5.4,1.1.8,1.8.8,1.7,0,1.3-1.7.2-3.7,1.1-1.4,1.7-1.9,2.6-2.4.8.6,2.9,2.1,3.7.6.3-.5,0-1.2-.3-1.9h0c1.3-.5,1.8-.7,3-.9h0c.2.8.6,1.6,1.2,2.2.7.7,1.7.7,2.5,0,0,0,0-.1,0-.2,0-.8.2-1.6.2-2.4h0c.8,0,1.5,0,2.5.2.3,0,.3,0,.7.1-.1,1.2-.4,2.5.5,3.3.5.5,1.2.6,1.8.5.9-.2,1.2-.5,1.7-1.2,0-.4,0-.7,0-1h0c.8.5,1.2.8,1.9,1.5-.4,1.3-1,3.2,1.1,3.4.5,0,1-.2,1.5-.5h0c.9,1.1,1.4,1.8,2,3h0c-.1,1.2,0,2,.4,1.9.2,0,.4,0,.5,0h0c.6,1.3.8,2,1.2,3.2h0Z"/><path class="cls-3" d="M58.8,53.2c0,.8-.2,3.1-.6,6.1h0c-1.4,0-5-.9-8.1-.7-.9-.2-1.9,0-2.7.6-.5.2-.9.5-1.2.8h-.7c0,0,0,0,0,0,.1-1.7,1.3-3,2.9-4,1.8-1.2,4.2-2,6.3-2.5.3,0,.6-.1.9-.2,1.4-.3,2.6-.5,3.1-.5v.5Z"/><path class="cls-11" d="M85.9,65.4c-.2,1.3-.8,2.2-1.3,2.1-.3,0-.5-.6-.5-1.3,0-.3,0-.7.1-1.1.1-.7.4-1.3.6-1.7.2-.3.4-.5.7-.5.5,0,.6,1.2.4,2.5Z"/><path class="cls-11" d="M68.3,62.1c-.2,1.2-.9,2.1-1.5,2-.5,0-.8-.8-.8-1.7h0c0-.3,0-.5,0-.8.1-.7.4-1.2.7-1.6.3-.3.6-.5.9-.4.6.1.9,1.2.7,2.5Z"/><path class="cls-2" d="M19.4,131.3c-1.2,4-.7,6.8,2.3,10.1h0c-2.8-3.2-4.8-6.7-4.4-9.5.2-1.5,1.6-5.8,3.7-11.1.9-.2,1.8-.3,2.7-.2v.2c-1.9,3.9-2.8,5.4-4.2,10.4Z"/><path class="cls-10" d="M20.9,120.9s0,0,0,0"/><path class="cls-10" d="M80.2,128.4c0,0-.2,0-.3,0"/><path class="cls-10" d="M78.5,95.1c0,0-.1,0-.2,0"/><path class="cls-10" d="M73.3,95.2c-.7.1-1.3.3-1.7.6"/><path class="cls-9" d="M71.1,126.9c0,2.7-.8,4.8-2.1,6.1-1.4,1.4-3.3,2.1-5.7,2-3,0-5.4-1.8-7.3-5.2l3.7-3.2c1.1,2.1,2.3,3.1,3.7,3.2,1.6,0,2.4-1,2.5-3,0-1.3-.2-2.2-.6-2.7-.4-.5-1.2-.8-2.2-.8h-1.9s.1-5,.1-5h1.9c1.5,0,2.3-.9,2.3-2.8,0-1.7-.6-2.5-1.9-2.6-1.2,0-2.4.8-3.6,2.6l-3.3-3.5c1.9-2.9,4.3-4.3,7.1-4.3,2.2,0,3.9.7,5.1,1.9,1.2,1.2,1.8,2.9,1.8,5.1,0,2.8-1,4.7-2.9,5.8,2.2.8,3.3,3,3.2,6.3Z"/></svg>