<?xml version="1.0" encoding="UTF-8"?><svg id="latinAmerica" xmlns="http://www.w3.org/2000/svg" width="235" height="321.9" viewBox="0 0 235 321.9"><defs><style>.cls-1{stroke-linecap:round;stroke-linejoin:round;}.cls-1,.cls-2{fill:none;stroke:#000;}.cls-2{stroke-miterlimit:10;}.cls-3,.cls-4,.cls-5,.cls-6,.cls-7,.cls-8,.cls-9{stroke-width:0px;}.cls-4{fill:#4d443e;}.cls-5{fill:#4a62ba;}.cls-6{fill:#2b388d;}.cls-7{fill:#444746;}.cls-8{fill:#af856a;}.cls-9{fill:#fff;}</style></defs><path class="cls-3" d="M88.7,87c.9,0,1.4,1.5,1.2,3.2-.2,1.7-1,2.9-1.9,2.8-.9,0-1.4-1.5-1.2-3.2.2-1.7,1-2.9,1.9-2.8Z"/><path class="cls-8" d="M51.1,176.1h0c1.6-1.8,10.1.4,11,2.6,1,2.4-2.7,10.8-4.4,11.7-2,1-7.4-4.3-8.4-6.3-.8-.7-1.5-1.3-2.2-1.9-7.5-6.6-11.7-11-16.5-20.7-2.4-4.8.2-14.7,4.5-21.4h0c1.7,1.8,6.2,5,11.9,7.4h0c-3.2,4.7-2.3,4.9-5.7,10.6,3.6,5.7,5,9.5,7.1,13.4h0c.8,1.5,1.7,3,2.8,4.6Z"/><path class="cls-8" d="M74,123.2c-2.6-.7-5.2-2.1-7.4-3.6-.7-.5-1.2-.9-1.7-1.3-1.1-1-1.6-2-1.9-3.2-.2-1.2-.2-2.5,0-4.4l.2-.3c8.3,7.1,13.4,7.5,17.6,5.3h0c-.1.6-.1,1.2-.1,1.7.1,1.8,1,2.8,0,4.1,0,0,0,.1-.2.2-1.6,1.7-4.3,2.1-6.5,1.5Z"/><path class="cls-6" d="M100.2,144.5c-.7.9-1.4,1.7-2.1,2.4-1.8,1.6-3.8,2.6-5.7,4.1h-.4c.2-8,0-16-1.2-23.5h0c.3-.7.6-1.4.8-2.1h.2c3.6,5.9,5.5,13.7,8.4,19.2Z"/><path class="cls-4" d="M57.1,116.1c-.5-3.9-.7-7.9-.5-11.8,2.4,2.5,4.5,4.5,6.5,6.2l-.2.3c0,1.8-.1,3.2,0,4.4h-.4c-3.2.6-3.8.6-5.3.9h-.1Z"/><path class="cls-3" d="M86.4,79.7c1.2-.2,2.4-.2,3.6,0,1.2.1,2.4.6,3.2,1.5.3.4.5,1,.2,1.3s-6.7.2-7.1.1c-1-.1-1.7-.8-1.6-1.5,0-.6.9-1.1,1.8-1.3Z"/><path class="cls-4" d="M87.5,110.2c.2,3.1-.2,6.4-.6,9.6h-.1c-1.3-.7-4.2-1.7-5.9-2.3h-.2c0-.5,0-1,.1-1.7h0c1.8-1,3.5-2.5,5.2-4.1.6-.6,1.1-1,1.6-1.6h0Z"/><path class="cls-9" d="M90.8,283.6c5-.7,8.7-1.5,13.2-3.3h.2c-.2,2.2-.5,4.3-.8,6.5v.2c-.2.2-.5.4-.8.7-1,1.1-1.4,2.5-1.9,3.9-.4,1.4-1,2.8-2.2,3.7-1.8,1.3-5.6.4-7.3-1.3l.2-.2h0c0-.3-.2-4.6-.6-10.2Z"/><path class="cls-9" d="M57.3,116.1c1.5-.3,2.2-.4,5.3-.9h.4c.2,1.1.8,2.1,1.9,3.1h-.1c-2.2.1-5.1.8-6.8,2.2h0c-.3-1.5-.6-2.9-.8-4.4h.1Z"/><path class="cls-9" d="M30.6,277.3c3.1,3.4,7.8,5.3,12.4,5l.3.2c-1.2,1.9-2.4,3.7-3.8,5.6l.2.2c-.7.6-1.3,1.3-2,2-.9,1-8.6,0-10.1-2.1h0c1.1-3.4,2-7.1,2.8-10.9h.1Z"/><path class="cls-9" d="M68,143.4c1-1.7,2.1-3,3.1-3.7,1.2-.9,2.6-1.3,4.2-1.3,2.1,0,3.7.6,4.8,1.9,1.1,1.3,1.7,3,1.7,5.2,0,1.6-.3,3.1-.8,4.3-.6,1.3-1.6,2.6-3,3.9-1.6,1.5-2.7,2.7-3.4,3.8-.6,1-1,2.1-1.1,3.2h8.5s0,5.4,0,5.4h-14c0-4.1.7-7.3,1.8-9.8.9-2.1,2.5-4.1,4.8-6.2.9-.8,1.5-1.5,1.9-2.1.3-.6.5-1.3.5-2,0-.7-.2-1.2-.5-1.6-.3-.4-.7-.6-1.1-.6-.7,0-1.3.2-1.8.6-.6.4-1.3,1.2-2,2.5l-3.4-3.5Z"/><path class="cls-7" d="M83.4,243.9c-1.9-4.9-10.2-19.2-12.7-23.5-2.5,9-4.5,18.2-5.6,23.5-.9-.1-1.8-.3-2.6-.4-8-1.5-11.2-3.9-19.4-5.4-.7-.1-1.5-.3-2.3-.4,1.7-16.7-1.5-27.2,4.6-45.7,20.7,9.9,32.4,9.3,43.7,5.1,8.5,8.4,12.7,21.4,17.4,32.4-8.2,2.3-14.5,8.3-20.7,12.8-.8.6-1.6,1.1-2.4,1.7Z"/><path class="cls-8" d="M110.5,177.7c-.5-2.6,1-5.2,3.2-6.7,2.2-1.6,0-.8,2.7-1.4,3-.9,6.4.8,7.7,3.6,1.3,2.8-1.9,5.7-4.4,7.6-2.5,1.9-4,2.6-6.5.9-1.2-.8-2.2-2.1-2.6-3.5,0-.1,0-.2,0-.3Z"/><path class="cls-9" d="M67.7,102.9c.9,1.2,10.6,4.6,15.8,2.9-1.5,2.2-3,3-6,3.1-1.8,0-4.6-.8-6.4-2-2-1.2-2.4-1.9-3.4-4Z"/><path class="cls-4" d="M67.5,73.4c-2.4,2.5-5.1,4.1-6.6,8.9h0c-2.2,7.3-3.8,14.6-4.2,21.9-.2,3.9,0,7.9.5,11.8.2,1.5.5,2.9.8,4.4,0,.4.2.8.3,1.2.8,3.5,2.5,8.6,1.8,12.3-.1.7-.9,1-1.5.7-.5-.3-1-.6-1.5-1.1-3.4-2.8-5.6-8.2-6.8-12.1-.3-1.1-.6-2.2-.9-3.2-2.9-11.2-3.4-22.6-1.9-34.1,1.3-9.5,3.4-20.1,12.4-25.6,7.6-4.6,21.3-4.9,24.7-2.6h0c8.6,4.3,12,10,14.6,17.3,1.8,5.1,2.1,12.6,1.2,17.9-.9,5.3-2.1,10.7-3.3,15.9-1.3,6-3.2,12.4-5.4,18.2-.3.7-.5,1.4-.8,2.1-1.1,2.7-2.2,5.2-3.3,7.4-.6,1.3-2.6.7-2.5-.7.1-3.3.7-6.9,1.3-10.6.2-1.3.4-2.6.6-3.9.5-3.2.8-6.4.6-9.6h0c.8-.9,1.7-2,3-4.1h0c1.2-2,2.8-4.7,3.2-7.2.5-2.6.7-5.2,1-7.9.3-2.1.6-4.2.5-6.3-.3-9.1-4.6-13.3-11.3-18.9-1-.8-10.5,1.5-16.5,7.6Z"/><path class="cls-3" d="M64.1,80.4c-.6-1.5,3.2-2.7,4.5-2.8,1.8-.2,7.8.3,6.6,3-.2.6-.9,1-1.7,1.1s-9.3-.8-9.4-1.2Z"/><path class="cls-8" d="M104,280.3c-4.5,1.9-8.2,2.6-13.2,3.3-.5-6.1-1.4-13.9-3-19.8-.8-3.1-1.5-12.6-1-15.8.4-2.7-.8-5.5-.8-5.5l-.2-.3c6.2-4.5,12.4-10.4,20.7-12.8.2,18.1-.3,33.5-2.3,50.9h-.2Z"/><path class="cls-3" d="M70.5,85c.9,0,1.4,1.5,1.2,3.2-.2,1.7-1,2.9-1.9,2.8-.9,0-1.4-1.5-1.2-3.2.2-1.7,1-2.9,1.9-2.8Z"/><path class="cls-5" d="M69.8,156.3c-1.1,2.5-1.7,5.7-1.8,9.8h14s0-5.4,0-5.4h-8.5c.2-1.2.5-2.3,1.1-3.2.7-1.1,1.8-2.4,3.4-3.8,1.4-1.3,2.5-2.6,3-3.9.5-1.2.8-2.6.8-4.3,0-2.2-.6-3.9-1.7-5.2-1.1-1.3-2.7-1.9-4.8-1.9-1.7,0-3.1.4-4.2,1.3-1,.8-2.1,2-3.1,3.7l3.4,3.5c.8-1.2,1.4-2,2-2.5.5-.4,1.1-.6,1.8-.6.5,0,.8.2,1.1.6.3.4.5,1,.5,1.6,0,.8-.2,1.4-.5,2-.3.6-1,1.3-1.9,2.1-2.2,2-3.8,4.1-4.8,6.2ZM89,197c-11.3,4.2-23,4.8-43.7-5.1-.3-.1-.5-.2-.8-.4,1.7-5,1.6-4.2,2.5-9.3h0c.7.5,1.4,1.2,2.2,1.9,1,2,6.5,7.3,8.4,6.3,1.7-.8,5.4-9.3,4.4-11.7-.9-2.2-9.3-4.3-11-2.6h0c-1.1-1.6-2-3.1-2.8-4.5h.2c1.1-10.6,2.1-17.8,2.2-24.5l-.3-.2c2-3.1,5.2-9.4,6.4-13v-.2c.6.4,1.1.8,1.7,1.1.6.3,1.3,0,1.5-.7.7-3.7-1-8.9-1.8-12.3,0-.4-.2-.8-.3-1.2h0c1.7-1.4,4.7-2.1,6.8-2h.1c.5.3,1,.7,1.7,1.2,2.2,1.5,4.8,2.9,7.4,3.6,2.3.6,4.9.2,6.5-1.5,0,0,.1-.1.2-.2h.2c2,.2,3.8.9,5.5,2-.6,3.7-1.2,7.3-1.3,10.6s1.9,1.9,2.5.7c1.1-2.2,2.3-4.8,3.3-7.4h0c1.1,7.6,1.4,15.5,1.2,23.5,0,1.7-.1,3.4-.2,5.2-.6,13.8-2.3,27.8-2.8,40.9Z"/><path class="cls-8" d="M110.3,177.8c-2.5-6.8-18.3-16.4-18.1-21.6h-.3c0-1.7.1-3.5.2-5.2h.4c1.9-1.5,3.8-2.5,5.7-4.1h0c2.7,5.2,12.3,18.7,18.2,22.7-2.7.6-.5-.1-2.7,1.4-2.1,1.5-3.7,4.2-3.2,6.7h-.1Z"/><path class="cls-9" d="M80.6,121.5c1-1.3.1-2.2,0-4.1h.2c1.7.6,4.7,1.6,5.9,2.2h.1c-.2,1.3-.4,2.6-.6,3.9-1.6-1.1-3.5-1.8-5.5-2h-.2Z"/><path class="cls-7" d="M27.2,287.6h.1c0,.2.1.4.2.6,1.5,2.1,9.2,3.1,10.1,2.1.6-.7,1.2-1.4,2-2,.4-.4.9-.7,1.4-.9,1.4-.6,2.1-.6,2.8.7h0c6.1,12.1,6,13.4,15.4,18.9,1.3.8,2.8.2,3.1,1.7,1.7,7.6-4.1,10.7-10.3,9.2-9.8-2.2-15-5.4-29.8-15.6-1-.7-2.1-1.4-2.4-2.5-.2-.8.1-1.7.5-2.5,1.5-3.5,4.7-6.6,6.9-9.7Z"/><path class="cls-8" d="M83.5,105.8c-5.2,1.7-14.9-1.8-15.8-2.9.9,2.1,1.4,2.8,3.4,4,1.8,1.2,4.6,2,6.4,2,3,0,4.5-.8,6-3.1ZM88.1,93c.9,0,1.7-1.2,1.9-2.8.2-1.7-.4-3.1-1.2-3.2-.9,0-1.7,1.2-1.9,2.8-.2,1.7.4,3.1,1.2,3.2ZM93.3,82.3c.4-.3.2-.9-.2-1.3-.8-.9-2-1.4-3.2-1.5-1.2-.1-2.4-.1-3.6,0-.9.2-1.7.7-1.8,1.3,0,.6.6,1.4,1.6,1.5.4,0,6.9,0,7.1-.1ZM73.6,81.7c.7,0,1.4-.5,1.7-1.1,1.1-2.7-4.8-3.2-6.6-3-1.2.1-5.1,1.3-4.5,2.8.2.4,8.7,1.3,9.4,1.2ZM60.9,82.3c1.5-4.8,4.2-6.5,6.6-8.9,6-6.1,15.5-8.4,16.5-7.6,6.6,5.6,11,9.8,11.3,18.9,0,2.1-.2,4.2-.5,6.3-.3,2.6-.6,5.3-1,7.9-.4,2.5-2,5.1-3.2,7.1h0c-1.3,2.2-2.2,3.4-3,4.2-.5.6-1,1-1.6,1.6-1.7,1.6-3.3,3.1-5.2,4.1-4.1,2.2-9.3,1.8-17.6-5.3-2-1.7-4.1-3.7-6.5-6.2.4-7.3,2-14.6,4.2-21.9h0ZM71.7,88.1c.2-1.7-.4-3.1-1.2-3.2-.9,0-1.7,1.2-1.9,2.8-.2,1.7.4,3.1,1.2,3.2.9,0,1.7-1.2,1.9-2.8Z"/><path class="cls-6" d="M47,147.5c-5.7-2.3-10.1-5.6-11.9-7.4-.4-.5-.7-.8-.8-1.1-.3-.9,4.2-8.8,4.7-9.6,4.1-6.3,5.4-9,10.2-11.1.3,1.1.6,2.2.9,3.2,1.2,3.9,3.5,9.3,6.8,12.1v.2c-1.4,3.6-4.5,9.8-6.5,13-.4.7-.8,1.2-1.1,1.5-.8-.3-1.6-.6-2.4-.9Z"/><path class="cls-8" d="M43,238c8.1,1.5,11.4,3.9,19.4,5.4h0c-2.6,8.6-4.5,11.5-9.1,20-3.6,6.8-6.3,12.9-10.1,19l-.3-.2c-4.6.3-9.3-1.6-12.4-5h-.1c1.7-8.1,3.3-16.5,6.8-22.1,1.8-2.8,3.7-6.1,4.9-9.2,1.2-3.2,1.2-4.3.8-7.9Z"/><path class="cls-7" d="M124.7,313.7c-10.3.5-21.4-3.8-31.7-5-1.2-.1-2.6-.4-3.3-1.3-.5-.7-.6-1.6-.6-2.5,0-3.8.4-7.7,1.3-11.4h.1c.2.2.3.4.6.6,1.7,1.7,5.5,2.6,7.3,1.3s1.7-2.3,2.2-3.7c.4-1.4.9-2.8,1.9-3.9.3-.3.6-.5.9-.7.7-.4,1.5-.4,2.4.2h.1c8.5,3.3,17.8,9.6,26.3,12.9,1.5.6,3,1.2,4,2.4,2.2,2.5.9,6.7-1.8,8.7s-6.3,2.4-9.6,2.6Z"/><path class="cls-1" d="M62.9,110.8c0,1.8-.1,3.2,0,4.4.2,1.2.8,2.2,1.9,3.2.5.4,1,.9,1.7,1.3,2.2,1.5,4.8,2.9,7.4,3.6,2.3.6,4.9.2,6.5-1.5,0,0,.1-.1.2-.2,1-1.3.1-2.2,0-4.1,0-.5,0-1.1.1-1.7"/><path class="cls-1" d="M56.9,133.9c-1.2,3.6-4.4,9.8-6.4,13-.4.7-.8,1.2-1.1,1.5-.8-.3-1.6-.6-2.4-.9-5.7-2.3-10.1-5.6-11.9-7.4-.4-.5-.7-.8-.8-1.1-.3-.9,4.2-8.8,4.7-9.6,4.1-6.3,5.4-9,10.2-11.1h0"/><path class="cls-1" d="M47.1,182.2c-.9,5.2-.8,4.4-2.5,9.3.3.1.5.3.8.4,20.7,9.9,32.4,9.3,43.7,5.1.5-13.1,2.2-27.1,2.8-40.9,0-1.7.1-3.5.2-5.2.2-8,0-15.9-1.2-23.5"/><path class="cls-1" d="M50.8,147c0,6.7-1.1,14-2.2,24.4"/><path class="cls-1" d="M35.1,140.1c-4.3,6.6-6.9,16.6-4.5,21.4,4.8,9.7,9,14.1,16.5,20.7.7.6,1.4,1.3,2.2,1.9"/><path class="cls-1" d="M47,147.6c-3.2,4.6-2.3,4.8-5.7,10.5,3.6,5.7,5,9.5,7.1,13.4h0c.8,1.5,1.7,3,2.8,4.6.1.1.2.3.3.5"/><path class="cls-1" d="M91.9,125.4c3.6,5.8,5.5,13.6,8.4,19.1-.7.9-1.4,1.7-2.1,2.4-1.8,1.6-3.8,2.6-5.7,4.1"/><path class="cls-1" d="M80.8,117.5c1.7.6,4.7,1.6,5.9,2.3"/><path class="cls-1" d="M51.2,176.1c1.6-1.7,10.1.4,11,2.6,1,2.4-2.7,10.8-4.4,11.7-2,1-7.4-4.3-8.4-6.3"/><path class="cls-1" d="M92.2,156.2c-.1,5.2,15.6,14.8,18.1,21.6"/><path class="cls-1" d="M98.2,146.9c2.7,5.1,12.3,18.6,18.2,22.7"/><path class="cls-1" d="M116.4,169.6c-2.7.6-.5-.1-2.7,1.4-2.1,1.5-3.7,4.2-3.2,6.7,0,.1,0,.2,0,.3.4,1.4,1.4,2.7,2.6,3.5,2.6,1.7,4.1,1,6.5-.9,2.5-1.9,5.6-4.8,4.4-7.6-1.3-2.8-4.7-4.5-7.7-3.6"/><path class="cls-1" d="M45.4,191.8v.2c-6.2,18.5-3,29-4.7,45.7.8.1,1.6.2,2.3.4,8.1,1.5,11.4,3.9,19.4,5.4.8.2,1.7.3,2.6.4,1.2-5.2,3.1-14.5,5.6-23.5,1.2-4.2,2.5-8.3,3.9-12"/><path class="cls-1" d="M62.4,243.6c-2.6,8.5-4.5,11.4-9.1,19.9-3.6,6.8-6.3,12.9-10.1,19-1.2,1.9-2.4,3.7-3.8,5.6,0,0,0,0,0,0"/><path class="cls-1" d="M43,238c.4,3.6.4,4.7-.8,7.9-1.2,3.1-3.2,6.4-4.9,9.2-3.5,5.7-5.1,14.1-6.8,22.1-.8,3.8-1.7,7.5-2.8,10.9"/><path class="cls-1" d="M70.6,220.3s0,0,0,0c2.5,4.3,10.8,18.5,12.7,23.5.8-.5,1.6-1.1,2.4-1.7,6.2-4.5,12.4-10.4,20.7-12.8-4.7-11-8.9-24-17.4-32.4"/><path class="cls-1" d="M91.4,293.9h0"/><path class="cls-1" d="M86,242.5s1.2,2.8.8,5.5c-.5,3.2.2,12.6,1,15.8,1.6,5.9,2.5,13.7,3,19.8.5,5.6.6,9.9.6,10.2"/><path class="cls-1" d="M106.5,229.4c.2,18.1-.3,33.5-2.3,50.9-.2,2.1-.5,4.3-.8,6.5"/><path class="cls-1" d="M57.3,116.1c1.5-.3,2.2-.4,5.3-.9"/><path class="cls-1" d="M90.5,106c-1.3,2.2-2.2,3.3-3,4.1-.5.6-1,1-1.6,1.6-1.7,1.6-3.3,3.1-5.2,4.1-4.1,2.2-9.3,1.8-17.6-5.3-2-1.7-4.1-3.7-6.5-6.2h0"/><path class="cls-1" d="M68.6,87.8c-.2,1.7.4,3.1,1.2,3.2.9,0,1.7-1.2,1.9-2.8.2-1.7-.4-3.1-1.2-3.2-.9,0-1.7,1.2-1.9,2.8Z"/><path class="cls-1" d="M83.8,100c-3.3,2.1-3.4,1.7-7.4,1.1"/><path class="cls-1" d="M83.5,105.8c-5.2,1.7-14.9-1.8-15.8-2.9.9,2.1,1.4,2.8,3.4,4,1.8,1.2,4.6,2,6.4,2,3,0,4.5-.8,6-3.1Z"/><path class="cls-1" d="M90.5,105.9c1.2-1.9,2.8-4.6,3.2-7.1.5-2.6.7-5.2,1-7.9.3-2.1.6-4.2.5-6.3-.3-9.1-4.6-13.3-11.3-18.9-1-.8-10.5,1.5-16.5,7.6-2.4,2.5-5.1,4.1-6.6,8.9"/><path class="cls-1" d="M84.6,55.9c8.6,4.5,12,10.2,14.6,17.4,1.8,5.1,2.1,12.6,1.2,17.9-.9,5.3-2.1,10.7-3.3,15.9-1.3,6-3.2,12.4-5.4,18.2-.3.7-.5,1.4-.8,2.1-1.1,2.7-2.2,5.2-3.3,7.4-.6,1.3-2.6.7-2.5-.7.1-3.3.7-6.9,1.3-10.6.2-1.3.4-2.6.6-3.9.5-3.2.8-6.4.6-9.6"/><path class="cls-1" d="M84.6,56.1s0,0,0,0c-3.3-2.3-17-2-24.7,2.6-9,5.5-11.2,16-12.4,25.6-1.5,11.5-1,22.9,1.9,34.1.3,1.1.6,2.2.9,3.2,1.2,3.9,3.5,9.3,6.8,12.1.5.4,1,.8,1.5,1.1.6.3,1.3,0,1.5-.7.7-3.7-1-8.9-1.8-12.3,0-.4-.2-.8-.3-1.2-.3-1.5-.6-2.9-.8-4.4-.5-3.9-.7-7.9-.5-11.8.4-7.3,2-14.6,4.2-21.9"/><path class="cls-1" d="M75.2,80.6c-.2.6-.9,1-1.7,1.1s-9.3-.8-9.4-1.2c-.6-1.5,3.2-2.7,4.5-2.8,1.8-.2,7.8.3,6.6,3Z"/><path class="cls-1" d="M86.2,82.5c-1-.1-1.7-.8-1.6-1.5,0-.6.9-1.1,1.8-1.3,1.2-.2,2.4-.2,3.6,0,1.2.1,2.4.6,3.2,1.5.3.4.5,1,.2,1.3s-6.7.2-7.1.1Z"/><path class="cls-1" d="M86.9,89.8c-.2,1.7.4,3.1,1.2,3.2.9,0,1.7-1.2,1.9-2.8.2-1.7-.4-3.1-1.2-3.2-.9,0-1.7,1.2-1.9,2.8Z"/><path class="cls-2" d="M57.9,120.5c1.7-1.4,4.7-2.1,6.8-2"/><path class="cls-2" d="M80.8,121.6c2,.2,3.8.9,5.5,2,0,0,0,0,0,0"/><path class="cls-1" d="M81.9,166.1h-14c0-4.1.7-7.3,1.8-9.8.9-2.1,2.5-4.1,4.8-6.2.9-.8,1.5-1.5,1.9-2.1.3-.6.5-1.3.5-2,0-.7-.2-1.2-.5-1.6-.3-.4-.7-.6-1.1-.6-.7,0-1.3.2-1.8.6-.6.4-1.3,1.2-2,2.5l-3.4-3.5c1-1.7,2.1-3,3.1-3.7,1.2-.9,2.6-1.3,4.2-1.3,2.1,0,3.7.6,4.8,1.9,1.1,1.3,1.7,3,1.7,5.2,0,1.6-.3,3.1-.8,4.3-.6,1.3-1.6,2.6-3,3.9-1.6,1.5-2.7,2.7-3.4,3.8-.6,1-1,2.1-1.1,3.2h8.5s0,5.4,0,5.4Z"/><path class="cls-1" d="M90.6,293.3s0,0,0,0c.2.3.3.5.6.7,1.7,1.7,5.5,2.6,7.3,1.3s1.7-2.3,2.2-3.7c.4-1.4.9-2.8,1.9-3.9.3-.3.6-.5.9-.7.7-.4,1.5-.4,2.4.2"/><path class="cls-1" d="M90.5,293.4c-.9,3.7-1.3,7.6-1.3,11.4,0,.9,0,1.8.6,2.5.7,1,2.1,1.2,3.3,1.3,10.2,1.2,21.4,5.5,31.7,5,3.4-.1,6.9-.5,9.6-2.6s4-6.1,1.8-8.7c-1-1.2-2.5-1.8-4-2.4-8.5-3.3-17.8-9.6-26.3-12.9"/><path class="cls-1" d="M27.3,287.6c0,.2.1.4.2.6,1.5,2.1,9.2,3.1,10.1,2.1.6-.7,1.2-1.4,2-2,.4-.4.9-.7,1.4-.9,1.4-.6,2.1-.6,2.8.7,0,0,0,0,0,0"/><path class="cls-1" d="M27.2,287.6c-2.3,3-5.4,6.2-6.9,9.7-.3.8-.7,1.7-.5,2.5.3,1.2,1.4,1.8,2.4,2.5,14.8,10.3,20,13.4,29.8,15.6,6.2,1.4,12-1.6,10.3-9.2-.3-1.5-1.8-1-3.1-1.7-9.4-5.5-9.3-6.7-15.4-18.9"/><path class="cls-2" d="M30.6,277.3c3.1,3.4,7.8,5.3,12.4,5"/><path class="cls-2" d="M90.5,283.7c0,0,.2,0,.3,0,5-.7,8.7-1.5,13.2-3.3"/></svg>