<?xml version="1.0" encoding="UTF-8"?><svg id="latinAmerica" xmlns="http://www.w3.org/2000/svg" width="235" height="321.9" viewBox="0 0 235 321.9"><defs><style>.cls-1{stroke-linecap:round;stroke-linejoin:round;}.cls-1,.cls-2{fill:none;stroke:#000;}.cls-2{stroke-miterlimit:10;}.cls-3,.cls-4,.cls-5,.cls-6,.cls-7,.cls-8,.cls-9,.cls-10{stroke-width:0px;}.cls-4{fill:#4d443e;}.cls-5{fill:#4a62ba;}.cls-6{fill:#2b388d;}.cls-7{fill:#444746;}.cls-8{fill:#16100d;}.cls-9{fill:#af856a;}.cls-10{fill:#fff;}</style></defs><path class="cls-9" d="M49.7,176.1c.3-3.7-3.8-3.7-7.3-3.9-1,0-1.9,0-2.6-.2-5.3-1.1-8.3-12.3-10.4-15.4-1.2-1.9-2.1-3.1-3.1-4.2.6-.7,2.2-2.4,3.4-3.7-2.8-1.6-7.7-4.9-9.5-8-2.5,3.5-4.7,6.8-5.1,7.8-2.1,4.9,3.4,16.6,7.4,20.2,2.9,2.6,9.2,7.5,11.9,10.5-.9,2.7,2.4,6.1,4.5,7.6.5.3,1.5.9,2.6,1.3h0c0,0,.1,0,.2,0,0,0,0,0,0,0,2.5.9,5.4,1.4,5-1.1,1-.1,3-1.5,1.6-2.8,1.2-.3,2.4-1.7,1.4-3.4,3.8-1.4,2-3.3,0-4.9Z"/><path class="cls-6" d="M40.9,138.6c1.2-1.5,2.3-2.9,3.1-4.1,1.5-2.1,1.6-6.1.8-8.7-1.7-3.6-3.1-7.1-4.2-10.7h-.4c-5.8,2.3-21.3,21.7-20.7,24.1.1.5.4,1,.7,1.5,1.9,3,6.7,6.3,9.5,8,.8.5,1.4.8,1.8.9,2.6-2.8,6.4-7.3,9.4-11Z"/><path class="cls-7" d="M30.9,300.2c-.3,1.2-.3,6.3.6,7.3,1,1,2.7,1.1,4.2,1.2,4.8,0,9.6.1,14.4,0,1.7,0,5.1.3,6.3-.9,1.5-1.4.5-9.6-.5-11.2-1.3-2-2.4-2.5-4.4-3-.5-.1-1-.2-1.6-.4-2.7-.6-6.5-1.2-10.3.4-.4.2-.8.4-1.2.6-2.4,1.1-6.7,3.7-7.4,6.1Z"/><path class="cls-7" d="M70.6,237.3c6-.3,11.6-1,15.8-2,3-.7,5.3-1.5,6.7-2.3-1.2-7.9-2.6-21.8-3.5-28.4-.9-5.8-1.8-9.7-3.5-16.6-3.7,2.8-25.4,8-44.4.3,0,0,0,0,0,0,0,0-.1,0-.2,0-.3,1.4-1.9,9.3-1.9,9.3-1.3,8.1-3.9,31.7-4.1,33.9,2.1,1.2,4.3,2.2,6.4,3,4.6,1.7,9.3,2.6,14.8,2.9,1.9.1,3.9.1,6,.1,0,0,1.1-20.3,2.8-28.9-.1,11.2,1.6,20,1.6,28.7v.2c1.2,0,2.4,0,3.6-.1Z"/><path class="cls-9" d="M37.7,251.1c-.7,6.7,1.5,19.4,1.7,32.3,3.6-1.1,8.3-.8,12,0,.3-4,1-7.2,1.6-10.1,1.7-8,2.5-16.4,3.1-24.5.3-3.6.3-7.8.6-11.3v-.2c-5.5-.3-10.2-1.2-14.8-2.9h-1.6c-.4,3.7-.3,1.4-.9,4.7-.6,3.5-1.3,8.1-1.7,12Z"/><path class="cls-4" d="M83.6,87.8c0,.8,0,1.7,0,2.6,0,.7,0,1.4,0,2-.2,7.1-1.5,14.8-2.6,22.5-.2,1.3-.3,2.6-.5,3.9-.5,4.4-.9,8.7-.8,12.8,0,1,1.4,1.2,1.7.2.7-2.8,1.5-5.5,2.2-8.1.7-2.6,1.4-5.1,2.1-7.6,3.8-14.4,6.5-27.3,4.7-44.2-1-11.7-10-24.8-21.8-25.7s-28.6,8-30.3,17.8c-3.2,17.9-3.1,34.6,2.2,51.1,1.1,3.6,2.5,7.1,4.2,10.7,1.2,2.5,2.5,5,3.9,7.5.7,1.2,2.4.6,2.2-.8-.7-4.5-1.7-9.2-2.8-13.9-.3-1.5-.6-3-1-4.5-1.2-5.6-2.1-11.3-2.2-16.9,0-1.4,0-2.8,0-4.2,1-15.1,10.9-27.9,25.4-36.2,10.2,9.1,13,17.8,13.2,30.9Z"/><path class="cls-10" d="M39.1,293.4h.4c3.8-1.5,7.6-.9,10.3-.3.6.1,1.1.3,1.6.4h0c-.3-3.9-.2-7.2,0-10.1-3.7-.8-8.4-1.1-12,0,0,3.4,0,6.8-.3,10.1Z"/><path class="cls-7" d="M41.4,188.2h0c0,0,.1,0,.2,0,0,0-.1,0-.2,0Z"/><path class="cls-5" d="M42.2,162.1c-.1,1.7.3,7.3.2,10.1,3.4.1,7.6.2,7.3,3.9,2,1.5,3.8,3.5,0,4.9,1,1.7-.2,3.1-1.4,3.4,1.3,1.3-.7,2.7-1.6,2.8.4,2.5-2.5,2-5,1.1,18.9,7.7,40.6,2.5,44.4-.3-.4-6.4-1.4-11.3-2.1-16,0,0,0,0,0,0-.7-4.7-1.1-9.1-.3-14.4,1-6.9,1.3-12.8,1.3-19.4,0-1.7,0-3.5-.1-5.3-.1-3.4-.1-5.8-1.1-9.1h-.1c-.7,2.6-1.4,5.3-2.2,8-.3,1-1.7.8-1.7-.2,0-4.1.3-8.4.8-12.8h-.3c-3.1-1.5-6.4-2.4-9.8-2.5-2.3,1.6-5.1,2.6-8,2.6-2.8,0-5.7-.8-8-2.3-2.1,0-4,.8-5.8,2h-.6c1,4.9,2.1,9.5,2.8,14.1.2,1.3-1.6,1.9-2.2.8-1.4-2.5-2.7-5-3.9-7.5.8,2.6.7,6.5-.8,8.7-.8,1.1-1.9,2.5-3.1,4.1.3,3.6,1.6,20,1.3,23.5ZM72.1,160.1h-15.4c0-4.1.8-7.3,2-9.8,1-2.1,2.8-4.1,5.3-6.2,1-.8,1.7-1.5,2-2.1.4-.6.6-1.3.6-2s-.2-1.2-.5-1.6c-.3-.4-.8-.6-1.3-.6-.8,0-1.4.2-2,.6-.6.4-1.4,1.2-2.2,2.5l-3.8-3.5c1.1-1.7,2.3-3,3.4-3.7,1.3-.9,2.8-1.3,4.7-1.3s4,.6,5.3,1.9c1.2,1.3,1.9,3,1.9,5.2s-.3,3.1-.9,4.3c-.6,1.3-1.8,2.6-3.3,3.9-1.8,1.5-3,2.7-3.8,3.8-.7,1-1.1,2.1-1.2,3.2h9.4v5.4Z"/><path class="cls-9" d="M72.5,109.2c1.6-1.1,3.3-2.5,5.2-4.2,3.6-3.1,5.6-7.7,5.9-12.5,0-.7,0-1.4,0-2,0-.9,0-1.8,0-2.6-.3-13.1-3-21.8-13.2-30.9-14.5,8.3-24.4,21.1-25.4,36.2,0,1.4-.1,2.8,0,4.2,2.1,5.8,5.8,8.3,7.3,9.2,10.6,6.4,15,6.4,20.4,2.7ZM73.1,72.8h0s0,0,0,0c3.5-1.4,8.1,0,8.7,1.4-.7.4-1.5.5-2.5.4-1.4,0-2.7-.2-4.1-.3-.6,0-1.3,0-1.8-.4s-.8-.8-.3-1.2ZM73.6,98.7h0c-1.2,2.2-2.6,3.3-5.5,3.7-1.8.2-5.3-.1-7.1-1.2-1.7-1-2.4-1.4-4.5-4.2,1,.9,12,3.3,17,1.7ZM54.8,74.7c-1.1,0-1.9,0-2.8-.5.6-1.7,5.5-3.2,9.4-1.5,0,0,.3,1-.3,1.3-.5.3-1.3.4-1.9.4-1.5,0-3,.2-4.5.3ZM55.9,81.9c0-1.9.8-3.4,1.8-3.4s1.8,1.5,1.8,3.4-.8,3.4-1.8,3.4-1.8-1.5-1.8-3.4ZM75.9,81.8c0-1.6.7-3,1.5-3s1.5,1.3,1.5,3-.7,3-1.5,3-1.5-1.3-1.5-3Z"/><path class="cls-4" d="M51.8,113.7h0c.2-2.3.4-3.7.4-7.2-1.4-.9-5.1-3.4-7.3-9.2.1,5.6,1.1,11.3,2.2,16.9h0c2-.2,3.5-.2,4.2-.3.2,0,.4,0,.4-.2Z"/><path class="cls-10" d="M47.2,114.2h0c.3,1.5.6,3,1,4.5h.6c1.7-1.4,3.6-2,5.8-2.1-1.1-.7-2.1-1.6-3-2.6h0c-.7,0-2.2,0-4.2.2Z"/><path class="cls-9" d="M51.8,113.7h0c0,0-.1.1-.4.2h0c.9,1.1,1.9,2,3,2.7,2.4,1.5,5.2,2.4,8,2.3,2.8,0,5.7-1,8-2.6,1.1-.8,2.1-1.6,2.9-2.7,0,0-.1,0-.2-.1,0,0,0,0-.1,0,0,0,0,0,0,0-.3-1.4-.6-2.8-.4-4.3-5.4,3.8-9.8,3.7-20.4-2.7,0,3.5-.2,4.9-.4,7.2Z"/><path class="cls-8" d="M52,74.2c.8.5,1.7.6,2.8.5,1.5,0,3-.2,4.5-.3.7,0,1.4,0,1.9-.4.5-.3.3-1.3.3-1.3-3.9-1.7-8.8-.2-9.4,1.5Z"/><path class="cls-3" d="M57.7,78.5c-1,0-1.8,1.5-1.8,3.4s.8,3.4,1.8,3.4,1.8-1.5,1.8-3.4-.8-3.4-1.8-3.4Z"/><path class="cls-10" d="M56.7,160.1h15.4v-5.4h-9.4c.2-1.2.6-2.2,1.2-3.2.8-1.1,2-2.4,3.8-3.8,1.6-1.3,2.7-2.6,3.3-3.9.6-1.2.9-2.6.9-4.3s-.6-3.9-1.9-5.2c-1.2-1.3-3-1.9-5.3-1.9s-3.4.4-4.7,1.3c-1.1.8-2.3,2-3.4,3.7l3.8,3.5c.9-1.2,1.6-2,2.2-2.5.5-.4,1.2-.6,2-.6s.9.2,1.3.6c.3.4.5.9.5,1.6s-.2,1.4-.6,2c-.4.6-1,1.3-2,2.1-2.5,2-4.2,4.1-5.3,6.2-1.2,2.5-1.9,5.7-2,9.8Z"/><path class="cls-10" d="M56.5,97.1c2,2.8,2.8,3.2,4.5,4.2,1.8,1,5.3,1.4,7.1,1.2,2.9-.4,4.2-1.5,5.5-3.6h0c-5.1,1.6-16-.8-17-1.7Z"/><path class="cls-9" d="M70.6,237.3c-1.2,7.8-.2,17.7.4,19.9,2.9,10.8,4.9,17,5.9,26.3,3.7-1.4,7.9-1.5,11.7-.3h.4c-.4-9.6-.7-23.1-.5-25.7.3-5.4-.3-13.4-2-22v-.2c-4.3,1-9.8,1.7-15.8,2Z"/><path class="cls-4" d="M72.5,109.2c-.1,1.4.1,2.8.4,4.3,0,0,.1,0,.2,0,2.7.7,5.4,1,7.9,1.4h0c1-7.6,2.3-15.4,2.6-22.5-.3,4.8-2.3,9.4-5.9,12.5-1.9,1.7-3.6,3.1-5.2,4.2Z"/><path class="cls-10" d="M73.4,113.6c-.8,1-1.8,1.9-2.9,2.7,3.4.2,6.7,1,9.8,2.5h.3c.2-1.3.3-2.6.5-3.9h0c-2.5-.4-5.1-.7-7.9-1.4,0,0,.1,0,.2.1Z"/><path class="cls-8" d="M73.1,72.8c-.4.3-.2.9.3,1.2s1.1.3,1.8.4c1.4,0,2.7.2,4.1.3,1,0,1.8,0,2.5-.4-.6-1.4-5.1-2.8-8.7-1.4,0,0,0,0,0,0h0Z"/><path class="cls-7" d="M74,296.9c-.9,1.8-1.4,10,.4,11.1,1.3.8,17.2,1.3,21.6,1.1.4,0,3-.6,3.4-.8,1.3-.6.7-8.2,0-9.4-1.3-2.7-6.3-4.9-9.9-6.1-.6-.2-1.2-.4-1.7-.5-.3,0-8.1.6-10.1,1.1,0,0,0,0,0,0-2,.5-2.8,1.7-3.7,3.6Z"/><path class="cls-3" d="M77.3,78.8c-.8,0-1.5,1.3-1.5,3s.7,3,1.5,3,1.5-1.3,1.5-3-.7-3-1.5-3Z"/><path class="cls-10" d="M77,283.5c.3,2.8.5,6,.7,9.6v.2c0,0,0,0,0,0,2-.5,9.8-1.1,10.1-1.1.5.1,1.1.3,1.7.5h0c-.2-1.2-.4-4.9-.6-9.5h-.4c-3.8-1.2-8-1.1-11.7.3Z"/><path class="cls-6" d="M103.4,143.7c.8-.5,1.3-.8,1.1-1-2.1-4.3-10.3-19.3-13.4-22.7-1.2-1.3-2.8-3.3-5.3-3.9h0c-.7,2.5-1.4,5-2.1,7.6h.1c.9,3.3,1,5.7,1.1,9.1,0,1.8.1,3.6.1,5.3h0c1.3,2.3,7.8,12.2,8.8,13,1.1-1.7,2.8-3.2,4.5-4.4,1.9-1.3,3.9-2.4,5.1-3.1Z"/><path class="cls-9" d="M84,172c.7,4.6,1.6,9.6,2.1,16,1.6-.4,2.5-.6,3.4-3.2.7-2,1.1-3.8,1.8-5.8,1.5-4.7,4.3-10.6,8-14.3,4.9-5,11.1-11.3,4.1-20.9-1.2.7-3.2,1.7-5.1,3.1h0c-3.8,2.8-5,7.7-6.9,11.6-.9,1.8-2.1,3.1-3.3,4.6-.8,1-4.1,8.3-4.1,8.9s0,0,0,0Z"/><path class="cls-2" d="M84.4,81.2s-.8,1.6-.8,6.7c0,.8,0,1.6,0,2.6,0,.7,0,1.4,0,2-.3,4.8-2.3,9.4-5.9,12.5-1.9,1.7-3.6,3.1-5.2,4.2-5.4,3.8-9.8,3.7-20.4-2.7-1.4-.9-5.1-3.4-7.3-9.2-.8-2-1.3-4.4-1.5-7.3"/><path class="cls-2" d="M61.5,72.7c-3.9-1.7-8.8-.2-9.4,1.5.8.5,1.7.6,2.8.5,1.5,0,3-.2,4.5-.3.7,0,1.4,0,1.9-.4.5-.3.3-1.3.3-1.3Z"/><path class="cls-2" d="M51.8,114c0-.1,0-.2,0-.4.2-2.3.4-3.7.4-7.2"/><path class="cls-2" d="M85.7,116.2c2.5.5,4.1,2.5,5.3,3.9,3.1,3.3,11.3,18.4,13.4,22.7.2.2-.3.6-1.1,1-1.2.7-3.2,1.7-5.1,3.1-1.7,1.2-3.4,2.6-4.5,4.4,0,.1-.2.3-.3.4"/><path class="cls-2" d="M73,113.5s0,0,.1,0c2.7.7,5.4,1,7.9,1.4"/><path class="cls-2" d="M44.5,125.2c0,.2.1.4.2.6.8,2.6.7,6.5-.8,8.7-.8,1.1-1.9,2.5-3.1,4.1-3,3.7-6.9,8.2-9.4,11-.4-.1-1-.5-1.8-.9-2.8-1.6-7.7-4.9-9.5-8-.3-.5-.5-1-.7-1.5-.6-2.3,14.9-21.8,20.7-23.9"/><path class="cls-2" d="M51.8,113.6s0,0,0,0c0,0-.1.1-.4.2-.7,0-2.2.1-4.2.3"/><path class="cls-2" d="M84,172c.7,4.6,1.6,9.6,2.1,16"/><path class="cls-2" d="M83.7,123.8c.9,3.3,1,5.7,1.1,9.1,0,1.8.1,3.6.1,5.3,0,6.6-.4,12.5-1.3,19.4-.8,5.4-.4,9.7.3,14.4"/><path class="cls-2" d="M40.9,138.5s0,0,0,0c.3,3.6,1.6,20,1.3,23.5-.1,1.7.3,7.3.2,10.1,0,0,0,0,0,0"/><path class="cls-2" d="M75.9,81.8c0,1.7.7,3,1.5,3s1.5-1.3,1.5-3-.7-3-1.5-3-1.5,1.3-1.5,3Z"/><path class="cls-2" d="M55.9,81.9c0,1.9.8,3.4,1.8,3.4s1.8-1.5,1.8-3.4-.8-3.4-1.8-3.4-1.8,1.5-1.8,3.4Z"/><path class="cls-2" d="M73.4,91.5c0,2.4-7.5,3.1-9.5,2"/><path class="cls-2" d="M74,98.6c-.1,0-.3,0-.4.1-5.1,1.7-16-.8-17-1.7,2,2.8,2.8,3.2,4.5,4.2,1.8,1,5.3,1.4,7.1,1.2,2.9-.4,4.2-1.5,5.5-3.6"/><path class="cls-2" d="M41.7,188.3c18.9,7.7,40.6,2.5,44.4-.3"/><path class="cls-1" d="M40.4,187.7c.3.1.7.3,1,.4s.1,0,.2,0"/><path class="cls-2" d="M103,143.2c.1.2.3.3.4.5,7,9.5.8,15.9-4.1,20.9-3.7,3.8-6.4,9.7-8,14.3-.7,2-1.1,3.8-1.8,5.8-1,2.6-1.8,2.8-3.4,3.2"/><path class="cls-1" d="M85,138.1c1.3,2.3,7.8,12.2,8.8,13,0,0,.1,0,.1,0"/><path class="cls-1" d="M84,172s0,0,0,0"/><path class="cls-2" d="M84,171.9s0,0,0,0"/><path class="cls-1" d="M98.7,146.7c-.1,0-.3.2-.4.3-3.8,2.7-5,7.6-6.9,11.5-.9,1.8-2.1,3.1-3.3,4.6-.8,1-4.1,8.3-4.1,8.9"/><path class="cls-1" d="M29.8,148.5c0,0-.1.1-.2.2-1.2,1.3-2.8,3-3.4,3.7"/><path class="cls-1" d="M20.1,140.7s0,0,0,0c-2.5,3.5-4.7,6.8-5.1,7.8-2.1,4.9,3.4,16.6,7.4,20.2,2.9,2.6,9.2,7.5,11.9,10.5"/><path class="cls-1" d="M39.8,172c-5.3-1.1-8.3-12.3-10.4-15.4-1.2-1.9-2.1-3.1-3.1-4.2-1.2-1.3-2.6-2.2-5-3.6"/><path class="cls-1" d="M41.6,188.2c0,0-.1,0-.2,0-1.2-.5-2.2-1-2.6-1.3-2-1.5-5.3-4.9-4.5-7.6"/><path class="cls-2" d="M41.7,188.3s0,0,0,0"/><path class="cls-1" d="M47.5,174.4c.4.4,1.3,1,2.2,1.7,2,1.5,3.8,3.5,0,4.9,1,1.7-.2,3.1-1.4,3.4,1.3,1.3-.7,2.7-1.6,2.8.4,2.5-2.5,2-5,1.1"/><path class="cls-1" d="M39.8,172c.7.1,1.6.2,2.6.2,3.4.1,7.6.2,7.3,3.9,0,0,0,0,0,0"/><path class="cls-2" d="M72.6,108.9c0,0,0,.2,0,.3-.1,1.4.1,2.8.4,4.3,0,0,0,0,0,0"/><path class="cls-2" d="M73.1,72.8s0,0,0,0"/><path class="cls-2" d="M73.1,72.8h0"/><path class="cls-2" d="M73.1,72.8c3.5-1.4,8.1,0,8.7,1.4-.7.4-1.5.5-2.5.4-1.4,0-2.7-.2-4.1-.3-.6,0-1.3,0-1.8-.4s-.8-.8-.3-1.2"/><path class="cls-2" d="M73.1,72.8s0,0,0,0h0"/><path class="cls-1" d="M65.5,208.5c-1.7,8.6-2.8,28.9-2.8,28.9-2.1,0-4.1,0-6-.1-5.5-.3-10.2-1.2-14.8-2.9-2.1-.8-4.3-1.8-6.4-3-.1,0-.3-.1-.4-.2"/><path class="cls-1" d="M86,187.9c1.7,6.9,2.7,10.8,3.5,16.6,1,6.6,2.3,20.5,3.5,28.4-1.3.8-3.7,1.6-6.7,2.3-4.2,1-9.7,1.7-15.8,2-1.2,0-2.4,0-3.6.1h0"/><path class="cls-1" d="M35.5,231.5s0,0,0-.2c.2-2.2,2.7-25.8,4.1-33.9,0,0,1.6-7.9,1.9-9.3h0c0-.1,0-.2,0-.2"/><path class="cls-1" d="M86.5,235.5c1.7,8.6,2.3,16.6,2,22-.2,2.6.1,16.1.5,25.7.2,4.6.4,8.3.6,9.5"/><path class="cls-1" d="M70.7,237.1s0,0,0,.1c-1.2,7.8-.2,17.7.4,19.9,2.9,10.8,4.9,17,5.9,26.3.3,2.8.5,6,.7,9.6"/><path class="cls-1" d="M56.7,237.5c-.3,3.5-.3,7.8-.6,11.3-.6,8.2-1.3,16.5-3.1,24.5-.6,2.8-1.3,6.1-1.6,10.1-.2,2.9-.3,6.2,0,10"/><path class="cls-1" d="M40.3,234.4c-.4,3.6-.3,1.4-.9,4.7-.6,3.5-1.3,8.1-1.7,12-.7,6.7,1.5,19.4,1.7,32.3,0,3.4,0,6.8-.3,10.1"/><path class="cls-1" d="M65.5,208.5c-.1,11.2,1.6,20,1.6,28.7"/><path class="cls-2" d="M90.4,72c-1-11.7-10-24.8-21.8-25.7s-28.6,8-30.3,17.8c-3.2,17.9-3.1,34.6,2.2,51.1,1.1,3.6,2.5,7.1,4.2,10.7,1.2,2.5,2.5,5,3.9,7.5.7,1.2,2.4.6,2.2-.8-.7-4.5-1.7-9.2-2.8-13.9-.3-1.5-.6-3-1-4.5-1.2-5.6-2.1-11.3-2.2-16.9,0-1.4,0-2.8,0-4.2,1-15.1,10.9-27.9,25.4-36.2"/><path class="cls-2" d="M70.4,56.9c10.2,9.1,13,17.8,13.2,30.9,0,.8,0,1.7,0,2.6s0,1.3,0,2c-.2,7.1-1.5,14.8-2.6,22.5-.2,1.3-.3,2.6-.5,3.9-.5,4.4-.9,8.7-.8,12.8,0,1,1.4,1.2,1.7.2.7-2.8,1.5-5.5,2.2-8.1.7-2.6,1.4-5.1,2.1-7.6,3.8-14.4,6.5-27.3,4.7-44.2"/><path class="cls-2" d="M51.4,113.9c.9,1,1.9,1.9,3,2.6,2.4,1.5,5.2,2.4,8,2.3,2.8,0,5.7-1,8-2.6,1.1-.8,2.1-1.6,2.9-2.7,0,0-.1,0-.2-.1,0,0-.1,0-.2,0-.2,0-.3-.1-.5-.2"/><path class="cls-2" d="M48.7,118.5c1.7-1.2,3.6-1.9,5.8-2h0"/><path class="cls-2" d="M70.1,116.3c.1,0,.2,0,.3,0,3.4.2,6.7,1,9.8,2.5"/><path class="cls-1" d="M72.1,160.1h-15.4c0-4.1.8-7.3,2-9.8,1-2.1,2.8-4.1,5.3-6.2,1-.8,1.7-1.5,2-2.1.4-.6.6-1.3.6-2s-.2-1.2-.5-1.6c-.3-.4-.8-.6-1.3-.6-.8,0-1.4.2-2,.6-.6.4-1.4,1.2-2.2,2.5l-3.8-3.5c1.1-1.7,2.3-3,3.4-3.7,1.3-.9,2.8-1.3,4.7-1.3s4,.6,5.3,1.9c1.2,1.3,1.9,3,1.9,5.2s-.3,3.1-.9,4.3c-.6,1.3-1.8,2.6-3.3,3.9-1.8,1.5-3,2.7-3.8,3.8-.7,1-1.1,2.1-1.2,3.2h9.4v5.4Z"/><path class="cls-1" d="M38.2,294.1c-2.4,1.1-6.7,3.7-7.4,6.1-.3,1.2-.3,6.3.6,7.3,1,1,2.7,1.1,4.2,1.2,4.8,0,9.6.1,14.4,0,1.7,0,5.1.3,6.3-.9,1.5-1.4.5-9.6-.5-11.2-1.3-2-2.4-2.5-4.4-3-.5-.1-1-.2-1.6-.4-2.7-.6-6.5-1.2-10.3.4-.4.2-.8.4-1.2.6"/><path class="cls-1" d="M89.5,292.7c-.6-.2-1.2-.4-1.7-.5-.3,0-8.1.6-10.1,1.1,0,0,0,0,0,0-2,.5-2.8,1.7-3.7,3.6-.9,1.8-1.4,10,.4,11.1,1.3.8,17.2,1.3,21.6,1.1.4,0,3-.6,3.4-.8,1.3-.6.7-8.2,0-9.4-1.3-2.7-6.3-4.9-9.9-6.1"/><path class="cls-1" d="M39.2,283.4c0,0,.1,0,.2,0,3.6-1.1,8.3-.8,12,0,0,0,.1,0,.2,0"/><path class="cls-1" d="M76.8,283.5h.1c3.7-1.5,7.9-1.6,11.7-.3"/></svg>