<?xml version="1.0" encoding="UTF-8"?><svg id="latinAmerica" xmlns="http://www.w3.org/2000/svg" width="235" height="321.9" viewBox="0 0 235 321.9"><defs><style>.cls-1,.cls-2{fill:none;stroke:#000;stroke-linecap:round;stroke-linejoin:round;}.cls-2{stroke-width:.5px;}.cls-3{fill:#7599bb;}.cls-3,.cls-4,.cls-5,.cls-6,.cls-7,.cls-8,.cls-9,.cls-10,.cls-11{stroke-width:0px;}.cls-4{fill:#3d8e3d;}.cls-5{fill:#231f1d;}.cls-6{fill:#dbdbdb;}.cls-7{fill:#a0796a;}.cls-8{fill:#a07a6a;}.cls-9{fill:#fff;}.cls-10{fill:#050200;}.cls-11{fill:#67b96a;}</style></defs><path class="cls-9" d="M36.6,173.1c-.1.7-.2,1.4-.3,2.2h.3c2.3,3.1,16.5,11.5,27.1,11.5,19.4,0,23.6-7.4,25.7-9,0-1.9,0-3.9,0-5.9h0c-12.4,9.9-31.2,11.6-48.2.7-.5.3-1,.5-1.3.5-1.3.2-2.3.2-3.1,0Z"/><path class="cls-9" d="M59.3,64.3c-.9-.3,3.7,5.9,9.4,5.7,3.3-.1,5.6-1.2,6.9-4.9h0c-4.1,2.1-11.9.7-16.2-.8Z"/><path class="cls-3" d="M90.5,187.9c-.7-5.7-1-6.1-1.2-10.2-2,1.5-6.2,9-25.7,9s-24.8-8.4-27.1-11.4h-.3c-1.6,11.4-2.7,29-3.1,43.8-.7,23.4-3.2,70.9-3.2,70.9.1.2.3.4.5.6,2.7,2.6,12.2,4.7,19.2,4.1,1.3-.1,2.5-.3,3.5-.6,0-.8,1.7-55.4,4.3-72.1,2.7-17.5,4.7-29,6.2-33.8,0,2.9,0,6.2,1.9,21.2,2.4,19.4,6.2,79.8,6.2,82.2,1.5.2,3,.5,4.4.7h0c8.8,1.4,15.7,2.3,21.3-.6,0,0,.2,0,.2-.1-1.6-9.6-6.1-93.8-7.2-103.7Z"/><path class="cls-7" d="M87.8,150.5c.4,6.5,1,12.5,1.3,18.1h0c2.5-.9,5.1-5.2,5.4-8,.9-7.4,5.9-11.3,9.7-16.3,5.2-6.8,7.8-12.2,5.4-20.6-.5-1-.7-1.9-1.7-4.4h0c-3.6,1.3-8.4,4.3-11.5,6.8h.1c1.2,2.9,2,4.4,2.1,4.5-1.2,2.4-1.1,3.9-2.6,7.7-1,2.4-6.7,11.2-7.4,12.2h-.8Z"/><path class="cls-9" d="M61.9,113.1h3.1s-.2,18.5-.2,18.5h5.5c0,0,.3-25.1.3-25.1h-4.6c-.3,1-.7,1.7-1.3,2.1s-1.5.7-2.7.8v3.7Z"/><path class="cls-7" d="M80.2,49.4c-.8,0-1.4-1.3-1.4-2.8s.6-2.8,1.4-2.8,1.4,1.3,1.4,2.8-.6,2.8-1.4,2.8ZM75.6,65.1c-1.3,3.7-3.6,4.8-6.9,4.9-5.7.2-10.3-6-9.4-5.7,4.4,1.5,12.1,2.9,16.2.7h0ZM88.6,46.5c0-2.5,0-3.3,0-4.1,0-.7,0-1.3.1-3.1-.9-6-1.2-6.5-2.8-10.7-1.7-4.6-11.3-4.6-16.3-4.9-6.5-.4-14.1-.4-16.7,4.5-1.8,3.5-5.3,13.4-6,14.7-.7,1.3-2.8,1.1-2.8-.4h0c-.4-1.2-1.4-1.8-2.4-1.7-.3,0-.7.1-1,.4-1.2.8-1.9,2.8-1.9,4.6,0,1.9.5,3.7,1.2,5.3.6,1.5,1.4,2.9,2.5,3.7.7.5,1.5.7,2.3.5h0c1.2,8,6.5,12.8,8.9,15.5.6.7,1.2,1.4,1.8,2,8.8,9.1,14.4,8,19,4,2.6-2.2,4.8-5.3,7.1-8,2.7-3.2,4.9-6.6,6-12.3.6-2.8.9-6.1,1-10.1ZM60.9,46.8c0,1.8-.8,3.2-1.7,3.2s-1.7-1.5-1.7-3.2.8-3.2,1.7-3.2,1.7,1.5,1.7,3.2Z"/><path class="cls-7" d="M41,172.5c.9-.6,1.6-1.7.8-3,1.3-.3,2.8-2,1.9-4.5,4.3-1.2,2.5-4.2.6-6.6.5-3.1-1.4-4.3-3.9-4.9-2.5-.6-5.6-.5-7.4-1.1v-.3c-2.2-5.5-4.7-13.1-6.5-17.7-.8-2.1-1.5-3.8-2.3-5.1.2-.2,1.3-2,3.3-4.9h.1c-3.1-3.3-7.7-6.6-11.8-8.5h0c-5.5,11.4-4.6,13-4.6,13,2.7,9,14.5,26.3,17.1,30.9-1.3,3.5,2.5,8.7,4.5,11.1,1,1.2,1.9,2,3.8,2.3.8,0,1.8,0,3.1,0,.4,0,.9-.2,1.3-.5Z"/><path class="cls-7" d="M88.7,42.4c0,.8,0,1.6,0,4.1,0,4.1-.4,7.4-1,10.1h.3c1.5,1.1,3.7-2.7,4.1-5.3.3-2,0-4-.3-6-.1-.7-.2-1.4-.6-2-.2-.3-.6-.5-1-.7-.5-.2-1.1-.3-1.4-.2Z"/><path class="cls-4" d="M39,108c1.4-4,1.7-11.8.5-17.1-.6-2.6-1.6-4.5-3-5-3.1,1.6-5.8,3.5-7.2,5.8-6.5,10.6-11.9,17.7-14.6,23.2l-.2.4c.4.1.8.3,1.2.5,4,1.8,8.7,5.2,11.8,8.3.3.3.6.6.9.9h.1c4.4-6.2,10.4-17,10.5-17.1h0Z"/><path class="cls-9" d="M85,84.1c-4.7-1.9-9.3-3.2-10.7-3.6,0,1.4-.1,2.9-.4,4.2,4.4-.2,8.9,1.2,12.4,3.9-.3-1.9-.8-3.5-1.3-4.4h0Z"/><path class="cls-5" d="M40.8,40.8h1c1,0,1.9.5,2.4,1.7h0c0,1.5,2.1,1.7,2.8.4.7-1.3,4.2-11.2,6-14.7,2.6-4.9,10.2-4.9,16.7-4.5,5,.3,14.6.3,16.3,4.9,1.5,4.1,1.9,4.6,2.8,10.7,0,1.8,0,2.4-.1,3.1.3,0,.9,0,1.4.2,0-5,0-9.7-2.2-19-2.3-9.9-13.6-13.8-21.1-13.6-8.4.2-17.5,2.4-22.4,10.4-3.4,5.5-4.2,12.3-3.6,20.5Z"/><path class="cls-6" d="M105.5,308.1c1.5-.9,2.6-8,1.9-9.8-.9-2.3-7-4.4-9.7-6l-.2-.5c-5.6,2.9-12.6,2-21.3.6v.6c-1.2,2.7-1.7,13.6.3,15.2,1.5,1.1,28.6.2,29.1,0Z"/><path class="cls-4" d="M107.9,119.2c.4-.2.8-.3,1.1-.4-3.1-7.6-9.8-20.9-13.1-27.1-1.6-3.1-6.3-5.7-11-7.5h0c.5,1,1,2.6,1.3,4.5,1.3,6.8,1.5,17.5,1.5,17.5,0,1,.1,1.9.2,2.9.7,1.5,4.4,11.2,7.3,17.8l.2.2c.3-.3.7-.6,1.1-.9,3.1-2.5,7.9-5.5,11.5-6.9Z"/><path class="cls-10" d="M78.8,46.6c0,1.6.6,2.8,1.4,2.8s1.4-1.3,1.4-2.8-.6-2.8-1.4-2.8-1.4,1.3-1.4,2.8Z"/><path class="cls-10" d="M59.2,50c.9,0,1.7-1.5,1.7-3.2s-.8-3.2-1.7-3.2-1.7,1.5-1.7,3.2.8,3.2,1.7,3.2Z"/><path class="cls-9" d="M55.2,78.8c-2.4,1.3-11.7,3.5-18.6,7.1,1.4.5,2.4,2.4,3,5h.1c5.2-2.8,10.7-5,16.4-6.5h.2c-.7-1.8-1-3.6-1.1-5.6Z"/><path class="cls-11" d="M70.6,106.4l-.3,25.2h-5.5c0,0,.2-18.5.2-18.5h-3.1s0-3.7,0-3.7c1.2-.1,2.1-.4,2.7-.8s1-1.2,1.3-2.2h4.6ZM56.3,84.3h-.2c-5.7,1.6-11.2,3.8-16.4,6.6h-.1c1.2,5.3.9,13.2-.5,17.1h0c.9,2.5,2.6,20.1,2.8,22.3.2,2.4-1,17.8-1.4,23.1,2.5.6,4.5,1.8,3.9,4.9,1.9,2.4,3.6,5.4-.6,6.6.8,2.5-.7,4.2-1.9,4.5.8,1.3.1,2.4-.8,3,17,10.9,35.8,9.2,48.2-.7h0c0-1,0-2.1-.2-3.2-.3-5.6-1-11.6-1.3-18.1-.3-6.1-.5-12.7,0-19.9.4-5.9.4-13.8,0-21.7,0-1-.1-2-.2-2.9,0,0-.2-10.7-1.5-17.5-3.5-2.7-8-4.1-12.4-3.9-.8,3.7-2.8,6.6-7.1,6.6s-8.8-2.8-10.5-6.9Z"/><path class="cls-8" d="M73.9,84.7c.3-1.3.4-2.8.4-4.2.1-1.4,0-1.7.2-3.7-4.6,3.9-10.2,5-19-4,0,2.6-.4,4.8-.4,6,0,2,.5,3.9,1.1,5.5,1.7,4.2,5.2,6.9,10.5,6.9s6.3-2.9,7.1-6.6Z"/><path class="cls-6" d="M18.3,299.8c-.6,6.4,3.7,8.8,5.4,8.9,5.5.1,24.5,1.1,25.9-.6,1.7-2.1,1.4-10.1.1-12.6v-.7c-7.1.6-16.5-1.6-19.3-4.1h-.5c-2.8,1.7-11.3,5.5-11.6,9.2Z"/><path class="cls-1" d="M89.3,177.8c.2,4.1.5,4.4,1.2,10.2,1.2,9.9,5.6,94.1,7.2,103.7,0,0-.2,0-.2.1-5.6,2.9-12.6,2-21.3.6h0c-1.4-.2-2.9-.5-4.4-.7,0-2.4-3.7-62.8-6.2-82.2-1.9-15.1-1.9-18.3-1.9-21.2"/><path class="cls-1" d="M53.2,294.1h0c-1.1.3-2.2.5-3.5.6-7,.6-16.5-1.6-19.2-4.1-.2-.2-.4-.4-.5-.6,0,0,2.6-47.5,3.2-70.9.4-14.8,1.5-32.4,3.1-43.8.1-.8.2-1.5.3-2.2h0"/><path class="cls-1" d="M63.7,188.2c-1.5,4.8-3.5,16.3-6.2,33.8-2.6,16.7-4.3,71.3-4.3,72.1"/><path class="cls-1" d="M88.8,38.8c0,.2,0,.4,0,.5,0,1.8,0,2.4-.1,3.1,0,.8,0,1.6,0,4.1,0,4.1-.4,7.4-1,10.1-1.2,5.6-3.3,9-6,12.3-2.3,2.7-4.5,5.8-7.1,8-4.6,3.9-10.2,5-19-4-.6-.6-1.2-1.3-1.8-2-2.3-2.7-7.7-7.4-8.9-15.4"/><path class="cls-1" d="M84.7,39.5c-1.5-1.5-7.6-1.6-9-.8"/><path class="cls-1" d="M64.1,38.9c-2.6-1.3-9.3-.5-9.8.6"/><path class="cls-1" d="M78.8,46.6c0,1.6.6,2.8,1.4,2.8s1.4-1.3,1.4-2.8-.6-2.8-1.4-2.8-1.4,1.3-1.4,2.8Z"/><path class="cls-1" d="M57.5,46.8c0,1.8.8,3.2,1.7,3.2s1.7-1.5,1.7-3.2-.8-3.2-1.7-3.2-1.7,1.5-1.7,3.2Z"/><path class="cls-1" d="M75.4,54.6c.8,5.2-5.1,5.4-9.2,5.2"/><path class="cls-1" d="M76,64.6c-.1.1-.3.2-.5.3-4.1,2.2-11.9.9-16.2-.7-.9-.3,3.7,5.9,9.4,5.7,3.3-.1,5.6-1.2,6.9-4.9"/><path class="cls-1" d="M90.1,42.6h0c0-5,0-9.8-2.2-19-2.3-9.9-13.6-13.8-21.1-13.6-8.4.2-17.5,2.4-22.4,10.4-3.4,5.5-4.2,12.3-3.6,20.5"/><path class="cls-1" d="M44.3,42.7c0,0,0-.2,0-.2-.4-1.1-1.4-1.7-2.4-1.7-.3,0-.7.1-1,.4-1.2.8-1.9,2.8-1.9,4.6,0,1.9.5,3.7,1.2,5.3.6,1.5,1.4,2.9,2.5,3.7.7.5,1.5.7,2.3.5.5-.1.9-.4,1.2-.9"/><path class="cls-1" d="M88.7,42.4s0,0,0,0c.3,0,.9,0,1.4.2.4.2.8.4,1,.7.3.6.5,1.3.6,2,.3,2,.6,4,.3,6-.4,2.7-2.5,6.4-4.1,5.3"/><path class="cls-1" d="M44.2,42.5c0,1.5,2.1,1.7,2.8.4.7-1.3,4.2-11.2,6-14.7,2.6-4.9,10.2-4.9,16.7-4.5,5,.3,14.6.3,16.3,4.9,1.5,4.1,1.9,4.6,2.8,10.7,0,0,0,.1,0,.2"/><path class="cls-1" d="M108,119.3c1,2.5,1.2,3.4,1.7,4.4"/><path class="cls-1" d="M74.3,80.5c1.3.4,6,1.6,10.7,3.6,4.6,1.9,9.3,4.5,11,7.5,3.3,6.2,10,19.5,13.1,27.1"/><path class="cls-1" d="M28.6,125.2c4.4-6.2,10.4-17,10.5-17.1"/><path class="cls-1" d="M24.2,129.2h0c.2-.2,1.3-2,3.3-4.9"/><path class="cls-1" d="M15.8,116c-5.5,11.2-4.6,12.8-4.6,12.8"/><path class="cls-1" d="M55.2,78.8c-2.4,1.3-11.7,3.5-18.6,7.1-3.1,1.6-5.8,3.5-7.2,5.8-6.5,10.6-11.9,17.7-14.6,23.2"/><path class="cls-1" d="M85,84.2c.5,1,1,2.5,1.3,4.4,1.3,6.8,1.5,17.5,1.5,17.5,0,1,.1,1.9.2,2.9.4,7.9.4,15.8,0,21.7-.5,7.2-.4,13.8,0,19.9.4,6.5,1,12.5,1.3,18.1,0,1.1.1,2.1.2,3.2,0,2,.1,4,0,5.9-2,1.5-6.2,9-25.7,9s-24.8-8.4-27.1-11.4"/><path class="cls-1" d="M39,108h0c.9,2.5,2.6,20.1,2.8,22.3.2,2.4-1,17.8-1.4,23.1h0"/><path class="cls-1" d="M109.7,123.7c2.5,8.3-.2,13.8-5.4,20.6-3.8,5-8.8,8.9-9.7,16.3-.3,2.8-2.9,7.2-5.4,8"/><path class="cls-1" d="M96.5,126.2c1.2,2.7,2,4.3,2.1,4.4"/><path class="cls-1" d="M87.8,108.8s0,0,0,.2c.7,1.5,4.4,11.2,7.3,17.8"/><path class="cls-1" d="M100.8,127.1c-1.1,1.5-1.7,2.6-2.2,3.6-1.2,2.4-1.1,3.9-2.6,7.7-1,2.4-6.7,11.2-7.4,12.2"/><path class="cls-1" d="M11.2,128.9c2.7,9,14.5,26.3,17.1,30.9"/><path class="cls-1" d="M33.1,152c-2.3-5.5-4.8-13.1-6.6-17.7-.8-2.1-1.5-3.8-2.3-5.1-1.5-2.6-3.1-4.1-6.2-6.2"/><path class="cls-1" d="M42.2,155.7c.4.7,1.3,1.6,2.1,2.7,1.9,2.4,3.6,5.4-.6,6.6.8,2.5-.7,4.2-1.9,4.5.8,1.3.1,2.4-.8,3-.5.3-1,.5-1.3.5-1.3.2-2.3.2-3.1,0-1.9-.2-2.8-1.1-3.8-2.3-2-2.4-5.8-7.6-4.5-11.1"/><path class="cls-1" d="M32.8,152.2c0,0,.1,0,.2,0,1.8.6,4.9.5,7.4,1.1,2.5.6,4.5,1.8,3.9,4.9,0,0,0,0,0,0"/><path class="cls-1" d="M74.3,80.5c0,1.4-.1,2.9-.4,4.2-.8,3.7-2.8,6.6-7.1,6.6s-8.8-2.8-10.5-6.9c-.7-1.6-1-3.5-1.1-5.5"/><path class="cls-1" d="M55.5,72.7h0c0,2.6-.4,4.8-.4,6.1"/><path class="cls-1" d="M74.5,76.8h0c-.2,2-.1,2.3-.2,3.7"/><path class="cls-1" d="M36.6,86c1.4.5,2.4,2.4,3,5,1.2,5.2.9,13.1-.5,17.1"/><path class="cls-1" d="M40.8,172.4c0,0,.1,0,.2.1,17,10.9,35.8,9.2,48.2-.7"/><path class="cls-1" d="M14.5,115.3s0,0,.1,0c.4.1.8.3,1.2.5,4,1.8,8.7,5.2,11.8,8.3.3.3.6.6.9.9"/><path class="cls-1" d="M109.1,118.8c-.4.1-.7.3-1.1.4-3.6,1.5-8.4,4.4-11.5,6.9-.4.3-.7.6-1.1.9,0,0,0,0,0,0"/><path class="cls-1" d="M39.7,90.9c5.2-2.8,10.7-4.9,16.4-6.5"/><path class="cls-1" d="M73.8,84.7s0,0,.1,0c4.4-.2,8.9,1.2,12.4,3.9,0,0,.2.2.3.2"/><path class="cls-2" d="M70.3,131.6h-5.5c0,0,.2-18.5.2-18.5h-3.1s0-3.7,0-3.7c1.2-.1,2.1-.4,2.7-.8s1-1.2,1.3-2.2h4.6c0,0-.3,25.3-.3,25.3Z"/><path class="cls-1" d="M29.9,290.6c-2.8,1.7-11.3,5.5-11.6,9.2-.6,6.4,3.7,8.8,5.4,8.9,5.5.1,24.5,1.1,25.9-.6,1.7-2.1,1.4-10.1.1-12.6"/><path class="cls-1" d="M76.1,292.9c-1.1,2.7-1.6,13.6.4,15.2,1.5,1.1,28.6.2,29.1,0,1.5-.9,2.6-8,1.9-9.8-.9-2.3-7-4.4-9.7-6"/></svg>