<?xml version="1.0" encoding="UTF-8"?><svg id="latinAmerica" xmlns="http://www.w3.org/2000/svg" width="235" height="321.9" viewBox="0 0 235 321.9"><defs><style>.cls-1{stroke-linecap:round;stroke-linejoin:round;}.cls-1,.cls-2{fill:none;stroke:#000;}.cls-2{stroke-miterlimit:10;}.cls-3{fill:#4e7495;}.cls-3,.cls-4,.cls-5,.cls-6,.cls-7,.cls-8,.cls-9,.cls-10,.cls-11{stroke-width:0px;}.cls-4{fill:#241b1b;}.cls-5{fill:#bc8c75;}.cls-6{fill:#d8bb2b;}.cls-7{fill:#9f6f56;}.cls-8{fill:#f2d949;}.cls-9{fill:#fff;}.cls-10{fill:#ecc95a;}.cls-11{fill:#020202;}</style></defs><path class="cls-10" d="M22.2,138.4c.8-.7,1.7-1.5,3.1-2.7-1.5-.7-2.8-1.6-4.3-3.1-1.3-1.2-3-4-4-6.7-3,3.1-3.9,3.7-5.2,6.1-2.8,5.1,2.3,17.3,6,21.6,2.6,3.1,7.3,8.7,9.8,12.3,0-.3.2-.6.3-.9.9-2.7,2.9-5,5.5-6.3h0c-4.5-2.6-6.1-9.5-7.7-13-1.4-3-2.1-5.4-3.5-7.4Z"/><path class="cls-6" d="M43.9,102.4c-1.1-2.1-3-3.2-5.4-3.5-3.3,1.6-5.4,5.1-8,7.6-2,1.9-14.4,15.2-14.4,15.2,0,1.2.3,2.7.9,4.3,1,2.7,2.7,5.4,4,6.7,1.5,1.5,2.9,2.3,4.3,3.1,1.3.6,2.6,1.1,4.3,1.8,3.2-3.2,9.2-12.5,12.1-17.7.4-.7.7-1.3,1-1.8,2.4-4,2.8-10.1,1.8-13.7-.2-.7-.4-1.3-.7-1.9Z"/><path class="cls-9" d="M16.8,298.7c-.4,1.4-.3,7.2.7,8.3,1.1,1.2,3,1.3,4.7,1.3,5.4,0,10.7.1,16.1,0,2,0,5.7.3,7.1-1,1.6-1.6,1.4-8.5.2-10.4-8.2,0-21.1-2.5-22.7-4-2.7,1.2-5.3,3-6,5.7Z"/><path class="cls-3" d="M27.6,165.9s0,0,0,.1c0-.4.1-.7.2-1.1-.1.3-.2.6-.3.9Z"/><path class="cls-5" d="M44.3,164.8c.6-2.7-1.3-3.9-3.7-4.5-2.1-.6-4.5-.7-6-1.2-.4-.1-.7-.3-1.1-.5h0c-2.6,1.3-4.6,3.6-5.5,6.3-.1.4-.2.7-.2,1.1-.4,3.6,2.1,7.3,3.9,9.1.9.9,4.2,3,6.3,3.2,0,0,0,0,0,0,0,0,0,0,0,0,1.1,0,1.9-.4,1.9-1.8,1,0,3.3-1.2,2.1-2.8,1.2-.2,2.7-1.6,1.9-3.6,4.2-1,2.5-3.4.6-5.3Z"/><path class="cls-3" d="M98.6,292.4c-.9-15.3-8.9-96.2-9.9-102.1-.9-5.5-.8-3.5-1.2-9.3-2.2,1.8-11.7,3.1-22.4,3.1s-25.7-2.9-27.3-5.8h0c-1.5,8.2-15,114.7-15,114.7,1.7,1.6,14.5,4,22.7,4,1.7,0,3.2,0,4.3-.3,0,0,0,0,0,0,.2-.5,7.8-65.1,12.2-93.7,0,3.6,6.5,88.3,6.6,91.4,3.2,1.1,6.2,1.8,9.1,2.2,8.4,1.2,15.2-.4,20.9-2.2,0-.4,0-1.1,0-2.1Z"/><path class="cls-4" d="M95.4,54.1c-.1-1.9-.4-4.1-.9-6.9-1.1-6.2-3.8-13.5-7.6-18.6-3.8-5-13.3-9.6-19.5-8.7-5.5-1-19,2-23.3,5.7-8.1,7-9.7,14.9-12.4,25.2-2.7,10.4.2,20.2,3.9,30.2,1.1,2.9,8.1,10.8,10.6,12.6-.1-1.3-.7-3.3-1.4-5.9-1.1-4.5-2.5-10.8-2.3-19.1h0c0-1,0-1.9.1-2.9,1.2-16.2,3.5-17.9,15.2-33.1.4,9.4,10.6,20.9,20.4,27.3.2-.2.4-.3.6-.3.5,0,1,.5,1.2,1.3,1.9,1.1,3.7,2,5.4,2.6.4.1.9.4,1.5.7,2.3,1,5.6,2.8,6.8,4,.3-5.2,2.1-6.6,1.6-14Z"/><path class="cls-7" d="M37.9,178.3s0,0,0,0h0s0,0,0,0Z"/><path class="cls-8" d="M39.7,176.5c0,1.5-.7,1.9-1.9,1.8,1.6,2.9,16.5,5.8,27.3,5.8s20.1-1.3,22.4-3.1c0-1,0-2.1.1-3.3.1-5,.2-11.7.2-18.3v-1.5c0-7.8,0-15.4,0-20.3s0-6,0-9c0-5.6-.2-11.4-.8-17.6-.4-3.4-1.1-6.2-2.4-9-3.5-1.9-8.6-3.8-12.6-3.1-1.6,3.2-5.8,5.4-10.3,4.1-2.7-.7-5-2.1-6.5-3.6h0c-3.7.8-7.9,1.6-11.3,2.9.3.6.5,1.2.7,1.9,1,3.6.5,9.8-1.8,13.7-.3.5-.6,1.1-1,1.8,0,2.4.4,15.5.5,17.2,0,13.8-1.3,19.2-1.7,23.3,2.4.6,4.3,1.8,3.7,4.5,1.9,1.9,3.5,4.3-.6,5.3.8,2-.6,3.4-1.9,3.6,1.2,1.6-1,2.8-2.1,2.8ZM59.7,134.7l7.6-17.3h4.5c0-.1.5,16.3.5,16.3h1.8c0,0,.1,5.1.1,5.1h-1.8s.1,5.2.1,5.2h-4.1c0,.1-.1-5.2-.1-5.2l-8.5.2v-4.4Z"/><path class="cls-9" d="M38.7,98.8c0,0-.2,0-.3.1,2.5.3,4.3,1.4,5.4,3.5,3.4-1.3,7.5-2.1,11.3-2.9h0c-1.1-1.2-1.8-2.5-1.7-3.7h-.1c-1.4,0-12.9,2.2-14.6,3Z"/><path class="cls-4" d="M42.6,68.6c-.2,8.3,1.1,14.7,2.3,19.1.9,1.9,7.8,5.1,7.8,5.7h.9c.1-1.5.2-3.2.2-5.6-4-2.5-11-7.3-11.2-19.3Z"/><path class="cls-5" d="M53.8,87.8c.7.4,1.3.8,1.7,1.1,7.6,5.1,12.4,5.5,16.6,3.2,3-1.6,5.6-4.5,8.5-8,3.1-3.6,5.7-12.4,6.5-20-.6-.3-1.1-.5-1.5-.7-1.7-.6-3.5-1.5-5.4-2.6.1.4.2.9.2,1.4,0,1.5-.6,2.8-1.4,2.8s-1.4-1.2-1.4-2.8.3-2.1.8-2.5c-9.8-6.3-20-17.8-20.4-27.3-11.7,15.3-14,16.9-15.2,33.1,0,1-.1,2-.1,2.9h0c.1,12,7.2,16.8,11.2,19.3ZM54.1,54.8c-4.7,1.8-5.6-2.4-.7-3.5,2.5-.6,5-.7,7.5-.2.5.1,1.1.2,1.6.6.5.4.8,1.1.8,1.9,0,.8-.4,1.9-.9,1.6-2.1-1.4-6-1.2-8.2-.4ZM55.9,62.4c0-1.8.8-3.2,1.7-3.2s1.7,1.4,1.7,3.2-.8,3.2-1.7,3.2-1.7-1.4-1.7-3.2ZM61.3,83c-2.1-1.6-2.2-2.5-4.3-5.6,1.2,1.4,12.9,4.6,18.8,1.6-1.5,3.2-3.1,5-6.6,5.5-2.2.3-5.8.1-7.9-1.5Z"/><path class="cls-4" d="M53.4,51.3c-4.9,1.1-4,5.3.7,3.5,2.2-.8,6.1-1,8.2.4.5.3.9-.8.9-1.6,0-.8-.3-1.5-.8-1.9-.5-.4-1-.5-1.6-.6-2.5-.5-5-.3-7.5.2Z"/><path class="cls-5" d="M72,98.9c.4-.9.7-1.9.6-2.9,0-.6-.1-1.3-.4-2,0-.3,0-.5,0-.6,0-1.1-.2.2-.2-1.4-4.1,2.3-9,1.9-16.6-3.2s-1-.7-1.7-1.1c0,2.4,0,4.1-.2,5.6,0,.7-.1,1.5-.2,2.2,0,0,0,0,0,.1,0,1.2.6,2.5,1.7,3.7s3.9,2.9,6.5,3.6c4.5,1.2,8.7-.9,10.3-4.1Z"/><path class="cls-11" d="M57.7,59.3c-.9,0-1.7,1.4-1.7,3.2s.8,3.2,1.7,3.2,1.7-1.4,1.7-3.2-.8-3.2-1.7-3.2Z"/><path class="cls-9" d="M57,77.4c2.1,3.1,2.2,4.1,4.3,5.6,2.1,1.6,5.7,1.8,7.9,1.5,3.5-.6,5.1-2.3,6.6-5.5-5.9,3-17.6-.2-18.8-1.6Z"/><path class="cls-9" d="M67.3,117.3l-7.6,17.3v4.4c.1,0,8.6-.2,8.6-.2v5.3c.1,0,4.3-.1,4.3-.1v-5.2c-.1,0,1.6,0,1.6,0v-5.2c-.1,0-1.9,0-1.9,0l-.5-16.4h-4.5ZM64.4,134c.5-.9,1-2.1,1.7-3.6l.4-.8c.6-1.5,1.2-3.1,1.6-4.7,0,1.3,0,3.1,0,5.5v3.5c.1,0-1.1,0-1.1,0-1.2,0-2.1,0-2.6.1Z"/><path class="cls-8" d="M66.1,130.3c-.7,1.5-1.2,2.8-1.7,3.6.5,0,1.3-.1,2.6-.1h1.2s-.1-3.5-.1-3.5c0-2.3,0-4.2,0-5.5-.4,1.6-1,3.2-1.6,4.7l-.4.8Z"/><path class="cls-4" d="M72.1,92.1c0,1.6.1.3.2,1.4h.9c6.1-1.4,9.9-5.3,12.5-11,.4,1,.7,2,1.1,3,7.6-8.4,10.9-20.4,8.7-31.5.5,7.4-1.3,8.9-1.6,14-1.2-1.1-4.5-2.9-6.8-4-.8,7.6-3.4,16.4-6.5,20-2.9,3.5-5.5,6.4-8.5,8Z"/><path class="cls-9" d="M72.7,96.1c0,1-.2,2-.6,2.9,3.9-.7,9.1,1.2,12.6,3.1-.8-1.8-1.8-3.5-3.1-5.2v-.2c-2.1-.5-6.9-.6-8.7-.6h-.2Z"/><path class="cls-9" d="M77.8,296.7c-1,2-1.3,9.9.8,11.1,1.4.8,19.3,1.4,24.2,1.2.5,0,3.4-.7,3.8-.8,1.5-.7.8-8.9,0-10.2-1.3-2.4-4.4-4.1-8-5.5,0,1,0,1.7,0,2.1-5.7,1.8-12.5,3.4-20.9,2.2Z"/><path class="cls-11" d="M78.3,59.8c-.5.4-.8,1.4-.8,2.5s.6,2.8,1.4,2.8,1.4-1.2,1.4-2.8,0-1-.2-1.4c-.6-.3-1.2-.7-1.8-1.1Z"/><path class="cls-11" d="M78.9,59.5c-.2,0-.4,0-.6.3.6.4,1.2.7,1.8,1.1-.2-.8-.7-1.3-1.2-1.3Z"/><path class="cls-6" d="M103.9,130.6c.5-.9.9-1.9,1.4-3.1-3.9-3.9-12.5-21.4-16.2-25.6-2.1-2.3-4.1-4.4-7.5-5.2,0,0,0,0,0,0v.2c1.2,1.8,2.2,3.5,3,5.2,1.3,2.8,2,5.6,2.4,9,.7,6.2.8,12,.8,17.6h.2c1.1,1.3,3.9,5.3,5.7,8.6.4-.1.7-.2,1.1-.3,5.3-1.7,7.3-2.9,9.1-6.4Z"/><path class="cls-5" d="M87.8,159.4c0,6.7,0,13.3-.2,18.3,1.7-.4,2.9-.4,3.9-3.2.8-2.1,1.2-4,1.9-6.2.2-.5.4-1,.6-1.5h0c-1.1-3.3-3-5.8-6-7.4h0Z"/><path class="cls-10" d="M98,142.1c-1.6,2.6-2.7,5.1-4,7.8-.9,1.9-6,7.7-6,8h-.2v1.5h0c3,1.6,4.9,4.1,6,7.3h0c1.7-4,4.8-6.6,8.1-10.2,5-5.4,8.4-15.4,4.5-20.9-.8-1.1-1-1.8-2.7-5.1-1.8,3.4-3.8,4.7-9.1,6.4,1.3,2.5,2.5,4.5,3.2,5.2Z"/><path class="cls-2" d="M72.3,94.1c.2.7.4,1.3.4,2,0,1-.2,2-.6,2.9-1.6,3.2-5.8,5.4-10.3,4.1-2.7-.7-5-2.1-6.5-3.6s-1.8-2.4-1.7-3.7c0,0,0,0,0-.1,0-.8.1-1.5.2-2.2.1-1.6.2-3.2.2-5.6h0"/><path class="cls-1" d="M72,93.5c.1.2.2.4.3.6"/><path class="cls-2" d="M72.8,96.1c1.8,0,6.7.1,8.8.6,0,0,0,0,0,0,3.3.8,5.4,2.9,7.5,5.2,3.7,4.2,12.3,21.6,16.2,25.6-.5,1.2-.9,2.3-1.4,3.1-1.8,3.4-3.8,4.7-9.1,6.4-.3.1-.7.2-1.1.3-.1,0-.3,0-.4.1"/><path class="cls-2" d="M53.3,95.8c-1.4,0-12.9,2.2-14.6,3,0,0-.2,0-.3.1-3.3,1.6-5.4,5.1-8,7.6-2,1.9-14.4,15.2-14.4,15.2,0,1.2.3,2.7.9,4.3,1,2.7,2.7,5.4,4,6.7,1.5,1.5,2.9,2.3,4.3,3.1,1.3.6,2.6,1.1,4.3,1.8,3.2-3.2,9.2-12.5,12.1-17.7.4-.7.7-1.3,1-1.8,0-.1.1-.2.1-.3"/><path class="cls-2" d="M81.6,96.8c1.2,1.8,2.3,3.5,3.1,5.2,1.3,2.8,2,5.6,2.4,9,.7,6.2.8,12,.8,17.6,0,3.1,0,6.1,0,9,0,4.8,0,12.5,0,20.3v1.5c0,6.7,0,13.3-.2,18.3,0,1.2,0,2.3-.1,3.3-2.2,1.8-11.7,3.1-22.4,3.1s-25.7-2.9-27.3-5.8c0,0,0,0,0,0"/><path class="cls-2" d="M41.8,119.6v.2c0,2.4.4,15.5.5,17.2,0,13.8-1.3,19.2-1.7,23.3,0,.1,0,.3,0,.4"/><path class="cls-2" d="M103.8,130.3c0,0,0,.2.1.3,1.7,3.2,2,4,2.7,5.1,3.9,5.5.5,15.5-4.5,20.9-3.3,3.6-6.4,6.2-8.1,10.3-.2.5-.4,1-.6,1.5-.7,2.2-1.1,4.1-1.9,6.2-1,2.8-2.2,2.8-3.9,3.2"/><path class="cls-2" d="M94.8,137c1.3,2.5,2.5,4.5,3.2,5.2,0,0,0,0,0,0"/><path class="cls-2" d="M88.1,128.7c1.1,1.3,3.9,5.3,5.7,8.6,0,0,0,0,0,.1"/><path class="cls-2" d="M101.5,137.4c-1.4,1.6-2.5,3.2-3.5,4.7-1.6,2.6-2.7,5.1-4,7.8-.9,1.9-6,7.7-6,8s0,0,0,0"/><path class="cls-2" d="M25.4,135.6c-1.4,1.3-2.4,2-3.1,2.7h0"/><path class="cls-2" d="M17,125.9c-3,3.1-3.9,3.7-5.2,6.1-2.8,5.1,2.3,17.3,6,21.6,2.6,3.1,7.3,8.7,9.8,12.3,0,0,0,0,0,.1,0,0,.1.2.2.3"/><path class="cls-2" d="M34.5,159.1c-.4-.1-.7-.3-1.1-.5-4.5-2.5-6.1-9.4-7.7-12.9-1.4-3-2.1-5.4-3.5-7.4-.9-1.3-2-2.4-3.8-3.3"/><path class="cls-2" d="M42.2,162.7c.4.5,1.3,1.3,2.1,2.1,1.9,1.9,3.5,4.3-.6,5.3.8,2-.6,3.4-1.9,3.6,1.2,1.6-1,2.8-2.1,2.8,0,1.5-.7,1.9-1.9,1.8h0c-2.1-.2-5.4-2.2-6.3-3.2-1.8-1.8-4.3-5.5-3.9-9.1,0-.4.1-.7.2-1.1"/><path class="cls-2" d="M34.5,159.1c1.6.5,4,.7,6,1.2,2.4.6,4.3,1.8,3.7,4.5,0,0,0,0,0,0"/><path class="cls-2" d="M87.6,181c.4,5.8.3,3.8,1.2,9.3.9,5.9,8.9,86.8,9.9,102.1,0,1,0,1.7,0,2.1-5.7,1.8-12.5,3.4-20.9,2.2-2.8-.4-5.9-1.1-9.1-2.2,0-3.1-6.6-87.8-6.6-91.4"/><path class="cls-2" d="M64.7,189.9c-.5,1.1-1.4,6-2.6,13.2-4.4,28.6-12,93.1-12.2,93.7,0,0,0,0,0,0-1.2.2-2.7.3-4.3.3-8.2,0-21.1-2.5-22.7-4,0,0,13.5-106.5,15-114.7,0,0,0,0,0,0v-.2"/><path class="cls-1" d="M22.9,293c-2.7,1.2-5.3,3-6,5.7-.4,1.4-.3,7.2.7,8.3,1.1,1.2,3,1.3,4.7,1.3,5.4,0,10.7.1,16.1,0,2,0,5.7.3,7.1-1,1.6-1.6,1.4-8.5.2-10.4"/><path class="cls-1" d="M77.8,296.7c-1,2-1.3,9.9.8,11.1,1.4.8,19.3,1.4,24.2,1.2.5,0,3.4-.7,3.8-.8,1.5-.7.8-8.9,0-10.2-1.3-2.4-4.4-4.1-8-5.5,0,0,0,0,0,0"/><path class="cls-1" d="M72.3,94.1h0c0-.3,0-.5,0-.6,0-1.1-.2.2-.2-1.4"/><path class="cls-1" d="M75.8,79c-5.9,3-17.6-.2-18.8-1.6,2.1,3.1,2.2,4.1,4.3,5.6,2.1,1.6,5.7,1.8,7.9,1.5,3.5-.6,5.1-2.3,6.6-5.5Z"/><path class="cls-1" d="M87.3,60.5c0,1.2-.1,2.4-.3,3.6-.8,7.6-3.4,16.4-6.5,20-2.9,3.5-5.5,6.4-8.5,8-4.1,2.3-9,1.9-16.6-3.2s-1-.7-1.7-1.1c-4-2.5-11-7.3-11.2-19.3"/><path class="cls-1" d="M53.4,51.3c2.5-.6,5-.7,7.5-.2.5.1,1.1.2,1.6.6.5.4.8,1.1.8,1.9,0,.8-.4,1.9-.9,1.6-2.1-1.4-6-1.2-8.2-.4-4.7,1.8-5.6-2.4-.7-3.5Z"/><path class="cls-1" d="M78.3,59.8c-.5.4-.8,1.4-.8,2.5s.6,2.8,1.4,2.8,1.4-1.2,1.4-2.8,0-1-.2-1.4c-.2-.8-.7-1.3-1.2-1.3s-.4,0-.6.3Z"/><path class="cls-1" d="M55.9,62.4c0,1.8.8,3.2,1.7,3.2s1.7-1.4,1.7-3.2-.8-3.2-1.7-3.2-1.7,1.4-1.7,3.2Z"/><path class="cls-1" d="M74.7,72.2c-1.9,1.7-4.4,3.8-8.8,1.6"/><path class="cls-2" d="M44.9,87.7c.7,2.6,1.3,4.6,1.4,5.9-2.5-1.9-9.5-9.7-10.6-12.6-3.7-10-6.6-19.9-3.9-30.2,2.7-10.4,4.2-18.3,12.4-25.2,4.3-3.7,17.8-6.7,23.3-5.7,6.2-.8,15.7,3.7,19.5,8.7,3.8,5,6.5,12.3,7.6,18.6.5,2.8.8,5.1.9,6.9.5,7.4-1.3,8.9-1.6,14-1.2-1.1-4.5-2.9-6.8-4-.6-.3-1.1-.5-1.5-.7-1.7-.6-3.5-1.5-5.4-2.6-.6-.3-1.2-.7-1.8-1.1-9.8-6.3-20-17.8-20.4-27.3-11.7,15.3-14,16.9-15.2,33.1,0,1-.1,2-.1,2.9h0c-.2,8.3,1.1,14.7,2.3,19.1Z"/><path class="cls-1" d="M44.9,87.7c.9,1.9,7.8,5.1,7.8,5.7s0,0,0,0"/><path class="cls-1" d="M95.2,52.9c0,.4.2.8.2,1.1,2.2,11.1-1.1,23.1-8.7,31.5-.4-1-.7-2-1.1-3-2.6,5.7-6.4,9.6-12.5,11"/><path class="cls-2" d="M33.4,158.7c-2.6,1.3-4.6,3.6-5.5,6.3-.1.3-.2.6-.3.9,0,.1,0,.2,0,.4"/><path class="cls-2" d="M87.9,159.4c3,1.6,4.9,4.1,6,7.3"/><path class="cls-2" d="M37.6,98.8c.3,0,.6,0,.9,0,2.5.3,4.3,1.4,5.4,3.5.3.6.5,1.2.7,1.9,1,3.6.5,9.8-1.8,13.7"/><path class="cls-2" d="M43.5,102.5c.1,0,.2,0,.4-.1,3.4-1.3,7.5-2.1,11.3-2.9"/><path class="cls-2" d="M71.8,99c0,0,.2,0,.2,0,3.9-.7,9.1,1.2,12.6,3.1,0,0,0,0,.1,0"/><polygon class="cls-1" points="74.3 138.8 72.5 138.8 72.6 144 68.5 144.1 68.3 138.8 59.9 139.1 59.7 134.7 67.3 117.3 71.9 117.2 72.3 133.7 74.1 133.6 74.3 138.8"/><path class="cls-1" d="M68.1,124.8c-.4,1.6-1,3.2-1.6,4.7l-.4.8c-.7,1.5-1.2,2.8-1.7,3.6.5,0,1.3-.1,2.6-.1h1.2s-.1-3.5-.1-3.5c0-2.3,0-4.2,0-5.5Z"/></svg>