<?xml version="1.0" encoding="UTF-8"?><svg id="asia" xmlns="http://www.w3.org/2000/svg" width="235" height="321.9" viewBox="0 0 235 321.9"><defs><style>.cls-1{stroke-linecap:round;stroke-linejoin:round;}.cls-1,.cls-2{fill:none;stroke:#000;}.cls-2{stroke-miterlimit:10;}.cls-3,.cls-4,.cls-5,.cls-6,.cls-7,.cls-8,.cls-9,.cls-10{stroke-width:0px;}.cls-4{fill:#51667b;}.cls-5{fill:#2c2e2b;}.cls-6{fill:#d14752;}.cls-7{fill:#d6b59d;}.cls-8{fill:#b62026;}.cls-9{fill:#302f2d;}.cls-10{fill:#fff;}</style></defs><path class="cls-9" d="M226.7,191c3.2,1.4,3.8,5.9,2,9-1.8,3.2-5.1,5.2-8.3,6.9-9.9,5.3-20.6,8.9-31.2,12.6-1.3.4-2.7.9-3.9.3-.8-.5-.9-.6-1.3-1.5-.2-.4-.4-.8-.6-1.2.7.3,1.1.4,1.2.4,4.2-6.9,8.4-18.5,9-24,9.5-.9,18.5-1.9,28.1-2.8,1.7-.2,3.5-.3,5,.4Z"/><path class="cls-4" d="M108.9,162.8c0,0,0-.1,0-.2,5.3,1.5,14.1,3.7,19.5,5.5,3.1,1,65.3,23.5,65.3,24.1s0,.7,0,1.2c-.6,5.5-4.8,17.1-9,24,0,0-.4,0-1.2-.4-8.2-2.8-57.2-21-59.6-21.6-2.6-.6-6.4-1.1-10.6-1.6-12.8-1.4-30.4-2.6-38.2-4.2-2.5-.6-4.5-1.2-5.8-1.8-5.2-2.6-12.2-9.8-12.6-22.9,0-1.4,0-2.9.1-4.5,1.7-10.9,17.2-7.3,35.8-3.2,6.5,1.4,9.6,3,12.5,4.2,1.2.5,2.4.9,3.8,1.3Z"/><path class="cls-9" d="M137.5,303.9c1.7,3.4-.6,7.6-4,9.1s-7.3,1-10.9.2c-11.2-2.2-21.9-6.4-32.6-10.5-1.3-.5-2.7-1.1-3.2-2.4-.4-.9-.2-2,0-2.9.9-4.2,1.4-5.4,3.3-9.2,11.2,3.4,14.7,2.1,25.8.2,0,0,0-.3,0-.7h.4c8.3,5.9,9.2,6.6,17.5,12.5,1.4,1,2.9,2.1,3.7,3.7Z"/><path class="cls-3" d="M127.7,63.1c.5.3,1.3.7,1.6.9-.7,1.8-1.1,3.8-3,2.4.5-1.1,1-2.3,1.4-3.4Z"/><path class="cls-3" d="M127.1,61.5s0,0,0,0c-1.3-.4-8.9-3.2-11.3-4.2-.7,2.9-1.1,4.6-1.5,7.1,2.6,1,6.7,2.5,9.9,3.4.3,0,2.7-5.6,2.9-6.3h0s0,0,0,0ZM126.2,66.5c-.7,1.6-1.3,2.9-1.5,2.9-1.2-.3-2.4-.7-3.7-1.2-2.7-.9-5.6-1.9-7.7-2.7,0-.4,0-.9-.2-1.4.3-1.6.6-2.9.9-4.5.1-.7.3-1.4.5-2.1.1-.5.3-1.1.4-1.6,1.8.8,5.9,2.3,9.2,3.5,1.3.5,2.5.9,3.3,1.2.5.2.9.3,1.1.4-.1.3-.5,1.1-.9,2.2-.4,1-1,2.3-1.4,3.4Z"/><path class="cls-5" d="M82.1,66.5c-5-5.4-8-12.4-6.8-22.4h0c.5-5.5,1.6-9.5,5-14.1,3.4-4.7,8.8-7.9,14.5-9.2,5.7-1.3,9.9-2,15.5-.3,6.7,2,13,5.8,16.8,11.6,1.8,2.7,4.4,15.2-.3,21,0,0,0,.1,0,.2h0c0-.6.9-4.7.9-5.3-1.3.9-3.5,1.7-4.5.5-.7-.8-1.3-2.2-1.6-3.3-.3-1.1-1.6-1.1-2.3-.1,0,0,0,0,0,0-.5.7-1.2,1.2-2,1.7-1.2.7-2.6-.4-3.6-1.4s-1.3-3.2-2.2-4.2-2.4-1.7-3.7-1.2c-1.8.8-2.3,3.8-4.3,3.9-1.1,0-2-1-2.6-2-.7-1.2-1.3-2.6-2.9-2.8-.8,0-1.7.3-2.3.8-2.2,1.9-2.8,5.7-3.9,8.4v.2c-3.8-2.1-8.5-4.4-10.6-5.1-1.1.9-1.2,2-1.2,3.8h0c-1.1,1-1.6,4.4-1.5,6.1,0,1.7.9,6.3,2.3,7,1.2.6,2.1,1,3.2.2v.2c-.3,3.5-.3,5.4.5,8.1-.8-.7-1.6-1.5-2.3-2.3Z"/><path class="cls-7" d="M95.2,50c0,0,0,.3-.2.6h-.2c-.9-.6-2-1.2-3.2-1.9v-.2c1.1-2.7,1.7-6.5,4-8.4.7-.5,1.5-.9,2.3-.8,1.6.2,2.2,1.6,2.9,2.8.6,1,1.5,2.1,2.6,2,2,0,2.4-3.1,4.3-3.9,1.3-.6,2.7.2,3.7,1.2s1.2,3.2,2.2,4.2,2.4,2.1,3.6,1.4c.7-.5,1.5-1,2-1.7,0,0,0,0,0,0,.7-1,2-1,2.3.1.3,1.1.9,2.5,1.6,3.3,1,1.2,3.3.5,4.5-.5,0,.5-.9,4.7-.9,5.3h0c-.8,3.3-1.9,4.9-2.6,6-3.3-1.2-7.3-2.7-9.2-3.5-.1.6-.3,1.1-.4,1.6h-.5c-.3-.2-.6-.3-.9-.4,0,0,0,0,0,0-.9-.3-1.7-.6-2.6-1,.2-.4.4-.9.6-1.3v-.2c-3.6-.9-13.8-4-15.8-4.6h0s0,0,0,0h0s0,0,0,0ZM124,56.1c0-.8-3.2-3.9-4.4-3.7-1.1.2-2.3,2.2-.9,3,.5.3,3.3,1.6,3.8,1.8.7.3,1.5-.4,1.5-1.2ZM108.3,51.1c.6.2,2.4-2.1-.3-3-2.8-.9-8.1-1.8-8.4,1.6,0,.3,6.8.9,8.7,1.4Z"/><path class="cls-3" d="M127.1,61.5s0,0,0,0h0s0,0,0,0Z"/><path class="cls-10" d="M127,61.6c-.3.7-2.7,6.4-2.9,6.3-3.2-1-7.3-2.4-9.9-3.4.4-2.5.8-4.2,1.5-7.1,2.5,1,10.1,3.8,11.3,4.2ZM121.6,63.1c.3-.8.2-1.6,0-1.7-.3-.1-.8.5-1.1,1.3s-.2,1.6.1,1.7c.3.1.8-.5,1.1-1.3Z"/><path class="cls-5" d="M119.6,52.4c1.2-.2,4.5,2.9,4.4,3.7,0,.8-.9,1.5-1.5,1.2-.5-.2-3.3-1.6-3.8-1.8-1.4-.8-.2-2.9.9-3Z"/><path class="cls-8" d="M114,128h0c-1.6-.1-4.3.4-6.5,1-.4-3.2-1-15.4-1-20.9,0-4.2,1.5-7.9,4.2-10.6,1.5-1.5,3.3-2.8,5.4-3.8v-.2c2.3,1.8,3.9,3.5,4.4,4.4,1.6,3.1,2.8,7.8,2.3,12.2-1.1,9.8-.6,17.3-.4,22.1h-.3c-2.1-2.3-5-3.8-8.1-4.2Z"/><path class="cls-4" d="M90,288.2c-.5-.1-1-.3-1.5-.4-.1-.4,7.2-57.6,6.7-59.2-2.5-8.6-12.5-28.3-20.1-38.9,7.7,1.6,25.4,2.8,38.2,4.2,2.9,10.3,9.3,24.8,9.3,33.7,0,1.7-6,53.1-6.7,60,0,.4,0,.7,0,.7-11,1.9-14.6,3.2-25.8-.2Z"/><path class="cls-7" d="M85.4,129.8c.4,0,.8,0,1.1,0,9.4.2,8.7.7,21-.9,2.3-.6,4.9-1.1,6.5-.9h0c3.1.3,6.1,1.8,8.1,4.1h.3c.1,3.6,0,5.7-1.2,6.2-5.3,2.8-9.6,3.9-13.6,4.1-8.2.5-15.3-2.7-27.7-2.7-2.9,1.1-13.7,1.4-14.8-1.5-1-2.5,3.1-14.8,6.3-16.3,2-1,7.6,1.3,11.1,4,1.7,1.3,2.9,2.6,3,3.7v.3Z"/><path class="cls-3" d="M121.5,61.4c.3.1.4.9,0,1.7-.3.8-.8,1.4-1.1,1.3-.3-.1-.4-.9-.1-1.7s.8-1.4,1.1-1.3Z"/><path class="cls-7" d="M100.9,70.2v.2c-1.2,3.4,7.7,11.6,11.5,5.1-4.4-.5-7.6-2.2-11.5-5.3ZM83.9,60.6c-1.1.7-2,.4-3.2-.2-1.3-.7-2.2-5.3-2.3-7,0-1.7.3-5.1,1.5-6.1,0,0,0,0,0,0,2.1-1.5,4.9-.7,6.1.4,1.3,1,1.2,2.6,1.3,3.9h.5c1.6,1.1,4.5,2.7,5.8,3.4h.1c-.5,2.3-1,4.5-.8,4.6,4.3,1.6,10,3.4,13.6,4.4,1.1-2.1,1.9-3.9,2.8-5.9,1.4.4,2.7,1.1,4,1.5h.4c-.3,1.6-.6,3-.9,4.6,0,.4-.2.8-.2,1.3.1,0,.3.1.4.2,2.1.8,4.9,1.8,7.7,2.7v.3c-1.2,2.4-.7,5.2-2.7,8.4-3.9,5.1-7.7,8.5-12.9,9.5h0c0,0,0-.2,0-.3h0c-12.3-1.1-18.4-10-20.2-14.9-.3-.9-.6-1.7-.8-2.5-.8-2.7-.8-4.5-.4-8.1v-.2Z"/><path class="cls-10" d="M116.2,93.4v.2c-2.2,1-4.1,2.3-5.6,3.8h0c-1.6-3.3-4-5.7-7.4-7.2h-.1c1-.9,1.8-2,2.3-3.5h.2c3.3,1.2,7.5,4.1,10.6,6.7Z"/><path class="cls-3" d="M113.1,57s0,0,0,0c.3.1.6.2.9.3h.5c-.2.9-.3,1.6-.5,2.2h-.4c-1.4-.5-2.7-1.2-4-1.6.3-.6.6-1.3.9-2,.9.4,1.7.7,2.6,1Z"/><path class="cls-3" d="M113.3,65.5c-.1,0-.3-.1-.4-.2,0-.4.2-.9.2-1.3,0,.5.2,1,.2,1.4Z"/><path class="cls-3" d="M96.2,51.5s0,0,0,0h0c-.2.7-1.7,7-1.4,7.1,3.6,1.3,8.3,2.8,11.3,3.7,1.3-2.3,2-4,3.3-6.8-3-.8-11.8-3.5-13.2-3.9,0,0,0,0,0,0ZM110.5,56c-.3.7-.6,1.4-.9,2-.9,2.1-1.7,3.8-2.8,5.9-3.6-1-9.4-2.8-13.6-4.4-.2,0,.3-2.3.8-4.6.4-1.7.8-3.4,1.1-4.3,0-.3.1-.5.2-.6,0,0,0,0,0,0h0s0,0,0,0h0c2,.6,12.3,3.7,15.8,4.6v.2c-.1.5-.3.9-.5,1.3Z"/><path class="cls-6" d="M110.6,97.3h0c-2.7,2.8-4.3,6.5-4.2,10.7,0,5.5.7,17.7,1,20.9-12.2,1.6-11.6,1.1-21,.9h0c.5-.9.9-2,1.1-3.3.7-3.3,0-5.6-2.1-6.8,2.1-.7,3.4-2.4,3.9-5.2.4-2.2.2-4-.8-5.4s-2.5-2.3-4.7-2.7c-2.8-.6-5.4.4-7.8,3l2.7,4c1.5-1.5,2.8-2.2,4-1.9,1.3.3,1.7,1.2,1.4,2.9-.4,1.9-1.3,2.6-2.8,2.3l-1.9-.4-1,4.9,1.9.4c1,.2,1.7.6,2,1.2s.4,1.5.1,2.8h0c-3.5-2.5-9.1-4.8-11.1-3.8-3.3,1.5-7.3,13.9-6.3,16.3,1.1,2.9,11.9,2.6,14.8,1.5,12.5,0,19.5,3.2,27.7,2.7v.8c.5,4.5,1.3,13.9,1.4,19.4-1.6-.5-3-.8-3.8-1.1h0c-2.9-1.2-6.1-2.8-12.5-4.2-18.6-4-34.1-7.7-35.8,3.2-.1,1.6-.2,3.1-.1,4.5-3.7-13.6-.8-14.2,1.6-41.2.3-6.6.1-11-.2-17,0-.8,0-1.6-.1-2.4-.3-6.3,1.2-14.5,5.1-21h.3c-.1.3,11.7-1.2,17.9.6h.3c1.8,4,6.3,6.8,8.3,7.3,3.3.8,9.6,1.4,13.1-1.3h.1c3.3,1.6,5.8,4,7.4,7.3Z"/><path class="cls-6" d="M108.9,162.6c0,0,0,.1,0,.2-1.4-.3-2.5-.8-3.8-1.3h0c.8.3,2.1.6,3.8,1.1Z"/><path class="cls-10" d="M112.4,75.4c-3.8,6.4-12.7-1.7-11.6-5.1v-.2c4.1,3.1,7.2,4.7,11.6,5.3Z"/><path class="cls-5" d="M108.1,48.1c2.7.8.9,3.1.3,3-1.9-.5-8.7-1.1-8.7-1.4.3-3.3,5.6-2.4,8.4-1.6Z"/><path class="cls-10" d="M109.3,55.5c-1.2,2.8-2,4.5-3.3,6.8-3-.9-7.8-2.4-11.3-3.7-.3-.1,1.2-6.4,1.4-7.1,1.4.5,10.2,3.2,13.2,3.9ZM104.2,57.8c.3-.9.2-1.7-.1-1.8s-.9.5-1.2,1.4c-.3.9-.2,1.7.1,1.9s.9-.5,1.2-1.4Z"/><path class="cls-7" d="M105.5,86.2h0c0,.1,0,.2,0,.3,0,0,0,.2,0,.3-.4,1.4-1.2,2.5-2.3,3.3-3.5,2.7-9.8,2.2-13.1,1.3-2.1-.5-6.5-3.3-8.3-7.5-.5-1-.8-2.1-.8-3.3h0s0,0,0,0c1.6-1.8,3-7.8,1.2-14,.7.8,1.5,1.6,2.3,2.3.2.7.5,1.6.8,2.5,1.8,4.9,8,13.9,20.2,14.9Z"/><path class="cls-3" d="M104.1,56c.4.1.4.9.1,1.8-.3.9-.8,1.5-1.2,1.4s-.4-1-.1-1.9c.3-.9.8-1.5,1.2-1.4Z"/><path class="cls-3" d="M94.8,50.5h.2c-.2,1-.7,2.7-1.1,4.4h-.1c-1.3-.7-4.3-2.3-5.8-3.5h-.5c-.1-1.3,0-2.8-1.3-3.8-1.3-1-4-1.8-6.1-.4,0,0,0,0,0,0h0c0-1.9.1-2.9,1.2-3.8,2.1.7,6.8,3.1,10.5,5.1,1.2.7,2.3,1.4,3.2,1.9Z"/><path class="cls-10" d="M88.6,109.2c1,1.4,1.2,3.2.8,5.4-.5,2.7-1.8,4.4-3.9,5.2,2,1.2,2.7,3.5,2.1,6.8-.2,1.3-.6,2.3-1.1,3.2h0c-.4,0-.7,0-1.1,0v-.3c0-1.1-1.2-2.5-2.9-3.7h0c.2-1.4.2-2.3-.1-2.9s-1-1-2-1.2l-1.9-.4,1-4.9,1.9.4c1.5.3,2.4-.5,2.8-2.3.3-1.7-.1-2.6-1.4-2.9-1.1-.2-2.5.4-4,1.9l-2.7-4c2.4-2.5,5-3.5,7.8-3,2.1.4,3.7,1.3,4.7,2.7Z"/><path class="cls-10" d="M80.8,80.6h0c0,1.2.3,2.3.8,3.3h-.3c-6.2-1.7-18.1-.2-17.9-.4h-.3c.9-1.6,1.8-2.9,2.9-4.2,4.1-.2,9.9-.2,14.6,1h.1c0,.1,0,.1,0,.2Z"/><path class="cls-8" d="M66.2,79.4c-1.1,1.2-2.1,2.6-2.9,4-3.9,6.5-5.4,14.7-5.1,21,0,.8,0,1.7.1,2.4h-.1c-5.2,4.9-7.8,5.7-10.8,9.3-1.1,1-2.4,2.4-3.7,3.7-5.7-1.3-10.4-6.2-11.4-12,0,0,0,0,0-.1-.1-.8,6.2-8.2,11.6-14.4,4.1-4.7,11.4-12.2,17.5-13.5.7-.1,2.5-.4,4.8-.5Z"/><path class="cls-7" d="M43.5,119.9c-1.1,1.2-2.2,2.3-3,2.9-5.4,9.8-10.9,15.2-14.8,23.4h-.5c2.7.8,4.6,10.1,2.8,12.3-1.9,2.3-12.7,3.3-14.6,2.1-2.2-1.5.7-11.7,2.1-13.9,3-13.6,8.5-27.2,16.5-38.7,1,5.8,5.7,10.7,11.4,12Z"/><path class="cls-1" d="M32.2,107.8c-.1-.8,6.2-8.2,11.6-14.4,4.1-4.7,11.4-12.2,17.5-13.5.7-.1,2.5-.4,4.8-.5,4.1-.2,9.9-.2,14.6,1"/><path class="cls-1" d="M58.1,106.9c-5.2,4.9-7.8,5.7-10.8,9.3"/><path class="cls-1" d="M32.2,107.8s0,0,0,.1c-8,11.4-13.5,25.1-16.5,38.7"/><path class="cls-1" d="M47.2,116.2c-1.1,1-2.4,2.4-3.7,3.7-1.1,1.2-2.2,2.3-3,2.9-5.4,9.8-10.9,15.2-14.8,23.4"/><path class="cls-1" d="M25.2,146.2c2.7.7,4.6,10.1,2.8,12.2-1.9,2.3-12.7,3.3-14.6,2.1-2.2-1.5.7-11.7,2.1-13.9"/><path class="cls-1" d="M121.2,138.3c1.2-.5,1.4-2.6,1.2-6.2-.2-4.8-.7-12.4.4-22.1.5-4.4-.8-9.1-2.3-12.2-.5-.9-2.1-2.6-4.3-4.4-3.1-2.6-7.3-5.5-10.6-6.6"/><path class="cls-1" d="M116,93.6c-2.1,1-3.9,2.3-5.4,3.8-2.7,2.8-4.3,6.4-4.2,10.6,0,5.5.7,17.7,1,20.9,2.3-.6,4.9-1.1,6.5-.9"/><path class="cls-1" d="M121.2,138.3c-5.3,2.8-9.6,3.9-13.6,4.1-8.2.5-15.3-2.7-27.7-2.7"/><path class="cls-1" d="M107.5,128.9c-12.2,1.6-11.6,1.1-21,.9-.4,0-.7,0-1.1,0-.2,0-.5,0-.7,0"/><path class="cls-1" d="M85.4,129.5c0-1.1-1.2-2.5-3-3.7-3.5-2.6-9.1-4.9-11.1-4-3.3,1.5-7.3,13.9-6.3,16.3,1.1,2.9,11.9,2.6,14.8,1.5"/><path class="cls-1" d="M58.3,123.9c-2.4,27-5.3,27.6-1.6,41.2,0,.3.2.7.3,1.1"/><path class="cls-1" d="M107.6,143.2c.5,4.5,1.2,13.9,1.4,19.4,0,0,0,.1,0,.2"/><path class="cls-1" d="M66.2,79.4c-1.1,1.2-2.1,2.6-2.9,4-3.9,6.5-5.4,14.7-5.1,21,0,.8,0,1.7.1,2.4.3,6,.5,10.4.2,17"/><path class="cls-1" d="M75.1,189.7c7.7,1.6,25.4,2.8,38.2,4.2,4.3.5,8,1,10.6,1.6,2.5.5,51.4,18.8,59.6,21.6.7.3,1.1.4,1.2.4,4.2-6.9,8.4-18.5,9-24,0-.4,0-.8,0-1.2,0-.6-62.2-23.1-65.3-24.1-5.4-1.8-14.2-4-19.5-5.5-1.6-.5-3-.8-3.8-1.1"/><path class="cls-1" d="M69.3,187.9c1.3.5,3.3,1.1,5.8,1.8"/><path class="cls-1" d="M75.1,189.7c7.6,10.6,17.6,30.3,20.1,38.9.5,1.5-6.8,58.8-6.7,59.2.5.2,1,.3,1.5.4,11.2,3.4,14.7,2.1,25.8.2,0,0,0-.3,0-.7.7-6.9,6.7-58.4,6.7-60,0-8.9-6.4-23.4-9.3-33.7"/><path class="cls-1" d="M56.9,160.6c-.1,1.6-.2,3.1-.1,4.5.4,13,7.3,20.2,12.6,22.9"/><path class="cls-1" d="M110.5,163.1c-.5,0-1.1-.2-1.5-.3-1.4-.3-2.5-.8-3.8-1.3-2.9-1.2-6.1-2.8-12.5-4.2-18.6-4-34.1-7.7-35.8,3.2"/><path class="cls-1" d="M90,288.2h0c-1.8,3.9-2.4,5-3.3,9.2-.2,1-.4,2,0,2.9.5,1.3,2,1.9,3.2,2.4,10.7,4.1,21.4,8.2,32.6,10.5,3.7.7,7.6,1.2,10.9-.2s5.7-5.7,4-9.1c-.8-1.6-2.3-2.7-3.7-3.7-8.3-5.9-9.2-6.6-17.5-12.5"/><path class="cls-1" d="M185.4,219.8c1.1.6,2.6.1,3.9-.3,10.6-3.6,21.2-7.3,31.2-12.6,3.3-1.7,6.6-3.8,8.3-6.9,1.8-3.2,1.2-7.7-2-9-1.5-.6-3.3-.5-5-.4-9.6.9-18.5,1.9-28.1,2.8-.2,0-.4,0-.6,0"/><path class="cls-1" d="M183.4,216.8c0,0,0,.2.1.3.2.4.4.8.6,1.2.4.9.5,1,1.3,1.5"/><path class="cls-1" d="M80.9,80.6c0,1.2.3,2.3.8,3.3,1.8,4.1,6.3,6.9,8.3,7.5,3.3.8,9.6,1.4,13.1-1.3,1-.8,1.8-1.9,2.3-3.3,0,0,0-.2,0-.3,0,0,0-.2,0-.2"/><path class="cls-2" d="M32,107.5c0,.1,0,.3,0,.4,1,5.8,5.7,10.7,11.4,12,0,0,0,0,0,0"/><path class="cls-2" d="M113.5,127.9c.1,0,.3,0,.5,0,3.1.3,6.1,1.8,8.1,4.2"/><path class="cls-1" d="M75.3,44.1c-1.2,10.1,1.8,17,6.8,22.4.7.8,1.5,1.6,2.3,2.3"/><path class="cls-1" d="M120.9,68.5c-1.1,2.4-.6,5.2-2.6,8.4"/><path class="cls-1" d="M127.5,49.2c-.2,1.5-.5,2.8-.7,3.9,0,0,0,.1,0,.2-.8,3.3-1.9,4.8-2.6,6,0,.2-.2.3-.3.4"/><path class="cls-1" d="M113.1,63.8c0,0,0,.2,0,.3,0,.5.2,1,.2,1.4.4,5.4-3.2,5.9-5.9,4.7"/><path class="cls-1" d="M112.4,75.4c-4.4-.5-7.6-2.2-11.5-5.3,0,0-.2-.1-.3-.2"/><path class="cls-1" d="M112.4,75.4c-3.8,6.4-12.7-1.7-11.6-5.1"/><path class="cls-1" d="M82,66.3c0,0,0,.1,0,.2,1.7,6.3.4,12.2-1.2,14,0,0,0,0,0,0,0,0,0,0,0,0"/><path class="cls-1" d="M87.5,51.8c0-.1,0-.2,0-.3-.1-1.3,0-2.8-1.3-3.9-1.3-1-4-1.8-6.1-.4,0,0,0,0,0,0-1.1,1-1.6,4.4-1.5,6.1,0,1.7.9,6.3,2.3,7,1.2.6,2.1,1,3.2.2,0,0,.1,0,.2-.1"/><path class="cls-1" d="M126.7,53.3c0-.5.9-4.7.9-5.3-1.3.9-3.5,1.7-4.5.5-.7-.8-1.3-2.2-1.6-3.3-.3-1.1-1.6-1.1-2.3-.1,0,0,0,0,0,0-.5.7-1.2,1.2-2,1.7-1.2.7-2.6-.4-3.6-1.4s-1.3-3.2-2.2-4.2-2.4-1.7-3.7-1.2c-1.8.8-2.3,3.8-4.3,3.9-1.1,0-2-1-2.6-2-.7-1.2-1.3-2.6-2.9-2.8-.8,0-1.7.3-2.3.8-2.2,1.9-2.8,5.7-3.9,8.4"/><path class="cls-1" d="M99.6,49.7c0,.3,6.8.9,8.7,1.4.6.2,2.4-2.1-.3-3-2.8-.9-8.1-1.8-8.4,1.6Z"/><path class="cls-1" d="M118.7,55.5c.5.3,3.3,1.6,3.8,1.8.7.3,1.5-.4,1.5-1.2,0-.8-3.2-3.9-4.4-3.7-1.1.2-2.3,2.2-.9,3Z"/><path class="cls-1" d="M105.5,86.5c5.2-1.1,8.9-4.4,12.9-9.5"/><path class="cls-1" d="M84,60.7c-.4,3.5-.4,5.4.4,8.1.2.7.5,1.6.8,2.5,1.8,4.9,8,13.9,20.2,14.9.2,0,.3,0,.5,0"/><path class="cls-1" d="M75.3,44.2s0,0,0-.1c.5-5.5,1.6-9.5,5-14.1,3.4-4.7,8.8-7.9,14.5-9.2,5.7-1.3,9.9-2,15.5-.3,6.7,2,13,5.8,16.8,11.6,1.8,2.7,4.4,15.2-.3,21"/><line class="cls-1" x1="127.4" y1="60.5" x2="127.1" y2="61.5"/><line class="cls-1" x1="127.2" y1="63.3" x2="126.5" y2="63.1"/><line class="cls-1" x1="113.1" y1="57" x2="113" y2="57"/><line class="cls-1" x1="113.2" y1="57" x2="113.1" y2="57"/><line class="cls-1" x1="112.7" y1="59.1" x2="112.6" y2="59.1"/><path class="cls-1" d="M120.3,62.7c-.3.8-.2,1.6.1,1.7.3.1.8-.5,1.1-1.3.3-.8.2-1.6,0-1.7-.3-.1-.8.5-1.1,1.3Z"/><path class="cls-1" d="M102.9,57.3c-.3.9-.2,1.7.1,1.9s.9-.5,1.2-1.4c.3-.9.2-1.7-.1-1.8s-.9.5-1.2,1.4Z"/><line class="cls-1" x1="127" y1="61.6" x2="127.1" y2="61.6"/><path class="cls-1" d="M127,61.6c-.3.7-2.7,6.4-2.9,6.3-3.2-1-7.3-2.4-9.9-3.4.4-2.5.8-4.2,1.5-7.1,2.5,1,10.1,3.8,11.3,4.2Z"/><path class="cls-1" d="M127.1,61.5s0,0,0,0c0,0,0,0,0,0"/><path class="cls-1" d="M127.1,61.6s0,0,0,0"/><path class="cls-1" d="M114.9,55.8c1.8.8,5.9,2.3,9.2,3.5,1.3.5,2.5.9,3.3,1.2.5.2.9.3,1.1.4"/><path class="cls-1" d="M128.6,60.9h0c-.1.3-.5,1.1-.9,2.2-.4,1-1,2.3-1.4,3.4-.7,1.6-1.3,2.9-1.5,2.9-1.2-.3-2.4-.7-3.7-1.2-2.7-.9-5.6-1.9-7.7-2.7-.1,0-.3-.1-.4-.2,0-.4.2-.9.2-1.3.3-1.6.6-2.9.9-4.5.1-.7.3-1.4.5-2.1.1-.5.3-1.1.4-1.6"/><path class="cls-1" d="M128.6,60.9c0-.1,0-.1,0,0h0Z"/><line class="cls-1" x1="96.1" y1="51.5" x2="96.1" y2="51.5"/><path class="cls-1" d="M96.1,51.5c-.2.7-1.7,7-1.4,7.1,3.6,1.3,8.3,2.8,11.3,3.7,1.3-2.3,2-4,3.3-6.8-3-.8-11.8-3.5-13.2-3.9Z"/><path class="cls-1" d="M96.2,51.5s0,0,0,0"/><path class="cls-1" d="M96.1,51.5s0,0,0,0h0s0,0,0,0"/><path class="cls-1" d="M111,54.5c-3.5-.9-13.7-4-15.8-4.6,0,0,0,0-.1,0"/><path class="cls-1" d="M95.2,50c0,0,0,.3-.2.6-.2.9-.7,2.6-1.1,4.3-.5,2.3-1,4.5-.8,4.6,4.3,1.6,10,3.4,13.6,4.4,1.1-2.1,1.9-3.9,2.8-5.9.3-.6.6-1.3.9-2,.2-.4.4-.9.6-1.3"/><path class="cls-1" d="M95.2,50s0,0,0,0c0,0,0,0,0,0h0s0,0,0,0"/><path class="cls-1" d="M94.8,50.5c-.9-.5-2-1.2-3.2-1.9-3.7-2.1-8.4-4.4-10.5-5.1-1.1.9-1.2,2-1.2,3.8"/><path class="cls-1" d="M93.8,54.9c-1.3-.7-4.3-2.3-5.8-3.4"/><path class="cls-1" d="M127.3,62.9c0,0,.2,0,.4.2.5.3,1.3.7,1.6.9-.7,1.8-1.1,3.8-3,2.4-.2-.1-.4-.3-.6-.5"/><path class="cls-1" d="M114,57.3c-.3,0-.6-.2-.9-.3,0,0,0,0,0,0-.9-.3-1.7-.6-2.6-1,0,0,0,0,0,0"/><path class="cls-1" d="M113.7,59.5c-1.4-.5-2.7-1.1-4-1.5,0,0-.1,0-.2,0"/><path class="cls-1" d="M81.4,84.1c-6.2-1.9-18.1-.3-17.9-.5"/><path class="cls-1" d="M103.2,90.2c3.3,1.5,5.8,3.8,7.4,7.1"/><path class="cls-1" d="M82.5,125.7c.2-1.3.2-2.2-.1-2.8s-1-1-2-1.2l-1.9-.4,1-4.9,1.9.4c1.5.3,2.4-.5,2.8-2.3.3-1.7-.1-2.6-1.4-2.9-1.1-.2-2.5.4-4,1.9l-2.7-4c2.4-2.5,5-3.5,7.8-3,2.1.4,3.7,1.3,4.7,2.7s1.2,3.2.8,5.4c-.5,2.7-1.8,4.4-3.9,5.2,2,1.2,2.7,3.5,2.1,6.8-.2,1.3-.6,2.3-1.1,3.2"/></svg>