<?xml version="1.0" encoding="UTF-8"?><svg id="asia" xmlns="http://www.w3.org/2000/svg" width="235" height="321.9" viewBox="0 0 235 321.9"><defs><style>.cls-1{stroke-linecap:round;stroke-linejoin:round;}.cls-1,.cls-2{fill:none;stroke:#000;}.cls-2{stroke-miterlimit:10;}.cls-3,.cls-4,.cls-5,.cls-6,.cls-7,.cls-8,.cls-9,.cls-10,.cls-11{stroke-width:0px;}.cls-4{fill:#4f413b;}.cls-5{fill:#0c6e2c;}.cls-6{fill:#d8bb2b;}.cls-7{fill:#87654b;}.cls-8{fill:#f2d949;}.cls-9{fill:#f2cab3;}.cls-10{fill:#fff;}.cls-11{fill:#fbc414;}</style></defs><path class="cls-11" d="M25.8,153.8c.4-.1.7.1.9.9.2-.2,1.6-2,3.5-4.4h0c-2.4-3.3-6-5.7-10-6.6h0c-2.6,4.1-4.7,7.6-5.1,8.3-2.8,5.6.5,12.3,4,15.4,0-.7.3-1.5.6-2.5,1.3-4.3,4.6-10.8,6.2-11.2Z"/><path class="cls-9" d="M40.1,186.8c2.5,1.2,6.6,2.4,6.1-.6.4,0,1-.3,1.5-.7.6-.5.9-1.3.2-2,1.1-.3,2.3-1.7,1.4-3.4,3.7-1.4,1.9-3.3,0-4.9.3-3.7-3.8-3.8-7.1-3.9-1,0-1.8,0-2.6-.2-5.2-1.1-7.6-9-9.7-12.2-1.2-1.9-2.1-3.1-3.1-4.2,0,0,0,0,0,0-.3-.3-.6-.6-.9-.9-1.7.4-4.9,6.9-6.2,11.2h0c1.1,1.6,1.6,1.8,2.7,2.8,2.5,2.2,7.4,6.2,10.4,9.2.5.5.9.9,1.3,1.3-.8,2.7,2.4,6.1,4.4,7.6.3.2.9.6,1.6.9Z"/><path class="cls-6" d="M38.8,119.1c-2.2,1.5-4,3.7-6.6,6.7-2.5,2.8-7.9,11.3-12.1,17.9h0c4,.9,7.6,3.3,10,6.6h0c3.2-4,7.9-9.8,10.4-12.9.9-1.1,1.6-1.9,1.8-2.1,2.9-3.2,3.8-8.2,2.6-12.3-.1-.4-.2-.8-.4-1.2-.7-1.7-1.9-3.3-3.7-3.6v-.2c-.8.3-1.5.7-2.2,1.2Z"/><path class="cls-10" d="M25.2,300.2c-.3,1.2-.2,6.2.6,7.1,1,1,2.6,1.1,4.1,1.1,4.7,0,9.4.1,14,0,1.7,0,5,.2,6.2-.9,1.4-1.3.5-9.4-.5-11-.1-.2-.3-.4-.4-.5-1.4-1.9-2.8-2.2-5.5-2.8-1.6-.4-3.6-.7-5.8-.6-.3,0-.6,0-.9,0-1.5.2-3.1.6-4.6,1.5-2.4,1.1-6.6,3.6-7.2,5.9Z"/><path class="cls-7" d="M26.7,154.7c-.2-.7-.5-1-.9-.9.3.3.6.6.9.9Z"/><path class="cls-4" d="M47.5,95.7h.1c-1.3-7.9-.2-7.7-.2-14s.1-9.1,2.8-13.1c-.6,0-1.3,0-1.8-.4-.7-.4-1.3-1.1-1.7-1.8-.8-1.1-4.1-6.5-3.3-8.1l-1.5-.9h0c-8.1,13.7-8.7,27.7-7.8,37.2.9,9.9,2,15.4,4.7,24.5.6-.4,1.3-.8,2.1-1.2,2.7-1.2,6.3-2,12.3-2.5.2.2.3.4.5.6l.3-.3c-.4-1.2-.8-2.4-.7-3.6,0-1.1.7-2.1,1.7-2.5.2-1.1.2,1.2.2-2.1-1.8-1.1-5.8-3.2-7.7-11.7Z"/><path class="cls-11" d="M87.5,269.9c1.7-.6,3-1.1,3.8-1.6.8-4.1-3-48.4-5.9-81.2-.2-1.8-.3-3.6-.5-5.3h0c-5.8,4-13.3,5.1-20.3,5.5-5.6.3-11.5-.2-16.9-1.5l-.2-.2c-.4.4-1,.7-1.5.7.5,3-3.6,1.8-6.1.6,0,.4-2.6,12.8-2.6,12.9-1.4,8.3-5.6,69.8-5.6,69.8,1.5.8,3,1.5,4.7,2.1,4.4,1.5,9.4,2.4,14.5,2.7,7.7.5,15.7-.1,22.7-1.2,5.5-.9,10.3-2,13.7-3.2Z"/><path class="cls-5" d="M37,292.8c.3,0,.6,0,.9,0,2.2-.1,4.2.2,5.8.6,2.7.6,4.1.9,5.5,2.8h0c-.7-8.6.8-16.9,1.9-21.8-5.1-.3-10.1-1.2-14.5-2.7.6,8.1,1.1,13.7.3,21.2Z"/><path class="cls-8" d="M40.7,137.4h0c.3,3.6,1.9,23.4,1.6,27-.1,1.7-.2,4.1-.4,6.9,3.4.1,7.5.2,7.1,3.9,1.9,1.5,3.8,3.5,0,4.9,1,1.7-.2,3.1-1.4,3.4.8.7.4,1.5-.2,2l.2.2c5.4,1.3,11.3,1.8,16.9,1.5,7-.4,14.5-1.5,20.3-5.5h0c-.4-4.7-.8-9.2-1.1-13.1-.4-4.7-.7-8.7-.9-11.6-.4-5.8.5-11.5,1-17.1.3-2.8.5-5.5.4-8.3-.1-3.1-.4-6.1-1.1-9.1h-.2c-3.6-2.5-7.7-4.1-12-4.8h0c-2.2,1.7-5.1,2.8-8,2.7-2.7,0-5.4-1-7.5-2.6h0c-3.6.9-7,2.2-10.3,3.8h-.5c.2.5.3.9.4,1.3,1.1,4.2.3,9.2-2.6,12.3-.2.2-.9,1-1.8,2.1ZM54.8,158.4v-4.5s9.9-17.6,9.9-17.6h5.4s-.1,17-.1,17h2.1s0,5.3,0,5.3h-2.1s0,5.3,0,5.3h-5s0-5.5,0-5.5h-10.2Z"/><path class="cls-10" d="M40.9,117.9v.2c1.9.3,3.1,1.9,3.8,3.6h.5c3.3-1.8,6.7-3,10.3-3.9h0c-.7-.6-1.3-1.2-1.9-1.8-.2-.2-.3-.4-.5-.6-6,.5-9.6,1.3-12.3,2.5Z"/><path class="cls-4" d="M41.9,57.4l1.5.9c.1-.3.5-.5.9-.5,2.3,0,7.7,5.9,7.7,8.2h0c2.8-3.4,7.5-9.1,8.5-8.9.6-3.4-3.3-6.1-6.2-7.8h0s0,0,0,0c-4.5.3-7.9,1.3-10.9,5.8-.5.8-1,1.5-1.4,2.3Z"/><path class="cls-10" d="M43.4,58.3c-.8,1.6,2.5,7,3.3,8.1.5.7,1,1.3,1.7,1.8.5.3,1.2.5,1.8.4.2-.3.4-.5.6-.8.4-.4.8-1,1.3-1.6h0c0-2.4-5.4-8.3-7.7-8.3-.5,0-.8.2-.9.5Z"/><path class="cls-9" d="M76.6,100.8h0c-1.3,2.3-2.6,3.5-5.6,3.8-1.8.2-5.4-.1-7.2-1.2-1.7-1.1-2.5-1.4-4.5-4.4,1,.9,12.2,3.5,17.3,1.7ZM47.4,81.6c0,6.4-1,6.1.2,14h-.1c1.8,8.5,5.9,10.7,7.7,11.8,9,5.6,12.6,7.2,16.3,5.5.5-.2,1-.5,1.6-.9,1.6-1,3.4-2.6,5.7-4.7,4.2-3.7,6-9.6,6.6-15.3.7-6.9,1.4-8.6,1.4-8.6,1-4.6.4-.5.6-4.7,0-10.7-19.8-21.3-26.8-21.7-1-.1-5.7,5.5-8.5,9,0,.9-.5,1.9-1.3,2.3-.2,0-.4.1-.6.2-2.7,4-2.8,8.1-2.8,13.1ZM57.3,84.1c0-2,.8-3.6,1.8-3.6s1.8,1.6,1.8,3.6-.8,3.6-1.8,3.6-1.8-1.6-1.8-3.6ZM78.5,83.2c0-1.7.7-3.1,1.5-3.1s1.5,1.4,1.5,3.1-.7,3.1-1.5,3.1-1.5-1.4-1.5-3.1Z"/><path class="cls-11" d="M53.3,112.1c-.1,1.2.3,2.5.7,3.6l-.3.3c.6.7,1.2,1.2,1.9,1.8,2.2,1.7,4.8,2.6,7.5,2.6,2.9,0,5.8-1,8-2.8.7-.6,1.4-1.3,2-2v-3.5c-.5.3-1,.6-1.6.9-1.2,2.5-2.7,2.6-7.1,2.6-5.2,0-8.8-.9-9.5-5.3,0-.3,0-.5,0-.6-1,.4-1.6,1.5-1.7,2.5Z"/><path class="cls-4" d="M86.6,120.2c6.8-10.3,8-39.3,6.8-47.5-.8-5.3-2.5-10.7-6-14.8s-4.6-6.7-10.4-9.2c-5.6-2.5-15.2-2.7-22.6.5h0c2.9,1.7,6.8,4.5,6.2,7.8,7,.4,26.8,11.1,26.8,21.7-.2,4.2.4.1-.6,4.7,0,0-.8,1.7-1.4,8.6-.6,5.7-2.4,11.5-6.6,15.3-2.3,2.1-4.1,3.7-5.7,4.7v3.5c3.6.5,6.5,1.2,9.1,2.3,1.6.7,3.1,1.6,4.4,2.7,0,0,0,0,0-.1,0,0,0-.1.1-.2Z"/><path class="cls-10" d="M54.9,153.9v4.5s10.1,0,10.1,0v5.4s4.9,0,4.9,0v-5.3s2.2,0,2.2,0v-5.3s-2.1,0-2.1,0v-17c.1,0-5.3,0-5.3,0l-9.8,17.6ZM63.6,153.2c-1.5,0-2.5,0-3.1,0,.6-.9,1.3-2.1,2.2-3.7l.5-.8c.8-1.5,1.6-3.1,2.1-4.8-.1,1.3-.2,3.2-.2,5.6v3.6s-1.5,0-1.5,0Z"/><path class="cls-9" d="M54.9,109.5c0,.1,0,.4,0,.6.7,4.5,4.2,5.3,9.5,5.3,4.5,0,6-.1,7.1-2.6-3.7,1.6-7.3,0-16.3-5.5,0,3.3,0,1-.2,2.1Z"/><path class="cls-3" d="M59.1,80.6c-1,0-1.8,1.6-1.8,3.6s.8,3.6,1.8,3.6,1.8-1.6,1.8-3.6-.8-3.6-1.8-3.6Z"/><path class="cls-10" d="M59.2,99.1c2.1,2.9,2.8,3.3,4.5,4.4,1.8,1.1,5.4,1.5,7.2,1.2,2.9-.4,4.3-1.6,5.6-3.8h0c-5.1,1.7-16.3-.9-17.3-1.8Z"/><path class="cls-8" d="M60.5,153.3c.6,0,1.6,0,3.1,0h1.4s0-3.6,0-3.6c0-2.4,0-4.3.2-5.6-.6,1.7-1.3,3.2-2.1,4.8l-.5.8c-.9,1.6-1.6,2.8-2.2,3.7Z"/><path class="cls-10" d="M71.1,117.6h0c4.3.7,8.5,2.4,12,4.9h.2c-.3-1.6-.7-3.1-1.2-4.6h0c-2.5-1.1-5.5-1.8-9.1-2.3-.6.8-1.2,1.4-2,2Z"/><path class="cls-5" d="M73.8,273.1c1.6,6.4,2.2,10.7,2.6,20.1,0,1.5,0,2,.7,3.3.7-1,1.4-1.7,2.9-2.1,1.3-.3,5.4-.7,7.9-.9.2,0,.5,0,.7,0h0c-.4-2.5-.9-14.3-1.1-23.6-3.4,1.1-8.2,2.3-13.7,3.2Z"/><path class="cls-10" d="M76.3,297.7c-.9,1.7-1.4,9.2.4,10.3,1.3.7,16.8,1.2,21.1,1,.4,0,2.9-.6,3.3-.7,1.3-.6.7-7.6,0-8.8-1.5-2.9-7.9-5.2-11.3-6.1,0,0-.6,0-1.3,0-.2,0-.4,0-.7,0-2.5.2-6.5.5-7.9.9-1.5.3-2.3,1-2.9,2.1-.2.4-.5.8-.7,1.3Z"/><path class="cls-3" d="M80,80.1c-.8,0-1.5,1.4-1.5,3.1s.7,3.1,1.5,3.1,1.5-1.4,1.5-3.1-.7-3.1-1.5-3.1Z"/><path class="cls-6" d="M82.1,117.8h0c.5,1.5.9,3.1,1.2,4.6.6,3,.9,6,1.1,9.1.1,2.8,0,5.5-.4,8.3h.7c.7,1.4,3,5.5,5.1,9,2.4-3.3,6-5.6,10-6.3h.2c-3.3-5.9-7.7-13.8-8.7-15.8-1.4-2.7-3-4.7-4.8-6.3,0,0,0,0,0,0-1.3-1.1-2.7-2-4.4-2.7Z"/><path class="cls-9" d="M83.9,168.6h0c.3,3.9.7,8.3,1.1,13.1.1,1.7.3,3.5.5,5.3,1.5-.4,1.9-.6,2.8-3.2.7-2,1.1-3.8,1.8-5.8,1.5-4.7,4.8-7.3,8.4-11.1,2.8-3,5-4.7,6-8.3-2.5-4.9-8.6-8.2-10.2-5.7h0c-.3.6-.6,1.2-.9,1.8h0c-1,2-1.7,4.1-2.6,6-.9,1.8-2,3.1-3.3,4.6-.8,1-3.5,3.1-3.5,3.3Z"/><path class="cls-11" d="M86.5,120.5s0,0,0,0c0,0,0,0,0,0Z"/><path class="cls-11" d="M94.3,152.9h0c1.7-2.6,7.8.8,10.2,5.7.5,1,.8,2,1,3.1.7-2.6,2.4-8-1.6-12.6-.3-.4-1.9-3.1-3.8-6.5h-.2c-4,.8-7.7,3.1-10,6.4,1.8,3.1,3.4,5.8,3.6,5.8h0c.3-.6.6-1.2.9-1.8Z"/><path class="cls-2" d="M87.4,78.8c-.2,4.2.4.1-.6,4.7,0,0-.8,1.7-1.4,8.6-.6,5.7-2.4,11.5-6.6,15.3-2.3,2.1-4.1,3.7-5.7,4.7-.5.3-1,.6-1.6.9-3.7,1.6-7.3,0-16.3-5.5-1.8-1.1-5.8-3.2-7.7-11.7,0-.2,0-.4-.1-.7"/><path class="cls-2" d="M83.5,76.3c-1.8-2.1-7-1.1-8.7,0"/><path class="cls-2" d="M63,76.4c-1.7-1.3-4.4-1.4-6.5-1"/><path class="cls-2" d="M54.9,110.2c0-.3,0-.5,0-.6.2-1.1.2,1.2.2-2.1"/><path class="cls-2" d="M73.1,112.1v3.5"/><path class="cls-2" d="M86.5,120.5c1.8,1.6,3.4,3.6,4.8,6.3"/><path class="cls-2" d="M86.5,120.5s0,0,0,0"/><path class="cls-2" d="M73.1,115.5c3.6.5,6.5,1.2,9.1,2.3,1.6.7,3.1,1.6,4.4,2.7"/><path class="cls-2" d="M82.1,117.8c.5,1.5.9,3.1,1.2,4.6.6,3,.9,6,1.1,9.1.1,2.8,0,5.5-.4,8.3-.6,5.6-1.5,11.3-1,17.1.2,2.9.5,6.9.9,11.6.3,3.9.7,8.3,1.1,13.1.1,1.7.3,3.5.5,5.3,2.8,32.8,6.7,77.1,5.9,81.2"/><path class="cls-2" d="M40.8,137.4c.3,3.5,1.9,23.4,1.6,26.9-.1,1.7-.2,4.1-.4,6.9,0,0,0,0,0,0"/><path class="cls-2" d="M91.3,268.2c-.9.5-2.2,1.1-3.8,1.6-3.4,1.1-8.2,2.3-13.7,3.2-6.9,1.1-15,1.7-22.7,1.2-5.1-.3-10.1-1.2-14.5-2.7-1.7-.6-3.2-1.3-4.7-2.1"/><path class="cls-2" d="M31.9,269.5s4.1-61.5,5.6-69.8c0,0,2.5-12.5,2.6-12.9h0"/><path class="cls-2" d="M78.5,83.2c0,1.7.7,3.1,1.5,3.1s1.5-1.4,1.5-3.1-.7-3.1-1.5-3.1-1.5,1.4-1.5,3.1Z"/><path class="cls-2" d="M57.3,84.1c0,2,.8,3.6,1.8,3.6s1.8-1.6,1.8-3.6-.8-3.6-1.8-3.6-1.8,1.6-1.8,3.6Z"/><path class="cls-2" d="M74.7,93.6c0,2.5-5.9,2.1-7.7,1.9"/><path class="cls-2" d="M77,100.6c-.1,0-.3.1-.4.1-5.1,1.7-16.3-.8-17.3-1.7,2.1,2.9,2.8,3.3,4.5,4.4,1.8,1.1,5.4,1.5,7.2,1.2,2.9-.4,4.3-1.6,5.6-3.8"/><path class="cls-2" d="M54.9,110.2c.7,4.5,4.2,5.3,9.5,5.3,4.5,0,6-.1,7.1-2.6"/><path class="cls-2" d="M47.6,95.6c-1.3-7.9-.2-7.6-.2-14s.1-9.1,2.8-13.1c.2-.3.4-.5.6-.8.4-.4.8-1,1.3-1.6,2.8-3.5,7.5-9.1,8.5-9,7,.4,26.8,11.1,26.8,21.7"/><path class="cls-1" d="M104.5,158.6c-1,3.6-3.2,5.4-6,8.3-3.6,3.8-6.9,6.4-8.4,11.1-.7,2-1.1,3.8-1.8,5.8-.9,2.6-1.3,2.8-2.8,3.2,0,0,0,0,0,0"/><path class="cls-1" d="M91.3,126.8c1.1,2,5.5,9.9,8.7,15.7,1.9,3.4,3.5,6.1,3.8,6.5,4,4.6,2.4,10.1,1.6,12.6"/><path class="cls-1" d="M93.4,154.7s0,0,0,0"/><path class="cls-1" d="M84.7,139.9c.7,1.3,3,5.4,5.1,9,1.8,3.1,3.4,5.8,3.6,5.8"/><path class="cls-2" d="M83.9,168.6s0,0,0,0"/><path class="cls-1" d="M97.9,148.9c-1.6,1-2.7,2.4-3.6,4-.3.6-.6,1.2-.9,1.8h0c-1,2-1.7,4.1-2.6,6-.9,1.8-2,3.1-3.3,4.6-.8,1-3.5,3.1-3.5,3.3"/><path class="cls-2" d="M40.7,137.4c-2.5,3.1-7.2,8.9-10.4,12.9-1.9,2.4-3.3,4.2-3.5,4.4"/><path class="cls-1" d="M41,118.1c1.8.3,3,1.9,3.7,3.6.2.4.3.8.4,1.2,1.1,4.2.3,9.2-2.6,12.3-.2.2-.9,1-1.8,2.1"/><path class="cls-2" d="M19.7,165c1.1,1.6,1.6,1.7,2.7,2.8,2.5,2.2,7.4,6.2,10.4,9.2.5.5.9.9,1.3,1.3"/><path class="cls-2" d="M53.1,115.4c-6,.5-9.6,1.3-12.3,2.5-.8.3-1.4.7-2.1,1.2-2.2,1.5-4,3.7-6.6,6.7-2.5,2.8-7.9,11.3-12.1,17.9-2.6,4.2-4.7,7.6-5.1,8.4-2.8,5.6.5,12.3,4,15.4"/><path class="cls-1" d="M26.7,154.7c-.3-.3-.6-.6-.9-.9-1-.9-2.2-1.7-4-2.8"/><path class="cls-1" d="M39.5,171c-5.2-1.1-7.6-9-9.7-12.2-1.2-1.9-2.1-3.1-3.1-4.2"/><path class="cls-2" d="M40.1,186.8c-.7-.3-1.3-.7-1.6-.9-2-1.5-5.2-4.9-4.4-7.6"/><path class="cls-1" d="M47,173.4c.4.4,1.3,1,2.2,1.7,1.9,1.5,3.8,3.5,0,4.9,1,1.7-.2,3.1-1.4,3.4.8.7.4,1.5-.2,2-.4.4-1,.7-1.5.7.5,3-3.6,1.8-6.1.6"/><path class="cls-1" d="M39.5,171c.7.1,1.6.2,2.6.2,3.4.1,7.5.2,7.1,3.9,0,0,0,0,0,0"/><path class="cls-2" d="M60.6,57.1c.6-3.4-3.3-6.1-6.2-7.8"/><path class="cls-2" d="M19,167.5c0-.7.3-1.5.6-2.5,1.3-4.3,4.6-10.8,6.2-11.2.4-.1.7.1.9.9,0,0,0,0,0,0"/><path class="cls-2" d="M105.5,161.6c-.1-1.1-.5-2.1-1-3.1-2.5-4.9-8.6-8.2-10.2-5.7"/><path class="cls-2" d="M53.1,115.4c.2.2.3.4.5.6.6.7,1.2,1.2,1.9,1.8,2.2,1.7,4.8,2.6,7.5,2.6,2.9,0,5.8-1,8-2.8.7-.6,1.4-1.3,2-2"/><path class="cls-2" d="M55.5,109.4c-.2,0-.4,0-.5.2-1,.4-1.6,1.5-1.7,2.5-.1,1.2.3,2.5.7,3.6"/><path class="cls-2" d="M38.9,119.4c0-.1,0-.2,0-.3-2.7-9-3.8-14.6-4.7-24.5-.9-9.4-.2-23.5,7.8-37.2h0c.5-.8.9-1.5,1.4-2.3,3-4.5,6.4-5.5,10.9-5.8,0,0,0,0,0,0,7.4-3.3,17-3,22.6-.5,5.8,2.5,6.3,4.4,10.4,9.2s5.2,9.4,6,14.8c1.2,8.2,0,37.1-6.8,47.5,0,0,0,.1-.1.2,0,0,0,.1,0,.1,0,0,0,0,0,0,0,0,0-.2,0-.4,0-.3,0-.5,0-.2"/><path class="cls-2" d="M43.4,58.3c.1-.3.5-.5.9-.5,2.3,0,7.7,5.9,7.7,8.2h0c0,1-.5,1.9-1.3,2.3-.2,0-.4.1-.6.2-.6,0-1.3,0-1.8-.4-.7-.4-1.3-1.1-1.7-1.8-.8-1.1-4.1-6.5-3.3-8.1Z"/><path class="cls-2" d="M47.8,185.6c5.4,1.3,11.3,1.8,16.9,1.5,7-.4,14.5-1.5,20.3-5.5"/><path class="cls-2" d="M20.2,143.7c4,.9,7.6,3.2,10,6.6"/><path class="cls-2" d="M99.8,142.6c-4,.7-7.7,3-10,6.3,0,0,0,0,0,0"/><path class="cls-2" d="M45.2,121.6c3.3-1.7,6.7-2.9,10.3-3.8"/><path class="cls-2" d="M71.1,117.7c4.3.6,8.5,2.3,12,4.8"/><polygon class="cls-1" points="72.1 158.6 70 158.6 69.9 163.9 65 163.9 65 158.5 54.8 158.4 54.9 153.9 64.7 136.3 70.1 136.3 70 153.3 72.1 153.3 72.1 158.6"/><path class="cls-1" d="M65.3,144c-.6,1.7-1.3,3.2-2.1,4.8l-.5.8c-.9,1.6-1.6,2.8-2.2,3.7.6,0,1.6,0,3.1,0h1.4s0-3.6,0-3.6c0-2.4,0-4.3.2-5.6Z"/><path class="cls-1" d="M87.5,269.8h0c.2,9.5.7,21.3,1.1,23.7"/><path class="cls-1" d="M77.1,296.5c-.6-1.3-.6-1.8-.7-3.3-.4-9.4-1-13.7-2.6-20.1,0,0,0,0,0-.1"/><path class="cls-1" d="M51.2,273.8c0,.2,0,.3-.1.5-1.1,4.9-2.6,13.2-1.9,21.8"/><path class="cls-1" d="M37,292.8c.7-7.6.3-13.2-.3-21.2,0-.1,0-.2,0-.3"/><path class="cls-1" d="M49.2,296.1c.1.2.3.3.4.5,1.1,1.6,2,9.6.5,11-1.2,1.1-4.5.9-6.2.9-4.7,0-9.4,0-14,0-1.5,0-3.1-.1-4.1-1.1-.9-.9-.9-5.9-.6-7.1.6-2.3,4.8-4.9,7.2-5.9,1.5-.8,3.1-1.3,4.6-1.5.3,0,.6,0,.9,0,2.2-.1,4.2.2,5.8.6,2.7.6,4.1.9,5.5,2.8Z"/><path class="cls-1" d="M88.5,293.5c.7,0,1.2,0,1.3,0,3.4.9,9.8,3.2,11.3,6.1.6,1.2,1.2,8.2,0,8.8-.4.2-2.9.7-3.3.7-4.3.2-19.9-.3-21.1-1-1.8-1-1.3-8.5-.4-10.3.2-.5.5-.9.7-1.3.7-1,1.4-1.7,2.9-2.1,1.3-.3,5.4-.7,7.9-.9.2,0,.5,0,.7,0Z"/></svg>