<?xml version="1.0" encoding="UTF-8"?><svg id="asia" xmlns="http://www.w3.org/2000/svg" width="235" height="321.9" viewBox="0 0 235 321.9"><defs><style>.cls-1{stroke-linecap:round;stroke-linejoin:round;}.cls-1,.cls-2{fill:none;stroke:#000;}.cls-2{stroke-miterlimit:10;}.cls-3,.cls-4,.cls-5,.cls-6,.cls-7,.cls-8,.cls-9{stroke-width:0px;}.cls-4{fill:#4a62ba;}.cls-5{fill:#2b388d;}.cls-6{fill:#878586;}.cls-7{fill:#e0bfa4;}.cls-8{fill:#332628;}.cls-9{fill:#fff;}</style></defs><path class="cls-6" d="M112.8,290.9h0c6.9,3.7,13.8,7.4,20.7,11.1,1.2.6,2.4,1.3,3.2,2.4,1.5,2.3-.1,5.5-2.7,6.8s-5.7,1.2-8.6.9c-9-.9-17.7-3.2-26.4-5.5-1-.3-2.2-.6-2.7-1.5-.4-.6-.3-1.4-.2-2.1.5-3.1,1.3-6.2,2.6-9.1h.5c0,.4,0,.8,0,1.2,1,2.2,5.1,3.5,7.2,2.4,1.3-.7,2-2,2.6-3.2.5-1,.3-2.1.8-2.9.1-.2.2-.3.4-.5,1.1-.9,1.6-1,2.6,0Z"/><path class="cls-7" d="M129.8,181.4c1.2,2.7-1.8,5.5-4.2,7.3-2.4,1.8-3.8,2.5-6.3.8-1.2-.8-2.2-2-2.5-3.4,0,0,0-.2,0-.3-.5-2.5,1-5,3.1-6.5,2.1-1.5,0-.8,2.6-1.4,2.8-.9,6.2.7,7.4,3.4Z"/><path class="cls-7" d="M122.4,177.9c-2.6.6-.5-.1-2.6,1.4-2.1,1.5-3.5,4-3.1,6.5h-.1c-2.4-6.5-17.5-15.8-17.4-20.8h0c0-.4,0-.9,0-1.4h.5c2-1.6,5.2-2.1,7.5-3.9,2.3,6,9.7,14.3,15.2,18.2Z"/><path class="cls-7" d="M113.1,233.2c.2,16.3-.6,32.6-2.3,48.8h0c-3.8,1.3-8,1.4-11.8,0h0c-.5-5.9-1.7-11.6-3.5-18.3-.8-3-1.7-9.6-1.2-12.6.4-2.6-.7-5.3-.7-5.3l-.2-.3c5.9-4.3,11.9-10,19.8-12.3Z"/><path class="cls-9" d="M110.8,282h0c-.3,3.1-.7,6.3-1.1,9.4-.5.8-.3,1.9-.8,2.9-.6,1.3-1.4,2.6-2.6,3.2-2.1,1.1-6.2-.3-7.2-2.4,0-.7,0-1.4,0-2.1.1-3.9,0-7.5-.3-10.9h0c3.8,1.3,8,1.2,11.8-.1Z"/><path class="cls-8" d="M113.7,88.3c-1.5,3.4-3.4,5.1-8.3,6.8.4-2.1,3.7-5.4,2.4-7.1-4.6,3.9-14.2,5-20.2,3.9.7-1.2,2.5-2.5,3.2-3.7-3.1,1.1-7.1,2.7-10.9,3.4v.3c-2.8,13.7-1.6,15.9,2.3,24.5-1.7.3-4,.5-6.5.7-1.2,0-2.4.2-3.7.2-5.4.3-11.3.4-15.5.6-.7,0-1.3,0-1.9.1,3-3.2,5.2-9.6,4.9-13.6-1.2-15.5-.4-20.8,4.8-29.7,3.5-6,9.6-12.7,26.2-11.6h.2c21.8,4.9,28.9,14.2,26.2,31.1l-.2.3c-2.2,8.5-8.8,23.4-2.8,32.1-7.5,1.3-10.8,2.3-18.3,1.1v-.2s0,0,.1,0c3.5-.6,8.5-5.5,8.5-5.5,6.8-5.8,5.8-18,6.3-19.8.6-2.2,4.3-9.1,3.3-13.7h0Z"/><path class="cls-7" d="M91.5,112.6l-.2.2c.3,8.9,7.8,9.7,10,4.2-3.9-.4-6.4-2.1-9.8-4.5ZM113.8,88.3c.9,4.7-2.7,11.5-3.3,13.7-.5,1.9.5,14-6.3,19.8,0,0-5,4.9-8.5,5.5,0,0-.1,0-.2,0-1.3,0-4.3-.9-7.5-2.3-2.9-1.3-5.9-3-7.7-4.6-.9-.8-3-2.3-4.5-3.4h0c2.6-.2,4.9-.4,6.5-.7-3.9-8.6-5.1-10.8-2.2-24.5v-.3c3.7-.8,7.7-2.3,10.8-3.4-.7,1.2-2.5,2.5-3.2,3.7,5.9,1.1,15.6,0,20.2-3.9,1.3,1.7-2,5-2.4,7.1,4.9-1.7,6.8-3.3,8.3-6.8h0ZM107.8,105c.3-1.4,0-2.6-.8-2.7-.7-.2-1.6.8-1.8,2.2-.3,1.4,0,2.6.8,2.7.7.2,1.6-.8,1.9-2.2ZM92.3,101.5c.3-1.3,0-2.5-.8-2.7-.8-.2-1.6.8-1.9,2.1-.3,1.3,0,2.5.9,2.7.7.2,1.6-.8,1.9-2.1Z"/><path class="cls-6" d="M78.7,224.5c-2.4,8.7-4.3,17.5-5.4,22.6-.9-.1-1.7-.3-2.5-.4-7.7-1.4-10.8-3.8-18.6-5.2-.7-.1-1.5-.2-2.3-.4,1.7-16.1-1.8-24,4.2-41.9h0c15,4.4,26.1,6.6,41.9,5.1,8.2,8.1,12.5,18.3,17,28.9-7.9,2.2-13.9,8-19.8,12.3-.8.6-1.6,1.1-2.3,1.6-1.9-4.7-9.8-18.5-12.2-22.6Z"/><path class="cls-5" d="M107.2,159.8c-2.3,1.8-5.5,2.3-7.5,4h-.5c.5-9.8.3-19.5-1.5-28.5-.1-.6-.2-1.1-.3-1.6,4.7,6.6,8.1,18.7,11.3,24.7-.4.6-.9,1.1-1.4,1.5Z"/><path class="cls-3" d="M107,102.3c.7.2,1.1,1.4.8,2.7-.3,1.4-1.1,2.3-1.9,2.2-.7-.2-1.1-1.4-.8-2.7.3-1.4,1.1-2.3,1.8-2.2Z"/><path class="cls-4" d="M97.7,135.2c1.8,9,1.9,18.7,1.5,28.5,0,.4,0,.9,0,1.4-.7,13.7-2.6,27.4-3,39.3-15.8,1.6-26.9-.7-41.9-5.2-.3,0-.6-.2-.9-.3,1.6-4.8,1.6-3.8,2.5-8.8h0c.7.5,1.4,1.1,2.1,1.8,1,1.9,6.2,7,8.1,6,1.6-.8,5.1-8.9,4.2-11.2-.9-2.1-9-4.2-10.5-2.5h0c-1.1-1.5-2-2.9-2.8-4.4h.4c1-10.2,1.7-16.2.8-22.5h0c3.2-5.5,7.1-12.8,8-15.3,1-2.9,1.6-5.9.7-8.9,0-.2-.1-.4-.2-.5h.2c2.1-1.6,4.5-2.5,7-2.9v-.2c2.9,2,6.5,3.5,7.9,3.9,2.2.6,4.7.2,6.3-1.4.2-.2.4-.5.4-.7h.1c3.3.3,6.5,1.8,8.9,4.1h.3ZM92.5,175.4v-5.6s-8.7,0-8.7,0c.2-1.2.5-2.3,1.2-3.3.7-1.1,1.9-2.4,3.5-3.9,1.5-1.3,2.5-2.7,3.1-4,.6-1.2.8-2.7.8-4.4,0-2.2-.6-4-1.7-5.4-1.2-1.3-2.8-2-4.9-2-1.7,0-3.2.4-4.4,1.3-1.1.8-2.1,2-3.2,3.8l3.5,3.6c.8-1.3,1.5-2.1,2.1-2.5.5-.4,1.1-.6,1.8-.6.5,0,.9.2,1.2.6.3.4.5,1,.5,1.6,0,.8-.2,1.5-.5,2.1s-1,1.3-1.9,2.1c-2.3,2.1-3.9,4.2-4.9,6.3-1.1,2.5-1.8,5.9-1.8,10.1h14.4Z"/><path class="cls-9" d="M97.7,135.2h-.3c-2.4-2.2-5.6-3.7-8.9-4h-.1c.3-1,0-2.1-.3-3.4h.3c1.7.4,5.2,1.7,6.5,2.8s1.8,1.7,2.6,2.9c.1.5.2,1.1.3,1.6Z"/><path class="cls-9" d="M101.4,117.1c-2.2,5.4-9.6,4.6-10-4.2l.2-.2c3.4,2.4,6,4,9.8,4.5Z"/><path class="cls-9" d="M92.5,169.9v5.6s-14.4,0-14.4,0c0-4.2.7-7.5,1.8-10.1,1-2.1,2.6-4.2,4.9-6.3.9-.8,1.6-1.5,1.9-2.1s.5-1.3.5-2.1c0-.7-.2-1.2-.5-1.6-.3-.4-.7-.6-1.2-.6-.7,0-1.3.2-1.8.6-.6.4-1.3,1.3-2.1,2.5l-3.5-3.6c1.1-1.8,2.1-3,3.2-3.8,1.2-.9,2.7-1.3,4.4-1.3,2.1,0,3.8.7,4.9,2,1.2,1.3,1.7,3.1,1.7,5.4,0,1.7-.3,3.1-.8,4.4-.6,1.3-1.6,2.6-3.1,4-1.6,1.5-2.8,2.8-3.5,3.9-.6,1-1,2.1-1.2,3.3h8.7Z"/><path class="cls-3" d="M91.5,98.8c.8.2,1.1,1.4.8,2.7-.3,1.3-1.1,2.2-1.9,2.1-.8-.2-1.1-1.4-.9-2.7.3-1.3,1.1-2.2,1.9-2.1Z"/><path class="cls-7" d="M88,127.9c.3,1.3.7,2.4.3,3.3,0,.3-.2.5-.4.7-1.5,1.6-4.1,2-6.3,1.4-1.4-.4-5-1.9-7.8-3.9-1.5-1.1-2.8-2.3-3.2-3.6v-.2s0,0,0,0c.4-1,.7-2.1.9-3.2.3-1.8.4-3.7.4-5.2,1.3,0,2.5-.1,3.7-.2h0c1.4,1.1,3.6,2.6,4.5,3.4,1.8,1.6,4.8,3.3,7.7,4.6h0c-.2,1,0,2,0,2.8Z"/><path class="cls-7" d="M70.8,246.7h0c-2.5,8.3-4,8.5-8.4,16.7-2.9,5.5-5.3,10.6-8.1,15.5l-.4-.2c-2.4.2-4.8-.6-6.9-1.7s-3.9-2.7-5.8-4.2h-.2c1.4-5.6,3.2-10.9,5.6-14.8,1.7-2.7,3.6-5.9,4.7-8.9,1.2-3,1.2-4.1.8-7.6,7.8,1.4,10.9,3.7,18.6,5.2Z"/><path class="cls-6" d="M49,287.1c.5,0,.8.4,1.2,1,5.3,5.2,10.6,10.5,15.9,15.7.9.9,1.9,1.9,2.3,3.1.8,2.6-1.6,5.2-4.3,5.8-2.7.6-5.6-.4-8.2-1.4-8-3.2-15.5-7.6-22.9-12-.9-.5-1.9-1.2-2.1-2.1-.2-.7.1-1.4.4-2.1,1.3-2.8,3.6-7.5,6.4-8.2h.4c-.2.9-.3,1.7-.5,2.5h0c1.2,1.9,7.5,2,8.3,1,.9-1,.6-2.5,1.9-3,.5-.2.9-.3,1.3-.3Z"/><path class="cls-9" d="M73.9,129.5v.2c-2.6.4-5.1,1.3-7.1,2.8h-.2c-.9-2.5-3.1-5.2-5.6-4.8,4.9-1.2,4.6-1.1,9.7-1.9v.2c.5,1.2,1.7,2.5,3.2,3.6Z"/><path class="cls-7" d="M59.7,184.2h0c1.6-1.7,9.7.4,10.5,2.5.9,2.3-2.6,10.4-4.2,11.2-1.9,1-7.1-4.1-8.1-6-.7-.6-1.5-1.3-2.1-1.9-7.2-6.4-11.2-10.6-15.9-19.9-1.2-2.4-.4-7.5,1.2-12.8h0c1.5,1.4,5,3.7,9.9,5.7-.7,1.1-1.3,2.2-2,3.4,3.5,5.5,5.3,9.4,7.7,13.4.8,1.4,1.8,2.9,2.8,4.4Z"/><path class="cls-8" d="M72,117.3c0,1.6,0,3.4-.4,5.2h-.2c-4.5-.6-10.4-3.6-14.9-4.6,4.2-.2,10.1-.4,15.5-.6Z"/><path class="cls-5" d="M51.2,163c-4.9-2-8.4-4.3-9.9-5.7-.5-.5-.8-.8-.9-1.1-.3-.9,7.2-16,7.7-16.8,4.5-6.9,5.7-9.3,12.3-11.5.2,0,.3,0,.5-.1,0,0,0,0,0,0,2.5-.4,4.7,2.3,5.6,4.9,0,.2.1.4.2.5.9,3,.3,5.9-.7,8.9-.9,2.6-4.8,9.8-8,15.3-1.9,3.4-3.6,6.1-4.2,6.7-.9-.3-1.8-.6-2.7-1Z"/><path class="cls-9" d="M53.9,278.7l.4.2c-1.5,2.7-3.2,5.4-5.3,8.1-.3,0-.7,0-1.3.3-1.3.5-1,2-1.9,3-.9,1-7.1.8-8.3-1h0c.2-.8.3-1.6.5-2.4.8-4.3,1.8-9.3,3-14.2h.2c1.8,1.6,3.7,3.1,5.8,4.3s4.5,1.9,6.9,1.7Z"/><path class="cls-1" d="M71.4,122.5c-4.5-.6-10.4-3.5-14.9-4.6-.1,0-.3,0-.4,0"/><path class="cls-1" d="M114.8,85.4c-.4,1.1-.7,2-1.1,2.9-1.5,3.4-3.4,5.1-8.3,6.8.4-2.1,3.7-5.4,2.4-7.1-4.6,3.9-14.2,5-20.2,3.9.7-1.2,2.5-2.5,3.2-3.7-3.1,1.1-7.1,2.7-10.9,3.4-1.6.3-3.2.5-4.6.4-.8,0-1.8-.2-2.3-.8,3.1-.5,5.6-2.5,7.4-5.1"/><path class="cls-1" d="M90.6,63.2c21.8,4.8,28.9,14.1,26.2,31"/><path class="cls-1" d="M95.5,127.6c7.5,1.2,10.8.2,18.3-1.1-5.9-8.7.6-23.6,2.8-32.1"/><path class="cls-1" d="M90.4,63.1c-16.5-1.2-22.6,5.5-26.2,11.6-5.2,9-6,14.2-4.8,29.7.3,4.1-1.9,10.5-4.9,13.6.6,0,1.2,0,1.9-.1,4.2-.2,10.1-.4,15.5-.6,1.3,0,2.5-.1,3.7-.2,2.6-.2,4.9-.4,6.5-.7-3.9-8.6-5.1-10.8-2.2-24.5"/><path class="cls-1" d="M113.8,88.3c.9,4.7-2.7,11.5-3.3,13.7-.5,1.9.5,14-6.3,19.8,0,0-5,4.9-8.5,5.5,0,0-.1,0-.2,0-1.3,0-4.3-.9-7.5-2.3-2.9-1.3-5.9-3-7.7-4.6-.9-.8-3-2.3-4.5-3.4"/><path class="cls-1" d="M110.2,99.9c-.1-2.2-4.3-3-5.2-1.8"/><path class="cls-1" d="M95.9,95.2c-1.1-1.7-4.9-3.1-7.2-1.2"/><path class="cls-1" d="M101.3,107.5c2.6,3.5,1.1,5.3-.9,5.9"/><path class="cls-1" d="M105.1,104.4c-.3,1.4,0,2.6.8,2.7.7.2,1.6-.8,1.9-2.2.3-1.4,0-2.6-.8-2.7-.7-.2-1.6.8-1.8,2.2Z"/><path class="cls-1" d="M89.6,100.9c-.3,1.3,0,2.5.9,2.7.7.2,1.6-.8,1.9-2.1.3-1.3,0-2.5-.8-2.7-.8-.2-1.6.8-1.9,2.1Z"/><path class="cls-1" d="M101.4,117.1s0,0,0,0c-3.9-.4-6.4-2.1-9.8-4.5-.3-.2-.5-.4-.8-.6"/><path class="cls-1" d="M101.5,116.7c0,.1,0,.2-.1.4-2.2,5.4-9.6,4.6-10-4.2"/><path class="cls-1" d="M72,117.3h0c0,1.6,0,3.4-.4,5.3-.2,1.1-.5,2.2-.9,3.2"/><path class="cls-1" d="M70.7,125.9c.4,1.2,1.7,2.5,3.2,3.6,2.7,2,6.4,3.5,7.8,3.9,2.2.6,4.7.2,6.3-1.4.2-.2.4-.5.4-.7.3-.9,0-2-.3-3.3-.2-.9-.3-1.8,0-2.8"/><path class="cls-1" d="M60.8,127.7c-.2,0-.3,0-.5.1-6.5,2.2-7.8,4.6-12.3,11.5-.5.8-8,15.9-7.7,16.8,0,.3.4.7.9,1.1,1.5,1.5,5,3.8,9.9,5.7.8.3,1.7.7,2.7,1,.6-.7,2.3-3.4,4.2-6.7,3.2-5.5,7.1-12.8,8-15.3,1-2.9,1.6-5.9.7-8.9,0-.2-.1-.4-.2-.5-.9-2.6-3.1-5.3-5.6-4.9"/><path class="cls-1" d="M55.8,190.1c-.8,5-.9,4-2.5,8.8.3,0,.6.2.9.3,15,4.5,26.1,6.8,41.9,5.2.4-11.9,2.3-25.6,3-39.3,0-.4,0-.9,0-1.4.5-9.8.3-19.5-1.5-28.5-.1-.6-.2-1.1-.3-1.6,0-.1,0-.3,0-.4"/><path class="cls-1" d="M58,157.3c.9,6.3.2,12.4-.8,22.4"/><path class="cls-1" d="M41.2,157.4c-1.6,5.2-2.4,10.4-1.2,12.8,4.6,9.3,8.6,13.5,15.9,19.9.7.6,1.4,1.2,2.1,1.9"/><path class="cls-1" d="M51.3,162.8c0,0,0,.1-.1.2-.7,1.1-1.3,2.2-2,3.4,3.5,5.5,5.3,9.4,7.7,13.4.8,1.4,1.8,2.9,2.8,4.4.1.1.2.3.3.4"/><path class="cls-1" d="M88.2,127.9c1.7.5,5.2,1.8,6.5,2.9s1.8,1.7,2.6,2.9c4.7,6.6,8.1,18.7,11.3,24.7-.4.6-.9,1.1-1.4,1.5-2.3,1.8-5.5,2.3-7.5,4"/><path class="cls-1" d="M59.8,184.2c1.6-1.6,9.7.4,10.5,2.5.9,2.3-2.6,10.4-4.2,11.2-1.9,1-7.1-4.1-8.1-6"/><path class="cls-1" d="M99.1,165.1c0,5,15,14.2,17.4,20.8"/><path class="cls-1" d="M107.1,159.5c0,0,0,.2,0,.2,2.3,6,9.7,14.3,15.2,18.2"/><path class="cls-1" d="M122.4,177.9c-2.6.6-.5-.1-2.6,1.4-2.1,1.5-3.5,4-3.1,6.5,0,0,0,.2,0,.3.4,1.4,1.3,2.6,2.5,3.4,2.5,1.7,3.9,1,6.3-.8,2.4-1.8,5.4-4.6,4.2-7.3s-4.5-4.3-7.4-3.4"/><path class="cls-1" d="M54.2,199.3c-6,17.9-2.6,25.8-4.2,41.9.8.1,1.5.2,2.3.4,7.8,1.4,10.9,3.7,18.6,5.2.8.2,1.6.3,2.5.4,1.1-5,3-13.9,5.4-22.6,1.1-4,2.4-8,3.7-11.5"/><path class="cls-1" d="M70.8,246.8c-2.5,8.2-4,8.4-8.4,16.6-2.9,5.5-5.3,10.6-8.1,15.5-1.5,2.7-3.2,5.4-5.3,8.1,0,0,0,0,0,0"/><path class="cls-1" d="M52.2,241.5c.4,3.4.4,4.5-.8,7.6-1.2,3-3.1,6.2-4.7,8.9-2.4,3.9-4.2,9.2-5.6,14.7-1.3,4.9-2.2,9.9-3,14.2-.2.8-.3,1.6-.5,2.4"/><path class="cls-1" d="M78.7,224.5s0,0,0,0c2.4,4.1,10.3,17.8,12.2,22.6.8-.5,1.6-1,2.3-1.6,5.9-4.3,11.9-10,19.8-12.3-4.5-10.6-8.8-20.8-17-28.9"/><path class="cls-1" d="M93.5,245.8s1.1,2.7.7,5.3c-.5,3.1.4,9.6,1.2,12.6,1.8,6.7,2.9,12.4,3.5,18.4.3,3.5.4,7,.3,10.9,0,.7,0,1.4,0,2.1,0-.4,0-.8,0-1.2v-.9"/><path class="cls-1" d="M113.1,233.2c.2,16.3-.6,32.6-2.3,48.8-.3,3.1-.7,6.3-1.1,9.4,0,0,0,.2,0,.2"/><path class="cls-1" d="M60.3,127.8c.2,0,.3,0,.5-.1,0,0,0,0,0,0,4.9-1.2,4.6-1.1,9.7-1.9,0,0,0,0,0,0"/><path class="cls-1" d="M99,295c0,0,0,.1,0,.2,1,2.2,5.1,3.5,7.2,2.4,1.3-.7,2-2,2.6-3.2.5-1,.3-2.1.8-2.9.1-.2.2-.3.4-.5,1.1-.9,1.6-1,2.6,0h0"/><path class="cls-1" d="M98.7,294c-1.3,2.9-2.1,6-2.6,9.1-.1.7-.2,1.5.2,2.1.5.9,1.7,1.2,2.7,1.5,8.7,2.3,17.4,4.6,26.4,5.5,2.9.3,6.1.4,8.6-.9s4.2-4.5,2.7-6.8c-.7-1.1-2-1.8-3.2-2.4-6.9-3.7-13.8-7.4-20.7-11.2"/><path class="cls-1" d="M37.2,288.8c0,.2,0,.4.2.6,1.2,1.9,7.5,2,8.3,1,.9-1,.6-2.5,1.9-3,.5-.2.9-.3,1.3-.3.5,0,.8.4,1.2,1,0,0,0,0,0,.1"/><path class="cls-1" d="M37.6,286.9c-2.8.7-5.2,5.4-6.4,8.2-.3.7-.6,1.4-.4,2.1.2,1,1.2,1.6,2.1,2.1,7.4,4.4,14.9,8.8,22.9,12,2.6,1,5.5,2,8.2,1.4,2.7-.6,5.1-3.2,4.3-5.8-.4-1.2-1.3-2.2-2.3-3.1-5.3-5.2-10.6-10.5-15.9-15.7,0,0-.2-.2-.3-.3"/><path class="cls-2" d="M41.2,272.8c1.8,1.5,3.7,3.1,5.8,4.2s4.5,1.9,6.9,1.7"/><path class="cls-2" d="M99,282.1c3.8,1.3,8,1.2,11.8,0"/><path class="cls-1" d="M73.7,129.7c-2.5.4-4.9,1.3-7,2.8"/><path class="cls-1" d="M88.4,131.3c3.3.3,6.5,1.7,8.9,4"/><path class="cls-1" d="M92.5,175.4h-14.4c0-4.2.7-7.5,1.8-10.1,1-2.1,2.6-4.2,4.9-6.3.9-.8,1.6-1.5,1.9-2.1s.5-1.3.5-2.1c0-.7-.2-1.2-.5-1.6-.3-.4-.7-.6-1.2-.6-.7,0-1.3.2-1.8.6-.6.4-1.3,1.3-2.1,2.5l-3.5-3.6c1.1-1.8,2.1-3,3.2-3.8,1.2-.9,2.7-1.3,4.4-1.3,2.1,0,3.8.7,4.9,2,1.2,1.3,1.7,3.1,1.7,5.4,0,1.7-.3,3.1-.8,4.4-.6,1.3-1.6,2.6-3.1,4-1.6,1.5-2.8,2.8-3.5,3.9-.6,1-1,2.1-1.2,3.3h8.7s0,5.6,0,5.6Z"/></svg>