<?xml version="1.0" encoding="UTF-8"?><svg id="asia" xmlns="http://www.w3.org/2000/svg" width="235" height="321.9" viewBox="0 0 235 321.9"><defs><style>.cls-1{stroke-linecap:round;stroke-linejoin:round;}.cls-1,.cls-2{fill:none;stroke:#000;}.cls-2{stroke-miterlimit:10;}.cls-3,.cls-4,.cls-5,.cls-6,.cls-7,.cls-8,.cls-9,.cls-10{stroke-width:0px;}.cls-4{fill:#3a3f45;}.cls-5{fill:#3d8e3d;}.cls-6{fill:#1a2636;}.cls-7{fill:#cbaa99;}.cls-8{fill:#fff;}.cls-9{fill:#052936;}.cls-10{fill:#67b96a;}</style></defs><path class="cls-4" d="M137.2,303.2c1.9,2.2.8,5.8-1.7,7.6-2.4,1.8-5.7,2.1-8.7,2.3-9.3.4-19.4-3.3-28.6-4.3-1.1-.1-2.3-.3-3-1.2-.5-.6-.5-1.4-.5-2.2,0-1.7,0-3.4.3-5.1,7.2.9,16.4-2.2,21.4-7.5h0c5.8,2.8,11.7,6.2,17.2,8.3,1.3.5,2.7,1,3.6,2.1Z"/><path class="cls-7" d="M135,166.4c1.5,3.7-2.3,7.5-5.3,10-3,2.4-4.8,3.4-7.9,1.1-1.5-1.1-2.7-2.7-3.1-4.6,0-.1,0-.2,0-.4-.3-3.6,5.9-10.5,7.1-10.8,3.6-1.2,7.7,1,9.3,4.7Z"/><path class="cls-9" d="M72,214.9c-5.3,17.2-7,24.2-9.2,29.4-.8,1.9-13.6,45.7-15.4,46.6-.5.3-1.2.5-2.1.7-2.4.6-6,.9-9.7.9-4.6,0-9.1-.6-13.6-1.2l-1.6-.2c11.6-30.1,17.6-48,20.2-62.2,2.2-12.2,1.6-28.9,4.4-42.7,17,6.4,36.2,9.2,49,5.4,0-.1,0-.3,0-.4,4.9,8.4,16.1,30.2,19.8,42,.8,2.6,3.6,47.5,4,57.8-.4.6-.9,1.2-1.5,1.8-5,5.2-14.2,8.4-21.4,7.5-.8,0-1.5-.2-2.2-.4-.2-10.8-1.7-19.9-1.5-37.3,0-6.6-3.7-23.7-5.8-27.5-3.8-7-8-14.3-13.5-20.1Z"/><path class="cls-7" d="M125.7,161.7c-1.3.3-7.4,7.2-7.1,10.8h-.2c-2.6-7.5-16.9-18.5-21.2-25.8l.4-.3c2.6-4.6,6.1-6.5,10.2-7.7,4.2,6.2,10.9,17.7,17.9,23Z"/><path class="cls-6" d="M79.9,35.7c-.2-5.1,9.5-3.1,13.6-2.5,11.7,1.9,19.5,8.9,22.8,20.3,3.3,11.4.4,24.1-6.7,33.6-.3.4-.7.9-1.2,1.1-1,.3-2.1-.6-2.3-1.7s.1-2.1.4-3.2c.4-1.5.5-3,.4-4.5-.1-4.7-2-9.4-4.6-13.4-3.5-5.3-12-11-16.3-15.7-.6-.6-1-1.2-1.5-1.8-2.5-3.3-3.6-6.9-4.5-11.5,0-.3,0-.5,0-.7Z"/><path class="cls-5" d="M107.9,138.7c-4.1,1.2-7.7,3.1-10.2,7.7l-.4.3c-.8-1.4-1.3-2.6-1.2-3.6h0c.3-8.8.1-17.6-1.2-26.2-.5-3.3-.6-5.7-1.3-8.6-.3-1.2-.6-2.5-1.2-4l.2-.2c9.7,8.7,11.4,28,16.7,34.3-.4.1-.9.2-1.3.4Z"/><path class="cls-7" d="M84.9,99.7c0,.5-.3,2.1-1,3.6-.8,1.6-2.1,3.2-4,3.4-3.3.4-7.2-1.8-10.5-4.5-1.8-1.4-3.4-3-4.6-4.3l-.3-.5c.8-1.9.6-7.9.2-13.2,0,0,.2-.1.3-.2,5.9-5.7,7.6-26,9-29.1.9-2.1,2.2-4.1,4.2-5.2,2-1.1,3.9-1.5,6.1-1.6l.3-.2c.4.6.9,1.2,1.5,1.8,4.3,4.6,12.8,10.4,16.3,15.7,2.6,4,4.5,8.7,4.6,13.4-.6,3.5-1.9,9.9-7.8,16.3,0,0-4.4,5.3-8.5,5.9-.7.1-2.2-.1-4.2-.8-.4-.1-.9-.3-1.4-.5ZM83.7,85.7c.3,6.9,11.2,10.4,12.3,5.2-4.9-.5-7.7-2.2-12.1-5.2h-.1ZM104.8,75.2c.3-1.5,0-2.8-.9-3-.8-.2-1.8.9-2.1,2.3s0,2.8.9,3,1.8-.9,2.2-2.3ZM88.5,71.5c.3-1.4-.1-2.7-1-2.9-.9-.2-1.9.8-2.2,2.2-.3,1.4.1,2.7,1,2.9.9.2,1.9-.8,2.2-2.2Z"/><path class="cls-3" d="M103.9,72.3c.8.2,1.3,1.5.9,3s-1.3,2.5-2.2,2.3-1.2-1.5-.9-3,1.3-2.5,2.1-2.3Z"/><path class="cls-10" d="M94,191.3c0,.1,0,.3,0,.4-12.8,3.9-32,1-49-5.4-.4-.1-.7-.3-1.1-.4,1.8-5.4,2.3-10.7,3.2-16.3,1.5,1.1,3.1,2.3,4.7,3.6,1.4,2.2,8.5,8.3,11.1,7.2,2.2-.9,7-10.5,5.7-13.2-1.2-2.5-12.3-5-14.4-3.1h0c-2.3-2.8-4.3-5.6-6.3-8.6h.1c0-10.3.6-18.7.7-25.7,2-3,3.9-6,5.8-9,2.2-3.5,3.5-7.7,2.8-11.9-.1-.9-.4-1.8-.7-2.6,3.9-1.6,8-2.8,12.1-3.8l.6-.3c3.3,2.7,7.2,4.9,10.5,4.5,1.9-.2,3.2-1.8,4-3.4h.6c2.2.2,4.2,1,6,2.3,1.1.8,2.1,1.8,3,2.8.7,3,.8,5.4,1.3,8.6,1.3,8.6,1.4,17.3,1.2,26.2-.5,15.9-2.4,32.1-1.9,48.2ZM84.8,155l1.1-28-5.1-.2c-.3,1.1-.8,1.9-1.5,2.4-.7.5-1.7.7-3,.8l-.2,4.1h3.4c0,.1-.8,20.7-.8,20.7l6.1.2Z"/><path class="cls-8" d="M86.3,100.5c2.4.7,4.4,2,6.2,3.6l-.2.2c.5,1.5.9,2.8,1.2,4-1-1-1.9-2-3-2.8-1.8-1.3-3.9-2-6-2.2h-.6c.8-1.6,1.1-3.1,1-3.6.5.2,1,.4,1.4.5v.3Z"/><path class="cls-8" d="M96,90.8c-1,5.2-11.9,1.7-12.3-5.2h.1c4.4,2.9,7.2,4.7,12.1,5.2Z"/><path class="cls-3" d="M87.5,68.6c.9.2,1.3,1.5,1,2.9-.3,1.4-1.3,2.4-2.2,2.2-.9-.2-1.3-1.5-1-2.9.3-1.4,1.3-2.4,2.2-2.2Z"/><path class="cls-8" d="M85.9,127l-1.1,28-6.1-.2.8-20.5h-3.4c0-.1.2-4.3.2-4.3,1.3,0,2.4-.4,3-.8.7-.5,1.2-1.3,1.5-2.4l5.1.2Z"/><path class="cls-6" d="M64.7,84.3c-.6.6,0,0-1.2-.1h-.3c-8.2-3-8.1-11.7-8.5-19.2-.4-9.1,4.8-24.8,17-27.9s5.5-1.2,8.1-1.3c0,.2,0,.5,0,.7.9,4.6,2,8.2,4.5,11.5l-.3.2c-2.2.1-4,.5-6.1,1.6-2,1.1-3.2,3.1-4.2,5.2-1.4,3-3.1,23.4-9,29.1-.1,0-.2.2-.3.2Z"/><path class="cls-7" d="M39.5,142.8c3.3,4.6,5.9,8.8,8.5,12.7,2,3,3.9,5.8,6.3,8.7h0c2.1-2,13.3.5,14.4,3,1.3,2.7-3.5,12.3-5.7,13.2-2.6,1.1-9.8-4.9-11.1-7.2-1.7-1.3-3.3-2.5-4.7-3.6-8.8-6.8-14.1-11.9-20-22.2-1.5-2.7-1-7.5.7-13h.1c4.8-.9,9.9,2.9,13.9,5.8-.7,1-1.3,1.7-2,2.2l-.4.4Z"/><path class="cls-8" d="M69.4,102.2l-.6.3c-4.1,1-8.2,2.3-12.1,3.8-.4-1-.9-1.9-1.6-2.7-1.3-1.5-3.2-2.6-5.1-2.5h0c.2-.2.4-.3.5-.4,5.4-.8,10.2-1.7,13.9-2.4l.3-.3c1.3,1.3,2.9,2.8,4.6,4.3Z"/><path class="cls-4" d="M60.6,307c1.6,7.4-4.2,9.3-10.2,8-9.5-2.2-14.5-5.2-28.8-15.1-.9-.7-2.1-1.3-2.3-2.4-.2-.8.1-1.7.5-2.4.6-1.4,1.2-2.4,2.2-3.6h0c4.5.6,9,1.2,13.6,1.2,3.8,0,7.4-.3,9.7-.9,3.4,6.7,4.7,8.4,12.1,12.6,1.3.7,2.9,1.2,3.2,2.6Z"/><path class="cls-5" d="M48.8,129.8c-2.1,3.2-4.2,6.4-6.4,9.6-.2.3-.4.5-.5.8-4-2.9-9.1-6.7-13.9-5.8h-.1c.5-1.7,1.2-3.4,1.9-5.1h0c.6-1.6,12.7-24.9,20.1-28.4h0c2,.1,3.9,1.2,5.1,2.7.7.8,1.2,1.7,1.6,2.7.3.8.6,1.7.7,2.6.7,4.1-.6,8.3-2.8,11.9-1.9,3-3.8,6-5.8,9Z"/><path class="cls-1" d="M29.8,129.2c.6-1.6,12.7-24.9,20.1-28.3.2,0,.4-.2.5-.2"/><path class="cls-1" d="M50,101c2,0,3.9,1,5.1,2.5.7.8,1.2,1.7,1.6,2.7.3.8.6,1.7.7,2.6.7,4.1-.6,8.3-2.8,11.9-1.9,3-3.8,6-5.8,9-2.1,3.2-4.2,6.4-6.4,9.6-.2.3-.4.5-.5.8-.7,1-1.3,1.7-2,2.2"/><path class="cls-1" d="M92.3,104.3c.5,1.5.9,2.8,1.2,4,.7,3,.8,5.4,1.3,8.6,1.3,8.6,1.4,17.3,1.2,26.2-.5,15.9-2.4,32.1-1.9,48.2,0,.1,0,.3,0,.4-12.8,3.9-32,1-49-5.4-.4-.1-.7-.3-1.1-.4,1.8-5.4,2.3-10.7,3.2-16.3"/><path class="cls-1" d="M48.8,129.8h0c0,7-.6,15.4-.7,25.6"/><path class="cls-1" d="M29.8,129.3c-.7,1.7-1.4,3.4-1.9,5.1-1.7,5.5-2.3,10.3-.7,13,6,10.4,11.2,15.4,20,22.2,1.5,1.1,3.1,2.3,4.7,3.6"/><path class="cls-1" d="M38.3,141.1c.4.6.8,1.1,1.2,1.7,3.3,4.6,5.9,8.8,8.5,12.7,2,3,3.9,5.8,6.3,8.7.1.2.3.3.4.5"/><path class="cls-1" d="M85.8,100.4c.1,0,.3,0,.4.1,2.4.7,4.4,2,6.2,3.6,9.7,8.7,11.4,28,16.7,34.3-.4.1-.9.2-1.3.4-4.1,1.2-7.7,3.1-10.2,7.7"/><path class="cls-1" d="M54.3,164.1c2.1-1.9,13.3.6,14.4,3.1,1.3,2.7-3.5,12.3-5.7,13.2-2.6,1.1-9.8-4.9-11.1-7.2"/><path class="cls-1" d="M96,143.1c0,1.1.4,2.3,1.2,3.6,4.3,7.3,18.7,18.3,21.2,25.8"/><path class="cls-1" d="M107.8,138.6s0,.1.1.2c4.2,6.2,10.9,17.7,17.9,23"/><path class="cls-1" d="M125.7,161.7c-1.3.3-7.4,7.2-7.1,10.8,0,.1,0,.3,0,.4.4,1.9,1.6,3.5,3.1,4.6,3.1,2.3,4.9,1.3,7.9-1.1,3-2.4,6.8-6.3,5.3-10s-5.7-5.9-9.3-4.7"/><path class="cls-1" d="M50.5,100.7c5.4-.8,10.2-1.7,13.9-2.4"/><path class="cls-1" d="M45.1,186.1c0,0,0,.1,0,.2-2.8,13.7-2.2,30.5-4.4,42.7-2.6,14.1-8.6,32.1-20.2,62.2l1.6.2c4.5.7,9,1.2,13.6,1.2,3.8,0,7.4-.3,9.7-.9.9-.2,1.6-.4,2.1-.7,1.8-1,14.6-44.8,15.4-46.6,2.1-5.3,3.9-12.3,9.2-29.4,1.4-4.5,3-9.7,4.9-15.7"/><path class="cls-2" d="M71.6,214.4c.2.2.3.3.5.5,5.5,5.8,9.6,13.1,13.5,20.1,2.1,3.8,5.9,20.8,5.8,27.5-.3,17.4,1.3,26.5,1.5,37.3.7.2,1.4.3,2.2.4,7.2.9,16.4-2.2,21.4-7.5.6-.6,1.1-1.2,1.5-1.8-.4-10.3-3.2-55.2-4-57.8-3.7-11.8-14.9-33.6-19.8-42-.1-.2-.2-.3-.3-.5"/><path class="cls-1" d="M84.9,99.7c0,.5-.3,2.1-1,3.6-.8,1.6-2.1,3.2-4,3.4-3.3.4-7.2-1.8-10.5-4.5-1.8-1.4-3.4-3-4.6-4.3"/><path class="cls-1" d="M22,291.4c-1,1.3-1.6,2.3-2.2,3.6-.3.8-.6,1.6-.5,2.4.2,1.1,1.4,1.8,2.3,2.4,14.3,9.9,19.3,12.9,28.8,15.1,6,1.4,11.8-.6,10.2-8s-1.9-1.9-3.2-2.6c-7.4-4.3-8.7-5.9-12.1-12.6"/><path class="cls-1" d="M95,300.3c-.2,1.7-.3,3.4-.3,5.1,0,.8,0,1.6.5,2.2.7.8,1.9,1,3,1.2,9.3,1,19.3,4.7,28.6,4.3,3.1-.1,6.3-.5,8.7-2.3,2.4-1.8,3.6-5.4,1.7-7.6-.9-1-2.3-1.6-3.6-2.1-5.5-2.1-11.5-5.5-17.2-8.3"/><path class="cls-1" d="M90.5,101c-.7.1-2.2-.1-4.2-.8-.4-.1-.9-.3-1.4-.5-4.7-1.8-11.2-5.4-16.7-11.2"/><path class="cls-1" d="M107.3,76.5c-.1.4-.2,1.2-.4,2.2-.6,3.5-1.9,9.9-7.8,16.3,0,0-4.4,5.3-8.5,5.9"/><path class="cls-1" d="M83.3,63.1c3.7-1.1,7.3-.4,8.6,1.4"/><path class="cls-1" d="M97.8,85.2c-3.3,2.3-7.4.1-8.6-1.3"/><path class="cls-1" d="M101.8,74.6c-.3,1.5,0,2.8.9,3s1.8-.9,2.2-2.3,0-2.8-.9-3c-.8-.2-1.8.9-2.1,2.3Z"/><path class="cls-1" d="M85.3,70.9c-.3,1.4.1,2.7,1,2.9.9.2,1.9-.8,2.2-2.2.3-1.4-.1-2.7-1-2.9-.9-.2-1.9.8-2.2,2.2Z"/><path class="cls-1" d="M96,90.8c-4.9-.5-7.7-2.2-12.1-5.2"/><path class="cls-1" d="M96,90.8c-1,5.2-11.9,1.7-12.3-5.2,0,0,0-.1,0-.2"/><path class="cls-1" d="M64.7,83.8c0,.2,0,.3,0,.5.4,5.2.6,11.3-.2,13.2"/><path class="cls-1" d="M80,35.7s0,0,0,0c-2.6.2-5.3.6-8.1,1.3-12.2,3.1-17.4,18.8-17,27.9.3,7.5.3,16.2,8.5,19.2"/><path class="cls-1" d="M64.9,84.1c5.9-5.7,7.6-26,9-29.1.9-2.1,2.2-4.1,4.2-5.2,2-1.1,3.9-1.5,6.1-1.6"/><path class="cls-1" d="M63.5,84.2c1.2,0,.6.7,1.2.1,0,0,.2-.1.3-.2"/><path class="cls-1" d="M42,140.2s0,0,0,0c-4-2.9-9.1-6.7-13.9-5.8"/><path class="cls-1" d="M84.5,47.9c.4.6.9,1.2,1.5,1.8,4.3,4.6,12.8,10.4,16.3,15.7,2.6,4,4.5,8.7,4.6,13.4,0,1.5,0,3-.4,4.5-.2,1-.6,2.1-.4,3.2s1.3,2,2.3,1.7c.5-.2.9-.6,1.2-1.1,7-9.5,10-22.2,6.7-33.6-3.3-11.4-11.1-18.4-22.8-20.3-4.1-.7-13.8-2.6-13.6,2.5,0,.2,0,.5,0,.7.9,4.6,2,8.2,4.5,11.5Z"/><path class="cls-1" d="M56.7,106.3s0,0,0,0c3.9-1.6,8-2.8,12.1-3.8"/><path class="cls-1" d="M84.4,103.3c2.2.2,4.2,1,6,2.2,1.1.8,2.1,1.8,3,2.8,0,0,.1.1.2.2"/><path class="cls-1" d="M84.8,155l-6.1-.2.8-20.5h-3.4c0-.1.2-4.3.2-4.3,1.3,0,2.4-.4,3-.8.7-.5,1.2-1.3,1.5-2.4l5.1.2-1.1,28Z"/></svg>