<?xml version="1.0" encoding="UTF-8"?><svg id="asia" xmlns="http://www.w3.org/2000/svg" width="235" height="321.9" viewBox="0 0 235 321.9"><defs><style>.cls-1{stroke-linecap:round;stroke-linejoin:round;}.cls-1,.cls-2{fill:none;stroke:#000;}.cls-2{stroke-miterlimit:10;}.cls-3,.cls-4,.cls-5,.cls-6,.cls-7,.cls-8,.cls-9,.cls-10,.cls-11{stroke-width:0px;}.cls-4{fill:#f9f9f9;}.cls-5{fill:#4f413b;}.cls-6{fill:#0c6e2c;}.cls-7{fill:#d8bb2b;}.cls-8{fill:#f2d949;}.cls-9{fill:#f2cab3;}.cls-10{fill:#fff;}.cls-11{fill:#fbc414;}</style></defs><path class="cls-4" d="M218,212.3c2.8,1.3,3.4,5.3,1.9,8-1.5,2.8-4.3,4.5-7.1,6-8.5,4.5-17.7,7.5-26.8,10.6-1.1.4-2.3.7-3.3.2l-.2-.4c-1.7-3.4-5-7.7-5.1-11.4h0c.1,0,.3.1.4.2h0c1,3.9,10.7-6.6,10.2-7.9-.3-.7-2.7-1.6-2.8-3.1,0-.5.1-.9.3-1.3.4-.5,1-.9,1.8-1h.6c8.4,1.7,17.2.3,25.7-.3,1.5-.1,3-.2,4.3.4Z"/><path class="cls-6" d="M188,217.6c.6,1.3-9.2,11.9-10.2,8h0c-.2-.1-.3-.2-.4-.3-14.4-5.9-18.7-3.4-25.9-6.3.4-2.3.8-4.7,1.5-6.6,1.2-3.2,4.1-7.2,7.1-8.7v-.2c8.4,3.2,14.8,5.7,25.5,9.7h0c-.2.4-.4.8-.3,1.3,0,1.5,2.4,2.4,2.8,3.1Z"/><path class="cls-11" d="M79.7,208.4c-4.8-4.4-13.4-15.5-12.4-29.2h.2c4.1-2.9,9.2-4.1,14.2-3.3,5.3.8,11.8,2,18.8,3.9,7.6,2.1,9.7,3.4,14.4,4.9h0c0,0,0,0,0,0,9,3.7,21.9,8.7,34.3,14.9,4.1,1.5,7.6,2.8,10.8,4v.2c-3.2,1.5-6,5.5-7.2,8.7-.7,1.9-1.1,4.3-1.5,6.6-.3,1.6-.5,3.1-.9,4.5-3,10.8-14,22.9-23.6,28.7-1,.6-2.7,1.2-4.6,1.8-4.6,1.4-10.7,2.6-13.3,3.8-3.6,1.7-8.1,4.1-9.5,7.9h0c.4-2.4.9-4.7,1.5-6.6,1.1-3.3,2.3-7.2,2.9-10.6.5-3.6.2-6.3-1.4-9.5h0c-6.3-10.5-14.5-21.6-22.7-30.6Z"/><path class="cls-4" d="M112.9,291.9h0c7.1,3.8,14.2,7.6,21.2,11.4,1.2.7,2.5,1.4,3.2,2.5,1.6,2.4-.1,5.7-2.7,7-2.6,1.3-5.9,1.2-8.9.9-9.2-.9-18.1-3.3-27-5.6-1.1-.3-2.2-.6-2.8-1.5-.4-.7-.3-1.4-.2-2.2.5-3.2,1.4-6.3,2.6-9.3h.3c0,.1,0,.2,0,.4v.7c.9,2.3,5.2,3.8,7.4,2.6,1.3-.7,2-2,2.7-3.3.6-1.3.2-2.6,1.3-3.5,0,0,.1-.1.2-.2,1-.7,1.5-.8,2.5.2Z"/><path class="cls-5" d="M129.7,86c-3.5-9-9.7-15.8-18.1-20.5,0,0,0,0,0,0l-.3-.7c-.5-5.9-4.4-11.4-9.9-13.6,1.8,0,3.7,0,5.8,0h.2c22.4,5,29.6,14.5,26.8,31.8l-.2.3c-1.6,6.3-4.7,31.9-9.2,45.4h0c-.3-.9-.6-1.7-.9-2.5-.6-1.6-2.6-3.1-4.8-4.5-3.2-2-7.2-3.7-9.2-4.7h-.1c0-.1,0-.3,0-.4.7.1,1.2.2,1.5.1,3.5-.6,8.2-4.6,8.2-4.6,7-5.9,7.7-19,8.2-20.9.3-1,1.2-2.9,2-5.2Z"/><path class="cls-9" d="M117.3,106.2c-4.4-.5-7.4-2.4-11.3-5.2l-.2.3c-.3,7.1,8.9,11,11.5,4.9ZM105.9,115.3h0c-1.9,1-2.6,1.2-4.7,1.7-2.3.6-5.2-.2-6.8-1.9-1.6-1.7-2.6-2.9-3.6-5h0c-.1-.4-.3-.5-.6-.5h0c2.3-3.6,2.7-14.8,5.6-28.8,1.5-7.3,8.8-12.2,15.6-15.4,0,0,0,0,0,0,8.4,4.7,14.6,11.5,18.1,20.5-.8,2.3-1.7,4.2-2,5.2-.5,1.9-1.2,15-8.2,20.9,0,0-4.6,4-8.2,4.6-.4,0-.9,0-1.5-.1-1-.2-2.4-.6-3.9-1.2ZM124.7,92.4c.3-1.6,0-3-.9-3.1-.8-.2-1.8.9-2.1,2.5-.3,1.6,0,3,.9,3.1s1.8-.9,2.1-2.5ZM106.9,88.3c.3-1.5-.1-2.9-1-3.1-.9-.2-1.8.9-2.2,2.4-.3,1.5.1,2.9,1,3.1.9.2,1.8-.9,2.2-2.4Z"/><path class="cls-11" d="M113.3,151.9v-.2c0-.2-.1-.4-.1-.6h1.8c2.3-.3,4.5-.7,6.8-.5,2.1.2,4.3.8,5.9,2.1,0,2.2,0,3.7-.2,4h0c-.2,1.3-.7,2-1.2,3-1,2.1-2.5,1.9-3.4,2.5h-.4c-1.1.4-2.2.8-3.2,1h0c.6-2.5.3-5.5-1-7.7-1.2-2.1-2.9-2.5-5.1-3.2v-.5c0,0,0,0,0,0Z"/><path class="cls-7" d="M127.7,152.8c-1.7-1.3-3.8-2-5.9-2.1-2.3-.2-4.5.1-6.8.5h-1.8c-.3-3.2-.5-10.1-1-15.1-.2-2.1-.2-3.8,0-5.8.1-1.2.4-2.5.8-3.6.3-.8.7-1.5,1.2-2.2,1.2-1.5,2.9-2.5,4.8-2.6,2.3,1.4,4.2,2.9,4.8,4.5.3.8.6,1.6.9,2.5,2.3,7.6,3,18.3,3,24Z"/><path class="cls-3" d="M123.8,89.2c.8.2,1.2,1.6.9,3.1-.3,1.6-1.3,2.7-2.1,2.5s-1.2-1.6-.9-3.1c.3-1.6,1.3-2.7,2.1-2.5Z"/><path class="cls-6" d="M122.3,254c-1,2.7-1.2,3.8-2.1,7.1-2.8,10.2-6.2,20.6-9.8,30.4v.2c0,0-.1.1-.2.2-1.1.9-.7,2.2-1.3,3.5-.6,1.3-1.4,2.6-2.7,3.3-2.2,1.2-6.5-.3-7.4-2.6v-.7c0-.1,0-.3,0-.4-.2-8.3-.8-20,.6-29.3h0c1.4-3.8,5.9-6.2,9.5-7.9,2.6-1.2,8.7-2.5,13.3-3.8Z"/><path class="cls-9" d="M81.6,148.6c.9-.4,2.7,0,4.7.7.6.2,1.1.4,1.7.7,1.4.6,2.8,1.4,3.9,2.2,1.4,1,2.4,2,2.5,2.9,8.1-1.6,9.3-.8,18.8-3.2v.5c2.3.7,4,1.1,5.2,3.2,1.2,2.2,1.6,5.2,1,7.7h0c-2.1.6-4,1-5.8,1.2-7.4.9-13-.9-23.3-2.4,0,0-.1,0-.2,0-.9.3-2.6.4-4.5.4-3.3,0-7.1-.6-7.8-2.2-.9-2.1,1.1-10.5,3.8-11.7h0Z"/><path class="cls-10" d="M109.9,117c1.9,1.1,5.9,2.8,9.2,4.7-1.9,0-3.6,1.2-4.8,2.6-.5.7-.9,1.4-1.2,2.2h-.1c-.6-2.8-2.3-4.1-4.9-5.2l-.2-.2c.6-.5,1.1-1.1,1.5-1.8,0-.2.1.2.5-2.4h.1Z"/><path class="cls-8" d="M71.2,135.7c0-1.4,0-2.9.1-4.3.2-4.7,1.5-9.8,3.4-14.3h.1c4.3-2.4,9.7-2.7,14.3-1h0c1.5,3.4,4.9,6.4,7.5,7.3,3.2,1.1,8.1.5,11.1-2.3l.2.2c2.6,1.1,4.3,2.4,4.9,5.1h.1c-.5,1.2-.7,2.4-.8,3.7-.2,2.1-.2,3.8,0,5.8.5,5,.7,11.9,1,15.1,0,.2,0,.4,0,.6v.2s0,0,0,0c-9.5,2.4-10.7,1.6-18.8,3.2,0-.8-1.1-1.9-2.5-2.9h0c0,0,2.8-14.4,2.8-14.4l-4.6-.9-8.6,11.6h0c-2.7,1.2-4.7,9.7-3.8,11.7.7,1.5,4.5,2.1,7.8,2.2l-.4,1.8,4.2.8.6-3.1c0,0,.1,0,.2,0,10.3,1.5,16,3.3,23.3,2.4l.2,1.3c-.8,3,1.2,14,1.3,18.8h0s0,0,0,0c-4.8-1.5-6.8-2.8-14.4-4.9-7-1.9-13.5-3.1-18.8-3.9-5-.8-10.1.4-14.2,3.3h-.2c0-.2,0-.4,0-.5h0c1-11.6.2-6.8,2.3-28.8h.1c.4-3.2,1-6.5,1.3-9.7.2-1.5.2-2.9.2-4.4Z"/><path class="cls-10" d="M117.3,106.2c-2.6,6.1-11.8,2.2-11.5-4.9l.2-.3c3.9,2.8,6.8,4.6,11.3,5.2Z"/><path class="cls-5" d="M77,112.1c-.7.2-1.3.4-1.7.4-1.1.2-2.1.5-3,.9h0c1-5.4,1.5-12.3,1.4-18.8-.3-15.9,1.3-22.4,6.6-31.5,3.2-5.4,8.3-11.4,21-12,5.4,2.3,9.4,7.8,9.9,13.6l.3.7c-6.8,3.2-14.1,8.1-15.6,15.4-2.9,14-3.3,25.2-5.6,28.8h0c-.7.2-1.8,2-1.9,3.7,0-.7,0-1.5.2-2.2h-.3c-4.4-.7-8.7.3-11.3,1ZM89.8,62.5c.5,2.5,1,2.8,1.9,4.1,1,1.4,2.4,2.4,3.8,3.4,1.2.8,2.5,1.5,3.9,1.6,1.4,0,3-.6,3.4-2,.5-1.6-.7-3.1-1.9-4.3-3.3-3.1-7.5-5.4-11.9-6.4.3,1,.7,2,.8,3.6h0Z"/><path class="cls-11" d="M90.9,110.1c.9,2.1,1.9,3.3,3.6,5,1.6,1.7,4.5,2.5,6.8,1.9,2.1-.5,2.7-.8,4.7-1.7h0c1.5.6,2.8,1,3.9,1.2,0,.1,0,.3,0,.4-.3,2.6-.4,2.2-.5,2.4-.4.7-1,1.3-1.5,1.8-3,2.8-7.9,3.4-11.1,2.3-2.6-.9-6-3.9-7.5-7.4-.4-.9-.6-1.8-.7-2.7,0-1.7,1.1-3.5,1.9-3.7.2,0,.4,0,.6.4h0Z"/><path class="cls-3" d="M106,85.2c.9.2,1.3,1.6,1,3.1-.3,1.5-1.3,2.6-2.2,2.4-.9-.2-1.3-1.6-1-3.1.3-1.5,1.3-2.6,2.2-2.4Z"/><path class="cls-10" d="M100.9,65.3c1.2,1.1,2.4,2.7,1.9,4.3-.4,1.3-2,2.1-3.4,2-1.4,0-2.7-.8-3.9-1.6-1.4-.9-2.8-2-3.8-3.4-1-1.4-1.5-1.7-1.9-4.1h0c0-1.6-.5-2.6-.8-3.6,4.4,1,8.6,3.3,11.9,6.4Z"/><path class="cls-10" d="M94.8,137.9l-2.8,14.3h0c-1.1-.7-2.5-1.5-3.9-2.1.5-2.3.9-4,1.2-5.3-.8,1.5-1.7,3-2.7,4.4l-.2.3c-2-.8-3.9-1.1-4.7-.7l8.6-11.6,4.6.9Z"/><path class="cls-10" d="M90,162.1l-.6,3.1-4.2-.8.4-1.8c1.8,0,3.5-.1,4.5-.4Z"/><path class="cls-10" d="M88.5,113.4c0,.9.3,1.9.7,2.7h0c-4.6-1.7-10-1.3-14.3,1.1h-.1c.7-1.8,1.5-3.5,2.4-5.1,2.6-.7,6.9-1.7,11.3-1.1h.3c-.2.8-.2,1.6-.2,2.3Z"/><path class="cls-8" d="M89.2,144.7c-.3,1.3-.7,3-1.2,5.3-.6-.3-1.1-.5-1.7-.7l.2-.3c1-1.4,1.9-2.8,2.7-4.4Z"/><path class="cls-7" d="M48.8,135.7h0c1-1.2,13.3-14.6,14.1-15.3,3.3-3,5.9-5.5,9.5-6.9.9-.4,1.9-.6,3-.9.4,0,1-.2,1.7-.4-.9,1.5-1.7,3.2-2.4,5-1.8,4.5-3.2,9.6-3.4,14.3,0,1.4,0,2.9-.1,4.3-1.5,1-10.5,7.5-15.8,11.4-3.5-2.7-6-6.7-6.8-11h-.1c0-.2.2-.3.3-.4Z"/><path class="cls-11" d="M55.4,147.1c-1.9,1.4-3.4,2.5-3.8,2.8-.9,1.6-1.7,3-2.5,4.3h0l-.3-.2c.1-.6-.3-1.1-.8-1.5-2.2-2-5.1-3.3-8.1-3.6l-.4-.2c1-1.8,2.2-3.6,3.6-5.6,1.4-2,3.3-4.4,5.4-7.1h.1c.8,4.4,3.3,8.4,6.8,11.1Z"/><path class="cls-9" d="M40,169.3h0c2.4.7,4.7,9.5,3.1,11.4-1.7,2.1-11.3,2.9-12.9,1.8-1.9-1.3.2-8.9,1.5-10.9,2.1-9.7,3.6-15.7,7.8-23l.4.2c3,.3,5.9,1.6,8.1,3.6.4.4.9.9.8,1.5l.3.2c-3.5,5.7-6.3,9.4-9.1,15.1Z"/><path class="cls-1" d="M48.7,135.6c1-1.1,13.3-14.6,14.1-15.3,3.3-3,5.9-5.5,9.5-6.9.9-.4,1.9-.6,3-.9.4,0,1-.2,1.7-.4,2.6-.7,6.9-1.7,11.3-1.1"/><path class="cls-1" d="M48.8,135.6s0,0,0,0l-.3.4c-2.1,2.7-4,5.1-5.4,7.1-1.4,2-2.6,3.8-3.6,5.6-4.2,7.3-5.7,13.2-7.8,23"/><path class="cls-1" d="M71.2,135.7s0,0,0,0c-1.5,1-10.5,7.5-15.8,11.4-1.9,1.4-3.4,2.5-3.8,2.8-.9,1.6-1.7,3-2.5,4.3h0c-3.5,5.7-6.3,9.4-9.1,15.1,0,.2-.2.4-.3.5"/><path class="cls-1" d="M40.1,169.4c2.4.6,4.7,9.5,3.1,11.4-1.7,2.1-11.3,2.9-12.9,1.8-1.9-1.3.2-8.9,1.5-10.9"/><path class="cls-1" d="M127.5,156.8s0,0,0,0c.1-.3.2-1.8.2-4,0-5.7-.6-16.3-3-24-.3-.9-.6-1.7-.9-2.5-.6-1.6-2.6-3.1-4.8-4.5-3.2-2-7.2-3.7-9.2-4.7"/><path class="cls-1" d="M119.6,121.7c-.2,0-.4,0-.6,0-1.9,0-3.6,1.2-4.8,2.6-.5.7-.9,1.4-1.2,2.2-.5,1.1-.7,2.4-.8,3.6-.2,2.1-.2,3.8,0,5.8.5,5,.7,11.9,1,15.1,0,.2,0,.4,0,.6"/><path class="cls-1" d="M122.5,162.2c-1.1.4-2.2.7-3.2,1-2.1.6-4,1-5.8,1.2-7.4.9-13-.9-23.3-2.4"/><path class="cls-1" d="M114.8,151.5c-.5.2-1.1.3-1.6.4,0,0,0,0-.1,0-9.5,2.4-10.7,1.6-18.8,3.2-.3,0-.6.1-1,.2"/><path class="cls-1" d="M94.4,155.1c0-.8-1.1-1.9-2.5-2.9-1.1-.8-2.5-1.6-3.9-2.2-.6-.3-1.1-.5-1.7-.7-2-.8-3.9-1.1-4.7-.7h0c-2.7,1.2-4.7,9.7-3.8,11.7.7,1.5,4.5,2.1,7.8,2.2,1.8,0,3.5-.1,4.5-.4,0,0,.1,0,.2,0"/><path class="cls-1" d="M127.5,156.7s0,0,0,0c-.2,1.3-.7,2-1.2,3-1,2.1-2.5,1.9-3.4,2.5"/><path class="cls-1" d="M69.6,149.1c0,.3,0,.5,0,.8-2.1,22-1.2,17.2-2.3,28.7"/><path class="cls-1" d="M113.6,165.8c-.8,3,1.2,14,1.3,18.8h0"/><path class="cls-1" d="M77.1,112.1s0,0,0,0c-.9,1.5-1.7,3.2-2.4,5-1.8,4.5-3.2,9.6-3.4,14.3,0,1.4,0,2.9-.1,4.3,0,1.4,0,2.9-.2,4.4-.3,3.3-.9,6.5-1.3,9.7"/><path class="cls-1" d="M122.3,254s0,0,0,0c-1,2.7-1.2,3.8-2.1,7.1-2.8,10.2-6.2,20.6-9.8,30.4"/><path class="cls-1" d="M102.4,239c1.6,3.2,1.9,5.9,1.4,9.5-.5,3.5-1.7,7.3-2.9,10.6-.7,2-1.2,4.2-1.5,6.6-1.4,9.3-.9,21-.6,29.3,0,.1,0,.3,0,.4"/><path class="cls-1" d="M67.3,178.7c0,.2,0,.3,0,.5-.9,13.8,7.7,24.8,12.4,29.2,0,0,0,0,.1.1"/><path class="cls-1" d="M115,184.6c9,3.7,21.9,8.7,34.3,14.9"/><path class="cls-1" d="M151.2,219c0,0,.2,0,.3.1,7.2,2.9,11.5.4,25.9,6.3.1,0,.3.1.4.2"/><path class="cls-1" d="M185.5,213.2c-10.7-3.9-17.1-6.5-25.4-9.7-3.2-1.2-6.7-2.5-10.8-4"/><path class="cls-1" d="M177.9,225.6c1,3.9,10.7-6.7,10.2-8-.3-.7-2.7-1.6-2.8-3.1,0-.5.1-.9.3-1.3.4-.5,1-.9,1.8-1,0,0,.2,0,.3,0"/><path class="cls-1" d="M182.6,237.1c1,.5,2.2.2,3.3-.2,9.1-3,18.3-6.1,26.8-10.6,2.8-1.5,5.6-3.2,7.1-6,1.5-2.8.9-6.8-1.9-8-1.3-.6-2.9-.5-4.3-.4-8.5.6-17.3,2-25.7.4"/><path class="cls-1" d="M177.4,225.3c0,3.7,3.4,8,5.1,11.4"/><path class="cls-1" d="M115.2,184.8c-.1,0-.2,0-.3,0h0c-4.8-1.5-6.8-2.8-14.4-4.9-7-1.9-13.5-3.1-18.8-3.9-5-.8-10.1.4-14.2,3.3"/><path class="cls-2" d="M109.8,116.5s0,0,0,0c0,.1,0,.3,0,.4-.3,2.6-.4,2.2-.5,2.4-.4.7-1,1.3-1.5,1.8-3,2.8-7.9,3.4-11.1,2.3-2.6-.9-6-3.9-7.5-7.4-.4-.9-.6-1.8-.7-2.7,0-.7,0-1.5.2-2.2,0,0,0-.1,0-.2"/><path class="cls-1" d="M98.8,296.1c.9,2.3,5.2,3.8,7.4,2.6,1.3-.7,2-2,2.7-3.3.6-1.3.2-2.6,1.3-3.5,0,0,.1-.1.2-.2,1-.7,1.5-.8,2.5.2h0"/><path class="cls-1" d="M98.4,295c-1.3,3-2.2,6.1-2.6,9.3-.1.7-.2,1.5.2,2.2.5.9,1.7,1.3,2.8,1.5,8.9,2.3,17.8,4.7,27,5.6,3,.3,6.2.4,8.9-.9,2.6-1.3,4.3-4.6,2.7-7-.7-1.1-2-1.8-3.2-2.5-7.1-3.8-14.2-7.6-21.2-11.4"/><path class="cls-1" d="M90.9,110.1c-.1-.4-.3-.5-.6-.4-.7.1-1.8,1.9-1.9,3.7,0,.5,0,.9.2,1.4"/><path class="cls-1" d="M160.1,203.8c-3.1,1.5-5.9,5.5-7.1,8.7-.7,1.9-1.1,4.3-1.5,6.6-.3,1.6-.5,3.1-.9,4.5-3,10.8-14,22.9-23.6,28.7-1,.6-2.7,1.2-4.6,1.8-4.6,1.4-10.7,2.6-13.3,3.8-3.6,1.7-8.1,4.1-9.5,7.9"/><path class="cls-1" d="M79.7,208.4c8.2,9,16.4,20.1,22.7,30.6"/><path class="cls-1" d="M79.6,208.3s0,0,0,0"/><path class="cls-1" d="M39.9,148.9c3,.3,5.9,1.6,8.1,3.6.4.4.9.9.8,1.5"/><path class="cls-1" d="M112.8,152.3c.2,0,.3,0,.4.1,2.2.7,3.9,1.1,5.1,3.2,1.2,2.2,1.6,5.2,1,7.7"/><path class="cls-2" d="M90.9,110.1s0,0,0,0c.9,2.1,1.9,3.3,3.6,5,1.6,1.7,4.5,2.5,6.8,1.9,2.1-.5,2.7-.8,4.7-1.7"/><path class="cls-1" d="M107.4,51.3c22.4,4.9,29.6,14.4,26.8,31.7"/><path class="cls-1" d="M124.8,128.7c4.5-13.5,7.6-39.1,9.2-45.4"/><path class="cls-1" d="M90.4,109.6c2.3-3.6,2.7-14.7,5.6-28.8,1.5-7.3,8.8-12.2,15.6-15.4,0,0,0,0,0,0,8.4,4.7,14.6,11.5,18.1,20.5,0,0,0,0,0,0"/><path class="cls-1" d="M107.2,51.2c-2.1-.2-4-.2-5.8,0-12.6.6-17.8,6.5-21,12-5.4,9.2-6.9,15.6-6.6,31.5.1,6.5-.4,13.4-1.4,18.7"/><path class="cls-1" d="M131.2,77.1c.5,2.7-.4,6-1.4,8.9-.8,2.3-1.7,4.2-2,5.2-.5,1.9-1.2,15-8.2,20.9,0,0-4.6,4-8.2,4.6-.4,0-.9,0-1.5-.1-1-.2-2.4-.6-3.9-1.2-3.2-1.3-7-3.3-9.2-5.3"/><path class="cls-1" d="M127.4,86.5c-.2-2.6-4.9-3.4-5.9-2.1"/><path class="cls-1" d="M111,81.2c-1.2-1.9-5.7-3.5-8.3-1.3"/><path class="cls-1" d="M117.6,98.1c0,4-2.8,3.3-4.2,3.7"/><path class="cls-1" d="M121.7,91.7c-.3,1.6,0,3,.9,3.1s1.8-.9,2.1-2.5c.3-1.6,0-3-.9-3.1-.8-.2-1.8.9-2.1,2.5Z"/><path class="cls-1" d="M103.8,87.6c-.3,1.5.1,2.9,1,3.1.9.2,1.8-.9,2.2-2.4.3-1.5-.1-2.9-1-3.1-.9-.2-1.8.9-2.2,2.4Z"/><path class="cls-1" d="M117.4,106.2s0,0,0,0c-4.4-.5-7.4-2.4-11.3-5.2-.3-.2-.6-.4-.9-.6"/><path class="cls-1" d="M117.5,105.8c0,.1-.1.3-.2.4-2.6,6.1-11.8,2.2-11.5-4.9"/><path class="cls-1" d="M111.2,64.8c-.5-5.9-4.4-11.4-9.9-13.6-.1,0-.2,0-.3-.1"/><path class="cls-1" d="M89.8,62.3c0,0,0,.1,0,.2.5,2.5,1,2.8,1.9,4.1,1,1.4,2.4,2.4,3.8,3.4,1.2.8,2.5,1.5,3.9,1.6,1.4,0,3-.6,3.4-2,.5-1.6-.7-3.1-1.9-4.3-3.3-3.1-7.5-5.4-11.9-6.4.3,1,.7,2,.8,3.6"/><path class="cls-1" d="M89.1,116.2c-4.6-1.8-10-1.4-14.3,1"/><path class="cls-1" d="M107.9,121.4c2.6,1.1,4.3,2.4,4.9,5.1"/><path class="cls-1" d="M48.6,136.1c.8,4.3,3.3,8.3,6.8,11,0,0,0,0,0,0"/><path class="cls-1" d="M115,151.1c2.3-.3,4.5-.6,6.8-.5,2.1.2,4.3.8,5.9,2.1.1,0,.2.2.3.3"/><polyline class="cls-1" points="90 162 90 162.1 89.4 165.2 85.2 164.3 85.5 162.5 85.5 162.4"/><polyline class="cls-1" points="81.3 149 81.6 148.6 90.1 137 94.8 137.9 92 152.2"/><path class="cls-1" d="M87.9,150.3c0,0,0-.2,0-.2.5-2.3.9-4,1.2-5.3-.8,1.5-1.7,3-2.7,4.4l-.2.3h0"/></svg>