<?xml version="1.0" encoding="UTF-8"?><svg id="asia" xmlns="http://www.w3.org/2000/svg" width="235" height="321.9" viewBox="0 0 235 321.9"><defs><style>.cls-1{fill:none;stroke:#000;stroke-linecap:round;stroke-linejoin:round;}.cls-2,.cls-3,.cls-4,.cls-5,.cls-6,.cls-7,.cls-8,.cls-9{stroke-width:0px;}.cls-3{fill:#51667b;}.cls-4{fill:#2c2e2b;}.cls-5{fill:#d14752;}.cls-6{fill:#d6b59d;}.cls-7{fill:#b62026;}.cls-8{fill:#302f2d;}.cls-9{fill:#fff;}</style></defs><path class="cls-8" d="M136.8,302.7c2,3.3-.1,7.8-3.5,9.6-3.4,1.8-7.4,1.7-11.2,1.3-11.6-1.3-18.5-3.9-29.8-7-1.4-.4-2.9-.9-3.5-2.1-.5-.9-.4-2-.2-3,.4-2.8,2.2-4.6,3.1-7.2,11.5.3,15.8-1.3,23.4-4.2,0,0,0-.5,0-1.2,7.5,4.6,9.5,5.7,17.7,10.5,1.6.9,3.2,1.9,4.1,3.4Z"/><path class="cls-6" d="M127.9,149.8c1.4,3.3-4.1,10.9-6.9,13.1-2.8,2.1-4.5,3-7.4,1-1.4-1-2.7-5.1-3.1-6.8-.2-.7,0-1.6.2-2.5.9-2.8,3.6-5.9,5.5-7.3,2.5-1.8,0-1,3.1-1.7,3.3-1,7.3.9,8.7,4.1Z"/><path class="cls-3" d="M91.6,294.2c-.2,0-.4,0-.7,0-.3-1-7-61.7-7.4-62.8-4-12.4-14.4-22.9-17.7-27.7-2.3,11.2-4.6,24-7.4,34.2-.5,1.7-18.1,47.7-20.4,51.1,0,0-.1.1-.1.2-6.7,0-14.5,1.7-23.3-3-.9-.5-1.8-1-2.7-1.7,0-1.5,20.5-56.5,20.6-58,.6-17.9-1.4-38.8,5-58.5,18,5.5,33.2,7.4,51.9,5.5,7,10.3,17.6,37.8,19.8,50,.2,1.3,5.1,56.4,5.8,65.3,0,.7,0,1.1,0,1.2-7.6,2.9-11.9,4.5-23.4,4.2Z"/><path class="cls-6" d="M119.2,145.6c-3,.7-.6-.2-3.1,1.7-1.9,1.4-4.6,4.5-5.5,7.3h-.4c-5.1-7.9-13.2-10.6-18.9-25.8,0-.1,0-.3,0-.4,4.9-.7,7.9-3,11.6-6.3l.6-.2c0,.1,0,.2.1.4,5.5,7.3,10.2,18.8,15.5,23.3Z"/><path class="cls-7" d="M103.6,122l-.6.2c-3.7,3.3-6.7,5.6-11.6,6.3-.5-7.4-1.1-14.9-1.4-21.7-.2-4.1.2-8.2.1-12.3,0-2.7-.3-5.3-1-7.9h0c2.3.8,4.5,1.8,5.8,3,7.3,7.1,6.2,24.6,8.7,32.4Z"/><path class="cls-2" d="M102.9,60.4c.5.3,1.3.8,1.6.9-.7,1.8-1,3.8-3,2.5.5-1.1,1-2.4,1.4-3.4Z"/><path class="cls-2" d="M102.3,58.8h0c-1.3-.4-8.9-3.1-11.3-4.2-.7,2.9-1.1,4.6-1.5,7.1,2.6,1,6.7,2.5,9.9,3.4.1,0,.5-.7.9-1.7.8-1.7,1.8-4.1,2-4.6h0s0,0,0,0ZM99.4,56.6c1.3.5,2.5.9,3.3,1.2.5.2.9.3,1.1.4-.1.3-.5,1.1-.9,2.2-.4,1-1,2.3-1.4,3.4-.7,1.6-1.4,2.9-1.5,2.9-1.2-.3-2.4-.7-3.7-1.2-2.7-.9-5.5-1.9-7.6-2.7-.2,0-.4-.2-.6-.2.4-2.1.7-3.8,1.2-5.7.2-.7.3-1.4.5-2.1.1-.5.3-1.1.4-1.7,1.8.8,5.9,2.3,9.2,3.5Z"/><path class="cls-4" d="M50.6,41.4c.5-5.5,1.6-9.4,5-14.1,3.4-4.7,8.8-7.9,14.5-9.2,5.7-1.3,9.8-2,15.5-.3,6.7,2,13,5.8,16.8,11.6,1.8,2.7,4.4,15.2-.3,21,0,0,0,.1,0,.2h0c0-.6.9-4.8.9-5.3-1.3.9-3.5,1.7-4.5.5-.7-.8-1.3-2.2-1.6-3.3-.3-1.1-1.6-1.1-2.3-.1,0,0,0,0,0,0-.5.7-1.2,1.2-2,1.7-1.2.7-2.6-.4-3.6-1.3-1-1-1.3-3.2-2.2-4.2-.9-1-2.4-1.7-3.7-1.2-1.8.8-2.3,3.8-4.3,3.9-1.2,0-2-1-2.6-2-.7-1.2-1.3-2.6-2.9-2.8-.8,0-1.7.3-2.3.8-2.2,1.9-2.8,5.7-3.9,8.4v.2c-3.8-2-8.5-4.4-10.6-5.1-1.1.9-1.2,2-1.2,3.8h0c-1.1,1-1.6,4.4-1.5,6.1.1,1.7.9,6.3,2.3,7,1.2.6,2.1,1,3.2.2h.1c-.4,3.7-.4,5.5.4,8.2-.8-.7-1.6-1.5-2.3-2.3-5-5.4-8-12.4-6.8-22.5h0Z"/><path class="cls-6" d="M70.5,47.2s0,.3-.2.7h-.2c-.8-.6-2-1.2-3.2-1.9v-.2c1.1-2.7,1.7-6.5,4-8.4.7-.5,1.5-.9,2.3-.8,1.6.2,2.2,1.6,2.9,2.8.6,1,1.4,2.1,2.6,2,2,0,2.4-3.1,4.3-3.9,1.3-.6,2.7.2,3.7,1.2.9,1,1.2,3.2,2.2,4.2,1,1,2.4,2.1,3.6,1.3.7-.5,1.5-1,2-1.7,0,0,0,0,0,0,.7-1,2-1,2.3.1.3,1.1.9,2.5,1.6,3.3,1,1.2,3.3.5,4.5-.5,0,.5-.9,4.7-.9,5.3h0c-.8,3.3-1.9,4.9-2.6,6-3.3-1.2-7.4-2.7-9.2-3.5-.2.6-.3,1.1-.4,1.7h-.5c-.3-.2-.6-.3-.9-.5-.9-.3-1.7-.6-2.6-1,.2-.4.4-.9.6-1.3v-.2c-3.6-.9-13.8-4-15.8-4.6h0ZM99.3,53.5c0-.8-3.2-3.9-4.4-3.7-1.1.2-2.3,2.2-.9,3,.5.3,3.2,1.6,3.8,1.8.7.3,1.5-.4,1.5-1.2ZM83.6,48.4c.6.2,2.4-2.1-.3-3-2.8-.9-8.1-1.8-8.4,1.5,0,.3,6.8.9,8.7,1.4Z"/><path class="cls-9" d="M100.3,63.5c-.5,1-.8,1.7-.9,1.7-3.2-1-7.3-2.4-9.9-3.4.4-2.5.8-4.2,1.5-7.1,2.5,1,10.1,3.8,11.3,4.2-.2.4-1.2,2.9-2,4.6ZM96.8,60.4c.3-.8.2-1.6,0-1.7-.3-.1-.8.5-1.1,1.3s-.2,1.6,0,1.7c.3.1.8-.5,1.1-1.3Z"/><path class="cls-8" d="M94.8,49.7c1.2-.2,4.5,2.9,4.4,3.7,0,.8-.9,1.5-1.5,1.2-.5-.2-3.3-1.6-3.8-1.8-1.4-.8-.2-2.9.9-3Z"/><path class="cls-2" d="M96.7,58.7c.3.1.4.9,0,1.7s-.8,1.4-1.1,1.3c-.3-.1-.4-.9,0-1.7s.8-1.4,1.1-1.3Z"/><path class="cls-6" d="M62.3,45.9c.6.6.2,2.2,1.1,2.9,1.6,1.1,4.5,2.8,5.8,3.4h.1c-.5,2.3-1,4.5-.8,4.6,4.3,1.6,10,3.4,13.6,4.4,1.1-2.1,1.9-3.9,2.8-5.9,1.4.4,2.7,1,4,1.5h.3c-.4,2-.8,3.7-1.2,5.8.2,0,.4.1.6.2,2.1.8,4.9,1.8,7.6,2.7v.4c-1.2,2.4-.7,5.2-2.7,8.4-3.9,5.1-7.7,8.5-12.9,9.5-3.9.8-7.9-1-10.6-3-5-3.7-7.8-7.2-9.6-12.2-.3-.9-.6-1.7-.8-2.5-.8-2.7-.8-4.5-.4-8.1h-.1c-1.1.6-2,.3-3.2-.4-1.3-.7-2.2-5.3-2.3-7,0-1.7.4-5.1,1.5-6.1,0,0,0,0,0,0,2.1-1.5,4.9-.7,6.1.4.4.3.6.6.8,1ZM76.2,67.5v.2c-1.2,3.4,7.7,11.6,11.5,5.1-4.4-.5-7.6-2.2-11.5-5.3Z"/><path class="cls-5" d="M91.4,128.8c1.3,18.5,2.3,36.7-2,44.7-18.7,1.9-34,0-51.9-5.5-.2,0-.4-.1-.6-.2.2-6.3-.5-7.8,1.2-14.2h0c2.9,1.5,5.6,3,7.3,4.4-.4,3.8,4.3,7.5,7.1,9,2,1.1,11.2,3.2,9.5-1.7,1.1-.4,3.3-2.8,1.3-4.1,1.3-.7,2.5-2.9.9-5,4.3-2.8,1.6-5-1.1-6.5-.5-6.4-8.7-3-12.8-2.9v.2c-5.7-.7-9.4-8.1-12.3-12h0c.5-11.9,1.6-12.1.5-19.6h0c1.5-3.8,3.3-8.2,5.9-12.5,2.2-3.8,2.6-7.5,2.6-11.8,0-1.5-.2-3.1-.7-4.6,3.5-2.3,7.8-3.5,12-3.3h.1c4.1,5,9.2,8,11.3,8,2.4,0,7,0,9.5-3.9h.2c3.9,1.8,7.5,4.2,10.6,7.2,0,4.1-.3,8.2-.1,12.3.3,6.8.9,14.3,1.4,21.7,0,.1,0,.3,0,.4ZM76.3,131.5c1.4-1.4,2.1-3.4,2.2-6.2,0-3.4-1-5.5-3.2-6.4,1.9-1.1,2.9-3,2.9-5.8,0-2.2-.5-3.9-1.7-5.1-1.2-1.2-2.9-1.8-5.1-1.9-2.9,0-5.3,1.4-7.2,4.3l3.3,3.5c1.2-1.8,2.4-2.6,3.6-2.6,1.3,0,1.9.9,1.9,2.6,0,1.9-.8,2.8-2.4,2.8h-1.9s-.1,5-.1,5h1.9c1,0,1.8.3,2.2.9s.6,1.5.6,2.7c0,2-.9,3-2.5,3-1.4,0-2.6-1.1-3.7-3.2l-3.8,3.2c1.9,3.4,4.3,5.2,7.3,5.2,2.4,0,4.3-.6,5.7-2Z"/><path class="cls-9" d="M89.1,86.5c.7,2.6.9,5.3,1,7.9-3-3-6.6-5.4-10.6-7.1h-.2c.6-1,1.1-2.2,1.4-3.5,1.2.4,5,1.3,8.4,2.6h0Z"/><path class="cls-2" d="M88.3,54.3c.3.1.6.2.9.3h.5c-.2.9-.4,1.6-.5,2.3h-.3c-1.4-.6-2.6-1.2-4-1.6.3-.6.6-1.3.9-2,.8.4,1.7.7,2.6,1Z"/><path class="cls-2" d="M85.8,53.3c-.3.7-.6,1.3-.9,2-.9,2.1-1.7,3.8-2.8,5.9-3.6-1-9.4-2.8-13.6-4.4-.2,0,.3-2.3.8-4.6.4-1.7.8-3.4,1.1-4.3.1-.4.2-.7.2-.7h0c2,.6,12.3,3.7,15.8,4.6v.2c-.1.5-.3.9-.5,1.3ZM71.4,48.8s0,0,0,0h0c-.2.7-1.7,7-1.4,7.1,2.3.8,5,1.7,7.5,2.5,1.4.4,2.7.8,3.8,1.2,1.3-2.3,2-4,3.3-6.8-1-.3-2.8-.8-4.7-1.3-3.5-1-7.6-2.3-8.5-2.6,0,0,0,0,0,0Z"/><path class="cls-9" d="M87.7,72.8c-3.8,6.4-12.7-1.7-11.6-5.1v-.2c4.1,3.1,7.3,4.7,11.6,5.3Z"/><path class="cls-8" d="M83.3,45.4c2.7.8.9,3.1.3,3-1.9-.5-8.7-1.1-8.7-1.4.3-3.3,5.6-2.4,8.4-1.5Z"/><path class="cls-9" d="M84.6,52.8c-1.2,2.8-2,4.5-3.3,6.8-1.1-.3-2.4-.7-3.8-1.2l.6-2.1s0,0,.1.1c.4.1.9-.5,1.2-1.4.3-.8.2-1.6,0-1.8l.5-1.8c1.9.6,3.6,1.1,4.7,1.3Z"/><path class="cls-9" d="M78.4,125.3c0,2.7-.8,4.8-2.2,6.2s-3.3,2-5.7,2c-3,0-5.4-1.8-7.3-5.2l3.8-3.2c1.1,2.1,2.3,3.2,3.7,3.2,1.6,0,2.4-1,2.5-3,0-1.3-.2-2.2-.6-2.7s-1.2-.8-2.2-.8h-1.9s.1-5.1.1-5.1h1.9c1.5,0,2.3-.9,2.4-2.7,0-1.7-.6-2.5-1.9-2.6-1.2,0-2.4.8-3.6,2.6l-3.3-3.5c1.9-2.9,4.3-4.3,7.2-4.3,2.2,0,3.9.7,5.1,1.9,1.2,1.2,1.8,2.9,1.7,5.1,0,2.8-1,4.7-2.9,5.8,2.2.9,3.3,3,3.2,6.4Z"/><path class="cls-6" d="M80.7,83.8c-.3,1.4-.8,2.5-1.4,3.4-2.5,3.9-7.1,3.9-9.5,3.9-2.1,0-7.3-3.1-11.3-8.1-1-1.3-2-2.7-2.8-4.2,2.2-1.3,3.4-8.5,1.7-15,.7.8,1.5,1.6,2.3,2.3.2.8.5,1.6.8,2.5,1.9,5,4.6,8.5,9.6,12.2,2.7,2,6.6,3.8,10.6,3Z"/><path class="cls-9" d="M80,51.5l-.5,1.8s0,0,0,0c-.4-.1-.9.5-1.2,1.4-.3.8-.3,1.5,0,1.7l-.6,2.1c-2.5-.8-5.2-1.7-7.5-2.5-.3-.1,1.2-6.4,1.4-7.1.9.3,5,1.6,8.5,2.6Z"/><path class="cls-2" d="M79.4,53.3c.3.2.3,1,0,1.8-.3.9-.8,1.5-1.2,1.4,0,0-.1,0-.1-.1-.2-.3-.2-1,0-1.7.3-.9.8-1.5,1.2-1.4,0,0,0,0,0,0Z"/><path class="cls-2" d="M70.1,47.8h.2c-.2,1-.7,2.7-1.1,4.4h-.1c-1.3-.7-4.3-2.3-5.8-3.5-.9-.6-.5-2.2-1.1-2.9-.2-.3-.4-.7-.8-1-1.3-1-4-1.8-6.1-.4,0,0,0,0,0,0h0c0-1.8.1-2.9,1.2-3.8,2.1.7,6.8,3.1,10.5,5.1,1.2.7,2.3,1.3,3.2,1.9Z"/><path class="cls-6" d="M50.4,147v-.2c4.2-.1,12.3-3.5,12.8,2.9,2.7,1.5,5.4,3.7,1.1,6.5,1.6,2,.4,4.2-.9,5,1.9,1.4-.2,3.7-1.3,4.1,1.7,4.9-7.5,2.7-9.5,1.7-2.8-1.5-7.5-5.2-7.1-9-1.8-1.4-4.5-2.9-7.3-4.4-3.6-1.8-7.4-3.6-9.7-5.1-4.9-3.2-11.9-10.9-12.6-17.5,0-.9,2-10,2.4-11.6,3.1,4.3,9.5,5.6,15.2,5.6h0c-1,2.1-.4,2-1.4,3.9v.2c1.6,1.1,3.2,2.6,5.3,5,.3.3.5.6.8.9,3,3.9,6.7,11.3,12.3,12Z"/><path class="cls-8" d="M58.5,311c1,3.7-2.2,7.4-5.9,8.3s-6.5.9-10.1-.6c-10.9-4.4-20.9-10.6-31-16.8-1.2-.7-2.5-1.6-2.8-3-.2-1,.2-2,.6-2.9,1.8-4,3.4-6.9,5.2-9.6v-.2c8.8,4.7,16.7,3,23.4,3,0,0,0,0,.1-.2h.2c7.3,7.5,10,10.1,17.2,17.6,1.3,1.3,2.6,2.7,3.1,4.4Z"/><path class="cls-9" d="M58.5,83h-.1c-4.2,0-8.5,1.1-12,3.4-.9-2.6-2.6-4.9-5-6.1,5.6-1.5,11.9-1.7,14.4-1.6.8,1.5,1.8,2.9,2.8,4.2Z"/><path class="cls-7" d="M46.4,86.4c.5,1.5.7,3.1.7,4.6,0,4.4-.4,8.1-2.6,11.8-2.5,4.3-4.3,8.7-5.9,12.5-1.6,4.1-2.9,7.5-4.3,9.4v.2c-.3,0-.6,0-.9,0-5.7,0-12.1-1.3-15.2-5.6-.5-.7-1-1.6-1.3-2.5-.2-.6,2.1-5,6.9-16.7,2.4-5.7,5.3-11.4,8.7-15.3,1.9-2.2,5.2-3.7,8.8-4.6,2.5,1.2,4.2,3.5,5,6.1Z"/><path class="cls-1" d="M50.6,41.4c-1.2,10.1,1.9,17,6.8,22.5.7.8,1.5,1.6,2.3,2.3"/><path class="cls-1" d="M96.2,65.9c-1.1,2.4-.6,5.2-2.6,8.4"/><path class="cls-1" d="M102.8,46.5c-.2,1.5-.5,2.8-.7,3.9,0,0,0,.1,0,.2-.8,3.3-1.9,4.8-2.6,6-.1.2-.2.3-.3.4"/><path class="cls-1" d="M88.4,61c.1.6.2,1.2.2,1.8.4,5.3-3.2,5.9-6,4.7"/><path class="cls-1" d="M87.7,72.8c-4.4-.5-7.6-2.2-11.5-5.3,0,0-.2-.1-.3-.2"/><path class="cls-1" d="M87.7,72.8c-3.8,6.4-12.7-1.7-11.6-5.1"/><path class="cls-1" d="M57.3,63.6c0,0,0,.1,0,.2,1.8,6.4.5,13.6-1.7,15"/><path class="cls-1" d="M55.7,78.8c.8,1.5,1.8,2.9,2.8,4.2,4.1,5.1,9.2,8.1,11.3,8.1,2.4,0,7,0,9.5-3.9.6-.9,1.1-2,1.4-3.4"/><path class="cls-1" d="M41.1,80.2c0,0,.2,0,.2.1,2.5,1.2,4.2,3.5,5,6.1.5,1.5.7,3.1.7,4.6,0,4.4-.4,8.1-2.6,11.8-2.5,4.3-4.3,8.7-5.9,12.5-1.6,4.1-2.9,7.5-4.3,9.4"/><path class="cls-1" d="M55.7,78.8c-2.5-.1-8.8,0-14.4,1.6-3.6.9-6.9,2.4-8.8,4.6-3.4,3.9-6.3,9.5-8.7,15.3-4.8,11.6-7.1,16.1-6.9,16.7.3.9.7,1.7,1.3,2.5,3.1,4.3,9.5,5.6,15.2,5.6.3,0,.6,0,.9,0"/><path class="cls-1" d="M89.1,86.5c.7,2.6.9,5.3,1,7.9,0,4.1-.3,8.2-.1,12.3.3,6.8.9,14.3,1.4,21.7,0,.1,0,.3,0,.4,1.3,18.5,2.3,36.7-2,44.7-18.7,1.9-34,0-51.9-5.5-.2,0-.4-.1-.6-.2.2-6.3-.5-7.8,1.2-14.2"/><path class="cls-1" d="M38.6,115.4c1.1,7.6,0,7.8-.5,19.6"/><path class="cls-1" d="M80.7,83.8c1.2.4,5,1.3,8.4,2.6,2.3.9,4.5,1.9,5.8,3.1,7.3,7.1,6.2,24.6,8.7,32.4,0,.1,0,.2.1.4"/><path class="cls-1" d="M91.2,128.1c0,.2.2.5.3.7,5.7,15.2,13.8,17.8,18.9,25.7"/><path class="cls-1" d="M103.8,122.3c5.5,7.3,10.2,18.8,15.5,23.3"/><path class="cls-1" d="M119.2,145.6c-3,.7-.6-.2-3.1,1.7-1.9,1.4-4.6,4.5-5.5,7.3-.3.9-.4,1.7-.2,2.5.4,1.7,1.7,5.8,3.1,6.8,2.9,2,4.6,1.2,7.4-1,2.8-2.1,8.4-9.8,6.9-13.1-1.4-3.3-5.4-5.2-8.7-4.1"/><path class="cls-1" d="M37.6,167.7c0,.1,0,.3-.1.4-6.4,19.7-4.4,40.5-5,58.5,0,1.5-20.5,56.5-20.6,58,.9.6,1.8,1.2,2.7,1.7,8.7,4.7,16.6,3,23.3,3,0,0,0,0,.1-.2,2.3-3.4,20-49.4,20.4-51.1,2.8-10.2,5-23,7.4-34.2,1.6-7.7,3.2-14.6,5.1-19.5"/><path class="cls-1" d="M65.4,202.9c.1.2.3.5.5.7,3.3,4.8,13.7,15.3,17.7,27.7.4,1.1,7.1,61.8,7.4,62.8.2,0,.5,0,.7,0,11.5.3,15.8-1.3,23.4-4.2,0,0,0-.5,0-1.2-.7-8.9-5.5-64-5.8-65.3-2.2-12.2-12.8-39.8-19.8-50"/><path class="cls-1" d="M91.7,293.9c0,.1,0,.2-.1.3-.9,2.6-2.7,4.5-3.1,7.2-.1,1-.2,2.1.2,3,.6,1.2,2.1,1.7,3.5,2.1,11.3,3.2,18.1,5.8,29.8,7,3.8.4,7.9.6,11.2-1.3,3.4-1.8,5.5-6.3,3.5-9.6-.9-1.5-2.5-2.5-4.1-3.4-8.2-4.8-10.3-5.9-17.7-10.5-.1,0-.2-.1-.3-.2"/><path class="cls-1" d="M14.5,286.4c-1.8,2.7-3.5,5.5-5.2,9.6-.4.9-.8,1.9-.6,2.9.3,1.4,1.6,2.3,2.8,3,10,6.2,20.1,12.4,31,16.8,3.6,1.4,6.4,1.4,10.1.6s7-4.6,5.9-8.3c-.5-1.7-1.8-3.1-3.1-4.4-7.2-7.5-10-10.1-17.2-17.6"/><path class="cls-1" d="M55.2,44.6c-1.1,1-1.6,4.4-1.5,6.1.1,1.7.9,6.3,2.3,7,1.2.6,2.1,1,3.2.2,0,0,.1,0,.2-.1"/><path class="cls-1" d="M62.3,45.9c-.2-.3-.4-.7-.8-1-1.3-1-4-1.8-6.1-.4,0,0,0,0,0,0"/><path class="cls-1" d="M62.8,49.1c-.1-1,0-2.2-.6-3.2"/><path class="cls-1" d="M102,50.6c0-.5.9-4.7.9-5.3-1.3.9-3.5,1.7-4.5.5-.7-.8-1.3-2.2-1.6-3.3-.3-1.1-1.6-1.1-2.3-.1,0,0,0,0,0,0-.5.7-1.2,1.2-2,1.7-1.2.7-2.6-.4-3.6-1.3-1-1-1.3-3.2-2.2-4.2-.9-1-2.4-1.7-3.7-1.2-1.8.8-2.3,3.8-4.3,3.9-1.2,0-2-1-2.6-2-.7-1.2-1.3-2.6-2.9-2.8-.8,0-1.7.3-2.3.8-2.2,1.9-2.8,5.7-3.9,8.4"/><path class="cls-1" d="M33.4,125c-1,2-.4,1.9-1.4,3.8"/><path class="cls-1" d="M18.3,119.2s0,0,0,.2c-.3,1.6-2.5,10.7-2.4,11.6.7,6.6,7.7,14.3,12.6,17.5,2.3,1.5,6.1,3.3,9.7,5.1,2.9,1.5,5.6,3,7.3,4.4"/><path class="cls-1" d="M51.3,147.1c-.3,0-.6,0-.8,0-5.6-.7-9.3-8.1-12.3-12-.3-.3-.5-.7-.8-.9-2.1-2.4-3.7-3.9-5.4-5-1.8-1.1-3.8-1.7-6.8-2.3"/><path class="cls-1" d="M60.2,148.1c.6.5,1.9,1,3.1,1.7,2.7,1.5,5.4,3.7,1.1,6.5,1.6,2,.4,4.2-.9,5,1.9,1.4-.2,3.7-1.3,4.1,1.7,4.9-7.5,2.7-9.5,1.7-2.8-1.5-7.5-5.2-7.1-9"/><path class="cls-1" d="M50.4,146.9c4.1-.1,12.3-3.5,12.8,2.9,0,0,0,0,0,0"/><path class="cls-1" d="M74.9,47c0,.3,6.8.9,8.7,1.4.6.2,2.4-2.1-.3-3-2.8-.9-8.1-1.8-8.4,1.5Z"/><path class="cls-1" d="M94,52.8c.5.3,3.2,1.6,3.8,1.8.7.3,1.5-.4,1.5-1.2,0-.8-3.2-3.9-4.4-3.7-1.1.2-2.3,2.2-.9,3Z"/><path class="cls-1" d="M59.3,58.1c-.4,3.5-.4,5.4.4,8.1.2.8.5,1.6.8,2.5,1.9,5,4.6,8.5,9.6,12.2,2.7,2,6.6,3.8,10.6,3,5.2-1.1,8.9-4.4,12.9-9.5"/><path class="cls-1" d="M50.6,41.5s0,0,0-.1c.5-5.5,1.6-9.4,5-14.1,3.4-4.7,8.8-7.9,14.5-9.2,5.7-1.3,9.8-2,15.5-.3,6.7,2,13,5.8,16.8,11.6,1.8,2.7,4.4,15.2-.3,21"/><path class="cls-1" d="M103,122.1c-3.7,3.3-6.7,5.6-11.6,6.3,0,0,0,0,0,0"/><line class="cls-1" x1="102.7" y1="57.8" x2="102.4" y2="58.8"/><polyline class="cls-1" points="100.4 63.5 100.3 63.5 100.1 63.3"/><line class="cls-1" x1="102.5" y1="60.6" x2="101.8" y2="60.4"/><polyline class="cls-1" points="88.5 54.3 88.3 54.3 88.3 54.3"/><line class="cls-1" x1="87.9" y1="56.4" x2="87.9" y2="56.4"/><path class="cls-1" d="M95.6,60c-.3.8-.2,1.6,0,1.7.3.1.8-.5,1.1-1.3s.2-1.6,0-1.7c-.3-.1-.8.5-1.1,1.3Z"/><path class="cls-1" d="M79.4,53.3s0,0,0,0c-.4-.1-.9.5-1.2,1.4-.3.8-.3,1.5,0,1.7,0,0,0,0,.1.1.4.1.9-.5,1.2-1.4.3-.8.2-1.6,0-1.8Z"/><path class="cls-1" d="M102.3,58.8h0c-.2.5-1.2,2.9-2,4.6-.5,1-.8,1.7-.9,1.7-3.2-1-7.3-2.4-9.9-3.4.4-2.5.8-4.2,1.5-7.1,2.5,1,10.1,3.8,11.3,4.2h0"/><path class="cls-1" d="M102.3,58.9s0,0,0,0c0,0,0,0,0,0"/><path class="cls-1" d="M90.2,53.1c1.8.8,5.9,2.3,9.2,3.5,1.3.5,2.5.9,3.3,1.2.5.2.9.3,1.1.4h0"/><path class="cls-1" d="M103.9,58.1s0,0,0,0h0s0,0,0,0c-.1.3-.5,1.1-.9,2.2-.4,1-1,2.3-1.4,3.4-.7,1.6-1.4,2.9-1.5,2.9-1.2-.3-2.4-.7-3.7-1.2-2.7-.9-5.5-1.9-7.6-2.7-.2,0-.4-.2-.6-.2.4-2.1.7-3.8,1.2-5.7.2-.7.3-1.4.5-2.1.1-.5.3-1.1.4-1.7"/><path class="cls-1" d="M103.8,58.2s0,0,0,0"/><path class="cls-1" d="M71.4,48.8s0,0,0,0c-.2.7-1.7,7-1.4,7.1,2.3.8,5,1.7,7.5,2.5,1.4.4,2.7.8,3.8,1.2,1.3-2.3,2-4,3.3-6.8-1-.3-2.8-.8-4.7-1.3-3.5-1-7.6-2.3-8.5-2.6h0"/><path class="cls-1" d="M71.4,48.9s0,0,0,0h0s0,0,0,0"/><path class="cls-1" d="M86.3,51.8c-3.5-.9-13.7-4-15.8-4.6,0,0,0,0-.1,0"/><path class="cls-1" d="M70.5,47.3c0,0,0-.1,0-.1,0,0,0,.3-.2.7-.2.9-.7,2.6-1.1,4.3-.5,2.3-1,4.5-.8,4.6,4.3,1.6,10,3.4,13.6,4.4,1.1-2.1,1.9-3.9,2.8-5.9.3-.6.6-1.3.9-2,.2-.4.4-.9.6-1.3"/><path class="cls-1" d="M70.1,47.8c-.8-.5-2-1.2-3.2-1.9-3.7-2-8.4-4.4-10.5-5.1-1.1.9-1.2,2-1.2,3.8"/><path class="cls-1" d="M69.1,52.2c-1.3-.7-4.3-2.3-5.8-3.4-.9-.6-.5-2.2-1.1-2.9,0,0-.2-.2-.3-.2"/><path class="cls-1" d="M102.6,60.2c0,0,.2,0,.4.2.5.3,1.3.8,1.6.9-.7,1.8-1,3.8-3,2.5-.2-.1-.4-.3-.6-.5"/><path class="cls-1" d="M89.3,54.6c-.3-.1-.6-.2-.9-.3-.9-.3-1.7-.6-2.6-1,0,0,0,0,0,0"/><path class="cls-1" d="M88.9,56.8c-1.4-.5-2.6-1.1-4-1.5,0,0-.1,0-.2,0"/><path class="cls-1" d="M58.4,83.1c-4.2-.2-8.5,1-12,3.3,0,0-.2,0-.2.2"/><path class="cls-1" d="M79.5,87.3c3.9,1.7,7.5,4.1,10.6,7.1"/><path class="cls-1" d="M78.4,125.3c0,2.7-.8,4.8-2.2,6.2s-3.3,2-5.7,2c-3,0-5.4-1.8-7.3-5.2l3.8-3.2c1.1,2.1,2.3,3.2,3.7,3.2,1.6,0,2.4-1,2.5-3,0-1.3-.2-2.2-.6-2.7s-1.2-.8-2.2-.8h-1.9s.1-5.1.1-5.1h1.9c1.5,0,2.3-.9,2.4-2.7,0-1.7-.6-2.5-1.9-2.6-1.2,0-2.4.8-3.6,2.6l-3.3-3.5c1.9-2.9,4.3-4.3,7.2-4.3,2.2,0,3.9.7,5.1,1.9,1.2,1.2,1.8,2.9,1.7,5.1,0,2.8-1,4.7-2.9,5.8,2.2.9,3.3,3,3.2,6.4Z"/></svg>