<?xml version="1.0" encoding="UTF-8"?><svg id="asia" xmlns="http://www.w3.org/2000/svg" width="235" height="321.9" viewBox="0 0 235 321.9"><defs><style>.cls-1{stroke-linecap:round;stroke-linejoin:round;}.cls-1,.cls-2{fill:none;stroke:#000;}.cls-2{stroke-miterlimit:10;}.cls-3,.cls-4,.cls-5,.cls-6,.cls-7,.cls-8,.cls-9,.cls-10,.cls-11{stroke-width:0px;}.cls-4{fill:#faac8e;}.cls-5{fill:#3a3f45;}.cls-6{fill:#3d8e3d;}.cls-7{fill:#1a2636;}.cls-8{fill:#cbaa99;}.cls-9{fill:#fff;}.cls-10{fill:#052936;}.cls-11{fill:#67b96a;}</style></defs><path class="cls-8" d="M25.8,151.1l.5-.3c.4-.5,1.1-1.1,1.8-1.9h0c-2-5.4-8.3-8.7-14-8.8h-.1c-1.2,1.5-2.1,3.1-2.9,4.5-2.9,5.1-2.5,6.6,1.3,12.9,1.5,2.5,14.5,17.8,17.5,20.7-1.3,2.8,1.8,7,3.8,9,.9.9,4.3,3,6.5,3.2,1.2,0,2-.4,1.9-1.8,1.1,0,3.4-1.2,2.2-2.8,1.3-.2,2.8-1.6,2-3.6,4.3-1,2.6-3.4.6-5.4.6-2.8-1.4-3.9-3.9-4.6-2.1-.6-4.7-.7-6.3-1.2-2.8-2.6-7.6-13.4-10.9-19.8Z"/><path class="cls-6" d="M14,140.1h.1c5.7.1,12,3.4,14,8.8h0c3.8-3.7,10.8-10.7,15.7-15.7,0-.2,0-.2,0,0,2.2-2.3,4-4.2,4.7-5.3,2.9-4,1.6-9.1-.3-13.7,0,0,0-.2-.1-.3-.5-1.3-1.3-2.6-2.4-3.5-1.2-1-2.9-1.4-4.3-.8h0c-.1,0-.2,0-.4,0-3.6,1.5-5.8,5.2-8.6,7.8-2.1,1.9-15.4,19-15.4,19-1.3,1.3-2.3,2.5-3.2,3.7Z"/><path class="cls-5" d="M16.6,299.1c-.4,1.4-.3,7.3.7,8.4,1.2,1.2,3.1,1.3,4.9,1.4,5.6,0,11.2.1,16.8,0,2,0,5.9.3,7.3-1,1.7-1.6-.4-12.7-.6-13h0c-5.2-.7-11-2.8-13.9-4.4h0c-2.5,0-3.9.1-6.6,1.6-2.8,1.3-7.8,4.3-8.6,7Z"/><path class="cls-10" d="M82.1,295.8c8,1.2,11.4-2.7,16.7-5.1.8-.4,1.6-.7,2.5-1,0-6.9-5.8-65.3-6.9-71.7-.9-5.5-2.7-22.1-3.1-28-3.6,1.6-10.4,5.1-21.3,5.1-17.7,0-26.3-3.6-27.8-6.6,0,1.5-.8,1.9-1.9,1.8-1.5,8.2-10.2,99-10.2,99,.3.3.9.7,1.7,1.1h0c3,1.6,8.7,3.7,13.9,4.4,2,.3,3.9.3,5.6,0,0,0,6.4-39,6.4-39,.2-.3,5-30.6,8.3-45.8.4,6,11.1,81.3,11.2,84.4,1.8.6,3.4,1,4.9,1.2Z"/><path class="cls-7" d="M38.7,66.8c-1.2,8.7-.4,11.7,5.6,18,.5.5,1.1,1,1.8.9.9-.2,1.2-1.3,1.3-2.2.7-6,.2-6.7,1.2-12.6,1-5.9,3.9-13.1,7.3-18s4.6-7.8,10.5-8.8l.4-.2c-1.2-2.8-1.8-5.3-2.5-7.1-6.5-.7-12.4.7-17,5.3-6.2,6.3-7.6,15.9-8.8,24.6Z"/><path class="cls-9" d="M41.5,109.4h0c1.4-.5,3.1,0,4.3.9,1.1.9,1.8,2.2,2.4,3.5h0c3.2-2.5,7-4.2,11-5l.5-.2c-1.6-1.2-2.7-2.5-3.1-3.6h-.1c-1.4.1-4.3.7-7.5,1.6-1.8.5-5.7,2-7.6,2.8Z"/><path class="cls-4" d="M43.8,133.1h0c0-.2,0-.2,0,0Z"/><path class="cls-11" d="M92.3,141.9c.2-10,.3-20-3.5-29.2h0c-4.4-1.7-9.1-2.9-13.8-3.4h0c-1.3,2.2-3.5,3.2-5.4,3.4-2.6.3-6.8-1.7-9.7-4l-.5.2c-4,.8-7.8,2.5-11,4.9h0c0,.1,0,.2.1.3,1.8,4.6,3.2,9.7.3,13.7-.8,1.1-2.5,3-4.7,5.3.2,1.2.8,10.5,1,12.1.3,3.4.7,6.9.4,10.4-.3,4.8-1.8,12.3-2.2,16.6,2.5.7,4.5,1.8,3.9,4.6,1.9,2,3.7,4.4-.6,5.4.8,2-.7,3.4-2,3.6,1.3,1.6-1.1,2.8-2.2,2.8,1.6,2.9,10.1,6.6,27.8,6.6s17.7-3.6,21.3-5.1c.2-5,.4-12.2.6-19.5.2-7.9.3-15.9.3-21.3s0-4.8.1-7.3ZM65.2,138.3v-4.1c1.4-.2,2.5-.5,3.3-1s1.2-1.3,1.5-2.4l5.8-.2.8,27.7-6.9.2-.6-20.3h-3.9Z"/><path class="cls-8" d="M83.5,89.8h0c-1.6,3-3.3,4.5-6.9,5-2.3.3-6.8-.2-9-1.6-1.4-.9-2.2-1.4-3.3-2.6-.7-.8,0-2,1.1-1.8,4.8,1.3,13.5,2.6,18.2,1ZM75.8,104.5c3.2-.9,6.2-2.9,9.1-5.3,4.1-3.3,5.1-6.5,6.1-11.1.3-3.9.8-8.7.7-10.8-.1-5.3-2.4-9.5-7-14.2-2.7-2.7-6.2-5.7-10.5-9.2-3.8-3.1-6-6.8-7.3-10.1l-.4.2c-5.9,1-7.1,3.8-10.5,8.8s-6.3,12.1-7.3,18c-1,5.9-.6,6.6-1.2,12.6.5,4.5,4.6,12,7.3,14.1.5.4.9.7,1.4,1.1,8.3,6.2,14.4,7.4,19.6,5.9ZM61.5,72.5c0-2,.9-3.6,1.9-3.6s1.9,1.6,1.9,3.6-.9,3.6-1.9,3.6-1.9-1.6-1.9-3.6ZM84.2,73c0-1.7.7-3.1,1.6-3.1s1.6,1.4,1.6,3.1-.7,3.1-1.6,3.1-1.6-1.4-1.6-3.1Z"/><path class="cls-8" d="M56.6,104.4c0,.2,0,.5,0,.7.3,1.1,1.5,2.4,3.1,3.6,2.9,2.2,7.1,4.2,9.7,4,1.9-.2,4.2-1.2,5.4-3.4.5-.9.8-1.9.9-3.1,0-.5,0-1,0-1.5-5.2,1.5-11.3.3-19.6-5.9,0,3.7.6,3.3.4,5.8Z"/><path class="cls-3" d="M63.4,68.9c-1.1,0-1.9,1.6-1.9,3.6s.9,3.6,1.9,3.6,1.9-1.6,1.9-3.6-.9-3.6-1.9-3.6Z"/><path class="cls-9" d="M65.3,88.8c-1-.3-1.8,1-1.1,1.8,1.1,1.2,2,1.7,3.3,2.6,2.2,1.4,6.7,1.9,9,1.6,3.7-.5,5.4-2.1,6.9-4.9h0c-4.7,1.5-13.3.2-18.2-1.1Z"/><path class="cls-7" d="M91.1,88.2c-.1,2-.2,3.8-.1,4.9,5-2.2,7.5-11.1,8.9-15.2,3.5-10.3,2.9-27-4.3-35.1-4.2-4.8-12.1-9.5-19.6-10.2-6.9-.6-11.9,3.1-11.5,4.2.7,1.7,1.3,4.3,2.5,7.1,1.4,3.3,3.5,7,7.3,10.1,4.3,3.5,7.8,6.5,10.5,9.2,4.7,4.7,6.9,8.8,7,14.2,0,2.2-.5,6.9-.7,10.8Z"/><path class="cls-9" d="M65.1,134.3v4.1c.1,0,4-.1,4-.1l.6,20.3,6.9-.2-.8-27.7-5.8.2c-.3,1.1-.8,1.9-1.5,2.4s-1.9.8-3.4,1Z"/><path class="cls-9" d="M74.9,109.2h0c4.7.5,9.4,1.7,13.8,3.4h0c-.6-1.5-1.4-2.9-2.2-4.4v-.4c-.2-.1-.5-.2-.9-.3-2.7-.7-7.8-1.7-9.9-1.5h0c-.1,1.2-.4,2.3-.9,3.1Z"/><path class="cls-5" d="M82.1,295.8c-1,2.3-1.6,10.9.5,12,1.5.9,20,1.4,25.2,1.2.5,0,3.5-.7,3.9-.9,1.5-.7.8-9,0-10.4-1.8-3.3-8.9-6-13-7.1-5.2,2.5-8.7,6.4-16.7,5.1Z"/><path class="cls-3" d="M85.8,69.9c-.9,0-1.6,1.4-1.6,3.1s.7,3.1,1.6,3.1,1.6-1.4,1.6-3.1-.7-3.1-1.6-3.1Z"/><path class="cls-6" d="M86.7,107.9v.4c.7,1.4,1.5,2.9,2.1,4.4,3.9,9.2,3.8,19.3,3.5,29.2,1,1.4,3.5,6.7,5.6,10.9,2-.9,4.8-2.3,7.2-3.7,3.2-1.8,5.9-3.4,5.9-3.4-.6-1.1-1.4-2.5-2.2-4-3.9-6.5-11-25.1-15.3-28.9-2.4-2.2-4-3.8-6.8-4.8Z"/><path class="cls-8" d="M92,170.5h0c-.2,7.3-.4,14.6-.6,19.5,1.7-.4,3.7-.6,4.7-3.5.8-2.2,1.2-4.1,1.9-6.3.5-1.5,1.1-2.8,1.9-4,1.8-2.8,5.2-6.3,7.9-9.2,5.2-5.5,9.6-11.2,5-18.1-.4-.6-1.1-1.8-1.9-3.3,0,0-2.7,1.6-5.9,3.4l.3.5c-2.7,2.3-4.1,4.6-5.5,7.2-.5.9-1,1.9-1.5,2.9-.9,1.9-6.5,10.4-6.5,10.8Z"/><path class="cls-8" d="M97.9,152.7c.8,1.6,1.5,3.1,2,4,1.4-2.6,2.8-4.8,5.5-7.2l-.3-.5c-2.4,1.4-5.2,2.8-7.2,3.7Z"/><path class="cls-2" d="M75.8,104.2c0,.1,0,.2,0,.3,0,.5,0,1.1,0,1.5-.1,1.2-.4,2.3-.9,3.1-1.3,2.3-3.5,3.3-5.4,3.4-2.6.3-6.8-1.7-9.7-4-1.6-1.2-2.7-2.5-3.1-3.6,0-.3-.1-.5,0-.7.2-2.4-.4-2.1-.4-5.8"/><path class="cls-2" d="M75.8,106.1c2-.2,7.2.7,9.9,1.5.3,0,.7.2,1,.3,2.8,1,4.4,2.7,6.8,4.8,4.3,3.9,11.4,22.4,15.3,28.9"/><path class="cls-2" d="M28.1,148.9c-.7.8-1.4,1.4-1.8,1.9"/><path class="cls-2" d="M43.8,133.1c-4.9,5.1-11.9,12-15.7,15.8"/><path class="cls-2" d="M41.6,109.6c1.4-.6,3.1-.2,4.3.8,1.1.9,1.8,2.2,2.4,3.5,0,0,0,.2.1.3,1.8,4.6,3.2,9.7.3,13.7-.8,1.1-2.5,3-4.7,5.3h0"/><path class="cls-2" d="M56.6,105.2c-1.4,0-4.3.6-7.5,1.5-1.8.5-5.7,2-7.6,2.8-.1,0-.2,0-.4.1-3.6,1.5-5.8,5.2-8.6,7.8-2.1,1.9-15.4,19-15.4,19"/><path class="cls-2" d="M86.6,108.3c.9,1.4,1.6,2.9,2.2,4.4,3.9,9.2,3.8,19.3,3.5,29.2,0,2.4-.1,4.8-.1,7.3,0,5.4-.1,13.4-.3,21.3-.2,7.3-.4,14.6-.6,19.5-3.6,1.6-10.4,5.1-21.3,5.1-17.7,0-26.3-3.6-27.8-6.6"/><path class="cls-2" d="M43.8,133.1c0-.2,0-.2,0,0,.2,1.2.8,10.5,1,12.1.3,3.4.7,6.9.4,10.4-.3,4.8-1.8,12.3-2.2,16.6,0,.1,0,.3,0,.4"/><path class="cls-2" d="M99.9,176.2c-.8,1.2-1.4,2.5-1.9,4-.7,2.2-1.2,4.1-1.9,6.3-1,2.9-3,3-4.7,3.5"/><path class="cls-2" d="M108.8,141.7c.8,1.5,1.5,2.9,2.2,4,.8,1.5,1.5,2.6,1.9,3.3,4.5,6.9.2,12.6-5,18.1-2.7,2.9-6.1,6.3-7.9,9.2"/><path class="cls-2" d="M92.2,141.7c0,0,0,.1.2.2,1,1.4,3.5,6.7,5.6,10.9.8,1.6,1.5,3.1,2,4"/><path class="cls-2" d="M105.4,149.6c-2.7,2.3-4.1,4.6-5.5,7.2-.5.9-1,1.9-1.5,2.9-.9,1.9-6.5,10.4-6.5,10.8s0,0,0,0"/><path class="cls-2" d="M17.1,136.4c-1.3,1.3-2.3,2.5-3.2,3.7-1.2,1.6-2.1,3.1-2.9,4.6-2.9,5.1-2.5,6.6,1.3,12.9,1.5,2.5,14.5,17.8,17.5,20.7"/><path class="cls-2" d="M36.8,170.9c-2.8-2.6-7.6-13.4-10.9-19.8-.9-1.8-1.8-3.2-2.4-4.1"/><path class="cls-2" d="M44.8,174.5c.4.5,1.3,1.3,2.2,2.2,1.9,2,3.7,4.4-.6,5.4.8,2-.7,3.4-2,3.6,1.3,1.6-1.1,2.8-2.2,2.8,0,1.5-.8,1.9-1.9,1.8-2.2-.2-5.6-2.3-6.5-3.2-2-2-5.1-6.1-3.8-9"/><path class="cls-2" d="M36.8,170.9c1.6.5,4.2.7,6.3,1.2,2.5.7,4.5,1.8,3.9,4.6,0,0,0,0,0,0"/><path class="cls-2" d="M91.3,190c.4,5.9,2.2,22.4,3.1,28,1,6.4,6.9,64.8,6.9,71.7-.9.3-1.7.6-2.5,1-5.2,2.5-8.7,6.4-16.7,5.1-1.5-.2-3.1-.6-4.9-1.2,0-3.1-10.8-78.4-11.2-84.4,0-.1,0-.2,0-.2"/><path class="cls-2" d="M31.7,290.5c-.8-.4-1.4-.8-1.7-1.1,0,0,8.7-90.8,10.2-99h0v-.2"/><path class="cls-2" d="M68.2,202.2c-.6,1.1-1.3,4-2.2,7.9-3.4,15.1-8.2,45.4-8.3,45.8,0,0-6.4,39-6.4,39-1.7.3-3.6.2-5.6,0-5.2-.7-11-2.8-13.9-4.4"/><path class="cls-1" d="M31.7,290.5h0c-2.5,0-3.9.1-6.6,1.6"/><path class="cls-1" d="M25.2,292.1c-2.8,1.3-7.8,4.3-8.6,7-.4,1.4-.3,7.3.7,8.4,1.2,1.2,3.1,1.3,4.9,1.4,5.6,0,11.2.1,16.8,0,2,0,5.9.3,7.3-1,1.7-1.6-.4-12.7-.6-13"/><path class="cls-1" d="M82.2,295.6s0,0,0,.1c-1,2.3-1.6,10.9.5,12,1.5.9,20,1.4,25.2,1.2.5,0,3.5-.7,3.9-.9,1.5-.7.8-9,0-10.4-1.8-3.3-8.9-6-13-7.1-.2,0-.3,0-.5-.1"/><path class="cls-1" d="M91.6,85.7c-.2.9-.4,1.7-.5,2.5-1,4.6-2,7.8-6.1,11.1-3,2.4-5.9,4.3-9.1,5.3-5.2,1.5-11.3.3-19.6-5.9-.5-.3-.9-.7-1.4-1.1-2.7-2.2-6.8-9.7-7.3-14.1"/><path class="cls-1" d="M90.5,66.6c-.9-2-3.8-3.5-5.7-3.5-.6,0-1.1.2-1.4.5"/><path class="cls-1" d="M67.2,64.5c-2.2-2.2-7.9-.8-8.4.9"/><path class="cls-1" d="M84.2,73c0,1.7.7,3.1,1.6,3.1s1.6-1.4,1.6-3.1-.7-3.1-1.6-3.1-1.6,1.4-1.6,3.1Z"/><path class="cls-1" d="M61.5,72.5c0,2,.9,3.6,1.9,3.6s1.9-1.6,1.9-3.6-.9-3.6-1.9-3.6-1.9,1.6-1.9,3.6Z"/><path class="cls-1" d="M82.3,83c-1.8,2.6-5.5,3.2-8.3,2.6"/><path class="cls-1" d="M84,89.6c-.2,0-.3.1-.5.2h0c-4.7,1.7-13.3.4-18.2-.9-1-.3-1.8,1-1.1,1.8,1.1,1.2,2,1.7,3.3,2.6,2.2,1.4,6.7,1.9,9,1.6,3.7-.5,5.4-2.1,6.9-4.9"/><path class="cls-2" d="M14.1,140.2c5.7,0,12,3.3,14,8.7"/><path class="cls-2" d="M111,145.6s-2.7,1.6-5.9,3.4c-2.4,1.4-5.2,2.8-7.2,3.7,0,0,0,0-.1,0"/><path class="cls-2" d="M66.9,43.9c1.4,3.3,3.5,7,7.3,10.1,4.3,3.5,7.8,6.5,10.5,9.2,4.7,4.7,6.9,8.8,7,14.2,0,2.2-.5,6.9-.7,10.8-.1,2-.2,3.8-.1,4.9,5-2.2,7.5-11.1,8.9-15.2,3.5-10.3,2.9-27-4.3-35.1-4.2-4.8-12.1-9.5-19.6-10.2-6.9-.6-11.9,3.1-11.5,4.2.7,1.7,1.3,4.3,2.5,7.1Z"/><path class="cls-2" d="M64.5,36.8c-6.5-.7-12.4.7-17,5.3-6.2,6.3-7.6,15.9-8.8,24.6-1.2,8.7-.4,11.7,5.6,18,.5.5,1.1,1,1.8.9.9-.2,1.2-1.3,1.3-2.2.7-6,.2-6.7,1.2-12.6,1-5.9,3.9-13.1,7.3-18s4.6-7.8,10.5-8.8"/><path class="cls-2" d="M48.3,113.8c3.2-2.5,7-4.2,11-4.9"/><path class="cls-2" d="M74.9,109.3c4.7.5,9.4,1.6,13.8,3.4"/><path class="cls-1" d="M76.6,158.3l-6.9.2-.6-20.3h-3.9c0,.1-.1-4-.1-4,1.5-.2,2.6-.5,3.4-1s1.2-1.3,1.5-2.4l5.8-.2.8,27.7Z"/></svg>