<?xml version="1.0" encoding="UTF-8"?><svg id="asia" xmlns="http://www.w3.org/2000/svg" width="235" height="321.9" viewBox="0 0 235 321.9"><defs><style>.cls-1{fill:none;stroke:#000;stroke-linecap:round;stroke-linejoin:round;}.cls-2,.cls-3,.cls-4,.cls-5,.cls-6,.cls-7,.cls-8,.cls-9,.cls-10{stroke-width:0px;}.cls-3{fill:#f9f9f9;}.cls-4{fill:#4f413b;}.cls-5{fill:#0c6e2c;}.cls-6{fill:#d8bb2b;}.cls-7{fill:#f2d949;}.cls-8{fill:#f2cab3;}.cls-9{fill:#fff;}.cls-10{fill:#fbc414;}</style></defs><path class="cls-3" d="M113.1,291.3h0c7.1,3.8,14.2,7.6,21.2,11.4,1.2.7,2.5,1.4,3.2,2.5,1.6,2.4-.1,5.7-2.7,7s-5.8,1.2-8.9.9c-9.2-.9-18.1-3.3-27-5.6-1.1-.3-2.2-.6-2.8-1.5-.4-.7-.3-1.4-.2-2.2.5-3.2,1.4-6.3,2.7-9.3h.5c0,.4,0,.8,0,1.2,1,2.2,5.2,3.6,7.3,2.5,1.3-.7,2-2,2.7-3.3.5-1.1.3-2.2.8-3,.1-.2.3-.3.5-.5,1.1-.9,1.7-1,2.7,0Z"/><path class="cls-8" d="M131.7,175.6c1.2,2.8-1.9,5.6-4.3,7.5s-3.9,2.5-6.4.8c-1.2-.8-2.2-2-2.6-3.5,0-.1,0-.2,0-.3-.5-2.5,1-5.1,3.1-6.6,2.2-1.6,0-.8,2.7-1.4,2.9-.9,6.3.7,7.6,3.5Z"/><path class="cls-8" d="M124.1,172.1c-2.6.6-.5-.1-2.7,1.4-2.1,1.5-3.6,4.1-3.1,6.6h-.1c-1.7-4.5-9.5-10.8-14.8-16.1l.2-.2c2.2-5.6,5.4-5,6.9-5.6h.6c4.2,5.8,9.7,11.5,13,13.8Z"/><path class="cls-10" d="M114.5,235.2c.2,12-.6,22.9-1.8,34-4.4,3-9.1,4.7-13.9,5.5-8.5,1.4-17.7.2-27.9-1-3.2-.4-9.1-.9-15.1-1.8-5.5-.8-11.1-2.1-14.6-3.9-1-.5-1.9-1.1-2.5-1.8,1-1.9,12-24.3,12.1-28.4.2-7.2-1.6-33.7,3.5-50.4,2.1,1.2,4.7,2.2,6.9,3h.4c1.8,1.5,3.7,2.6,4.7,2.1.2,0,.4-.3.6-.5h.3c3.8,1,7.4,1.3,11.5,1.7,2.8.2,5.7.2,8.4-.4,2.7-.6,5.7-1,7.1-2.9,0,1,0,2,0,3.1,8.4,8.3,19.1,29.5,20.3,41.7Z"/><path class="cls-4" d="M113.9,89c-3.6-8.5-10.1-15.9-18.2-20.4,0,0,0,0,0,0l-.3-.7c-.5-5.9-4.4-11.4-9.9-13.7,1.8,0,3.7,0,5.8,0h.2c22.4,5,29.6,14.5,26.8,31.8l-.2.3c-2.2,8.7-6.9,54.9-14.5,53.7h-.3c-1.6-5.8-3.5-11.9-6.4-15.3-.4-.5-.8-.9-1.2-1.2-1.4-1.1-3.8-2.5-5.5-3-.1-.9-.6-1.6-1.4-2.2l.2-.4c2.8,1.2,5.4,2,6.4,1.8,3.6-.6,8.2-4.6,8.2-4.6,7-5.9,7.7-19,8.2-20.9.3-1,1.2-3,2-5.3Z"/><path class="cls-5" d="M112.7,269.2c-.8,7.3-1.8,14.7-2.8,22.6-.5.9-.3,2-.8,3-.6,1.3-1.4,2.6-2.7,3.3-2.2,1.2-6.3-.3-7.3-2.5.4-7.5.5-13.9-.3-20.8h0c4.9-.9,9.5-2.6,13.9-5.6Z"/><path class="cls-10" d="M107.4,152.8c1,1.8,2.3,3.6,3.6,5.5h-.6c-1.6.5-4.8,0-6.9,5.6l-.2.2c-2.6-2.5-4.6-4.8-5.1-6.4h-.2c0-.2,0-.4,0-.6,1.9-3.1,5.1-4.7,8.7-5.4h0c.2.4.4.8.6,1.2h0Z"/><path class="cls-8" d="M101.4,109.3c-4.4-.5-7.4-2.4-11.3-5.1l-.2.3c-.3,7.1,8.9,11,11.5,4.9ZM89,118l-.2.4c-1.3.5-.1,3.5-5,2.6-1.8-.4-4.4-1.8-5.8-3-1.2-1-3.8-3.9-5-4.7,2.3-3.6,4-15.3,7-29.4,1.5-7.3,8.8-12.2,15.6-15.4,0,0,0,0,0,0,8.1,4.6,14.6,11.9,18.2,20.4-.8,2.3-1.7,4.3-2,5.3-.5,1.9-1.2,15-8.2,20.9,0,0-4.6,4-8.2,4.6-1.1.2-3.6-.6-6.4-1.8ZM108.8,95.5c.3-1.6,0-3-.9-3.2-.8-.2-1.8.9-2.1,2.5-.3,1.6,0,3,.9,3.2.8.2,1.8-.9,2.1-2.5ZM91,91.4c.3-1.5-.1-2.9-1-3.1-.9-.2-1.8.9-2.2,2.4-.3,1.5.1,2.9,1,3.1.9.2,1.8-.9,2.2-2.4Z"/><path class="cls-6" d="M106.9,151.5h0c-3.6.8-6.8,2.3-8.7,5.5.9-6.5,1.5-12.8,1.2-19.6-.2-3-.5-5.5-1.1-8.1-.3-1.4-.7-2.8-1.3-4.3,2.9,3.4,4.7,9.5,6.4,15.4,1.2,4.2,2.3,8.3,3.6,11.3Z"/><path class="cls-2" d="M107.9,92.3c.8.2,1.2,1.6.9,3.2-.3,1.6-1.3,2.7-2.1,2.5-.8-.2-1.2-1.6-.9-3.2.3-1.6,1.3-2.7,2.1-2.5Z"/><path class="cls-7" d="M98.1,157c0,.2,0,.4,0,.6-1.4,10-3.5,20.3-3.8,32.8-1.4,1.9-4.5,2.3-7.1,2.9-2.7.6-5.6.6-8.4.4-4.1-.3-7.7-.7-11.5-1.6h-.3c1.8-2.1,4.6-9,3.7-11.1-.9-2.2-9.2-4.3-10.8-2.6h-.1c-1.1-1.6-2-3-2.8-4.4l.4-.2c1.1-10.3,2.3-22.7,1.3-29.1h0c1.7-2.9,3.2-5.4,4.1-6.9,1.7-2.8,2.8-5.5,2.7-8.8,0-1.6-.5-3.3-1.3-4.7h0c2.6-1.3,5.2-2.6,7.8-3.9h0c.8,1,1.8,1.8,2.8,2.6,2,1.5,5,2.8,7.5,3.4,2,.5,6.2-.6,7.6-3.1h0c3,1.6,5.7,3.6,8.2,5.9h.2c.6,2.6.9,5.1,1.1,8.1.4,6.8-.3,13.2-1.2,19.6ZM91.6,164.4l.3-5.4h-1.9c0,0,.9-17.2.9-17.2l-4.7-.2-9.3,17.3-.2,4.6,8.8.5-.3,5.5,4.3.2.3-5.4h1.9Z"/><path class="cls-9" d="M98.2,129.2h-.2c-2.4-2.3-5.2-4.2-8.2-5.8h0c.1-.3.3-.6.3-.9.2-.7.2-1.3.1-1.9,1.7.5,4.1,1.9,5.5,3,.4.4.8.8,1.2,1.2.5,1.5.9,2.9,1.3,4.3Z"/><path class="cls-9" d="M101.4,109.3c-2.6,6.1-11.8,2.2-11.5-4.9l.2-.3c3.9,2.8,6.9,4.6,11.3,5.1Z"/><path class="cls-4" d="M73.9,65.6c.5,2.5,1,2.8,1.9,4.1,1,1.4,2.4,2.4,3.8,3.4,1.2.8,2.5,1.5,3.9,1.6,1.4,0,3-.6,3.4-2,.5-1.6-.7-3.2-1.9-4.3-3.3-3.1-7.5-5.4-11.9-6.4.3,1,.7,2,.8,3.6h0ZM60.3,120.8h0c-3,1.1-5,2.6-6.7,4.7h-.2c2.9-3.8,4.5-16.7,4.4-27.8-.3-15.9,1.3-22.4,6.6-31.6,3.2-5.4,8.4-11.4,21-12,5.4,2.3,9.4,7.8,9.9,13.7l.3.7c-6.8,3.2-14.1,8.1-15.6,15.4-2.9,14-4.7,25.8-7,29.4-.1,0-.2-.1-.3-.2-1-.4-2.4,1.9-2.3,3.2,0,.6.1,1.1.3,1.6-5.4.9-4.9,1.5-10.4,2.9Z"/><path class="cls-9" d="M91.8,159.1l-.3,5.4h-1.9c0,0-.3,5.3-.3,5.3l-4.3-.2.3-5.5-8.8-.5.2-4.6,9.3-17.3,4.7.2-.9,17.1h1.9ZM85.9,155.1c.1-2.4.3-4.3.4-5.7-.6,1.6-1.3,3.2-2.1,4.7l-.4.8c-.8,1.6-1.5,2.8-2,3.6.5,0,1.4,0,2.7,0h1.2c0,0,.2-3.5.2-3.5Z"/><path class="cls-10" d="M90.2,120.6c0,.5,0,1.2-.1,1.9,0,.3-.2.6-.3.9-1.4,2.5-5.6,3.6-7.6,3.1-2.5-.7-5.5-1.9-7.5-3.4-1-.7-2-1.5-2.8-2.6-.5-.7-.9-1.5-1.2-2.4-.1-.5-.2-1-.3-1.6,0-1.2,1.3-3.6,2.3-3.2,0,0,.2,0,.3.2,1.2.8,3.8,3.7,5,4.7,1.4,1.2,4,2.6,5.8,3,4.8.9,3.7-2,5-2.6.8.6,1.2,1.3,1.4,2.2Z"/><path class="cls-2" d="M90.1,88.4c.9.2,1.3,1.6,1,3.1-.3,1.5-1.3,2.6-2.2,2.4-.9-.2-1.3-1.6-1-3.1.3-1.5,1.3-2.6,2.2-2.4Z"/><path class="cls-7" d="M86.3,149.5c-.2,1.3-.3,3.2-.4,5.7l-.2,3.6h-1.2c-1.3-.1-2.2-.2-2.7-.1.5-.9,1.2-2.1,2-3.6l.4-.8c.8-1.5,1.5-3.1,2.1-4.7Z"/><path class="cls-9" d="M85,68.4c1.2,1.1,2.4,2.7,1.9,4.3-.4,1.3-2,2.1-3.4,2-1.4,0-2.7-.8-3.9-1.6-1.4-.9-2.8-2-3.8-3.4-1-1.4-1.5-1.7-1.9-4.1h0c0-1.6-.5-2.6-.8-3.6,4.4,1,8.6,3.3,11.9,6.4Z"/><path class="cls-3" d="M47.7,287.4c.5,0,.8.4,1.2,1.1,5.4,5.4,10.9,10.7,16.3,16.1,1,1,2,2,2.3,3.2.8,2.7-1.6,5.3-4.4,5.9-2.8.6-5.7-.4-8.4-1.4-8.2-3.3-15.9-7.8-23.5-12.3-.9-.5-1.9-1.2-2.1-2.2-.2-.7.1-1.4.4-2.1,1.3-2.9,3.7-7.7,6.6-8.5h.5c-.2,1-.4,1.8-.6,2.5h0c1.3,1.9,7.7,2,8.5,1.1,1-1.1.6-2.5,2-3.1.5-.2.9-.3,1.3-.3Z"/><path class="cls-8" d="M70.7,181c.8,2.1-2,8.9-3.7,11-.2.3-.4.4-.6.5-1,.5-2.9-.6-4.7-2.1-1.6-1.4-3.1-3.1-3.6-4-.8-.7-1.7-1.4-2.4-2.1-5.9-5.2-9.7-9.1-13.5-15.5h.1c1.7-3.4,4.4-5.6,8-6.4h0c2.9,4.7,4.4,8.1,6.6,11.7.8,1.4,1.7,2.8,2.8,4.4h.1c1.6-1.7,9.9.4,10.8,2.6Z"/><path class="cls-9" d="M72,120.4h0c-2.6,1.3-5.2,2.6-7.8,3.9h0c-.8-1.4-2.1-2.6-3.6-3.2v-.2c0,0,0,0,0,0,5.5-1.4,5-2,10.4-2.9.3.9.7,1.7,1.2,2.4Z"/><path class="cls-6" d="M65.4,129c0,3.3-1,6-2.7,8.8-.9,1.5-2.4,4.1-4.1,6.9-2.2,3.6-4.6,7.7-6.5,10.8h0c-4-.3-7.8-2.9-9.5-6.6l-.5-.2c1.4-3.1,4.3-9.1,6.2-13,2-4.2,3.5-7.5,5.5-10.1,1.6-2.1,3.7-3.6,6.7-4.6v.2c1.6.6,2.9,1.8,3.7,3.2.8,1.4,1.3,3.1,1.3,4.7Z"/><path class="cls-10" d="M61.7,190.4h-.4c-2.3-.8-4.8-1.7-6.9-3,.3-1,.6-1.9,1-2.8l.4-.4c.8.7,1.6,1.4,2.4,2.1.5.9,2,2.6,3.6,4Z"/><path class="cls-5" d="M55.8,272h0c-2.8,5.8-5.2,11.2-8.1,15.4-.3,0-.8,0-1.3.3-1.3.6-1,2-2,3.1-.9,1-7.3.9-8.5-1h0c.2-.8.4-1.6.6-2.4,1.3-5.3,2.7-12.2,4.6-19.1h0c3.5,1.7,9,2.9,14.6,3.8Z"/><path class="cls-10" d="M52,155.4h0c-1.3,2.2-2.4,3.8-2.9,4.3l-.2.4c.5.7.9,1.4,1.3,2.1h0c-3.6.9-6.4,3.1-8,6.4h-.1c-.8-1.4-1.7-2.9-2.5-4.7-1.5-3.1-.5-7.7,2-14.3h0c.1-.3.3-.7.5-1.1l.5.2c1.7,3.6,5.4,6.2,9.5,6.5Z"/><path class="cls-1" d="M91.6,54.5c22.4,4.9,29.6,14.4,26.8,31.7"/><path class="cls-1" d="M103.6,140.2c7.7,1.2,12.3-45,14.5-53.7"/><path class="cls-1" d="M73.1,113.4c2.3-3.6,4-15.3,7-29.4,1.5-7.3,8.8-12.2,15.6-15.4,0,0,0,0,0,0,8.1,4.6,14.6,11.9,18.2,20.4.1.3.3.7.4,1"/><path class="cls-1" d="M91.3,54.4c-2.1-.1-4-.2-5.8,0-12.6.6-17.8,6.5-21,12-5.4,9.2-6.9,15.6-6.6,31.6.2,11.1-1.4,24-4.4,27.6,0,0-.2.2-.2.3"/><path class="cls-1" d="M115.3,80.2c.5,2.6-.4,6-1.4,8.8-.8,2.3-1.7,4.3-2,5.3-.5,1.9-1.2,15-8.2,20.9,0,0-4.6,4-8.2,4.6-1.1.2-3.6-.6-6.4-1.8-3-1.3-6.2-3.1-8.2-4.9"/><path class="cls-1" d="M111.6,89.7c-.2-2.6-4.9-3.4-5.9-2.1"/><path class="cls-1" d="M95.1,84.3c-1.2-1.9-5.6-3.5-8.3-1.3"/><path class="cls-1" d="M101.7,101.3c0,4-2.7,2.8-4.2,3.7"/><path class="cls-1" d="M105.8,94.8c-.3,1.6,0,3,.9,3.2.8.2,1.8-.9,2.1-2.5.3-1.6,0-3-.9-3.2-.8-.2-1.8.9-2.1,2.5Z"/><path class="cls-1" d="M87.9,90.7c-.3,1.5.1,2.9,1,3.1.9.2,1.8-.9,2.2-2.4.3-1.5-.1-2.9-1-3.1-.9-.2-1.8.9-2.2,2.4Z"/><path class="cls-1" d="M101.5,109.4s0,0,0,0c-4.4-.5-7.4-2.4-11.3-5.1-.3-.2-.6-.4-.9-.6"/><path class="cls-1" d="M101.6,108.9c0,.1-.1.3-.2.4-2.6,6.1-11.8,2.2-11.5-4.9"/><path class="cls-1" d="M89.8,123.4c.1-.3.3-.6.3-.9.2-.7.2-1.3.1-1.9-.1-.9-.6-1.6-1.4-2.2-1.3.5-.1,3.5-5,2.6-1.8-.4-4.4-1.8-5.8-3-1.2-1-3.8-3.9-5-4.7-.1,0-.2-.1-.3-.2-1-.4-2.4,1.9-2.3,3.2,0,.6.1,1.1.3,1.6.3.9.7,1.7,1.2,2.4.8,1.1,1.8,1.9,2.8,2.6,2,1.5,5,2.8,7.5,3.4,2,.5,6.2-.6,7.6-3.1Z"/><path class="cls-1" d="M41.5,150c0,0,0-.1,0-.2.1-.3.3-.7.5-1.1,1.4-3.1,4.3-9.1,6.2-13,2-4.2,3.5-7.5,5.5-10.1,1.6-2.1,3.7-3.6,6.7-4.6"/><path class="cls-1" d="M60.4,121.1c1.6.6,2.8,1.8,3.6,3.2.8,1.4,1.3,3.1,1.3,4.7,0,3.3-1,6-2.7,8.8-.9,1.5-2.4,4.1-4.1,6.9-2.2,3.6-4.6,7.7-6.5,10.8-1.3,2.2-2.4,3.8-2.9,4.3"/><path class="cls-1" d="M97,124.8s0,0,0,0c.5,1.5.9,2.9,1.3,4.3.6,2.6.9,5.2,1.1,8.1.4,6.8-.3,13.2-1.2,19.6,0,.2,0,.4,0,.6-1.4,10-3.5,20.3-3.8,32.8,0,1,0,2,0,3.1"/><path class="cls-1" d="M58.6,144.7c.9,6.5-.3,18.8-1.3,29.1"/><path class="cls-1" d="M41.6,149.8c-2.5,6.5-3.5,11.2-2,14.3.9,1.7,1.7,3.3,2.5,4.7,3.8,6.4,7.6,10.2,13.5,15.5.8.7,1.6,1.4,2.4,2.1"/><path class="cls-1" d="M49,160.2c.5.7.9,1.4,1.3,2.1,2.9,4.7,4.4,8.1,6.6,11.7.8,1.4,1.7,2.8,2.8,4.4"/><path class="cls-1" d="M90.2,120.6s0,0,0,0c1.7.5,4.1,1.9,5.5,3,.4.4.8.8,1.2,1.2,2.9,3.4,4.7,9.5,6.4,15.4,1.2,4.2,2.3,8.3,3.6,11.3.2.4.4.8.6,1.2"/><path class="cls-1" d="M59.9,178.5c1.6-1.7,9.9.4,10.8,2.6.8,2.1-2,8.9-3.7,11-.2.3-.4.4-.6.5-1,.5-2.9-.6-4.7-2.1-1.6-1.4-3.1-3.1-3.6-4"/><path class="cls-1" d="M98.2,157.6c.5,1.7,2.5,3.9,5.1,6.4,5.3,5.2,13.1,11.6,14.8,16.1"/><path class="cls-1" d="M107.3,152.6c0,0,0,.1,0,.2,1,1.8,2.3,3.6,3.6,5.5,4.2,5.8,9.7,11.5,13,13.8"/><path class="cls-1" d="M124.1,172.1c-2.6.6-.5-.1-2.7,1.4-2.1,1.5-3.6,4.1-3.1,6.6,0,.1,0,.2,0,.3.4,1.4,1.4,2.6,2.6,3.5,2.5,1.7,4,1,6.4-.8s5.6-4.7,4.3-7.5c-1.2-2.8-4.7-4.4-7.6-3.5"/><path class="cls-1" d="M55.3,184.7c-.3.9-.7,1.8-1,2.8-5.1,16.7-3.4,43.2-3.5,50.4-.1,4.1-11.1,26.5-12.1,28.4.6.7,1.4,1.3,2.5,1.8,3.5,1.8,9,3,14.6,3.9,6,.9,11.9,1.4,15.1,1.8,10.2,1.2,19.4,2.4,27.9,1,4.9-.8,9.5-2.5,13.9-5.5,0,0,0,0,0,0"/><path class="cls-1" d="M55.8,272c-2.8,5.8-5.2,11.1-8.1,15.3,0,0,0,0,0,0"/><path class="cls-1" d="M41.1,268.2c-1.9,6.9-3.3,13.7-4.6,19.1-.2.8-.4,1.6-.6,2.4"/><path class="cls-1" d="M114.5,235.2c-1.2-12.3-11.9-33.5-20.3-41.7"/><path class="cls-1" d="M98.8,274.8c.7,6.9.6,13.3.3,20.8v-1.2c0-.3,0-.6,0-1"/><path class="cls-1" d="M114.5,235.2c.2,12-.6,22.9-1.8,34-.8,7.3-1.8,14.7-2.8,22.6,0,0,0,.2,0,.3"/><path class="cls-1" d="M60.3,120.9h0c5.5-1.4,5-2,10.4-2.9,0,0,0,0,0,0"/><path class="cls-1" d="M99,295.5c0,0,0,.1,0,.2,1,2.2,5.2,3.6,7.3,2.5,1.3-.7,2-2,2.7-3.3.5-1.1.3-2.2.8-3,.1-.2.3-.3.5-.5,1.1-.9,1.7-1,2.7,0h0"/><path class="cls-1" d="M98.7,294.4c-1.3,3-2.2,6.1-2.7,9.3-.1.7-.2,1.5.2,2.2.5.9,1.7,1.3,2.8,1.5,8.9,2.3,17.8,4.7,27,5.6,3,.3,6.2.4,8.9-.9s4.3-4.6,2.7-7c-.7-1.1-2-1.8-3.2-2.5-7.1-3.8-14.2-7.6-21.2-11.4"/><path class="cls-1" d="M35.7,289.1c0,.2,0,.4.2.6,1.3,1.9,7.7,2,8.5,1,1-1.1.6-2.5,2-3.1.5-.2.9-.3,1.3-.3.5,0,.8.4,1.2,1.1,0,0,0,.1,0,.2"/><path class="cls-1" d="M36,287.1c-2.9.8-5.3,5.5-6.6,8.5-.3.7-.6,1.4-.4,2.1.2,1,1.2,1.6,2.1,2.2,7.6,4.5,15.3,9.1,23.5,12.3,2.7,1.1,5.6,2,8.4,1.4,2.8-.6,5.2-3.3,4.4-5.9-.4-1.2-1.4-2.2-2.3-3.2-5.4-5.4-10.9-10.8-16.3-16.1,0,0-.2-.2-.3-.3"/><path class="cls-1" d="M50.3,162.3c-3.6.8-6.4,3.1-8,6.4"/><path class="cls-1" d="M110.5,158.2c-1.6.6-4.8,0-6.9,5.6"/><path class="cls-1" d="M95.3,67.9c-.5-5.9-4.4-11.4-9.9-13.7,0,0-.2,0-.3-.1"/><path class="cls-1" d="M73.9,65.4c0,0,0,.1,0,.2.5,2.5,1,2.8,1.9,4.1,1,1.4,2.4,2.4,3.8,3.4,1.2.8,2.5,1.5,3.9,1.6,1.4,0,3-.6,3.4-2,.5-1.6-.7-3.2-1.9-4.3-3.3-3.1-7.5-5.4-11.9-6.4.3,1,.7,2,.8,3.6"/><path class="cls-1" d="M64.1,124.3c2.6-1.3,5.2-2.6,7.8-3.8"/><path class="cls-1" d="M89.9,123.4c3,1.6,5.7,3.5,8.2,5.8"/><path class="cls-1" d="M42.5,148.9c1.7,3.6,5.4,6.2,9.5,6.5"/><path class="cls-1" d="M106.9,151.6c-3.6.8-6.8,2.3-8.7,5.4,0,0,0,0,0,0"/><path class="cls-1" d="M61.3,190.4c-2.3-.8-4.8-1.8-6.9-3"/><path class="cls-1" d="M94.4,190.3s0,0-.1.1c-1.4,1.9-4.5,2.3-7.1,2.9-2.7.6-5.6.6-8.4.4-4.1-.3-7.7-.7-11.5-1.6"/><polygon class="cls-1" points="91.6 164.4 89.7 164.3 89.4 169.7 85.1 169.5 85.4 164 76.6 163.5 76.9 159 86.2 141.7 90.9 141.9 90 159 91.8 159.1 91.6 164.4"/><path class="cls-1" d="M86.3,149.5c-.6,1.6-1.3,3.2-2.1,4.7l-.4.8c-.8,1.6-1.5,2.8-2,3.6.5,0,1.4,0,2.7,0h1.2c0,0,.2-3.5.2-3.5.1-2.4.3-4.3.4-5.7Z"/></svg>