<?xml version="1.0" encoding="UTF-8"?><svg id="asia" xmlns="http://www.w3.org/2000/svg" width="235" height="321.9" viewBox="0 0 235 321.9"><defs><style>.cls-1{stroke-linecap:round;stroke-linejoin:round;}.cls-1,.cls-2{fill:none;stroke:#000;}.cls-2{stroke-miterlimit:10;}.cls-3,.cls-4,.cls-5,.cls-6,.cls-7,.cls-8,.cls-9,.cls-10,.cls-11,.cls-12,.cls-13,.cls-14,.cls-15{stroke-width:0px;}.cls-4{fill:#51667b;}.cls-5{fill:#28231e;}.cls-6{fill:#2c2e2b;}.cls-7{fill:#3a2e28;}.cls-8{fill:#d14752;}.cls-9{fill:#d6b59d;}.cls-10{fill:#bf8b6d;}.cls-11{fill:#d8b08f;}.cls-12{fill:#8b6545;}.cls-13{fill:#906648;}.cls-14{fill:#b62026;}.cls-15{fill:#fff;}</style></defs><path class="cls-9" d="M29.8,143.6v-.2c-2.4-4.8-6.4-9.2-8.3-13.3-.7-1.4-1.3-2.5-1.9-3.5.7-.6,1.8-1.7,1.9-1.9-1.4-.5-3.1-2-4.1-2.7-3.6-2.8-6.4-5.4-9.6-10.5-6.7,12.8-4.4,17.8-4.4,17.8,2.9,7.8,16.5,19.3,19.3,23.2-1.4,3.1,1.9,7.5,4.1,9.6,1.4,1.4,8,5.3,9,2.4,0-.2,0-.3,0-.5,0-.1,0-.3,0-.5,1.1,0,3.7-1.3,2.3-3,1.4-.2,3-1.7,2.1-3.9,4.6-1.1,2.8-3.7.7-5.8.6-2.8-1.4-4.4-3.9-5.4-2.4-.9-5.3-1.4-7.2-1.9Z"/><path class="cls-14" d="M21.5,124.8c.6.2,1.1.3,1.5.1.6-.2,7.6-9.6,12.3-16.5,1.9-2.8,3.5-5.1,4.1-6.4,1.7-3.1,2.1-11.2.8-15.1,0-.3-.2-.6-.3-.8-1.2-2.8-4-4.1-5.8-4.4-4.1,2.1-10.8,7.4-13.1,10.3-6.4,7.9-10.6,14.4-13.3,19.6,3.2,5.1,6,7.6,9.6,10.5,1,.7,2.6,2.2,4.1,2.7Z"/><path class="cls-5" d="M32.1,286.8c-.3,2.2-12.8,11.5-12.7,15.7.2,6.7-1.8,6.5,8.2,6.5,16,0,17-.6,20.4-7,.7-1.2.6-2,.5-5-.1-3,0-6.5-.5-7.8-5.2.4-11.6-.9-15.7-2.7l-.2.4Z"/><path class="cls-4" d="M63.5,190.3c0,6.6,7.9,90.8,8,96.4,14.5,4,17.6,4.7,25.2-2.3,0-15.6-3.1-84.7-4.2-96-.6-6.2-.7-7.7-1.6-16.4v-.2c-3.4,1.4-9.6,4.2-27.5,4.2s-25.9-4.7-28.5-7.4c-7.3,42.8-6.6,114.7-6.6,114.7,2.1,3.7,15.8,7.2,23.2,4.8,1.3-13.6,8.4-77.1,11.9-97.9Z"/><path class="cls-15" d="M53.3,78c-2.2,0-16.1,2.4-18,3.1-.3.1-.7.3-1.1.5,1.8.3,4.5,1.6,5.8,4.4h0c4.2-3.1,9.1-3.9,14.8-4h.3c-.7-1.2-1.3-2.5-1.8-4.1Z"/><path class="cls-8" d="M35.3,108.4h.1c1,2.2,1.3,12.6,1.6,14.6.2,2.1.3,18.1,0,22.6,2.6,1,4.5,2.6,3.9,5.4,2.1,2.1,3.9,4.7-.7,5.8.9,2.2-.7,3.7-2.1,3.9,1.4,1.7-1.1,3-2.3,3,0,.2,0,.3,0,.5,0,.2,0,.4,0,.5-.3,1.3-.5,2.6-.7,4,2.6,2.7,17.1,7.4,28.5,7.4,17.8,0,24-2.7,27.3-4.2.6-.3,1.1-.5,1.6-.7.1-3,.2-6.1.2-9.5,0-7.1-.2-15-.8-24.2-.2-2.6-.4-5.3-.7-8.1-.4-4.7-.5-8.5-.4-12.1.1-5.1.5-10,.4-17,0-4.2-.8-8.7-2-12.7h0c-5.6-2.8-9.9-3.8-16.2-4.6h-.4c-2.3,3.7-6.7,3.8-6.7,3.8-.4.5-7,1.2-10.8-4.8h-.3c-5.6.3-10.6,1-14.8,4.1h0c.1.3.2.5.3.8,1.2,3.9.9,12-.8,15.1-.7,1.2-2.2,3.6-4.1,6.4ZM57,126.3l4.3-3.2c1.2,2.1,2.7,3.1,4.3,3.2,1.8,0,2.8-1,2.8-3,0-1.3-.2-2.2-.7-2.7-.5-.5-1.3-.8-2.5-.8h-2.2s0-5.1,0-5.1h2.2c1.8,0,2.7-.9,2.7-2.7,0-1.7-.7-2.6-2.2-2.6-1.3,0-2.7.8-4.1,2.6l-3.9-3.5c2.2-2.9,5-4.3,8.3-4.3,2.5,0,4.5.7,5.9,1.9s2.1,2.9,2,5.1c0,2.8-1.2,4.7-3.3,5.8,2.6.9,3.8,3,3.8,6.4,0,2.7-.9,4.8-2.4,6.2-1.6,1.4-3.8,2-6.5,2-3.4,0-6.2-1.8-8.4-5.2Z"/><path class="cls-13" d="M35.8,164.1c0,.2,0,.3,0,.5,0-.1,0-.3,0-.5Z"/><path class="cls-3" d="M38.3,45.5c-.8,1.3-.5,2.3.2,4,.2-.7.7-1.3,1.5-1.6-.1-.6-.2-1.3-.3-2.2-.4-.1-.9-.2-1.4-.1Z"/><path class="cls-9" d="M44.7,59.5c.8,4.6,3.1,9.9,4.5,11.3,1.7,1.9,3.4,3.4,5,4.7,3.7,2.7,7.1,4,9.1,4.3,3.7.7,7.5-1,11.1-3.3.3-.2.5-.3.8-.5,2.2-1.6,4.6-3.7,6-5.6,1.8-2.5,1.9-3.9,3.1-8.8.2-.7.4-1.4.5-2.2.5-1.9.9-3.8,1.2-5.4-4.8,0-10.3,0-14-.2-.4-2.1-.6-3.8-.9-5.8h0c-1.7,0-3.4-.2-5.1-.1-.2,2.2-.5,4.1-1,6.5-4.5.2-11.5.3-16.9.1-.2,0-.5-1.8-.7-3.9h0c-1.6.5-2.7.9-3.9,0-1.1-.8-1.3-2.7-2.5-2.8v-.2c-.3,0-.6.2-.9.3-.8.3-1.3.9-1.5,1.6-.7,2.2.8,5.7,1.5,7.4,1,2.6,3.2,3.3,4.4,2.6h.3Z"/><path class="cls-6" d="M89.4,44.7c0,.1,0,.5,0,.9,1.8-6.5,4.1-23.8-12.5-31.4-11.2-5.1-24.8-1.1-31.3,4.9-6.3,5.8-6.6,20.1-5.9,26.7,1.6.4,2.9,1.4,4.4,1.6-.4-3.9-.6-10.6,2.7-15.1.7-1,2.9,5.3,3.9,4.5,2.1-1.7,4.5-6.6,8.2-7.4,2.2-.5,8.5,5,11.3,5,4,0,3.4-5.2,6-4.3,3.1,1.1,4.2,6.1,5.8,8.2,1,1.3,4.3-3.7,4.8-2.1.7,2,.6,5.4.4,8.6.3,0,.5,0,.7,0,.7,0,1.2,0,1.5,0Z"/><path class="cls-3" d="M39.7,45.7c.1.9.2,1.7.3,2.2.3-.1.6-.2.8-.3,1.7-.6,2.2-.6,3.7,2.7,0,.1-.2-1.1-.5-3.1-1.5-.2-2.8-1.2-4.4-1.6Z"/><path class="cls-3" d="M40.9,47.6v.2c1.4,0,1.5,2,2.6,2.8,1.2.9,2.3.4,3.9,0h0c-.2-1.3-.3-2.8-.4-3.9h0c-1.1.6-2,.8-2.9.6.2,2,.5,3.2.5,3.1-1.5-3.3-2-3.4-3.7-2.7Z"/><path class="cls-9" d="M46.8,44.7s0,0,0,0c.5,0,1.7,0,3.2,0v-.7c0-.2,0-.3,0-.5,0-1.3,1.9-2,2.5-2.4,1.6-.9,6.5.3,8,1.2-.2.7-.2,1.1-.5,1.1v1s0,0,0,0c2.6,0,4.9-.2,6.3-.3,0,.5,0,1-.1,1.4,1.5,0,2.9.1,4.4.1h.2c0-.6-.1-1.1-.2-1.7,3.3.2,12.1.4,16.5.5.2-3.2.3-6.5-.4-8.6-.5-1.6-3.8,3.4-4.8,2.1-1.6-2.1-2.7-7-5.8-8.2-2.6-.9-2,4.3-6,4.3-2.8,0-9.1-5.5-11.3-5-3.7.8-6.1,5.7-8.2,7.4-1,.8-3.2-5.4-3.9-4.5-3.3,4.5-3.1,11.2-2.7,15.1.9.1,1.8,0,2.9-.6h0c0-.9-.1-1.6-.2-1.8h0c0,0,0,0,0,0ZM74.4,43.6c-.8-1.5,3-2.7,5.9-2.7s3.1,1.1,3.5,2.5c-2.9.3-7.6-.2-9.4.2Z"/><path class="cls-11" d="M46.8,44.7s0,0,0,0h0c0,0,0,0,0,0Z"/><path class="cls-3" d="M48.5,45.9s0,0,0,0c1.8,0,12.6-.2,16.2-.4-.3,3.1-.5,4.9-1.1,7.5-3.7.1-9.6.2-14.1.1-.4,0-1-6.4-1.1-7.2h0s0,0,0,0ZM66.2,45.7c0-.5,0-.9.1-1.4-1.4,0-3.7.2-6.3.3-3.4.1-7.3.2-10,.3-1.5,0-2.7,0-3.2,0,0,.2,0,.9.2,1.8.1,1.1.2,2.5.4,3.9.2,2.1.5,3.9.7,3.9,5.4.1,12.4,0,16.9-.1.4-2.4.7-4.3,1-6.5,0-.7.1-1.4.2-2.1Z"/><path class="cls-3" d="M48.5,45.9s0,0,0,0h0s0,0,0,0Z"/><path class="cls-15" d="M48.5,46c0,.8.7,7.2,1.1,7.2,4.5.1,10.3,0,14.1-.1.5-2.6.8-4.5,1.1-7.5-3.6.2-14.5.4-16.2.4ZM54.5,48.8c0-1.1.5-2,1.1-2s.7.3.8.7c.1-.2.3-.2.4-.2.5,0,.8.8.8,1.7s-.4,1.7-.8,1.7-.4-.1-.5-.4c-.2.3-.4.5-.7.5-.6,0-1.1-.9-1.1-2Z"/><path class="cls-9" d="M50,43.6c0,.1,0,.3,0,.5v.7c2.7,0,6.6-.1,10-.3h0s0-1,0-1c0,0,0,0-.2,0h0c-2.1,0-8.2.5-9.8.2h0Z"/><path class="cls-6" d="M59.8,43.5h0c0,0,.1,0,.2,0,.3,0,.3-.4.5-1.1-1.5-.8-6.4-2.1-8-1.2-.6.4-2.4,1.1-2.5,2.4h0c1.5.4,7.7,0,9.8-.1Z"/><path class="cls-9" d="M53.3,75.8c0,2,0,1.6,0,2.2.5,1.5,1.1,2.8,1.8,3.9,3.9,6,10.4,5.3,10.8,4.8,0,0,4.4-.1,6.7-3.8.5-.9.9-1.9,1.2-3.2.4-1.5.2-1.8.7-3.3-3.5,2.3-7.4,4-11.1,3.3-2-.4-5.5-1.6-9.1-4.3l-1,.4Z"/><path class="cls-15" d="M55.6,46.8c-.6,0-1.1.9-1.1,2s.5,2,1.1,2,.5-.2.7-.5c-.2-.3-.3-.8-.3-1.3s.2-1.2.4-1.5c-.2-.5-.5-.7-.8-.7Z"/><path class="cls-3" d="M56.5,47.6c-.2.3-.4.8-.4,1.5s.1,1,.3,1.3c.2-.4.4-.9.4-1.5s0-.9-.3-1.3Z"/><path class="cls-3" d="M56.7,48.8c0,.6-.1,1.1-.4,1.5.1.2.3.4.5.4.5,0,.8-.8.8-1.7s-.4-1.7-.8-1.7-.3,0-.4.2c.2.4.3.8.3,1.3Z"/><path class="cls-15" d="M61.3,123.1l-4.3,3.2c2.2,3.4,5,5.2,8.4,5.2,2.8,0,4.9-.6,6.5-2,1.6-1.4,2.4-3.4,2.4-6.2,0-3.4-1.2-5.5-3.8-6.4,2.2-1.1,3.3-3,3.3-5.8,0-2.2-.6-3.9-2-5.1s-3.3-1.8-5.9-1.9c-3.3,0-6,1.4-8.3,4.3l3.9,3.5c1.4-1.8,2.8-2.6,4.1-2.6,1.5,0,2.2.9,2.2,2.6,0,1.9-.9,2.8-2.7,2.8h-2.2s0,5,0,5h2.2c1.2,0,2,.3,2.5.9.5.5.7,1.5.7,2.7,0,2-1,3-2.8,3-1.6,0-3-1.1-4.3-3.2Z"/><path class="cls-3" d="M66.2,45.7c0,.8-.1,1.5-.2,2.1,1.7,0,3.4.2,5.1.2h0c0-.7-.2-1.4-.2-2.2h-.2c-1.5,0-3,0-4.4-.1Z"/><path class="cls-3" d="M70.7,44.1c0,.6.1,1.2.2,1.7,0,.8.2,1.5.2,2.2.2,2,.5,3.7.9,5.8,3.7.1,9.3.2,14,.2,0-.4.2-.9.3-1.3-2.6,0-5.7,0-8.5,0-1.7,0-3.2,0-4.5-.1-.5-2.5-.7-4.3-1-7.2,1.2,0,3.3.1,5.6.2,3.5,0,7.4.2,9.2.2,0-.4,0-.8,0-1.1-4.3,0-13.1-.3-16.5-.5Z"/><path class="cls-15" d="M86.7,81.9v-.7c-3.4-.5-10.5-1.1-13-1.5-.2,1.3-.6,2.3-1.2,3.2h.4c6.2.9,10.6,1.8,16.2,4.7h0c-.7-2.1-1.5-4.1-2.5-5.7Z"/><path class="cls-15" d="M72.3,45.4c.3,2.9.5,4.7,1,7.2,1.3,0,2.8,0,4.5.1v-1.7c-.5,0-1-.9-1-2s.4-2,1-2v-1.4c-2.2,0-4.3-.1-5.6-.2Z"/><path class="cls-6" d="M80.3,41c-2.8,0-6.6,1.1-5.9,2.7,1.8-.3,6.5.1,9.4-.2-.5-1.4-1.1-2.5-3.5-2.5Z"/><path class="cls-5" d="M75.7,298.5c-.1,2.6-.2,3.3.5,4.4,3.6,5.6,4.7,6.8,21.6,5.9,10.5-.6,8-.9,8.2-6.8.1-3.7-13.2-10.9-13.2-14.2-4.2,2.8-7.8,2.6-15.1.8v.2c-.7,1.1-1.9,7-2,9.7Z"/><path class="cls-15" d="M77.8,46.9c-.6,0-1,.9-1,2s.4,2,1,2,.5-.2.7-.6c-.2-.3-.3-.7-.3-1.3s.1-1,.4-1.3c-.2-.5-.5-.8-.8-.8Z"/><path class="cls-15" d="M77.8,50.9v1.7c2.7,0,5.8,0,8.4,0,.3-1.5.5-2.5.5-2.5,0-1.2.2-2.8.3-4.5-1.8,0-5.7,0-9.2-.2v1.4c.3,0,.6.3.7.8.1-.2.3-.3.5-.3.4,0,.8.7.8,1.6s-.4,1.6-.8,1.6-.4-.1-.5-.3c-.2.4-.4.6-.7.6Z"/><path class="cls-3" d="M78.6,47.7c-.2.3-.4.8-.4,1.3s.1,1,.3,1.3c.2-.4.3-.8.3-1.4s0-.9-.2-1.2Z"/><path class="cls-3" d="M78.6,47.7c.1.3.2.8.2,1.2s-.1,1-.3,1.4c.1.2.3.3.5.3.4,0,.8-.7.8-1.6s-.4-1.6-.8-1.6-.3.1-.5.3Z"/><path class="cls-10" d="M86,53.9c-.3,1.6-.8,3.5-1.2,5.4,3.9-1.7,4.9-5.6,4.6-8.6-.2,0-.4,0-.6,0-.2,1.8-.4,3.2-.6,3.2-.7,0-1.4,0-2.2,0Z"/><path class="cls-3" d="M86.3,52.7c0,.4-.2.8-.3,1.3.7,0,1.5,0,2.2,0,.2,0,.4-1.5.6-3.2-.3,0-.6-.1-1-.3h-.5c-.2,1.2-.4,2.3-.5,2.3-.2,0-.3,0-.5,0Z"/><path class="cls-15" d="M87.7,47.6c0-.2,0-.4,0-.6,0-.6.1-1.1.1-1.3-.2,0-.4,0-.8,0-.1,1.7-.3,3.2-.3,4.5,0,0-.2,1-.5,2.5.2,0,.3,0,.5,0,.2,0,.4-1,.5-2.3.1-.9.2-1.9.3-2.7Z"/><path class="cls-14" d="M86.8,81.2v.7c.8,1.6,1.7,3.6,2.4,5.7h0c1.3,4,2,8.5,2,12.7,0,7.1-.3,11.9-.4,17h.1c1,1.7,4,6.6,5,8.3.8-.4,1.5-.8,2.2-1.2,1.9-1.1,3.7-2.5,5.4-3.9,2.3-1.8,4.5-3.7,6.7-5.5-2.4-5.5-5.1-12.1-7.4-16.4-1.8-3.4-10.8-16.4-14.5-17.2-.4,0-.9-.2-1.6-.3Z"/><path class="cls-7" d="M87.1,45.8c.3,0,.6,0,.8,0,0,0,0,0,0,0h0s0-1.1,0-1.1c-.2,0-.5,0-.7,0,0,.4,0,.8,0,1.1Z"/><path class="cls-3" d="M87.3,50.3h.5c.4.2.7.3,1,.3,0-.6.1-1.2.2-1.8-.1-.3-.3-.6-.5-.9-.2-.2-.5-.4-.8-.4,0,.8-.2,1.9-.3,2.7Z"/><path class="cls-3" d="M87.7,47c0,.2,0,.4,0,.6.3,0,.6.2.8.4,0-.2.2-.5.4-1,0,0-.2,0-.2,0h-1c0,0,0,0,0,0Z"/><path class="cls-3" d="M87.7,47h1c0,0,0,0,0,0,0,0,.1,0,.2,0,.1-.4.3-.8.4-1.4h0c0-.4,0-.8,0-.9-.3,0-.8,0-1.5,0v1.1s0,0,0,0h0q0,0,0,0c0,.2,0,.6-.1,1.3Z"/><path class="cls-7" d="M87.9,45.7s0,0,0,0h0Z"/><path class="cls-3" d="M88.9,47c-.2.5-.3.9-.4,1,.2.2.4.6.5.9,0-.7.1-1.3.2-1.9-.1,0-.2,0-.3,0Z"/><path class="cls-3" d="M89,48.9c0,.6-.1,1.2-.2,1.8.2,0,.4,0,.6,0,0-.6-.2-1.1-.3-1.6,0,0,0-.2,0-.3Z"/><path class="cls-3" d="M89,48.9c0,0,0,.2,0,.3.1.5.2,1,.3,1.6,2.3.3,2-1.6,2.1-3.4-.5,0-1.6-.3-2.3-.4,0,.6-.1,1.2-.2,1.9Z"/><path class="cls-3" d="M88.9,47c0,0,.2,0,.3,0,0-.5,0-1,.1-1.4-.1.5-.3,1-.4,1.4Z"/><path class="cls-9" d="M92.2,137.5h-.3c.6,9.2.8,17.1.8,24.2h.1c1.5-1.5,2-4.6,2.8-6.9,1.8-5.4,5.5-8.5,9.7-12.9,5.6-5.9,12.2-10,9.5-17.3-1-1.6-2.6-5.3-4.5-9.6-2.3,1.8-4.5,3.7-6.7,5.5h0c-2,2.2-3.2,3.9-4.1,5.7-1,1.8-1.8,3.6-2.9,6-1,2.1-3.5,4.4-4.3,5.2Z"/><path class="cls-12" d="M98.1,124.4c.4.4,1,1.4,1.3,1.8,1-1.8,2.2-3.5,4.1-5.7h0c-1.8,1.4-3.5,2.7-5.4,3.9Z"/><path class="cls-1" d="M86,53.9c-.3,1.6-.8,3.5-1.2,5.4-.2.7-.4,1.5-.5,2.2-1.2,4.8-1.3,6.3-3.1,8.8-1.4,1.9-3.7,4.1-6,5.6-.3.2-.5.3-.8.5-3.5,2.3-7.4,4-11.1,3.3-2-.4-5.5-1.6-9.1-4.3-1.7-1.2-3.4-2.8-5-4.7"/><path class="cls-1" d="M73.8,59.1c-.5,4.4-6.9,4.1-9,2.6"/><path class="cls-1" d="M87.2,44.6c.2-3.2.3-6.5-.4-8.6-.5-1.6-3.8,3.4-4.8,2.1-1.6-2.1-2.7-7-5.8-8.2-2.6-.9-2,4.3-6,4.3-2.8,0-9.1-5.5-11.3-5-3.7.8-6.1,5.7-8.2,7.4-1,.8-3.2-5.4-3.9-4.5-3.3,4.5-3.1,11.2-2.7,15.1.2,2,.5,3.2.5,3.1-1.5-3.3-2-3.4-3.7-2.7-.3,0-.5.2-.8.3-.8.3-1.3.9-1.5,1.6-.7,2.2.8,5.7,1.5,7.4,1,2.6,3.2,3.3,4.4,2.6"/><path class="cls-1" d="M44.4,56.2c0,1,.1,2.1.3,3.3.8,4.6,3.1,9.9,4.5,11.3"/><path class="cls-1" d="M73.8,79.7c2.5.4,9.5,1,13.1,1.5.7,0,1.2.2,1.6.3,3.7.9,12.7,13.8,14.5,17.2,2.3,4.3,5,10.8,7.4,16.4,1.8,4.3,3.4,8,4.5,9.6"/><path class="cls-1" d="M19.6,126.7c.7-.6,1.8-1.7,1.9-1.9h0"/><path class="cls-1" d="M53.3,78c-2.2,0-16.1,2.4-18,3.1-.3.1-.7.3-1.1.5-4.1,2.1-10.8,7.4-13.1,10.3-6.4,7.9-10.6,14.4-13.3,19.6-6.7,12.8-4.4,17.8-4.4,17.8"/><path class="cls-1" d="M86.4,81.5c0,.1.2.3.3.4,1,1.6,1.8,3.6,2.5,5.7h0c1.3,4,2,8.5,2,12.7,0,7.1-.3,11.9-.4,17,0,3.6,0,7.3.4,12.1.3,2.8.5,5.5.7,8.1.6,9.1.8,17.1.8,24.2,0,3.4-.1,6.5-.2,9.5-.5.2-1,.4-1.6.7-3.3,1.4-9.5,4.2-27.3,4.2s-25.9-4.7-28.5-7.4c0,0,0,0,0,0"/><path class="cls-1" d="M35.5,108.5c1,2.1,1.3,12.6,1.6,14.5.2,2.1.3,18.1,0,22.6"/><path class="cls-1" d="M114.7,124.6c2.7,7.2-3.8,11.4-9.5,17.3-4.2,4.4-7.9,7.4-9.7,12.9-.8,2.4-1.3,5.4-2.8,6.9"/><path class="cls-1" d="M98.1,124.4c.4.4,1,1.4,1.3,1.8"/><path class="cls-1" d="M103.6,120.6c-2,2.2-3.2,3.9-4.1,5.7-1,1.8-1.8,3.6-2.9,6-1,2.1-3.5,4.4-4.3,5.2"/><path class="cls-1" d="M3.4,129.4c2.9,7.8,16.5,19.3,19.3,23.2"/><path class="cls-1" d="M29.9,143.4c-2.5-4.8-6.4-9.2-8.4-13.3-.7-1.4-1.3-2.5-1.9-3.5-1.8-2.8-3.6-4.3-7.4-6.3"/><path class="cls-1" d="M38.6,148.7c.5.6,1.4,1.4,2.3,2.3,2.1,2.1,3.9,4.7-.7,5.8.9,2.2-.7,3.7-2.1,3.9,1.4,1.7-1.1,3-2.3,3,0,.2,0,.3,0,.5,0,.2,0,.4,0,.5-.9,2.9-7.5-1-9-2.4-2.2-2.1-5.5-6.6-4.1-9.6"/><path class="cls-1" d="M29.6,143.6c0,0,.2,0,.3,0,1.9.5,4.8,1,7.2,1.9,2.6,1,4.5,2.6,3.9,5.4,0,0,0,0,0,0"/><path class="cls-1" d="M91,172c.9,8.6,1,10.1,1.6,16.4,1.1,11.2,4.2,80.3,4.2,96-7.6,7.1-10.7,6.3-25.2,2.3,0-5.6-8-89.7-8-96.4h0"/><path class="cls-1" d="M64.6,184.9c-.3,1.1-.7,2.9-1.1,5.4-3.6,20.7-10.7,84.3-11.9,97.9-7.4,2.4-21-1.1-23.2-4.8,0,0-.7-71.9,6.6-114.7.2-1.4.5-2.7.7-4,0-.2,0-.3,0-.5"/><path class="cls-1" d="M73.8,79.7c-.2,1.3-.6,2.3-1.2,3.2-2.3,3.7-6.7,3.8-6.7,3.8-.4.5-7,1.2-10.8-4.8-.7-1.1-1.3-2.4-1.8-3.9"/><path class="cls-1" d="M53.3,75.8c0,2,0,1.6,0,2.2v.3"/><path class="cls-1" d="M74.4,76.3s0,0,0,.1c-.5,1.5-.3,1.8-.7,3.3"/><path class="cls-1" d="M74.1,67.2c-5.3,1.7-8.9,2.1-14.1-.9"/><path class="cls-2" d="M89.4,50.8c.3,3-.7,6.9-4.6,8.6,0,0,0,0,0,0"/><path class="cls-1" d="M40,47.9c-.1-.6-.2-1.3-.3-2.2-.7-6.6-.4-20.9,5.9-26.7,6.5-6,20.1-10,31.3-4.9,16.6,7.6,14.3,24.9,12.5,31.4"/><path class="cls-1" d="M34.2,81.7s0,0,0,0c1.8.3,4.5,1.6,5.8,4.4.1.3.2.5.3.8,1.2,3.9.9,12-.8,15.1-.7,1.2-2.2,3.6-4.1,6.4-4.8,6.9-11.7,16.3-12.3,16.5-.4.2-1,0-1.5-.1-1.4-.5-3.1-2-4.1-2.7-3.6-2.8-6.4-5.4-9.6-10.5"/><path class="cls-1" d="M90.9,117.3c1,1.7,4,6.6,5,8.3.8-.4,1.5-.8,2.2-1.2,1.9-1.1,3.7-2.5,5.4-3.9,2.3-1.8,4.5-3.7,6.7-5.5,0,0,.1,0,.2-.1"/><path class="cls-1" d="M83.8,43.5c-2.9.3-7.6-.2-9.4.2"/><path class="cls-1" d="M59.8,43.5c-2.1,0-8.2.5-9.8.2"/><path class="cls-1" d="M60,43.5h-.1"/><path class="cls-1" d="M78.6,47.7c-.2.3-.4.8-.4,1.3s.1,1,.3,1.3c.1.2.3.3.5.3.4,0,.8-.7.8-1.6s-.4-1.6-.8-1.6-.3.1-.5.3Z"/><path class="cls-1" d="M56.5,47.6c-.2.3-.4.8-.4,1.5s.1,1,.3,1.3c.1.2.3.4.5.4.5,0,.8-.8.8-1.7s-.4-1.7-.8-1.7-.3,0-.4.2Z"/><path class="cls-1" d="M83.8,43.5c-.5-1.4-1.1-2.5-3.5-2.5s-6.6,1.1-5.9,2.7"/><path class="cls-1" d="M59.6,43.4c0,0,.2,0,.2,0h0c0,0,.1,0,.2,0,.3,0,.3-.4.5-1.1-1.5-.8-6.4-2.1-8-1.2-.6.4-2.4,1.1-2.5,2.4,0,.1,0,.3,0,.5"/><path class="cls-2" d="M87.9,45.8h0c0,0,0,0,0,0,0,.2,0,.6-.1,1.3,0,.2,0,.4,0,.6,0,.8-.2,1.9-.3,2.7-.2,1.3-.4,2.3-.5,2.3-.2,0-.3,0-.5,0-2.6,0-5.7,0-8.5,0-1.7,0-3.2,0-4.5-.1-.5-2.5-.7-4.3-1-7.2,1.2,0,3.3.1,5.6.2,3.5,0,7.4.2,9.2.2.3,0,.6,0,.8,0h0"/><path class="cls-2" d="M89.4,44.7c0,.1,0,.5,0,.9h0c0,.4,0,.9-.1,1.4,0,.6-.1,1.2-.2,1.9,0,.6-.1,1.2-.2,1.8-.2,1.8-.4,3.2-.6,3.2-.7,0-1.4,0-2.2,0-4.8,0-10.3,0-14-.2-.4-2.1-.6-3.8-.9-5.8,0-.7-.2-1.4-.2-2.2,0-.5-.1-1.1-.2-1.7,3.3.2,12.1.4,16.5.5.3,0,.5,0,.7,0,.7,0,1.2,0,1.5,0"/><path class="cls-2" d="M89.4,44.7c0,0,0-.1,0,0"/><path class="cls-2" d="M48.5,46h0"/><path class="cls-2" d="M48.5,46c0,.8.7,7.2,1.1,7.2,4.5.1,10.3,0,14.1-.1.5-2.6.8-4.5,1.1-7.5-3.6.2-14.5.4-16.2.4Z"/><path class="cls-2" d="M48.5,45.9h0s0,0,0,0"/><path class="cls-2" d="M48.5,46s0,0,0,0"/><path class="cls-2" d="M46.8,44.7h0s0,0,0,.1c0,.2,0,.9.2,1.8.1,1.1.2,2.5.4,3.9.2,2.1.5,3.9.7,3.9,5.4.1,12.4,0,16.9-.1.4-2.4.7-4.3,1-6.5,0-.7.1-1.4.2-2.1,0-.5,0-.9.1-1.4-1.4,0-3.7.2-6.3.3-3.4.1-7.3.2-10,.3-1.5,0-2.7,0-3.2,0h0"/><path class="cls-2" d="M46.8,44.8c0,0,0,0,0,0"/><path class="cls-2" d="M47,46.7c-1.1.6-2,.7-2.9.6-1.5-.2-2.8-1.2-4.4-1.6-.4-.1-.9-.2-1.4-.1-.8,1.3-.5,2.3.2,4"/><path class="cls-2" d="M47.4,50.5c-1.6.5-2.7.9-3.9,0-1.1-.8-1.3-2.7-2.5-2.8"/><path class="cls-2" d="M88.7,47c0,0,.1,0,.2,0,0,0,.2,0,.3,0,.7,0,1.8.3,2.3.4-.2,1.8.2,3.6-2.1,3.4-.2,0-.4,0-.6,0-.3,0-.6-.1-1-.3"/><path class="cls-2" d="M70.6,45.8c-1.5,0-3,0-4.4-.1h0"/><path class="cls-2" d="M71.1,48c-1.7,0-3.4-.2-5.1-.2,0,0-.2,0-.2,0"/><path class="cls-1" d="M54.8,82.1c-5.6.1-10.6.9-14.8,4"/><path class="cls-1" d="M72.9,82.9c6.2.9,10.6,1.8,16.2,4.7"/><path class="cls-1" d="M74.3,123.4c0,2.7-.9,4.8-2.4,6.2-1.6,1.4-3.8,2-6.5,2-3.4,0-6.2-1.8-8.4-5.2l4.3-3.2c1.2,2.1,2.7,3.1,4.3,3.2,1.8,0,2.8-1,2.8-3,0-1.3-.2-2.2-.7-2.7-.5-.5-1.3-.8-2.5-.8h-2.2s0-5.1,0-5.1h2.2c1.8,0,2.7-.9,2.7-2.7,0-1.7-.7-2.6-2.2-2.6-1.3,0-2.7.8-4.1,2.6l-3.9-3.5c2.2-2.9,5-4.3,8.3-4.3,2.5,0,4.5.7,5.9,1.9s2.1,2.9,2,5.1c0,2.8-1.2,4.7-3.3,5.8,2.6.9,3.8,3,3.8,6.4Z"/><path class="cls-1" d="M47.9,301.9c-3.4,6.4-4.4,7-20.4,7s-8,.3-8.2-6.5c-.1-4.2,12.4-13.5,12.7-15.7l.2-.4c4.1,1.9,10.5,3.1,15.7,2.7.6,1.3.4,4.8.5,7.8.1,3,.2,3.8-.5,5Z"/><path class="cls-1" d="M97.7,308.8c-16.9.9-18-.3-21.6-5.9-.7-1.1-.6-1.8-.5-4.4.1-2.6,1.3-8.5,1.9-9.7v-.2c7.4,1.9,11,2,15.2-.8,0,3.2,13.3,10.5,13.2,14.2-.2,5.9,2.3,6.2-8.2,6.8Z"/></svg>