<?xml version="1.0" encoding="UTF-8"?><svg id="asia" xmlns="http://www.w3.org/2000/svg" width="235" height="321.9" viewBox="0 0 235 321.9"><defs><style>.cls-1{stroke-linecap:round;stroke-linejoin:round;}.cls-1,.cls-2{fill:none;stroke:#000;}.cls-2{stroke-miterlimit:10;}.cls-3,.cls-4,.cls-5,.cls-6,.cls-7,.cls-8,.cls-9{stroke-width:0px;}.cls-4{fill:#4a62ba;}.cls-5{fill:#2b388d;}.cls-6{fill:#878586;}.cls-7{fill:#e0bfa9;}.cls-8{fill:#332628;}.cls-9{fill:#fff;}</style></defs><path class="cls-9" d="M51.3,120.4c-3.7-.6-11,1-14.2,3.1h0c3.1-.3,4.6,1.6,5.2,4.3,3.3-1.3,6.7-2.2,10.1-2.8h.8c-.7-1-1.3-2.1-1.9-3.5.1-.2.2-.6.4-1h-.3Z"/><path class="cls-8" d="M44.4,84.5c4-2.1,7.6-4.9,10.6-8.4l-1.8,5.1c5-.9,9.8-3.1,13.7-6.5-.3,1.6-.6,3.2-.9,4.8,5.6-.8,10.9-4.1,14-9,2.5,5.7,2.3,22.5,2.2,25.2,0,1.2-.2,2.4-.5,3.8-1,4.7-2.3,7.4-5.7,10.5-2.5,2.3-4.6,4.3-6.9,5.6,0,.3,0,1.3.2,2.3,7.6.3,15.2-1.5,22.1-4.6-10.6-2.5.6-20.3-5.3-37.8-1.8-5.4-3.2-11.2-7.5-14.7-4.3-3.5-13.9-4-19.4-3.9-7.9.2-18.7,6.8-20.7,14.7-6.7,26.1,4.5,38.2-9.1,41,6.2,4.3,15.3,5.7,22.7,4.9.3-1.6.4-3.4.4-4.6-1.3-1-2.8-2.1-4.3-3.5h0c-1.8-2-5.1-4.8-6.3-9.6,0-4.4.5-10.2,2.3-15.2Z"/><path class="cls-6" d="M84,190.9c-8.5,5.1-33.1,5.2-42.9,1.8,0,0-.1.1-.2.2-1.7,10.2-6.3,39.8-6.3,39.8.8.8,2.5,1.8,4.4,2.7,2.3,1.1,4.8,2,6,2.3,4.5,1.1,7.5.7,11.2,0,.2,0,.4,0,.6-.1,1-.2,2.1-.4,3.3-.7h0c0-.4.7-11.1,1.6-19.2h.1c.5,6.1,2.1,12.2,3.3,18.1,2.3.8,4.4,1.4,6.4,1.8,6.6,1.2,11.8-.1,16.2-2.3.7-.4,1.4-.8,2.1-1.2-.9-7.6-4.2-31.4-5.5-40.1-.2-1.5-.4-2.6-.5-3Z"/><path class="cls-9" d="M71.2,104.4l.3-.3c-4.6,2.4-15.6-.7-16.5-1.9,1.9,3.5,2.6,3.9,4.2,5.2,1.7,1.3,5,1.7,6.7,1.4,2.7-.5,4-1.9,5.2-4.5Z"/><path class="cls-3" d="M74.8,85.7c-.8,0-1.4,1.2-1.4,2.6s.6,2.6,1.4,2.6,1.4-1.2,1.4-2.6-.7-2.6-1.4-2.6Z"/><path class="cls-7" d="M25,159.9h0c.4-.4,1.2-1.2,2.2-2.2h0c-2-4.4-6.6-5.8-10.6-8.3h0c-1.5,2.3-2.8,4.3-3.4,5.4-2.6,4.8,1.6,13.8,5,17.9,2.5,3,8.3,7.9,10.6,11.3-1.1,2.6,1.6,6.5,3.3,8.3,1.3,1.3,7.6,5.2,7.4,1.3.4,0,1.1-.2,1.6-.6.1-.8.2-1.5.3-2,1.1-.2,2.4-1.5,1.7-3.4,3.8-.9,2.3-3.2.6-5,.5-2.4-1-3.5-2.9-4.1-.7-.2-1.4-.4-2.2-.5-1.2-.2-2.5-.4-3.5-.7-4.3-5.3-5.7-9.3-7.3-12.7-1-2.1-1.7-3.5-2.7-4.7Z"/><path class="cls-9" d="M47.6,296.3c-.1-3.5.5-10.9,1.3-16h0c-4.2,0-8.3-.4-12.5-1.2h-.3c0,4.6.1,9.5,0,14h0c2.4-.2,4.6.2,6.4.6,2.5.6,3.8.9,5.1,2.6h0Z"/><path class="cls-3" d="M55.2,85.4c-.8,0-1.4,1.2-1.4,2.7s.7,2.7,1.4,2.7,1.4-1.2,1.4-2.7-.6-2.7-1.4-2.7Z"/><path class="cls-7" d="M71.7,237.6c.7,1.6.4,3.7,1.1,5.7-2.5,6.9,1.2,15.5,2.5,20.8,1.3,4.9,2.6,10,3.8,14.8h0c4.1,1,8.6.6,12.5-1-.7-9-1.5-19.2-1.3-21,.3-4.4-.2-9.2-2.3-14.2,0-2.3-.2-5.1-.1-7.5-4.4,2.2-9.6,3.5-16.2,2.3Z"/><path class="cls-7" d="M52.2,117.4c-.2,1.2-.4,2.3-.6,3.1-.1.4-.2.7-.4,1,.6,1.4,1.2,2.5,1.9,3.5,2.3,3.2,5.2,4.4,9,4.2,4-.3,6-2.3,7.1-4.8.6-1.3.9-2.7,1.1-4.1h1.4c-1.3-.4-2.2-.7-2.3-.7,0-.2,0-.9-.2-1.7,0-1-.2-2-.2-2.3-4.3,2.6-8.8,2.7-16.5-2.9,0,1.2-.2,3-.4,4.6Z"/><path class="cls-4" d="M40.3,142c.5,3,1,12.5.9,16.4,0,3.9-.2,16.2-.5,20.1,1.9.6,3.4,1.7,2.9,4.1,1.7,1.8,3.2,4.1-.6,5,.7,1.9-.6,3.2-1.7,3.4.5.7.3,1.4-.1,1.8,9.8,3.4,34.4,3.3,42.9-1.8.9-.4-.6-7.1-2-14-1.3-6.4-2.6-13-2-15,.4-1.4,1.7-10.2,2.2-16.9.1-1.7.2-3.2.2-4.4,0-4.2-.8-8.4-1.7-12.5h-.3c-3.3-1.9-7.1-3.1-10.9-3.7h-.2c-1.1,2.5-3.1,4.5-7.1,4.8-3.8.2-6.7-1-9-4.2h-.8c-3.5.6-6.9,1.5-10.1,2.8,1.1,4.8-.9,12.3-2.1,14.1,0,0,0,0,0,0h.2ZM72.3,166.6h-17.5c.1-4.1.9-7.3,2.2-9.8,1.2-2.1,3.2-4.1,6-6.2,1.1-.8,1.9-1.5,2.3-2.1.4-.6.6-1.3.6-2s-.2-1.2-.6-1.6-.9-.6-1.4-.6c-.9,0-1.6.2-2.2.6-.7.4-1.6,1.2-2.6,2.5l-4.3-3.5c1.3-1.7,2.6-2.9,3.9-3.7,1.5-.9,3.2-1.3,5.3-1.3s4.6.6,6,1.9c1.4,1.3,2.1,3,2.1,5.2s-.3,3.1-1,4.2c-.7,1.3-2,2.6-3.8,3.9-2,1.5-3.4,2.7-4.3,3.8-.8,1-1.2,2.1-1.4,3.2h10.7v5.4Z"/><path class="cls-5" d="M82.4,145c1,1.3,2.8,7.1,5,11.4h0c.3-.2.7-.4,1-.6,3.4-1.8,7.1-3.7,9.6-6.6-2-4.2-4.1-8.8-5-10.5-1.3-2.9-5.3-10.7-6.1-12.1-1-1.4-4.1-2.9-7.4-4.1.3,1.8.7,3.6,1.1,5.4.9,4.2,1.7,8.3,1.7,12.5s0,2.8-.2,4.4h.3Z"/><path class="cls-6" d="M24.6,300.6c-.3,1.2-.2,6.3.6,7.2.9,1,2.5,1.1,4,1.2,4.5,0,9,.1,13.5,0,1.6,0,4.8.2,5.9-.9,1.4-1.4.5-9.5-.5-11.1-.2-.3-.3-.5-.5-.7-1.3-1.7-2.6-2-5.1-2.6-1.8-.4-4-.8-6.4-.5-1.5.2-3,.6-4.5,1.5-2.3,1.1-6.3,3.6-6.9,6Z"/><path class="cls-5" d="M42.2,127.8c-.6-2.7-2.1-4.5-5.2-4.2h0c-.1,0-.2.2-.3.2-3.8,2.7-8.5,8.9-8.8,9.3h0c-2.8,3.6-7.9,10.9-11.5,16.3h0c4,2.5,8.6,4,10.6,8.3h0c1.8-1.8,4-4.1,4.7-4.9,3.1-3.5,6.4-8,8.2-10.9,0,0,0,0,0,0,1.2-1.8,3.2-9.3,2.1-14.1Z"/><path class="cls-7" d="M39.1,235.5c-.5,3.7.4,8.4-.2,11.6-.5,2.8-2.5,7-2.9,10.1-.5,4.6-.2,12.9,0,21.9h.3c4.1.7,8.3,1.1,12.5,1.1h0c.2-1.6.5-3,.7-3.9,1.4-6.6,3.9-16.1,4.4-22.7.2-2.9-.4-5.6-.4-8.5,0-1.3,2-4.6,2.9-7.3-3.8.8-6.8,1.2-11.2,0-1.2-.3-3.7-1.2-6-2.3h0Z"/><path class="cls-9" d="M54.8,166.6h17.5v-5.4h-10.7c.2-1.2.7-2.3,1.4-3.2.9-1.1,2.3-2.4,4.3-3.8,1.8-1.3,3.1-2.6,3.8-3.9.7-1.2,1-2.6,1-4.2s-.7-3.9-2.1-5.2c-1.4-1.3-3.4-1.9-6-1.9s-3.8.4-5.3,1.3c-1.3.8-2.6,2-3.9,3.7l4.3,3.5c1-1.2,1.8-2,2.6-2.5.6-.4,1.4-.6,2.2-.6s1.1.2,1.4.6.6.9.6,1.6-.2,1.4-.6,2c-.4.6-1.2,1.3-2.3,2.1-2.8,2-4.8,4.1-6,6.2-1.4,2.5-2.1,5.7-2.2,9.8Z"/><path class="cls-9" d="M69.2,124.3h.2c3.8.5,7.5,1.8,10.9,3.8h.3c-.4-1.9-.8-3.7-1.1-5.5-2.8-1-5.8-1.9-7.7-2.4h-1.4c-.2,1.4-.5,2.9-1.1,4.2Z"/><path class="cls-6" d="M80.8,296.6c-.9,1.7-.7,10.4,1,11.4,1.2.7,14.5.6,18.6.4.4,0,3.1-.4,4.2-1.1,1.1-.8.7-7.7,0-8.9-1.5-2.9-7.6-5.3-10.9-6.1,0,0-.3.2-.8.2-2,.3-7.1.4-8.7.8-1.2.3-1.9.8-2.5,1.6-.4.5-.7,1.1-1.1,1.8Z"/><path class="cls-7" d="M82.3,176.9h-.3c1.4,7,2.9,13.6,2,14.1,0,.5.3,1.5.5,3h.1c2.6-2.1,3-6.1,3.6-8.1.4-1.4.2-1.2.9-2.3,1.6-2.6,4.6-6.1,7-8.8,4.6-5.1,9.7-11.1,5.7-17.5-.7-1.1-2.2-4.4-3.9-7.9-2.4,2.9-6.2,4.8-9.6,6.6,1.8,3.4,3.3,6.2,3.5,5.9l.2.2c-1.4,2-2.2,4.2-3.4,6.6-.9,1.8-1.9,3.1-3.1,4.7-.8,1-3.5,3.5-3.5,3.7Z"/><path class="cls-7" d="M66.9,74.7c-3.9,3.3-8.7,5.6-13.7,6.5l1.8-5.1c-3,3.4-6.6,6.3-10.6,8.4-1.8,5-2.3,10.7-2.3,15.2,1.1,4.9,4.5,7.7,6.3,9.6h0c1.5,1.4,3,2.5,4.3,3.5,7.6,5.6,12.2,5.5,16.5,2.9,2.2-1.4,4.4-3.4,6.9-5.6,3.4-3.1,4.7-5.9,5.7-10.5.3-1.3.4-2.6.5-3.8.1-2.7.3-19.5-2.2-25.2-3.1,4.9-8.4,8.3-14,9,.3-1.6.6-3.2.9-4.8ZM53.7,88c0-1.5.7-2.7,1.4-2.7s1.4,1.2,1.4,2.7-.6,2.7-1.4,2.7-1.4-1.2-1.4-2.7ZM59.3,107.4c-1.6-1.3-2.3-1.7-4.2-5.2.9,1.2,11.9,4.3,16.5,1.9l-.3.3c-1.2,2.6-2.4,4-5.2,4.5-1.7.3-5.1-.1-6.7-1.4ZM73.4,88.3c0-1.4.6-2.6,1.4-2.6s1.4,1.2,1.4,2.6-.7,2.6-1.4,2.6-1.4-1.2-1.4-2.6Z"/><path class="cls-9" d="M79.2,279c1.5,6.1,2.6,11.7,2.6,15.8h0c.6-.7,1.3-1.3,2.5-1.6,1.6-.4,6.8-.5,8.7-.8v-.3c-.3-1.3-.8-7.4-1.4-14.1-3.9,1.6-8.4,1.9-12.5,1h0Z"/><path class="cls-2" d="M48.4,109.3c-.1-.1-.3-.2-.4-.3"/><path class="cls-2" d="M82.1,95.7c0,1.2-.2,2.4-.5,3.8-1,4.7-2.3,7.4-5.7,10.5-2.5,2.3-4.6,4.3-6.9,5.6-4.3,2.6-8.8,2.7-16.5-2.9-1.3-1-2.8-2.1-4.3-3.5"/><path class="cls-2" d="M42.1,99.6c1.1,4.9,4.5,7.7,6.3,9.6h0c0,0,.1.1.2.2"/><path class="cls-2" d="M69.5,119.6c0-.2,0-.9-.2-1.7,0-1-.2-2-.2-2.3"/><line class="cls-2" x1="25" y1="159.9" x2="25" y2="159.9"/><line class="cls-2" x1="34.7" y1="177.2" x2="34.6" y2="177.3"/><line class="cls-2" x1="38.5" y1="177.6" x2="38.5" y2="178"/><line class="cls-2" x1="82.5" y1="145" x2="82.4" y2="145"/><line class="cls-2" x1="92.3" y1="162" x2="92.1" y2="161.8"/><path class="cls-2" d="M70.3,120.3c-.2,1.3-.5,2.8-1.1,4.1-1.1,2.5-3.1,4.5-7.1,4.8-3.8.2-6.7-1-9-4.2-.7-1-1.3-2.1-1.9-3.5"/><path class="cls-2" d="M87,126.7c.8,1.4,4.8,9.1,6.1,12.1"/><path class="cls-2" d="M69.5,119.6c0,0,.9.3,2.3.6,2,.5,4.9,1.4,7.7,2.4,3.3,1.2,6.4,2.7,7.4,4.1"/><path class="cls-2" d="M51.3,120.4c-3.7-.6-11,1-14.2,3.1-.1,0-.2.2-.3.2-3.8,2.7-8.5,8.9-8.8,9.3h0"/><path class="cls-2" d="M79.5,122.5s0,0,0,.1c.3,1.8.7,3.6,1.1,5.4.9,4.2,1.7,8.3,1.7,12.5s0,2.8-.2,4.4c-.5,6.7-1.7,15.5-2.2,16.9-.6,1.9.7,8.5,2,15,1.4,6.9,2.9,13.6,2,14"/><path class="cls-2" d="M40.3,142c.5,3,1,12.5.9,16.4,0,3.9-.2,16.2-.5,20.1"/><path class="cls-2" d="M89.2,183.6c-.7,1.1-.5.9-.9,2.3-.6,2-1,6-3.6,8.1"/><path class="cls-2" d="M93.1,138.8c.9,1.6,3,6.2,5,10.5,1.6,3.5,3.2,6.8,3.9,7.9,4,6.4-1.1,12.4-5.7,17.5-2.4,2.7-5.4,6.2-7,8.8"/><path class="cls-2" d="M88.5,155.9h0c1.8,3.4,3.3,6.2,3.5,5.9,0,0,0,0,0,0"/><path class="cls-2" d="M82.4,145c1,1.3,2.8,7.1,5,11.4,0,0,0,0,0,.1"/><path class="cls-2" d="M95.9,158.4c-1.5,1.1-2.7,2.3-3.6,3.6-1.4,2-2.2,4.2-3.4,6.6-.9,1.8-1.9,3.1-3.1,4.7-.8,1-3.5,3.5-3.5,3.7s0,0,0,0"/><path class="cls-2" d="M37.1,123.5c3.1-.3,4.6,1.6,5.2,4.2,1.1,4.8-.9,12.3-2.1,14.1,0,0,0,0,0,0-1.8,2.9-5,7.3-8.2,10.9-.7.8-3,3.1-4.7,4.9-1,1-1.8,1.8-2.2,2.2"/><path class="cls-2" d="M28,133s0,0,0,0c-2.8,3.6-7.9,10.8-11.5,16.3-1.5,2.3-2.8,4.3-3.4,5.5-2.6,4.8,1.6,13.8,5,17.9,2.5,3,8.3,7.9,10.6,11.3"/><path class="cls-2" d="M35.2,177.6c0,0-.2-.2-.2-.3-4.3-5.3-5.7-9.3-7.3-12.7-1-2.1-1.7-3.5-2.7-4.7-1.2-1.4-2.6-2.5-4.9-3.8"/><path class="cls-2" d="M41.7,180.6c.4.5,1.2,1.2,1.9,2,1.7,1.8,3.2,4.1-.6,5,.7,1.9-.6,3.2-1.7,3.4.5.7.3,1.4-.1,1.8,0,0-.1.1-.2.2-.5.4-1.1.6-1.6.6.2,4-6.1,0-7.4-1.3-1.8-1.8-4.5-5.7-3.3-8.3"/><path class="cls-2" d="M34.7,177.2c.1,0,.2,0,.3.1,1,.3,2.2.4,3.5.7.8.1,1.5.3,2.2.5,1.9.6,3.4,1.7,2.9,4.1,0,0,0,0,0,0"/><path class="cls-2" d="M70.3,97.4c-1.4,3.6-5.4,3.5-8.3,1.6"/><path class="cls-2" d="M73.4,88.3c0,1.4.6,2.6,1.4,2.6s1.4-1.2,1.4-2.6-.7-2.6-1.4-2.6-1.4,1.2-1.4,2.6Z"/><path class="cls-2" d="M56.6,88c0,1.5-.6,2.7-1.4,2.7s-1.4-1.2-1.4-2.7.7-2.7,1.4-2.7,1.4,1.2,1.4,2.7Z"/><path class="cls-2" d="M71.6,104.1c-4.6,2.4-15.6-.7-16.5-1.9,1.9,3.5,2.6,3.9,4.2,5.2,1.7,1.3,5,1.7,6.7,1.4,2.7-.5,4-1.9,5.2-4.5"/><line class="cls-2" x1="71.2" y1="104.4" x2="71.6" y2="104.1"/><path class="cls-2" d="M41.2,192.8c9.8,3.4,34.4,3.3,42.9-1.8"/><path class="cls-2" d="M44.7,83.5c-.1.3-.2.6-.4,1-1.8,5-2.3,10.7-2.3,15.2"/><path class="cls-2" d="M82.1,95.7c.1-2.7.3-19.5-2.2-25.2"/><path class="cls-2" d="M91.4,113.2c-10.6-2.5.6-20.3-5.3-37.8-1.8-5.4-3.2-11.2-7.5-14.7-4.3-3.5-13.9-4-19.4-3.9-7.9.2-18.7,6.8-20.7,14.7-6.7,26.1,4.5,38.2-9.1,41"/><path class="cls-2" d="M52.7,112.5c0,0,0,.2,0,.3,0,1.2-.2,3-.4,4.6-.2,1.2-.4,2.3-.6,3.1-.1.4-.2.7-.4,1"/><line class="cls-2" x1="57.1" y1="238" x2="57" y2="237.6"/><path class="cls-2" d="M62,217.7c.5,6.1,2.1,12.2,3.3,18.1,2.3.8,4.4,1.4,6.4,1.8,6.6,1.2,11.8-.1,16.2-2.3.7-.4,1.4-.8,2.1-1.2-.9-7.6-4.2-31.4-5.5-40.1-.2-1.5-.4-2.6-.5-3"/><path class="cls-2" d="M60.3,237h0c-1.2.2-2.3.4-3.3.6-.2,0-.4,0-.6.1-3.8.8-6.8,1.2-11.2,0-1.2-.3-3.7-1.2-6-2.3-1.9-.9-3.7-1.9-4.4-2.7,0,0,4.6-29.6,6.3-39.8.1-.8.2-1.5.3-2"/><path class="cls-2" d="M62.8,211.3c-.3,1.7-.7,3.9-1,6.4-.9,8.2-1.5,18.9-1.6,19.3"/><path class="cls-2" d="M66.2,208.2c-1.8,1.7-2.4,2.1-3.3,3.1"/><path class="cls-2" d="M16.6,149.4c4,2.5,8.6,4,10.6,8.3"/><path class="cls-2" d="M98.1,149.2s0,0,0,0c-2.4,2.9-6.2,4.8-9.6,6.6-.3.2-.7.4-1,.5"/><path class="cls-2" d="M29.5,112.5c6.2,4.3,15.3,5.7,22.7,4.9,0,0,.1,0,.2,0"/><path class="cls-2" d="M69.3,117.9c7.6.3,15.2-1.5,22.1-4.6"/><path class="cls-2" d="M80,70.5c-3.1,4.9-8.4,8.3-14,9,.3-1.6.6-3.2.9-4.8-3.9,3.3-8.7,5.6-13.7,6.5l1.8-5.1c-3,3.4-6.6,6.3-10.6,8.4-1.4.7-2.8,1.3-4.2,1.9.4-.2.7-.3,1.1-.5"/><path class="cls-2" d="M70.7,81.9c2-.8,7.2-.5,9.3,0"/><path class="cls-2" d="M57.9,82.3c-2-.2-4.7-1.1-8.6.8"/><path class="cls-1" d="M88,235.1c0,0,0,.1,0,.2,0,2.4.2,5.2.1,7.5,2.1,5,2.6,9.9,2.3,14.2-.1,1.8.6,12,1.3,21,.5,6.8,1.1,12.9,1.3,14.1"/><path class="cls-1" d="M71.7,237.6s0,0,0,0c.7,1.6.4,3.7,1.1,5.7-2.5,6.9,1.2,15.5,2.5,20.8,1.3,4.9,2.6,10,3.8,14.8,1.5,6.1,2.6,11.7,2.6,15.8"/><path class="cls-1" d="M56.5,237.5c0,0,0,.1,0,.2-.9,2.7-2.9,6-2.9,7.3,0,2.8.6,5.6.4,8.5-.5,6.7-2.9,16.2-4.4,22.7-.2,1-.4,2.3-.7,4-.7,5.1-1.4,12.5-1.3,16"/><path class="cls-1" d="M39.1,235.5c-.5,3.7.4,8.4-.2,11.6-.5,2.8-2.5,7-2.9,10.1-.5,4.6-.2,12.9,0,21.9,0,4.6.1,9.5,0,14"/><path class="cls-1" d="M31.5,294.6c-2.3,1.1-6.3,3.6-6.9,6-.3,1.2-.2,6.3.6,7.2.9,1,2.5,1.1,4,1.2,4.5,0,9,.1,13.5,0,1.6,0,4.8.2,5.9-.9,1.4-1.4.5-9.5-.5-11.1-.2-.3-.3-.5-.5-.7-1.3-1.7-2.6-2-5.1-2.6-1.8-.4-4-.8-6.4-.5-1.5.2-3,.6-4.5,1.5"/><path class="cls-1" d="M36.3,279.1c4.1.7,8.3,1.1,12.5,1.1"/><path class="cls-1" d="M79.2,279c4.1,1,8.6.6,12.5-1,.1,0,.2,0,.3-.1"/><path class="cls-2" d="M42,127.8h.2c3.3-1.4,6.7-2.3,10.1-2.9,0,0-.2,0-.3,0"/><path class="cls-2" d="M69.4,124.4c3.8.5,7.5,1.8,10.9,3.8"/><path class="cls-1" d="M72.3,166.6h-17.5c.1-4.1.9-7.3,2.2-9.8,1.2-2.1,3.2-4.1,6-6.2,1.1-.8,1.9-1.5,2.3-2.1.4-.6.6-1.3.6-2s-.2-1.2-.6-1.6-.9-.6-1.4-.6c-.9,0-1.6.2-2.2.6-.7.4-1.6,1.2-2.6,2.5l-4.3-3.5c1.3-1.7,2.6-2.9,3.9-3.7,1.5-.9,3.2-1.3,5.3-1.3s4.6.6,6,1.9c1.4,1.3,2.1,3,2.1,5.2s-.3,3.1-1,4.2c-.7,1.3-2,2.6-3.8,3.9-2,1.5-3.4,2.7-4.3,3.8-.8,1-1.2,2.1-1.4,3.2h10.7v5.4Z"/><path class="cls-1" d="M93.8,292.2c0,0-.3.2-.8.2-2,.3-7.1.4-8.7.8-1.2.3-1.9.8-2.5,1.6-.4.5-.7,1.1-1.1,1.8-.9,1.7-.7,10.4,1,11.4,1.2.7,14.5.6,18.6.4.4,0,3.1-.4,4.2-1.1,1.1-.8.7-7.7,0-8.9-1.5-2.9-7.6-5.3-10.9-6.1"/></svg>