<?xml version="1.0" encoding="UTF-8"?><svg id="asia" xmlns="http://www.w3.org/2000/svg" width="235" height="321.9" viewBox="0 0 235 321.9"><defs><style>.cls-1{stroke-linecap:round;stroke-linejoin:round;}.cls-1,.cls-2{fill:none;stroke:#000;}.cls-2{stroke-miterlimit:10;}.cls-3,.cls-4,.cls-5,.cls-6,.cls-7,.cls-8,.cls-9,.cls-10,.cls-11{stroke-width:0px;}.cls-4{fill:#2f4b57;}.cls-5{fill:#3a3f45;}.cls-6{fill:#3d8e3d;}.cls-7{fill:#1a2636;}.cls-8{fill:#cbaa99;}.cls-9{fill:#fff;}.cls-10{fill:#052936;}.cls-11{fill:#67b96a;}</style></defs><path class="cls-5" d="M218.4,207.5c2.7,1.1,3.2,4.9,1.7,7.5-1.5,2.6-4.2,4.4-7,5.8-8.3,4.4-17.2,7.5-26,10.5-1.1.4-2.3.7-3.2.2h-.4c-.3-5.5,3.7-16.3,7.3-22,8.2-.7,15.3-1.6,23.5-2.3,1.4-.1,2.9-.2,4.2.3Z"/><path class="cls-10" d="M123.3,208.5c-8.8-1.1-29.6-4.6-38.6-6.5-2.3-.6-4.2-1.2-5.3-1.6-4.8-2.4-11.3-9.1-11.6-21.1,0-1.3,0-2.7.1-4.2,1.6-10.1,15.9-6.7,33.1-3,8.5,1.9,10.8,4,15.1,5,.3,0,.7.1,1,.2,4.2,1.3,9.8,3.1,12.7,4.3,1.4.6,63.9,24.3,63.5,24.6-.7.7-1.5,1.7-2.4,3.1-3.5,5.7-7.6,16.5-7.3,21.9,0,.3-56.7-22.5-58.7-22.7-.4,0-.9-.1-1.5-.2Z"/><path class="cls-7" d="M102.8,41.6c-.2-5.1,9.5-3.1,13.6-2.5,11.7,1.9,19.5,8.9,22.8,20.3,3.3,11.4.4,24.1-6.7,33.6-.3.4-.7.9-1.2,1.1-1,.3-2.1-.6-2.3-1.7s.1-2.1.4-3.2c.4-1.5.5-3.1.4-4.6-.1-4.7-2-9.4-4.6-13.3-3.4-5.3-12-11-16.3-15.7-.5-.6-1-1.2-1.5-1.8-2.5-3.3-3.6-6.9-4.5-11.5,0-.3,0-.5,0-.7Z"/><path class="cls-5" d="M136.6,303.2c1.9,2.2.8,5.8-1.7,7.6-2.4,1.8-5.7,2.1-8.7,2.3-9.3.4-19.4-3.3-28.6-4.3-1.1-.1-2.3-.3-3-1.2-.5-.6-.5-1.4-.5-2.2,0-3.3.2-5.7,1-9,11.2,1.2,16,.4,25.3-1.2,4.4,2.3,8.4,4.4,12.6,6,1.3.5,2.7,1,3.6,2.1Z"/><path class="cls-6" d="M115.7,116.1c.5-.7,1-1.4,1.6-1.9,1-.8,2.2-1.4,3.5-1.4l.3-.5c1.9,1.3,3.5,2.7,4,4.1,4.4,10.9,4.7,30,4.2,30.6l-.2.2c0,.7-.2,1.5-.4,2.2h-.3c-3.3-4.9-9.6-7.4-15.4-6.3-.4-2.8-.9-5.4-1-10.3,0-5.3.3-10.4,2.7-15.1.3-.5.5-1,.9-1.5Z"/><path class="cls-8" d="M106.7,91.6c.3,6.9,11.2,10.4,12.3,5.2-4.9-.5-7.7-2.2-12.1-5.2h-.1ZM106.3,110.2c-1.6,1.1-3.1,2.3-4.5,3.2-8.8,3.5-13.3-.1-14.2-8.1,0-.4,0-.9-.1-1.4v-.4c.3-.6.4-1.8.5-3.2.1-2.7,0-6.5-.3-10,0,0,.1-.1.3-.2,5.9-5.7,7.6-26,9-29.1.9-2.1,2.2-4.1,4.2-5.2,2-1.1,3.9-1.5,6.1-1.6l.3-.2c.4.6.9,1.2,1.5,1.8,4.3,4.6,12.8,10.4,16.3,15.7,2.6,4,4.5,8.7,4.6,13.3-.6,3.5-1.9,9.9-7.9,16.4,0,0-4.4,5.3-8.5,5.9-.6,0-1.5,0-2.8-.4v.2c.1.1.3.2.6.3-1.3.5-3.1,1.8-5,3.1ZM127.8,81.2c.3-1.5,0-2.8-.9-3-.8-.2-1.8.9-2.1,2.3-.3,1.5,0,2.8.9,2.9.8.2,1.8-.9,2.2-2.3ZM111.4,77.4c.3-1.4-.1-2.7-1-2.9-.9-.2-1.9.8-2.2,2.2-.3,1.4.1,2.7,1,2.9.9.2,1.9-.8,2.2-2.2Z"/><path class="cls-8" d="M94.2,146.5c9-1.9,7.9-.3,19.1-3.2h0c0-.1,0-.2,0-.3,5.7-1.1,12,1.5,15.4,6.3h.3c-.2.9-.5,1.8-.8,2.5-1.1,2.2-2.2,2.3-3.2,3-3.9,1.5-7.2,2.4-10.2,2.9-8.1,1.3-14.3-.6-25.6-1.8-2.7,1-12.6,1.3-13.7-1.4-.9-2.3,2.9-13.7,5.9-15.1.6-.3,1.5-.3,2.6,0,1.7.4,3.9,1.3,5.7,2.4,2.5,1.5,4.6,3.3,4.6,4.7h0Z"/><path class="cls-3" d="M126.9,78.2c.8.2,1.3,1.5.9,3-.3,1.5-1.3,2.5-2.2,2.3-.8-.2-1.2-1.5-.9-2.9.3-1.5,1.3-2.5,2.1-2.3Z"/><path class="cls-10" d="M95,296.4c-.4,0-.8,0-1.1-.1-.5-1.4,7.1-64.5,6-67.4-2.5-6.7-9.6-19.1-15.2-26.7,9,1.8,29.8,5.3,38.6,6.5,2.8,9.9,4.5,12.4,4.5,20.1,0,1.2-5.8,65.1-5.9,66.3-.5,0-1.1.2-1.6.3-9.3,1.6-14.1,2.4-25.3,1.2Z"/><path class="cls-9" d="M121.2,112.3l-.3.5c-1.3,0-2.5.6-3.5,1.4-.6.6-1.2,1.2-1.6,1.9-2.6-2.8-5.9-4.8-9.5-5.9,1.9-1.4,3.7-2.6,5-3.1,2.4,1.2,6.7,3.1,9.9,5.2Z"/><path class="cls-4" d="M116.9,177.4c-.3,0-.7-.1-1-.2h0c.3,0,.7.1,1,.2Z"/><path class="cls-11" d="M68.1,129c0-.4,0-1,.1-1.7.5-4.8,2.1-15.2,5.2-21.6h0c4.4-2,9.6-2.2,14.1-.5.9,8,5.3,11.6,14.2,8.1,1.4-.9,3-2,4.5-3.2,3.6,1.1,6.9,3.2,9.5,5.9-.3.5-.6,1-.9,1.5-2.4,4.7-2.8,9.8-2.7,15.1,0,4.9.7,7.4,1,10.3,0,.1,0,.2,0,.3h0c-11.1,3-10.1,1.4-19.1,3.2h0c0-1.5-2.1-3.4-4.6-4.9l2.4-12.7-5-1c-.5,1-1.1,1.8-1.8,2.1-.7.4-1.8.5-3.1.4l-.8,4.1,3.4.6-.8,4c-1.1-.2-2-.3-2.6,0-3,1.4-6.7,12.8-5.9,15.1,1.1,2.7,11,2.4,13.7,1.4,11.2,1.2,17.5,3.1,25.6,1.8-.8,3.1,1.2,14.4,1.4,19.5h0c-4.2-.9-6.6-3.1-15.1-4.9-17.2-3.7-31.5-7.1-33.1,3-.1,1.5-.2,2.8-.1,4.2-3.5-13.2-1.8-25.3.4-50.3h0Z"/><path class="cls-9" d="M118.9,96.8c-1,5.2-12,1.7-12.3-5.2h.1c4.4,2.9,7.2,4.7,12.1,5.2Z"/><path class="cls-3" d="M110.5,74.6c.9.2,1.3,1.5,1,2.9-.3,1.4-1.3,2.4-2.2,2.2-.9-.2-1.3-1.5-1-2.9.3-1.4,1.3-2.4,2.2-2.2Z"/><path class="cls-7" d="M87.7,90.2c-.6.6,0,0-1.2-.1h-.3c-8.2-3-8.2-11.7-8.5-19.2-.4-9.1,4.8-24.8,17-27.9,2.8-.7,5.5-1.2,8.1-1.3,0,.2,0,.5,0,.7.9,4.6,2,8.2,4.5,11.5l-.3.2c-2.2.1-4,.5-6.1,1.6-2,1.1-3.2,3.1-4.2,5.2-1.4,3-3.1,23.4-9,29.1-.1,0-.2.2-.3.2Z"/><path class="cls-9" d="M92,129l-2.4,12.7c-1.9-1.1-4-2-5.7-2.4l.8-4-3.4-.6.8-4.1c1.3.1,2.4,0,3.1-.4.7-.4,1.3-1.1,1.8-2.1l5,1Z"/><path class="cls-9" d="M87.6,100.2h.3c0,1.4-.2,2.6-.5,3.2v.4c0,.5,0,.9,0,1.4-4.5-1.7-9.7-1.5-14.1.5h0c1.1-2.3,2.4-4.2,3.9-5,2.9-.5,6.7-1,10.3-.5Z"/><path class="cls-6" d="M77.3,100.7c-1.5.9-2.8,2.7-3.9,5-3.1,6.5-4.7,16.9-5.2,21.6h-.3c-3.3,3.1-9.3,7.4-13.5,10.5l-.2-.9c-4.5-2.7-7.4-6.5-7-11.7h0c4.9-6.1,12.3-15,12.8-15.5,4.3-3.9,7.4-7,13-8.1.8-.1,2.3-.6,4.3-.9Z"/><path class="cls-8" d="M37.8,161.2h0c2.5.7,4.9,9.9,3.2,11.9-1.8,2.2-11.8,3.1-13.5,1.9-2-1.4.2-9.3,1.6-11.3,2.8-12.6,7.1-21.8,13.6-32.9h.1c0-.3,1.8-2.6,4.2-5.6h0c-.5,5.3,2.5,9.1,7,11.8l.2.9c-1.9,1.4-3.5,2.5-4.3,3.1l-.3.2c-4.9,8.8-8.5,13-12,20.2Z"/><path class="cls-1" d="M43,130.8c0-.3,1.8-2.7,4.2-5.7,4.9-6.1,12.3-15,12.8-15.4,4.3-3.9,7.4-7,13-8.1.8-.1,2.3-.6,4.3-.9,2.9-.5,6.7-1,10.3-.5"/><path class="cls-1" d="M67.9,127.3c-3.3,3.1-9.3,7.5-13.5,10.5-1.9,1.4-3.5,2.5-4.3,3.1"/><path class="cls-1" d="M42.9,130.8c-6.5,11.2-10.8,20.3-13.6,32.9"/><path class="cls-1" d="M49.9,141c-4.9,8.8-8.5,13-12,20.2,0,.2-.2.4-.3.6"/><path class="cls-1" d="M37.9,161.3c2.5.7,4.9,9.9,3.2,11.9-1.8,2.2-11.8,3.1-13.5,1.9-2-1.4.2-9.3,1.6-11.3"/><path class="cls-1" d="M129.4,146.9c.5-.5.2-19.7-4.2-30.6-.6-1.4-2.1-2.8-4-4.1-3.2-2.1-7.5-4-9.9-5.2-.2-.1-.4-.2-.6-.3"/><path class="cls-1" d="M121.3,112.8c-.1,0-.3,0-.4,0-1.3,0-2.5.6-3.5,1.4-.6.6-1.2,1.2-1.6,1.9-.3.5-.6,1-.9,1.5-2.4,4.7-2.8,9.8-2.7,15.1,0,4.9.7,7.4,1,10.3,0,.1,0,.2,0,.3"/><path class="cls-1" d="M124.8,154.7c-3.9,1.5-7.2,2.4-10.2,2.9-8.1,1.3-14.3-.6-25.6-1.8"/><path class="cls-1" d="M113.7,143.2c-.2,0-.3,0-.5.1-11.1,3-10.1,1.4-19.1,3.2-.2,0-.5,0-.7.1"/><path class="cls-1" d="M83.8,139.2c-1.1-.2-2-.3-2.6,0-3,1.4-6.7,12.8-5.9,15.1,1.1,2.7,11,2.4,13.7,1.4"/><path class="cls-1" d="M94.2,146.4c0-1.4-2.1-3.2-4.6-4.7-1.9-1.1-4-2-5.7-2.4"/><path class="cls-1" d="M129.2,147.1c0,.7-.2,1.5-.4,2.2-.2.9-.5,1.7-.8,2.4-1.1,2.2-2.2,2.3-3.2,3"/><path class="cls-1" d="M68.1,129c-2.2,25-3.9,37.1-.4,50.3l.3,1"/><path class="cls-1" d="M114.6,157.6s0,0,0,0c-.8,3.1,1.2,14.4,1.4,19.5h0"/><path class="cls-1" d="M84.7,202.1c9,1.8,29.8,5.3,38.6,6.5.5,0,1,.1,1.5.2,2,.2,58.7,23,58.7,22.7-.3-5.4,3.7-16.2,7.3-21.9.8-1.4,1.7-2.5,2.4-3.1.3-.3-62.1-24-63.5-24.6-2.8-1.3-8.4-3-12.7-4.3-.3-.1-.7-.2-1-.3-1.4-.4-2.7-.8-3.5-1.1"/><path class="cls-1" d="M79.3,200.5c1.2.5,3,1,5.3,1.6"/><path class="cls-1" d="M84.7,202.1c5.6,7.6,12.7,20,15.2,26.7,1.1,2.9-6.5,66-6,67.4.4,0,.8,0,1.1.1,11.2,1.2,16,.4,25.3-1.2.5,0,1-.2,1.6-.3,0-1.2,5.9-65.1,5.9-66.3,0-7.7-1.7-10.1-4.5-20.1h0"/><path class="cls-1" d="M67.8,175.1c-.1,1.5-.2,2.8-.1,4.2.3,12.1,6.8,18.7,11.6,21.1"/><path class="cls-1" d="M183.9,231.6c1,.5,2.2.1,3.2-.2,8.8-3,17.7-6.1,26-10.5,2.7-1.4,5.5-3.2,7-5.8,1.5-2.6,1-6.4-1.7-7.5-1.3-.5-2.8-.4-4.2-.3-8.2.7-15.3,1.6-23.5,2.3"/><path class="cls-1" d="M117.4,177.5c-.1,0-.3,0-.4,0-.3,0-.7-.1-1-.2-4.2-1-6.6-3.2-15.1-5-17.2-3.7-31.5-7.1-33.1,3"/><path class="cls-2" d="M68.1,129.7c0-.1,0-.4,0-.7,0-.4,0-1,.1-1.7.5-4.8,2.1-15.2,5.2-21.6,1.1-2.3,2.4-4.2,3.9-5,0,0,0,0,0,0"/><path class="cls-1" d="M95,296.4h0c-.8,3.3-1,5.6-1,9,0,.8,0,1.6.5,2.2.7.8,1.9,1,3,1.2,9.3,1,19.3,4.7,28.6,4.3,3.1-.1,6.3-.5,8.7-2.3,2.4-1.8,3.6-5.4,1.7-7.6-.9-1-2.3-1.6-3.6-2.1-4.2-1.5-8.2-3.7-12.6-6"/><path class="cls-1" d="M111.5,106.9c0,0-.2,0-.3.1-1.3.5-3.1,1.8-5,3.1-1.6,1.1-3.1,2.3-4.5,3.2-8.8,3.5-13.3-.1-14.2-8.1,0-.4,0-.9-.1-1.4"/><path class="cls-1" d="M113.1,143s0,0,.1,0c5.7-1.1,12,1.5,15.4,6.3"/><path class="cls-1" d="M47.2,125.2c-.5,5.2,2.5,9.1,7,11.7"/><path class="cls-1" d="M113.5,106.9c-.6,0-1.5,0-2.8-.4-4.5-1.2-12.8-5-19.5-12.1"/><path class="cls-1" d="M130.2,82.5c-.1.4-.2,1.2-.4,2.2-.6,3.5-1.9,9.9-7.9,16.4,0,0-4.4,5.3-8.5,5.9"/><path class="cls-1" d="M106.3,69.1c3.7-1.1,7.3-.4,8.6,1.4"/><path class="cls-1" d="M120.8,91.1c-3.3,2.3-7.4.1-8.6-1.3"/><path class="cls-1" d="M124.7,80.5c-.3,1.5,0,2.8.9,2.9.8.2,1.8-.9,2.2-2.3.3-1.5,0-2.8-.9-3-.8-.2-1.8.9-2.1,2.3Z"/><path class="cls-1" d="M108.3,76.8c-.3,1.4.1,2.7,1,2.9.9.2,1.9-.8,2.2-2.2.3-1.4-.1-2.7-1-2.9-.9-.2-1.9.8-2.2,2.2Z"/><path class="cls-1" d="M118.9,96.8c-4.9-.5-7.7-2.2-12.1-5.2"/><path class="cls-1" d="M118.9,96.8c-1,5.2-12,1.7-12.3-5.2,0,0,0-.1,0-.2"/><path class="cls-1" d="M87.6,89.8c0,.2,0,.3,0,.5.3,3.5.5,7.3.3,10,0,1.4-.2,2.5-.5,3.2"/><path class="cls-1" d="M102.9,41.6s0,0,0,0c-2.6.2-5.3.6-8.1,1.3-12.2,3.1-17.4,18.8-17,27.9.3,7.5.3,16.2,8.5,19.2"/><path class="cls-1" d="M87.9,90c5.9-5.7,7.6-26,9-29.1.9-2.1,2.2-4.1,4.2-5.2,2-1.1,3.9-1.5,6.1-1.6"/><path class="cls-1" d="M86.5,90.1c1.2,0,.5.7,1.2.1,0,0,.1-.1.3-.2"/><path class="cls-1" d="M107.4,53.9c.4.6.9,1.2,1.5,1.8,4.3,4.6,12.8,10.4,16.3,15.7,2.6,4,4.5,8.7,4.6,13.3,0,1.5,0,3.1-.4,4.6-.2,1-.6,2.1-.4,3.2s1.3,2,2.3,1.7c.5-.2.9-.6,1.2-1.1,7-9.5,10-22.2,6.7-33.6-3.3-11.4-11.1-18.4-22.8-20.3-4.1-.7-13.8-2.6-13.6,2.5,0,.2,0,.5,0,.7.9,4.6,2,8.2,4.5,11.5Z"/><path class="cls-1" d="M73.5,105.7c4.4-2,9.6-2.2,14.1-.5,0,0,0,0,0,0"/><path class="cls-1" d="M106.1,110.2s0,0,.1,0c3.6,1.1,6.9,3.2,9.5,5.9,0,0,0,0,.1.1"/><path class="cls-1" d="M83.7,139.4v-.2s.8-4,.8-4l-3.4-.6.8-4.1c1.3.1,2.4,0,3.1-.4.7-.4,1.3-1.1,1.8-2.1l5,1-2.4,12.7"/></svg>