<?xml version="1.0" encoding="UTF-8"?><svg id="africaModest" xmlns="http://www.w3.org/2000/svg" width="235" height="321.9" viewBox="0 0 235 321.9"><defs><style>.cls-1{stroke-linecap:round;stroke-linejoin:round;}.cls-1,.cls-2{fill:none;stroke:#000;}.cls-2{stroke-miterlimit:10;}.cls-3,.cls-4,.cls-5,.cls-6,.cls-7,.cls-8,.cls-9,.cls-10{stroke-width:0px;}.cls-4{fill:#4a62ba;}.cls-5{fill:#2b388d;}.cls-6{fill:#1b2f60;}.cls-7{fill:#19a7d4;}.cls-8{fill:#0690b6;}.cls-9{fill:#805530;}.cls-10{fill:#fff;}</style></defs><path class="cls-6" d="M211.7,206c2.9,1.3,3.4,5.4,1.8,8.2-1.6,2.9-4.6,4.8-7.6,6.3-9.1,4.8-18.8,8.2-28.5,11.5-1.2.4-2.5.8-3.5.3-.8-.4-2-1.7-2.4-2.5,6.9-6,9.2-16.8,10.2-21.5,8.9-.8,16.5-1.8,25.4-2.6,1.5-.1,3.2-.3,4.6.3Z"/><path class="cls-8" d="M59.6,181.6c0-1.3,0-2.6.1-4,1.5-9.7,15.3-6.5,31.8-2.9,8.2,1.8,10.4,3.9,14.5,4.8,0,0,0,0,.1,0,15.7,5.3,76.2,26,75.8,27.5,0,.3-.2.7-.3,1.2-1,4.7-3.3,15.5-10.2,21.5-.8.7-1.6,1.3-2.5,1.8s-26.2-10.7-55.4-19.5c-12.4-3.7-25.5-7-37.8-8.7-2.2-.6-4-1.1-5.1-1.6-4.7-2.4-10.9-8.8-11.2-20.4Z"/><path class="cls-6" d="M130.1,298.1c16.1,7.5.9,15.4-6.7,14.5-10.6-1.2-23.1-2.5-34.5-4.7-1.3-.2-2.5-1-3-2.2-.4-.9-.2-1.8,0-2.8.8-4,.6-5.5,1.3-7.3,10.3.5,16.2-3.3,25.6-5,7.7,4.3,7.8,2.9,17.4,7.4Z"/><path class="cls-7" d="M127.5,79.7c-.2-5.9-1.7-9.7-5-12.1-6.3-4.5-11.9-4.2-18.6-1.8-7.3,2.6-13.6,13.5-14.1,21.2s-1.1,11.2,1.6,18.3c3.4,2.3,6.4,4.1,8.8,5.4l-.2.3c-7.5-.7-12.7-3.4-16.3-6.9-5.7-5.6-7.5-13.1-8.5-17.6-.2-.8-.3-1.5-.5-2.1-2.5-11.3-1.7-21.4,8.4-30,5.1-4.3,18.4-5.5,25.2-4.2,4.8.9,16.7,6.5,19.5,15.2,3.3,10.2,2.4,18.9-4,30.5,0,.1-1.1,1.4-1.5,1.9,2.3-6.1,2.7-11.5,3.1-12.9.7-2.5.8-.7,2.1-5.2Z"/><path class="cls-9" d="M122.4,97.8c-1.2,3.1-2.9,6.4-5.5,9.4,0,0-3.3,4.6-7,6.1-1.7.7-4.5,0-8.9-2.2-.3-.1-.6-.3-.8-.5-2.5-1.3-5.4-3.1-8.8-5.4-2.7-7.1-2.1-10.6-1.6-18.3s6.9-18.5,14.1-21.2c6.7-2.4,12.3-2.7,18.6,1.8,3.3,2.4,4.9,6.1,5,12.1-1.3,4.5-1.4,2.7-2.1,5.2-.4,1.4-.7,6.8-3.1,12.9ZM104.1,96.7l-.2.3c0,12.5,8.7,12.9,11.3,4.8-4.4-.5-7.3-2.3-11.1-5ZM125.1,82.7c0-.3-.2-.6-.4-.8-1-1.1-1.6-2.3-2.9-3-.9-.5-1.9-.9-2.9-.8s-1.9,1.1-1.6,2.1c.3.7,1,1,1.8,1.3,1.5.5,3,1.1,4.6,1.6.3,0,.6.2.8.2.3,0,.6-.2.6-.5ZM121.8,88.5c.3-1.5,0-2.9-.9-3.1-.8-.2-1.7.9-2.1,2.4-.3,1.5,0,2.9.9,3.1.8.2,1.8-.9,2.1-2.4ZM108.1,77.7c1.4.4,3.9-.7,1.5-2.6-1.5-1.3-5.5-.8-7.3-.7-.5,0-1,0-1.5.3-.5.2-.8.7-.7,1.2,0,.6,1.7.5,3.3.7,2.4.3,3.7.9,4.7,1.2ZM105.9,84.6c.3-1.5-.1-2.8-1-3-.9-.2-1.8.8-2.1,2.3-.3,1.5.1,2.8,1,3,.8.2,1.8-.9,2.1-2.3Z"/><path class="cls-3" d="M124.7,81.9c.2.2.4.5.4.8,0,.3-.3.5-.6.5-.3,0-.6,0-.8-.2-1.5-.5-3-1.1-4.6-1.6-.7-.3-1.5-.6-1.8-1.3-.3-1,.6-2,1.6-2.1s2,.4,2.9.8c1.4.7,1.9,1.9,2.9,3Z"/><path class="cls-3" d="M120.9,85.4c.8.2,1.2,1.6.9,3.1-.3,1.5-1.3,2.6-2.1,2.4-.8-.2-1.2-1.6-.9-3.1.3-1.5,1.3-2.6,2.1-2.4Z"/><path class="cls-5" d="M106.4,144.1c-.4,0-.8.1-1.2.2-.7.1-1.4.3-2,.5-.3-2.9-.7-3-.8-7.9-.2-2.6-.1-5.5.1-8.1.3-2.6,1.2-5.2,2.9-7.1s5.6-3,8.1-2.5c.6.6,1.1,1.3,1.4,1.9,4.2,10.5,5.2,21.1,4.8,21.6-.2.2-.5.3-1.1.4-2.3.4-7.7.3-12.2,1Z"/><path class="cls-10" d="M85.9,159.7c-1.6-.2-3.2-.4-5-.6,0-1.7,0-3.5.6-5.2.5-1.6,1.6-3.1,3.1-3.7,8.2-1.7,11.9-1.1,20.4-3.1.6-.1,1.1-.3,1.7-.4-.1-.8-.2-1.8-.4-2.6,4.5-.6,9.9-.6,12.2-1h0c.3,3.4.6,8.7-1.1,12-1,2.1-2.2,2.2-3.1,2.9-3.8,1.5-6.9,2.3-9.8,2.8-6.3,1-11.4,0-18.8-1Z"/><path class="cls-8" d="M113.7,212.2c2.8,10.2,3.9,11.3,3.7,18.4,0,.6-4.7,59.5-4.7,60.1-9.4,1.6-15.3,5.4-25.6,5-.9,0-1.9-.1-2.9-.2-.1-.4,5.5-63.2,5.3-63.7-1.9-5.5-6.4-18.6-13.5-28.2,12.2,1.7,25.3,5,37.8,8.7Z"/><path class="cls-10" d="M113.5,119.2c-2.5-.5-6.4.6-8.1,2.5-.3-1.8-3.3-4.4-4.4-4.7,0,0,0,0,0,0-.3-2.8-.4-2.8,0-5.1,2.8,1.5,9.5,4.2,12.6,7.3Z"/><path class="cls-10" d="M115.2,101.7c-2.6,8.1-11.4,7.7-11.3-4.8l.2-.3c3.8,2.7,6.7,4.6,11.1,5Z"/><path class="cls-3" d="M109.7,75c2.3,2,0,3-1.5,2.6-1-.3-2.3-.9-4.7-1.2-1.6-.2-3.2-.1-3.3-.7,0-.5.3-1,.7-1.2.5-.2,1-.3,1.5-.3,1.8,0,5.8-.5,7.3.7Z"/><path class="cls-5" d="M106,179.5s0,0,.1,0c0,0,0,0-.1,0h0Z"/><path class="cls-3" d="M105,81.6c.8.2,1.3,1.5,1,3-.3,1.5-1.3,2.5-2.1,2.3-.9-.2-1.3-1.5-1-3,.3-1.5,1.3-2.5,2.1-2.3Z"/><path class="cls-4" d="M106,179.5h0c-4.1-1-6.3-3-14.5-4.8-16.5-3.6-30.3-6.9-31.8,2.9-.1,1.4-.2,2.7-.1,4-2.7-10.6-.6-22,1.4-39.8.2-2,0-6.5-.4-10.3-.2-1.8-.3-3.5-.4-4.5-.2-2.4,0-5.5.5-8.6.6-2.6,5.8-6.9,10.3-7.3,4.6-.4,7,0,10,.9-.3.6-.5,1.2-.7,1.7.5,5.6,3.9,8.1,7.9,9,4,.9,9.9-1.5,12.6-5.7,1.1.3,4.1,2.9,4.4,4.7-1.7,1.9-2.6,4.5-2.9,7.1-.3,2.6-.4,5.5-.1,8.1,0,4.9.5,5.1.8,7.9.6-.2,1.3-.3,2-.5,0,1.2-.1,1.7-.2,2.9-8.6,1.9-12.2,1.3-20.4,3.1.1,0,.3-.1.4-.2h0c0-.8-.6-1.7-1.6-2.6.5-.6,1-1.2,1.3-1.7.7-1.2,1-2.6,1-4.2s-.7-3.9-2.1-5.2-3.4-1.9-6-1.9-3.8.4-5.3,1.3c-1.3.8-2.5,2-3.8,3.7l4.2,3.5h0c-.1.1-.2.2-.3.2-2.9,1.4-6.5,12.4-5.6,14.5.2.6.9,1,1.8,1.4-.1,1-.2,2-.2,3.1h17.4v-2.4c7.4,1,12.5,2,18.8,1-.8,3,1.2,14,1.3,18.8Z"/><path class="cls-10" d="M81.1,112c.7-1.8,1.6-3.9,2.1-5.8.2-.8.4-1.5.5-2.1,3.6,3.5,8.8,6.2,16.3,6.9l.2-.3c.3.2.6.3.8.5,0,.3,0,.5,0,.8-.3,2.3-.2,2.2,0,5.1,0,0,0,0,0,0-2.7,4.2-8.6,6.6-12.6,5.7-4-.9-7.4-3.4-7.9-9,.2-.5.4-1.1.7-1.7Z"/><path class="cls-10" d="M80.9,159.1c1.8.2,3.4.4,5,.6v2.4h-17.4c0-1.1.1-2.1.2-3.1,3.2,1.1,9.3.7,11.3,0,.3,0,.6,0,.8,0Z"/><path class="cls-10" d="M83.7,136.3c1.4,1.3,2.1,3,2.1,5.2s-.3,3.1-1,4.2c-.3.6-.8,1.1-1.3,1.7-1.2-1.1-3-2.2-4.7-3.1.1-.1.2-.2.3-.3.4-.6.6-1.3.6-2s-.2-1.2-.6-1.6c-.4-.4-.9-.6-1.4-.6-.9,0-1.6.2-2.2.6-.7.4-1.6,1.2-2.5,2.5l-4.2-3.5c1.3-1.7,2.5-2.9,3.8-3.7,1.5-.9,3.2-1.3,5.3-1.3s4.6.6,6,1.9Z"/><path class="cls-9" d="M84.6,150.2c-1.5.7-2.6,2.2-3.1,3.7-.5,1.7-.6,3.4-.6,5.2-.3,0-.5,0-.8,0-2,.7-8.2,1.1-11.3,0-.9-.3-1.6-.8-1.8-1.4-.9-2.2,2.7-13.2,5.6-14.5.1,0,.2,0,.3-.1,1.3-.3,3.6.3,5.8,1.4,1.8.8,3.5,2,4.7,3.1,1,.9,1.6,1.7,1.6,2.5h0c-.1.1-.3.2-.4.2Z"/><path class="cls-7" d="M83.7,104c0,.6-.2,1.3-.5,2.1h0c-5-.8-14.1.1-17.4.6.9-4.2.7-3,3.8-10.7,1-2.6,2.6-6.7,5.4-9.6h.3c.9,4.5,2.7,12,8.5,17.6Z"/><path class="cls-10" d="M83.1,106.1h0c-.5,1.9-1.4,4-2.1,5.8-3-.9-5.4-1.2-10-.9-4.5.3-9.8,4.7-10.3,7.3.8-4.9,2.4-9.7,5-11.6,3.3-.5,12.4-1.4,17.4-.6Z"/><path class="cls-5" d="M79,140.4c.4.4.6.9.6,1.6s-.2,1.4-.6,2c0,.1-.2.2-.3.3-2.3-1.1-4.6-1.7-5.8-1.4h0c1-1.3,1.8-2.1,2.5-2.6.6-.4,1.4-.6,2.2-.6s1,.2,1.4.6Z"/><path class="cls-5" d="M55.3,135.8c0,0-.1,0-.2.1-.1,0-.2.2-.4.3-.1,0-.2.2-.3.2-4.8-2.6-7.1-11.4-7.5-14.8,0-.6,0-1,0-1.2.1-1,4.6-5.1,5.4-5.8,4.1-3.7,7.1-6.7,12.5-7.8s.6-.1,1-.2c-2.5,1.9-4.2,6.8-5,11.6-.5,3.1-.7,6.2-.5,8.6.1,1,.3,2.7.4,4.5h0c-3.9,3.7-3.9,3.5-5.3,4.4Z"/><path class="cls-10" d="M54.4,136.5c-3.4,2.3-8,5.2-11.9,8.3-4.8,8.7-8,12.2-11.5,19.5h0c-4.5-2-7.8,1.7-8,2.1h-.3c2.6-12,4.3-18.3,11.3-28.4,3.2-4.6,9.6-13,12.9-16.3.4,3.4,2.7,12.3,7.5,14.8Z"/><path class="cls-9" d="M31,164.3h0c2.4.6,4.7,9.4,3.1,11.4-1.7,2.1-11.3,2.9-12.9,1.8-1.9-1.3.2-9,1.5-10.9,0-.1,0-.2,0-.3h.3c.2-.3,3.5-4,8-2Z"/><path class="cls-1" d="M65.8,106.7c3.3-.5,12.4-1.4,17.4-.6"/><path class="cls-2" d="M46.9,121.7c0-.6,0-1,0-1.2.1-1,4.6-5.1,5.4-5.8,4.1-3.7,7.1-6.7,12.5-7.8s.6-.1,1-.2"/><path class="cls-1" d="M54.4,136.5c-4.8-2.6-7.1-11.4-7.5-14.8"/><path class="cls-1" d="M55.1,136c-.1,0-.2.2-.4.3"/><path class="cls-1" d="M60.6,131.5c-3.9,3.6-3.9,3.5-5.3,4.4"/><path class="cls-1" d="M46.9,121.7c-3.2,3.3-9.6,11.7-12.9,16.3-7.1,10.1-8.7,16.4-11.3,28.3,0,0,0,.2,0,.3"/><path class="cls-1" d="M56.8,134.7c-.4.4-.9.7-1.5,1.1,0,0-.1,0-.2.1-.1,0-.3.2-.4.3-.1,0-.2.2-.3.2-3.4,2.3-8,5.2-11.9,8.3-4.8,8.7-8,12.2-11.5,19.5"/><path class="cls-1" d="M31,164.3c2.4.6,4.7,9.5,3.1,11.4-1.7,2.1-11.3,2.9-12.9,1.8-1.9-1.3.2-9,1.5-10.9"/><path class="cls-1" d="M102.4,136.8c0,4.9.5,5.1.8,7.9.6-.2,1.3-.3,2-.5.4,0,.8-.1,1.2-.2,4.5-.6,9.9-.6,12.2-1,.5-.1.9-.2,1.1-.4.5-.5-.6-11.2-4.8-21.6-.3-.7-.7-1.3-1.4-1.9-3.1-3.1-9.8-5.8-12.6-7.3,0,0,0,0,0,0"/><path class="cls-1" d="M114.5,157.9c-3.8,1.5-6.9,2.3-9.8,2.8-6.3,1-11.4,0-18.8-1-1.6-.2-3.2-.4-5-.6-.3,0-.5,0-.8,0"/><path class="cls-1" d="M84.6,150.2c0,0-.1,0-.2,0"/><path class="cls-2" d="M105,147.1c-8.6,1.9-12.2,1.3-20.4,3.1"/><path class="cls-1" d="M108.7,146.2c-.7.2-1.3.3-1.9.5-.6.1-1.2.3-1.7.4"/><path class="cls-2" d="M85,150c0-.7-.6-1.6-1.6-2.5-1.2-1.1-3-2.2-4.7-3.1-2.3-1.1-4.6-1.7-5.8-1.4-.1,0-.2,0-.3.1-2.9,1.4-6.5,12.4-5.6,14.5.2.6.9,1,1.8,1.4,3.2,1.1,9.3.7,11.3,0"/><path class="cls-1" d="M118.6,143.1c.3,3.4.6,8.7-1.1,11.9-1,2.1-2.2,2.2-3.1,2.9"/><path class="cls-1" d="M83.7,104c0,.6-.2,1.3-.5,2.1-.5,1.9-1.4,4-2.1,5.8-.3.6-.5,1.2-.7,1.7"/><path class="cls-1" d="M60.3,126.9c.1,1,.3,2.7.4,4.5.3,3.7.6,8.3.4,10.3-2.1,17.9-4.1,29.3-1.4,39.8,0,.3.2.7.3,1"/><path class="cls-1" d="M104.7,160.7s0,0,0,0c-.8,3,1.2,14,1.3,18.8h0"/><path class="cls-1" d="M75.9,203.5c12.2,1.7,25.3,5,37.8,8.7,29.2,8.7,54.5,20,55.4,19.5s1.7-1.1,2.5-1.8c6.9-6,9.2-16.8,10.2-21.5.1-.5.2-.9.3-1.2.4-1.6-60.2-22.2-75.8-27.5,0,0-.1,0-.1,0-1.7-.6-2.9-1-3.3-1.1"/><path class="cls-1" d="M70.8,201.9c1.1.5,2.9,1,5.1,1.6"/><path class="cls-1" d="M75.9,203.5c7.1,9.6,11.6,22.7,13.5,28.2.2.5-5.4,63.3-5.3,63.7,1,.1,2,.2,2.9.2,10.3.5,16.2-3.3,25.6-5,0-.6,4.7-59.5,4.7-60.1.2-7.1-.9-8.2-3.7-18.4"/><path class="cls-1" d="M87,295.6c-.7,1.8-.5,3.3-1.3,7.3-.2.9-.3,1.9,0,2.8.5,1.2,1.8,2,3,2.2,11.5,2.2,24,3.4,34.5,4.7,7.6.9,22.8-7,6.7-14.5-9.7-4.5-9.7-3.2-17.4-7.4"/><path class="cls-1" d="M59.7,177.6c-.1,1.4-.2,2.7-.1,4,.3,11.6,6.5,18,11.2,20.4"/><path class="cls-1" d="M173.9,232.4c1,.5,2.4.1,3.5-.3,9.7-3.3,19.4-6.7,28.5-11.5,3-1.6,6-3.5,7.6-6.3,1.6-2.9,1.1-7-1.8-8.2-1.4-.6-3-.5-4.6-.3-8.9.8-16.5,1.8-25.4,2.6h0"/><path class="cls-1" d="M171.5,229.8c.4.8,1.6,2.1,2.4,2.5"/><path class="cls-1" d="M107.3,179.8c-.4,0-.8-.2-1.2-.2,0,0,0,0-.1,0-4.1-1-6.3-3.1-14.5-4.8-16.5-3.6-30.3-6.9-31.8,2.9"/><path class="cls-2" d="M101.1,111.1c0,.3,0,.5,0,.8-.3,2.3-.2,2.2,0,5.1,0,0,0,0,0,0-2.7,4.2-8.6,6.6-12.6,5.7-4-.9-7.4-3.4-7.9-9"/><path class="cls-2" d="M106.4,143.9c0,0,0,.1,0,.2.1.8.2,1.8.4,2.6,0,0,0,.2,0,.3"/><path class="cls-1" d="M105.2,144.3c0,1.2-.1,1.7-.2,2.9h0"/><path class="cls-2" d="M65.8,106.7c-2.5,1.9-4.2,6.8-5,11.6-.5,3.1-.7,6.2-.5,8.6"/><path class="cls-2" d="M102.4,136.8c-.2-2.6-.1-5.5.1-8.1.3-2.6,1.2-5.2,2.9-7.1s5.6-3,8.1-2.5"/><path class="cls-2" d="M81.4,112.1c-.1,0-.2,0-.4-.1-3-.9-5.4-1.2-10-.9-4.5.3-9.8,4.7-10.3,7.3"/><path class="cls-2" d="M100.7,116.9c0,0,.2,0,.3,0,1.1.3,4.1,2.9,4.4,4.7"/><path class="cls-2" d="M85.9,159.5v2.6h-17.4c0-1.1.1-2.1.2-3.1"/><path class="cls-2" d="M78.5,144.6c0,0,.1-.2.2-.2.1-.1.2-.2.3-.3.4-.6.6-1.3.6-2s-.2-1.2-.6-1.6c-.4-.4-.9-.6-1.4-.6-.9,0-1.6.2-2.2.6-.7.4-1.6,1.2-2.5,2.5l-4.2-3.5c1.3-1.7,2.5-2.9,3.8-3.7,1.5-.9,3.2-1.3,5.3-1.3s4.6.6,6,1.9,2.1,3,2.1,5.2-.3,3.1-1,4.2c-.3.6-.8,1.1-1.3,1.7,0,0-.1.1-.2.2"/><path class="cls-1" d="M127.6,79.6s0,0,0,0c-1.3,4.5-1.4,2.7-2.1,5.2-.4,1.4-.7,6.8-3.1,12.9-1.2,3.1-2.9,6.4-5.5,9.4,0,0-3.3,4.6-7,6.1-1.7.7-4.5,0-8.9-2.2-.3-.1-.6-.3-.8-.5-2.5-1.3-5.4-3.1-8.8-5.4"/><path class="cls-1" d="M116.8,96.9c-1.9,2.5-5.6.5-7.6,0"/><path class="cls-1" d="M118.8,87.9c-.3,1.5,0,2.9.9,3.1.8.2,1.8-.9,2.1-2.4.3-1.5,0-2.9-.9-3.1-.8-.2-1.7.9-2.1,2.4Z"/><path class="cls-1" d="M102.9,84c-.3,1.5.1,2.8,1,3,.8.2,1.8-.9,2.1-2.3.3-1.5-.1-2.8-1-3-.9-.2-1.8.8-2.1,2.3Z"/><path class="cls-1" d="M115.2,101.7c-4.4-.5-7.3-2.3-11.1-5-.3-.2-.6-.4-.9-.6"/><path class="cls-1" d="M115.2,101.7c-2.6,8.1-11.4,7.7-11.3-4.8"/><path class="cls-1" d="M108.1,77.7c-1-.3-2.3-.9-4.7-1.2-1.6-.2-3.2-.1-3.3-.7,0-.5.3-1,.7-1.2.5-.2,1-.3,1.5-.3,1.8,0,5.8-.5,7.3.7,2.3,2,0,3-1.5,2.6Z"/><path class="cls-1" d="M121.8,78.9c-.9-.5-1.9-.9-2.9-.8s-1.9,1.1-1.6,2.1c.3.7,1,1,1.8,1.3,1.5.5,3,1.1,4.6,1.6.3,0,.6.2.8.2.3,0,.6-.2.6-.5,0-.3-.2-.6-.4-.8-1-1.1-1.6-2.3-2.9-3Z"/><path class="cls-1" d="M127.6,80.7c0-.3,0-.7,0-1-.2-5.9-1.7-9.7-5-12.1-6.3-4.5-11.9-4.2-18.6-1.8-7.3,2.6-13.6,13.5-14.1,21.2s-1.1,11.2,1.6,18.3"/><path class="cls-1" d="M122.1,98.1s.1-.1.2-.3c.5-.6,1.5-1.8,1.5-1.9,6.4-11.5,7.3-20.3,4-30.5-2.8-8.8-14.7-14.3-19.5-15.2-6.8-1.3-20.1-.2-25.2,4.2-10.1,8.6-11,18.8-8.4,30,.1.6.3,1.3.5,2.1.9,4.5,2.7,12.1,8.5,17.6,3.6,3.5,8.8,6.2,16.3,6.9"/><path class="cls-1" d="M74.9,86.5c-2.8,2.9-4.3,7-5.4,9.6-3.1,7.7-2.9,6.5-3.8,10.7"/><path class="cls-2" d="M31.1,164.3s0,0,0,0c-4.5-2-7.8,1.7-8,2.1,0,0,0,0,0,0"/><path class="cls-1" d="M85,150c-.1,0-.3.1-.4.2-1.5.7-2.6,2.2-3.1,3.7-.5,1.7-.6,3.4-.6,5.2,0,0,0,.1,0,.2"/></svg>