<?xml version="1.0" encoding="UTF-8"?><svg id="oceania" xmlns="http://www.w3.org/2000/svg" width="235" height="321.9" viewBox="0 0 235 321.9"><defs><style>.cls-1{stroke-linecap:round;stroke-linejoin:round;}.cls-1,.cls-2{fill:none;stroke:#000;}.cls-2{stroke-miterlimit:10;}.cls-3,.cls-4,.cls-5,.cls-6,.cls-7,.cls-8,.cls-9,.cls-10{stroke-width:0px;}.cls-4{fill:#353638;}.cls-5{fill:#3d8e3d;}.cls-6{fill:#d7ad75;}.cls-7{fill:#a76541;}.cls-8{fill:#fff;}.cls-9{fill:#eebede;}.cls-10{fill:#67b96a;}</style></defs><path class="cls-4" d="M216.2,212c1.8.8,2.6,2.8,2.4,4.8h-.4c-10.8,7.4-22.9,13-35.5,16.4h-.2c.6-5.6,3.9-14.3,7-19.2,7.9-.7,14.8-1.5,22.7-2.3,1.4-.1,2.8-.2,4,.3Z"/><path class="cls-3" d="M218.2,216.8h.4c0,.9-.3,1.8-.8,2.5-1.4,2.6-4.1,4.2-6.7,5.6-8,4.3-16.6,7.2-25.1,10.1-1,.4-2.2.7-3.1.2h-.4c0-.7,0-1.4,0-2.1h.2c12.7-3.4,24.7-9,35.5-16.4Z"/><path class="cls-4" d="M70.6,184.9c0-1.3,0-2.6.1-4.1,1.5-9.8,15.4-6.5,31.9-2.9,8.2,1.8,10.4,3.9,14.5,4.9.3,0,.6.1,1,.2,4.1,1.3,9.5,3,12.2,4.2,1.3.6,61.7,23.5,61.3,23.8-.7.6-1.5,1.7-2.3,3-3,4.9-6.4,13.6-7,19.2,0,.7-.1,1.4,0,2,0,.3-54.8-21.8-56.7-22-.4,0-.9-.1-1.4-.2-8.5-1.1-28.6-4.5-37.3-6.2-2.2-.6-4-1.1-5.2-1.6-4.7-2.4-10.9-8.8-11.2-20.4Z"/><path class="cls-6" d="M142.6,65.5c.8,1.7.6,3.6-.4,5.2-2.5,3.9-1.4,5.5-2.1,8.8l.2.7c-2.1,2.2-3.8,2.2-5.2,1.5-1.2-.6-2.1-1.8-2.7-2.7-1.2-1.7-2.6-3.9-4.7-3.9-1.9,0-3.6,1.9-5.4,1.3-2.3-.8-2.5-5.1-5-4.9-1.6.1-2.2,2.2-3.7,2.7-1.5.5-3-.8-4.1-1.9-1.1-1.1-2.9-2.2-4.2-1.3-1.3.9-1,2.9-2.1,4.1-.7.8-2,.9-3,.9-1.1,0-2.3,0-3.1.8-1.3,1.1.2,2.2-.2,3.3-.5,1.3-2,2.7-3.3,3-1.3.3-2.4-.8-3-2-.7-1.6-2.8-2-4.1-1.1-1.4.9-2.1,2.7-2.3,4.4-.3,3.1.9,6.5,3.4,7.8.4.2,1,.4,1.4.4h0c.3,1.4.5,3.5.7,5.8-3.7,1-5.4-6.2-8.5-6.5-2.7-.3-3.2-4.8-2.6-7.5.3-1.5,1.1-3.4,0-4.4-.9-.8-1.3-2.2-2.3-2.7-1.9-.9-1.8-3.7-.8-5.5,1-1.8,1.6-1.7,1.7-3.8.2-3.3-3.3-6.5-1.8-9.5.9-1.8,3.4-2.3,4.7-3.9,1.1-1.2,1.3-3,1.4-4.6s1.4-2.3,2.4-3.6c.9-1.3,3-2.1,4.2-1,6.7-.4,6.2-6.2,10.5-4,2.5,1.3,4.4,1.5,8,.3,1.8-.6,3.6-1.6,5.5-1.3,2.7.5,4.5,3.4,7.3,3.7,2.9.4,5.8-1.4,8.1.4,2.1,1.8,1.1,5,3.2,6.8,1.6,1.3,5.9,1.8,7.4,3.2,1.9,1.8.6,4.1,1.4,6.5.6,1.7,2.3,2.7,3,4.3Z"/><path class="cls-4" d="M137.2,304.4c1.7,1.9.9,5-1,6.8h0c-11.9,1.1-26.8-2-39.6-5.8h-.4c0-2.7.3-4.8,1-7.5,10.8,1.2,15.5.4,24.4-1.2,4.2,2.2,8.2,4.3,12.2,5.8,1.3.5,2.6,1,3.5,2Z"/><path class="cls-3" d="M136.1,311.2h0c-.2.2-.4.4-.6.6-2.4,1.7-5.5,2-8.4,2.2-9,.4-18.7-3.1-27.7-4.2-1.1-.1-2.3-.3-2.9-1.1-.5-.6-.5-1.4-.5-2.1s0-.8,0-1.1h.4c12.9,3.8,27.7,6.9,39.6,5.8Z"/><path class="cls-7" d="M112.7,115s0,0,0,0c-1.1.5-2.4,1.7-3.9,3-1.6,1.5-3.4,3.2-5,4.2-4.5,3.7-12.6-1-13.9-8.8,0-.5-.1-1-.2-1.5h0c.3-.7.4-1.9.5-3.5.1-2.8,0-6.6-.4-9.9-.2-2.3-.5-4.4-.7-5.8h0c-.5,0-1-.2-1.4-.4-2.5-1.3-3.8-4.8-3.4-7.8.2-1.7.9-3.5,2.3-4.4,1.4-.9,3.5-.5,4.1,1.1.5,1.2,1.7,2.3,3,2,1.3-.3,2.8-1.8,3.3-3,.4-1.1-1.1-2.1.2-3.3.8-.7,2-.8,3.1-.8,1.1,0,2.3-.1,3-.9,1.1-1.1.8-3.2,2.1-4.1,1.3-.9,3.1.2,4.2,1.3,1.1,1.1,2.6,2.4,4.1,1.9,1.5-.5,2.2-2.6,3.7-2.7,2.4-.2,2.6,4.1,5,4.9,1.8.6,3.5-1.2,5.4-1.3,2.1,0,3.5,2.2,4.7,3.9.6.8,1.5,2,2.7,2.7h0c-1.3,4.3-3.3,7.7-4,10-.6,1.9-.6,9.9-8,17.9,0,0-4.3,5.1-8.2,5.7-.4,0-1.1,0-2-.2,0,0-.1,0-.1,0ZM109.1,100.8l-.2.2c-1.5,7.6,8.7,11.9,11.3,4.4-4.4-.5-7.3-2.1-11.1-4.7ZM128.7,90.4c.3-1.4,0-2.7-.9-2.9-.8-.2-1.7.8-2.1,2.2-.3,1.4,0,2.7.9,2.9.8.2,1.8-.8,2.1-2.2ZM112.9,86.8c.3-1.4-.1-2.6-.9-2.8-.9-.2-1.8.8-2.1,2.1-.3,1.4.1,2.6,1,2.8.8.2,1.8-.8,2.1-2.1Z"/><path class="cls-5" d="M126.2,124c4.2,10.5,6.1,29.1,5.6,29.6-.2.2-.8.1-1.7-.2-3.3-1-10.5-4.4-15-3.5-.2,0-.3,0-.5.1-.3-2.9-.9-5.3-1-10.2.5-5.8,1.3-13.6,4-16.1.2-.2.4-.4.6-.5,2-1.2,4.2-1.7,6.5-1.2.7.6,1.2,1.3,1.4,2Z"/><path class="cls-7" d="M91.2,148.2c2.7,1.5,5,3.4,5,4.9h0c8.8-1.7,7.6,0,18.9-3.1,4.5-.9,11.7,2.5,15,3.5v.3c-.3,1.6-.6,3.2-1.2,4.5-1,2.1-2.2,2.2-3.1,2.9-3.8,1.5-6.9,2.3-9.9,2.8-7.8,1.2-13.8-.5-24.7-1.7-2.6.9-12.2,1.2-13.2-1.4-.9-2.2,2.8-13.2,5.7-14.6.5-.3,1.4-.3,2.4,0,1.5.3,3.4,1.1,5.2,2.1Z"/><path class="cls-3" d="M127.8,87.6c.8.2,1.2,1.4.9,2.9-.3,1.4-1.3,2.4-2.1,2.2-.8-.2-1.2-1.4-.9-2.9.3-1.4,1.3-2.4,2.1-2.2Z"/><path class="cls-4" d="M124.3,213.1c2.7,9.6,4.4,11.9,4.4,19.4,0,1.2-5.6,62.9-5.7,64-.5,0-1,.2-1.5.3-8.9,1.6-13.6,2.3-24.4,1.2-.4,0-.7,0-1.1-.1-.5-1.3,8.3-63.7,7.3-66.5-2.4-6.5-10.8-17.1-16.2-24.4,8.7,1.8,28.8,5.2,37.3,6.2Z"/><path class="cls-8" d="M124.8,122c-2.2-.6-4.4,0-6.5,1.2-.2.1-.4.3-.6.5h0c-1.8-3.1-5.2-5.3-8.8-5.6,1.5-1.3,2.8-2.5,3.9-3,0,0,.2,0,.2,0,3.1,1.6,9,4.1,11.9,6.9Z"/><path class="cls-10" d="M117.2,182.7h0c-4.1-.9-6.3-3-14.5-4.8-16.6-3.6-30.4-6.9-31.9,2.9-.1,1.4-.2,2.8-.1,4.1-3.4-12.7-1.7-24.4.4-48.6h0c0-.3,0-.7,0-1.2.3-3.2,1.1-8.9,1.9-12.1,1.4-5.3,2.6-7.6,4.7-10.6h.5c3.7-.9,7.8-.5,11.2,1.1h.4c1.3,7.7,9.4,12.4,13.9,8.8,1.6-1,3.3-2.7,5-4.2,3.6.3,7,2.4,8.8,5.6h0c-2.7,2.6-3.5,10.3-4,16.2,0,4.9.7,7.4,1,10.2.2,0,.3,0,.5-.1-11.2,3-10.1,1.4-18.9,3.2h0c0-1.6-2.3-3.5-5-5l3.6-14.1-4.5-1.1c-.5.9-1.1,1.5-1.8,1.8-.7.3-1.6.3-2.8.2l-.9,3.6,3,.7-1.7,6.7h0c-1-.1-1.8-.1-2.4.1-2.9,1.4-6.5,12.4-5.7,14.6,1,2.6,10.6,2.3,13.2,1.4,10.9,1.2,16.9,3,24.7,1.7-.8,3,1.2,13.9,1.3,18.8Z"/><path class="cls-9" d="M118.2,183c-.3,0-.7-.1-1-.2h0c.3,0,.6.1,1,.2Z"/><path class="cls-8" d="M120.2,105.5c-2.6,7.5-12.8,3.2-11.3-4.4l.2-.2c3.8,2.5,6.7,4.2,11.1,4.7Z"/><path class="cls-3" d="M112,84.1c.8.2,1.3,1.4.9,2.8-.3,1.4-1.3,2.3-2.1,2.1-.9-.2-1.3-1.4-1-2.8.3-1.4,1.3-2.3,2.1-2.1Z"/><path class="cls-8" d="M94.7,134.1l-3.6,14.1c-1.7-1-3.6-1.8-5.2-2.1h0c0,0,1.7-6.8,1.7-6.8l-3-.7.9-3.6c1.2.2,2.1.1,2.8-.2.7-.3,1.3-.9,1.8-1.8l4.5,1.1Z"/><path class="cls-8" d="M80.3,109.1l-.3-.2c2.8-.5,6.5-1,9.9-.5h.4c0,1.6-.2,2.8-.5,3.5h0c0,.5,0,1,.2,1.5h-.4c-3.5-1.6-7.5-2-11.2-1.1h-.5c.7-1,1.5-2,2.5-3.3Z"/><path class="cls-5" d="M80,108.9l.3.2c-1,1.2-1.8,2.3-2.5,3.2-2.2,3-3.3,5.3-4.7,10.6-.9,3.2-1.7,8.9-1.9,12.1-4.7,4.3-10.8,9.4-13.2,11.1-.4-.2-.8-.5-1.2-.7-4-2.8-6.9-7.9-7.7-10.5-.2-.6-.3-1.1-.3-1.4.1-1,13.7-15.3,14.5-16,4.1-3.7,7.1-6.7,12.6-7.8.7-.2,2.3-.5,4.2-.9Z"/><path class="cls-7" d="M41.8,167.4h0c2.4.7,4.7,9.6,3.1,11.5-1.7,2.1-11.4,3-13,1.8-1.9-1.3.2-9,1.5-11,2.7-12.2,5.2-17.9,11.5-28.8,1.4-2.4,2.7-4.6,4-6,.9,2.6,3.7,7.7,7.7,10.5-3.2,2.5-1.9,1.4-3.2,2.4-4.7,8.5-8.2,12.5-11.6,19.5Z"/><path class="cls-1" d="M71.2,134.9s0,0-.1.1c-4.7,4.3-10.8,9.4-13.2,11.1-.4-.2-.8-.5-1.2-.7-4-2.8-6.9-7.9-7.7-10.5-.2-.6-.3-1.1-.3-1.4.1-1,13.7-15.3,14.5-16,4.1-3.7,7.1-6.7,12.6-7.8.7-.2,2.3-.5,4.2-.9,2.8-.5,6.5-1,9.9-.5"/><path class="cls-1" d="M49,135c-1.3,1.5-2.6,3.6-4,6-6.3,10.8-8.8,16.6-11.5,28.8"/><path class="cls-1" d="M56.7,145.4c-3.2,2.5-1.9,1.4-3.2,2.4-4.7,8.5-8.2,12.5-11.6,19.5,0,.2-.2.4-.3.5"/><path class="cls-1" d="M41.9,167.4c2.4.6,4.7,9.5,3.1,11.5-1.7,2.1-11.4,3-13,1.8-1.9-1.3.2-9,1.5-11"/><path class="cls-1" d="M112.1,114.7c.2.1.4.2.6.3,0,0,0,0,.1,0,3.1,1.6,9,4.1,11.9,6.9.7.6,1.2,1.3,1.4,2,4.2,10.5,6.1,29.1,5.6,29.6-.2.2-.8.1-1.7-.2-3.3-1-10.5-4.4-15-3.5-.2,0-.3,0-.5.1-.3-2.9-.9-5.3-1-10.2.5-5.8,1.3-13.6,4-16.1.2-.2.4-.4.6-.5,2-1.2,4.2-1.7,6.5-1.2.1,0,.2,0,.3,0"/><path class="cls-1" d="M125.8,161.1c-3.8,1.5-6.9,2.3-9.9,2.8-7.8,1.2-13.8-.5-24.7-1.7"/><path class="cls-1" d="M115.1,149.9c-11.2,3-10.1,1.4-18.9,3.2-.2,0-.5,0-.7.1"/><path class="cls-1" d="M96.2,153c0-1.4-2.3-3.4-5-4.9-1.7-1-3.6-1.8-5.2-2.1-1-.2-1.8-.2-2.4,0-2.9,1.4-6.5,12.4-5.7,14.6,1,2.6,10.6,2.3,13.2,1.4"/><path class="cls-1" d="M130,153.7c-.2,1.6-.5,3.2-1.2,4.5-1,2.1-2.2,2.2-3.1,2.9"/><path class="cls-1" d="M71,136.2c-2.1,24.2-3.8,35.9-.4,48.6,0,.3.2.6.3.9"/><path class="cls-1" d="M115.9,163.8s0,0,0,0c-.8,3,1.2,13.9,1.3,18.8h0"/><path class="cls-1" d="M87,206.8c8.7,1.8,28.8,5.2,37.3,6.2.5,0,1,.1,1.4.2,1.9.2,56.7,22.3,56.7,22,0-.6,0-1.3,0-2,.6-5.6,3.9-14.3,7-19.2.8-1.3,1.6-2.4,2.3-3,.3-.3-60-23.2-61.3-23.8-2.8-1.3-8.1-2.9-12.2-4.2-.3-.1-.7-.2-1-.3-1.4-.4-2.6-.8-3.4-1.1"/><path class="cls-1" d="M81.9,205.2c1.1.5,2.9,1,5.2,1.6"/><path class="cls-1" d="M87,206.8c5.4,7.4,13.8,17.9,16.2,24.4,1,2.8-7.7,65.2-7.3,66.5.4,0,.7,0,1.1.1,10.8,1.2,15.5.4,24.4-1.2.5,0,1-.2,1.5-.3,0-1.1,5.7-62.9,5.7-64,0-7.5-1.7-9.8-4.4-19.4"/><path class="cls-1" d="M70.8,180.8c-.1,1.4-.2,2.8-.1,4.1.3,11.6,6.5,18,11.2,20.4"/><path class="cls-1" d="M182.8,235.3c.9.5,2.1.1,3.1-.2,8.5-2.9,17.1-5.9,25.1-10.1,2.6-1.4,5.3-3,6.7-5.6.4-.8.7-1.6.8-2.5.2-2-.6-4-2.4-4.8-1.2-.5-2.7-.4-4-.3-7.9.7-14.8,1.5-22.7,2.3"/><path class="cls-1" d="M118.6,183.1c-.1,0-.3,0-.4,0-.3,0-.7-.1-1-.2-4.1-1-6.3-3.1-14.5-4.9-16.6-3.6-30.4-6.9-31.9,2.9"/><path class="cls-2" d="M80.4,109.1s0,0,0,0c-1,1.2-1.8,2.3-2.5,3.2-2.2,3-3.3,5.3-4.7,10.6-.9,3.2-1.7,8.9-1.9,12.1,0,.4,0,.9,0,1.2,0,.3,0,.5,0,.7"/><path class="cls-1" d="M97,297.9c-.7,2.8-.9,4.9-1,7.5,0,.4,0,.7,0,1.1,0,.7,0,1.5.5,2.1.6.8,1.8,1,2.9,1.1,8.9,1,18.6,4.6,27.7,4.2,2.9-.1,6.1-.5,8.4-2.2.2-.2.4-.3.6-.5,1.9-1.8,2.7-4.9,1-6.8-.9-1-2.2-1.5-3.5-2-4-1.5-8-3.6-12.2-5.8"/><path class="cls-1" d="M112.7,115.1c-1.1.5-2.4,1.7-3.9,3-1.6,1.5-3.4,3.2-5,4.2-4.5,3.7-12.6-1-13.9-8.8,0-.5-.1-1-.2-1.5"/><path class="cls-1" d="M113,114.9c0,0-.2,0-.2,0,0,0,0,0,0,0"/><path class="cls-2" d="M96.5,305.4c12.9,3.8,27.7,6.9,39.6,5.8"/><path class="cls-2" d="M182.7,233.2c12.7-3.4,24.7-9,35.5-16.4"/><path class="cls-1" d="M114.9,115.3c-.4,0-1.1,0-2-.2,0,0-.1,0-.2,0-4.2-1-12.5-4.7-19.2-11.8"/><path class="cls-1" d="M135.1,81.8c-1.3,4.2-3.3,7.5-4,9.8-.6,1.9-.6,9.9-8,17.9,0,0-4.3,5.1-8.2,5.7"/><path class="cls-1" d="M130.9,84.4c-1.1-1.7-3.3-2.4-4.7-1.4"/><path class="cls-1" d="M107.9,78.7c3.6-1,7.1-.4,8.3,1.4"/><path class="cls-1" d="M123.5,98.6c-.2,4-8.7,1.6-9.9.2"/><path class="cls-1" d="M125.8,89.8c-.3,1.4,0,2.7.9,2.9.8.2,1.8-.8,2.1-2.2.3-1.4,0-2.7-.9-2.9-.8-.2-1.7.8-2.1,2.2Z"/><path class="cls-1" d="M109.9,86.2c-.3,1.4.1,2.6,1,2.8.8.2,1.8-.8,2.1-2.1.3-1.4-.1-2.6-.9-2.8-.9-.2-1.8.8-2.1,2.1Z"/><path class="cls-1" d="M120.2,105.5c-4.4-.5-7.3-2.1-11.1-4.7-.3-.2-.6-.4-.9-.6"/><path class="cls-1" d="M120.2,105.5c-2.6,7.5-12.8,3.2-11.3-4.4"/><path class="cls-1" d="M89.2,92.8c.3,1.4.5,3.5.7,5.8.3,3.3.5,7.1.4,9.9,0,1.5-.2,2.8-.5,3.5"/><path class="cls-1" d="M91.1,91.7c-.4.7-1.1,1.1-1.9,1-.5,0-1-.2-1.4-.4-2.5-1.3-3.8-4.8-3.4-7.8.2-1.7.9-3.5,2.3-4.4,1.4-.9,3.5-.5,4.1,1.1.5,1.2,1.7,2.3,3,2,1.3-.3,2.8-1.8,3.3-3,.4-1.1-1.1-2.1.2-3.3.8-.7,2-.8,3.1-.8,1.1,0,2.3-.1,3-.9,1.1-1.1.8-3.2,2.1-4.1,1.3-.9,3.1.2,4.2,1.3,1.1,1.1,2.6,2.4,4.1,1.9,1.5-.5,2.2-2.6,3.7-2.7,2.4-.2,2.6,4.1,5,4.9,1.8.6,3.5-1.2,5.4-1.3,2.1,0,3.5,2.2,4.7,3.9.6.8,1.5,2,2.7,2.7,1.4.7,3.1.7,5.2-1.5"/><path class="cls-1" d="M90.1,98.5c0,0-.2,0-.2,0-3.7,1-5.4-6.2-8.5-6.5-2.7-.3-3.2-4.8-2.6-7.5.3-1.5,1.1-3.4,0-4.4-.9-.8-1.3-2.2-2.3-2.7-1.9-.9-1.8-3.7-.8-5.5,1-1.8,1.6-1.7,1.7-3.8.2-3.3-3.3-6.5-1.8-9.5.9-1.8,3.4-2.3,4.7-3.9,1.1-1.2,1.3-3,1.4-4.6s1.4-2.3,2.4-3.6c.9-1.3,3-2.1,4.2-1,6.7-.4,6.2-6.2,10.5-4,2.5,1.3,4.4,1.5,8,.3,1.8-.6,3.6-1.6,5.5-1.3,2.7.5,4.5,3.4,7.3,3.7,2.9.4,5.8-1.4,8.1.4,2.1,1.8,1.1,5,3.2,6.8,1.6,1.3,5.9,1.8,7.4,3.2,1.9,1.8.6,4.1,1.4,6.5.6,1.7,2.3,2.7,3,4.3.8,1.7.6,3.6-.4,5.2-2.5,3.9-1.4,5.5-2.1,8.8"/><path class="cls-1" d="M86,146l1.7-6.7-3-.7.9-3.6c1.2.2,2.1.1,2.8-.2.7-.3,1.3-.9,1.8-1.8l4.5,1.1-3.6,14.1h0"/><path class="cls-1" d="M78.3,112.4c3.7-.9,7.8-.5,11.2,1.1"/><path class="cls-1" d="M108.7,118.1s0,0,0,0c3.6.3,7,2.4,8.8,5.6"/></svg>