<?xml version="1.0" encoding="UTF-8"?><svg id="oceania" xmlns="http://www.w3.org/2000/svg" width="235" height="321.9" viewBox="0 0 235 321.9"><defs><style>.cls-1{stroke-linecap:round;stroke-linejoin:round;}.cls-1,.cls-2{fill:none;stroke:#000;}.cls-2{stroke-miterlimit:10;}.cls-3,.cls-4,.cls-5,.cls-6,.cls-7,.cls-8,.cls-9,.cls-10{stroke-width:0px;}.cls-4{fill:#353638;}.cls-5{fill:#3d8e3d;}.cls-6{fill:#d7ad75;}.cls-7{fill:#a76541;}.cls-8{fill:#8c6849;}.cls-9{fill:#fff;}.cls-10{fill:#67b96a;}</style></defs><path class="cls-4" d="M14.8,299c-.2.7-.2,2.5-.1,4.2,2.2,1.7,10.1,1.9,29.3,1.1.4-1.4.7-3,.8-4.4-6.5.9-19.1-4.4-23.4-7v.2c-2.8,1.2-5.8,3.3-6.5,5.9Z"/><path class="cls-3" d="M14.6,303.3c0,1.7.4,3.3.8,3.8,1.1,1.1,2.9,1.3,4.6,1.3,5.2,0,10.4.1,15.6,0,1.9,0,5.5.3,6.9-1,.5-.5,1-1.7,1.4-3.1-19.2.8-27.1.7-29.3-1.1Z"/><path class="cls-5" d="M21.5,131.7c0,1.3.4,3,1.1,4.8,1.1,2.6,2.7,5.2,4.1,6.4,2.3,2.2,4.2,3.1,6.8,4.1.7.3,1.5.6,2.3.9,2.1-2.2,5-6,7.6-9.6,2.1-2.8,4-5.5,5.2-7.2,2-2.8,1.9-7.5.8-10.8,0,0,0,0,0,0-1.1-3.2-3.5-6-6.6-7.4l-.3-.7c-.5.2-1,.4-1.4.6-3.6,1.6-5.8,5.2-8.7,7.9-2.1,1.9-11,11.1-11,11.1Z"/><path class="cls-7" d="M25.5,154h0c.8-.8,6.5-5.7,8-7-2.6-1-4.5-2-6.8-4.1-1.3-1.2-3-3.8-4.1-6.4-3.2,3.2-9.5,9.5-10.8,12-2.9,5.2,2,16.7,5.9,21.2,2.9,3.3,9.6,8.6,12.2,12.3-1.3,2.9,1.8,7.1,3.9,9,1,.9,4.4,3,6.6,3.2,1.2,0,2-.4,2-1.9,1.1,0,3.5-1.3,2.2-2.9,1.3-.2,2.8-1.6,2-3.6,4.4-1,2.6-3.5.6-5.4.6-2.8-1.4-4-3.9-4.6-2.2-.6-4.7-.7-6.3-1.3h0c-5-2.4-6.3-11.8-8.1-15.4-1.1-2.2-2-3.8-3.1-5.1Z"/><path class="cls-6" d="M95.4,68.1c.5,1.2.9,2.7.2,2.9.5,0,.9.4,1.2.8.2.3.4.7.5,1.2l1-.4c1.1,0,2-1,2.4-2.1.4-1.2.3-2.5.7-3.6s1.6-2.3,1.9-3.7c.4-2.4-2.1-4.5-2-7,0-2.2,2.1-4,1.7-6.2-.3-1.9-2.3-3-3.2-4.7-1.2-2.5.4-5.7-.5-8.3-1-2.6-4.2-3.8-7-4.3-2.9-.5-6-.8-8.2-2.6-1.5-1.3-2.3-3.1-4-4.1-2.8-1.6-6.4-.1-9.6-.7-2.5-.5-4.7-2.3-7.3-2.1-3.4.3-5.3,3.8-8.4,5.3-2.1,1-2.8,1.1-5.1,1.5-2.3.4-4.8,1.3-5.6,3.4-.6,1.4-.3,3.1-1,4.5-1.3,2.4-5,2.7-6.7,4.9-2,2.6-.3,6.3-1.2,9.4-.4,1.6-1.5,2.9-2.3,4.3-.8,1.4-1.4,3.1-.8,4.6.9,2.2,3.8,2.9,4.9,5,.6,1.1.5,2.4.9,3.5.4,1.2,1.5,2.3,2.7,2h.7c.3-.4.7-.9,1.2-1.2,1.3-.8,3.2-.2,3.7,1.5.7,1.2,2.6.3,3.2-.9.6-1.2-1-2.9.1-3.7s3.2-.4,4.5-1.3c1.6-1.2,1.3-4.2,3.1-5.1,1.3-.7,3,.2,4.1,1.2,1.1,1,2.2,2.3,3.7,2.5,2.7.3,5.1-2.9,7.6-1.9,1.4.6,2.1,2.4,3.6,2.9,1.8.5,3.4-1.2,4.6-2.6s3.1-3,4.7-2c.9.5,1.3,1.6,2,2.4,1.1,1.2,2.8,1.6,4.4,2,1.6.4,2.5.4,3.3,1.8.1.3.3.6.4.9Z"/><path class="cls-7" d="M82.6,92.7h0c-1.5,3-3.2,4.5-6.7,5-2.2.3-6.6-.2-8.7-1.6-1.3-.9-2.2-1.4-3.2-2.6-.7-.8,0-2.1,1-1.8,4.7,1.3,13.1,2.6,17.6,1ZM74.7,107.7c2.8-1,5.2-3.3,8.4-5.9,4.7-3.9,8.7-9.9,10-16,0-.4.2-.9.2-1.3.8-4.8.8-8.6.8-9.4,0,0,0-.2,0-.3.6-2.9,1-4.7,1.3-6.8-.1-.3-.3-.6-.4-.9-.8-1.4-1.7-1.4-3.3-1.8-1.6-.4-3.3-.8-4.4-2-.7-.8-1.1-1.9-2-2.4-1.6-.9-3.5.6-4.7,2s-2.8,3.1-4.6,2.6c-1.5-.4-2.2-2.3-3.6-2.9-2.5-1-4.9,2.3-7.6,1.9-1.5-.2-2.6-1.5-3.7-2.5-1.1-1-2.7-1.9-4.1-1.2-1.8,1-1.4,3.9-3.1,5.1-1.3.9-3.2.4-4.5,1.3s.5,2.5-.1,3.7c-.6,1.2-2.5,2.1-3.2.9-.5-1.7-2.4-2.3-3.7-1.5-.5.3-.9.7-1.2,1.3-.5.9-.8,2-.9,3.1,0,1.8.5,3.5,1.3,5.1.7,1.4,1.5,2.8,2.7,3.6.7.5,1.7.6,2.5.4h0c.7,3.8.7,5.6,1.7,7.3,2.1,5.1,4.7,6.5,7.5,8.8,9.5,7.5,14.4,9,18.5,7.6ZM61,74.7c0-2,.8-3.6,1.9-3.6s1.9,1.6,1.9,3.6-.8,3.6-1.9,3.6-1.9-1.6-1.9-3.6ZM84.6,74.5c0-1.7.7-3.1,1.5-3.1s1.5,1.4,1.5,3.1-.7,3.1-1.5,3.1-1.5-1.4-1.5-3.1Z"/><path class="cls-9" d="M42.6,112.2l.3.7c3.1,1.4,5.5,4.2,6.6,7.4h0c1.9-2.9,5.3-4.8,8.8-4.8l.2-.2c-1.1-1.5-2-3.1-2.4-4.3-2,0-7.4,0-8.7,0s-3.3.6-4.8,1.2Z"/><path class="cls-10" d="M49.5,120.4c1.1,3.2,1.2,8-.8,10.8-1.2,1.7-3.1,4.4-5.2,7.2l.8.6c0,0,.5,8.1.6,9.8.3,3.4.7,6.9.5,10.4-.3,4.8-1.8,12.3-2.2,16.7,2.5.7,4.5,1.8,3.9,4.6,2,2,3.7,4.4-.6,5.4.8,2-.7,3.4-2,3.6,1.3,1.6-1.1,2.9-2.2,2.9,1.6,3,20,6.8,24.3,7,4.9.2,22.2-2.1,25.3-2.2,0-.7,0-1.5,0-2.4,0-.3,0-.6,0-1h0c0-5.4-.6-12.5-1.2-19.5-.6-7.7-1.2-15.3-1.2-20.3s.5-9.5.7-14.7c.2-5,.2-9.9-.7-14-.4-1.7-.8-3.5-1.3-5.3h-.2c-3.5-3.2-8.2-5-13-4.9l-.7-.2c-1.4,4.8-4.6,8.9-8.8,6.9-2.2-1-4.9-3.7-6.9-6.5l-.2.2c-3.5,0-6.9,1.9-8.8,4.8h0s0,0,0,0ZM64.4,141.6v-3.7c1.4,0,2.4-.3,3.1-.7.7-.4,1.1-1.1,1.4-2.1l5,.2-.8,25.2-6-.2.6-18.5h-3.4Z"/><path class="cls-7" d="M56.1,111c.4,1.2,1.2,2.8,2.4,4.3,2,2.7,4.7,5.5,6.9,6.5,4.2,1.9,7.4-2.2,8.8-6.9.5-1.7.7-3.4.7-5,0-.8,0-1.5-.2-2.2-4.1,1.4-9-.1-18.5-7.6,0,3.7,0,7.1-.3,9.6,0,.4,0,.9.2,1.4Z"/><path class="cls-3" d="M62.8,71.1c-1,0-1.9,1.6-1.9,3.6s.8,3.6,1.9,3.6,1.9-1.6,1.9-3.6-.8-3.6-1.9-3.6Z"/><path class="cls-9" d="M65,91.8c-1-.3-1.7,1-1,1.8,1.1,1.2,1.9,1.7,3.2,2.6,2.1,1.4,6.5,1.9,8.7,1.6,3.6-.5,5.2-2.1,6.7-4.9h0c-4.5,1.5-12.9.2-17.6-1.1Z"/><path class="cls-9" d="M64.5,137.9v3.7c-.1,0,3.2.1,3.2.1l-.6,18.5,6,.2.8-25.2-5-.2c-.3,1-.8,1.7-1.4,2.1-.7.4-1.7.7-3,.7Z"/><path class="cls-9" d="M74.9,109.9c0,1.6-.2,3.3-.7,5l.7.2c4.8,0,9.5,1.8,13,5h.2c-.9-3.3-2-6.4-3.6-9.2v-.5c-2.9-.4-7.9-.7-9.6-.5Z"/><path class="cls-5" d="M86.1,110.6c-.4,0-.9-.2-1.6-.3v.5c1.5,2.8,2.7,6,3.6,9.2.5,1.8.9,3.6,1.3,5.3.9,4.1.9,9,.7,14h.2c1.2,1.3,3.1,4.2,5,7.7.5-.1.9-.3,1.3-.4,5.8-1.8,7.9-3.1,9.8-6.7.5-.9.9-1.9,1.4-3.1-4.1-4-9.5-16.9-13.8-20.8-2.7-2.4-4.3-4.5-7.8-5.3Z"/><path class="cls-4" d="M84.4,300.7c0,1.6,0,3.3.2,4.7h0c18.7.8,26.7.7,29.1-1,0-2.5-.4-5.4-.8-6.2-1.2-2.4-5.9-4.5-9.5-5.8v-.4c-6.1,3.6-7.4,12.6-19.1,8.7Z"/><path class="cls-3" d="M84.6,305.4h0c.2,1.2.6,2.2,1.1,2.5,1.4.8,18.7,1.4,23.5,1.1.5,0,3.3-.6,3.7-.8.6-.3.8-1.9.8-3.8-2.4,1.6-10.4,1.8-29.1,1Z"/><path class="cls-3" d="M86.1,71.4c-.8,0-1.5,1.4-1.5,3.1s.7,3.1,1.5,3.1,1.5-1.4,1.5-3.1-.7-3.1-1.5-3.1Z"/><path class="cls-7" d="M103,156.7c-1.6,2.7-2.5,5.8-3.9,8.4-1,2-2.2,3.4-3.6,5.1-.9,1.1-3.2,3.7-3.2,3.9h-1.7c.6,7.2,1.1,14.3,1.2,19.6,1.7-.4,3.7-.6,4.7-3.5.8-2.2,1.2-4.1,2-6.3,1.7-5.1,5.2-8,9.1-12.1,5.3-5.5,10.5-12.5,5.9-19.5-.8-1.1-5.2-9.1-7.1-12.6-1.9,3.7-4,5-9.8,6.7,1.4,2.6,6.1,10.3,6.5,10.1Z"/><path class="cls-4" d="M44.6,299.9c.1,0,.2,0,.3,0,0,0,0,0,0,0,.2-.4,5.2-26.7,8.1-51.4,1.7-14.3,7.7-27.8,11.7-35.6l1.3.5c-1.6.2,4.4,11.3,8.7,33.7,4,20.6,9.2,51.9,9.3,53.6,0,0,.2,0,.3,0,11.7,3.8,13-5.2,19-8.7.6-.4,1.3-.7,2-.9,0-3.7-3.7-25.2-6-46.2-2.3-20.8-5.3-35.4-5.8-38.4-.9-5.3-1.4-6.6-1.8-11.8,0,.9,0,1.7,0,2.4-3.1,0-20.4,2.4-25.3,2.2-4.3-.2-22.7-4-24.3-7,0,1.5-.8,2-2,1.9-.7,3.9-3.1,25.1-9.2,47-6.4,23.2-10.4,35.2-10.9,50.9.2.2.6.5,1.2.8,4.3,2.5,16.9,7.8,23.4,7Z"/><path class="cls-7" d="M95.4,68.1c-.3,2.1-.7,3.9-1.3,6.8,0,0,0,.2,0,.3,0,.7,0,4.6-.8,9.4,1.7,1,4-2.5,4.4-5.1.3-1.9,0-3.8-.3-5.7,0-.3,0-.5-.2-.7-.1-.4-.2-.8-.5-1.2-.3-.4-.7-.7-1.2-.8-.1,0-.3,0-.5,0,.2,0,.3,0,.5,0,.7-.3.3-1.7-.2-2.9Z"/><path class="cls-8" d="M95.6,71c-.2,0-.3,0-.5,0,.2,0,.4,0,.5,0Z"/><path class="cls-2" d="M74.6,107.4c0,0,0,.2,0,.3.1.7.2,1.4.2,2.2,0,1.6-.2,3.3-.7,5-1.4,4.8-4.6,8.9-8.8,6.9-2.2-1-4.9-3.7-6.9-6.5-1.1-1.5-2-3.1-2.4-4.3-.2-.5-.3-1-.2-1.4.2-2.4.3-5.9.3-9.6"/><path class="cls-2" d="M74.9,109.9c1.7-.2,6.7,0,9.6.5.7,0,1.2.2,1.6.3,3.5.8,5.1,2.9,7.8,5.3,4.4,3.9,9.8,16.8,13.8,20.8-.5,1.2-.9,2.2-1.4,3.1-1.9,3.7-4,5-9.8,6.7-.4.1-.9.3-1.3.4"/><path class="cls-2" d="M56.6,111c-.1,0-.3,0-.5,0-2,0-7.4,0-8.7,0s-3.3.6-4.8,1.2c-.5.2-1,.4-1.4.6-3.6,1.6-5.8,5.2-8.7,7.9-2.1,1.9-11,11.1-11,11.1,0,1.3.4,3,1.1,4.8,1.1,2.6,2.7,5.2,4.1,6.4,2.3,2.2,4.2,3.1,6.8,4.1.7.3,1.5.6,2.3.9,2.1-2.2,5-6,7.6-9.6,2.1-2.8,4-5.5,5.2-7.2,2-2.8,1.9-7.5.8-10.8,0,0,0,0,0,0-1.1-3.2-3.5-6-6.6-7.4"/><path class="cls-2" d="M84.4,110.8c1.6,2.8,2.7,6,3.6,9.2.5,1.8.9,3.6,1.3,5.3.9,4.1.9,9,.7,14-.2,5.1-.7,10.3-.7,14.7s.6,12.6,1.2,20.3c.6,7,1.1,14.1,1.2,19.5,0,.3,0,.7,0,1,0,.9,0,1.7,0,2.4-3.1,0-20.4,2.4-25.3,2.2-4.3-.2-22.7-4-24.3-7"/><path class="cls-2" d="M44.2,139.1c0-.1,0-.2,0-.2,0,0,.5,8.1.6,9.8.3,3.4.7,6.9.5,10.4-.3,4.8-1.8,12.3-2.2,16.7,0,.1,0,.3,0,.4"/><path class="cls-2" d="M106.4,139.8h0c1.9,3.5,6.3,11.4,7.1,12.6,4.6,6.9-.6,14-5.9,19.5-3.9,4.1-7.5,7-9.1,12.1-.7,2.2-1.2,4.1-2,6.3-1,2.8-3,3.1-4.7,3.5h0"/><path class="cls-2" d="M96.5,146.6c1.4,2.6,6.1,10.3,6.5,10.1,0,0,0,0,0,0"/><path class="cls-2" d="M90.2,139.3c1.2,1.3,3.1,4.2,5,7.6"/><path class="cls-2" d="M107,152.3c-1.7,1.1-3,2.6-4,4.3-1.6,2.7-2.5,5.8-3.9,8.4-1,2-2.2,3.4-3.6,5.1-.9,1.1-3.2,3.7-3.2,3.9s0,0,0,0"/><path class="cls-2" d="M33.5,147c-1.5,1.3-7.2,6.2-8,7"/><path class="cls-2" d="M22.6,136.5c-3.2,3.2-9.5,9.5-10.8,12-2.9,5.2,2,16.7,5.9,21.2,2.9,3.3,9.6,8.6,12.2,12.3"/><path class="cls-2" d="M37.4,174.9c-.2,0-.5-.2-.7-.3-5-2.5-6.3-11.9-8.1-15.5-1.1-2.2-2-3.8-3.1-5.1-1.3-1.6-3-2.7-5.6-4.1"/><path class="cls-2" d="M44.8,178.2c.4.5,1.3,1.3,2.2,2.2,2,2,3.7,4.4-.6,5.4.8,2-.7,3.4-2,3.6,1.3,1.6-1.1,2.9-2.2,2.9,0,1.5-.8,2-2,1.9-2.2-.2-5.6-2.3-6.6-3.2-2-2-5.2-6.2-3.9-9"/><path class="cls-2" d="M36.8,174.5c1.6.5,4.2.7,6.3,1.3,2.5.7,4.5,1.8,3.9,4.6,0,0,0,0,0,0"/><path class="cls-2" d="M91.7,193.8c0,.3,0,.7,0,1,.4,5.1,1,6.5,1.8,11.8.5,3,3.5,17.6,5.8,38.4,2.3,21,6,42.5,6,46.2-.7.2-1.4.5-2,.9-6,3.6-7.3,12.6-19,8.7,0,0-.2,0-.3,0,0-1.7-5.3-33-9.3-53.6-4.3-22.4-10.3-33.5-8.7-33.7"/><path class="cls-2" d="M68.4,206.1c-.4.8-1.8,3.2-3.6,6.7-4,7.8-10,21.4-11.7,35.6-2.9,24.7-7.9,51-8.1,51.4,0,0,0,0,0,0,0,0-.2,0-.3,0-6.5.9-19.1-4.4-23.4-7-.6-.3-1-.6-1.2-.8.5-15.6,4.5-27.7,10.9-50.9,6.1-22,8.5-43.1,9.2-47h0v-.2"/><path class="cls-2" d="M72.2,202.4c-2.1,1.9-2.7,2.6-3.8,3.7"/><path class="cls-2" d="M56.2,100c-2.8-2.3-5.4-3.7-7.5-8.8"/><path class="cls-1" d="M95.4,68.1c-.3,2.1-.7,3.9-1.3,6.8,0,0,0,.2,0,.3,0,.7,0,4.6-.8,9.4,0,.4-.2.8-.2,1.3-1.3,6.1-5.3,12.1-10,16-3.2,2.7-5.6,5-8.4,5.9-4.1,1.4-9-.1-18.5-7.6"/><path class="cls-1" d="M90.7,68.1c-1.1-.9-7-1.1-8.1-.6"/><path class="cls-1" d="M66.5,67.1c-2.1-1.1-7.7-.4-8.1.5"/><path class="cls-1" d="M84.6,74.5c0,1.7.7,3.1,1.5,3.1s1.5-1.4,1.5-3.1-.7-3.1-1.5-3.1-1.5,1.4-1.5,3.1Z"/><path class="cls-1" d="M61,74.7c0,2,.8,3.6,1.9,3.6s1.9-1.6,1.9-3.6-.8-3.6-1.9-3.6-1.9,1.6-1.9,3.6Z"/><path class="cls-1" d="M80.7,88.2c-2.3,2.4-5.8,2.3-10.6.9"/><path class="cls-1" d="M83.1,92.5c-.2,0-.3.1-.5.2-4.5,1.7-12.9.3-17.6-1-1-.3-1.7,1-1,1.8,1.1,1.2,1.9,1.7,3.2,2.6,2.1,1.4,6.5,1.9,8.7,1.6,3.6-.5,5.2-2.1,6.7-4.9"/><path class="cls-2" d="M46.9,84c.7,3.7.7,5.6,1.7,7.2"/><path class="cls-2" d="M46.3,72c-.5-1.7-2.4-2.3-3.7-1.5-.5.3-.9.7-1.2,1.3-.5.9-.8,2-.9,3.1,0,1.8.5,3.5,1.3,5.1.7,1.4,1.5,2.8,2.7,3.6.7.5,1.7.6,2.5.4.5-.1,1-.4,1.3-.8"/><path class="cls-1" d="M97.2,73c0,.2.1.5.2.7.4,1.9.6,3.8.3,5.7-.4,2.5-2.7,6.1-4.4,5.1h0"/><path class="cls-2" d="M95.6,71c.5,0,.9.4,1.2.8.2.3.4.7.5,1.2"/><path class="cls-1" d="M95.1,71c.2,0,.3,0,.5,0"/><path class="cls-2" d="M46.3,72c.7,1.2,2.6.3,3.2-.9.6-1.2-1-2.9.1-3.7s3.2-.4,4.5-1.3c1.6-1.2,1.3-4.2,3.1-5.1,1.3-.7,3,.2,4.1,1.2,1.1,1,2.2,2.3,3.7,2.5,2.7.3,5.1-2.9,7.6-1.9,1.4.6,2.1,2.4,3.6,2.9,1.8.5,3.4-1.2,4.6-2.6s3.1-3,4.7-2c.9.5,1.3,1.6,2,2.4,1.1,1.2,2.8,1.6,4.4,2,1.6.4,2.5.4,3.3,1.8.1.3.3.6.4.9.5,1.2.9,2.7.2,2.9-.1,0-.3,0-.5,0"/><path class="cls-2" d="M40.6,71.6c-1.2.3-2.4-.8-2.7-2-.4-1.2-.4-2.4-.9-3.5-1.1-2.1-4-2.8-4.9-5-.6-1.5,0-3.2.8-4.6.8-1.4,1.9-2.7,2.3-4.3.9-3.1-.8-6.8,1.2-9.4,1.7-2.2,5.5-2.4,6.7-4.9.7-1.4.4-3.1,1-4.5.8-2.1,3.3-3.1,5.6-3.4,2.3-.4,3-.5,5.1-1.5,3-1.5,5-5,8.4-5.3,2.5-.2,4.8,1.6,7.3,2.1,3.2.6,6.8-.9,9.6.7,1.7,1,2.6,2.8,4,4.1,2.2,1.9,5.3,2.1,8.2,2.6,2.9.5,6.1,1.7,7,4.3,1,2.7-.7,5.8.5,8.3.8,1.7,2.9,2.8,3.2,4.7.4,2.1-1.7,4-1.7,6.2,0,2.4,2.5,4.5,2,7-.2,1.4-1.4,2.4-1.9,3.7s-.4,2.4-.7,3.6c-.3,1-1.3,2.1-2.4,2.1s-.3,0-.4,0"/><path class="cls-1" d="M73.2,160.4l-6-.2.6-18.5h-3.4c0-.1.1-3.8.1-3.8,1.3,0,2.3-.3,3-.7.7-.4,1.1-1.1,1.4-2.1l5,.2-.8,25.2Z"/><path class="cls-2" d="M58.2,115.5c-3.5,0-6.9,1.9-8.8,4.8"/><path class="cls-2" d="M74.9,115.1c4.8,0,9.5,1.8,13,5"/><path class="cls-1" d="M21.2,293.1c-2.7,1.2-5.7,3.3-6.4,5.9-.2.7-.2,2.5-.1,4.2,0,1.7.4,3.3.8,3.8,1.1,1.1,2.9,1.3,4.6,1.3,5.2,0,10.4.1,15.6,0,1.9,0,5.5.3,6.9-1,.5-.5,1-1.7,1.4-3.1.4-1.4.7-3,.8-4.4,0-.2,0-.3,0-.5"/><path class="cls-1" d="M84.4,300c0,.2,0,.5,0,.7,0,1.6,0,3.3.2,4.7.2,1.2.6,2.2,1.1,2.5,1.4.8,18.7,1.4,23.5,1.1.5,0,3.3-.6,3.7-.8.6-.3.8-1.9.8-3.8,0-2.5-.4-5.4-.8-6.2-1.2-2.4-5.9-4.5-9.5-5.8"/><path class="cls-1" d="M14.6,303.2s0,0,0,0c2.2,1.7,10.1,1.9,29.3,1.1"/><path class="cls-1" d="M113.9,304.3c0,0-.1.1-.2.2-2.4,1.6-10.4,1.8-29.1,1"/></svg>