<?xml version="1.0" encoding="UTF-8"?><svg id="oceania" xmlns="http://www.w3.org/2000/svg" width="235" height="321.9" viewBox="0 0 235 321.9"><defs><style>.cls-1{stroke-linecap:round;stroke-linejoin:round;}.cls-1,.cls-2{fill:none;stroke:#000;}.cls-2{stroke-miterlimit:10;}.cls-3,.cls-4,.cls-5,.cls-6,.cls-7,.cls-8,.cls-9,.cls-10{stroke-width:0px;}.cls-4{fill:#4a62ba;}.cls-5{fill:#2b388d;}.cls-6{fill:#423b38;}.cls-7{fill:#cb9686;}.cls-8{fill:#fff;}.cls-9{fill:#ea1e79;}.cls-10{fill:#003580;}</style></defs><path class="cls-7" d="M14.2,141.8c3.8-7.8,7.7-12.4,12.8-21.4.6-1,1.5-1.8,2.3-2.7,1-1,2.1-2,3.2-3.1-5-1.4-8.9-6.4-8.8-11.7-2.2,2.9-4.3,5.8-5.8,7.9-8.4,12-10.3,19.5-13.4,33.8-1.5,2.3-4,11.3-1.8,12.9,1.9,1.3,13.2.3,15.2-2.2,1.8-2.3-.8-12.7-3.6-13.5h-.1Z"/><path class="cls-5" d="M23.7,102.9c0,5.2,3.7,10.3,8.8,11.7,5.2-5.2,10.4-10.9,13.3-13.1,0-6.6.8-12.9,1.6-17.4.5-2.6.9-4.6,1.2-5.7-.4.1-.7.2-.8.3-4.6,2.2-15.7,13.9-16.1,14.5-2.2,2.5-5.1,6.2-7.9,9.8Z"/><path class="cls-4" d="M45.8,101.5c0,5,.5,10.1,1.9,14.7.4,4.7,1.1,11,.9,14.9,0,1.4-1.3,13.4-2.1,20.8h.1c5.7-2,17.4-.2,23.5,1.1,1.2,0,2.4.1,3.7.2,3.3.2,6.8.4,10,0,3.1-.4,5.6-1.9,8.6-2-.1-.6-.3-1.2-.4-1.8-.7-2.7-1.3-4.4-1.7-6.7-4.1,1.2-8.7,2.1-14.3,3.1-2.5,1.8-12.4,5-14.3,2.6-1.6-2-1.2-14.7,1.5-17.1,2.4-2.2,14.3.3,15.3,3.4h0c4.4-2.2,7.6-3.4,11-4.8,0-5.6.8-8.3,1.6-12.5.8-4.4,1.2-4,1.8-8.4h.2c-2.1-7.6-2-11.6-1.8-17.9h0c0-1.5.3-3.2.8-4.9-4-2.7-8.6-4.9-13.3-5.7v-.2c-5.4,3.4-11.6,2.9-15.5-.5h-.1c-1.7.1-3.5.7-4.9,1.6h0c-.7,2-1.1,4.3-1.4,6.4-1.4,8.3-2.1,16.7-2.1,25.2-4-2.3-5.2-7.3-5.6-11.9-.7-8-.5-13.9.3-18.5-.4.3-1.2.8-1.6,1.1h-.3c-.8,4.4-1.6,10.7-1.6,17.3ZM72.4,125.1l-12.9-1.2c.4-3.8,1.2-6.7,2.5-8.9,1-1.8,2.7-3.6,4.9-5.3.9-.7,1.5-1.3,1.9-1.8.4-.5.6-1.1.6-1.8,0-.6,0-1.1-.3-1.5-.2-.4-.6-.6-1-.7-.6,0-1.2,0-1.7.4-.6.3-1.3,1-2.1,2.1l-2.9-3.5c1.1-1.5,2.1-2.6,3.2-3.2,1.2-.7,2.5-1,4-.8,1.9.2,3.3.9,4.3,2.2.9,1.3,1.3,2.9,1.1,5-.1,1.5-.5,2.8-1.1,3.9-.6,1.1-1.7,2.2-3.1,3.3-1.6,1.2-2.8,2.3-3.5,3.3-.6.9-1.1,1.8-1.3,2.9l7.9.7-.5,5Z"/><path class="cls-10" d="M180.8,192.7c.2-.5.3-1,.5-1.4-7.5-3.2-8.3-3.9-18.7-8.1-7.9-3.2-12-4.7-20-8-4-1.7-25.9-11.5-46.3-17.4-8.2-2.4-16.1-4.1-22.5-4.4-1.3,0-2.5-.2-3.7-.2-6-1.3-17.7-3.2-23.5-1.1h-.1c-.3,3-.6,5.4-.7,5.8.4,9.6,3.6,19.5,9.1,24.6,6.4,6,13.6,7.4,21.9,9.1.9.2,1.8.4,2.7.6,11.3,1.6,20.5,1.9,27.4,1.9,5.3,0,9.1,0,11.4.3,7.5,1,1.7-1.3,8.2,2,14.9,7.6,28.7,11.9,43.6,19.5.8-2.9,2.6-6.5,4.6-10.3,2.3-4.5,4.9-9.1,6.2-12.8Z"/><path class="cls-8" d="M48.6,78.3h0c-.3,1.1-.7,3.1-1.2,5.7h.3c.4-.2,1.2-.8,1.6-1.1.3-2,.8-3.7,1.3-5.3h0c-.2,0-1.2.3-1.9.6Z"/><path class="cls-6" d="M49.3,83c-.8,4.6-1,10.5-.3,18.5.4,4.6,1.6,9.6,5.6,11.9,0-8.4.7-16.9,2.1-25.2.4-2.2.7-4.4,1.4-6.5.6-1.8,1.4-3.4,2.6-4.8.3-.3.6-.6,1-.9h0c.7-1.6,1.7-5.7,2.4-9h-.4c-1-.2-3.6-2.3-6-5h0c-.8,5.1-4.7,8-7.2,15.6-.5,1.5-.9,3.3-1.3,5.3Z"/><path class="cls-6" d="M52.5,37.3c-1.4,6-.5,10.7.7,16.8.5,2.8,2.5,5.7,4.5,8.1,2.4,2.8,5,4.8,6,5h.4c.2-1.1.4-2.2.5-3-3.7-4.9-5.5-10.6-5.4-16-.6-.3-1.1-.8-1.5-1.4-.8-1.3-1-3-1.1-4.5,0-1.4,0-2.8.8-3.9.6-.7,1.5-1.1,2.4-1s1.7.7,2.1,1.6c7.8-13.2,21.4-15.9,28.3-11.8,5.2,3.1,8.8,3.8,9.7,11h.2c.6-.2,1.2-.3,1.8-.3,0-1.3,0-2.5,0-3.8-.2-4.9-1.5-9.8-7.5-14-7.8-6.6-22.1-7.4-30.5-2.1-6.9,4.3-9.4,11.1-11.3,19.4Z"/><path class="cls-7" d="M64.6,64.2c1,1.3,2.1,2.6,3.4,3.8,3.7,4.1,7.3,7.1,10.4,6.9.5,0,1-.2,1.5-.3,0-.1,0-.4,0,0,0,0,.1,0,.2,0,4.3-1.5,9.6-6.9,12.6-11,.7-1,1.3-1.9,1.7-2.6,1.8-3.4,2.5-7.8,2.8-10.4.1-1.2.2-2,.2-2,1.2-3.8,2.5-6.2,2.8-9.7,0-.2,0-.4,0-.6-.9-7.2-4.4-7.9-9.7-11-6.9-4.1-20.4-1.4-28.3,11.8-.4-.9-1.2-1.5-2.1-1.6s-1.8.3-2.4,1c-.8,1-.9,2.5-.8,3.9,0,1.6.3,3.2,1.1,4.5.4.6.9,1.1,1.5,1.4,0,5.4,1.7,11.1,5.4,16ZM73.9,36.5c-.1-.2,3.5-1.5,4.8-1.4,1,0,2.8.3,3.7,1.3,1.3,1.4,1.4,2.7.4,2.3-.9-.4-1.8-2.2-4.7-2.6-1.6-.2-4.2.5-4.3.4ZM87.1,64.2c-4.2,7.7-13.9-.9-11.5-5.3,5.7,3.3,8.7,5.3,11.5,5.3ZM77.5,48.2c-.8-.2-1.2-1.6-.9-3.1.3-1.5,1.3-2.6,2.1-2.3.8.2,1.2,1.6.8,3.1-.3,1.5-1.3,2.6-2.1,2.4ZM91.8,42.2c-.8-.2.1-1.1,1.6-1.5,1.1-.3,2.3.5,2.8.9.7.7,2,2.7,1.8,2.8-.1,0-1.2-1-2.2-1.7-1.7-1.2-3.4-.3-4-.5ZM92.6,52.7c-.8-.2-1.1-1.6-.8-3.2s1.3-2.7,2-2.5c.8.2,1.1,1.6.8,3.2-.4,1.6-1.3,2.7-2.1,2.5Z"/><path class="cls-8" d="M60.7,77c-1.2,1.3-2.1,3-2.6,4.8h0c1.4-.9,3.2-1.5,4.9-1.5h.1c-1-1-1.9-2.1-2.5-3.3Z"/><path class="cls-8" d="M59.4,123.9l12.9,1.2.5-5-7.9-.7c.2-1.1.7-2,1.3-2.9.7-1,1.9-2,3.5-3.3,1.4-1.1,2.5-2.2,3.1-3.3.6-1.1,1-2.3,1.1-3.9.2-2-.2-3.7-1.1-5-.9-1.3-2.4-2-4.3-2.2-1.5-.1-2.9.1-4,.8-1,.6-2.1,1.7-3.2,3.2l2.9,3.5c.8-1.1,1.5-1.8,2.1-2.1.5-.3,1.1-.5,1.7-.4.4,0,.8.3,1,.7.2.4.3.9.3,1.5,0,.7-.3,1.3-.6,1.8-.4.5-1,1.1-1.9,1.8-2.2,1.7-3.9,3.5-4.9,5.3-1.2,2.2-2.1,5.2-2.5,8.9Z"/><path class="cls-7" d="M61.8,76.2h0c-.4.2-.7.6-1,.9.6,1.2,1.5,2.3,2.5,3.2,3.9,3.4,10.2,3.9,15.4.5,1.4-.9,2.7-2.1,3.8-3.5h0c-.8-.3-1.6-.3-2.2-.3,0-1.3-.2-1.9-.3-2.3h0s0,0,0,0c-.5.2-1.1.3-1.5.3-3.1.3-6.6-2.8-10.4-6.9-1.3-1.2-2.4-2.5-3.4-3.8,0,.8-.3,1.9-.5,3-.6,3.3-1.7,7.3-2.4,9Z"/><path class="cls-7" d="M78.4,135h0c-1-3.2-12.9-5.7-15.3-3.5-2.6,2.3-3,15-1.5,17.1,1.9,2.4,11.9-.8,14.3-2.6,5.6-1,10.2-1.9,14.3-3.1,7.6-2.2,13.7-5.5,22-11.8,1.9-2.6,0-9.4-2.6-15.5-4.7.3-9.2,2.5-12.3,6.1.5,1.3,1,2.6,1.6,4-3.8,2.1-6.7,3.4-9.5,4.5-3.4,1.4-6.6,2.6-11,4.9Z"/><path class="cls-6" d="M78.7,35.1c-1.3,0-4.9,1.2-4.8,1.4,0,.1,2.6-.5,4.3-.4,2.9.4,3.8,2.2,4.7,2.6,1,.4.9-.9-.4-2.3-.9-1-2.8-1.3-3.7-1.3Z"/><path class="cls-8" d="M75.6,58.9c-2.4,4.4,7.3,13,11.5,5.3-2.8,0-5.8-2-11.5-5.3Z"/><path class="cls-3" d="M76.6,45.1c-.3,1.5,0,2.9.9,3.1.8.2,1.7-.8,2.1-2.4.3-1.5,0-2.9-.8-3.1-.8-.2-1.7.8-2.1,2.3Z"/><path class="cls-10" d="M83.7,153.3c-3.2.4-6.6.2-10,0,6.4.3,14.3,2.1,22.5,4.4-1.3-3.5-2.5-5.1-4.1-8.3h-.3c.1.6.3,1.2.4,1.9-3,.1-5.5,1.7-8.6,2Z"/><path class="cls-10" d="M79.4,192.2c-.9-.2-1.8-.4-2.7-.6,1.7,3.8,9.3,18.8,11.7,26,2,6,.3-1.4,0,7.8-.5,19.5-3.4,28-4.2,41.3,1.4,0,3-.2,4.8-.3,5.7-.4,12.7-1.3,18.5-2.8,1.6-.4,3-.8,4.4-1.3.2.7,2-8.9,1-32.4-.4-9.3-4.4-26.2-6.3-35.5v-.3c-6.9,0-16.1-.3-27.4-1.9Z"/><path class="cls-8" d="M78.6,80.7v.2c4.9.8,9.5,2.9,13.4,5.7.5-1.7,1.2-3.4,1.9-4.6l.3-.4c-2-1.6-4.3-2.9-6.5-3.4-1.5-.3-3.6-.8-5.3-1.1h0c-1.2,1.6-2.5,2.8-3.8,3.7Z"/><path class="cls-10" d="M85.1,304.1c-.2.9-.3,1.8,0,2.6.5,1.1,1.7,1.9,2.9,2.1,10.9,2.1,22.8,3.3,32.9,4.5,7.3.9,21.7-6.6,6.4-13.8-9.2-4.3-15.9-6.3-23.2-10.4h0c-.9-1.2-2-1.2-3.2-.4-.4.3-.8.6-1.1,1-.6.7-1,1.6-1.5,2.4-.7,1.3-1.6,2.6-2.9,3.2-2,.9-5.7-.9-6.9-3.1-.1-.2-.3-.5-.3-.8-1.7,3.5-2.2,8.8-2.9,12.6Z"/><path class="cls-8" d="M88.6,292.2h-.2c1.3,2.2,4.9,4,6.9,3.1,1.3-.6,2.2-1.9,2.9-3.2.5-.8.9-1.7,1.5-2.4h0c.9-2.5,1.8-5.1,2.7-7.8h-.3c-4.4.5-9-.3-12.9-2.3,0,4.3,0,8.5-.5,12.5Z"/><path class="cls-7" d="M89.1,266.5c-.2,4.2,0,8.6,0,13.1,4,2,8.5,2.8,12.9,2.2h.3c1.9-5.7,3.8-12,5.4-17.9v-.4c-6,1.5-12.9,2.4-18.6,2.8v.2Z"/><path class="cls-5" d="M97.3,121.6c3-3.6,7.6-5.8,12.3-6.1-1-2.5-2.2-4.9-3.1-6.9-2.6-5.4-6.5-21-8.7-23.8-.9-1.1-2.1-2.3-3.4-3.3l-.3.4c-.8,1.2-1.5,2.9-1.9,4.6-.5,1.6-.8,3.3-.8,4.9h0c-.3,6.3-.4,10.3,1.8,17.8.9,3.3,2.3,7.3,4.3,12.4Z"/><path class="cls-6" d="M93.4,40.7c-1.5.4-2.4,1.3-1.6,1.5.7.2,2.3-.7,4,.5,1,.7,2.1,1.8,2.2,1.7.2,0-1.1-2.2-1.8-2.8-.5-.5-1.7-1.2-2.8-.9Z"/><path class="cls-3" d="M91.8,49.5c-.4,1.6,0,3,.8,3.2s1.7-.9,2.1-2.5c.4-1.6,0-3-.8-3.2-.8-.2-1.7.9-2,2.5Z"/><path class="cls-6" d="M92.8,63.5h.2c2.6-2.9,3.8-3.3,6.8-12.6h0c-.1-.1-.2-.2-.3-.3-.2.5-.8.9-1.3.8s-.7-.4-.8-.9h0c-.3,2.5-1,6.9-2.8,10.3-.4.8-1,1.6-1.7,2.6Z"/><path class="cls-9" d="M101.9,37.9c-.6,0-1.2.1-1.8.3h-.2c0,.2,0,.4,0,.7-.2,3.6-1.5,5.9-2.8,9.7,0,0,0,.8-.2,2h0c0,.6.3.9.8,1s1.1-.3,1.3-.8c0,0,.2.1.3.2,1.4.7,4.1,0,3.9-1.5-.3-3,.6-2.8,1.5-4.7.8-1.8-2.2-2.4-1.1-4.1.4-.6,0-1.5-.5-2-.4-.4-.9-.6-1.5-.6Z"/><path class="cls-7" d="M174.6,205.5l.5.3c4.3.7,5.8,1,8.6,2l.2-.5c1.3-3.7,3.1-7.2,5.4-10.3-2.9-1.5-5.1-2.6-8.6-4.2-1.3,3.7-3.8,8.3-6.2,12.8Z"/><path class="cls-8" d="M183.9,207.3l-.2.5c1.1.4,2.5.9,4.3,1.7,0-.1,0-.3,0-.4,2,1.6,6.9,1.2,8.1-.9.8-1.2.7-2.8.6-4.2,0-1.1-.2-2.2,0-3.2h-.5c-2.9-1.5-5-2.7-6.9-3.6-2.3,3.2-4.1,6.7-5.4,10.3Z"/><path class="cls-10" d="M188.1,209.4c.7,3.7,3.2,8.2,4.6,11.6.3.8.7,1.7,1.5,2.2,1,.7,2.5.6,3.6.1,10.2-4.4,20.7-10.2,29.7-14.9,6.5-3.4,14.2-17.7-2.5-15-10,1.6-16.7,3.8-25,4.5h-.1c-1.4-.4-2.3.2-2.8,1.6-.1.4-.2.7-.3,1.1-.2,1.1,0,2.2,0,3.2.1,1.4.1,3-.6,4.2-1.3,2.1-6.2,2.6-8.1.9,0,.1,0,.3,0,.4Z"/><path class="cls-2" d="M61.7,76.4c0,0,0-.1,0-.2.7-1.7,1.7-5.7,2.4-9,.2-1.1.4-2.2.5-3,0,0,0,0,0,0"/><path class="cls-2" d="M80,74.6c0,.3.2,1,.3,2.3"/><path class="cls-2" d="M80,74.6s0,0,0,0c0-.1,0-.4,0,0,0,0,0,0,0,0"/><line class="cls-2" x1="80" y1="74.6" x2="80" y2="74.6"/><path class="cls-2" d="M80.3,74.3c0,0,0,.1,0,.2,0,0-.1.1-.1.1"/><polyline class="cls-2" points="48.6 78.3 48.6 78.3 48.6 79.2"/><path class="cls-2" d="M70.1,153.1c-6-1.3-17.7-3.2-23.5-1.1"/><path class="cls-2" d="M90.1,142.4c0,.1,0,.3,0,.4.4,2.3,1,4,1.7,6.7.1.6.3,1.1.4,1.8-3,.1-5.5,1.7-8.6,2-3.2.4-6.6.2-10,0-1.3,0-2.5-.2-3.7-.2"/><path class="cls-2" d="M92.8,109.2c-.6,4.4-1,3.9-1.8,8.4-.8,4.2-1.6,6.9-1.6,12.5h0"/><path class="cls-2" d="M47.7,116.2c.4,4.7,1.1,11,.9,14.9,0,1.4-1.3,13.4-2.1,20.8-.3,3.1-.6,5.4-.7,5.9"/><path class="cls-2" d="M91.3,91.4c0-1.5.3-3.2.8-4.9.5-1.7,1.2-3.4,1.9-4.6"/><path class="cls-1" d="M91.3,92.7c0-.4,0-.9,0-1.3"/><path class="cls-2" d="M47.7,116.2c-1.3-4.6-1.8-9.8-1.9-14.7,0-6.6.8-12.9,1.6-17.4.5-2.6.9-4.6,1.2-5.7,0,0,0,0,0,0"/><path class="cls-2" d="M79.4,192.2c11.3,1.6,20.5,1.9,27.4,1.9,5.3,0,9.1,0,11.4.3,7.5,1,1.7-1.3,8.2,2,14.9,7.6,28.7,11.9,43.6,19.5.8-2.9,2.6-6.5,4.6-10.3,2.3-4.5,4.9-9.1,6.2-12.8.2-.5.3-1,.5-1.4-7.5-3.2-8.3-3.9-18.7-8.1-7.9-3.2-12-4.7-20-8-4-1.7-25.9-11.5-46.3-17.4-8.2-2.4-16.1-4.1-22.5-4.4"/><path class="cls-2" d="M106.8,194.4c1.9,9.2,5.9,26.2,6.3,35.5,1,23.5-.9,33-1,32.4"/><path class="cls-2" d="M92.2,149.4c1.6,3.3,2.7,4.8,4.1,8.3.1.3.2.5.3.8"/><path class="cls-2" d="M76.8,191.6c1.7,3.8,9.3,18.8,11.7,26,2,6,.3-1.4,0,7.8-.5,19.5-3.4,28-4.2,41.3,1.4,0,3-.2,4.8-.3,5.7-.4,12.7-1.3,18.5-2.8,1.6-.4,3-.8,4.4-1.3"/><path class="cls-1" d="M50.5,77.8c-.2,0-1.2.3-1.9.6h0c-.4.1-.7.2-.8.3-4.6,2.2-15.7,13.9-16.1,14.5-2.2,2.5-5.1,6.2-7.9,9.8-2.2,2.9-4.3,5.8-5.8,7.9-8.4,12-10.3,19.5-13.4,33.8"/><path class="cls-1" d="M45.8,101.5h0c-2.8,2.3-8.1,8-13.3,13.1-1.1,1.1-2.1,2.1-3.2,3.1-.9.8-1.7,1.6-2.3,2.7-5.1,9-8.9,13.6-12.8,21.4-.1.2-.2.4-.3.6"/><path class="cls-1" d="M14.4,141.9c2.8.8,5.5,11.2,3.6,13.5-2,2.5-13.3,3.5-15.2,2.2-2.2-1.5.3-10.6,1.8-12.9"/><path class="cls-1" d="M112.2,131c-8.3,6.4-14.4,9.6-22,11.8-4.1,1.2-8.7,2.1-14.3,3.1-.1,0-.2,0-.3,0"/><path class="cls-1" d="M102.2,123.7c-1.2.7-2.3,1.4-3.3,1.9-3.8,2.1-6.7,3.4-9.5,4.5-3.4,1.4-6.6,2.6-11,4.9-.2.1-.5.2-.7.4"/><path class="cls-1" d="M78.4,134.9c-1-3.1-12.9-5.6-15.3-3.4-2.6,2.3-3,15-1.5,17.1,1.9,2.4,11.9-.8,14.3-2.6"/><path class="cls-1" d="M87.8,78.1c2.1.5,4.5,1.8,6.5,3.4,1.3,1,2.5,2.2,3.4,3.3,2.3,2.9,6.1,18.5,8.7,23.8,1,2,2.1,4.4,3.1,6.9,2.5,6.1,4.5,12.8,2.6,15.5"/><path class="cls-1" d="M97.3,121.6c.5,1.3,1,2.6,1.6,4"/><path class="cls-1" d="M91.2,91.4c-.3,6.3-.4,10.3,1.8,17.8.9,3.3,2.3,7.3,4.3,12.4"/><path class="cls-2" d="M45.8,157.8c.4,9.6,3.6,19.5,9.1,24.6,6.4,6,13.6,7.4,21.9,9.1.9.2,1.8.4,2.7.6"/><path class="cls-2" d="M80.3,76.8c.6,0,1.3,0,2.2.2,1.8.3,3.9.7,5.3,1.1"/><path class="cls-1" d="M175.1,205.7c4.3.7,5.8,1,8.6,2,1.1.4,2.5.9,4.3,1.7.5.2,1.1.4,1.7.6"/><path class="cls-1" d="M180.5,192.6c.1,0,.2.1.3.1,3.5,1.6,5.7,2.7,8.6,4.2,1.8,1,4,2.1,6.9,3.6"/><path class="cls-2" d="M60.7,76.9c0,0,0,.1,0,.1.6,1.2,1.5,2.3,2.5,3.2,3.9,3.4,10.2,3.9,15.4.5,1.4-.9,2.7-2.1,3.8-3.5"/><path class="cls-1" d="M96.2,41.7c.7.7,2,2.7,1.8,2.8-.1,0-1.2-1-2.2-1.7-1.7-1.2-3.4-.3-4-.5-.8-.2.1-1.1,1.6-1.5,1.1-.3,2.3.5,2.8.9Z"/><path class="cls-1" d="M78.7,35.1c-1.3,0-4.9,1.2-4.8,1.4,0,.1,2.6-.5,4.3-.4,2.9.4,3.8,2.2,4.7,2.6,1,.4.9-.9-.4-2.3-.9-1-2.8-1.3-3.7-1.3Z"/><path class="cls-1" d="M100.1,38.8c-.2,3.6-1.5,5.9-2.8,9.7,0,0,0,.8-.2,2-.3,2.5-1,6.9-2.8,10.4-.4.8-1,1.6-1.7,2.6-3,4.1-8.3,9.4-12.6,11,0,0-.1,0-.2,0,0,0,0,0,0,0-.5.2-1.1.3-1.5.3-3.1.3-6.6-2.8-10.4-6.9"/><path class="cls-1" d="M88.3,54.7c.7.8-.3,7.3-5.7,3.3"/><path class="cls-1" d="M91.8,49.5c-.4,1.6,0,3,.8,3.2s1.7-.9,2.1-2.5c.4-1.6,0-3-.8-3.2-.8-.2-1.7.9-2,2.5Z"/><path class="cls-1" d="M76.6,45.1c-.3,1.5,0,2.9.9,3.1.8.2,1.7-.8,2.1-2.4.3-1.5,0-2.9-.8-3.1-.8-.2-1.7.8-2.1,2.3Z"/><path class="cls-1" d="M87.1,64.2c-2.8,0-5.8-2-11.5-5.3"/><path class="cls-1" d="M87.1,64.2c-4.2,7.7-13.9-.9-11.5-5.3"/><path class="cls-1" d="M59.3,48.1h0c0,5.5,1.7,11.2,5.4,16.1,1,1.3,2.1,2.6,3.4,3.8"/><path class="cls-1" d="M62.1,38.9c-.4-.9-1.2-1.5-2.1-1.6s-1.8.3-2.4,1c-.8,1-.9,2.5-.8,3.9,0,1.6.3,3.2,1.1,4.5.4.6.9,1.1,1.5,1.4.7.4,1.5.6,2.3.3"/><path class="cls-1" d="M100.1,38.8c0-.2,0-.4,0-.6-.9-7.2-4.4-7.9-9.7-11-6.9-4.1-20.4-1.4-28.3,11.8"/><path class="cls-1" d="M94.3,20c-7.8-6.6-22.1-7.4-30.5-2.1-6.9,4.3-9.4,11.1-11.3,19.4-1.4,6-.5,10.7.7,16.8.5,2.8,2.5,5.7,4.5,8.1,2.4,2.8,5,4.8,6,5"/><path class="cls-1" d="M99.7,50.9c-3,9.3-4.2,9.7-6.8,12.7"/><path class="cls-1" d="M94.3,20c6,4.3,7.3,9.2,7.5,14,0,1.4.1,2.6,0,3.8,0,0,0,.2,0,.3"/><path class="cls-1" d="M57.7,62.2c-.8,5.1-4.7,8-7.2,15.6-.5,1.5-.9,3.3-1.3,5.3-.8,4.6-1,10.5-.3,18.5.4,4.6,1.6,9.6,5.6,11.9,0-8.4.7-16.9,2.1-25.2.4-2.2.7-4.4,1.4-6.5.6-1.8,1.4-3.4,2.6-4.8.3-.3.6-.6,1-.9"/><path class="cls-1" d="M100.2,38.1c.6-.1,1.2-.3,1.8-.3.6,0,1.1.2,1.5.6.5.5.9,1.4.5,2-1.1,1.6,1.9,2.3,1.1,4.1-.9,2-1.8,1.7-1.5,4.7.2,1.4-2.5,2.2-3.9,1.5-.1,0-.2-.1-.3-.2-.2.5-.8.9-1.3.8s-.7-.4-.8-.9"/><path class="cls-1" d="M72.4,125.1l-12.9-1.2c.4-3.8,1.2-6.7,2.5-8.9,1-1.8,2.7-3.6,4.9-5.3.9-.7,1.5-1.3,1.9-1.8.4-.5.6-1.1.6-1.8,0-.6,0-1.1-.3-1.5-.2-.4-.6-.6-1-.7-.6,0-1.2,0-1.7.4-.6.3-1.3,1-2.1,2.1l-2.9-3.5c1.1-1.5,2.1-2.6,3.2-3.2,1.2-.7,2.5-1,4-.8,1.9.2,3.3.9,4.3,2.2.9,1.3,1.3,2.9,1.1,5-.1,1.5-.5,2.8-1.1,3.9-.6,1.1-1.7,2.2-3.1,3.3-1.6,1.2-2.8,2.3-3.5,3.3-.6.9-1.1,1.8-1.3,2.9l7.9.7-.5,5Z"/><path class="cls-1" d="M23.7,102.8h0c0,5.3,3.7,10.4,8.8,11.8.1,0,.2,0,.4,0"/><path class="cls-1" d="M97.3,121.6h0c.1-.2.3-.4.4-.5"/><path class="cls-1" d="M109.7,115.5s0,0,0,0c-4.7.3-9.2,2.5-12.3,6.1"/><path class="cls-2" d="M78.7,80.9c4.7.8,9.3,2.9,13.3,5.7,0,0,0,0,.1,0"/><path class="cls-2" d="M63.1,80.4c-1.7,0-3.5.5-4.9,1.5"/><path class="cls-2" d="M49.3,83s0,0,0,0c-.4.3-1.2.8-1.6,1.1"/><path class="cls-1" d="M107.7,264c-1.6,5.9-3.5,12.2-5.4,18-.9,2.7-1.8,5.4-2.7,7.8"/><path class="cls-1" d="M89.1,266.5c-.2,4.2,0,8.6,0,13.1,0,4.3,0,8.5-.5,12.5"/><path class="cls-1" d="M88,291.5c0,.3.2.5.3.8,1.3,2.1,4.9,4,6.9,3.1,1.3-.6,2.2-1.9,2.9-3.2.5-.8.9-1.7,1.5-2.4.3-.4.7-.7,1.1-1,1.2-.8,2.3-.9,3.2.3"/><path class="cls-1" d="M88,291.5c-1.7,3.5-2.2,8.8-2.9,12.6-.2.9-.3,1.8,0,2.6.5,1.1,1.7,1.9,2.9,2.1,10.9,2.1,22.8,3.3,32.9,4.5,7.3.9,21.7-6.6,6.4-13.8-9.2-4.3-15.9-6.3-23.2-10.4"/><path class="cls-1" d="M89,279.6s0,0,0,0c4,2,8.5,2.8,12.9,2.2"/><path class="cls-1" d="M188,208.9c2,1.6,6.9,1.2,8.1-.9.8-1.2.7-2.8.6-4.2,0-1.1-.2-2.2,0-3.2,0-.4.1-.7.3-1.1.5-1.3,1.4-2,2.8-1.6"/><path class="cls-1" d="M188,208.9c0,.1,0,.3,0,.4.7,3.7,3.2,8.2,4.6,11.6.3.8.7,1.7,1.5,2.2,1,.7,2.5.6,3.6.1,10.2-4.4,20.7-10.2,29.7-14.9,6.5-3.4,14.2-17.7-2.5-15-10,1.6-16.7,3.8-25,4.5"/><path class="cls-2" d="M189.4,196.8s0,0,0,.1c-2.3,3.2-4.1,6.7-5.4,10.3"/></svg>