<?xml version="1.0" encoding="UTF-8"?><svg id="oceania" xmlns="http://www.w3.org/2000/svg" width="235" height="321.9" viewBox="0 0 235 321.9"><defs><style>.cls-1{fill:none;stroke:#000;stroke-linecap:round;stroke-linejoin:round;}.cls-2,.cls-3,.cls-4,.cls-5,.cls-6,.cls-7,.cls-8,.cls-9{stroke-width:0px;}.cls-3{fill:#4a62ba;}.cls-4{fill:#2b388d;}.cls-5{fill:#423b38;}.cls-6{fill:#cb9686;}.cls-7{fill:#fff;}.cls-8{fill:#ea1e79;}.cls-9{fill:#003580;}</style></defs><path class="cls-6" d="M103.2,116.9l-.3-.2c-.3.3-2.3-2.7-4.9-6.6h0s0,0,0,0l.5-.5h0c3.2-3.5,6.3-5.3,10.8-6.9,2.7,5.1,4.7,9,5.3,9.8,5,7.9-.8,13.9-6.6,20.2-4.2,4.7-8.1,8-9.9,13.8-.8,2.5-1.3,4.7-2.1,7.2-1.1,3.3-3.3,3.5-5.2,4h-.2c-.2-1-.4-1.8-.5-2.6-.2-.9-.4-1.6-.6-2.3-.9-4.6-1.6-8.9-2.2-12.9,1.7-1.9,6.7-7.8,7.7-9.1,1.5-1.9,2.8-3.5,3.9-5.8,1.4-3,2.5-5.7,4.2-8.2Z"/><path class="cls-4" d="M109.4,102.7c-4.5,1.5-7.7,3.3-10.8,6.9h0s-.5.5-.5.5t0,0h0c-3.8-5.7-8.6-13.5-10.3-15.8.3-7.7-.5-16.5-1.8-22-.6-2.6-1.2-4.4-1.9-5.1v-.2c1.1.2,1.9.3,2.5.6,4.3,1,15.9,22.1,22.8,35.1Z"/><path class="cls-9" d="M81.3,296.2c2.2-1.7,5.6-2.4,8.9-2.1,1.9.2,3.8.8,5.4,1.7,1.6.9,3.2,1.8,4.4,3.2s2,3.4,1.7,5.3c-.3,1.8-1.6,3.2-3.1,4-1.5.8-18,1.5-19.4-.8-1-1.7-.8-5-.5-7,.3-1.8,1.2-3.2,2.6-4.2Z"/><path class="cls-9" d="M90.7,157.8c3.9,21.8,9.7,89.6,7.3,111.4-1.8.4-3.6.9-5.3,1.4-4.6,1.3-8.9,2.5-14.2,1.5-1.3-.2-2.6-.6-4-1.1-.9-8.3-10.1-102-10.1-101.9-1.6,10-10.6,92.3-11.8,101.1-1.4.3-2.9.6-4.5.7-4.4.4-9.4,0-14.3-2.1-2.3-.9-4.5-2.2-6.6-3.8,0,0,6.5-92.7,7.9-106.8,4.6,3.5,20.7,5.4,27.3,6.1,9.8,1,25.2-4.3,27.8-9.2.2.8.3,1.7.5,2.7Z"/><path class="cls-6" d="M92.7,270.5v.4c-.6,5.2-1.7,10.7-2.2,16.4h-.2c-3.2-.6-6.5-.7-9.8-.4-.6-5-1.4-10.3-2.1-14.5v-.3c5.3.9,9.7-.3,14.3-1.5Z"/><path class="cls-8" d="M91.6,21.3c.3.8,0,1.7-.5,2.4-.6.7-1.5,1-2.3.9-.2.8-.5,1.7-1.1,2.3-.1.1-.3.3-.5.3,0-2.3,0-4.6-.2-6.6h1c1.1.2,2.4-.4,2.8-1.5h.1c0,.1,0,.2,0,.3,0,.7.5,1.2.7,1.8Z"/><path class="cls-8" d="M89,15.5c1.4-.3,2.7,1.1,2.4,2.5,0,.4-.3.7-.4,1.1h-.1c-.4,1-1.7,1.7-2.8,1.4h-1c-.1-1.2-.3-2.4-.5-3.6,0-.3,0-.7,0-1,0,0,0,0,0,0,.7.3,1.5-.3,2.4-.4Z"/><path class="cls-7" d="M90.3,287.2h.2c-.2,2.3-.3,4.5-.3,6.8h0c-3.3-.3-6.6.4-8.9,2.1,0-2.5-.4-5.8-.8-9.3,3.2-.4,6.6-.3,9.8.3Z"/><path class="cls-3" d="M87.7,94.4c-.2,4.3-.7,8.2-1.8,11.1-1.3,6.9-.9,18.4,1.5,34.6.6,4,1.3,8.3,2.2,12.9.2.6.4,1.4.6,2.3-2.7,4.9-18,10.2-27.8,9.2-6.6-.7-22.7-2.6-27.3-6.1,1.3.1,2.2-.4,2.1-2.1,1.2,0,3.8-1.4,2.4-3.2,1.1-.2,2.2-1.1,2.4-2.5,0-.5,0-1.1-.2-1.6,4.7-1.2,2.8-3.9.7-6.2.5-2.4-.6-3.8-2.4-4.6l.3-.5c.3-4.1.7-9,1.2-17.1.3-4,.7-10,.3-14.8-.2-2-2.3-15.3-2.5-14.8l-.3-.2c0,0,.2-.2.3-.2v-.5c2.2-3.1,3.4-7,3.3-10.9,0-1.8-.4-3.6-1-5.3.6-.3,1.2-.6,1.9-.9,0,1.2-.1,2.5-.1,3.8,0,5.1.4,8.6,2.3,13.8,1.5,3.9,5.2,9.9,5.4,8.7.4-1.7,1.2-9.3.9-12.5-.3-3.2,0-3.3,0-7.5s0-4.6.3-7.1c1-.3,2.1-.6,3.1-.9h.1c.6.6,1.4,1.2,2.2,1.6,2,1.1,4.3,1.5,6.6,1.6,1.8,0,3.6,0,5.1-1,1.2-.8,2-2,2.6-3.3h.2c4.7-.5,9.6.4,13.8,2.6h0c1.2,5.5,2.1,14.3,1.8,22ZM73.4,118.9v-5.2h-8.9c.2-1.1.6-2.1,1.2-3.1.7-1,1.9-2.3,3.6-3.6,1.5-1.2,2.6-2.5,3.2-3.7.6-1.1.9-2.5.9-4s-.6-3.7-1.8-5-2.9-1.8-5-1.8-3.2.4-4.4,1.2-2.2,1.9-3.2,3.5l3.6,3.4c.8-1.2,1.5-1.9,2.1-2.3.5-.4,1.2-.6,1.9-.6s.9.2,1.2.6c.3.4.5.9.5,1.5s-.2,1.3-.5,1.9c-.3.6-1,1.2-1.9,2-2.4,1.9-4,3.9-5,5.9-1.2,2.4-1.8,5.5-1.9,9.3h14.7Z"/><path class="cls-6" d="M87,32.6c.8.6,1.3,1.4,1.1,2.7-.2,2-1.8,7.2-3.7,7.9h0c1.8-5.7,1.1-10.5.9-10.6,0-.4.2-.7.2-1,.6.3,1.1.6,1.5,1Z"/><path class="cls-8" d="M86.5,16.9c.2,1.2.4,2.4.5,3.7.2,2.1.3,4.3.2,6.6-.3.2-.7.2-1,.2-.2,0-.4-.1-.5-.2,0-.6-.2-1.2-.4-1.9h0c0-.3,0-.6-.2-.8-.8-2.7-2.2-5.5-3.5-7.4.4-.8,1.8-2,2.6-2.3,1.2-.5,1.3.4,2.1.9,0,.4.2.8.2,1.2Z"/><path class="cls-5" d="M87.3,27.3c0,1.7-.1,3.5-.2,5.3-.4-.3-1-.6-1.5-1,.6-2.4.6-2.9.8-4.2.3,0,.7,0,1-.2Z"/><path class="cls-8" d="M86.6,15.9c0,.3,0,.7,0,1,0-.4-.1-.8-.2-1.2,0,0,.2.1.3.2Z"/><path class="cls-6" d="M85.5,31.6c0,.3-.1.6-.2,1,.2,0,.9,4.9-.9,10.5-.6,1.9-1.4,3.9-2.7,5.8-3.6,5.8-7,11.2-11.2,13.3-4.3,2.1-9.4.7-16.4-7.6-1.4-1.6-2.8-3.5-4.3-5.7-.9-1.5-2-4-2.8-7.1-.8-2.8-1.3-6.1-1.5-9.5,1.8.7,5.1-14.9,11.5-18.2,7.4-3.7,18-3.8,22.6.4.5.5,1.2,1.4,2,2.5,0,0,0,0,0,0-.4,1-.2,2.2.6,2.9.4.4,1.1.6,1.3,1.1.2.5,0,1,0,1.6-.1.5,0,1.2.4,1.4.3.2.8,0,1.1.2,0,0,.2,0,.2.2,0,.3.2.5.2.8h0c0,.6,0,1.2.2,1.6,0,0,.1.2.2.2.1.1.3.2.5.2-.1,1.3-.2,1.7-.8,4.2ZM83.2,27.6c.2-.2-2.4-2.5-3.6-2.9-.8-.3-2.5-.6-3.7,0-1.6.9-2.2,2-1.2,2,.9,0,2.3-1.4,4.9-.8,1.5.3,3.4,1.8,3.5,1.7ZM79.7,34.1c0-1.4-.6-2.5-1.3-2.5s-1.3,1.1-1.3,2.5.6,2.5,1.3,2.5,1.3-1.1,1.3-2.5ZM68.6,54.6c2.7-.2,4-1.4,5.3-3.6-4.6,1.9-13.3-.9-14.2-2,1.7,3.2,1.7,2.5,3.2,3.7,1.5,1.2,4.1,2.1,5.8,1.9ZM64.6,26.7c1.3,0,.8-1.1-1.1-2.1-1.4-.7-3.6-.4-4.8,0-1.6.4-5.5,2.7-5.3,2.8.1.1,3-1.3,4.9-1.7,3.5-.6,5.1.9,6.2,1ZM61,34.1c0-1.6-.7-2.9-1.6-2.9s-1.6,1.3-1.6,2.9.7,2.9,1.6,2.9,1.6-1.3,1.6-2.9Z"/><path class="cls-7" d="M86,72.3h0c-4.2-2.2-9.1-3.1-13.8-2.5h-.2c.5-1.1.8-2.3,1.1-3.4v-.4c-.1,0-.2,0-.2,0,3,.3,8,.5,11.3,1v.2c.6.7,1.3,2.5,1.9,5.1Z"/><path class="cls-8" d="M85.8,27.2c0,0-.2-.2-.2-.2-.3-.4-.2-1.1-.2-1.6.2.6.3,1.3.4,1.9Z"/><path class="cls-5" d="M85.4,25.3c0-.2-.1-.5-.2-.8.2.2.2.4.2.8Z"/><path class="cls-5" d="M45.6,32.3c0,0-.1,0-.2-.1-.6-.8-1.6-1-2.5-.9h0c-2.3-14.3,2.5-30.5,22.4-30.5s19,5.7,21,14.9c-.7-.5-.9-1.3-2.1-.9-.8.3-2.2,1.4-2.6,2.3-.7-1.2-1.5-2.1-2-2.5-4.6-4.2-15.1-4.1-22.6-.4-6.4,3.2-9.7,18.9-11.5,18.2Z"/><path class="cls-8" d="M85.1,24.6c0,0-.1-.1-.2-.2-.3-.2-.8,0-1.1-.2-.4-.2-.5-.9-.4-1.4,0-.5.3-1.1,0-1.6-.2-.6-.8-.8-1.3-1.1-.8-.7-1-1.9-.6-2.9,0,0,0,0,0,0,1.3,2,2.7,4.7,3.5,7.4Z"/><path class="cls-5" d="M79.6,24.7c1.1.4,3.7,2.7,3.6,2.9-.1,0-2-1.4-3.5-1.7-2.6-.6-4.1.8-4.9.8-1,0-.4-1.1,1.2-2,1.2-.6,2.8-.3,3.7,0Z"/><path class="cls-2" d="M78.4,31.6c.7,0,1.3,1.1,1.3,2.5s-.6,2.5-1.3,2.5-1.3-1.1-1.3-2.5.6-2.5,1.3-2.5Z"/><path class="cls-7" d="M73.4,113.7v5.2h-14.7c0-3.9.7-7,1.9-9.3,1-2,2.7-3.9,5-5.9,1-.8,1.6-1.4,1.9-2,.4-.6.5-1.2.5-1.9s-.2-1.1-.5-1.5c-.3-.4-.7-.6-1.2-.6-.7,0-1.4.2-1.9.6-.6.4-1.3,1.2-2.1,2.3l-3.6-3.4c1.1-1.6,2.2-2.8,3.2-3.5s2.7-1.2,4.4-1.2,3.9.6,5,1.8,1.8,2.9,1.8,5-.3,2.9-.9,4c-.6,1.2-1.7,2.4-3.2,3.7-1.7,1.4-2.9,2.6-3.6,3.6-.6.9-1,2-1.2,3.1h8.9Z"/><path class="cls-6" d="M72.8,66h.2s0,.5,0,.5c-.3,1.1-.6,2.2-1.1,3.3-.6,1.3-1.4,2.6-2.6,3.3-1.5,1-3.4,1.1-5.1,1-2.3,0-4.6-.5-6.6-1.6-.8-.5-1.6-1.1-2.2-1.8-.9-1-1.6-2.2-1.7-3.5h-.4c0-.3.1-.5.2-.7,1.1-3.5.9-8.4.7-11.9,7,8.3,12.1,9.7,16.4,7.6-.5,1.5.8,3.4,2.3,3.8Z"/><path class="cls-7" d="M73.8,51c-1.3,2.2-2.6,3.4-5.3,3.6-1.6.2-4.2-.7-5.8-1.9-1.5-1.2-1.5-.5-3.2-3.7.9,1.1,9.6,3.9,14.2,2Z"/><path class="cls-5" d="M63.5,24.7c1.9.9,2.3,2.1,1.1,2.1-1.1,0-2.7-1.5-6.2-1-2,.3-4.8,1.8-4.9,1.7-.2-.2,3.7-2.5,5.3-2.8,1.1-.3,3.4-.6,4.8,0Z"/><path class="cls-2" d="M59.4,31.2c.9,0,1.6,1.3,1.6,2.9s-.7,2.9-1.6,2.9-1.6-1.3-1.6-2.9.7-2.9,1.6-2.9Z"/><path class="cls-7" d="M55.4,70.8h-.1c-1,.4-2.1.7-3.1,1.1.2-1.4.5-2.9,1-4.4,0,0,0,0,0,0,0,0,0-.2.1-.3h.4c.2,1.5.8,2.7,1.7,3.7Z"/><path class="cls-5" d="M52.1,71.8c-.3,2.4-.3,4.8-.3,7.1,0,4.3-.3,4.3,0,7.5.3,3.2-.5,10.7-.9,12.5-.2,1.2-3.9-4.8-5.4-8.7-2-5.2-2.4-8.7-2.3-13.8,0-1.3,0-2.6.1-3.8.1-1.9.3-3.7.7-5.5.3-1.5.7-3,1.3-4.5,1.7-4.8.6-15.7,1.7-20.6.8,3.1,1.9,5.6,2.8,7.1,1.5,2.2,2.9,4,4.3,5.7.2,3.4.4,8.3-.7,11.9-.1.3-.2.6-.3.9,0,0,0,0,0,0-.5,1.5-.8,3-1,4.4Z"/><path class="cls-5" d="M53.4,66.5c0,.2-.1.4-.2.6,0,0,0,.2-.1.3,0-.3.2-.6.3-.9Z"/><path class="cls-9" d="M45.9,294.9c2.6,1,4.5,2.8,5,5.5.3,2,.5,5.3-.5,7-1.4,2.4-18.3,1.6-19.8.8-1.5-.8-2.8-2.2-3.2-4-.4-1.9.4-3.9,1.7-5.3,1.2-1.4,2.9-2.3,4.5-3.2.6-.3,1.2-.6,1.9-.9,3.3-1.2,7.3-1.2,10.4,0Z"/><path class="cls-6" d="M48,270.9h0c-.9,5-1.5,10.5-1.8,15.6-3.5-.4-7-.7-10.5-1.1h-.4c-.3-5.7-.9-11.9-1.6-16.6,4.9,2,9.9,2.4,14.3,2.1Z"/><path class="cls-7" d="M35.7,285.4c3.5.4,7,.7,10.5,1.1-.2,3-.3,5.9-.3,8.4-3.1-1.2-7-1.2-10.4,0h0c0-2.8,0-6.1-.2-9.5h.4Z"/><path class="cls-6" d="M47,41.9c-3.4,2.8-7.9-5.2-6.8-8.6.4-1.1,1.5-1.8,2.6-2,.9-.1,1.9.1,2.5.9,0,0,.1.1.2.1.2,3.4.7,6.7,1.5,9.5Z"/><path class="cls-7" d="M43.6,66.9h.5c-.4,1.9-.6,3.7-.7,5.6-.6.3-1.2.6-1.9.9-.7-1.9-1.7-3.6-2.9-5.2,1.6-.3,3.4-1.1,5-1.3Z"/><path class="cls-4" d="M41.5,73.5c.6,1.7,1,3.5,1,5.3.1,3.9-1.1,7.7-3.4,10.9v.5c0,0,0,.1-.2.2-2.8,2.5-9.8,11.7-11.8,13.6-.6.5-1.7,1.8-3,3.2l-.2-.2c-2.8-4.7-6.4-8.3-11.1-10.9h-.1c9-12.2,22.3-28.5,25.5-27.7.1,0,.2,0,.3,0,1.3,1.5,2.3,3.3,2.9,5.2Z"/><path class="cls-6" d="M18.5,113.3s0,0,0,0c1.4,1.8,2.3,3.2,4,6.9,2,4.3,2.6,13.4,8.7,15.6,2.3.7,6.2.9,8.7,2.1,1.8.8,2.9,2.2,2.4,4.6,2.1,2.2,4,5-.7,6.2.2.6.3,1.1.2,1.6-.2,1.4-1.3,2.3-2.4,2.5,1.4,1.8-1.2,3.2-2.4,3.2,0,1.7-.8,2.2-2.1,2.1-2.4-.2-6.1-2.6-7.1-3.7-2.2-2.2-5.6-7.1-4.2-10.3-2.8-4.2-7.5-10-10.6-13.8-4.2-5.1-12-16.5-8.8-22.4.9-1.6,4.2-6.3,8.4-12.1h.1c4.8,2.8,8.3,6.3,11.1,11l.2.2c-2.2,2.3-4.8,5.2-5.7,6.1Z"/><line class="cls-1" x1="42" y1="150.3" x2="41.9" y2="150.3"/><line class="cls-1" x1="40.2" y1="137.4" x2="40" y2="137.9"/><path class="cls-1" d="M85.9,105.4c-1.3,6.9-.9,18.4,1.5,34.6.6,4,1.3,8.3,2.2,12.9"/><path class="cls-1" d="M39.2,90.7c0,0,0-.1,0-.2.2-.4,2.3,12.8,2.5,14.8.4,4.8,0,10.8-.3,14.8-.5,8.2-.9,13-1.2,17.1"/><path class="cls-1" d="M86.6,67.6c4.3,1,15.9,22.1,22.8,35.1,2.7,5.1,4.7,9,5.3,9.8,5,7.9-.8,13.9-6.6,20.2-4.2,4.7-8.1,8-9.9,13.8-.8,2.5-1.3,4.7-2.1,7.2-1.1,3.3-3.3,3.5-5.2,4"/><path class="cls-1" d="M87.4,94c0,.1.2.2.3.4,1.7,2.3,6.6,10,10.3,15.8,2.6,3.9,4.6,6.8,4.9,6.6,0,0,0,0,0,0"/><path class="cls-1" d="M107.7,112.5c-1.9,1.3-3.3,2.8-4.5,4.4-1.7,2.4-2.8,5.2-4.2,8.2-1.1,2.2-2.4,3.9-3.9,5.8-1,1.3-6,7.2-7.7,9.1,0,0,0,0,0,0"/><path class="cls-1" d="M18.5,113.3s0,0,0,0"/><path class="cls-1" d="M39.2,90.2c0,0-.2.1-.3.2-2.8,2.5-9.8,11.7-11.8,13.6-.6.5-1.7,1.8-3,3.2-2.2,2.3-4.8,5.2-5.7,6.1"/><path class="cls-1" d="M38.2,68.4c-3.2-.7-16.4,15.6-25.5,27.6-4.3,5.7-7.6,10.5-8.4,12.1-3.2,5.9,4.6,17.3,8.8,22.4,3.1,3.7,7.8,9.6,10.6,13.8"/><path class="cls-1" d="M31.3,135.8c-6.1-2.2-6.7-11.3-8.7-15.6-1.7-3.8-2.6-5.1-4-6.9,0,0,0,0,0,0-.7-1-1.6-2-2.9-3.7"/><path class="cls-1" d="M40,140c.5.6,1.4,1.5,2.4,2.5,2.1,2.2,4,5-.7,6.2.2.6.3,1.1.2,1.6-.2,1.4-1.3,2.3-2.4,2.5,1.4,1.8-1.2,3.2-2.4,3.2,0,1.7-.8,2.2-2.1,2.1-2.4-.2-6.1-2.6-7.1-3.7-2.2-2.2-5.6-7.1-4.2-10.3"/><path class="cls-1" d="M31.3,135.8c2.3.7,6.2.9,8.7,2.1,1.8.8,2.9,2.2,2.4,4.6,0,0,0,0,0,0"/><path class="cls-1" d="M27.1,265s6.5-92.7,7.9-106.8"/><path class="cls-1" d="M90.2,155.1c-2.7,4.9-18,10.2-27.8,9.2-6.6-.7-22.7-2.6-27.3-6.1"/><path class="cls-1" d="M86.6,67.6c-.6-.2-1.5-.4-2.5-.6-3.3-.5-8.3-.7-11.3-1-.6,0-1-.1-1.4-.2"/><path class="cls-1" d="M43.6,66.9c-1.6.2-3.4,1-5,1.3-.1,0-.2,0-.3,0"/><path class="cls-1" d="M89.6,152.9c.2.6.4,1.4.6,2.3.2.8.3,1.7.5,2.7,3.9,21.8,9.7,89.6,7.3,111.4-1.8.4-3.6.9-5.3,1.4-4.6,1.3-8.9,2.5-14.2,1.5-1.3-.2-2.6-.6-4-1.1-.9-8.3-10.1-102-10.1-101.9-1.6,10-10.6,92.3-11.8,101.1-1.4.3-2.9.6-4.5.7-4.4.4-9.4,0-14.3-2.1-2.3-.9-4.5-2.2-6.6-3.8"/><path class="cls-1" d="M48,270.9c-.9,5-1.5,10.5-1.8,15.6-.2,3-.3,5.9-.3,8.4,0,.3,0,.6,0,.9"/><path class="cls-1" d="M33.7,268.8c.7,4.7,1.3,10.8,1.6,16.6.2,3.4.3,6.7.2,9.4"/><path class="cls-1" d="M84.1,67.3c.7.7,1.3,2.5,1.9,5.1,1.2,5.5,2.1,14.3,1.8,22-.2,4.3-.7,8.2-1.8,11.1"/><path class="cls-1" d="M78.4,272.4c.7,4.2,1.5,9.6,2.1,14.5.4,3.5.7,6.7.8,9.3,0,.3,0,.6,0,.9"/><path class="cls-1" d="M92.8,270.9c-.7,5.2-1.8,10.7-2.3,16.4-.2,2.2-.3,4.5-.3,6.8"/><path class="cls-1" d="M86.3,27.4c-.1,1.3-.2,1.7-.8,4.2,0,.3-.1.6-.2,1,.2,0,.9,4.9-.9,10.5-.6,1.9-1.4,3.9-2.7,5.8-3.6,5.8-7,11.2-11.2,13.3-4.3,2.1-9.4.7-16.4-7.6-1.4-1.6-2.8-3.5-4.3-5.7"/><path class="cls-1" d="M77,34.1c0,1.4.6,2.5,1.3,2.5s1.3-1.1,1.3-2.5-.6-2.5-1.3-2.5-1.3,1.1-1.3,2.5Z"/><path class="cls-1" d="M57.8,34.1c0,1.6.7,2.9,1.6,2.9s1.6-1.3,1.6-2.9-.7-2.9-1.6-2.9-1.6,1.3-1.6,2.9Z"/><path class="cls-1" d="M74.3,45c-.9,1.7-5.6,2.4-7.5,1"/><path class="cls-1" d="M73.8,51c-4.6,1.9-13.3-.9-14.2-2,1.7,3.2,1.7,2.5,3.2,3.7,1.5,1.2,4.1,2.1,5.8,1.9,2.7-.2,4-1.4,5.3-3.6Z"/><path class="cls-1" d="M47,41.9c.8,3.1,1.9,5.6,2.8,7.1"/><path class="cls-1" d="M45.5,32.2s0,0,0,.1c.2,3.4.7,6.7,1.5,9.5"/><path class="cls-1" d="M86.3,15.8c-2.1-9.2-7.8-14.9-21-14.9-19.9,0-24.7,16.2-22.4,30.4"/><path class="cls-1" d="M87,32.6c.1-1.8.2-3.6.2-5.3"/><path class="cls-1" d="M81.6,17.2c-.7-1.2-1.5-2.1-2-2.5-4.6-4.2-15.1-4.1-22.6-.4-6.4,3.2-9.7,18.9-11.5,18.2,0,0-.1,0-.2-.1"/><path class="cls-1" d="M85.4,25.3c0-.2-.1-.5-.2-.8"/><path class="cls-1" d="M85.9,29c0-.6,0-1.2-.2-1.8"/><path class="cls-1" d="M53.1,67.4c0,.1-.1.3-.2.4"/><path class="cls-1" d="M53.3,67.1c0,0,0,.2-.1.3"/><path class="cls-1" d="M53.4,66.5c0,.2-.1.4-.2.6"/><path class="cls-1" d="M54.1,54.6c.2,3.4.4,8.3-.7,11.9"/><path class="cls-1" d="M70.5,62.2c-.5,1.5.8,3.4,2.3,3.8h.2"/><path class="cls-1" d="M45.4,32.2c-.6-.8-1.6-1-2.5-.9-1.1.2-2.2.9-2.6,2-1.1,3.3,3.3,11.4,6.8,8.6"/><path class="cls-1" d="M85.5,31.6s0,0,0,0c.6.3,1.1.6,1.5,1,.8.6,1.3,1.4,1.1,2.7-.2,2-1.8,7.2-3.7,7.9"/><path class="cls-1" d="M79.6,24.7c1.1.4,3.7,2.7,3.6,2.9-.1,0-2-1.4-3.5-1.7-2.6-.6-4.1.8-4.9.8-1,0-.4-1.1,1.2-2,1.2-.6,2.8-.3,3.7,0Z"/><path class="cls-1" d="M58.7,24.6c-1.6.4-5.5,2.7-5.3,2.8.1.1,3-1.3,4.9-1.7,3.5-.6,5.1.9,6.2,1,1.3,0,.8-1.1-1.1-2.1-1.4-.7-3.6-.4-4.8,0Z"/><path class="cls-1" d="M47,41.9c-1.1,4.9,0,15.9-1.7,20.6-.6,1.6-1,3.1-1.3,4.5-.4,1.8-.6,3.6-.7,5.5,0,1.2-.1,2.5-.1,3.8,0,5.1.4,8.6,2.3,13.8,1.5,3.9,5.2,9.9,5.4,8.7.4-1.7,1.2-9.3.9-12.5-.3-3.2,0-3.3,0-7.5s0-4.6.3-7.1c.2-1.4.5-2.9,1-4.4,0,0,0,0,0,0,0-.3.2-.6.3-.9"/><path class="cls-1" d="M81.6,17.2s0,0,0,0c-.4,1-.2,2.2.6,2.9.4.4,1.1.6,1.3,1.1.2.5,0,1,0,1.6-.1.5,0,1.2.4,1.4.3.2.8,0,1.1.2,0,0,.2,0,.2.2.2.2.2.4.2.8h0c0,.6,0,1.2.2,1.6,0,0,.1.2.2.2.1.1.3.2.5.2.3,0,.7,0,1-.2.2,0,.4-.2.5-.3.6-.6.9-1.5,1.1-2.3.8.1,1.7-.3,2.3-.9.6-.7.7-1.6.5-2.4-.2-.6-.7-1.1-.7-1.8,0-.1,0-.2,0-.3,0-.4.3-.7.4-1.1.3-1.4-1-2.8-2.4-2.5-.8.2-1.6.7-2.4.4,0,0,0,0,0,0-.1,0-.2,0-.3-.2-.7-.5-.9-1.3-2.1-.9-.8.3-2.2,1.4-2.6,2.3Z"/><path class="cls-1" d="M86.5,15.7c0,0,0,.1,0,.2,0,.3,0,.7,0,1-.1.6-.5,1.2-1.1,1.6"/><path class="cls-1" d="M90.9,19.1c-.4,1.1-1.7,1.7-2.8,1.4"/><path class="cls-1" d="M73.4,118.9h-14.7c0-3.9.7-7,1.9-9.3,1-2,2.7-3.9,5-5.9,1-.8,1.6-1.4,1.9-2,.4-.6.5-1.2.5-1.9s-.2-1.1-.5-1.5c-.3-.4-.7-.6-1.2-.6-.7,0-1.4.2-1.9.6-.6.4-1.3,1.2-2.1,2.3l-3.6-3.4c1.1-1.6,2.2-2.8,3.2-3.5s2.7-1.2,4.4-1.2,3.9.6,5,1.8,1.8,2.9,1.8,5-.3,2.9-.9,4c-.6,1.2-1.7,2.4-3.2,3.7-1.7,1.4-2.9,2.6-3.6,3.6-.6.9-1,2-1.2,3.1h8.9v5.2Z"/><path class="cls-1" d="M12.9,96.1c4.8,2.7,8.3,6.2,11.1,10.9"/><path class="cls-1" d="M38.5,68.2s0,0,0,.1c1.3,1.5,2.3,3.3,2.9,5.2.6,1.7,1,3.5,1,5.3.1,3.9-1.1,7.7-3.4,10.9"/><path class="cls-1" d="M73,66.5c-.3,1.1-.6,2.2-1.1,3.3-.6,1.3-1.4,2.6-2.6,3.3-1.5,1-3.4,1.1-5.1,1-2.3,0-4.6-.5-6.6-1.6-.8-.5-1.6-1.1-2.2-1.8-.9-1-1.6-2.2-1.7-3.5"/><path class="cls-1" d="M72.1,69.8c4.7-.6,9.6.3,13.8,2.5"/><path class="cls-1" d="M41.5,73.5s0,0,0,0c.6-.3,1.2-.6,1.9-.9h.2"/><path class="cls-1" d="M55.2,70.9c-1,.3-2.1.6-3.1.9,0,0-.2,0-.3,0"/><path class="cls-1" d="M98.1,110.1s0,0,0,0"/><path class="cls-1" d="M109.5,102.7s0,0-.1,0c-4.5,1.5-7.7,3.3-10.8,6.9h0s-.5.5-.5.5"/><path class="cls-1" d="M35.6,294.9c-.7.2-1.3.5-1.9.9-1.6.9-3.2,1.8-4.5,3.2-1.3,1.4-2.1,3.4-1.7,5.3.3,1.8,1.7,3.2,3.2,4,1.5.8,18.4,1.5,19.8-.8,1-1.7.8-5.1.5-7-.4-2.6-2.4-4.5-5-5.5-3.1-1.2-7-1.2-10.4,0Z"/><path class="cls-1" d="M90.2,294.1c1.9.2,3.8.8,5.4,1.7,1.6.9,3.2,1.8,4.4,3.2s2,3.4,1.7,5.3c-.3,1.8-1.6,3.2-3.1,4-1.5.8-18,1.5-19.4-.8-1-1.7-.8-5-.5-7,.3-1.8,1.2-3.2,2.6-4.2,2.2-1.7,5.6-2.4,8.9-2.1Z"/><path class="cls-1" d="M35.7,285.4c3.5.4,7,.7,10.5,1.1,0,0,0,0,.1,0"/><path class="cls-1" d="M80.2,286.9c.1,0,.2,0,.4,0,3.2-.4,6.6-.3,9.8.3"/></svg>