<?xml version="1.0" encoding="UTF-8"?><svg id="oceania" xmlns="http://www.w3.org/2000/svg" width="235" height="321.9" viewBox="0 0 235 321.9"><defs><style>.cls-1{stroke-linecap:round;stroke-linejoin:round;}.cls-1,.cls-2{fill:none;stroke:#000;}.cls-2{stroke-miterlimit:10;}.cls-3,.cls-4,.cls-5,.cls-6,.cls-7,.cls-8,.cls-9,.cls-10,.cls-11{stroke-width:0px;}.cls-4{fill:#4a62ba;}.cls-5{fill:#2b388d;}.cls-6{fill:#423b38;}.cls-7{fill:#cb9686;}.cls-8{fill:#9bc8e4;}.cls-9{fill:#fff;}.cls-10{fill:#ea1e79;}.cls-11{fill:#003580;}</style></defs><path class="cls-11" d="M15.7,292.6c-.4.7-.8,1.5-.8,2.3,0,1.1.9,2.2,1.9,2.7,8.9,5.2,18.9,10,27.3,14.1,6.1,3,21,1,9.8-10-6.7-6.6-11.9-10.4-17-16.3h0c-.5-1.4-1.4-1.7-2.7-1.3-.5.1-.9.3-1.3.6-.7.4-1.4,1-2.1,1.6-1,.9-2.2,1.7-3.5,1.8-2,.2-4.6-2.5-5.1-4.8,0-.3,0-.5,0-.8-2.5,2.5-4.6,7-6.5,10Z"/><path class="cls-7" d="M62.5,138.7c-.8-6-8.1-3.1-11.8-3.2v.2c-4.1-.7-7.2-5.2-9.7-8.8-1-1.4-1.9-2.8-2.7-3.7-2.7-3.1-3.9-4.1-5.7-5.4.4-.8,1.3-4,2.4-7.7-4-2.5-8.4-4.2-13-5.2h-.3c-1.7,5.5-3,10.1-3.2,11.9-1.1,6.5,9.4,15.2,14.6,18.8,1.5,1,3.2,2.2,5,3.5,3,2.2,6.2,4.6,8.6,6.6-.2,3.5,4.2,7.1,6.8,8.7,1.9,1.1,10.3,3.5,8.6-1.1,1-.3,2.9-2.4,1.1-3.8,1.2-.6,2.1-2.6.6-4.6,3.8-2.5,1.3-4.6-1.3-6.1Z"/><path class="cls-5" d="M35.1,74l-.2-.6c-.2.1-.5.2-.6.3l-.3.2c-3.1,2.9-8.7,19-12.4,30.8h.3c4.6,1,9,2.8,13,5.3,1.5-4.9,3.2-10.6,4-11.7,0-.4,0-.3.1,0h.3c3.3-7.8,3.4-14.9,1.8-19.5-1.3-3.6-3.5-5.5-6.1-4.8Z"/><path class="cls-9" d="M22.4,283.4h-.2c.5,2.3,3,5,5.1,4.8,1.3-.1,2.5-1,3.5-1.8.7-.6,1.3-1.2,2.1-1.6h0c1.7-2,3.2-4,4.7-6h-.2c-4-1-7.8-3.1-10.6-6.1-1.2,3.6-2.4,7.1-4.3,10.8Z"/><path class="cls-11" d="M67,188.5c6.3,9.7,9.2,11.9,17.1,31.2,2.4,6,3.6,16.1,4,25.4.8,19.9,1.4,12.5,1.6,26.1,1.2-.1,2.6-.3,4-.5,5.3-.7,11.7-1.9,17.4-3.6,2.4-.7,4.6-1.5,6.6-2.3,0,0,0,0,0,0,0-.3-3.5-13.3-7.6-34.4-5.1-26.6-13.4-54.1-24.3-75.9-6.6,1.9-18.2,4.1-25.5,3.3-5.8-.6-20.1-2.7-24.5-6.2-2.5,20.9,1,38.8,2.4,51.8.6,5.4,1.5,17.7-1.7,24.4-7.5,15.4-7.1,20.2-13.3,36.5,1.7.4,3.6,1,5.7,1.6,4.6,1.4,9.9,3,14.5,4.4,2,.6,3.8,1.1,5.4,1.5,4.4-11.9,8.1-30.2,11.4-38.4,2.4-6.1,5.2-26.2,6.8-45.1Z"/><path class="cls-7" d="M28.9,266.4c-.8,2.2-1.5,4.2-2.1,6.2,2.8,3,6.6,5.1,10.6,6h.2c1.9-2.4,3.7-5,5.9-8-4.6-1.3-9.9-3-14.5-4.4v.2Z"/><path class="cls-9" d="M34.9,73.5l.2.6c2.5-.7,4.8,1.2,6.1,4.8l.6-.2c1.1-.4,2.3-.9,3.4-1.3h0c-.5-2.2-1-4.4-1.2-6.7h-.2c-3.6,1-7.1,2.2-8.8,2.9Z"/><path class="cls-4" d="M79.7,132c-1.4-8.3-1.9-14.8-1.5-19.7.1-1.7.4-3.1.7-4.4.9-3.2,3.5-8.4,2.8-22.9h.2c-.2-1.6-.7-3.8-1.4-6.1h-.1c-3.2-2-6.7-3.5-10.4-4.5l-1.2-.3c-1.9,6-9.2,4.4-14.5,3h-.1c1.9,5.1,4.1,10,5.2,15.2.3,1.2.5,2.4.6,3.6.9-1.5,1.8-2.6,2.8-3.2,1.1-.8,2.5-1.2,4.1-1.2s3.5.6,4.6,1.9,1.6,2.9,1.6,5-.3,2.9-.8,4.1c-.6,1.2-1.5,2.5-2.9,3.7-1.5,1.4-2.6,2.6-3.3,3.7-.6.9-.9,2-1.1,3.1h8.1v5.2h-13.4c0-3.9.7-7,1.7-9.4.9-2,2.4-4,4.6-5.9.9-.8,1.5-1.4,1.8-2,.3-.6.5-1.2.5-1.9s-.1-1.1-.4-1.5c-.3-.4-.7-.6-1.1-.6-.7,0-1.2.2-1.7.6-.6.4-1.2,1.2-2,2.4l-3-3.1c.4,4.6-.3,9.2-2.9,13-1.1-8.9-5.9-16.9-9.6-25.1-.9-2.1-1.8-4.6-2.5-7.3h0c-1.1.4-2.3.9-3.4,1.3l-.6.2c1.6,4.5,1.6,11.7-1.8,19.4h-.3c.3,1.3,1.1,7.1,1.3,8.8.4,4.8,1.2,11.3.9,15.3-.1,2.1,0,2.8-.3,4.5,2.5,3.7,5.7,8.1,9.7,8.8v-.2c3.8,0,11.1-2.8,11.8,3.2,2.6,1.5,5.1,3.6,1.3,6.1,1.5,1.9.6,3.9-.6,4.6,1.8,1.3,0,3.4-1.1,3.8,1.7,4.6-6.7,2.2-8.6,1.1-2.6-1.5-7.1-5.1-6.8-8.7-2.4-2-5.6-4.4-8.6-6.6h0c-1,4.4-1.7,8.6-2.2,12.8,4.4,3.5,18.7,5.6,24.5,6.2,7.2.8,18.8-1.4,25.5-3.3-.8-1.6-1.6-3.2-2.5-4.8-1.5-6.7-2.7-12.6-3.6-17.9Z"/><path class="cls-6" d="M40.3,29.5c-1.4,6-.5,10.8.7,16.9.6,2.8,2.5,5.8,4.6,8.2,2.4,2.7,4.9,4.7,6,5,0-1.3.3-2.6.5-3.7-3.4-4.8-5-10.2-4.9-15.4-.6-.3-1.1-.9-1.5-1.5-.8-1.3-1-3-1.1-4.6,0-1.4,0-2.9.8-3.9.6-.7,1.5-1.1,2.4-1,.9.1,1.7.7,2.1,1.6,7.9-13.3,21.6-16,28.5-11.8,5.3,3.2,8.9,3.9,9.7,11.1h.2c.6-.2,1.2-.3,1.8-.3,0-1.3,0-2.5,0-3.9-.2-4.9-1.5-9.8-7.6-14.1-7.9-6.6-22.3-7.4-30.7-2.2-6.9,4.3-9.5,11.2-11.4,19.6Z"/><path class="cls-6" d="M45.5,54.6c-1.9,4.4-2.2,10.2-1.5,15.9.3,2.3.7,4.6,1.2,6.7.7,2.6,1.5,5.1,2.5,7.3,3.7,8.2,8.5,16.2,9.6,25.1,2.5-3.8,3.2-8.4,2.9-13l-.2-.2c0-.1.1-.2.2-.3-.1-1.2-.3-2.4-.6-3.6-1.1-5.2-3.3-10.1-5.2-15.2-.2-.5-.4-1.1-.6-1.7-1.6-4.5-2.5-10.7-2.1-16-1-.3-3.6-2.3-6-5h0Z"/><path class="cls-7" d="M79,58.7c1.6-2,2.8-4,3.5-5.4,1.7-3.5,2.4-7.9,2.7-10.4.2-1.2.2-2,.2-2,1.2-3.9,2.5-6.2,2.8-9.8,0-.2,0-.4,0-.7-.9-7.3-4.5-8-9.7-11.1-6.9-4.1-20.6-1.4-28.5,11.8-.4-.9-1.2-1.5-2.1-1.6-.9-.1-1.8.3-2.4,1-.8,1-.9,2.5-.8,3.9,0,1.6.3,3.2,1.1,4.6.4.6.9,1.1,1.5,1.5,0,5.2,1.6,10.6,4.9,15.4,1.1,1.6,2.4,3.1,3.9,4.5,3.8,4.1,7.3,7,10.5,6.9.7,0,1.5-.1,2.2-.4,3.9-1.1,7.7-4.8,10.4-8.3ZM61.5,29.3c-.1-.2,3.5-1.5,4.8-1.4,1,0,2.8.3,3.8,1.3,1.3,1.4,1.4,2.7.4,2.3-.9-.4-1.8-2.2-4.7-2.6-1.6-.2-4.2.5-4.3.4ZM75.1,56.7c-4.2,7.7-14.3-.3-11.6-5.4,5.7,3.4,8.8,5.4,11.6,5.4ZM65.1,41.1c-.8-.2-1.2-1.6-.9-3.1.3-1.5,1.3-2.6,2.1-2.4.8.2,1.2,1.6.9,3.1-.3,1.5-1.3,2.6-2.1,2.4ZM79.6,35c-.8-.2.1-1.1,1.7-1.5,1.1-.3,2.3.5,2.8.9.7.7,2,2.7,1.8,2.8-.1,0-1.2-1-2.2-1.7-1.8-1.2-3.4-.3-4.1-.5ZM80.3,45.6c-.8-.2-1.1-1.6-.8-3.2.4-1.6,1.3-2.7,2.1-2.5.8.2,1.1,1.6.8,3.2-.4,1.6-1.3,2.7-2.1,2.5Z"/><path class="cls-7" d="M51.4,59.7c-.4,5.3.5,11.5,2.1,16,.2.6.4,1.1.6,1.7h.1c5.3,1.4,12.6,3,14.5-3,0-.3.2-.6.2-.9-1.2-1.4-1.2-2.7-.8-4.3.1-.7.3-1.3.5-2.1-.7.2-1.5.3-2.2.4-3.1,0-6.7-2.8-10.5-6.9-1.5-1.4-2.8-2.9-3.9-4.5-.3,1.2-.4,2.4-.5,3.7Z"/><path class="cls-9" d="M59.7,118.2h13.4v-5.2h-8.1c.1-1.1.5-2.2,1.1-3.1.7-1,1.8-2.3,3.3-3.7,1.4-1.2,2.4-2.5,2.9-3.7.5-1.1.8-2.5.8-4.1s-.5-3.8-1.6-5-2.6-1.9-4.6-1.9-2.9.4-4.1,1.2c-.9.7-1.8,1.8-2.8,3.2,0,.2,0,.4,0,.5l3,3.1c.7-1.2,1.4-2,2-2.4.5-.4,1.1-.6,1.7-.6s.8.2,1.1.6c.3.4.4.9.4,1.5s-.2,1.4-.5,1.9c-.3.6-.9,1.2-1.8,2-2.1,1.9-3.7,3.9-4.6,5.9-1.1,2.4-1.6,5.5-1.7,9.4Z"/><path class="cls-6" d="M59.9,96.1c0,0-.1.2-.2.3l.2.2c0-.2,0-.4,0-.5Z"/><path class="cls-6" d="M66.4,27.9c-1.3,0-4.9,1.2-4.8,1.4,0,.1,2.6-.6,4.3-.4,2.9.4,3.8,2.2,4.7,2.6,1,.4.9-.9-.4-2.3-.9-1-2.8-1.3-3.8-1.3Z"/><path class="cls-9" d="M63.6,51.3c-2.7,5,7.4,13.1,11.6,5.4-2.8,0-5.8-2-11.6-5.4Z"/><path class="cls-3" d="M64.2,37.9c-.3,1.5,0,2.9.9,3.1.8.2,1.7-.8,2.1-2.4.3-1.5,0-2.9-.9-3.1-.8-.2-1.8.8-2.1,2.4Z"/><path class="cls-8" d="M68.1,69.1c-.3,1.5-.4,2.9.8,4.3.2-1,.3-2.2.2-3.7v-.3c-.3,0-.7-.2-1-.3Z"/><path class="cls-9" d="M69,73.4c0,.3-.1.6-.2.9l1.2.3c3.7.9,7.2,2.4,10.4,4.5h.1c-.9-2.9-2.2-5.9-3.3-7.3-2.4-1.2-5.2-1.6-7.9-2.3v.3c0,1.4,0,2.7-.2,3.7Z"/><path class="cls-5" d="M81.9,85.1h-.2c.7,14.5-1.9,19.7-2.8,22.9-.4,1.3-.6,2.7-.7,4.4h0c1.9.8,4.1.6,5.8-.3,1.8-10,2.2-19.2,0-30.3-1.1-5.8-3.7-8.5-6.9-10,1.2,1.5,2.4,4.4,3.3,7.3.7,2.3,1.3,4.5,1.4,6Z"/><path class="cls-7" d="M78.1,112.4c-.4,4.8.1,11.4,1.5,19.7,2.5,1.5,4.9,2.8,6.8,3.7,4.3,2,10.8,5.1,15.1,7.6h.3c0-.7-.1-1.3,0-2,.3-3.7,1.4-6.2,4.3-7.9-6,.7-13-8-16.8-10.9-3-2.3-4.2-2.8-6.5-4.4.5-2.1.9-4.2,1.2-6.2-1.7,1-3.9,1.1-5.8.3h0Z"/><path class="cls-6" d="M81.2,33.5c-1.5.4-2.4,1.3-1.7,1.5.7.2,2.3-.7,4.1.5,1,.7,2.1,1.8,2.2,1.7.2,0-1.1-2.2-1.8-2.8-.5-.5-1.7-1.2-2.8-.9Z"/><path class="cls-3" d="M79.6,42.4c-.4,1.6,0,3,.8,3.2.8.2,1.7-.9,2.1-2.5.4-1.6,0-3-.8-3.2-.8-.2-1.7.9-2.1,2.5Z"/><path class="cls-6" d="M79,58.7c2.8-3.3,6.5-8.2,8.8-15.5h0c-.1-.1-.2-.2-.3-.3-.2.5-.8.9-1.4.8-.6,0-.7-.4-.8-1h-.1c-.3,2.5-1.1,7-2.7,10.4-.7,1.4-1.9,3.4-3.5,5.4Z"/><path class="cls-10" d="M90.1,30.1c-.6,0-1.2.1-1.8.3h-.2c0,.2,0,.4,0,.7-.2,3.6-1.5,6-2.8,9.8,0,0,0,.8-.2,2h.1c0,.6.3.9.8,1,.6,0,1.2-.3,1.4-.8,0,0,.2.1.3.2,1.4.7,4.1,0,3.9-1.5-.3-3,.4-2.1,1.3-4.1.8-1.8-2.1-3.1-1-4.8.4-.6,0-1.5-.5-2-.4-.5-.9-.6-1.5-.6Z"/><path class="cls-11" d="M89.9,304.8c-.2.8-.3,1.7,0,2.4.5,1,1.6,1.7,2.7,2,10.1,1.9,21.1,3,30.4,4.1,6.7.8,20.1-6.1,5.9-12.8-8.5-4-14.7-5.8-21.5-9.6h0c-.9-1.1-1.9-1.1-3-.3-.4.3-.7.6-1,1-.6.7-1,1.4-1.4,2.2-.7,1.2-1.4,2.4-2.7,2.9-1.9.9-5.2-.8-6.4-2.8-.1-.2-.2-.5-.3-.7-1.5,3.2-2,8.1-2.7,11.6Z"/><path class="cls-9" d="M93.2,293.8h-.2c1.2,2,4.5,3.7,6.4,2.9,1.2-.5,2-1.7,2.7-2.9.4-.8.9-1.5,1.4-2.2h0c.9-2.3,1.7-4.7,2.5-7.2h-.3c-4.1.5-8.3-.3-12-2.1,0,3.9,0,7.8-.5,11.6Z"/><path class="cls-7" d="M93.7,270.8c-.1,3.7,0,7.5,0,11.4,3.7,1.9,7.9,2.6,12,2h.3c1.8-5.4,3.5-11.3,5.1-17-5.7,1.7-12.1,2.8-17.4,3.6Z"/><path class="cls-7" d="M101.7,141.3c0,.6,0,1.3,0,1.9.7,4.7,5.1,8.9,9.7,7.9,4.5-1,6.8-6.2,6.9-10.8,0-2.1-.3-4.3-1.4-6.1-1.2-1.8-3.3-3-5.4-2.6-2.3.4-4.1,1-5.5,1.8-3,1.7-4.1,4.2-4.3,7.9Z"/><path class="cls-2" d="M68.6,66.7c0,.1,0,.2,0,.3-.1.7-.3,1.4-.5,2.1-.3,1.5-.4,2.9.8,4.3,0,0,0,0,.1.1"/><polyline class="cls-2" points="39.4 98.2 39.1 98.3 38.9 98.3"/><line class="cls-2" x1="83.3" y1="151" x2="83.2" y2="149.9"/><line class="cls-2" x1="83.6" y1="155.4" x2="83.2" y2="155.5"/><path class="cls-2" d="M81.7,85.1c.7,14.5-1.9,19.7-2.8,22.9-.4,1.3-.6,2.7-.7,4.4-.4,4.8.1,11.4,1.5,19.7.9,5.2,2.1,11.2,3.6,17.9"/><path class="cls-2" d="M38.9,98.3c0-.4,0-.3.1,0,.3,1.2,1.1,7.1,1.3,8.7.4,4.8,1.2,11.3.9,15.3-.1,2.1,0,2.8-.3,4.5"/><path class="cls-1" d="M85.7,154.7c-6.6,1.9-18.2,4.1-25.5,3.3-5.8-.6-20.1-2.7-24.5-6.2,0,0,0,0,0,0"/><path class="cls-2" d="M85.7,154.7s0,0,0,0"/><path class="cls-1" d="M77.1,71.7c0,0-.1-.1-.2-.2"/><path class="cls-2" d="M81.9,85.3c0,0,0-.2,0-.3-.2-1.5-.7-3.8-1.4-6-.9-2.9-2.2-5.8-3.3-7.3"/><path class="cls-2" d="M39.4,98.2c3.3-7.7,3.4-14.9,1.8-19.4-1.3-3.6-3.5-5.5-6.1-4.8,0,0-.2,0-.3,0"/><path class="cls-2" d="M43.7,70.5c-3.6,1-7.1,2.2-8.8,2.9-.2.1-.5.2-.6.3"/><line class="cls-1" x1="64.6" y1="146.3" x2="64.5" y2="146.3"/><line class="cls-1" x1="50.6" y1="135.5" x2="50.6" y2="135.7"/><path class="cls-1" d="M38.9,98.3c-.8,1.2-2.5,6.8-4,11.7-1.1,3.6-2.1,6.9-2.4,7.7,0,0,0,0,0,0"/><path class="cls-1" d="M34,73.9c-3.1,2.9-8.7,19-12.4,30.8-1.7,5.6-3,10.2-3.2,12-1.1,6.5,9.4,15.2,14.6,18.8,1.5,1,3.2,2.2,5,3.5,3,2.2,6.2,4.6,8.6,6.6"/><path class="cls-1" d="M51.4,135.8c-.3,0-.5,0-.8,0-4-.7-7.2-5.2-9.7-8.8-1-1.4-1.9-2.8-2.7-3.7-2.7-3.1-3.9-4.1-5.7-5.4-.9-.7-2.1-1.5-3.6-2.7"/><path class="cls-1" d="M59.6,137.1c.6.4,1.7,1,2.9,1.7,2.6,1.5,5.1,3.6,1.3,6.1,1.5,1.9.6,3.9-.6,4.6,1.8,1.3,0,3.4-1.1,3.8,1.7,4.6-6.7,2.2-8.6,1.1-2.6-1.5-7.1-5.1-6.8-8.7"/><path class="cls-1" d="M50.6,135.5c3.8,0,11.1-2.8,11.8,3.2,0,0,0,0,0,0"/><path class="cls-1" d="M79.5,131.9c0,0,.1,0,.2.1,2.5,1.5,4.9,2.8,6.8,3.7,4.3,2,10.8,5.1,15.1,7.6"/><path class="cls-1" d="M106.1,133.5c-6,.7-13-8-16.8-10.9-3-2.3-4.2-2.8-6.5-4.4"/><path class="cls-1" d="M68,69.1s0,0,.1,0c.4,0,.7.2,1.1.3,2.7.7,5.5,1.1,7.9,2.3,3.2,1.5,5.8,4.2,6.9,10,2.2,11.1,1.7,20.4,0,30.3-.4,2-.8,4.1-1.2,6.2"/><path class="cls-2" d="M38,139.1c-1,4.4-1.7,8.6-2.2,12.8-2.5,20.9,1,38.8,2.4,51.8.6,5.4,1.5,17.7-1.7,24.4-7.5,15.4-7.1,20.2-13.3,36.5,1.7.4,3.6,1,5.7,1.6,4.6,1.4,9.9,3,14.5,4.4,2,.6,3.8,1.1,5.4,1.5,4.4-11.9,8.1-30.2,11.4-38.4,2.4-6.1,5.2-26.2,6.8-45.1.5-6.8.9-13.5,1.1-19.3"/><path class="cls-2" d="M117.6,264.9s0,0,0,0,0,0,0,0"/><path class="cls-2" d="M83.2,149.9c.8,1.6,1.7,3.2,2.5,4.8,10.9,21.8,19.3,49.3,24.3,75.9,4,21.1,7.5,34,7.6,34.4"/><path class="cls-2" d="M66.8,188.2c0,.1.1.2.2.3,6.3,9.7,9.2,11.9,17.1,31.2,2.4,6,3.6,16.1,4,25.4.8,19.9,1.4,12.5,1.6,26.1,1.2-.1,2.6-.3,4-.5,5.3-.7,11.7-1.9,17.4-3.6,2.4-.7,4.6-1.5,6.6-2.3"/><path class="cls-1" d="M111.6,131.7c-2.3.4-4.1,1-5.5,1.8-3,1.7-4.1,4.2-4.3,7.9,0,.6,0,1.3,0,1.9.7,4.7,5.1,8.9,9.7,7.9,4.5-1,6.8-6.2,6.9-10.8,0-2.1-.3-4.3-1.4-6.1-1.2-1.8-3.3-3-5.4-2.6"/><path class="cls-2" d="M54.3,77.2c5.3,1.4,12.6,3,14.5-3,0-.3.2-.6.2-.9.2-1,.3-2.2.2-3.7"/><path class="cls-1" d="M84,34.4c.7.7,2,2.7,1.8,2.8-.1,0-1.2-1-2.2-1.7-1.8-1.2-3.4-.3-4.1-.5-.8-.2.1-1.1,1.7-1.5,1.1-.3,2.3.5,2.8.9Z"/><path class="cls-1" d="M66.4,27.9c-1.3,0-4.9,1.2-4.8,1.4,0,.1,2.6-.6,4.3-.4,2.9.4,3.8,2.2,4.7,2.6,1,.4.9-.9-.4-2.3-.9-1-2.8-1.3-3.8-1.3Z"/><path class="cls-1" d="M88.2,31.1c-.2,3.6-1.5,6-2.8,9.8,0,0,0,.8-.2,2-.3,2.5-1.1,7-2.7,10.4-.7,1.4-1.9,3.4-3.5,5.4-2.7,3.5-6.5,7.2-10.4,8.3-.7.2-1.5.3-2.2.4-3.1,0-6.7-2.8-10.5-6.9"/><path class="cls-1" d="M76.3,47.1c.7.8-.3,7.3-5.7,3.3"/><path class="cls-1" d="M79.6,42.4c-.4,1.6,0,3,.8,3.2.8.2,1.7-.9,2.1-2.5.4-1.6,0-3-.8-3.2-.8-.2-1.7.9-2.1,2.5Z"/><path class="cls-1" d="M64.2,37.9c-.3,1.5,0,2.9.9,3.1.8.2,1.7-.8,2.1-2.4.3-1.5,0-2.9-.9-3.1-.8-.2-1.8.8-2.1,2.4Z"/><path class="cls-1" d="M75.1,56.7c-2.8,0-5.8-2-11.6-5.4"/><path class="cls-1" d="M75.1,56.7c-4.2,7.7-14.3-.3-11.6-5.4"/><path class="cls-1" d="M47.1,40.4h0c0,5.3,1.6,10.7,4.9,15.5,1.1,1.6,2.4,3.1,3.9,4.5"/><path class="cls-1" d="M49.9,31.2c-.4-.9-1.2-1.5-2.1-1.6-.9-.1-1.8.3-2.4,1-.8,1-.9,2.5-.8,3.9,0,1.6.3,3.2,1.1,4.6.4.6.9,1.1,1.5,1.5.7.4,1.5.6,2.3.3"/><path class="cls-1" d="M88.2,31.1c0-.2,0-.4,0-.7-.9-7.3-4.5-8-9.7-11.1-6.9-4.1-20.6-1.4-28.5,11.8"/><path class="cls-1" d="M82.4,12.1c-7.9-6.6-22.3-7.4-30.7-2.2-6.9,4.3-9.5,11.2-11.4,19.6-1.4,6-.5,10.8.7,16.9.6,2.8,2.5,5.8,4.6,8.2,2.4,2.7,4.9,4.7,6,5,0,0,0,0,0,0"/><path class="cls-1" d="M87.8,43.3c-2.3,7.2-6.1,12.2-8.8,15.5-.8,1-1.5,1.8-2.1,2.5"/><path class="cls-1" d="M82.4,12.1c6.1,4.3,7.4,9.3,7.6,14.1,0,1.4.1,2.6,0,3.9,0,0,0,.2,0,.3"/><path class="cls-1" d="M52,55.9c-.3,1.2-.4,2.4-.5,3.7-.4,5.3.5,11.5,2.1,16,.2.6.4,1.1.6,1.7,1.9,5,4.1,9.9,5.2,15.2.3,1.2.5,2.4.6,3.6,0,.2,0,.4,0,.5.4,4.6-.3,9.2-2.9,13-1.1-8.9-5.9-16.9-9.6-25.1-.9-2.1-1.8-4.6-2.5-7.3-.5-2.2-1-4.4-1.2-6.7-.7-5.7-.3-11.5,1.5-15.9"/><path class="cls-1" d="M88.3,30.4c.6-.1,1.2-.3,1.8-.3.6,0,1.2.2,1.5.6.5.5.9,1.4.5,2-1.1,1.7,1.8,3,1,4.8-.9,2-1.7,1-1.3,4.1.2,1.4-2.5,2.2-3.9,1.5-.1,0-.2-.1-.3-.2-.2.5-.8.9-1.4.8-.6,0-.7-.4-.8-1"/><path class="cls-1" d="M59.9,96.1c.9-1.5,1.8-2.6,2.8-3.2,1.1-.8,2.5-1.2,4.1-1.2s3.5.6,4.6,1.9,1.6,2.9,1.6,5-.3,2.9-.8,4.1c-.6,1.2-1.5,2.5-2.9,3.7-1.5,1.4-2.6,2.6-3.3,3.7-.6.9-.9,2-1.1,3.1h8.1v5.2h-13.4c0-3.9.7-7,1.7-9.4.9-2,2.4-4,4.6-5.9.9-.8,1.5-1.4,1.8-2,.3-.6.5-1.2.5-1.9s-.1-1.1-.4-1.5c-.3-.4-.7-.6-1.1-.6-.7,0-1.2.2-1.7.6-.6.4-1.2,1.2-2,2.4l-3-3.1-.2-.2c0-.1.1-.2.2-.3Z"/><path class="cls-2" d="M21.9,104.8c4.6,1,9,2.7,13,5.2,0,0,0,0,0,0"/><path class="cls-2" d="M84.2,111.9c0,0-.2,0-.2.1-1.7,1-3.9,1.1-5.8.3"/><path class="cls-2" d="M41.7,78.5c1.1-.4,2.3-.9,3.4-1.3"/><path class="cls-2" d="M69.9,74.6c3.7.9,7.2,2.4,10.4,4.5"/><path class="cls-1" d="M111,267.2c-1.6,5.7-3.3,11.6-5.1,17.1-.8,2.5-1.6,4.9-2.5,7.2"/><path class="cls-1" d="M93.7,270.8c-.1,3.7,0,7.5,0,11.4,0,3.9,0,7.8-.5,11.6"/><path class="cls-1" d="M92.7,293.1c0,.2.2.5.3.7,1.2,2,4.5,3.7,6.4,2.8,1.2-.5,2-1.7,2.7-2.9.4-.8.9-1.5,1.4-2.2.3-.4.6-.7,1-1,1.1-.8,2.1-.8,3,.3"/><path class="cls-1" d="M92.7,293.1c-1.5,3.2-2,8.1-2.7,11.6-.2.8-.3,1.7,0,2.4.5,1,1.6,1.7,2.7,2,10.1,1.9,21.1,3,30.4,4.1,6.7.8,20.1-6.1,5.9-12.8-8.5-4-14.7-5.8-21.5-9.6"/><path class="cls-1" d="M93.6,282.2s0,0,0,0c3.7,1.9,7.9,2.6,12,2"/><path class="cls-1" d="M43.4,270.6c-2.1,3-4,5.6-5.9,8.1-1.5,2-3.1,4-4.7,6"/><path class="cls-1" d="M28.9,266.4c-.8,2.2-1.5,4.2-2.1,6.2-1.2,3.6-2.4,7.1-4.3,10.8"/><path class="cls-1" d="M22.2,282.6c0,.3,0,.5,0,.8.5,2.2,3,4.9,5.1,4.8,1.3-.1,2.5-1,3.5-1.8.7-.6,1.3-1.2,2.1-1.6.4-.2.8-.4,1.3-.6,1.3-.3,2.2,0,2.7,1.2"/><path class="cls-1" d="M22.2,282.6c-2.5,2.5-4.6,7-6.5,10-.4.7-.8,1.5-.8,2.3,0,1.1.9,2.2,1.9,2.7,8.9,5.2,18.9,10,27.3,14.1,6.1,3,21,1,9.8-10-6.7-6.6-11.9-10.4-17-16.3"/><path class="cls-1" d="M26.7,272.5h0c2.8,3,6.6,5.1,10.6,6"/></svg>