<?xml version="1.0" encoding="UTF-8"?><svg id="usa" xmlns="http://www.w3.org/2000/svg" width="235" height="321.9" viewBox="0 0 235 321.9"><defs><style>.cls-1{fill:#2b388d;}.cls-1,.cls-2,.cls-3,.cls-4,.cls-5,.cls-6,.cls-7,.cls-8,.cls-9{stroke:#000;stroke-linecap:round;stroke-linejoin:round;}.cls-2{fill:#4a62ba;}.cls-3{fill:#604131;}.cls-4{fill:#c48f6f;}.cls-5{fill:#724e2b;}.cls-6{fill:#b39b68;}.cls-7{fill:#fff;}.cls-8{fill:none;}</style></defs><path class="cls-4" d="M72.3,119.6c0,1.1-.3,2.2-.7,3.1-1,2.6-3.1,4.2-6.5,3.8-2.7-.3-6.3-2.2-8.3-4.2-.9-1-1.5-2-1.5-2.9,0,0,0,0,0,0,.2-2.3.6-4.7.6-8.1h0c7,5.4,12,6.7,16.4,5.7,0,.9,0,1.8,0,2.7Z"/><path class="cls-4" d="M90.2,71.4c-.5-.3-1.2-.2-1.5.3-.5.9-1.1,1.9-1.6,2.9-.3.7-1.3.8-1.7.1-1.8-2.5-3.9-4.4-6.3-6.4-.6-.5-1.6-.1-1.7.7-.2,2.1-.8,3.8-1.4,5.7-.3.9-1.5,1-1.9.1-1.6-3.4-3.3-5.7-6.5-8.4-.6-.5-1.4-.2-1.6.5-.4,1.2-1,2.4-1.4,3.6-.3.7-1.2.9-1.7.4-1.5-1.6-3.7-3.9-4.1-3.8-1.4.2-2.5,3.7-3.2,6.2-.3.9-1.4,1-1.9.2-.5-.8-.8-1.4-1.3-2.4-.4-.7-1.4-.7-1.8,0-2.3,3.8-2,10.5-1.8,16,0,1.2-1.6,1.5-2,.4,0-.1,0-.2-.1-.3-.4-1.2-2.2-.8-2,.5.5,4.3,1.2,6.8,2.3,10.1.4,1.1-1.1,1.9-1.8,1-.3-.3-.5-.6-.8-.8.4,1.4.9,2.6,1.4,3.8,3.5,3.6,6.7,6.5,9.5,8.8.3.2.5.4.8.6,7,5.4,12,6.7,16.4,5.8,1.1-.2,2.2-.6,3.2-1.1h0c2.2-1,4.2-2.6,6.4-4.3,4.6-3.7,7.9-8.9,9.1-14.8,1.1-5.1,1-9.3,1-10.1,0,0,0-.2,0-.2,1-4.3,1.4-6.1,1.6-10.1h.3c-1-2-2.2-3.8-3.8-4.8ZM60.2,88.4c-1,0-1.8-1.5-1.8-3.4s.8-3.4,1.8-3.4,1.8,1.5,1.8,3.4-.8,3.4-1.8,3.4ZM74.2,108.1c-2.2.3-6.5-.1-8.6-1.5-1.3-.8-2.1-1.3-3.2-2.5-.7-.8,0-1.9,1-1.7,4.6,1.2,12.9,2.5,17.3.9h0c-1.5,2.8-3.1,4.3-6.6,4.8ZM85,87.6c-.8,0-1.5-1.3-1.5-3s.7-3,1.5-3,1.5,1.3,1.5,3-.7,3-1.5,3Z"/><path class="cls-3" d="M96.7,66.3c.6,2,.8,4.6.8,7.2,0,1.6-.2,3.1-.4,4.6-.1,1-1.5,1.2-2,.3-.3-.8-.7-1.5-1.1-2.3h0c-1-1.9-2.2-3.6-3.8-4.7-.5-.3-1.2-.2-1.5.3-.5.9-1.1,1.9-1.6,2.9-.3.7-1.3.8-1.7.1-1.8-2.5-3.9-4.4-6.3-6.4-.6-.5-1.6-.1-1.7.7-.2,2.1-.8,3.8-1.4,5.7-.3.9-1.5,1-1.9.1-1.6-3.4-3.3-5.7-6.5-8.4-.6-.5-1.4-.2-1.6.5-.4,1.2-1,2.4-1.4,3.6-.3.7-1.2.9-1.7.4-1.5-1.6-3.7-3.9-4.1-3.8-1.4.2-2.5,3.7-3.2,6.2-.3.9-1.4,1-1.9.2-.5-.8-.8-1.4-1.3-2.4-.4-.7-1.4-.7-1.8,0-2.3,3.8-2,10.5-1.8,16,0,1.2-1.6,1.5-2,.4,0-.1,0-.2-.1-.3-.4-1.2-2.2-.8-2,.5.5,4.3,1.2,6.8,2.3,10.1.4,1.1-1.1,1.9-1.8,1-.3-.3-.5-.6-.8-.8.4,1.4.9,2.6,1.4,3.8.5,1.1-1,2-1.8,1-1.4-1.7-2.6-3.4-3.5-5.1-2.7-5.2-3.4-10.6-4.7-18.4-.7,1.6-1,3.9-.8,5.9-2.5-9.3-1.1-14.2,2.1-19.6l-.3-.2c-.7,1.3-1.5,1.2-2.9,1.4-.1,0-.2,0-.4,0-.6-.1-1-.7-.8-1.3,2.7-7.6,11.5-16.7,18.2-17.5,1-.1-3-1-1.5-2.1,2.4-1.8,10.8-3,14.2,0,3.2-2.1,11.4-2,16.6-1.3,1,.1,1.2,1.4.4,1.9-.7.4-1.3.7-1.7,1.2h0c10.2,1.3,18.7,7,19.9,19.4-.7-.7-1.4-1.1-2.1-1.2h-.3c0,.2.1.5.2.6Z"/><path class="cls-3" d="M41.6,58.1c-1.7,2.8-3.3,5.2-4.5,7.4"/><path class="cls-3" d="M96,98.8c-.3,1-1.7,1-2,0,0,0,0,0,0,0-.3-1-1.7-1-2,0-1.5,5.1-3.3,9.9-6.5,14.1-.5.6-1.4.5-1.8-.2-.2-.4-.4-.8-.5-1.2h0c-1.3,2.2-3.4,4-5.3,5.9-.5.5-1.2.4-1.6-.1-.2-.4-.5-.8-.6-1.2v-.2c-.1,0-.1,0-.1,0,2.2-1,4.2-2.6,6.4-4.3,4.6-3.7,7.9-8.9,9.1-14.8,1.1-5.1,1-9.3,1-10.1,0,0,0-.2,0-.2,1-4.3,1.4-6.1,1.6-10.1h.3c.4.6.8,1.4,1.1,2.1.4,1,1.8.8,2-.3.2-1.5.3-3,.4-4.6h.5c1.8,7.7.4,17.6-1.9,25.3Z"/><path class="cls-3" d="M55.2,110.6h0c0,.5-1.2,1.5-2.1,2.5-.3.4-.9.5-1.4.2-5.1-3.7-11-10.5-11.3-11.8h0c0,0,0-.1,0-.2h0c0-1.3,0-2.5,0-3.6.9,1.7,2,3.4,3.5,5.1.8.9,2.2,0,1.8-1,3.5,3.6,6.7,6.5,9.5,8.8Z"/><path class="cls-3" d="M40.6,102.9c.1,1.1-1.3,1.6-1.9.7-7.3-11-8.4-24.1-5.2-35.9v-1c.2,0,.3,0,.4,0,1.4-.2,2.2,0,2.9-1.4l.3.2c-3.1,5.5-4.6,10.4-2.1,19.6-.2-2.1.1-4.3.8-5.9,1.3,7.8,2,13.3,4.7,18.4-.1,1-.1,2.3,0,3.6h0c0,0,0,.1,0,.2h0c0,.5,0,1,.1,1.5Z"/><path class="cls-3" d="M40.7,96.4c-.1.4-.2.8-.2,1.3"/><path class="cls-8" d="M55.3,119.4h0"/><path class="cls-8" d="M72.3,116.9s0,0,0-.1"/><path class="cls-7" d="M86.3,129.5c-3.4-3.7-9.6-7.1-14.7-6.7.4-.9.6-2,.7-3.1h.5c1.8-.2,6.8.2,8.9.7v.3c2,2.3,3.7,5.6,4.5,8.9Z"/><path class="cls-1" d="M99.8,148.4c-.4.8-.9,1.4-1.4,1.9-2.2,2-5.5,2.1-10.5,3.8.2-6.7.4-13.8-.9-19.8,0-1.5-.2-3.1-.7-4.8-.9-3.3-2.5-6.6-4.6-8.9v-.3c.1,0,.2,0,.2,0,3.2.8,4.6,2.8,7,5,3.9,3.7,8,11.5,10.9,23Z"/><path class="cls-7" d="M56.8,122.3l-.4.4c-3.1,1.1-6.6,1.6-7.3,5.8-1-3.2-1.2-5.8-3.9-7.8,3.9-.4,9.8-.8,10.1-1.3,0,.9.5,1.9,1.5,2.9Z"/><path class="cls-1" d="M48.9,138.3c-1.3,2.8-3,7-4.7,10.8-1.3,2.9-2.6,5.5-3.8,7.1-.3-.1-.6-.2-.9-.4-3.3-1.4-10-4.7-13-7.5-1-.9-1.5-1.7-1.5-2.4,0,0,6.8-14.3,8.7-16.1,2.6-2.5,5.1-7.1,8.4-8.6.4-.2,1.7-.4,3.2-.5h0c2.7,2,2.9,4.6,3.9,7.8s.9,6.7-.2,9.8Z"/><path class="cls-2" d="M86.9,134.3c0-1.5-.2-3.1-.7-4.8-3.4-3.7-9.6-7.1-14.7-6.7-1,2.6-3.1,4.2-6.5,3.8-2.7-.3-6.3-2.2-8.3-4.2l-.4.4c-3.1,1.1-6.6,1.6-7.3,5.8,1,3.2.9,6.7-.2,9.8-1.3,2.8-3,7-4.7,10.8h.2c0,0,.3,5.8.4,7.3.3,3.2.6,6.6.4,9.9,0,1.3-.3,3.2-.6,5.5-.5,3.7-1.1,8.2-1.6,11.8-.3,2.3-.6,4.3-.6,5.4,0,.2.3.4.5.5h0c3.2,2.5,19.3,4.4,22.8,4.6,4.4.2,8.9-.1,13.2-.6,2.3-.2,4.5-1.3,6.7-1.7.6-.1,1.1-.2,1.7-.2.1-3.1.2-6.5.3-9.9,0-4.5.2-9,.2-13.5,0-2.8,0-5.5,0-8.1s0-3.9,0-5.9h0s0,0,0-.1c0,0,0,0,0,0,.2-6.7.4-13.8-.9-19.8ZM79,166.2h-18c.1-4.2.9-7.6,2.3-10.1,1.2-2.1,3.2-4.3,6.1-6.4,1.1-.8,1.9-1.5,2.4-2.2.4-.6.6-1.3.6-2.1s-.2-1.2-.6-1.7c-.4-.4-.9-.6-1.5-.6-.9,0-1.7.2-2.3.6-.8.4-1.6,1.3-2.6,2.5l-4.4-3.6c1.3-1.8,2.6-3,3.9-3.8,1.5-.9,3.3-1.3,5.5-1.3s4.7.7,6.2,2c1.4,1.3,2.2,3.1,2.2,5.4s-.3,3.2-1,4.4c-.8,1.3-2.1,2.6-3.9,4-2,1.5-3.5,2.8-4.4,4-.8,1-1.3,2.1-1.4,3.4h10.9v5.6Z"/><path class="cls-8" d="M44.4,149.1s0,0,0,.2"/><path class="cls-6" d="M91.1,234.5c-.7.2-1.4.5-2.1.7-5.1,1.6-10.7,3.1-17.9,1.9-2.2-.4-4.5-.9-7-1.8,0-3-.6-9.6-.6-13.1l-.9-.2c-1.6,6.9-3,13.9-3,13.3-1,.2-2.2.3-3.7.3-5.4,0-13.4-.9-18.4-2.1-2.3-.5-4-1.1-4.5-1.6,0,0,8.3-34.2,9.7-42.3,0,0,0,0,0,0,0,0,0,0,0,0t0,0c3.2,2.5,19.3,4.4,22.8,4.6,4.4.2,8.9-.1,13.2-.6,2.3-.2,4.5-1.3,6.7-1.7.4,5.6,2.2,14.2,3,19.4.9,6.1,2.5,16.7,2.5,23.3Z"/><path class="cls-8" d="M85.6,191.7v-.4"/><path class="cls-8" d="M62.6,221.9c1.1-4.6,2.3-9.1,3.3-11.2"/><path class="cls-8" d="M40.7,199.3s1.9-8.7,2.1-9.7"/><path class="cls-8" d="M72.8,203.8c-1.9,1.8-5.9,6-6.9,7"/><path class="cls-5" d="M93.5,275.8c0-.3-.1-.7-.2-1.2"/><path class="cls-4" d="M55.9,235.5h0c-1,2-2.1,2.4-2.6,5.6-.5,3.2.2,6.3-.3,9.5-1.1,7.4-5.6,14.3-7.8,21.5-1.3,4.4-3.8,17.6-4.1,22.9-.8-1.2-1.5-2-2.4-2.5,1.8-8.1-4.6-10.2-6.8-10.1-.7,0-1.4.1-2,.3v-.3c2.4-14.3,1.3-21.6,2.7-29.2.7-3.5,3.3-7.9,4.1-11,.9-3.5,0-4.6.8-8.7,5,1.1,13,2.1,18.4,2.1Z"/><path class="cls-4" d="M88,285.3c-1.8,2-2.1,4.9-1.6,7.5l.7.2c-1.2.7-1.8,1.8-2.6,3.2-.7-8.2-5.7-22.4-9.8-34.7-2-5.9-6.4-14.2-2-19.8-1-2.3-1.5-2.8-1.8-4.6,7.2,1.2,12.8-.3,17.9-1.9,0,1.5,0,2.4-.3,4.8,4.1,5.6,3.7,10.8,3.7,15.7,0,3.2.3,14.5.9,19h0c.5,3.4,1,6.8,1.5,8.5-2.4-.1-5.5.8-6.7,2.2Z"/><path class="cls-5" d="M94.8,283.5c0-.1,0-.2,0-.3"/><path class="cls-5" d="M25.3,291.1c-.9.3-1.8.7-2.7,1.2"/><path class="cls-5" d="M38.7,292.5c-1-.6-2.2-.9-4-1.3-2.6-.6-6-1.2-9.5-.1.7-.3,1.2-.8,1.7-1.4.5-.8-.4-3.6,0-4.5.6-1.2,1.7-2.1,3-2.5.6-.2,1.3-.3,2-.3,2.2,0,8.6,2,6.8,10.1Z"/><path class="cls-5" d="M41.7,307.4c-1.3,1.3-4.8,1-6.6,1-5.1,0-10.1,0-15.2,0-1.6,0-3.4-.2-4.4-1.3-.9-1-1-6.7-.7-8,.7-2.7,5.2-5.5,7.8-6.7.9-.4,1.9-.7,2.7-1.2,3.5-1.1,6.9-.5,9.5.1,1.7.4,2.9.7,4,1.3.9.5,1.6,1.2,2.4,2.5,1.1,1.8,2.1,10.9.6,12.4Z"/><path class="cls-5" d="M111.3,308.2c-.4.2-3.1.8-3.5.8-4.7.2-21.4-.3-22.8-1.1-1.9-1.2-1.4-9.7-.4-11.6.7-1.5,1.4-2.5,2.6-3.2.4-.2.9-.4,1.4-.5,2.2-.5,6.4-.5,8.7-.5.7,0,1.6,0,1.9-.6,3.7,1,10.6,3.6,12.2,6.9.7,1.3,1.3,9.3,0,9.9Z"/><path class="cls-5" d="M99.2,291.3c-.4.6-1.2.7-1.9.6-2.3,0-6.5,0-8.7.5-.5.1-1,.3-1.4.5l-.7-.2c-.5-2.6-.2-5.5,1.6-7.5,1.2-1.4,4.2-2.3,6.7-2.2,1.2,0,2.2.3,2.8.9,1.6,1.4,1.7,4.1,1.8,6.2,0,.4,0,.8-.1,1.1Z"/><path class="cls-8" d="M87.5,78.1c-1.1-2.5-3.3-2.2-4.3-.9"/><path class="cls-8" d="M61.8,77.5c-2.1-2.1-4.9-1-5.3.6"/><path class="cls-8" d="M75.1,91.3c0,1,1.7,1.9,2.6,2.5s.5.6.4,1c-.2,1.2-1.2,3-2.6,3.5"/><path class="cls-8" d="M81.3,103.1c-.2,0-.3.1-.5.2"/><path class="cls-8" d="M96.5,65.7c-.9-2.3-3.2-6.5-2.7-6"/><path class="cls-8" d="M78.9,47.5c-.3.3-.5.7-.5,1.3"/><path class="cls-8" d="M73.9,50.6c4,1.7,7.9,5.6,10.5,9.6.6.9-.3,1.9-1.3,1.5-2.5-1.1-5.2-1.9-7.4-3"/><path class="cls-8" d="M83.5,110.9c0,.2-.2.4-.3.6"/><path class="cls-7" d="M80.8,103.4c-1.5,2.7-3.1,4.2-6.6,4.7-2.2.3-6.5-.1-8.6-1.5-1.3-.8-2.1-1.3-3.2-2.5-.7-.8,0-1.9,1-1.7,4.6,1.2,12.9,2.5,17.3.9h0Z"/><path class="cls-9" d="M62.1,85c0,1.9-.8,3.4-1.8,3.4s-1.8-1.5-1.8-3.4.8-3.4,1.8-3.4,1.8,1.5,1.8,3.4Z"/><path class="cls-9" d="M86.5,84.7c0,1.6-.7,3-1.5,3s-1.5-1.3-1.5-3,.7-3,1.5-3,1.5,1.3,1.5,3Z"/><path class="cls-4" d="M87.5,181.6c0-4.5.2-9,.2-13.5,1-1.1,1.7-1.9,2.3-2.4-.6-.4-1.5-8.6-2.2-11.5h0s0,0,0-.1c5-1.7,8.3-1.8,10.5-3.8.7,3.6,1.7,12.2,2.4,15.2,1.8,7.6-6.9,12.6-13.2,16.2Z"/><path class="cls-8" d="M87.5,181.6l-.4.2"/><path class="cls-8" d="M90,165.8c0,0,.1,0,.1,0"/><path class="cls-8" d="M87.7,168.2c-.1.1-.2.2-.4.4"/><path class="cls-4" d="M90,165.8c1.1-1,2.2-1.4,5.1-2.2"/><path class="cls-4" d="M44.6,171.7c-.5,3.7-1.1,8.2-1.6,11.8h-.6c-3.8-2.1-2.4-1.5-6.2-3.2-5.2-2.2-13.9-8-13.8-13.7,0-4.8,1.8-12,4.2-18.2,3,2.8,9.8,6.1,13,7.5-.5,1.7-3.2,8.6-3.7,10.3,3,1.8,5.9,3.7,8.8,5.7Z"/><path class="cls-8" d="M45.1,172c-.2-.1-.3-.2-.5-.3"/><path class="cls-8" d="M35.8,166c-.6-.4-1.3-.8-1.9-1.2"/><path class="cls-8" d="M71.6,122.8c0,0-.2,0-.3,0"/><path class="cls-7" d="M79,160.6v5.6h-18c.1-4.2.9-7.6,2.3-10.1,1.2-2.1,3.2-4.3,6.1-6.4,1.1-.8,1.9-1.5,2.4-2.2.4-.6.6-1.3.6-2.1s-.2-1.2-.6-1.7c-.4-.4-.9-.6-1.5-.6-.9,0-1.7.2-2.3.6-.8.4-1.6,1.3-2.6,2.5l-4.4-3.6c1.3-1.8,2.6-3,3.9-3.8,1.5-.9,3.3-1.3,5.5-1.3s4.7.7,6.2,2c1.4,1.3,2.2,3.1,2.2,5.4s-.3,3.2-1,4.4c-.8,1.3-2.1,2.6-3.9,4-2,1.5-3.5,2.8-4.4,4-.8,1-1.3,2.1-1.4,3.4h10.9Z"/></svg>