<?xml version="1.0" encoding="UTF-8"?><svg id="usa" xmlns="http://www.w3.org/2000/svg" width="235" height="321.9" viewBox="0 0 235 321.9"><defs><style>.cls-1{fill:#3a2e28;}.cls-1,.cls-2,.cls-3,.cls-4,.cls-5,.cls-6,.cls-7,.cls-8,.cls-9,.cls-10{stroke-linecap:round;stroke-linejoin:round;}.cls-1,.cls-2,.cls-3,.cls-4,.cls-5,.cls-6,.cls-9,.cls-10{stroke:#000;}.cls-2{fill:#83a5c8;}.cls-3{fill:#b62026;}.cls-4{fill:#d14752;}.cls-5{fill:#a57463;}.cls-6,.cls-7{fill:#fff;}.cls-7,.cls-8{stroke:#231f20;}.cls-8,.cls-9{fill:none;}</style></defs><path class="cls-5" d="M90,41.5h0c-.2-2.1-.1-3-.5-6-.9-8-13.2-4-17.9-3.2-2,.3-15.8-7.2-23.9-.7-2.3,1.9-1.9,9.4-2.8,12.1-.9,2.6-2.8,1.3-2.5,7.9-.1.7-.1,1.5-.1,2.3,1.2.3,2.4.3,3.8-.5h0c-.1-1.1-.2-1.8-.2-2,2.3,0,16.4-.3,21.1-.6,0,.5,0,1.1-.1,1.5,1.6,0,3.4,0,5,0,0-.6-.1-1.2-.2-1.8,3.6.2,13.2.5,17.9.6.5-3.3.7-6.8.4-9.7ZM59.8,49.8c-2.5-.5-6.2-.4-7.5,0-.4-1.8,1-1.4,1.8-1.8,1.7-1,5.1,0,6.7.9-.3.9-.1,1.4-.9,1.1ZM84.3,49.6c-2.6-.8-5.2,0-7.3.5-.8-1.7,1.6-2.8,4.1-2.7,2.6,0,2.8.6,3.3,2.1h0Z"/><path class="cls-3" d="M99.4,130.4c-1.6,2.8-1.8,3.7-3.3,4.5-1.1.6-3,1.1-6.8,2.3,0-7.4,0-14.4-.2-20.5,0-2.1-.1-4-.2-5.8,0-1.6-1.5-13.8-2.4-15.3,3.7,1.7,6.2,5.6,7.7,9.3,2.3,5.9,3.5,20.5,5.2,25.5Z"/><path class="cls-7" d="M50.3,95.8h-.2c-4.5-1-7,2.1-8.4,6.3,1-5.7-2.9-8.3-5.6-7.7.5-.3,1-.6,1.4-.8,1.8-.9,11.1-2.9,13.3-2.9-.8,1.7-.8,3.4-.5,5.1Z"/><path class="cls-3" d="M41.6,102.1s0,0,0,0c-1.8,5.4-2,12.6-2.4,15.6-.1,7.6-.7,14.1-.8,19.1h0c0,1,0,1.9,0,2.7-.5-.2-1.3-.4-2.1-.7-4.3-1.1-11.6-2.3-14.3-4.3-.7-.5-1.1-1.1-1.1-1.8,0,0,3.7-23.3,6.3-28.4,1.5-3.1,5.3-7.7,8.7-10,2.7-.6,6.7,1.9,5.6,7.7Z"/><path class="cls-7" d="M50.8,90.7h0"/><path class="cls-7" d="M89.1,116.8c-1.3-11.2-2.5-18.5-12.3-21h-.6c0-1.3-.3-2.7-1-4.1h.2c2.5.1,9.1,3,11.2,3.9.8,1.6,2.3,13.8,2.4,15.3,0,1.8.2,3.8.2,5.8Z"/><path class="cls-8" d="M38.5,136.8c0-.8-.1-1.6-.2-2.4"/><path class="cls-4" d="M89.1,116.8c-1.3-11.2-2.5-18.5-12.3-21h-.6c.1,5.7-5.3,9.7-10.6,10.2-6.7.7-11.7-2.3-14.1-7h-.1c-.4-1-.8-2.1-1-3.2h-.2c-4.5-1-7,2.1-8.4,6.3,0,0,0,0,0,0-1.8,5.4-2,12.6-2.4,15.6-.1,7.6-.7,14.1-.8,19.1h0c.3,3.1.5,6.3.3,9.4-.3,5.6-2.7,27.5-3.1,32.4,1.7,3.4,20.1,5.2,24.6,5.4,5.1.3,9.7,1.1,14.8.5,3.3-.4,9.2-.8,12.4-.9,0-.1,0-.2,0-.3h0c.4-11.9,1.9-34.2,1.9-46.1s0-14.4-.2-20.5ZM74,143.7c-1.8,1.6-4.2,2.4-7.3,2.4s-7.1-1.9-9.6-5.6l4.8-3.6c1.4,2.3,3,3.4,4.9,3.4s3.1-1.1,3.1-3.4-.3-2.4-.9-3c-.6-.6-1.5-.9-2.9-.9h-2.5v-5.6h2.5c2,0,3-1.1,3-3.2s-.8-2.8-2.5-2.8-3,1-4.6,3l-4.4-3.8c2.4-3.3,5.5-4.9,9.2-4.9s5,.7,6.6,2c1.6,1.3,2.4,3.2,2.4,5.7s-1.2,5.2-3.7,6.5c2.9.9,4.4,3.2,4.4,7s-.9,5.3-2.6,6.9Z"/><path class="cls-2" d="M92.3,232.3c-1.4,1-2.8,1.9-4.2,2.7-.2.1-.5.3-.7.4-5,2.7-10.4,4.2-17.2,2.3-2.5-.6-5.2-1.8-8.1-3.4.2-4.9-1.2-27.9-.9-33.6h0c-1.5,13.6-3,36.6-3.1,35.2-2.4,1-4.2,1.8-5.7,2.3-3,1.1-5.2,1.2-10.4,0-1.9-.4-6.2-2.2-9.7-4.2-2-1.1-3.7-2.3-4.6-3.4,0,0,4.1-19.8,6.4-36,.9-6.3,1.5-12.1,1.5-16,1.7,3.4,20.1,5.2,24.6,5.4,5.1.3,9.7,1.1,14.8.5,3.3-.4,9.2-.8,12.4-.9,0-.1,0-.2,0-.3h.7c0,.5,0,.9,0,1.3,0,7.9.4,9.1.9,17.2h0c.6,9.9,2.1,20.8,3.3,30.4Z"/><path class="cls-8" d="M62.2,193.4c-.3,1.8-.7,4.3-1,7.4"/><path class="cls-8" d="M67.9,190.6c-2.3,2.1-3.9,2.7-5.1,4"/><path class="cls-5" d="M90.8,267.5h0c-3,1.5-10.4,3.8-12.8,1.1h0c-1.9-8.1-3.1-9.9-5-17-2.2-8.3-2.8-10.2-2.7-13.9,6.8,1.8,12.2.4,17.2-2.3h.9c1,6.2,1.8,9,1.6,13.6-.1,2.8.3,11.5.8,18.5Z"/><path class="cls-6" d="M91.7,276c-3.1-1.2-9.8.6-11.6,3-.8-4.4-1.5-7.7-2.1-10.4h0c2.4,2.7,9.8.4,12.8-1.1h0c.3,3.8.6,7.1.9,8.5Z"/><path class="cls-8" d="M70.3,237.8h0"/><path class="cls-6" d="M46.4,293.8h0c-.3-.6-.7-1.1-1-1.5h0c2-11-1.6-14-9-15-1.8,0-3.5.8-4.6,2.2.1-2.9.2-5.5.2-7.8,2.1,3,11.8,3.1,14.3,1.2-.4,6.8-.1,16.2.2,20.9Z"/><path class="cls-8" d="M52.4,238.3c0-.1,0-.2,0-.4"/><path class="cls-5" d="M52.6,241.3c-.2,9-2.8,15.5-5.7,25.9-.4,1.4-.6,3.4-.8,5.8-2.5,1.9-12.2,1.7-14.3-1.2,0-11.5-1.4-16.5-.9-24.3.2-4,1-9.6,1.5-13.4,3.5,2,7.8,3.8,9.7,4.2,5.2,1.2,7.3,1.1,10.4,0,.1,1,.2,2,.1,3Z"/><path class="cls-8" d="M32.5,233.4c0,.2,0,.4,0,.7"/><path class="cls-8" d="M52.8,93s0,0,0,.1"/><path class="cls-8" d="M73.3,90.4c0,0,0-.1,0-.2"/><path class="cls-7" d="M76.1,95.8c.1,5.7-5.3,9.6-10.6,10.2-6.7.7-11.7-2.3-14.1-7h-.1c-.4-1-.8-2.1-1-3.2-.3-1.7-.3-3.4.5-5.1.4-.9,1-1.7,1.9-2.5h0c0,2,0,4,0,5h0c-.1,3.2,4.5,7.1,9.4,8,7.8,1.5,11.5-4.5,11.1-10.9h0c0-.3,0-.6,0-.9h.3c.5.8.9,1.5,1.3,2.2.7,1.5,1,2.9,1,4.2Z"/><path class="cls-8" d="M51.7,100c-.1-.3-.3-.6-.4-1"/><path class="cls-8" d="M89.1,116.9s0,0,0,0"/><path class="cls-8" d="M36,94.4s0,0,0,0"/><path class="cls-9" d="M28.9,289.1c-1,.4-2.1.9-3.1,1.6"/><path class="cls-3" d="M45.3,292.3h0c-1.5-1.8-3-2.2-5.8-3-2.8-.8-6.7-1.6-10.6-.2.7-.5,1.4-1,1.8-1.8.6-1-.4-4.9,0-6,.2-.6.6-1.2,1-1.7,1.2-1.4,2.9-2.1,4.6-2.2,7.4,1,11,3.9,9,14.9Z"/><path class="cls-3" d="M47.4,307.6c-1.4,1.7-5.4,1.3-7.5,1.3-5.7,0-11.8.1-17.5,0-1.8,0-3.8-2.5-4.9-4-1-1.4-1-3.4-.6-5.2.8-3.6,5.8-7.4,8.7-9.1,1-.6,2.1-1,3.1-1.6,3.9-1.4,7.7-.6,10.6.2,2.8.8,4.4,1.2,5.8,3,.3.4.7.9,1,1.6,0,.2.2.3.3.5,1.3,2.4,2.6,11.2.9,13.3Z"/><path class="cls-3" d="M94.6,286.6c-.4.8-1.4.9-2.2.9-2.5,0-7.3-.1-9.8.6-1.2.4-2,.9-2.6,1.7-.6-3.5-2-8,0-10.8,1.8-2.4,8.5-4.2,11.6-3,.4.2.8.4,1.1.7,1.8,1.9,1.9,5.6,2,8.4,0,.5,0,1-.2,1.5Z"/><path class="cls-3" d="M109.4,307c-.4.2-6,1.4-6.5,1.4-5.2.3-23.8,1.1-25.4,0-2.1-1.6-.4-12.6.7-15.2.6-1.4,1.1-2.5,1.8-3.4.6-.8,1.4-1.3,2.6-1.7,2.5-.7,7.2-.7,9.8-.6.8,0,1.8,0,2.2-.9,4.2,1.3,11.9,4.9,13.7,9.3.7,1.8,2.6,10.3,1.1,11.1Z"/><path class="cls-9" d="M36.4,138.6c0,0,0,.2,0,.2"/><path class="cls-6" d="M36.4,138.9c-.6,4.4-1.1,6.9-1.1,7.8h0c-.2,3.9,0,4.7-1.5,9.6-1.1,3.3-3.9,17.9-3.2,25.8h-.4c-2.8,1.8-6.4,2.4-9.6,1.5,0-1.8,0-3.4-.2-4.4-1.7-6.9-2.4-32.2.7-37.7.6-1.1.8-2.8,1.2-6.9,2.7,2.1,10.1,3.2,14.3,4.3Z"/><path class="cls-9" d="M22.1,134.4c0,0,0,.1,0,.2"/><path class="cls-5" d="M33.2,194.5c-.2,1.8-.6,3.6-1,4.5-.8,1.9-2.8,2.3-5.3,2.6-2.5.3-5.2-.9-5.7-2.9.1,0,.4.7.5.6-2.3-2.7-1.4-10.3-1.2-15.7,3.2.8,6.8.3,9.6-1.5h.4c.2,1.8.5,3.3,1.2,4.2h0c1.2,1.8.7.8,1.5,2.7.4,1,.3,3.3,0,5.5Z"/><path class="cls-9" d="M35.3,145.2c0,.5,0,1,0,1.4"/><path class="cls-9" d="M31.8,186.4s0,0,0,0"/><path class="cls-6" d="M94.5,183.1h-.7c-1.6,1.2-3.7,1.8-5.6,1.6,0-.4,0-.9,0-1.3h-.7c.4-11.9,1.9-34.3,1.9-46.1,3.8-1.2,5.7-1.7,6.8-2.3.1,3.4-.2,4.5,0,6.5,2.4,19.3-3.1,28.4-1.7,41.6Z"/><path class="cls-5" d="M89,201.9c-.5-8.1-.8-9.4-.9-17.2,2,.2,4-.4,5.6-1.5h.7c.2,1.8.5,3.7,1,5.8,1.7,6.7,1.2,12.1-6.5,13Z"/><path class="cls-9" d="M89,201.9c-.1,0-.2,0-.3,0"/><path class="cls-9" d="M45.6,76.6h0"/><path class="cls-5" d="M88.5,66.6c-1,3.4-.9,8.6-7,14.6-2.9,2.9-5.3,5.7-8.2,7.2h0c-4.6,2.5-10.2,1.9-20.8-6.1-1.9-1.4-3.9-3.1-6.2-5-1.4-2.4-4.1-7-4.7-11.1h-.2c-1.2.9-2.6.9-3.6-2.2-.7-2.1-2.1-5.4-1.3-7.5.3-.7.8-1.3,1.7-1.7,1.8-.8,3.5-.2,4.3,1.5,0,.6.1,1.1.2,1.5.1.7.2,1.1.2.8s0-.4,0-.6c1.1.5,2.2,0,3.6-.4.3,2.2.6,4.2.8,4.2,5.8.2,13.4,0,18.2-.1.5-2.5.8-4.6,1-7,1.8-.1,3.6.2,5.5.2h0c.2,2.1.5,4,.9,6.2,4.2.2,10.6.3,15.8.2.1,1.7,0,3.7-.5,5.4Z"/><path class="cls-9" d="M90,41.5c0-.2,0-.5,0-.7"/><path class="cls-9" d="M77,50.1c0,0-.1,0-.2,0"/><path class="cls-9" d="M60.2,49.9c-.1,0-.2,0-.4,0"/><path class="cls-9" d="M71.8,61c1.6,1.9,2.5,3.3,3,4.4,0,2.9-2.8,3.5-5.1,3.2"/><path class="cls-9" d="M90.4,43.1c-.1-.6-.2-1.2-.2-1.7"/><path class="cls-1" d="M91.5,51.2c-.4,0-1.1,0-1.8,0,.5-3.3.7-6.8.4-9.7h0c-.2-2.1-.1-3-.5-6-.9-8-13.2-4-17.9-3.2-2,.3-15.8-7.2-23.9-.7-2.3,1.9-1.9,9.4-2.8,12.1-.9,2.6-2.8,1.3-2.5,7.9-.1.7-.1,1.5-.1,2.3-2-.6-3.8-2-6.1-2,.2,1.5.4,3.1,0,4.6h.2c-.8,2.2.6,5.5,1.3,7.5,1,3.2,2.4,3.1,3.6,2.3h.2c.6,4.1,3.3,8.7,4.7,11.1-.3-.2-.6-.5-.9-.8,0,.4,0,.9,0,1.3-1-.8-6.3-6.7-8.4-11.1-3.1-6.6-4.2-14.6-3-24.2,1.2-9.5,5.7-15.4,7.4-17.7h0c22.7-22.4,43.7-3.7,46,0,2.9,4.6,6.9,10.2,3.9,26.2Z"/><path class="cls-9" d="M91.5,51.2c-.5,2.9-1.3,6-2.3,9.6"/><path class="cls-9" d="M42.1,24.2c-.1.2-.3.4-.5.8"/><path class="cls-9" d="M45.6,76.4c0,0,0,.2,0,.2"/><path class="cls-9" d="M46.9,78.2c-.1-.2-.3-.5-.5-.8"/><path class="cls-9" d="M41.7,66.2c-.1-.8-.1-1.5,0-2.2"/><path class="cls-1" d="M84.4,49.5h0c-2.6-.7-5.2,0-7.3.6-.8-1.7,1.6-2.8,4.1-2.7,2.6,0,2.8.6,3.3,2.1Z"/><path class="cls-9" d="M77,50.1s0,0,0,0"/><path class="cls-1" d="M60.8,48.8c-.3.9-.1,1.4-.9,1.1-2.5-.5-6.2-.4-7.5,0-.4-1.8,1-1.4,1.8-1.8,1.7-1,5.1,0,6.7.9Z"/><path class="cls-9" d="M76.1,75.6c-5.7,2-12.2,1-15.1-1.3"/><path class="cls-9" d="M52.7,93.2c0,.3,0,.5,0,.6"/><path class="cls-9" d="M90.3,52.3h0"/><path class="cls-9" d="M92,51.2c0-.1,0-.1,0,0h0Z"/><path class="cls-10" d="M81.5,56.2c0,1.3-.5,2.3-1.1,2.3s-1.1-1-1.1-2.3.5-2.4,1.1-2.4,1.1,1,1.1,2.4Z"/><path class="cls-10" d="M91.5,51.2c-.4,0-1.1,0-1.8,0-4.7,0-14.3-.3-17.9-.6,0,.6.1,1.2.2,1.8,0,.8.2,1.6.2,2.4.2,2.1.5,4,.9,6.2,4.2.2,10.6.3,15.8.2.6,0,1.1,0,1.7,0,.2,0,.5-1.6.7-3.5.2-1.3.3-2.8.4-4,.1-1.2.2-2.2.2-2.5-.1,0-.3,0-.5,0ZM90.3,52.4h0c0,.8-.7,7.4-1.1,7.4-.1,0-.2,0-.3,0-4.6.1-10.5,0-14.3-.1-.6-2.7-.8-4.6-1.1-7.8,3.3.2,12.8.4,16,.4.3,0,.6,0,.8,0,0,0,0,0,0,0h0Z"/><path class="cls-6" d="M89.5,52.4c-3.2,0-12.7-.2-16-.4.3,3.2.6,5.1,1.1,7.8,3.8.1,9.7.2,14.3.1-.2-1.4-.4-2.3-.4-2.3.3-1.5.7-3.3,1-5.2ZM80.5,58.5c-.6,0-1.1-1-1.1-2.3s.5-2.4,1.1-2.4,1.1,1,1.1,2.4-.5,2.3-1.1,2.3Z"/><path class="cls-1" d="M90.3,52.4c0,.8-.7,7.4-1.1,7.4-.1,0-.2,0-.3,0-.2-1.4-.4-2.3-.4-2.3.3-1.5.7-3.3,1-5.2.3,0,.6,0,.8,0Z"/><path class="cls-10" d="M46,51.4c0,.2,0,.9.2,2,0,1.1.2,2.7.4,4.2.3,2.2.6,4.2.8,4.2,5.8.2,13.4,0,18.2-.1.5-2.5.8-4.6,1-7,0-.7.2-1.5.2-2.3,0-.5,0-1,.1-1.5-4.7.3-18.8.6-21.1.6ZM64.1,60.3c-4,.1-10.3.2-15.2.1-.5,0-1.1-7.1-1.2-7.8h0c0-.1,0-.1,0,0,1.9,0,13.7-.2,17.5-.5-.3,3.3-.6,5.3-1.2,8.1Z"/><path class="cls-6" d="M47.8,52.6c0,.7.7,7.8,1.2,7.8,4.8.1,11.2,0,15.2-.1.6-2.8.8-4.8,1.2-8.1-3.9.2-15.6.5-17.5.5ZM56.8,58.5c-.6,0-1.2-1.1-1.2-2.4s.5-2.4,1.2-2.4,1.2,1.1,1.2,2.4-.5,2.4-1.2,2.4Z"/><path class="cls-10" d="M58,56.1c0,1.3-.5,2.4-1.2,2.4s-1.2-1.1-1.2-2.4.5-2.4,1.2-2.4,1.2,1.1,1.2,2.4Z"/><path class="cls-9" d="M46,51.4c0,0,0-.1,0-.1"/><path class="cls-9" d="M36.4,56.4c0-.1-.2-.4-.3-.6"/><path class="cls-10" d="M46.6,57.5c-1.4.4-2.5.9-3.6.4h0c0-.6-.2-1.2-.4-1.6-.8-1.7-2.5-2.3-4.3-1.5-.9.4-1.4,1-1.7,1.7h-.2c.3-1.6.1-3.1,0-4.7,2.4,0,4.2,1.4,6.1,2,1.2.3,2.4.3,3.8-.5h0c0,1.1.2,2.7.4,4.2Z"/><path class="cls-9" d="M43,57.9c0,0-.1,0-.2-.1-.1,0-.3-.1-.4-.2-1.2-.9-1.4-2.9-2.8-3"/><path class="cls-10" d="M94.3,54.1c-.7,2,.2,4.2-2.9,3.5.2-1.3.3-2.8.4-4,.8.1,2,.4,2.5.4Z"/><path class="cls-9" d="M91.3,57.7c-.3,0-.7-.2-1.1-.3"/><path class="cls-9" d="M91.8,53.7c-.2,0-.4,0-.6,0"/><path class="cls-10" d="M72.2,54.8h0c-1.9,0-3.7-.3-5.5-.2,0-.7.2-1.5.2-2.3,1.6,0,3.4,0,5,0,0,.8.2,1.6.2,2.4Z"/><path class="cls-9" d="M66.9,52.3h0"/><path class="cls-9" d="M66.7,54.6c0,0-.2,0-.2,0"/><path class="cls-5" d="M73.4,90.3h0c.4,6.4-3.3,12.3-11.1,10.9-5-.9-9.6-4.9-9.4-8h0c0-1,0-3,0-5,0-2.2-.1-4.6-.1-5.8,10.6,8,16.2,8.6,20.8,6.1,0,.3.1.7.1,1s0,.6,0,.9Z"/><path class="cls-9" d="M20.5,183.6c0,0-.2,0-.3,0"/><path class="cls-9" d="M88.2,184.7c-.3,0-.5,0-.8-.1"/><path class="cls-6" d="M76.7,136.8c0,3-.9,5.3-2.6,6.9-1.8,1.6-4.2,2.4-7.3,2.4s-7.1-1.9-9.6-5.6l4.8-3.6c1.4,2.3,3,3.4,4.9,3.4s3.1-1.1,3.1-3.4-.3-2.4-.9-3c-.6-.6-1.5-.9-2.9-.9h-2.5v-5.6h2.5c2,0,3-1.1,3-3.2s-.8-2.8-2.5-2.8-3,1-4.6,3l-4.4-3.8c2.4-3.3,5.5-4.9,9.2-4.9s5,.7,6.6,2c1.6,1.3,2.4,3.2,2.4,5.7s-1.2,5.2-3.7,6.5c2.9.9,4.4,3.2,4.4,7Z"/></svg>