<?xml version="1.0" encoding="UTF-8"?><svg id="usa" xmlns="http://www.w3.org/2000/svg" width="235" height="321.9" viewBox="0 0 235 321.9"><defs><style>.cls-1{fill:#50637f;}.cls-1,.cls-2,.cls-3,.cls-4,.cls-5,.cls-6,.cls-7,.cls-8,.cls-9,.cls-10{stroke:#000;stroke-linecap:round;stroke-linejoin:round;}.cls-2{fill:#e0bfa4;}.cls-3{fill:#9c6548;}.cls-4{fill:#a1624e;}.cls-5{fill:#68513e;}.cls-6{fill:#d8bb2b;}.cls-7{fill:#fff;}.cls-8{fill:#f2d949;}.cls-9{fill:none;}</style></defs><path class="cls-1" d="M108.6,282.6c-1.7.9-3.2,1.6-4.6,2.2-5.4,2.3-8.7,2.6-13,2.6h0c-1.8,0-3.7,0-6,0-.1-.9-1-21.9-1-23.1-.4-9.4-1.8-29.4-17.4-43h-.2c-4.3,14.1-9.6,33.2-16.1,43.5-.5.8-12.1,21.4-12.7,22.1-2.5-.3-4.6-.6-6.4-.8h0c-5.7-.7-8.7-1.2-13.5-3.6-1.4-.6-2.9-1.5-4.6-2.5.5-.6,11.5-24.5,11.8-25.1,10.8-18.9,4.5-43.5,11.6-62.2h0c18.3,4.7,31.9,7.2,51.1,5.5,5.2,4.5,19.7,25.1,20.8,34.8,1.5,12.9,1.5,19.9,1.6,24.5,0,1.4-1.5,24-1.4,25.1Z"/><path class="cls-2" d="M84.7,69.4c-8.8.5-17.2,4-25,8.1h0c-1-.7-2.5-.7-3.5,0-1.5,1-2.3,2.9-2.5,4.8,0,.8,0,1.7,0,2.5.3,2.5,1.6,4.9,3.7,6,.6,3.2.6,10.2.2,15.6-.2,3.1-.6,5.7-1,6.8,0,0,0,0,0,0v.3c.6,1.3,2.1,2.6,3.9,3.8,3.3,2.2,7.8,3.8,9.5,4.3,2.7.6,5.8.2,7.6-1.6.3-.3.5-.6.6-1,.4-1.3-.5-2.8-.7-4.7,0-.5,0-1,.1-1.6l.2-.4c4.3,2.1,7.9,2.9,9.1,2.7,4.2-.7,8.9-6.2,8.9-6.2,8-8.8,8-17.4,8.7-19.5.3-1.1.6-1.8,1-2.5.5-1,1.1-2.2,1.9-4.7.5-10.2-13.9-13.4-22.7-12.9ZM80.6,85.7c.4-1.5,1.4-2.5,2.3-2.3.9.2,1.4,1.5,1,3-.4,1.5-1.4,2.5-2.3,2.3-.9-.2-1.4-1.5-1-3ZM81.8,98.8l.2-.3c4.2,2.8,7.3,4.6,12.1,5.1-2.8,8.2-12.4,7.7-12.3-4.8ZM101.2,90.3c-.4,1.5-1.4,2.6-2.3,2.5-.9-.2-1.3-1.6-.9-3.1.4-1.5,1.4-2.6,2.3-2.4.9.2,1.3,1.6,1,3.1Z"/><path class="cls-7" d="M94,103.6c-2.8,8.2-12.4,7.7-12.3-4.8l.2-.3c4.2,2.8,7.3,4.6,12.1,5.1Z"/><path class="cls-9" d="M77.8,112.5c-4.4-2.1-9.7-5.5-14.3-10.4"/><path class="cls-9" d="M103.6,83.7c-.2-2.5-4.1-2.9-5.1-1.6"/><path class="cls-9" d="M87.5,79.1c-1.3-1.9-6.2-3.7-9-1.5"/><path class="cls-9" d="M94.9,90.9c1.7,7.1.8,10.5-3.2,8.6"/><path class="cls-10" d="M101.2,90.3c-.4,1.5-1.4,2.6-2.3,2.5-.9-.2-1.3-1.6-.9-3.1.4-1.5,1.4-2.6,2.3-2.4.9.2,1.3,1.6,1,3.1Z"/><path class="cls-10" d="M84,86.4c-.4,1.5-1.4,2.5-2.3,2.3-.9-.2-1.4-1.5-1-3,.4-1.5,1.4-2.5,2.3-2.3.9.2,1.4,1.5,1,3Z"/><path class="cls-9" d="M82,98.5c-.3-.2-.6-.4-.9-.6"/><path class="cls-6" d="M48.7,130.5c-2.1,3.7-4.5,7.8-6.8,11.5-3.7,5.9-7.1,11-8.7,12.5-.2-.4-.4-.8-.6-1.1h0c-2.5-4.2-6.5-6.5-11.4-7.5,2.6-5.9,7.6-16.6,8.3-17.5,4.1-5.4,5.7-8.6,9.8-10.9,3,0,6.3,2.2,7.9,4.6.3.4.5.9.8,1.4,1,2.1,1.3,4.6.7,6.9Z"/><path class="cls-2" d="M50.9,191.3c-2.3,1-8.7-4.5-9.9-6.5-.9-.7-1.8-1.4-2.6-2-8.8-6.9-13.7-11.4-19.3-21.5-1.6-2.9-1.3-6.7.6-11.8.1-.4.7-1.8,1.5-3.7,4.9,1.1,8.9,3.3,11.4,7.5h0c-.8,1.3-1.1,2.1-2.3,3.9,4.3,6,6.5,10.2,9.5,14.6,1,1.5,2.1,3,3.4,4.7h0c1.9-1.9,11.8.4,12.8,2.6,1.1,2.5-3.2,11.2-5.1,12.1Z"/><path class="cls-8" d="M90.7,130.5c-1-2.9-3.2-9.8-12.6-11.2-.1.3-.3.7-.6,1-1.9,1.8-5,2.2-7.6,1.6-1.7-.4-6.2-2.1-9.5-4.3h0c-4.9.6-8.8,2.3-12.1,6h-.3c1,2.2,1.3,4.7.7,7-2.1,3.7-4.5,7.8-6.8,11.5,1.1,6.8-.5,18.9-1.8,29.7l-.4.2c1,1.5,2.1,3,3.4,4.7h0c1.9-1.9,11.8.4,12.8,2.6,1.1,2.5-3.2,11.2-5.1,12.1-2.3,1-8.7-4.5-9.9-6.5-.9-.7-1.8-1.4-2.6-2h0c-1,5.5-1.1,4.4-3,9.5.4.1.7.2,1.1.3,18.3,4.9,31.9,7.3,51.1,5.6.6-14.4,2.8-28.1,3.7-42h0c0-.5,0-1,0-1.5.5-8,.4-16-.6-24.3ZM78.8,161.5h-1.8c0-.1-.4,5.2-.4,5.2l-4.3-.3.4-5.4-8.7-.7.3-4.5,9.7-16.9,4.6.4-1.3,16.9h1.8c0,.1-.4,5.5-.4,5.5Z"/><path class="cls-9" d="M43.5,177c-.1-.2-.2-.3-.4-.5"/><path class="cls-6" d="M100.5,148.8c-3.4.9-7.3,2.9-9.1,5.9.5-8,.4-16-.6-24.3-.5-5.2-2.6-9.2-4.8-12.6.8.3,1.3.6,1.5.6,6.7,4.9,9.6,21.8,13.1,30.4Z"/><path class="cls-2" d="M119.6,169.8c-3.1.6-.6-.2-3.2,1.5-2.5,1.6-4.3,4.3-3.7,7h-.1c-2.9-6.8-20.5-16.5-21.3-22h0c0-.5,0-1,0-1.5,1.9-3,5.8-5,9.1-5.9.4,1,.9,2,1.3,2.7,4.7,6.8,12.4,14.9,17.8,18.2Z"/><path class="cls-9" d="M91.3,155.9c0,.1,0,.2,0,.4"/><path class="cls-2" d="M123.5,181.3c-2.9,1.9-4.7,2.7-7.7.9-1.5-.9-2.6-2.1-3.1-3.6,0-.1,0-.2,0-.3-.6-2.6,1.2-5.4,3.7-7,2.6-1.7,0-.9,3.2-1.5,3.5-.9,7.5.8,9,3.7,1.5,2.9-2.2,5.9-5.1,7.9Z"/><path class="cls-9" d="M70.9,207.6c-1.4,3.2-2.9,8-4.6,13.6"/><path class="cls-9" d="M31.1,286.2h0"/><path class="cls-2" d="M27.3,291.1h0c0,.2-.1.2-.2.3-1.1,1.1-10.1,1-10.4-1.6h-.6c0-.4.1-.7.2-.9.4-2,.8-4.1,1.3-6.2,4.8,2.4,7.8,2.9,13.5,3.6-1.3,1.7-2.5,3.4-3.9,4.9Z"/><path class="cls-9" d="M16.1,289.6v.3"/><path class="cls-9" d="M17.7,282.2c0,.1,0,.2,0,.4"/><path class="cls-9" d="M91.4,293.9h0c0,0,0-.2,0-.4"/><path class="cls-9" d="M90.9,287.4h0"/><path class="cls-2" d="M103.9,284.8c-.1.8-.2,1.7-.4,2.6-1.1,1.1-1.6,2.6-2.1,4-.5,1.4-1.2,2.9-2.5,3.8-2.3,1.6-6.1.6-7.5-1.6h0c0-.1,0-.3,0-.5,0-1.1-.2-3.1-.4-5.6,4.4,0,7.7-.3,13-2.6Z"/><path class="cls-3" d="M134.9,310.5c-3.1,2-7.2,2.4-11,2.6-11.8.5-19.4-3.3-31.1-4.5-1.4-.1-3-.4-3.8-1.4-.6-.7-.7-1.7-.7-2.6,0-3.9.5-7.7,1.5-11.5h1.5c0,0,0,.2,0,.4h0c1.4,2.2,5.2,3.1,7.5,1.6,1.4-.9,2-2.4,2.5-3.8.5-1.4,1-2.9,2.1-4,1.2-1.1,2.4-1.4,3.7-.5h.1c9.7,3.4,15.3,9.2,25,12.5,1.7.6,3.4,1.2,4.6,2.4,2.5,2.6,1,6.7-2.1,8.8Z"/><path class="cls-9" d="M34.7,289.3c0-.1-.1-.2-.2-.3"/><path class="cls-3" d="M43.8,319.1c-11.2-2.3-17.4-5.3-34.3-15.7-1.1-.7-2.4-1.4-2.7-2.5-.2-.9.2-1.7.5-2.5,1.7-3.5,5.3-6.7,7.9-9.8l1.1.2c0,.3-.1.6-.2.8h.6c.3,2.7,9.3,2.9,10.4,1.7,0,0,.1-.1.2-.2,1.1-1.1,2.2-2.2,3.7-2.8,1.5-.6,2.7-.5,3.5.6l-.3.2c7,12.3,4.5,12.2,15.2,17.7,1.5.8,3.2.2,3.6,1.7,1.9,7.7-2.1,12-9.2,10.5Z"/><path class="cls-9" d="M57.4,90.9c1.2.6,3,.6,3.7-.7"/><path class="cls-9" d="M60.6,78.7c-.2-.5-.6-.9-1-1.1"/><path class="cls-4" d="M105.6,87c.5-1,1.1-2.2,1.9-4.7.5-10.2-13.9-13.4-22.7-12.9-8.8.5-17.2,4-25,8.1h0c-1-.7-2.5-.7-3.5,0-1.5,1-2.3,2.9-2.5,4.8,0,.8,0,1.7,0,2.5h-.1c-1,2.3-1.5,5.3-1.6,8.3h-.4c-2.2-.4-7.5-16.9-4.7-21.2,2.8-4.3,6.6-9.9,11-12.5,9.4-5.4,21.9-8.5,32.6-6.6,9.3,1.7,11.9,4.3,15.2,7.8.7.8,1.4,1.5,2.3,2.4,4.2,4.2,2.8,25.9-2.4,23.8Z"/><path class="cls-9" d="M105.6,87c-.1,0-.2-.1-.4-.2"/><path class="cls-4" d="M105.7,60.8c-3.3-3.5-5.9-6.1-15.2-7.8-10.7-1.9-23.2,1.2-32.6,6.6-4.4,2.5-8.2,8.2-11,12.5,0-10.4,2.8-16.3,11-22.6,8.2-6.4,20.2-8.3,30-4.9,9.3,3.1,13.8,6.5,17.8,16.3Z"/><path class="cls-9" d="M105.9,61.4c0-.2-.2-.4-.2-.6"/><path class="cls-5" d="M57.6,106.5c-1.1-1.5-2-3.2-2.5-5-.6.9-1.1,2-1.4,3.1-1.1-2.1-1.9-6.7-1.7-11.3.1-3,.6-6,1.6-8.3h.1c.3,2.5,1.6,4.9,3.7,6,.6,3.2.6,10.2.2,15.6Z"/><path class="cls-9" d="M57.9,106.9c-.1-.1-.2-.2-.3-.4"/><path class="cls-9" d="M21.3,145.9c0,0-.1,0-.2,0"/><path class="cls-9" d="M91.4,154.8s0,.1-.1.2"/><path class="cls-7" d="M60.4,117.5h0c-4.9.6-8.8,2.3-12.1,6h-.3c-.2-.4-.5-.9-.8-1.3-1.6-2.4-4.9-4.6-7.9-4.6,1.2-.7,2.7-1.3,4.6-1.9,1.8-.4,10-1.9,12.6-2.3v.3c.6,1.3,2.1,2.6,3.9,3.8Z"/><path class="cls-7" d="M90.7,130.5c-1-2.9-3.2-9.8-12.6-11.2.4-1.3-.5-2.8-.7-4.7.4.2,5.8,2.2,8.4,3.3,2.3,3.5,4.3,7.4,4.8,12.6Z"/><path class="cls-9" d="M78.2,119.2h-.4"/><path class="cls-7" d="M77.4,156.1l1.3-16.9-4.6-.4-9.7,16.9-.3,4.5,8.7.7-.4,5.4,4.3.3.4-5.3h1.8c0,.1.4-5.2.4-5.2h-1.8ZM73.4,152.2l-.3,3.6h-1.2c-1.3-.2-2.1-.2-2.7-.2.6-.9,1.3-2,2.1-3.6l.5-.8c.8-1.5,1.5-3,2.2-4.6-.2,1.3-.4,3.2-.6,5.6Z"/><path class="cls-9" d="M73.9,146.6c-.2,1.3-.4,3.2-.6,5.6l-.3,3.6h-1.2c-1.3-.2-2.1-.2-2.7-.2.6-.9,1.3-2,2.1-3.6l.5-.8c.8-1.5,1.5-3,2.2-4.6Z"/><path class="cls-9" d="M73.9,146.6c-.2,1.3-.4,3.2-.6,5.6l-.3,3.6h-1.2c-1.3-.2-2.1-.2-2.7-.2.6-.9,1.3-2,2.1-3.6l.5-.8c.8-1.5,1.5-3,2.2-4.6Z"/></svg>