<?xml version="1.0" encoding="UTF-8"?><svg id="africa" xmlns="http://www.w3.org/2000/svg" width="235" height="321.9" viewBox="0 0 235 321.9"><defs><style>.cls-1{stroke-linecap:round;stroke-linejoin:round;}.cls-1,.cls-2{fill:none;stroke:#000;}.cls-2{stroke-miterlimit:10;}.cls-3,.cls-4,.cls-5,.cls-6,.cls-7,.cls-8,.cls-9,.cls-10,.cls-11{stroke-width:0px;}.cls-4{fill:#4f4f4f;}.cls-5{fill:#808180;}.cls-6{fill:#1e160d;}.cls-7{fill:#d66749;}.cls-8{fill:#d8bb2b;}.cls-9{fill:#b18d6b;}.cls-10{fill:#f2d949;}.cls-11{fill:#fff;}</style></defs><path class="cls-4" d="M137.6,302.9c2.5,2.6,1,6.8-2.1,8.8-3.1,2-7.2,2.5-11.1,2.6-11.9.5-19.6-3.3-31.4-4.6-1.4-.2-3-.4-3.8-1.4-.6-.7-.7-1.7-.7-2.6,0-3.8-.5-4,.4-7.4,14.2-.9,17.4-4.4,22-9.3,9.8,3.4,12.4,8.1,22.2,11.4,1.7.6,3.5,1.2,4.6,2.4Z"/><path class="cls-9" d="M129.2,173.3c1.5,3-2.3,6-5.2,7.9-2.9,1.9-4.7,2.7-7.7.9-1.5-.9-2.6-2.2-3.1-3.7,0-.1,0-.2,0-.3-.6-2.7,1.2-5.5,3.8-7.1,2.6-1.7,0-.9,3.2-1.5,3.5-.9,7.6.8,9.1,3.8Z"/><path class="cls-9" d="M120.1,169.5c-3.2.6-.6-.2-3.2,1.5-2.5,1.6-4.4,4.4-3.8,7.1h-.1c-2.9-6.9-20.8-16.7-21.5-22.2,0-.5,0-1,0-1.5,1.9-3,5.8-5,9.2-6,.4,1.1.9,2,1.3,2.8,4.7,6.8,12.5,15,18,18.4Z"/><path class="cls-5" d="M66.3,221.6c-4.3,14.3-9.7,33.6-16.2,44-.5.8-11.7,31.3-12.2,32-6.9-.9-11.9-1-16.5-1.9h0c1-3.3,17.4-35.3,18.8-40.3,1.4-5.1,3-12.9,3.5-18.2,1.3-15.8.8-26.1,3.1-41.9,13.6,3.1,25.4,4.4,40.9,3,5.2,4.5,19.9,25.4,21,35.1,1.5,13,1.5,20.1,1.6,24.8,0,1.4.3,29.8.4,30.8-4.5,4.9-7.8,8.5-22,9.3-.4,0-.9,0-1.3,0-.1-.9-3.4-32.2-3.5-33.4-.4-9.5-1.8-29.7-17.6-43.4h-.2Z"/><path class="cls-6" d="M103.3,62.5c1.6,2.7,2,6.5,1.8,10.4h-.5c-2.4-6.7-16.8-12.4-23.5-10-9.2,3.3-12.5,15.1-13.7,16.4-1.1,1.2-5.1.6-6.8-.3h0c-.7-1.7-2.7-2.1-4.1-1.2-1.4,1-2.1,2.9-2.2,4.7-.3,3.3.9,6.9,3.4,8.3.3,1.6.4,4.3.3,7.3-5.2-5.2-7.6-12.3-7.9-20-.4-9.3,1-26.5,17.4-30.5,23.6-5.7,32.4,8.9,35.9,14.7Z"/><path class="cls-9" d="M80.1,98.3l-.2.2c0,12.2,8.6,12.7,11.2,4.7-4.3-.5-7.2-2.3-11-4.9ZM57.7,90.9c-2.5-1.4-3.7-5.1-3.4-8.3.2-1.9.9-3.8,2.2-4.7,1.4-1,3.4-.6,4.1,1.1h0c1.7.9,5.7,1.6,6.8.3,1.2-1.3,4.4-13.1,13.7-16.4,6.7-2.4,21.1,3.3,23.5,10h.5c-.2,3.4-.9,6.8-1.8,9.6-1.3,4.5-2,4.6-2.6,7.1-.6,2.1-.6,10.5-7.9,19.1,0,0-4.3,5.4-8.1,6.1-1.1.2-3.9-.5-7.3-2.2-.1.5-.1.9-.1,1.3,0,2,1.4,3.5,1.1,4.7,0,.3-.3.7-.6,1-1.9,1.8-5,2.2-7.7,1.6-1.7-.4-6.2-2.1-9.6-4.3-1.9-1.2-3.4-2.5-3.9-3.9,0,0,0-.2.1-.3.7-2.3,1.3-8.8,1.4-14.4,0-2.9,0-5.6-.3-7.3ZM97.5,90.3c.3-1.5,0-2.9-.9-3-.8-.2-1.7.9-2.1,2.4s0,2.9.9,3c.8.2,1.7-.9,2.1-2.4ZM81.9,86.5c.3-1.4-.1-2.8-.9-2.9-.8-.2-1.8.8-2.1,2.3-.3,1.5.1,2.8.9,3,.8.2,1.8-.8,2.1-2.3Z"/><path class="cls-8" d="M100.8,148.4c-3.4,1-7.3,3-9.2,6,.5-8,.4-16.1-.6-24.5-.5-5.3-2.6-9.2-4.9-12.8.8.3,1.4.6,1.5.7,6.7,4.9,9.7,22,13.3,30.7Z"/><path class="cls-3" d="M96.7,87.3c.8.2,1.2,1.5.9,3s-1.3,2.6-2.1,2.4c-.8-.2-1.2-1.5-.9-3s1.2-2.6,2.1-2.4Z"/><path class="cls-10" d="M91.5,155.9c-.9,14.1-3.1,27.9-3.7,42.4-15.5,1.4-27.4,0-40.9-3-1.6-.3-3.2-.7-4.8-1.1-1.9-.5-3.9-1-5.9-1.5-.4,0-.7-.2-1.1-.3,2-5.2,2-4.1,3-9.5h0c.8.6,1.7,1.2,2.6,1.9,1.2,2.1,7.6,7.6,10,6.5,2-.9,6.3-9.7,5.2-12.2-1.1-2.3-11-4.5-13-2.7h0c-1.3-1.6-2.4-3.2-3.5-4.8h.4c1.3-11.1,2.9-23.2,1.8-30.1,2.3-3.8,4.8-7.9,6.9-11.7.6-2.3.3-4.8-.7-6.9h.3c3.3-3.8,7.3-5.5,12.2-6.1h0c3.4,2.1,7.9,3.8,9.6,4.2,2.7.6,5.8.2,7.7-1.6.3-.3.5-.6.6-1,9.5,1.4,11.7,8.4,12.7,11.3,1.1,8.4,1.1,16.5.6,24.5,0,.5,0,1,0,1.5ZM78.9,161.2l.4-5.4h-1.9c0-.1,1.3-17.2,1.3-17.2l-4.7-.4-9.8,17.1-.3,4.6,8.8.7-.4,5.5,4.3.3.4-5.4h1.9Z"/><path class="cls-11" d="M86.1,117.1c2.3,3.5,4.4,7.5,4.9,12.8-1-2.9-3.2-9.9-12.7-11.3.3-1.3-1-2.7-1.1-4.7h.4c.4.2,5.8,2.2,8.5,3.3,0,0,0,0,0,0Z"/><path class="cls-11" d="M91.1,103.3c-2.6,8-11.3,7.5-11.2-4.7l.2-.2c3.8,2.7,6.6,4.5,11,4.9Z"/><path class="cls-11" d="M79.3,155.9l-.4,5.4h-1.9c0-.1-.4,5.2-.4,5.2l-4.3-.3.4-5.5-8.8-.7.3-4.6,9.8-17.1,4.7.4-1.3,17.1h1.9ZM73.4,151.8c.2-2.4.4-4.3.6-5.7-.6,1.6-1.4,3.2-2.2,4.7l-.5.8c-.9,1.5-1.6,2.7-2.1,3.6.5,0,1.4,0,2.7.1h1.2c0,0,.3-3.5.3-3.5Z"/><path class="cls-3" d="M80.9,83.5c.8.2,1.3,1.5.9,2.9-.3,1.5-1.3,2.5-2.1,2.3-.8-.2-1.3-1.5-.9-3,.3-1.4,1.3-2.5,2.1-2.3Z"/><path class="cls-10" d="M74,146.1c-.2,1.3-.4,3.2-.6,5.7l-.3,3.6h-1.2c-1.3-.2-2.2-.2-2.7-.2.6-.9,1.3-2.1,2.1-3.6l.5-.8c.8-1.5,1.6-3,2.2-4.7Z"/><path class="cls-4" d="M52.9,309.8c1.9,7.8-2.1,12.1-9.3,10.7-11.3-2.3-17.5-5.3-34.7-15.8-1.1-.7-2.5-1.4-2.8-2.6-.2-.9.2-1.8.5-2.6,1.7-3.6,2.6-3.7,5.2-6.8,1.2.6,2.4,1.1,3.6,1.5,2,.7,3.9,1.2,5.9,1.6,4.7.9,9.6,1,16.5,1.9,2,3.7.6,4.9,11.4,10.4,1.5.8,3.2.2,3.6,1.8Z"/><path class="cls-11" d="M60.3,116.8h0c-4.9.6-8.9,2.3-12.2,6h-.3c-.2-.4-.5-.9-.8-1.3-1.6-2.5-5-4.7-8-4.7,1.3-.7,2.7-1.3,4.6-1.9,1.8-.4,10.2-1.9,12.8-2.4h0c0,.1,0,.2-.1.3.5,1.3,2,2.7,3.9,3.9Z"/><path class="cls-9" d="M42.9,176.4h0c1.9-1.9,11.9.4,13,2.7,1.1,2.5-3.2,11.3-5.2,12.2-2.3,1.1-8.8-4.5-10-6.5-.9-.7-1.8-1.4-2.6-2-8.9-6.9-13.8-11.5-19.5-21.7-1.6-2.9-1.3-6.7.6-11.9.1-.4.7-1.8,1.5-3.7,5,1.1,9,3.4,11.5,7.6-.8,1.3-1.2,2.1-2.4,3.9,4.3,6,6.6,10.3,9.5,14.6,1,1.6,2.2,3.1,3.5,4.8Z"/><path class="cls-8" d="M32.3,153c-2.5-4.2-6.5-6.5-11.5-7.6,2.6-5.9,7.7-16.7,8.4-17.7,4.2-5.4,5.8-8.7,9.9-11,3,0,6.4,2.2,8,4.7.3.5.6.9.8,1.4,1,2.2,1.3,4.6.7,6.9-2.1,3.8-4.5,7.9-6.9,11.7-3.7,6-7.2,11.1-8.7,12.7-.2-.4-.4-.8-.6-1.1Z"/><path class="cls-7" d="M46.8,195.3c-2.3,15.8-1.8,26.1-3.1,41.9-.5,5.3-2.1,13.1-3.5,18.2-1.4,5-17.8,37-18.8,40.3h0c-2-.3-3.9-.8-5.9-1.5,1-3.2,18.1-34.7,19.6-39.7,1.4-5.1,3-12.9,3.5-18.2,1.3-15.8,1.2-26.3,3.5-42.1,1.6.4,3.2.8,4.8,1.1Z"/><path class="cls-5" d="M42,194.2c-2.3,15.8-2.1,26.3-3.5,42.1-.5,5.3-2.1,13.1-3.5,18.2-1.4,5-18.6,36.5-19.6,39.7-1.2-.4-2.3-.9-3.6-1.5-1-.5-2-1-3.1-1.6.5-.6,15.2-34.7,15.6-35.4,10.9-19.1,4.5-44,11.7-62.8v-.2c2.1.5,4,1,5.9,1.5Z"/><path class="cls-1" d="M56.4,112.9c.5,1.3,2,2.7,3.9,3.9,3.4,2.2,7.9,3.9,9.6,4.3,2.7.6,5.8.2,7.7-1.6.3-.3.5-.6.6-1,.3-1.3-1-2.7-1.1-4.7,0-.4,0-.8.1-1.3"/><path class="cls-1" d="M48.5,129.9c-2.1,3.8-4.5,7.9-6.9,11.7-3.7,6-7.2,11.1-8.7,12.7"/><path class="cls-1" d="M19.2,149.2c.1-.4.7-1.8,1.5-3.7,2.6-5.9,7.7-16.7,8.4-17.7,4.2-5.4,5.8-8.7,9.9-11,1.3-.7,2.7-1.3,4.6-1.9"/><path class="cls-1" d="M38,182.8c-1,5.4-1.1,4.3-3,9.5.4,0,.7.2,1.1.3,2,.5,4,1,5.9,1.5,1.6.4,3.2.8,4.8,1.1,13.6,3.1,25.4,4.4,40.9,3,.6-14.6,2.9-28.4,3.7-42.4,0-.5,0-1,0-1.5.5-8,.4-16.1-.6-24.5"/><path class="cls-1" d="M41.6,141.5c1.1,6.9-.5,19-1.8,30"/><path class="cls-1" d="M19.2,149.2c-1.9,5.2-2.3,9-.6,11.9,5.7,10.2,10.7,14.7,19.5,21.7.8.7,1.7,1.3,2.6,2"/><path class="cls-1" d="M32.3,153h0c-.8,1.3-1.2,2.2-2.4,3.9,4.3,6,6.6,10.3,9.5,14.6,1,1.6,2.2,3.1,3.5,4.8.1.2.3.3.4.5"/><path class="cls-1" d="M86.1,117.1c.8.3,1.4.6,1.5.7,6.7,4.9,9.7,22,13.3,30.7.4,1.1.9,2,1.3,2.8"/><path class="cls-1" d="M77.6,113.8c.4.2,5.8,2.2,8.5,3.3"/><path class="cls-1" d="M43,176.4c1.9-1.8,11.9.4,13,2.7,1.1,2.5-3.2,11.3-5.2,12.2-2.3,1.1-8.8-4.5-10-6.5"/><path class="cls-1" d="M91.5,155.5c0,.1,0,.2,0,.4.7,5.5,18.5,15.3,21.5,22.3"/><path class="cls-1" d="M102.1,151.2c4.7,6.8,12.5,15,18,18.4"/><path class="cls-1" d="M120.1,169.5c-3.2.6-.6-.2-3.2,1.5-2.5,1.6-4.4,4.4-3.8,7.1,0,.1,0,.2,0,.3.4,1.5,1.6,2.8,3.1,3.7,3,1.8,4.8,1.1,7.7-.9,2.9-1.9,6.7-5,5.2-7.9-1.5-3-5.6-4.7-9.1-3.8"/><path class="cls-1" d="M36.1,192.8c-7.2,18.8-.8,43.7-11.7,62.8-.4.6-15.1,34.8-15.6,35.4,1.1.6,2.1,1.1,3.1,1.6,1.2.6,2.4,1.1,3.6,1.5,2,.7,3.9,1.2,5.9,1.6,4.7.9,9.6,1,16.5,1.9.5-.7,11.7-31.2,12.2-32,6.6-10.4,11.9-29.7,16.2-44,1.7-5.6,3.2-10.5,4.6-13.8"/><path class="cls-1" d="M66.4,221.6c15.8,13.7,17.2,33.9,17.6,43.4,0,1.2,3.4,32.5,3.5,33.4.4,0,.9,0,1.3,0,14.2-.9,17.4-4.4,22-9.3,0-1.1-.3-29.5-.4-30.8-.1-4.7-.1-11.8-1.6-24.8-1.1-9.7-15.8-30.6-21-35.1"/><path class="cls-1" d="M43.7,114.9c1.8-.4,10.2-1.9,12.8-2.4"/><path class="cls-1" d="M88.9,298c0,.1,0,.3,0,.4-.9,3.5-.4,3.7-.4,7.4,0,.9,0,1.9.7,2.6.8,1,2.4,1.2,3.8,1.4,11.8,1.3,19.5,5,31.4,4.6,3.9-.1,8-.6,11.1-2.6,3.1-2,4.6-6.3,2.1-8.8-1.2-1.2-2.9-1.8-4.6-2.4-9.8-3.4-12.4-8-22.2-11.4"/><path class="cls-1" d="M11.9,292.6c-2.6,3.1-3.5,3.3-5.2,6.8-.4.8-.8,1.7-.5,2.6.3,1.2,1.6,1.9,2.8,2.6,17.1,10.5,23.3,13.5,34.7,15.8,7.2,1.4,11.3-2.9,9.3-10.7-.4-1.5-2.1-1-3.6-1.8-10.8-5.6-9.4-6.7-11.4-10.4"/><path class="cls-2" d="M20.6,145.4c0,0,.1,0,.2,0,5,1.1,9,3.4,11.5,7.6.2.4.4.7.6,1.1"/><path class="cls-2" d="M100.8,148.4c-3.4,1-7.3,3-9.2,6,0,0,0,.1-.1.2"/><path class="cls-2" d="M48.5,129.9c.6-2.3.3-4.8-.7-6.9-.2-.5-.5-1-.8-1.4-1.6-2.5-5-4.7-8-4.7"/><path class="cls-2" d="M90.9,129.9c-.5-5.3-2.6-9.2-4.9-12.8,0,0,0,0,0,0"/><path class="cls-2" d="M60.3,116.8c-4.9.6-8.9,2.3-12.2,6"/><path class="cls-2" d="M77.8,118.5c.1,0,.2,0,.4,0,9.5,1.4,11.7,8.4,12.7,11.3"/><polygon class="cls-2" points="78.9 161.2 77 161.1 76.6 166.5 72.3 166.1 72.7 160.7 63.9 160 64.3 155.4 74 138.3 78.7 138.7 77.4 155.7 79.3 155.9 78.9 161.2"/><path class="cls-2" d="M74,146.1c-.6,1.6-1.4,3.2-2.2,4.7l-.5.8c-.9,1.5-1.6,2.7-2.1,3.6.5,0,1.4,0,2.7.1h1.2c0,0,.3-3.5.3-3.5.2-2.4.4-4.3.6-5.7Z"/><path class="cls-1" d="M103.3,82.5c-1.3,4.5-2,4.6-2.6,7.1-.6,2.1-.6,10.5-7.9,19.1,0,0-4.3,5.4-8.1,6.1-1.1.2-3.9-.5-7.3-2.2-4.2-2-9.5-5.5-14-10.6"/><path class="cls-1" d="M99.7,83.9c-.2-2.5-3.7-2.9-4.7-1.5"/><path class="cls-1" d="M85.1,79.3c-1.2-1.9-5.7-3.6-8.2-1.5"/><path class="cls-1" d="M92.7,95.3c.5,6.6-6.4,3.3-7.6,1.8"/><path class="cls-1" d="M94.6,89.7c-.3,1.5,0,2.9.9,3,.8.2,1.7-.9,2.1-2.4s0-2.9-.9-3c-.8-.2-1.7.9-2.1,2.4Z"/><path class="cls-1" d="M78.8,85.8c-.3,1.5.1,2.8.9,3,.8.2,1.8-.8,2.1-2.3.3-1.4-.1-2.8-.9-2.9-.8-.2-1.8.8-2.1,2.3Z"/><path class="cls-1" d="M91.1,103.3c-4.3-.5-7.2-2.3-11-4.9-.3-.2-.6-.4-.9-.6"/><path class="cls-1" d="M91.1,103.3c-2.6,8-11.3,7.5-11.2-4.7"/><path class="cls-1" d="M57.7,90.9c.3,1.6.4,4.3.3,7.3-.1,5.6-.7,12.2-1.4,14.4,0,.1,0,.2-.1.3"/><path class="cls-1" d="M103.3,82.5c.8-2.8,1.5-6.2,1.8-9.6.3-3.9-.1-7.7-1.8-10.4-3.5-5.8-12.3-20.5-35.9-14.7-16.4,4-17.8,21.1-17.4,30.5.3,7.7,2.7,14.7,7.9,20h0"/><path class="cls-1" d="M60.6,79c-.7-1.7-2.7-2.1-4.1-1.1-1.4,1-2.1,2.9-2.2,4.7-.3,3.3.9,6.9,3.4,8.3,1.1.6,2.8.6,3.4-.7"/><path class="cls-1" d="M60.3,78.8c0,0,.2.1.3.2,1.7.9,5.7,1.5,6.8.3,1.2-1.3,4.4-13.1,13.7-16.4,6.7-2.4,21.1,3.3,23.5,10"/><path class="cls-1" d="M42,194.2c-2.3,15.8-2.1,26.3-3.5,42.1-.5,5.3-2.1,13.1-3.5,18.2-1.4,5-18.6,36.5-19.6,39.7"/><path class="cls-1" d="M46.8,195.3c-2.3,15.8-1.8,26.1-3.1,41.9-.5,5.3-2.1,13.1-3.5,18.2-1.4,5-17.8,37-18.8,40.3"/></svg>