<?xml version="1.0" encoding="UTF-8"?><svg id="africa" xmlns="http://www.w3.org/2000/svg" width="235" height="321.866" viewBox="0 0 235 321.866"><defs><style>.cls-1{fill:#281f15;}.cls-1,.cls-2,.cls-3,.cls-4,.cls-5,.cls-6,.cls-7,.cls-8,.cls-9,.cls-10,.cls-11{stroke:#000;stroke-linecap:round;stroke-linejoin:round;}.cls-2{fill:#2b388d;}.cls-3{fill:#4a62ba;}.cls-4{fill:#423426;}.cls-5{fill:#9b78bc;}.cls-6{fill:#926b4d;}.cls-7{fill:#805297;}.cls-8{fill:#a687b5;}.cls-9{fill:#fff;}.cls-10{fill:none;}</style></defs><line class="cls-10" x1="85.671" y1="118.777" x2="85.661" y2="118.777"/><path class="cls-2" d="M70.451,119.447v.02c-2.37,1.8-3.91,6.35-4.66,10.92-.48,2.9-.64,5.82-.5,8.04.1.98.25,2.53.39,4.27h-.06c-3.52,3.28-3.68,3.26-4.81,4-.1.07-.2.14-.3.21-.24.17-.48.34-.73.51-4.51-2.4-6.65-10.72-7.04-13.93-.07-.54-.09-.93-.06-1.13.13-.95,4.31-4.76,5.03-5.41,3.85-3.51,6.68-6.31,11.78-7.33.21-.04.54-.1.96-.17Z"/><path class="cls-6" d="M48.571,155.217c-4.38,7.97-7.65,11.71-10.88,18.26l.09.04c2.25.61,4.39,8.91,2.92,10.72-1.59,1.95-10.66,2.76-12.17,1.73-1.81-1.23.2-8.43,1.41-10.25,2.5-11.41,4.01-17.33,10.71-26.9,3.03-4.33,9.04-12.22,12.08-15.33h.01c.39,3.21,2.53,11.53,7.04,13.93-3.16,2.2-7.53,4.92-11.21,7.8Z"/><path class="cls-10" d="M59.781,147.417c.25-.17.49-.34.73-.51"/><path class="cls-10" d="M37.691,173.477c-.09.16-.17.33-.25.5"/><path class="cls-10" d="M62.061,145.757c-.38.3-.79.61-1.25.94"/><path class="cls-9" d="M115.351,131.137c-.75-.15-1.62-.15-2.51-.03-.3.04-.6.1-.9.17-1.65.37-3.26,1.15-4.21,2.19-.15-.94-1.14-2.13-2.15-3.04-.78-.7-1.56-1.22-2.01-1.35.02-.02.04-.05.05-.07-.25-2.25-.24-3.13-.08-4.75.91.5,2.27,1.13,3.77,1.86,1.5.74,3.15,1.58,4.65,2.49,1.31.79,2.51,1.64,3.39,2.53Z"/><path class="cls-10" d="M103.541,124.247l-.06-.03"/><path class="cls-2" d="M121.121,153.287c-.14.15-.49.26-.99.35-2.16.39-7.23.32-11.47.92-.37.05-.74.11-1.1.17-.68.12-1.33.27-1.93.44-.32-2.69-.69-2.86-.76-7.45-.23-2.42-.14-5.19.13-7.61.28-2.41,1.09-4.84,2.73-6.64,1.63-1.8,5.23-2.8,7.62-2.33.59.58,1.04,1.18,1.29,1.8,3.95,9.84,4.93,19.86,4.48,20.35Z"/><path class="cls-6" d="M119.141,164.897c-.96,1.94-2.03,2.09-2.89,2.68-3.52,1.37-6.49,2.18-9.22,2.61-5.91.93-10.71.04-17.66-.93-1.68-.24-3.48-.47-5.46-.69-1.9.69-7.68,1.01-10.65-.01-.88-.3-1.51-.71-1.73-1.27-.8-2.06,2.58-12.37,5.29-13.66.1-.05.2-.09.32-.11h.01c1.2-.3,3.36.32,5.47,1.33,1.66.81,3.31,1.85,4.45,2.89.9.83,1.48,1.65,1.51,2.34l.03.12c7.43-1.52,10.86-.97,18.76-2.77.52-.12,1.06-.25,1.62-.39-.1-.77-.22-1.72-.33-2.48,4.24-.6,9.31-.53,11.47-.92v.02c.31,3.2.55,8.14-.99,11.24Z"/><path class="cls-10" d="M88.611,160.197c-.21.05-.44.09-.66.14"/><path class="cls-10" d="M110.801,156.567c-.63.17-1.23.33-1.81.47"/><path class="cls-10" d="M64.911,190.697c-.09-.31-.17-.63-.24-.94"/><path class="cls-10" d="M107.031,170.187v-.02"/><path class="cls-7" d="M129.701,195.727c-1.18.63-3.29,1.13-4.31,1.75-3.94,2.37-5.6,5.21-8,9.06-2.22,3.56-2.04,6.47-3.03,9.35-.47,1.39-1.21,2.76-2.62,4.21-.43.44-1.11,1.04-1.93,1.73-3.47,2.89-9.58,7.47-11.12,9.55-1.91,2.58-3.81,4.9-2.28,7.71-2.99.76-13.98-20.31-21.25-30.16-4.38-2.21-10.22-8.24-10.49-19.17q-.01-.01-.01-.02c-.03-1.17,0-2.41.11-3.7,1.41-9.14,14.37-6.07,29.89-2.69,7.68,1.68,9.77,3.63,13.6,4.56v-.17c6.19,1.64,16.46,3.84,20.46,5.61,2.39,1.05,2.11,1.78.98,2.38Z"/><path class="cls-10" d="M108.261,187.737c-1.24-.32-2.31-.63-3.14-.9"/><line class="cls-10" x1="109.811" y1="221.827" x2="109.811" y2="221.817"/><path class="cls-6" d="M113.201,259.887c-2.59,9.62-5.28,19.4-8.7,28.6l.2.26c-1.16.81-1.85,2.12-2.55,3.36-.71,1.24-1.55,2.52-2.85,3.1-1.78.8-4.8-.52-6.34-2.3l.01-.01c-.26-9.8-1.03-25.66,2.09-34.85,1.05-3.12,2.21-6.75,2.69-10.02.49-3.35.18-5.89-1.34-8.94-1.53-2.81.37-5.13,2.28-7.71,1.54-2.08,7.65-6.66,11.12-9.55,2.53,4.23,4.14,7.8,6.09,12.34.53,1.24,1.09,2.56,1.7,3.98,2.08,4.84-1.9,12.5-4.4,21.74Z"/><path class="cls-5" d="M124.601,312.947c-9.93-1.16-21.71-2.37-32.47-4.4-1.19-.23-2.38-.98-2.86-2.1-.36-.81-.21-1.73-.03-2.59.76-3.73,1.26-8.99,2.89-12.41.15.5.44.99.83,1.46,1.54,1.78,4.56,3.1,6.34,2.3,1.3-.58,2.14-1.86,2.85-3.1.7-1.24,1.39-2.55,2.55-3.36.01-.01.02-.01.03-.02,1.17-.81,2.22-.86,3.15.28l.1.07c7.21,4.03,13.85,6.03,22.93,10.26,15.16,7.06.87,14.45-6.31,13.61Z"/><path class="cls-6" d="M167.541,226.117c.02.08.03.15.05.23l-.16.04c-18.78-7.79-21.21-.2-32.52-10.54-3.09-.58-5.56-.77-7.69-.77-4.85.01-7.97,1.03-12.86.81.99-2.88.81-5.79,3.03-9.35,2.4-3.85,4.06-6.69,8-9.06,1.02-.62,3.13-1.12,4.31-1.75v.01c2.36.94,2.88,1.29,10.97,6.2,13.93,5.13,21.45,8.1,35.39,13.24.03,1.37.44,2.2,1.04,3.42.61,1.22-8.64,11.16-9.56,7.52Z"/><path class="cls-10" d="M176.061,215.177c-.03-1.3-.29-.08.81-.08"/><path class="cls-5" d="M209.321,220.537c-1.51,2.7-4.37,4.47-7.15,5.95-8.53,4.52-17.67,7.67-26.77,10.79-1.09.38-2.33.75-3.31.25l-.31.06c-.34-.38-.58-.86-.8-1.32-1.53-3.15-2.66-6.49-3.39-9.92-.02-.08-.03-.15-.05-.23.92,3.64,10.17-6.3,9.56-7.52-.6-1.22-1.01-2.05-1.04-3.42.27-.02.54-.05.81-.08.08,0,.15-.01.23-.02,8.21-.76,18.15-1.87,26.21-2.6,1.45-.13,2.98-.25,4.28.3,2.77,1.18,3.24,5.05,1.73,7.76Z"/><path class="cls-10" d="M172.481,238.157c-.27-.14-.5-.34-.7-.57"/><path class="cls-9" d="M89.371,169.257v2.23h-16.32c.03-1.03.1-2.01.21-2.93,2.97,1.02,8.75.7,10.65.01,1.98.22,3.78.45,5.46.69Z"/><path class="cls-3" d="M108.261,187.737v.17c-3.83-.93-5.92-2.88-13.6-4.56-15.52-3.38-28.48-6.45-29.89,2.69-.11,1.29-.14,2.53-.11,3.7-2.53-9.92-.59-20.62,1.36-37.41.22-1.88-.05-6.13-.34-9.63-.14-1.74-.29-3.29-.39-4.27-.14-2.22.02-5.14.5-8.04.38-1.79,3.06-4.41,6.13-5.85,1.17-.55,2.4-.92,3.57-1.01.75-.06,1.45-.1,2.09-.11.14-.01.27-.01.4-.01,2.79-.06,4.64.27,6.84.96-.16.67-.33,1.36-.43,2.04-.1.63.1,1.29.28,1.9.33,1.13.86,2.2,1.61,3.1,1.38,1.65,3.37,2.6,5.44,3.05,3.77.82,9.34-1.41,11.85-5.38.45.13,1.23.65,2.01,1.35,1.01.91,2,2.1,2.15,3.04-.77.84-1.35,1.82-1.78,2.88-.38.9-.64,1.86-.81,2.83-.06.31-.1.62-.14.93-.02.22-.05.44-.07.66q.01,0,0,.01c-.13,1.35-.2,2.79-.19,4.2,0,.67.03,1.35.07,2v.02c.02.24.04.48.06.72,0,.25.01.48.02.7,0,.21,0,.4.01.59.06,1.59.16,2.51.28,3.3.03.19.06.37.09.55.12.66.24,1.31.36,2.31.6-.17,1.25-.32,1.93-.44-.08,1.14-.11,1.56-.19,2.7-1.46.33-2.77.59-3.98.78-.33.06-.66.11-.98.16-4.78.72-8.13.67-13.8,1.83l-.03-.12c-.03-.69-.61-1.51-1.51-2.34.52-.54.93-1.07,1.23-1.61.64-1.13.96-2.46.96-4,0-2.05-.66-3.68-1.98-4.89s-3.19-1.81-5.61-1.81c-1.41,0-2.66.21-3.77.64.01.01,0,.01,0,.01-.31.1-.6.24-.88.39-.1.05-.2.1-.3.16-.1.06-.19.12-.29.19-.58.37-1.16.85-1.74,1.44-.52.53-1.04,1.15-1.56,1.86l1.53,1.27.68.56,1.78,1.47.02.1c-.12.02-.22.06-.32.11-2.71,1.29-6.09,11.6-5.29,13.66.22.56.85.97,1.73,1.27-.11.92-.18,1.9-.21,2.93h16.32v-2.23c6.95.97,11.75,1.86,17.66.93-.74,2.81,1.08,12.9,1.23,17.55Z"/><path class="cls-10" d="M109.541,188.167c-.45-.07-.88-.16-1.28-.26"/><path class="cls-9" d="M85.661,118.777c-.23,2.06-.54,4.24-.71,5.03-.04.19-.08.37-.13.56-2.2-.69-4.05-1.02-6.84-.96-.13,0-.26,0-.4.01-.64.01-1.34.05-2.09.11-1.17.09-2.4.46-3.57,1.01-3.07,1.44-5.75,4.06-6.13,5.85.75-4.57,2.29-9.12,4.66-10.92v-.02c.63-.1,1.47-.22,2.45-.34.82-.1,1.75-.2,2.73-.29.15-.01.3-.02.45-.04.71-.06,1.45-.12,2.2-.16,2.59-.15,5.27-.16,7.38.16Z"/><path class="cls-10" d="M86.011,114.847c0,.06,0,.12-.01.18"/><path class="cls-10" d="M103.741,122.567c-.01.09-.02.19-.03.27"/><path class="cls-10" d="M109.021,157.287c-.01-.08-.02-.16-.03-.25"/><path class="cls-10" d="M108.661,154.557c0-.06-.01-.11-.02-.17"/><path class="cls-10" d="M115.371,131.137h-.02"/><path class="cls-10" d="M85.191,124.477c-.13-.04-.25-.08-.37-.11"/><path class="cls-10" d="M103.571,129.077c-.1-.02-.18-.03-.24-.02"/><line class="cls-10" x1="89.371" y1="169.257" x2="89.371" y2="169.077"/><path class="cls-10" d="M87.071,157.737c-.05.06-.11.13-.17.19"/><path class="cls-3" d="M83.461,152.647c0,.71-.19,1.33-.58,1.88-.07.1-.16.21-.26.32-2.11-1.01-4.27-1.63-5.47-1.33h-.01l-.02-.1c.91-1.15,1.7-1.92,2.39-2.31.58-.37,1.28-.55,2.09-.55.53,0,.98.19,1.33.58.36.39.53.9.53,1.51Z"/><path class="cls-9" d="M89.261,152.127c0,1.54-.32,2.87-.96,4-.3.54-.71,1.07-1.23,1.61-1.14-1.04-2.79-2.08-4.45-2.89.1-.11.19-.22.26-.32.39-.55.58-1.17.58-1.88,0-.61-.17-1.12-.53-1.51-.35-.39-.8-.58-1.33-.58-.81,0-1.51.18-2.09.55-.69.39-1.48,1.16-2.39,2.31l-3.99-3.3c1.19-1.62,2.39-2.78,3.59-3.49,1.37-.8,3.02-1.2,4.95-1.2,2.42,0,4.29.6,5.61,1.81s1.98,2.84,1.98,4.89Z"/><path class="cls-10" d="M82.621,154.847c-.05.07-.12.14-.19.21"/><path class="cls-1" d="M119.051,73.947c-.16.5-.47.89-.87,1.18-.44-.02-.88.03-1.31.16.01.15.01.29.03.43-.13.03-.25.06-.39.08-.96.19-2.03.14-2.94-.06-2.01-.46-5.37-2.23-7.42-2.38-5.49-.4-8.97.13-14.61,3.67-5.64,3.53-9.55,8.84-9.53,15.45-.76-1.47-.97-3.51-3.76-2.56-1.57.53-2.64,2.75-2.79,4.39-.09.91.24,3.36.39,4.26.11.62.37,1.32.74,2.02-.75.19-1.44,1.1-1.95,2.17l-.09-.05c-7.04-11.17.83-25.75,5.07-31.34,3.59-4.73,8.33-7.25,14.26-8.03,2.69-.35,5.65-.44,8.6-.2,2.7.2,5.38.67,7.84,1.45.77.24,1.51.51,2.23.81,1.66.7,7.86,4.45,6.5,8.55Z"/><path class="cls-1" d="M124.431,85.637c-.23,5.61-1.94,13.86-4.07,13.86-.23-.41-.51-.72-.78-.9v-.01l.01-.02c-.06-.9-.07-1.74-.05-2.52v-.01c.29-1.02.51-2.03.65-3.05.14-1.07.2-2.12.17-3.18v-.01c.09-.41.18-.82.27-1.25-.13-.1-.25-.2-.37-.31-.05-.5-.12-1.01-.21-1.51-.13-.73-.3-1.47-.51-2.2-.86-2.96-2.38-5.65-2.64-8.81.48-.13.92-.32,1.28-.59,1.73.07,3.42,1.22,4.18,2.6.95,1.74,2.16,5.74,2.07,7.91Z"/><path class="cls-1" d="M77.841,119.007c1.29,1.04.86,3.1.06,4.55-.79,1.45-1.3,3.02-.93,3.29,1.39,1.04,1.47,2.13,1.28,3.52-.14.97-.36,2.62-1.28,2.96.66,1.05.55,1.48.37,2.14-.06.23-.14.5-.19.83-.12.77-.24,1.68-.31,2.56-.02.19-.04.38-.05.57-.03.38-.04.75-.05,1.09-.01.61.31,1.41.53,2.17.06.19.11.38.15.57.07.29.1.57.07.82-.1.9-.29,1.78-.54,2.65-.79,2.82-2.08,5.59-2.18,8.85-.37-2.04.14-6.39-.17-8.59,0-.08-.02-.16-.03-.23-.24-1.32-.66-2.2-.89-3-.11-.38-.18-.73-.17-1.11.03-.58.25-1.21.81-2.03-.05-.4-.12-.77-.19-1.12-.03-.19-.08-.38-.12-.55-.28-1.2-.62-2.09-.85-2.82-.38-1.23-.43-2.03.69-3.14-1.18-.08-1.72-1.55-1.56-2.7.16-1.15.71-2.27.55-3.42-.13-.97-.75-1.79-1.08-2.71-.75-2.04.1-4.54,1.95-5.71-1.28-.63-1.47-2.42-1.04-3.78.44-1.35,1.31-2.57,1.54-3.97.03-.18.05-.36.05-.55.08-1.36-.36-2.73-.44-4.11-.05-.81.28-2.14.82-3.28.51-1.07,1.2-1.98,1.95-2.17.93,1.78,2.51,3.51,3.8,3.71l.35.01c.16,2.3.6,5.32.86,5.81h-.01l-.23.13c1.21,2.91-1.11,6.71-3.52,8.76Z"/><path class="cls-1" d="M114.221,120.427c.54,2.87-.36,6.09-2.29,8.22,1.68,2.37,1.05,5.69-1.37,7.32.41,1.82.47,3.12-1.76,5.62-.67,1.12-2.44,8.54-3.08,9.66-1.78,3.09-1.68,6.47-3.45,9.56-.08-4.4,1.74-9.35,2.52-13.71.83-4.62.07-6.58.07-6.58-1.45-3.18.44-6.27.9-5.56-1.02-1.44-1.2-4.33,1-5.78,1.05-.68.37-3.81.45-5.12.12-1.99.23-2.03,1.48-3.52l-.11-.13c1.71-1.48,2.94-3.06,2.94-3.06,1.94-2.28,3.35-4.78,4.38-7.21.16-.06.35-.16.56-.28l.07.13v.01c1.74,3.32.66,8.17-2.31,10.43Z"/><path class="cls-6" d="M120.261,88.237c-3.26-2.75-5.45-6.92-3.72-12.29-.61,1.45-2.74,5.2-6.01,4.27-2.69-.76-2.82-.74-4.25-2.82-1.3,3.41-7.71,3.55-8.78.76-.87,3.79-6.92,6.48-8.5,5.1.72,3.8-5.09,9.92-6.99,9.22-.76-1.47-.97-3.51-3.76-2.56-1.57.53-2.64,2.75-2.79,4.39-.09.91.24,3.36.39,4.26.11.62.37,1.32.74,2.02.93,1.78,2.51,3.51,3.8,3.71l.35.01c.16,2.3.6,5.32.86,5.81.93,1.79,2.5,3.44,4.4,4.91,5.97,4.64,15.18,7.57,17.71,7.81.21.02.38.02.49,0,1.51-.25,3.08-1.31,4.38-2.43,1.71-1.48,2.94-3.06,2.94-3.06,1.94-2.28,3.35-4.78,4.38-7.21,2.12-4.97,2.68-9.67,3.03-11.78,0-.04.01-.07.01-.1-.03-.05-.06-.11-.09-.17.26-.68.49-1.36.69-2.04v-.01c.05-2.28.39-4.17.82-6.23v-.01c-.01-.52-.04-1.04-.1-1.56ZM95.951,90.067c-.19-.33.29-.63.7-.78,1.52-.56,3.09-1.14,4.8-1.19,1.49-.04,4.3.47,5.03,1.7.9,1.51-1.74,2.11-3.14,1.86-.83-.14-1.62-.43-2.42-.66-1.29-.36-2.64-.56-3.98-.61-.38-.01-.84-.05-.99-.32ZM101.761,97.277c-.29,1.31-1.14,2.23-1.89,2.07-.76-.17-1.14-1.36-.85-2.67s1.13-2.23,1.89-2.07c.75.17,1.13,1.36.85,2.67ZM98.311,108.817c3.8,2.74,7.51,3.21,11.72,3.68-2.32,7.22-13.26,5.34-11.72-3.68ZM115.871,100.747c-.3,1.36-1.13,2.33-1.86,2.17-.73-.16-1.08-1.39-.78-2.75.3-1.36,1.13-2.33,1.86-2.17.72.16,1.08,1.39.78,2.75ZM118.421,95.847c-.17.04-.35-.02-.51-.07-1.88-.67-3.77-1.33-5.66-1.99-.24-.08-.48-.17-.65-.36-.28-.32-.21-.85.06-1.18.26-.33.68-.51,1.09-.62,2.63-.7,4.33.77,5.74,2.76.17.24.33.5.35.79s-.14.61-.42.67Z"/><path class="cls-6" d="M103.621,129.007c-.01.02-.03.05-.05.07-2.51,3.97-8.08,6.2-11.85,5.38-2.07-.45-4.06-1.4-5.44-3.05-.75-.9-1.28-1.97-1.61-3.1-.18-.61-.38-1.27-.28-1.9.1-.68.27-1.37.43-2.04.05-.19.09-.37.13-.56.17-.79.48-2.97.71-5.03.18-1.51.33-2.96.34-3.75,5.97,4.64,15.18,7.57,17.71,7.81-.07.55-.12,1-.17,1.41v.01c-.16,1.62-.17,2.5.08,4.75Z"/><line class="cls-10" x1="120.179" y1="92.984" x2="120.206" y2="92.983"/><line class="cls-10" x1="120.05" y1="86.729" x2="120.169" y2="86.706"/><line class="cls-10" x1="110.277" y1="64.73" x2="110.323" y2="64.589"/><line class="cls-10" x1="102.476" y1="63.236" x2="102.485" y2="63.127"/><line class="cls-10" x1="74.264" y1="110.145" x2="74.438" y2="110.15"/><path class="cls-1" d="M120.861,103.977c-.51,2.66-2.92,4.99-4.4,5.88-.21.12-.4.22-.56.28,2.12-4.97,2.68-9.67,3.03-11.78.03,0,.05,0,.08.01.46.79.91,1.13,1.35,1.13.55.94.89,2.46.5,4.48Z"/><path class="cls-10" d="M115.901,110.137c-.21.09-.37.12-.48.1"/><path class="cls-10" d="M118.931,98.357c-.07,0-.14.01-.21.04"/><path class="cls-10" d="M119.581,98.597c-.2-.14-.39-.22-.57-.23"/><path class="cls-10" d="M119.011,98.367c-.03-.04-.05-.07-.07-.11"/><path class="cls-10" d="M114.092,75.826c-1.088-1.541-3.14-3.841-3.791-5.606-.651-1.765-.814-3.786-.023-5.493"/><path class="cls-10" d="M102.476,63.238c-.606,1.291-1.218,2.604-1.446,4.01-.227,1.406.249,4.502,1.143,5.62"/><path class="cls-10" d="M92.42,76.199c-2.084-1.826-4.077-9.12-3.212-11.735"/><path class="cls-10" d="M92.42,76.199c-1.387-.193-6.107-.994-7.419-1.478-1.312-.483-4.631-2.18-5.38-3.351"/><path class="cls-10" d="M98.607,63.077c-2.884,3.057-6.187,9.037-6.187,13.121"/><path class="cls-10" d="M102.719,73.043c1.526-2.97,3.959-6.884,7.131-8.003"/><path class="cls-10" d="M72.194,87.757c2.901-1.599,10.66-2.394,12.807-4.9-1.526-2.163-5.302-8.852-5.38-11.486"/><path class="cls-10" d="M118.229,80.83c1.768-.924,2.354-2.698,2.78-4.631"/><path class="cls-10" d="M120.17,86.701c1.501-3.465,2.364-6.129,1.664-9.745"/><path class="cls-10" d="M124.16,89.211c-.88,1.056-2.801,4.01-3.951,3.769"/><path class="cls-10" d="M120.391,86.743c1.704.008,2.683-1.116,4.05-2.503"/><line class="cls-10" x1="80.383" y1="112.101" x2="81.682" y2="112.119"/><path class="cls-10" d="M74.439,110.148c1.554,1.486,3.806,2.225,5.949,1.953"/><path class="cls-10" d="M73.402,118.505c1.581.553,3.404.381,4.85-.456"/><path class="cls-10" d="M72.901,126.853c2.031-.843,3.823-2.242,5.123-4.001"/><path class="cls-10" d="M73.629,132.69c1.495-.002,4.139-3.104,4.447-4.551"/><path class="cls-10" d="M114.222,120.429c-1.916,1.69-4.405,2.693-6.896,2.073"/><path class="cls-10" d="M107.461,126.283c1.818.682,2.605,2.92,4.466,2.366-.099,1.809.42,4.61-.939,5.823s-4.251,1.996-6.08,1.91"/><path class="cls-10" d="M109.025,142.748c-2.141-1.541-3.651-2.602-4.641-5.031"/><path class="cls-8" d="M73.592,142.719c.293.206.662.234,1.015.244.608.017,1.219-.005,1.827-.065.372-.037.764-.097,1.062-.349.535-.452.556-1.302.526-2.029-.015-.365-.055-.782-.329-.986-.197-.147-.458-.135-.699-.119-.882.061-2.749-.221-3.512.355-.754.569-.607,2.444.11,2.947Z"/><path class="cls-8" d="M73.791,146.809c.305.184.676.187,1.029.172.609-.026,1.218-.091,1.822-.193.37-.063.758-.151,1.041-.423.508-.488.478-1.337.406-2.058-.036-.363-.101-.775-.387-.959-.206-.132-.466-.102-.706-.069-.878.123-2.761-.026-3.49.602-.72.62-.462,2.477.285,2.928Z"/><path class="cls-8" d="M103.998,147.824c.204.294.529.444.844.571.544.218,1.1.4,1.666.544.346.088.717.16,1.06.018.614-.255.88-1.063,1.065-1.768.093-.354.178-.767-.01-1.053-.135-.206-.374-.282-.596-.346-.813-.234-2.415-1.124-3.271-.825-.845.295-1.259,2.139-.759,2.859Z"/><path class="cls-8" d="M102.783,151.746c.204.294.529.444.844.571.544.218,1.1.4,1.666.544.346.088.717.16,1.06.018.614-.255.88-1.063,1.065-1.768.093-.354.178-.767-.01-1.053-.135-.206-.374-.282-.596-.346-.813-.234-2.415-1.124-3.271-.825-.845.295-1.259,2.139-.759,2.859Z"/><path class="cls-8" d="M73.546,138.757c.293.206.662.234,1.015.244.608.017,1.219-.005,1.827-.065.372-.037.764-.097,1.062-.349.535-.452.556-1.302.526-2.029-.015-.365-.055-.782-.329-.986-.197-.147-.458-.135-.699-.119-.882.061-2.749-.221-3.512.355-.754.569-.607,2.444.11,2.947Z"/><path class="cls-8" d="M105.071,143.998c.211.288.539.429.857.547.549.203,1.11.369,1.68.497.348.078.722.14,1.061-.011.609-.271.858-1.085,1.028-1.795.085-.357.162-.771-.032-1.051-.14-.202-.38-.271-.604-.329-.819-.211-2.442-1.055-3.292-.734-.84.318-1.213,2.171-.697,2.876Z"/><path class="cls-4" d="M116.541,75.947c-.61,1.45-2.74,5.2-6.01,4.27-2.69-.76-2.82-.74-4.25-2.82-1.3,3.41-7.71,3.55-8.78.76-.87,3.79-6.92,6.48-8.5,5.1.72,3.8-5.09,9.92-6.99,9.22-.02-6.61,3.89-11.92,9.53-15.45,5.64-3.54,9.12-4.07,14.61-3.67,2.05.15,5.41,1.92,7.42,2.38.91.2,1.98.25,2.94.06l.02.15h.01Z"/><path class="cls-4" d="M120.261,88.237c-3.26-2.75-5.45-6.92-3.72-12.29h-.01l-.02-.15c.14-.02.26-.05.39-.08.26,3.16,1.78,5.85,2.64,8.81.21.73.38,1.47.51,2.2.09.5.16,1.01.21,1.51Z"/><path class="cls-10" d="M80.791,101.737c-.14.34-.13,1.35-.05,2.57"/><path class="cls-10" d="M119.101,97.477c-.05.18-.1.45-.16.78"/><path class="cls-10" d="M112.147,107.443c-2.804,1.569-4.666,2.072-7.948,0"/><path class="cls-9" d="M110.031,112.497c-2.32,7.22-13.26,5.34-11.72-3.68,3.8,2.74,7.51,3.21,11.72,3.68Z"/><path class="cls-11" d="M101.761,97.277c-.29,1.31-1.14,2.23-1.89,2.07-.76-.17-1.14-1.36-.85-2.67s1.13-2.23,1.89-2.07c.75.17,1.13,1.36.85,2.67Z"/><path class="cls-11" d="M115.871,100.747c-.3,1.36-1.13,2.33-1.86,2.17-.73-.16-1.08-1.39-.78-2.75.3-1.36,1.13-2.33,1.86-2.17.72.16,1.08,1.39.78,2.75Z"/><path class="cls-1" d="M118.841,95.177c.02.29-.14.61-.42.67-.17.04-.35-.02-.51-.07-1.88-.67-3.77-1.33-5.66-1.99-.24-.08-.48-.17-.65-.36-.28-.32-.21-.85.06-1.18.26-.33.68-.51,1.09-.62,2.63-.7,4.33.77,5.74,2.76.17.24.33.5.35.79Z"/><path class="cls-1" d="M103.341,91.657c-.83-.14-1.62-.43-2.42-.66-1.29-.36-2.64-.56-3.98-.61-.38-.01-.84-.05-.99-.32-.19-.33.29-.63.7-.78,1.52-.56,3.09-1.14,4.8-1.19,1.49-.04,4.3.47,5.03,1.7.9,1.51-1.74,2.11-3.14,1.86Z"/><path class="cls-7" d="M127.221,215.077c-2.58,8.72-6.86,14.58-11.32,19.09-1.95-4.54-3.56-8.11-6.09-12.34.82-.69,1.5-1.29,1.93-1.73,1.41-1.45,2.15-2.82,2.62-4.21,4.89.22,8.01-.8,12.86-.81Z"/></svg>