<?xml version="1.0" encoding="UTF-8"?><svg id="africa" xmlns="http://www.w3.org/2000/svg" width="235" height="321.9" viewBox="0 0 235 321.9"><defs><style>.cls-1{stroke-linecap:round;stroke-linejoin:round;}.cls-1,.cls-2{fill:none;stroke:#000;}.cls-2{stroke-miterlimit:10;}.cls-3,.cls-4,.cls-5,.cls-6,.cls-7,.cls-8,.cls-9{stroke-width:0px;}.cls-4{fill:#3a3a3a;}.cls-5{fill:#3d8e3d;}.cls-6{fill:#212121;}.cls-7{fill:#a0715e;}.cls-8{fill:#fff;}.cls-9{fill:#67b96a;}</style></defs><path class="cls-8" d="M177.9,229.1h0c-.6-.1-1.4-.8-1.8-1.6-1.7-3.4-2.7-6.2-3.5-9.9,0,0,.1,0,.2,0,.5.2,1.6-.4,2.8-1.4,2.2-1.4,4.3-3.6,5.6-5.9,0,0,0,0,0,0,.7-.9,1.1-1.7,1.2-2,0-.7,0-1.2-.2-1.9,0-.3,0-.6-.2-.8,0,0,0,0,0,0,0-.2,0-.3,0-.5,0-.2-.5-.1.9-.3,9-.8,19.9-2,28.7-2.8,1.6-.1,3.3-.3,4.7.3,3,1.3,3.5,5.5,1.9,8.5-1.7,3-4.8,4.9-7.8,6.5-9.3,4.9-19,9.7-29.3,11.8-1.9.4-2.6.4-3,.2Z"/><path class="cls-7" d="M181.7,204.7c.4,0,.8,0,1.1-.1-1.5.2-1,0-.9.3,0,.2,0,.4,0,.5,0-.2-.2-.5-.3-.7Z"/><path class="cls-7" d="M182.1,206.3c.1.7.2,1.3.2,1.9,0,.3-.5,1-1.2,2,.7-1.3,1.1-2.7,1-3.9Z"/><path class="cls-4" d="M172.6,217.3c0,0,0-.1,0-.2h-.2c-20.6-8.7-23.2-.4-35.6-11.7-10.9-2-12.3,0-19.7-.2-.1,0-.3,0-.4,0-1.5-.1-3.1-.3-4.6-.4-11.5-1.1-22.5-2.2-35.5-5.4-1-.2-1.9-.5-2.6-.7-1.1-.3-2-.6-2.7-.9-4.9-2.5-11.5-9.3-11.5-21.8,0-1.1,0-2.2.1-3.3,1.5-10,15.7-6.6,32.7-2.9,8.1,1.8,10.5,3.8,14.5,4.9,0,0,0,0,0,0,1,.4,2.2.8,3.3,1.2,4.7,1.8,10,3.9,12.3,4.8,9.3,3.8,8.6,2.3,20.2,9.4,15.3,5.6,23.5,8.9,38.7,14.5.1.2.2.5.3.7,0,0,0,0,0,0,0,.3.1.6.2.8.1,1.2-.3,2.6-1,3.9,0,0,0,0,0,0-1.4,1.8-3.7,4.3-5.6,5.9-.9.6-1.9,1.1-2.8,1.4,0,0-.2,0-.2-.2Z"/><path class="cls-7" d="M175.6,216.1c-1.2,1-2.3,1.6-2.8,1.4.9-.3,1.9-.8,2.8-1.4Z"/><path class="cls-8" d="M136.9,303c2,3.1-.2,7.4-3.6,9.1s-7.6,1.6-11.5,1.2c-11.9-1.2-21-4.2-32.5-7.2-1.4-.4-2.9-.8-3.6-2-.5-.9-.4-1.9-.2-2.8.6-4.2,1.8-8.3,3.5-12.2l.3-.2c.5.6,1.3,1.3,2.2,1.9,1.4,1.1,2.7,1.7,3.9,1.9h0c.9.2,1.7.1,2.4-.2.3-.2.6-.4,1-.6,1.8-1.2,3.3-3.5,4.4-6.6.2-.2.5-.4.8-.6,1.5-.8,2.4-1,3.6.2h.1c9.2,5,15.8,9.9,25,14.9,1.6.9,3.2,1.8,4.2,3.2Z"/><path class="cls-4" d="M124.7,62.9c.1-.8.2-1.7.3-2.7-2.1-16.1-14-17.6-21.2-16.1-3.5.8-12.4,2.6-16.9,12.9-.2.6-.5,1.2-.7,1.8-2.5,7.2-5.4,28.2.5,33,4.6,3.9,14.9,8.2,17.5,7.8,4.2-.7,10.2-6.3,10.2-6.3,8.2-6.6,6.5-20.7,7.6-22.6,1.1-1.9,2.2-4.3,2.7-7.9ZM64.2,106.4c-.5-1.3-1-2.5-1.9-3.5-.4-.5-.9-.7-1.4-.9-.3-.1-.6-.3-.8-.6-.7-.7-.1-3.8,0-4.8.2-14.1.9-28.5,6.4-41.5,1.8-4.2,4.1-8.2,6.8-11.8,9-11.6,28.3-15.9,42.2-6.8,5.6,3.7,7.7,4.3,10.9,10.1,2.4,4.4,3.8,17.4,1.1,31.2-2.1,10.7-6.5,16.6-11.8,26.1-.9,1.5-2.9,2.9-5.3,4.3-.5.3-1,.6-1.6.9,0,0,0,0,0,0-3.5,2.1-7.2,4.6-8.7,8.1-.4.9-6.6,15.1-23.7,10.3-11.5-1.8-9.6-13.4-12.3-21.1Z"/><path class="cls-6" d="M125,60.3c0,1-.1,1.8-.3,2.7-2.5-3.7-7.1-6.4-13.6-7.9-6.5-1.5-18.3-1.1-24.2,2,4.4-10.2,13.3-12.1,16.9-12.9,7.2-1.6,19.1,0,21.2,16.1Z"/><path class="cls-7" d="M96.1,62.1c2.1-.2,4.3.2,6.1,1.1.6.3,1.3.7,2,.5.5-.1.7-.5.8-.8,0-.3,0-.7,0-1-1.8-1.9-5.2-2.5-8.9-.3v.5ZM124.7,62.9c-.5,3.6-1.6,6-2.7,7.9-1.1,1.9.6,16-7.6,22.6,0,0-6.1,5.6-10.2,6.3-2.6.4-12.8-3.9-17.5-7.8-5.9-4.8-3-25.8-.5-33,.2-.6.5-1.2.7-1.8,6-3.2,17.7-3.5,24.2-2,6.4,1.4,11.1,4.2,13.6,7.9ZM120.5,68.4c.4,0,.9-.2.7-.5h-.3c.2-2.6-3.4-3.1-5.2-2h-.2c-.5.2-.4.9,0,1.2.5.3,1.2.4,1.9.5.7,0,1.3,0,1.9.3.4.1.7.4,1.1.4ZM118.2,74.5c.4-1.5,0-2.9-.9-3.1-.9-.2-1.9.9-2.2,2.5-.4,1.5,0,2.9.9,3.1.9.2,1.9-.9,2.2-2.5ZM98.3,83.8c1.3,9.7,9.4,10.2,12.8,4.1-5-.5-8.3-1-12.8-4.1ZM101.2,70.6c.3-1.5-.1-2.8-1-3-.9-.2-1.9.9-2.3,2.3-.3,1.5.1,2.9,1,3,.9.2,1.9-.9,2.3-2.4Z"/><path class="cls-3" d="M121.2,67.9c.2.3-.3.5-.7.5-.4,0-.7-.3-1.1-.4-.6-.2-1.3-.3-1.9-.3-.7,0-1.4-.2-1.9-.5-.5-.3-.6-1,0-1.2h.2c1.8-1.1,5.3-.6,5.2,2h.3Z"/><path class="cls-5" d="M120,135.1c.2,2.1.5,5.7.4,9-2.6-2.6-6.5-3.8-10-3.1-.7,0-1.4.2-2.1.3-.1-.9-2.1-16.2-2.3-17.6,0,0,0,0,0,0-.7-8.7.9-12,2.8-14.6,0,0,0,0,0,0,.5-.3,1.1-.6,1.6-.9,3.4,1.9,5.6,5,7.1,9.1,2,5.4,1.8,12.6,2.4,17.9Z"/><path class="cls-8" d="M120.4,144.1c0,2.2-.4,4.2-1,5.5-1.1,2.1-2.2,2.3-3.2,2.9-3.5,1.3-6.4,2.2-9.1,2.7-4.2.8-7.7.7-11.8.3-1.7-.2-8.2-1.1-12.2-1.6v-.2c-1-3.3.3-7.2,3.1-9.2v-.3c1.7-.3,7.9-1.2,8.7-1.4,3.8-.4,7.3-.8,13.2-1.6.7,0,1.4-.2,2.1-.3,3.6-.7,7.5.5,10,3.1Z"/><path class="cls-3" d="M117.2,71.4c.9.2,1.3,1.6.9,3.1-.4,1.5-1.4,2.6-2.2,2.5-.9-.2-1.3-1.6-.9-3.1.4-1.5,1.4-2.7,2.2-2.5Z"/><path class="cls-4" d="M103.6,284.2c-.1.4-.2.8-.4,1.1-.8.9-1.1,2.3-1.7,3.4-.6,1.1-1.6,2.4-2.7,3.2-1,.7-2.1,1-3.4.8h0c-1.3-.3-2.7-1-3.9-1.9-.7-.6-1.5-1.3-2.3-2.2h0c-.3-10.7.3-26.9,3.7-37,1.2-3.4,2.4-7.4,2.9-11,.5-3.7.2-6.5-1.5-9.8-1.6-4.5-15.5-16.4-20.6-32.1.8.2,1.7.5,2.6.7,13,3.2,24,4.3,35.5,5.4v1.1c3.1,11.3,6.3,14.1,5.9,22.7-1.3,10.9-2.3,14.9-5,25-2.8,10.2-5.6,20.7-9.2,30.5Z"/><path class="cls-9" d="M107,174.8c-3.9-1.1-6.4-3.1-14.5-4.9-17-3.7-31.2-7.1-32.7,2.9,0,1.1-.1,2.3-.1,3.3-3.8-13.4-1.2-11.7,1.1-37.1,0-5.2.4-8.8,0-12.9-.2-2.2-.5-4.5-1.1-7.1-.5-2-.9-4.1-1-6.2,1.3-2.5,3.2-4.8,5.5-6.5,2.7,7.7.8,19.3,12.3,21.1,17.1,4.8,23.3-9.3,23.7-10.3,1.4-3.5,5.1-5.9,8.7-8.1-2,2.6-3.6,5.9-2.8,14.6,0,0,0,0,0,0,.2,1.4,2.2,16.7,2.3,17.6-6,.8-9.4,1.2-13.2,1.6-.8.1-7,1.1-8.8,1.4-.2,0-.3,0-.4,0,0-1.4-2.2-3.3-4.8-4.8v-8.9h-5c-.3,1-.7,1.7-1.3,2.2-.6.4-1.6.7-2.9.9v3.7h1c-2.9,1.8-6.5,12.7-5.6,14.9.6,1.6,4.4,2.1,8,2.1v1.5h5.9v-2.2c.5,0,1.2.1,2.1.3,3.9.5,10.5,1.4,12.2,1.6,4.1.4,7.6.5,11.8-.3h0c0,4.2,1.9,15.4,3.3,20.7-1.2-.4-2.3-.9-3.3-1.2,0,0,0,0,0,0Z"/><path class="cls-8" d="M111.2,87.9c-3.5,6.1-11.6,5.7-12.8-4.1,4.6,3.1,7.8,3.6,12.8,4.1Z"/><path class="cls-3" d="M105,62c0,.3.1.7,0,1,0,.3-.4.7-.8.8-.7.2-1.4-.2-2-.5-1.8-.9-4-1.3-6.1-1.1v-.5c3.7-2.2,7.1-1.6,8.9.3Z"/><path class="cls-8" d="M101.5,288.7c.6-1.1.9-2.5,1.7-3.4-1.1,3-2.6,5.4-4.4,6.6,1.1-.8,2.1-2.1,2.7-3.2Z"/><path class="cls-3" d="M100.2,67.5c.9.2,1.4,1.5,1,3-.3,1.5-1.4,2.5-2.3,2.4-.9-.2-1.4-1.5-1-3,.3-1.5,1.4-2.5,2.3-2.3Z"/><path class="cls-8" d="M95.5,292.7c-1.2-.1-2.5-.7-3.9-1.9,1.2.9,2.6,1.6,3.9,1.9Z"/><path class="cls-7" d="M72.9,137.4c0,0,.1,0,.2,0,1.5-.7,5.1.5,8.1,2.3,2.6,1.5,4.7,3.4,4.8,4.8,0,0,.2,0,.4,0v.3c-2.8,2-4.1,5.9-3.1,9.2v.2c-.9-.1-1.6-.2-2.1-.3s-.2,0-.3,0c-1.1.4-3.3.7-5.6.7-3.5,0-7.3-.5-8-2.1-.9-2.2,2.7-13.1,5.6-14.9Z"/><path class="cls-8" d="M81.1,153.7v2.2h-5.9v-1.5c2.3,0,4.5-.3,5.6-.7,0,0,.2,0,.3,0Z"/><path class="cls-8" d="M81.1,130.7v8.9c-3-1.8-6.6-3-8.1-2.3,0,0-.1,0-.2,0h-1v-3.7c1.3-.1,2.3-.4,2.9-.9.6-.4,1.1-1.2,1.3-2.2h5Z"/><path class="cls-8" d="M62.3,102.8c.8,1,1.4,2.2,1.9,3.5-2.3,1.7-4.2,3.9-5.5,6.5-.3-3.7.1-7.4,1.5-10.7l.8-.2c.5.2,1,.4,1.4.9Z"/><path class="cls-5" d="M58.7,112.8c.1,2.1.5,4.1,1,6.2.6,2.7.9,5,1.1,7.1-2.7,2.1-8.4,7.3-13.7,11-.3-.3-.7-.7-1.1-1-3.1-3.2-6.1-7.9-6.7-12.1,2.7-3.5,5.5-6.9,7.3-8.7,2.3-2.8,7.3-10.4,13.4-14,.3.3.6.5.8.6l-.8.2c-1.3,3.4-1.7,7.1-1.5,10.7Z"/><path class="cls-8" d="M46.1,136.1l-.3.3c-1.4,1-2.7,1.9-3.7,2.7-2.4,4.4-4.2,7.1-6.2,10.2-.4.7-2.6,4.4-4.3,7.2h-.2c-2.6,1.3-5.9,1.5-8.7.4.9-3.4,2-7.5,2.3-8.8,1.8-5.3,4.1-10,8.3-16,1.5-2.2,3.7-5.1,6-8.1.6,4.2,3.6,8.9,6.7,12.1Z"/><path class="cls-7" d="M30.2,159.1h0c2.5.7,4.8,9.8,3.2,11.8-1.7,2.1-11.7,3-13.3,1.9-2-1.3.2-9.2,1.5-11.2.2-.8.6-2.6,1.1-4.6,2.8,1.1,6,1,8.7-.5h.2c-.6,1.2-1.1,2.1-1.5,2.7Z"/><path class="cls-1" d="M25.1,148.1c-.3,1.2-1.4,5.3-2.3,8.8-.5,2-1,3.8-1.1,4.6"/><path class="cls-1" d="M46.7,115.3c-1.8,1.9-4.6,5.3-7.3,8.7-2.3,2.9-4.5,5.9-6,8.1-4.2,6-6.6,10.7-8.3,16"/><path class="cls-1" d="M35.9,149.3c-.4.7-2.6,4.4-4.3,7.2-.6,1.1-1.1,2-1.5,2.6-.1.2-.2.4-.3.5"/><path class="cls-1" d="M45.8,136.3c-1.4,1-2.7,1.9-3.7,2.7-2.4,4.4-4.2,7.1-6.2,10.2"/><path class="cls-1" d="M61,126s0,0-.1.1c-2.7,2.1-8.4,7.3-13.7,11"/><path class="cls-1" d="M30.3,159.1c2.5.7,4.8,9.7,3.2,11.7-1.7,2.1-11.7,3-13.3,1.9-2-1.3.2-9.2,1.5-11.2"/><path class="cls-1" d="M120,135.1c-.6-5.3-.4-12.5-2.4-17.9-1.5-4-3.7-7.2-7.1-9.1"/><path class="cls-1" d="M95.3,155.6c-1.7-.2-8.2-1.1-12.2-1.6-.8-.1-1.6-.2-2.1-.3s-.2,0-.3,0"/><path class="cls-1" d="M116.2,152.6c-3.5,1.3-6.4,2.2-9.1,2.7-4.2.8-7.7.7-11.8.3"/><path class="cls-1" d="M95,142.9c-.8.1-7,1.1-8.8,1.4-.2,0-.3,0-.4,0"/><path class="cls-1" d="M110.4,141.1c-.7,0-1.4.2-2.1.3-6,.8-9.4,1.2-13.2,1.6"/><path class="cls-1" d="M85.9,144.4c0-1.4-2.2-3.3-4.8-4.8-3-1.8-6.6-3-8.1-2.3,0,0-.1,0-.2,0-2.9,1.8-6.5,12.7-5.6,14.9.6,1.6,4.4,2.1,8,2.1,2.3,0,4.5-.3,5.6-.7"/><path class="cls-1" d="M120,135.1c.2,2.1.5,5.7.4,9,0,2.2-.4,4.2-1,5.5-1.1,2.1-2.2,2.3-3.2,2.9"/><path class="cls-1" d="M60.8,139c-2.2,25.4-4.9,23.7-1.1,37.1"/><path class="cls-1" d="M107.1,155.3c0,4.2,1.9,15.4,3.3,20.7"/><path class="cls-1" d="M59.7,119c.6,2.7.9,5,1.1,7.1.3,4.1,0,7.7,0,12.9"/><path class="cls-1" d="M107,174.8c-1.2-.4-2.2-.8-3-1.1"/><path class="cls-1" d="M122.7,180.8c-2.3-.9-7.7-3-12.3-4.8-1.2-.4-2.3-.9-3.3-1.2"/><path class="cls-1" d="M76.5,199.5c13,3.2,24,4.3,35.5,5.4,1.5.1,3,.3,4.6.4"/><path class="cls-1" d="M71.2,197.9c.7.3,1.6.6,2.7.9.8.2,1.7.5,2.6.7"/><path class="cls-1" d="M117.9,228.7c.4-8.7-2.8-11.4-6-22.7"/><path class="cls-1" d="M73.9,198.8c5.1,15.7,19,27.6,20.6,32.1"/><path class="cls-1" d="M117.9,228.7c-1.3,10.9-2.3,14.9-5,25-2.8,10.2-5.6,20.7-9.2,30.5,0,.3-.2.5-.3.8"/><path class="cls-1" d="M94.5,230.9c1.7,3.3,2,6.1,1.5,9.8-.5,3.6-1.8,7.6-2.9,11-3.4,10.1-4,26.2-3.7,37"/><path class="cls-1" d="M59.8,172.8c0,1.1-.1,2.3-.1,3.3,0,12.4,6.6,19.3,11.5,21.8"/><path class="cls-1" d="M122.7,180.8c9.3,3.8,8.6,2.3,20.2,9.4"/><path class="cls-1" d="M117,205.3c7.4.3,8.8-1.9,19.7.2"/><path class="cls-1" d="M116.6,205.3c.1,0,.3,0,.4,0"/><path class="cls-1" d="M136.6,205.5c12.4,11.3,15,3,35.6,11.5"/><path class="cls-1" d="M181.7,204.7c-15.3-5.6-23.5-8.9-38.7-14.5"/><path class="cls-1" d="M182,205.4c0-.2,0-.3,0-.5,0-.2-.5-.1.9-.3"/><path class="cls-1" d="M181.2,210.2c.7-.9,1.1-1.7,1.2-2,0-.7,0-1.2-.2-1.9,0-.3-.1-.5-.2-.8"/><path class="cls-1" d="M172.5,217.1c0,0,0,.1,0,.2,0,0,.1.1.2.2.5.2,1.6-.4,2.8-1.4,1.9-1.6,4.2-4.1,5.6-5.9"/><path class="cls-1" d="M177.2,228.7c.3.1.4.3.7.4.5.2,1.2.2,3-.2,10.3-2.1,20-6.9,29.3-11.8,3.1-1.6,6.2-3.6,7.8-6.5,1.7-3,1.1-7.2-1.9-8.5-1.4-.6-3.1-.5-4.7-.3-8.8.8-19.7,2-28.7,2.8-.4,0-.8,0-1.1.1"/><path class="cls-1" d="M172.6,217.3s0,0,0,0c0,0,0,.2,0,.2.8,3.7,1.9,6.5,3.5,9.9.4.8,1.2,1.5,1.8,1.6,0,0,0,0,0,0"/><path class="cls-1" d="M108.9,175.1c-.6-.1-1.2-.2-1.8-.4,0,0,0,0,0,0-3.9-1.1-6.4-3.1-14.5-4.9-17-3.7-31.2-7.1-32.7,2.9"/><path class="cls-2" d="M106,123.7c.2,1.4,2.2,16.7,2.3,17.6"/><path class="cls-1" d="M125,60.3c0,1-.1,1.8-.3,2.7-.5,3.6-1.6,6-2.7,7.9-1.1,1.9.6,16-7.6,22.6,0,0-6.1,5.6-10.2,6.3-2.6.4-12.8-3.9-17.5-7.8"/><path class="cls-1" d="M113.1,80c.4,2.4,0,6-8.3,2.1"/><path class="cls-1" d="M111.2,87.9c-5-.5-8.3-1-12.8-4.1"/><path class="cls-1" d="M111.2,87.9c-3.5,6.1-11.6,5.7-12.8-4.1"/><path class="cls-1" d="M108.9,109.1c.5-.3,1.1-.6,1.6-.9,2.4-1.5,4.5-2.8,5.3-4.3,5.4-9.5,9.8-15.3,11.8-26.1,2.6-13.8,1.3-26.8-1.1-31.2-3.2-5.9-5.3-6.5-10.9-10.1-14-9.1-33.3-4.8-42.2,6.8-2.8,3.6-5.1,7.6-6.8,11.8-5.4,13-6.2,27.4-6.4,41.5,0,1-.6,4.1,0,4.8.3.3.6.5.8.6.5.2,1,.4,1.4.9.8,1,1.4,2.2,1.9,3.5,2.7,7.7.8,19.3,12.3,21.1"/><path class="cls-1" d="M76.5,127.4c17.1,4.8,23.3-9.3,23.7-10.3,1.4-3.5,5.1-5.9,8.7-8.1"/><path class="cls-1" d="M60.1,101.3c-6.1,3.6-11.1,11.2-13.4,14"/><path class="cls-1" d="M125,60.3c-2.1-16.1-14-17.6-21.2-16.1-3.5.8-12.4,2.6-16.9,12.9-.2.6-.5,1.2-.7,1.8-2.5,7.2-5.4,28.2.5,33"/><path class="cls-1" d="M120.9,67.9c.2-2.5-3.4-3.1-5.2-2"/><path class="cls-1" d="M105.1,62s0,0,0,0c-1.8-1.9-5.2-2.5-8.9-.3"/><path class="cls-1" d="M115,73.9c-.4,1.5,0,2.9.9,3.1.9.2,1.9-.9,2.2-2.5.4-1.5,0-2.9-.9-3.1-.9-.2-1.9.9-2.2,2.5Z"/><path class="cls-1" d="M98,69.9c-.3,1.5.1,2.9,1,3,.9.2,1.9-.9,2.3-2.4.3-1.5-.1-2.8-1-3-.9-.2-1.9.9-2.3,2.3Z"/><path class="cls-1" d="M105,61.9s0,0,0,0c0,.3.1.7,0,1,0,.3-.4.7-.8.8-.7.2-1.4-.2-2-.5-1.8-.9-4-1.3-6.1-1.1-.3,0-.6,0-.9.1.1-.1.2-.3.4-.4"/><path class="cls-1" d="M115.5,65.9c-.5.2-.4.9,0,1.2.5.3,1.2.4,1.9.5.7,0,1.3,0,1.9.3.4.1.7.4,1.1.4.4,0,.9-.2.7-.5"/><path class="cls-1" d="M95.5,292.7c.9.2,1.7.1,2.4-.2.3-.2.6-.4,1-.6,1.1-.8,2.1-2.1,2.7-3.2.6-1.1.9-2.5,1.7-3.4.2-.2.5-.4.8-.6,1.5-.8,2.4-1,3.6.2"/><path class="cls-1" d="M89.4,288.9c.5.6,1.3,1.3,2.2,1.9,1.2.9,2.6,1.6,3.9,1.9"/><path class="cls-1" d="M89,289.1c-1.7,3.9-2.8,8-3.5,12.2-.1,1-.2,2,.2,2.8.7,1.2,2.2,1.6,3.6,2,11.5,3,20.6,6,32.5,7.2,3.9.4,8,.5,11.5-1.2s5.6-6,3.6-9.1c-1-1.5-2.6-2.4-4.2-3.2-9.2-5-15.8-9.9-25-14.8"/><path class="cls-1" d="M89.2,288.6s0,0,0,0c.8.9,1.5,1.6,2.3,2.2,1.4,1.1,2.7,1.7,3.9,1.9h0c1.2.1,2.3-.2,3.4-.8,1.8-1.2,3.3-3.5,4.4-6.6.1-.4.3-.7.4-1.1.1-.4.2-.8.3-1.2"/><path class="cls-2" d="M175.6,216.1c-.9.6-1.9,1.1-2.8,1.4,0,0-.1,0-.2,0h0"/><path class="cls-1" d="M181.2,210.2s0,0,0,0c-1.2,2.3-3.3,4.4-5.6,5.9"/><path class="cls-2" d="M182.1,206.3c.1,1.2-.3,2.6-1,3.9"/><path class="cls-1" d="M182,205.4s0,0,0,0c0,.3.1.5.2.8"/><path class="cls-2" d="M181.7,204.7c.1.2.2.5.3.7"/><path class="cls-1" d="M22.6,156.8c0,0,.1,0,.2,0,2.8,1.1,6,1,8.7-.5"/><path class="cls-1" d="M86.3,144.6c-2.8,2-4.1,5.9-3.1,9.2"/><path class="cls-1" d="M60.2,102.1c-1.3,3.4-1.7,7.1-1.5,10.7.1,2.1.5,4.1,1,6.2"/><path class="cls-1" d="M106,124.2c0-.2,0-.3,0-.5,0,0,0,0,0,0-.7-8.7.9-12,2.8-14.6,0,0,0,0,0,0"/><path class="cls-1" d="M39.3,123.7c0,0,0,.2,0,.3.6,4.2,3.6,8.9,6.7,12.1.3.4.7.7,1.1,1"/><path class="cls-1" d="M110.4,141.1c3.6-.7,7.5.5,10,3.1"/><path class="cls-1" d="M64.4,106.2c0,0-.2.1-.2.2-2.3,1.7-4.2,3.9-5.5,6.5,0,.2-.2.4-.3.5"/><polyline class="cls-2" points="81.1 153.7 81.1 153.7 81.1 155.9 75.2 155.9 75.2 154.4 75.2 154.2"/><path class="cls-2" d="M73,137.4h-1.1v-3.7c1.3-.1,2.3-.4,2.9-.9.6-.4,1.1-1.2,1.3-2.2h5v8.9"/><path class="cls-1" d="M86.7,57.2c0,0,.1,0,.2-.1,6-3.2,17.7-3.5,24.2-2,6.4,1.4,11.1,4.2,13.6,7.9,0,0,.1.2.2.3"/></svg>