<?xml version="1.0" encoding="UTF-8"?><svg id="africa" xmlns="http://www.w3.org/2000/svg" width="235" height="321.9" viewBox="0 0 235 321.9"><defs><style>.cls-1{stroke-linecap:round;stroke-linejoin:round;}.cls-1,.cls-2{fill:none;stroke:#000;}.cls-2{stroke-miterlimit:10;}.cls-3,.cls-4,.cls-5,.cls-6,.cls-7,.cls-8,.cls-9{stroke-width:0px;}.cls-4{fill:#3a3a3a;}.cls-5{fill:#3d8e3d;}.cls-6{fill:#212121;}.cls-7{fill:#a0715e;}.cls-8{fill:#fff;}.cls-9{fill:#67b96a;}</style></defs><path class="cls-8" d="M90,289.4c0,.1.1.2.2.3.5.7,1.2,1.4,2.2,2,0,0,0,0,0,0,1.5,1.1,3.4,1.9,5.7,1.2,0,0,0,0,0,0,.2,0,.5-.1.7-.2,1.5-.8,2.4-2.3,3.2-3.7.7-1.4,1.5-3,2.8-4s2.6-1.2,3.8,0h.1c9.2,5,15.8,9.9,25,14.9,1.6.9,3.2,1.8,4.2,3.2,2,3.1-.1,7.4-3.6,9.1-3.4,1.7-7.6,1.6-11.5,1.2-11.9-1.2-21-4.2-32.5-7.2-1.4-.4-2.9-.8-3.6-2-.5-.9-.4-1.9-.2-2.8.6-4.2,1.8-8.3,3.5-12.2,0,0,0,.1,0,.2Z"/><path class="cls-7" d="M130.3,162c1.6,3.8-2.6,7.6-5.8,10.1-3.3,2.5-5.3,3.5-8.6,1.2-1.6-1.1-3-2.8-3.4-4.7-.2-.7-.1-1.5.1-2.4.8-3.1,3.7-6.9,6.3-8.4.5-.3.9-.5,1.4-.6,3.9-1.2,8.5,1,10.2,4.8Z"/><path class="cls-8" d="M105.6,142.3c4.3,6.1,10.3,12.2,13.2,15.6-2.6,1.5-5.5,5.3-6.3,8.4h-.4c-2.7-2.4-9.9-10.4-15.4-16.2,1.8-3.6,5.1-6.5,8.9-7.7Z"/><path class="cls-4" d="M65.1,209c-3.4,9.2-6.3,17.9-8.6,25-3,9.3-5.3,10.3-10.6,19.6-5.5,9.7-9.1,24-16.1,32.8-1.6.6-2.4,2.1-3.8,3.1-.2.1-.5.2-.9.3-.7,0-.9.1-1.4.1-3.4,0-9.2-1.1-9.4-3.2,2.2-10.6,6.7-30.2,12.7-39.3,2-3.1,4.3-6.7,5.7-10.1,1.4-3.5,1.4-4.7,1-8.6-.5-10.2-1.1-11.8-1.9-23.8-.5-7.3.9-16.3,2.9-23.3l1.3.3c19,9.4,36.8,9.5,50.6,4.4,9.8,9.2,20.3,31.4,20.2,37.3.3,22.3,1.1,39.4-2,61.5-1.3,1-2.1,2.5-2.8,4-.8,1.4-1.6,2.9-3.2,3.7-.2.1-.4.2-.7.2,0,0,0,0,0,0-1.6.4-3.9-.2-5.7-1.2,0,0,0,0,0,0-.9-.7-1.7-1.5-2.2-2.1.7-13.2-.8-22.7-4.4-35.6-1-3.4-2-10.9-1.5-14.4.5-3-.9-6.1-.9-6.1-2.3-5.5-14.9-19.8-17.8-24.3l-.5-.2Z"/><path class="cls-4" d="M68.8,58.9c-.3.7-.6,1.3-.8,2.1-2.5,7.2-5.4,28.2.5,33,4.6,3.9,14.9,8.2,17.5,7.8,4.2-.7,10.2-6.3,10.2-6.3,8.2-6.6,6.5-20.7,7.6-22.6,1.1-1.9,2.2-4.3,2.7-8,.1-.8.2-1.6.2-2.5.8-14.9-14-17.6-21.2-16.1-3.5.8-12.2,2.6-16.7,12.6ZM108.2,48.6c2.4,4.4,3.8,17.4,1.1,31.2-2.1,10.7-3.9,13.5-9.2,23-1.7,3.1-4.5,9.6-6.7,15.1-1,2.6-1.9,5-2.4,6.6-1.5,5-1.4,11.7-9.1,12.7-4.7.7-11.6-.2-14.9-3.7-3.3-3.5-6.4-9.5-7.9-14-1.5-4.5-2.8-9.2-5.2-13.3-.2-.3-.3-.5-.5-.7-2-2.6-4.7-2.4-8.3-3.1-1-.2-2.1-.3-2.8-1-.7-.7-.7-1.8-.7-2.8.2-14.1.9-28.5,6.4-41.5,1.7-4.2,4.1-8.2,6.8-11.8,9-11.6,28.3-15.9,42.2-6.8,5.6,3.7,7.7,4.3,10.9,10.1Z"/><path class="cls-5" d="M96.7,150c-.3.6-.5,1.1-.7,1.7-2.9-3-5.5-5.7-6.1-6.6,1.6-7,3-13.7,1.2-20.7.5-1.6,1.3-4,2.4-6.6h.1c1.6,6.5,6.8,15.5,12.9,24.1-.3,0-.6.2-.8.2-3.8,1.3-7.1,4.1-8.9,7.7Z"/><path class="cls-6" d="M85.6,46.3c7.2-1.6,22,1.2,21.2,16.1,0,.9-.1,1.7-.2,2.5-2.5-3.7-7.1-6.5-13.6-7.9-6.5-1.4-18.1-1.1-24.1,2,4.5-10,13.2-11.8,16.7-12.6Z"/><path class="cls-7" d="M101,69.9h1.7c.2-2.5-3.4-3.1-5.2-2h-.2c-.5.2-.4.9,0,1.2s1.2.5,1.9.5c.6,0,1.2,0,1.7.3ZM86.8,64c-1.8-1.9-5.2-2.5-8.9-.3l-.5.2-.4.4c2.4-.4,5,0,6.9,1,.6.3,1.3.7,2,.5.5-.1.7-.5.8-.8,0-.3,0-.7,0-1ZM106.5,64.8c-.5,3.7-1.6,6.1-2.7,8-1.1,1.9.6,16-7.6,22.6,0,0-6.1,5.6-10.2,6.3-2.6.4-12.8-3.9-17.5-7.8-5.9-4.8-3-25.8-.5-33,.3-.7.5-1.4.8-2.1,6-3.1,17.6-3.4,24.1-2,6.5,1.4,11.1,4.2,13.6,7.9ZM99.9,76.6c.4-1.5,0-2.9-.9-3.1-.9-.2-1.9.9-2.2,2.5-.4,1.5,0,3,.9,3.1.9.2,1.9-.9,2.2-2.5ZM80.1,85.9c1.3,9.7,9.4,10.2,12.8,4.1-5-.5-8.3-1-12.8-4.1ZM83,72.6c.3-1.5-.1-2.8-1-3-.9-.2-1.9.9-2.3,2.3-.3,1.5.1,2.9,1,3,.9.2,1.9-.9,2.3-2.4Z"/><path class="cls-4" d="M92.4,291.7c1.7,1,4,1.6,5.7,1.2-2.2.8-4.2,0-5.7-1.2Z"/><path class="cls-3" d="M97.5,68c1.8-1.1,5.4-.6,5.2,2h-1.7c-.5-.2-1.1-.2-1.7-.3-.7,0-1.4-.2-1.9-.5s-.6-1,0-1.2h.2Z"/><path class="cls-3" d="M99,73.5c.9.2,1.3,1.6.9,3.1-.4,1.5-1.4,2.7-2.2,2.5-.9-.2-1.3-1.6-.9-3.1.4-1.5,1.4-2.7,2.2-2.5Z"/><path class="cls-7" d="M92.4,291.7c-.9-.6-1.7-1.2-2.2-2h0c.5.5,1.3,1.3,2.2,2Z"/><path class="cls-7" d="M90.2,289.6h0c0,0-.1,0-.2-.2,0,0,.1.1.2.2Z"/><path class="cls-9" d="M91.1,124.5c1.7,6.9.4,13.7-1.2,20.7-.8,3.3-1.6,6.7-2.2,10.2-1.4,8.4,1.1,25-1.1,30.9-13.8,5.1-31.6,5-50.6-4.4l-1.3-.3c1.1-4,2.4-7.3,3.6-9.4h.4c.9,2.2,3.3,4.5,4.9,5.6,1.5,1.1,8.9,4.2,8.1.2,1-.1,3.1-1.6,1.6-3,1.2-.4,2.4-1.9,1.4-3.7,3.9-1.5,2-3.6-.1-5.2.3-5-6.9-3.6-10.3-4.1-.7-.1-1.3-.3-1.8-.6-.9-.5-1.5-1.4-2.5-2.7.6-7,2.7-16.7,2-27h0c2.9-5.1,5.1-9.8,6.2-11.7,1.2-3.5,1.1-7.9-.4-11.3h0c1.7-1.5,3.7-2.5,5.8-3.1h0c.2.2.3.4.5.7,2.4,4.1,3.7,8.8,5.2,13.3,1.5,4.5,4.6,10.5,7.9,14,3.3,3.5,10.1,4.4,14.9,3.7,7.7-1.1,7.6-7.7,9.1-12.7ZM77.9,164.3l2.5-25.1-4.6-.5c-.3,1-.8,1.7-1.5,2-.6.4-1.6.6-2.8.6l-.4,3.7,3.1.3-1.8,18.4,5.5.5Z"/><path class="cls-8" d="M92.9,90c-3.5,6.1-11.6,5.6-12.8-4.1,4.6,3.1,7.8,3.6,12.8,4.1Z"/><path class="cls-3" d="M86.8,64c0,.3.1.7,0,1,0,.4-.4.7-.8.8-.7.2-1.4-.2-2-.5-2-1-4.6-1.4-6.9-1l.4-.4.5-.2c3.7-2.2,7.1-1.6,8.9.3Z"/><path class="cls-3" d="M82,69.6c.9.2,1.4,1.5,1,3-.3,1.5-1.4,2.6-2.3,2.4-.9-.2-1.4-1.5-1-3,.3-1.5,1.4-2.5,2.3-2.3Z"/><path class="cls-8" d="M80.4,139.2l-2.5,25.1-5.5-.5,1.8-18.4-3.1-.3.4-3.7c1.2,0,2.1-.2,2.8-.6.6-.4,1.1-1.1,1.5-2l4.6.5Z"/><path class="cls-8" d="M25.2,289.9c.4,0,.7-.2.9-.3,1.4-1,2.3-2.5,3.8-3.1s2.8-.4,3.6,1h0c7.4,7.2,10.6,10.4,18,17.6,1.3,1.2,2.6,2.5,3.1,4.2,1.1,3.5-2.3,7.1-6,7.9-3.8.8-7.7-.4-11.4-1.8-11.1-4.2-17.2-6.2-27.4-12-1.2-.7-2.6-1.5-2.9-2.8-.2-1,.2-1.9.6-2.8,1.8-3.8,4.1-7.5,6.8-10.8.2,2.1,5.9,3.3,9.4,3.2.5,0,1,0,1.4-.1Z"/><path class="cls-7" d="M54.5,166.2c2.1,1.6,4,3.6.1,5.2,1.1,1.8-.2,3.3-1.4,3.7,1.4,1.3-.6,2.8-1.6,3,.8,4-6.6,1-8.1-.2-1.5-1.1-3.9-3.4-4.9-5.7-.4-.9-.5-1.8-.3-2.6,0,0,0,0-.1-.1h0c2.4-1.9,4-4.8,4.1-7.9h0c.5.2,1,.4,1.8.5,3.4.5,10.6-.9,10.3,4.1Z"/><path class="cls-8" d="M53.6,105.4h0c-2.1.7-4.1,1.7-5.8,3.2h0c-1.1-2.4-2.8-4.4-5.2-5.2.9-.4,1.8-.7,2.9-1,3.5.7,6.3.5,8.3,3.1Z"/><path class="cls-5" d="M47.6,108.6c1.5,3.4,1.7,7.9.4,11.3-1,1.9-3.3,6.6-6.2,11.7-2.4,4.1-5.2,8.5-8.1,11.7-.2-.3-.5-.7-.8-1.1-2.9-3.6-8-7.2-12.5-7.2,4.2-8,11.3-21.5,12.5-22.9,2-2.4,3.8-6.4,9.3-8.8,2.4.8,4.2,2.8,5.2,5.2Z"/><path class="cls-8" d="M31,144.3h0c1.2,1.1,2.2,2.4,3.5,4.4.4.6,5,9.2,5.4,10,.9,1.4,1.5,2.2,2.5,2.7h0c-.1,3.1-1.7,6.1-4.1,7.9h0c-1.4-1.1-2.4-1.6-5.1-3.3-11.8-8.8-17.7-19.9-15.7-25.1,0,0,1.3-2.4,3.1-5.9,4.4,0,9.5,3.6,12.5,7.2-.9,1-1.1,1.1-2,2h0Z"/><path class="cls-4" d="M25.2,289.9c-.4,0-.8.1-1.4.1.5,0,.6-.1,1.4-.1Z"/><path class="cls-1" d="M106.8,62.4c0,.9-.1,1.7-.2,2.5-.5,3.7-1.6,6.1-2.7,8-1.1,1.9.6,16-7.6,22.6,0,0-6.1,5.6-10.2,6.3-2.6.4-12.8-3.9-17.5-7.8"/><path class="cls-1" d="M102.7,70c.2-2.5-3.4-3.1-5.2-2"/><path class="cls-1" d="M86.8,64.1h0c-1.8-1.9-5.2-2.5-8.9-.3"/><path class="cls-1" d="M94.9,82.1c.4,2.4,0,6-8.3,2.2"/><path class="cls-1" d="M96.8,75.9c-.4,1.5,0,3,.9,3.1.9.2,1.9-.9,2.2-2.5.4-1.5,0-2.9-.9-3.1-.9-.2-1.9.9-2.2,2.5Z"/><path class="cls-1" d="M79.7,72c-.3,1.5.1,2.9,1,3,.9.2,1.9-.9,2.3-2.4.3-1.5-.1-2.8-1-3-.9-.2-1.9.9-2.3,2.3Z"/><path class="cls-1" d="M92.9,90c-5-.5-8.3-1-12.8-4.1"/><path class="cls-1" d="M92.9,90c-3.5,6.1-11.6,5.6-12.8-4.1"/><path class="cls-1" d="M36,181.9c19,9.4,36.8,9.5,50.6,4.4,2.2-5.9-.4-22.5,1.1-30.9.6-3.5,1.4-6.8,2.2-10.2,1.6-7,3-13.7,1.2-20.7"/><path class="cls-1" d="M42,131.7c.7,10.4-1.4,20-2,27"/><path class="cls-1" d="M96.7,150h0c5.6,5.8,12.7,13.8,15.4,16.1"/><path class="cls-1" d="M89.8,145.2c.6.9,3.2,3.6,6.1,6.6"/><path class="cls-1" d="M105.6,142.3c4.3,6.1,10.3,12.2,13.2,15.6"/><path class="cls-1" d="M93.5,117.9c1.6,6.5,6.8,15.4,12.9,24.1"/><path class="cls-1" d="M120.2,157.3c-.4.1-.9.3-1.4.6-2.6,1.5-5.5,5.3-6.3,8.4-.2.9-.3,1.7-.1,2.4.5,1.9,1.8,3.6,3.4,4.7,3.4,2.3,5.4,1.3,8.6-1.2,3.3-2.5,7.5-6.4,5.8-10.1-1.7-3.8-6.3-6-10.2-4.8"/><path class="cls-1" d="M56.6,234c2.3-7.1,5.1-15.7,8.6-25,1.1-3.1,2.3-6.2,3.6-9.3"/><path class="cls-1" d="M38.3,172.2c-1.2,2-2.5,5.4-3.6,9.4-2,7-3.4,16-2.9,23.3.9,12,1.4,13.6,1.9,23.8"/><path class="cls-1" d="M56.6,234c-3,9.3-5.3,10.3-10.6,19.6-5.5,9.7-9.1,24-16.1,32.8"/><path class="cls-1" d="M33.8,228.7c.5,3.9.5,5.2-1,8.6-1.4,3.4-3.7,7-5.7,10.1-6,9.1-10.5,28.8-12.7,39.3"/><path class="cls-1" d="M106.8,223.5c0-5.9-10.4-28.1-20.2-37.3"/><path class="cls-1" d="M65.7,209.2c2.9,4.6,15.5,18.9,17.8,24.3"/><path class="cls-1" d="M90.2,289.6v-2.2"/><path class="cls-1" d="M90.2,289.9v-.2"/><path class="cls-1" d="M90.2,289.7h0"/><path class="cls-1" d="M83.4,233.5s1.4,3.1.9,6.1c-.6,3.5.5,11,1.5,14.4,3.6,12.9,5.1,22.4,4.4,35.6"/><path class="cls-1" d="M106.8,223.5c.3,22.3,1.1,39.4-2,61.5"/><path class="cls-1" d="M98.1,292.9c.2,0,.5-.1.7-.2,1.5-.8,2.4-2.3,3.2-3.7.7-1.4,1.5-3,2.8-4s2.6-1.2,3.8,0"/><path class="cls-1" d="M92.4,291.7c1.7,1,4,1.6,5.7,1.2"/><path class="cls-1" d="M89.9,289.2c0,0,0,.1,0,.2,0,.1.1.2.2.3.5.7,1.2,1.4,2.2,2"/><path class="cls-1" d="M89.9,289.2c-1.7,3.9-2.8,8-3.5,12.2-.1,1-.2,2,.2,2.8.7,1.2,2.2,1.6,3.6,2,11.5,3,20.6,6,32.5,7.2,3.9.4,8,.5,11.5-1.2,3.4-1.7,5.6-6,3.6-9.1-1-1.5-2.6-2.4-4.2-3.2-9.2-5-15.8-9.9-25-14.8"/><path class="cls-1" d="M14.5,286.7c.2,2.1,5.9,3.3,9.4,3.2.5,0,1,0,1.4-.1.4,0,.7-.2.9-.3,1.4-1,2.3-2.5,3.8-3.1s2.8-.4,3.6,1"/><path class="cls-1" d="M14.5,286.7c-2.7,3.3-5,7-6.8,10.8-.4.9-.8,1.8-.6,2.8.3,1.3,1.6,2.1,2.9,2.8,10.2,5.9,16.3,7.8,27.4,12,3.6,1.4,7.6,2.6,11.4,1.8,3.8-.8,7.1-4.4,6-7.9-.5-1.6-1.8-3-3.1-4.2-7.4-7.1-10.6-10.3-18-17.5"/><path class="cls-1" d="M15,286.5c1.5,2.2,2.2,2.5,4.8,3,2.5.5,3.5.6,4,.5.5,0,.6-.1,1.4-.1.1,0,.2,0,.4,0"/><path class="cls-1" d="M90,289.4s0,0,0,0c0,0,.1.1.2.2.5.6,1.3,1.4,2.2,2.1,0,0,0,0,0,0,1.5,1.1,3.4,1.9,5.7,1.2,0,0,0,0,0,0,.4-.1.8-.3,1.2-.6"/><path class="cls-2" d="M93.4,117.9c2.1-5.5,4.9-12,6.7-15.1,5.4-9.5,7.2-12.3,9.2-23,2.6-13.8,1.3-26.8-1.1-31.2-3.2-5.9-5.3-6.5-10.9-10.1-14-9.1-33.3-4.8-42.2,6.8-2.8,3.6-5.1,7.6-6.8,11.8-5.4,13-6.2,27.4-6.4,41.5,0,1,0,2.1.7,2.8.7.7,1.8.8,2.8,1,3.5.7,6.3.5,8.3,3.1.2.2.3.5.5.7,2.4,4.1,3.7,8.8,5.2,13.3,1.5,4.5,4.6,10.5,7.9,14,3.3,3.5,10.1,4.4,14.9,3.7,7.7-1.1,7.6-7.7,9.1-12.7.5-1.6,1.3-4,2.4-6.6Z"/><path class="cls-1" d="M33.8,143.3c2.9-3.3,5.7-7.6,8.1-11.7,2.9-5,5.1-9.7,6.2-11.7"/><path class="cls-1" d="M29.3,144c.6,0,1.2.2,1.7.3h0c.9-.9,1.1-1,2-2"/><path class="cls-1" d="M45.3,102.4c-1.1.3-2,.6-2.9,1-5.5,2.4-7.3,6.4-9.3,8.8-1.2,1.4-8.3,14.9-12.5,22.9-1.8,3.4-3.1,5.9-3.1,5.9"/><path class="cls-1" d="M33.2,166c2.7,1.7,3.7,2.2,5.1,3.4,0,0,0,0,.1.1"/><path class="cls-1" d="M17.5,140.9c-2.1,5.2,3.9,16.2,15.7,25.1"/><path class="cls-1" d="M40,158.7c-.4-.9-5.1-9.5-5.4-10-1.3-1.9-2.4-3.3-3.5-4.4"/><path class="cls-1" d="M44.2,162c-.7-.1-1.3-.3-1.8-.6-.9-.5-1.5-1.4-2.5-2.7"/><path class="cls-1" d="M52.2,164.4c.5.4,1.4,1.1,2.3,1.8,2.1,1.6,4,3.6.1,5.2,1.1,1.8-.2,3.3-1.4,3.7,1.4,1.3-.6,2.8-1.6,3,.8,4-6.6,1-8.1-.2-1.5-1.1-3.9-3.4-4.9-5.7-.4-.9-.5-1.8-.3-2.6"/><path class="cls-1" d="M44.2,162c3.4.5,10.6-.9,10.3,4.1h0"/><path class="cls-2" d="M106.8,62.4c.8-14.9-14-17.6-21.2-16.1-3.5.8-12.2,2.6-16.7,12.6-.3.7-.6,1.3-.8,2.1-2.5,7.2-5.4,28.2.5,33"/><path class="cls-1" d="M86.8,64s0,0,0,0c0,.3.1.7,0,1,0,.4-.4.7-.8.8-.7.2-1.4-.2-2-.5-2-1-4.6-1.4-6.9-1l.4-.4"/><path class="cls-1" d="M97.3,68c-.5.2-.4.8,0,1.2s1.2.5,1.9.5c.6,0,1.2,0,1.7.3,0,0,.2,0,.2,0,.4.2.7.4,1.1.4s.9-.2.7-.5"/><path class="cls-1" d="M106.4,142c-.3,0-.6.2-.8.2-3.8,1.3-7.1,4.1-8.9,7.7-.3.6-.5,1.1-.7,1.7"/><path class="cls-1" d="M20.2,135.1c.1,0,.2,0,.4,0,4.4,0,9.5,3.6,12.5,7.2.3.4.6.7.8,1.1"/><path class="cls-1" d="M42.4,161.5c-.1,3-1.7,6-4.1,7.8"/><path class="cls-1" d="M48.1,120c1.2-3.5,1.1-7.9-.4-11.3-1.1-2.5-2.8-4.4-5.2-5.2"/><path class="cls-1" d="M47.7,108.6c1.7-1.5,3.7-2.5,5.8-3.1"/><path class="cls-2" d="M77.9,164.3l-5.5-.5,1.8-18.4-3.1-.3.4-3.7c1.2,0,2.1-.2,2.8-.6.6-.4,1.1-1.1,1.5-2l4.6.5-2.5,25.1Z"/><path class="cls-2" d="M68.5,59c.1,0,.2-.1.3-.2,6-3.1,17.6-3.4,24.1-2,6.5,1.4,11.1,4.2,13.6,7.9,0,0,.1.2.2.2"/></svg>