<?xml version="1.0" encoding="UTF-8"?><svg id="africa" xmlns="http://www.w3.org/2000/svg" width="235" height="321.9" viewBox="0 0 235 321.9"><defs><style>.cls-1{stroke-linecap:round;stroke-linejoin:round;}.cls-1,.cls-2{fill:none;stroke:#000;}.cls-2{stroke-miterlimit:10;}.cls-3,.cls-4,.cls-5,.cls-6,.cls-7,.cls-8,.cls-9,.cls-10{stroke-width:0px;}.cls-4{fill:#181817;}.cls-5{fill:#414a61;}.cls-6{fill:#d14752;}.cls-7{fill:#8d352e;}.cls-8{fill:#b62026;}.cls-9{fill:#684c45;}.cls-10{fill:#fff;}</style></defs><path class="cls-7" d="M16.4,299.6c-.4,1.8-.5,3.9.6,5.3,1.2,1.6,3.2,4.1,5.1,4.1,5.8.1,12,0,17.8,0,2.1,0,6.2.4,7.6-1.4,1.8-2.1.8-9.8-.5-12.3v-.5c-3.7.9-6.6.6-12.4,0-3-.4-6.7-1.4-9.3-4.4-3,1.7-8.1,5.6-8.9,9.3Z"/><path class="cls-10" d="M35.1,142.9h0c0-1.1.6-3.5,1.1-7.6-4.4-1.1-11.9-2.3-14.6-4.4-.4,4.2-.6,5.9-1.2,7.1-3.1,5.6-2.5,31.4-.7,38.5.3,1.1.3,2.7.2,4.5,3.3.8,6.9.3,9.8-1.5h.5c-.8-8.2,2.2-23,3.2-26.4,1.6-5.1,1.4-5.8,1.6-10.1Z"/><path class="cls-9" d="M20.9,196.5c.1.2.2.3.3.5,0,0-.2-.2-.3-.5ZM20.9,196.4c0-.1-.1-.2-.2-.1.6,2,3.3,3.3,5.9,2.9,2.5-.3,4.5-.7,5.4-2.6.8-1.9,1.7-8.2,1-10.1-.7-1.9-.3-1-1.5-2.6h0c-.7-.9-1.1-2.5-1.3-4.5h-.5c-2.9,1.8-6.5,2.4-9.8,1.6-.2,5.2-1,12.4.9,15.5Z"/><path class="cls-8" d="M21.6,130.8c2.8,2.1,10.3,3.3,14.6,4.4.8.2,1.6.4,2.1.7,0-.9,0-1.8,0-2.8,0-5.1.7-11.8.8-19.5.4-3.1.6-10.4,2.4-15.9h0c1.1-5.9-3-8.5-5.8-7.8-3.5,2.3-7.3,7-8.9,10.2-2.6,5.2-6.4,29-6.4,29,0,.7.4,1.3,1.1,1.8Z"/><path class="cls-5" d="M90,199.6c-.5-8.3-.9-9.6-.9-17.6,0-.4,0-.9,0-1.3h-.7c0,0,0,.2,0,.3-3.3.1-9.3.5-12.7.9-5.2.6-9.8-.2-15.1-.5-4.6-.2-23.4-2.1-25.1-5.5,0,14.1-10.2,114.5-10.2,114.5,2.6,3,6.3,4,9.3,4.4,5.8.7,8.7,1,12.4,0,1.6-.4,3.4-1,5.7-1.9.2,1.5,6.1-69.2,8.8-94.2-.1,7,9.4,89.8,9.2,94.8,2.2,0,4.3,0,6.4,0,8.9,0,16.7-.6,23.4-5.4-1.2-9.8-10-78.3-10.6-88.4,0,0,0,0,0,0Z"/><path class="cls-10" d="M35.8,89.9c2.8-.6,6.9,2,5.8,7.8,1.5-4.3,4.1-7.5,8.6-6.4h.2c-.3-1.7-.3-3.5.5-5.2-2.2,0-11.7,2.1-13.6,3-.5.2-1,.5-1.5.8Z"/><path class="cls-9" d="M42.3,64.8v.3c3.9,4.9,7.3,9.1,10.6,12.3,4.8,4.5,9.5,7,15.3,6.2,2.2-.3,4.2-1.4,5.9-3,3.6-3.4,6.2-9.3,8-15,.9-2.9,1.7-5.7,2.3-8.2.5-2.3.5-2.4.5-2.4.9-4.4,1.2-11.6.5-16.1.6-3.9-2.6-6.5-6.2-8-3.6-1.5-7.6-1.3-11.5-1.1-2.9.2-5.8.3-8.8.5-3.1.2-6.3.4-9,1.9-2.7,1.5-6.2,4.2-5.2,7.2-.3,2.3,1,17.9.1,18.2-.9.3-2.2-1.7-2-3.3,0-3.6-2.9-5.1-5.9-4-4.3,1.6-.1,9,1,12,1.2,3.2,2.8,3.3,4.3,2.5ZM72.4,47.7c-.9-1.6,1.7-2.6,4.4-2.5,2.8,0,3,.6,3.5,2h0c-2.8-.7-5.5,0-7.8.5ZM51.3,47.3c-.4-2.2,1-1.7,1.7-2.3,1.7-1.2,4.9,0,6.4,1.1-.3,1.1-.1,1.7-.9,1.3,0,0,0,0,0,0-2.4-.6-6-.5-7.2-.1ZM53.6,53.6c0-1.9.7-3.4,1.6-3.4s1.6,1.5,1.6,3.4-.7,3.5-1.6,3.5-1.6-1.6-1.6-3.5ZM62.5,73.9c-1.6-1.1-1.5-.4-3.4-3.3.9,1,9.8,3.1,14.3,1.1-1.2,2.2-2.4,3.4-5,3.7-1.6.2-4.3-.4-5.9-1.5ZM75.7,53.3c0-1.7.6-3,1.3-3s1.3,1.3,1.3,3-.6,3-1.3,3-1.3-1.3-1.3-3Z"/><path class="cls-4" d="M84.4,57.5c-.2.8-.4,1.9-.7,3.3,1.3.5,2.5-4.4,3.3-9.8.7-4.3,1.1-8.9,1-11.1-.2-5.8.9-14.2-2.2-22.8-2.8-7.7-44.5-4.8-47.9,3.1-2.2,5.1-4.6,18.7-1,30,3.1-1.1,5.9.4,5.9,4-.3,1.6,1.1,3.6,2,3.3.9-.3-.4-15.9-.1-18.2-1-3,2.5-5.6,5.2-7.2,2.7-1.5,5.9-1.7,9-1.9,2.9-.2,5.8-.3,8.8-.5,3.9-.2,7.9-.4,11.5,1.1,3.6,1.5,6.8,4.1,6.2,8,.7,4.5.4,11.8-.5,16.1,0,0,0,0-.5,2.4Z"/><path class="cls-6" d="M51.5,94.6c-.4-1.1-.8-2.2-1-3.3h-.2c-4.6-1-7.1,2.1-8.6,6.5h0c-1.9,5.5-2.1,12.9-2.4,15.9-.1,7.7-.7,14.4-.8,19.5.3,3.2.5,6.4.3,9.7-.4,5.8-2.8,28.1-3.1,33,1.7,3.4,20.5,5.3,25.1,5.5,5.3.3,9.9,1.1,15.1.5,3.4-.4,9.4-.8,12.7-.9v-.3c.5-12.1,1.9-35,1.9-47.1s0-14.6-.2-20.8c-1.3-11.5-2.5-19-12.6-21.5h-.6c.2,5.9-5.4,9.9-10.9,10.4-6.8.7-11.9-2.3-14.4-7.2h-.1ZM57.5,136.8l4.9-3.7c1.5,2.3,3.1,3.5,5,3.5s3.2-1.1,3.2-3.4-.3-2.5-.9-3.1-1.6-.9-2.9-.9h-2.5v-5.7h2.6c2,0,3-1.1,3-3.2s-.9-2.9-2.6-2.9-3.1,1-4.7,3l-4.5-3.9c2.5-3.3,5.6-5,9.4-5s5.1.7,6.8,2,2.4,3.3,2.4,5.8-1.2,5.3-3.7,6.6c3,.9,4.5,3.3,4.5,7.1s-.9,5.4-2.7,7-4.3,2.4-7.4,2.4-7.2-1.9-9.8-5.7Z"/><path class="cls-10" d="M50.9,86c-.8,1.7-.8,3.5-.5,5.2.2,1.2.6,2.3,1,3.3h.1c2.4,4.8,7.6,7.9,14.4,7.1,5.5-.6,11-4.6,10.9-10.4,0-1.3-.4-2.8-1.1-4.2-.3-.7-.8-1.5-1.3-2.3h-.4c0,.4,0,.8,0,.9h-.1c.4,6.5-3.4,12.6-11.3,11.1-5.2-1-9.9-5.1-9.6-8.4h0c0-1.1,0-3,0-5h0c-.9.8-1.5,1.7-1.9,2.6Z"/><path class="cls-3" d="M58.5,47.4c.8.4.6-.2.9-1.3-1.5-1.1-4.8-2.3-6.4-1.1-.7.5-2.1.1-1.7,2.3,1.2-.4,4.8-.5,7.2.1,0,0,0,0,0,0Z"/><path class="cls-9" d="M74,85.7h.1c0-.2,0-.5,0-1,0-1.3,0-3.6,0-4-1.7,1.6-3.6,2.7-5.9,3-5.8.7-10.5-1.7-15.3-6.2h-.1c0,1.4,0,3.7.1,6,0,2,0,3.9,0,4.9h0c-.3,3.3,4.5,7.4,9.6,8.4,7.9,1.5,11.7-4.6,11.3-11.1Z"/><path class="cls-3" d="M55.2,50.2c-.9,0-1.6,1.5-1.6,3.4s.7,3.5,1.6,3.5,1.6-1.6,1.6-3.5-.7-3.4-1.6-3.4Z"/><path class="cls-10" d="M62.4,133.1l-4.9,3.7c2.6,3.8,5.8,5.7,9.8,5.7s5.7-.8,7.4-2.4,2.7-3.9,2.7-7-1.5-6.2-4.5-7.1c2.5-1.3,3.7-3.5,3.7-6.6s-.8-4.4-2.4-5.8-3.9-2-6.8-2-6.9,1.7-9.4,5l4.5,3.9c1.6-2,3.1-3,4.7-3s2.6,1,2.6,2.9-1,3.2-3,3.2h-2.6v5.7h2.5c1.4,0,2.4.3,2.9.9s.9,1.6.9,3.1c0,2.3-1.1,3.4-3.2,3.4s-3.5-1.2-5-3.5Z"/><path class="cls-10" d="M59.1,70.6c1.9,2.9,1.8,2.2,3.4,3.3,1.6,1.1,4.2,1.7,5.9,1.5,2.7-.4,3.9-1.6,5-3.7-4.5,2-13.4-.1-14.3-1.1Z"/><path class="cls-3" d="M76.8,45.1c-2.7,0-5.3,1-4.4,2.5,2.3-.5,5.1-1.2,7.8-.5h0c-.5-1.5-.7-2-3.5-2.1Z"/><path class="cls-10" d="M75.9,87h-.2c.7,1.6,1,3,1.1,4.3h.6c10.1,2.5,11.3,10,12.6,21.5,0-2.1-.1-4.2-.2-6,0-1.6-1.6-14.1-2.4-15.7-2.2-1-8.9-3.9-11.5-4.1Z"/><path class="cls-3" d="M77,50.3c-.7,0-1.3,1.3-1.3,3s.6,3,1.3,3,1.3-1.3,1.3-3-.6-3-1.3-3Z"/><path class="cls-7" d="M77.3,293.5c-1.1,2.7-1.1,13.3,1.1,14.9,1.6,1.1,20.6.3,25.9,0,.5,0,6.1-1.2,6.6-1.4,1.6-.9-.5-9-1.2-10.8-1.6-3.8-4.6-6.3-8.9-8.1-6.7,4.8-14.5,5.4-23.4,5.4h0Z"/><path class="cls-9" d="M82.1,65.7h.4c.5.6,2.9.1,3.4-.4.5-.5.8-1.3,1-2.1,1-3.9,1.4-8.1,1.1-12.1-.3,0-.6,0-.9,0-.8,5.4-2,10.4-3.3,9.8.3-1.4.5-2.5.7-3.3-.6,2.4-1.4,5.3-2.3,8.2Z"/><path class="cls-10" d="M88.4,180.7h.7c0,.5,0,.9,0,1.4,2,.2,4.1-.4,5.8-1.6h.7c-1.4-13.6,4.2-22.8,1.8-42.6-.3-2.1,0-3.1,0-6.7-1.2.6-3.1,1.1-6.9,2.3,0,12.1-1.5,35-1.9,47.1Z"/><path class="cls-8" d="M87.4,91.1c.9,1.6,2.3,14.1,2.4,15.7,0,1.9.2,3.9.2,6,.2,6.2.2,13.3.2,20.8,3.9-1.2,5.8-1.8,6.9-2.3,1.5-.8,1.7-1.7,3.3-4.6-1.7-5.2-2.9-20.1-5.3-26.1-1.5-3.7-4.1-7.8-7.9-9.5Z"/><path class="cls-9" d="M89.1,182c0,8,.4,9.3.9,17.6,7.9-.9,8.3-6.4,6.6-13.3-.5-2.1-.9-4.1-1.1-6h-.7c-1.7,1.3-3.7,1.8-5.8,1.7Z"/><path class="cls-1" d="M75.9,87c2.6.2,9.3,3.1,11.5,4.1,3.8,1.7,6.4,5.8,7.9,9.5,2.4,6,3.6,20.9,5.3,26.1-1.6,2.9-1.8,3.8-3.3,4.6-1.2.6-3.1,1.1-6.9,2.3"/><path class="cls-1" d="M50.9,86h0c-2.2,0-11.7,2.1-13.6,3-.5.2-1,.5-1.5.8-3.5,2.3-7.3,7-8.9,10.2-2.6,5.2-6.4,29-6.4,29,0,.7.4,1.3,1.1,1.8,2.8,2.1,10.3,3.3,14.6,4.4.8.2,1.6.4,2.1.7,0-.9,0-1.8,0-2.8,0-5.1.7-11.8.8-19.5"/><path class="cls-1" d="M87.4,91.1c.9,1.6,2.3,14.1,2.4,15.7,0,1.9.2,3.9.2,6,.2,6.2.2,13.3.2,20.8,0,12.1-1.5,35-1.9,47.1v.3c-3.3.1-9.3.5-12.7.9-5.2.6-9.8-.2-15.1-.5-4.6-.2-23.4-2.1-25.1-5.5"/><path class="cls-1" d="M38.2,130.7c0,.8.1,1.6.2,2.4.3,3.2.5,6.4.3,9.7-.4,5.8-2.8,28.1-3.1,33"/><path class="cls-1" d="M61.6,198.7c0,0,0,0,0-.1"/><path class="cls-1" d="M89.1,180.7c0,.5,0,.9,0,1.3,0,8,.4,9.3.9,17.6,0,0,0,0,0,0,.6,10.1,9.4,78.6,10.6,88.4-6.7,4.8-14.5,5.4-23.4,5.4-2.1,0-4.2,0-6.4,0,.2-4.9-9.3-87.8-9.2-94.8"/><path class="cls-1" d="M62.6,191c-.2,1.3-.6,4-1,7.7h0c-2.8,24.9-8.7,95.7-8.8,94.2-2.3.9-4.1,1.5-5.7,1.9-3.7.9-6.6.6-12.4,0-3-.4-6.7-1.4-9.3-4.4,0,0,10.3-100.4,10.2-114.5"/><path class="cls-1" d="M68.4,188.1c-2.3,2.1-4,2.8-5.2,4.1"/><path class="cls-1" d="M73.9,85.5c0,0,0,.1,0,.2.4,6.5-3.4,12.6-11.3,11.1-5.2-1-9.9-5.1-9.6-8.4"/><path class="cls-1" d="M74.5,84.8c.5.8,1,1.5,1.3,2.3.7,1.5,1,2.9,1.1,4.2.2,5.8-5.4,9.9-10.9,10.4-6.8.7-11.9-2.3-14.4-7.2"/><path class="cls-1" d="M51.9,95.5c-.1-.3-.3-.6-.4-1-.4-1.1-.8-2.2-1-3.3-.3-1.7-.3-3.5.5-5.2.4-.9,1-1.7,1.9-2.6"/><path class="cls-1" d="M90.1,112.8c-1.3-11.5-2.5-19-12.6-21.5"/><path class="cls-1" d="M41.6,97.7c-1.9,5.5-2.1,12.9-2.4,15.9"/><path class="cls-1" d="M50.2,91.3c-4.6-1.1-7.1,2.1-8.6,6.4"/><path class="cls-1" d="M35.8,89.9c2.8-.6,6.9,2,5.8,7.8h0"/><path class="cls-2" d="M35.8,89.9s0,0,0,0"/><path class="cls-1" d="M25.4,290.3c-3,1.7-8.1,5.6-8.9,9.3-.4,1.8-.5,3.9.6,5.3,1.2,1.6,3.2,4.1,5.1,4.1,5.8.1,12,0,17.8,0,2.1,0,6.2.4,7.6-1.4,1.8-2.1.8-9.8-.5-12.3"/><path class="cls-1" d="M77.3,293.5c-1.1,2.7-1.1,13.3,1.1,14.9,1.6,1.1,20.6.3,25.9,0,.5,0,6.1-1.2,6.6-1.4,1.6-.9-.5-9-1.2-10.8-1.6-3.8-4.6-6.3-8.9-8.1"/><path class="cls-1" d="M36.3,135c0,0,0,.2,0,.3-.5,4.1-1,6.6-1.1,7.6,0,.1,0,.2,0,.3"/><path class="cls-1" d="M20.9,196.4c-1.9-3.1-1.1-10.3-.9-15.5,0-1.8,0-3.4-.2-4.5-1.8-7.1-2.5-32.9.7-38.5.6-1.1.8-2.9,1.2-7.1,0,0,0-.1,0-.2"/><path class="cls-1" d="M20.9,196.5c.1.2.2.5.3.5-.1-.1-.2-.3-.3-.5Z"/><path class="cls-1" d="M20.9,196.5s0,0,0,0"/><path class="cls-1" d="M31.4,183.7s0,0,0,0c1.2,1.7.7.7,1.5,2.6.8,1.9-.1,8.2-1,10.1-.8,1.9-2.9,2.3-5.4,2.6-2.5.3-5.3-.9-5.9-2.9,0,0,.1,0,.2.1"/><path class="cls-1" d="M31.5,183.8c-.7-.9-1.1-2.5-1.3-4.4-.8-8.1,2.2-23,3.2-26.4,1.6-5.1,1.4-5.8,1.6-10.1,0-.4,0-.8,0-1.2"/><path class="cls-1" d="M97.2,131.2c.1,3.5-.2,4.6,0,6.7,2.5,19.7-3.2,29-1.8,42.5.2,1.9.5,3.9,1.1,6,1.7,6.9,1.3,12.3-6.6,13.3h-.3"/><path class="cls-1" d="M52.8,77.5c0,1.3,0,3.6.1,5.9,0,2,0,3.9,0,4.9,0,.4,0,.7,0,.8"/><path class="cls-1" d="M74.1,80.7h0c0,.5,0,2.7,0,4,0,.4,0,.8,0,.9"/><path class="cls-2" d="M19.7,180.8c.1,0,.2,0,.3,0,3.3.8,6.9.3,9.8-1.5"/><path class="cls-2" d="M94.9,180.4c-1.7,1.2-3.7,1.7-5.8,1.6-.3,0-.6,0-.8-.1"/><path class="cls-2" d="M77.4,133.1c0,3.1-.9,5.4-2.7,7s-4.3,2.4-7.4,2.4-7.2-1.9-9.8-5.7l4.9-3.7c1.5,2.3,3.1,3.5,5,3.5s3.2-1.1,3.2-3.4-.3-2.5-.9-3.1-1.6-.9-2.9-.9h-2.5v-5.7h2.6c2,0,3-1.1,3-3.2s-.9-2.9-2.6-2.9-3.1,1-4.7,3l-4.5-3.9c2.5-3.3,5.6-5,9.4-5s5.1.7,6.8,2,2.4,3.3,2.4,5.8-1.2,5.3-3.7,6.6c3,.9,4.5,3.3,4.5,7.1Z"/><path class="cls-1" d="M85.4,39c.7,4.5.4,11.8-.5,16.1,0,0,0,0-.5,2.4-.2.8-.4,1.9-.7,3.3"/><path class="cls-1" d="M80.3,47.2c-2.8-.8-5.5,0-7.8.5,0,0-.2,0-.2,0"/><path class="cls-1" d="M58.5,47.4c-2.4-.6-6-.5-7.2-.1"/><path class="cls-1" d="M58.9,47.5c-.1,0-.2,0-.3,0"/><path class="cls-1" d="M75.7,53.3c0,1.7.6,3,1.3,3s1.3-1.3,1.3-3-.6-3-1.3-3-1.3,1.3-1.3,3Z"/><path class="cls-1" d="M53.6,53.6c0,1.9.7,3.5,1.6,3.5s1.6-1.6,1.6-3.5-.7-3.4-1.6-3.4-1.6,1.5-1.6,3.4Z"/><path class="cls-1" d="M72.9,64.1c-.9,3.3-4,2.8-9.7,2.2"/><path class="cls-1" d="M42.9,54.3c0-3.6-2.9-5.1-5.9-4-4.3,1.6-.1,9,1,12,1.2,3.2,2.8,3.3,4.3,2.5,0,0,.1,0,.2-.1"/><path class="cls-1" d="M42.9,54.3c-.3,1.6,1.1,3.6,2,3.3.9-.3-.4-15.9-.1-18.2"/><path class="cls-1" d="M83.6,60.9c1.3.5,2.5-4.4,3.3-9.8.7-4.3,1.1-8.9,1-11.1"/><path class="cls-1" d="M80.4,47.1c-.5-1.4-.7-2-3.5-2-2.7,0-5.3,1-4.4,2.5,0,0,0,0,0,0"/><path class="cls-1" d="M58.5,47.4s0,0,0,0c.8.4.6-.2.9-1.3-1.5-1.1-4.8-2.3-6.4-1.1-.7.5-2.1.1-1.7,2.3"/><path class="cls-1" d="M68.2,83.7c2.2-.3,4.2-1.4,5.9-3,3.6-3.4,6.2-9.3,8-15,.9-2.9,1.7-5.7,2.3-8.2.2-.8.4-1.5.5-2.2"/><path class="cls-1" d="M42.4,65.1c3.8,4.9,7.2,9.1,10.6,12.3,4.8,4.5,9.5,7,15.3,6.2"/><path class="cls-1" d="M87,51c.3,0,.6,0,.9,0,.3,4.1,0,8.2-1.1,12.1-.2.8-.5,1.6-1,2.1-.5.5-2.8,1-3.4.5"/><path class="cls-1" d="M85.4,39c.6-3.9-2.6-6.5-6.2-8-3.6-1.5-7.6-1.3-11.5-1.1-2.9.2-5.8.3-8.8.5-3.1.2-6.3.4-9,1.9-2.7,1.5-6.2,4.2-5.2,7.2"/><path class="cls-1" d="M37,50.3c-3.7-11.3-1.2-24.9,1-30,3.3-7.9,45.1-10.8,47.9-3.1,3.1,8.6,2,16.9,2.2,22.8"/><path class="cls-1" d="M68.3,75.4c2.7-.4,3.9-1.6,5-3.7"/><path class="cls-1" d="M73.4,71.7c-4.5,2-13.4-.1-14.3-1.1,1.9,2.9,1.8,2.2,3.4,3.3,1.6,1.1,4.2,1.7,5.9,1.5"/></svg>