<?xml version="1.0" encoding="UTF-8"?><svg id="usa" xmlns="http://www.w3.org/2000/svg" width="235" height="321.9" viewBox="0 0 235 321.9"><defs><style>.cls-1{fill:#3a3a3a;}.cls-1,.cls-2,.cls-3,.cls-4,.cls-5,.cls-6,.cls-7,.cls-8{stroke:#000;stroke-linecap:round;stroke-linejoin:round;}.cls-2{fill:#3d8e3d;}.cls-3{fill:#302926;}.cls-4{fill:#a0715e;}.cls-5{fill:#fff;}.cls-6{fill:#67b96a;}.cls-7{fill:none;}</style></defs><path class="cls-4" d="M105.3,66.4c-4.7-2.4-6.5-6.1-7.5-11.2,0,0,0,0,.1-.1-9,5.4-20,7.6-30.4,5.9-2.5,7.2-5.4,28.2.5,33,4.6,3.9,14.9,8.2,17.5,7.8,4.2-.7,10.2-6.3,10.2-6.3,8.2-6.6,6.5-20.7,7.6-22.6.9-1.6,1.9-3.6,2.4-6.4h-.5ZM79.3,72c.3-1.5,1.4-2.5,2.3-2.4.9.2,1.4,1.5,1,3-.3,1.5-1.4,2.5-2.3,2.4-.9-.2-1.4-1.5-1-3ZM79.7,85.9c4.6,3.1,7.8,3.6,12.8,4.1-3.5,6.1-11.6,5.6-12.8-4.1ZM99.5,76.6c-.4,1.5-1.4,2.6-2.2,2.5-.9-.2-1.3-1.6-.9-3.1.4-1.5,1.3-2.6,2.2-2.5.9.2,1.3,1.6,1,3.1Z"/><path class="cls-5" d="M53.2,105.4h0c-2.1.7-4.1,1.7-5.8,3.2h0c-1.1-2.4-2.8-4.4-5.2-5.2.9-.4,1.8-.7,2.9-1,3.5.7,6.3.5,8.3,3Z"/><path class="cls-5" d="M118.4,157.9c-2.6,1.5-5.5,5.3-6.3,8.4h-.4c-2.7-2.4-9.9-10.5-15.4-16.2,1.8-3.6,5.1-6.5,8.9-7.7,4.3,6.1,10.3,12.2,13.2,15.6Z"/><path class="cls-5" d="M42.1,161.4h0c-.1,3.1-1.7,6-4.1,7.8h0c-1.4-1.1-2.4-1.6-5.1-3.3-11.8-8.8-17.7-19.9-15.7-25.1,0,0,1.3-2.4,3.1-5.9,4.4,0,9.5,3.6,12.5,7.2-.9,1-1.1,1.1-2,2h0c1.2,1.1,2.2,2.4,3.5,4.4.4.6,5,9.2,5.4,10,.9,1.4,1.5,2.2,2.5,2.7Z"/><path class="cls-5" d="M80,139.2l-2.5,25.1-5.5-.5,1.8-18.4-3.1-.3.4-3.7c1.2,0,2.1-.2,2.8-.6.6-.4,1.1-1.1,1.5-2l4.6.5Z"/><path class="cls-1" d="M104.3,285c-.5.4-1,.9-1.3,1.4-4,2-8.7,2.6-13.1,1.7h0c0-.2,0-.4,0-.6h0c.4-12.2-1.1-21.3-4.5-33.5-1-3.4-2-10.9-1.5-14.4.5-3-.9-6.1-.9-6.1-2.3-5.4-14.9-19.8-17.8-24.3l-.5-.2c-3.5,9.2-6.3,17.9-8.6,25-3,9.3-5.3,10.3-10.6,19.6-5.5,9.7-9.1,24-16.1,32.8-.3.1-.6.3-.9.5-2.4-.2-4.7-.4-7-1.1-2.5-.8-4.9-2.2-6.4-4.4,2.4-10.9,6.4-26.3,11.5-34,2-3.1,4.3-6.7,5.7-10.1,1.4-3.5,1.4-4.7,1-8.6-.5-10.2-1.1-11.8-1.9-23.8-.5-7.2.9-16.1,2.8-23h1.3c19,9.4,36.8,9.6,50.6,4.4,9.8,9.2,20.3,31.4,20.2,37.3.3,22.3,1,39.4-2,61.5Z"/><path class="cls-7" d="M94.5,82.1c.4,2.4,0,6-8.3,2.1"/><path class="cls-6" d="M90.6,124.5c-1.5,5-1.4,11.7-9.1,12.7-4.7.7-11.6-.2-14.9-3.7-3.3-3.5-6.4-9.5-7.9-14-1.5-4.5-2.8-9.2-5.2-13.3-.2-.3-.3-.5-.5-.7h0c-2.1.7-4.1,1.7-5.8,3.2h0c1.5,3.5,1.7,7.9.5,11.4-1,1.9-3.3,6.6-6.2,11.6h0c.7,10.4-1.4,20.1-2,27.1.9,1.4,1.5,2.2,2.5,2.7.5.3,1,.5,1.8.6,3.4.6,10.6-.9,10.3,4.1,2.1,1.6,4,3.6.1,5.2,1.1,1.8-.2,3.3-1.4,3.7,1.4,1.3-.6,2.8-1.6,3,.8,4-6.6,1-8.1-.2-1.6-1.1-4-3.5-4.9-5.8l-.4.2c-1.2,2.1-2.5,5.6-3.7,9.6h1.3c19,9.4,36.8,9.6,50.6,4.4,2.2-5.9-.4-22.5,1.1-30.9.6-3.5,1.4-6.8,2.2-10.2,1.6-7,3-13.7,1.2-20.7ZM77.5,164.3l-5.5-.5,1.8-18.4-3.1-.3.4-3.7c1.2,0,2.1-.2,2.8-.6.6-.4,1.1-1.1,1.5-2l4.6.5-2.5,25.1Z"/><path class="cls-4" d="M124.1,172.2c-3.3,2.5-5.3,3.5-8.6,1.1-1.6-1.1-3-2.8-3.4-4.7s-.1-1.5,0-2.4c.8-3.1,3.7-6.9,6.3-8.4.5-.3.9-.5,1.4-.6,3.9-1.2,8.5,1,10.2,4.8,1.7,3.8-2.5,7.6-5.8,10.1Z"/><path class="cls-7" d="M68.3,199.7c-1.3,3.1-2.5,6.3-3.6,9.3"/><path class="cls-7" d="M29.4,287c-.3,0-.6,0-.9,0"/><path class="cls-7" d="M15.2,281.5s0,0,0,0"/><path class="cls-7" d="M104.6,285.6c-.5.3-1.1.6-1.6.9"/><path class="cls-1" d="M107.8,48.6c-3.2-5.9-5.3-6.5-10.9-10.1-14-9.1-33.3-4.8-42.2,6.8-2.8,3.6-5.1,7.6-6.8,11.8-5.4,13-6.2,27.4-6.4,41.5,0,1,0,2.1.7,2.8.7.7,1.8.8,2.8,1,3.5.7,6.3.5,8.3,3,.2.2.3.5.5.7,2.4,4.1,3.7,8.8,5.2,13.3,1.5,4.5,4.6,10.5,7.9,14,3.3,3.5,10.1,4.4,14.9,3.7,7.7-1.1,7.6-7.7,9.1-12.7.5-1.6,1.4-4,2.4-6.6,2.1-5.5,4.9-12,6.7-15.1,5.4-9.5,7.2-12.3,9.2-23,2.7-13.8,1.3-26.8-1.1-31.2ZM105.8,66.5c-.6,2.8-1.5,4.7-2.4,6.4-1.1,1.9.6,16-7.6,22.6,0,0-6.1,5.6-10.2,6.3-2.6.4-12.8-3.9-17.5-7.8-5.9-4.8-3-25.8-.5-33,4.1-11.8,13.8-13.8,17.5-14.6,7.2-1.6,19.1,0,21.2,16.1,0,1.6-.3,2.9-.5,4.2Z"/><path class="cls-3" d="M106.3,62.4c0,1.6-.3,2.9-.5,4.2h-.5c-4.7-2.5-6.5-6.2-7.5-11.3,0,0,0,0,.1-.1,0,0,0,0,0,0,0-.1,0,0,0,0-9,5.4-20,7.6-30.4,5.9,4.1-11.8,13.8-13.8,17.5-14.6,7.2-1.6,19.1,0,21.2,16.1Z"/><path class="cls-8" d="M82.6,72.6c-.3,1.5-1.4,2.5-2.3,2.4-.9-.2-1.4-1.5-1-3,.3-1.5,1.4-2.5,2.3-2.4.9.2,1.4,1.5,1,3Z"/><path class="cls-5" d="M92.5,90c-3.5,6.1-11.6,5.6-12.8-4.1,4.6,3.1,7.8,3.6,12.8,4.1Z"/><path class="cls-8" d="M99.5,76.6c-.4,1.5-1.4,2.6-2.2,2.5-.9-.2-1.3-1.6-.9-3.1.4-1.5,1.3-2.6,2.2-2.5.9.2,1.3,1.6,1,3.1Z"/><path class="cls-7" d="M98.1,55s0,0,0,0c0,0,0-.2,0,0Z"/><path class="cls-7" d="M30.6,144.3c-.5-.1-1.1-.2-1.7-.3"/><path class="cls-2" d="M47.7,120c-1,1.9-3.3,6.6-6.2,11.6-2.4,4.1-5.2,8.5-8.1,11.8-.2-.4-.5-.7-.8-1.1-2.9-3.6-8-7.2-12.5-7.2,4.2-8,11.3-21.5,12.5-22.9,2-2.5,3.8-6.4,9.3-8.8,2.4.8,4.2,2.8,5.2,5.3,1.5,3.4,1.7,7.8.5,11.3Z"/><path class="cls-4" d="M54.2,171.3c1.1,1.8-.2,3.3-1.4,3.7,1.4,1.3-.6,2.8-1.6,3,.8,4-6.6,1-8.1-.2-1.6-1.1-4-3.5-4.9-5.8-.4-.9-.5-1.7-.2-2.5,0,0-.1,0-.1-.1h0c2.4-1.9,4-4.8,4.1-7.9h0c.5.2,1,.4,1.8.5,3.4.6,10.6-.9,10.3,4.1,2.1,1.6,4,3.6.1,5.2Z"/><path class="cls-7" d="M54.1,166.2c-.9-.7-1.9-1.3-2.3-1.8"/><path class="cls-7" d="M54.1,166.2h0"/><path class="cls-7" d="M97.9,55.2s0,0,0,0"/><path class="cls-2" d="M106,142c-.3,0-.6.2-.8.2-3.8,1.3-7.1,4.1-8.9,7.7-.3.6-.5,1.1-.7,1.7-2.9-3-5.5-5.7-6.1-6.6,1.6-7,3-13.7,1.2-20.7.5-1.6,1.4-4,2.4-6.6h0c1.6,6.5,6.8,15.5,12.9,24.1Z"/><path class="cls-7" d="M20.2,135.1c-.1,0-.2,0-.4,0"/><path class="cls-4" d="M28.6,287c-1.1.7-2,1.7-2.9,2.6-1.1,1.2-11.2,0-11.4-2.8h-.2c.3-1.6.7-3.4,1.1-5.3,1.5,2.2,3.9,3.6,6.4,4.4,2.2.7,4.6.9,7,1.1Z"/><path class="cls-7" d="M89.9,287.5c0,.2,0,.4,0,.6"/><path class="cls-4" d="M103,286.4c-.6.8-1,1.7-1.5,2.6-.8,1.4-1.6,2.9-3.1,3.7-2.6,1.3-7.6-.2-8.6-2.8,0-.2,0-.4,0-.7,0-.3,0-.6,0-1,0,0,0-.1,0-.2h0c4.4.9,9.1.2,13.1-1.7Z"/><path class="cls-5" d="M133.8,312.2c-3.4,1.7-7.6,1.6-11.5,1.2-11.9-1.2-21-4.2-32.5-7.2-1.4-.4-2.9-.8-3.6-2-.5-.9-.4-1.9-.2-2.8.6-4.2,1.8-8.3,3.5-12.2h.3c0,.2,0,.4,0,.7,1,2.6,6,4.1,8.6,2.8,1.5-.8,2.4-2.2,3.1-3.7.5-.9.9-1.8,1.5-2.6.4-.5.8-1,1.3-1.4,1.3-1,2.6-1.2,3.8,0h.1c9.2,5,15.8,9.9,25,14.9,1.6.9,3.2,1.8,4.2,3.2,2,3.1-.2,7.4-3.6,9.1Z"/><path class="cls-5" d="M48.3,317.1c-3.8.8-7.8-.4-11.4-1.8-11.1-4.2-17.2-6.2-27.4-12-1.2-.7-2.6-1.6-2.9-2.9-.2-.9.2-1.9.6-2.8,1.8-3.9,4.1-7.5,6.8-10.8h.2c.3,2.8,10.3,4,11.4,2.8.9-.9,1.8-1.9,2.9-2.6.3-.2.6-.3.9-.5,1.6-.6,2.8-.4,3.6,1h0c7.4,7.2,10.6,10.4,18,17.6,1.3,1.2,2.6,2.6,3.1,4.2,1.1,3.5-2.2,7.1-6,7.9Z"/><path class="cls-7" d="M29.4,287c-.3,0-.6,0-.9,0"/><path class="cls-7" d="M15.2,281.5s0,0,0,0"/><path class="cls-7" d="M104.6,285.6c-.5.3-1,.6-1.6.9"/><path class="cls-3" d="M86.4,64.1c0,.3.2.7,0,1s-.4.7-.8.8c-.7.2-1.4-.2-2-.5-2-1-4.6-1.4-7-1,.1-.1.2-.3.4-.4l.5-.2c3.8-2.2,7.2-1.6,9,.3h0Z"/><path class="cls-3" d="M102.2,70.1c.2-2.5-3.4-3.1-5.2-2h-.2c-.5.2-.4.9,0,1.2s1.2.4,1.9.5,1.3,0,1.9.3c.4.2.7.4,1.1.4s.9-.2.7-.5h-.3Z"/></svg>