<?xml version="1.0" encoding="UTF-8"?><svg id="usa" xmlns="http://www.w3.org/2000/svg" width="235" height="321.9" viewBox="0 0 235 321.9"><defs><style>.cls-1{fill:#50637f;}.cls-1,.cls-2,.cls-3,.cls-4,.cls-5,.cls-6,.cls-7,.cls-8,.cls-9,.cls-10{stroke:#000;stroke-linecap:round;stroke-linejoin:round;}.cls-2{fill:#e0bfa4;}.cls-3{fill:#9c6548;}.cls-4{fill:#a1624e;}.cls-5{fill:#68513e;}.cls-6{fill:#d8bb2b;}.cls-7{fill:#fff;}.cls-8{fill:#f2d949;}.cls-9{fill:none;}</style></defs><path class="cls-2" d="M72.2,115.8c0,.9,0,1.9-.2,2.8-.2.8-.4,1.5-.7,2.2,0,0,0,0,0,0-1.7,3.4-5.3,5.7-9.7,3.7-2.3-1-4.9-2.3-6.4-3.7-1-.9-1.6-1.9-1.5-3,.2-2.3.3-5.6.3-9.1,6.7,5.4,11.6,7.2,15.8,7h2.5Z"/><path class="cls-6" d="M97.2,156.6c-3.2-.1-8,.4-10.7,2.1v-2.1c0-7.6.4-11.1-.2-19.1-.4-2.7-.6-5.1-1-7.4-.5-2.9-1.2-5.6-2.5-8.6,1.4.5,2.5.9,3.1,1.1,3,1.7,3.9,4,5.8,6.9,2.5,4,4.1,18.7,5.6,26.9Z"/><path class="cls-7" d="M55.1,121h0c-4.8.8-8,3.9-10.3,8.1h-.4c-.5-1.3-1.1-2.7-2.1-4.2-1.2-2-3-2.1-4.4-2.5,1.2-.6,14.5-3.7,15.7-4.4,0,1.1.5,2.1,1.5,3Z"/><path class="cls-6" d="M44.8,141.6c-.7,3.2-1.5,6.7-2.4,10-.7,2.8-1.5,5.5-2.1,7.9-4.4-3-9.6-3.3-14.9-3.8h0c.8-4,1.5-7.6,2.1-9.3,1.5-5,5-18.8,7.4-21.7,1.2-1.4,1.3-1.5,3-2.4,1.3.4,3.2.5,4.4,2.5.9,1.5,1.6,2.9,2.1,4.4,1.3,3.8,1.1,7.4.4,12.3Z"/><path class="cls-8" d="M88.4,194.8c-.2,0-.6,0-.9,0-4,.3-14.8,1.8-17.6,2h0c2.1-.4,6.2-2.1,8.1-3.6.3-.2.5-.5.7-.7,2.5-3.7,5.3-5,9.1-7.2,0,2.3.7,7.7.7,9.4Z"/><path class="cls-9" d="M87.7,185c0,.1,0,.3,0,.5"/><path class="cls-2" d="M89.3,184.5c-.6.3-1.1.6-1.6.9-3.8,2.1-6.6,3.4-9.1,7.2-.2.2-.4.5-.7.7-1.6-5-5.8-9.1-10.8-10.6l.2-.6c4,1.1,10.1-.4,16.2-6,1.1-1.1,2.1-2.3,3.2-3.6,0-3.6,0-9.6,0-13.8,2.7-1.7,7.5-2.2,10.7-2.1.3,1.6.5,2.9.8,3.9.8,3.7,1.4,6.5,1.8,7.8,2.4,7.6-4.2,12.6-10.5,16.3Z"/><path class="cls-9" d="M86.6,172.5c2.1-2.5,4.2-5.1,7.4-6"/><path class="cls-2" d="M77.9,193.3c-1.8,1.5-6,3.2-8.1,3.6-.3,0-.6.1-.8,0-1.7.2-5.2.1-7.5-.1-.4,0-.7,0-1-.1-.3,0-.5-.1-.7-.2-2.6-.8-7.6-3.4-7.7-6.4-3.2-1.6-8.8-3-12.7-4.3-.8-.3-1.6-.6-2.3-.8-5.2-2.2-14.3-10-13.9-15.6,0-1.6,1.1-7.9,2.2-13.7h0c5.3.5,10.5.8,14.9,3.8-.5,2-1,3.7-1.4,5.1-.4,1.3-1,2.6-1.6,3.8,1.5.6,2.9,1.6,4.8,3.1,3.2,2.5,8.6,10.5,14.2,9.8,3.5-.6,9.3-4.3,10.5.7.2,0,.3,0,.5.1l-.2.6c5,1.6,9.2,5.6,10.8,10.6Z"/><path class="cls-9" d="M52.7,190.4c-.2,0-.4-.2-.6-.3"/><path class="cls-9" d="M30.7,167.2c2.8,0,4.7.4,6.5,1.2"/><path class="cls-8" d="M60.5,196.7c-6.8-.9-20.9-2.4-21.7-3.9.2-3.1.4-6.1.4-6.2l.2-.7c3.9,1.3,9.5,2.7,12.7,4.3.1,3,5.1,5.6,7.7,6.4.2,0,.4.1.7.2Z"/><path class="cls-1" d="M94.9,283.8c-1.4.4-2.6.8-3.6,1.3-3.8,1.6-6.5,3.5-12,2.6-1.8-.3-3.8-.9-6.3-1.9,0-.6-5.3-29.4-5.4-30.8-.5-7.6-5-29.7-4.8-32.6-2.1,10.4-4.5,24-5.5,31.2-.4,3.3-5.1,35.5-5.1,35.5-1.5.4-3.3.4-5.3.3-4.3-.3-9-1.6-12.3-2.9-1.7-.6-3-1.3-3.5-1.7,0,0,1.4-26,1.8-33,.8-12.2,4.9-45.9,5.6-52.4,0,0,.2-3.3.4-6.5.8,1.5,14.9,3,21.7,3.9.3,0,.6,0,1,.1,2.3.2,5.8.3,7.5.1.2,0,.5,0,.8,0h0c2.8-.3,13.6-1.7,17.6-2,.9,5.5,1.1,10.3,1.7,15.7.6,5.2,2.6,31.1,3.7,43.3.2,2.4,2.2,28.9,2.2,29.9Z"/><path class="cls-9" d="M87.4,194.8s0,0,0,0"/><path class="cls-9" d="M66.1,208.7c0,0,0,.2-.1.3-.7,1.9-1.9,7.1-3.2,13.4"/><path class="cls-9" d="M72.2,202.9c-2,1.8-6.2,6-7.3,7.1"/><path class="cls-3" d="M49.6,308c-1.3,1.3-5.1,1-7.1,1-5.4,0-10.7,0-16.1,0-1.7,0-3.6-.1-4.7-1.3-1-1-1.1-6.8-.7-8.1.7-2.7,5.5-5.5,8.3-6.8,1-.4,2-.8,2.9-1.2,3.7-1.1,7.3-.5,10,.1,1.8.4,3.1.7,4.2,1.3.9.5,1.7,1.2,2.5,2.5,1.2,1.8,2.2,11,.6,12.5Z"/><path class="cls-9" d="M32.3,291.6c-1,.3-2,.7-2.9,1.2"/><path class="cls-2" d="M46.9,289.3h0q-.3,2.2-.3,3.7c-1.1-.6-2.4-.9-4.2-1.3-2.7-.6-6.3-1.2-10-.1.7-.3,1.3-.8,1.7-1.4.6-.8.3-2.7.5-3.8,3.2,1.2,8,2.6,12.3,2.9Z"/><path class="cls-2" d="M92.1,291.2c-.4.6-1.3.7-2.1.7-2.4,0-6.9,0-9.2.5-.5.1-1,.3-1.4.5h0c.2-2.2,0-3.4,0-5.2,5.5,1,8.2-1,12-2.6.3,2.1.8,3.4.9,5,0,.4,0,.8-.2,1.1Z"/><path class="cls-3" d="M105,308.1c-.4.2-3.3.8-3.8.8-4.9.2-22.8-.3-24.2-1.1-2-1.2-1.5-9.8-.4-11.7.8-1.5,1.5-2.6,2.8-3.3.4-.2.9-.4,1.4-.5,2.3-.5,6.8-.5,9.2-.5.8,0,1.7,0,2.1-.7,3.9,1,11.2,3.6,13,6.9.7,1.3,1.4,9.3,0,10Z"/><path class="cls-2" d="M77.8,62.8c-10.9-1.1-17.2,0-27.5,6.9-3.7,2.5-7.5,6.9-8.4,11.2-.8-.8-2.1-1-3.1-.5-.2.1-.5.3-.6.5-.9.9-1.4,2.3-1.5,3.7,0,1.7.5,3.4,1.3,4.8.6,1.2,1.3,2.3,2.3,3.1.1.1.3.2.4.3.5.3,1.2.5,1.8.5h.7c.7,3.5.8,5.3,1.7,6.9,2.4,2.5,4.6,4.6,6.7,6.5.8.7,1.7,1.4,2.4,2.1,6.7,5.4,11.6,7.2,15.8,7,.8,0,1.6-.2,2.4-.4,3.2-.9,6.1-2.9,9.2-5.4.7-.6,1.4-1.2,2-1.8,3.6-3.5,6.1-8.1,7.1-13,0-.4.2-.8.2-1.2.8-4.6.8-8.2.8-8.9,0,0,0-.2,0-.3.4-1.8.7-2.8.9-3.7.3-1.2.4-2.1.5-4.4-.2-7-7.5-13.1-15.1-13.9ZM59.4,86.8c-1,0-1.8-1.6-1.8-3.5s.8-3.4,1.8-3.4,1.8,1.5,1.8,3.4-.8,3.5-1.8,3.5ZM73.5,106.7c-2.2.3-6.5-.2-8.7-1.5-1.3-.8-2.1-1.3-3.2-2.5-.7-.8,0-2,1-1.7,4.7,1.2,13,2.5,17.5.9h0c-1.5,2.9-3.2,4.3-6.7,4.8ZM84.3,86.1c-.8,0-1.5-1.3-1.5-3s.7-3,1.5-3,1.5,1.4,1.5,3-.7,3-1.5,3Z"/><path class="cls-7" d="M80.2,102c-1.5,2.7-3.2,4.2-6.7,4.7-2.2.3-6.5-.2-8.7-1.5-1.3-.8-2.1-1.3-3.2-2.5-.7-.8,0-2,1-1.7,4.7,1.2,13,2.5,17.5.9h0Z"/><path class="cls-9" d="M92.9,76.6s0,0,0,.1"/><path class="cls-9" d="M88.9,76.9c-1.1-2.5-6.9-3-8-1.7"/><path class="cls-9" d="M63,75.7c-2.1-2.1-7.6-.7-8.1.9"/><path class="cls-10" d="M85.8,83.1c0,1.7-.7,3-1.5,3s-1.5-1.3-1.5-3,.7-3,1.5-3,1.5,1.4,1.5,3Z"/><path class="cls-10" d="M61.3,83.4c0,1.9-.8,3.5-1.8,3.5s-1.8-1.6-1.8-3.5.8-3.4,1.8-3.4,1.8,1.5,1.8,3.4Z"/><path class="cls-9" d="M76.7,86.8c-.1,3.1,6,11-3.4,10.1"/><path class="cls-9" d="M80.6,101.7c-.2,0-.3.1-.5.2"/><path class="cls-4" d="M88.9,54.6c-6.9-4-15.2-4.5-26.8-2.6-6.4,1-13.4,3.6-18.8,7.2-1.7,1.1-4.1,3.4-6,5.6.9-10.3,15.3-19.5,24.1-21.3,9.4-1.8,24.5,2.8,27.5,11Z"/><path class="cls-9" d="M42.3,93.5c.2,0,.5,0,.7,0,.5-.1.9-.4,1.3-.8"/><path class="cls-9" d="M42.4,82c-.1-.4-.3-.7-.6-1"/><path class="cls-2" d="M95.1,89.2c-.3,1.7-1.6,3.9-2.9,4.7-.5.3-1,.4-1.5.1h0c.8-4.6.8-8.2.8-8.9,0,0,0-.2,0-.3.4-1.8.7-2.8.9-3.7h.1c.6-.1,1.3.2,1.6.8.4.5.5,1.2.6,1.8.4,1.8.7,3.6.3,5.5Z"/><path class="cls-9" d="M77.9,193.5c0,0,0-.1,0-.2"/><path class="cls-9" d="M67.1,182.6c-.7-.2-1.5-.4-2.2-.5"/><path class="cls-9" d="M37.2,168.4s0,0,0,0"/><path class="cls-9" d="M92.9,76.7c0,.4,0,.8,0,1.1"/><path class="cls-4" d="M94.1,81.9c-.4-.5-1-.9-1.6-.8h-.1c.3-1.2.4-2.2.5-4.4-.2-7-7.5-13.1-15.1-13.9-10.9-1.1-17.2,0-27.5,6.9-3.7,2.5-7.5,6.9-8.4,11.2-.8-.8-2.1-1-3.1-.5-.2.1-.5.3-.6.5-3.1-1.3-4.7-8.9-3.5-12,.5-1.3,1.5-2.8,2.7-4.2,1.9-2.3,4.3-4.5,6-5.6,5.4-3.6,12.4-6.1,18.8-7.2,11.6-1.9,19.9-1.4,26.8,2.6,1.4.8,2.8,1.8,4.1,2.9,4.1,3.6,3.8,19.6,1.2,24.4Z"/><path class="cls-9" d="M38.4,81.1c-.1,0-.3,0-.4-.1"/><path class="cls-5" d="M51.5,106.8c-.2.4-1.3,1.2-1.5,1.5-5.3-3.4-9-9.1-10.1-15.4l.2-.3c.1.1.3.2.4.3.5.3,1.2.5,1.8.5h.7c.7,3.5.8,5.3,1.7,6.9,2.4,2.5,4.6,4.6,6.7,6.5Z"/><path class="cls-9" d="M51.5,106.8s0,0,0,0"/><path class="cls-5" d="M92.2,93.9c-.5,3.1-1,6.2-2.4,8.9-1.3,2.6-6,5.4-6.3,5.6l-.2-.2c3.6-3.5,6.1-8.1,7.1-13,0-.4.2-.8.2-1.2h0c.5.3,1,.2,1.5-.1Z"/><path class="cls-9" d="M83.5,108.4s0,0,0,0"/><path class="cls-9" d="M92.3,93.7s0,0,0,.1"/><path class="cls-9" d="M40.5,159.6c0,0-.2-.1-.3-.2"/><path class="cls-9" d="M86.6,158.7s0,0,0,0"/><path class="cls-7" d="M85.3,130.1h-.1c-2.2-4.6-10.7-9-13.8-9.2h-.2s0,0,0,0c.3-.7.6-1.4.7-2.2h.2c1.4.3,6.9,1.7,10.6,2.9,1.3,3,2,5.7,2.5,8.6Z"/><path class="cls-8" d="M86.6,156.6c0-7.6.4-11.1-.2-19.1-.4-2.7-.6-5.1-1-7.4h-.1c-2.2-4.6-10.7-9-13.8-9.2h-.2c-1.7,3.4-5.3,5.7-9.7,3.7-2.3-1-4.9-2.3-6.4-3.7h0c-4.8.8-8,3.9-10.3,8.1h-.4c1.3,3.9,1.1,7.6.4,12.5-.7,3.2-1.5,6.7-2.4,10h.3c-.1,2.1-.3,17.3-.7,19.9,3.2,2.5,8.6,10.5,14.2,9.8,3.5-.6,9.3-4.3,10.5.7.2,0,.3,0,.5.1,4,1.1,10.1-.4,16.2-6,1.1-1.1,2.1-2.3,3.2-3.6,0-3.6,0-9.6,0-13.8v-2.1ZM75.4,159.2h-2.3v5h-5.3v-5.1h-10.8v-4.2l10.4-16.5h5.8v15.9h2.3v5Z"/><path class="cls-7" d="M73.1,154.3v-15.9h-5.8l-10.4,16.5v4.2h10.8v5.1h5.3v-5h2.3v-5h-2.3ZM67.8,150.9v3.4h-1.5c-1.6,0-2.7,0-3.3,0,.6-.8,1.4-2,2.3-3.5l.5-.8c.9-1.4,1.6-2.9,2.2-4.5-.1,1.2-.2,3-.2,5.3Z"/><path class="cls-9" d="M68,145.6c-.1,1.2-.2,3-.2,5.3v3.4h-1.5c-1.6,0-2.7,0-3.3,0,.6-.8,1.4-2,2.3-3.5l.5-.8c.9-1.4,1.6-2.9,2.2-4.5Z"/><path class="cls-9" d="M68,145.6c-.1,1.2-.2,3-.2,5.3v3.4h-1.5c-1.6,0-2.7,0-3.3,0,.6-.8,1.4-2,2.3-3.5l.5-.8c.9-1.4,1.6-2.9,2.2-4.5Z"/></svg>