<?xml version="1.0" encoding="UTF-8"?><svg id="usa" xmlns="http://www.w3.org/2000/svg" width="235" height="321.9" viewBox="0 0 235 321.9"><defs><style>.cls-1{fill:#3a3a3a;}.cls-1,.cls-2,.cls-3,.cls-4,.cls-5,.cls-6,.cls-7,.cls-8{stroke:#000;stroke-linecap:round;stroke-linejoin:round;}.cls-2{fill:#3d8e3d;}.cls-3{fill:#302926;}.cls-4{fill:#a0715e;}.cls-5{fill:#fff;}.cls-6{fill:#67b96a;}.cls-7{fill:none;}</style></defs><path class="cls-4" d="M124,64.4c-4.7-2.4-6.5-6.1-7.5-11.2,0,0,0-.1.1-.2-9,5.4-20,7.6-30.4,5.9-2.5,7.2-5.4,28.2.5,33,4.6,3.9,14.9,8.2,17.5,7.8,4.2-.7,10.2-6.3,10.2-6.3,8.2-6.6,6.5-20.7,7.6-22.6.9-1.6,1.8-3.6,2.4-6.3h-.5ZM98,69.9c.3-1.5,1.3-2.5,2.3-2.4.9.2,1.4,1.6,1,3-.3,1.5-1.4,2.6-2.3,2.4-.9-.2-1.4-1.6-1-3.1ZM98.3,83.8c4.6,3.1,7.8,3.6,12.8,4.1-3.5,6.1-11.6,5.6-12.8-4.1ZM118.2,74.5c-.4,1.5-1.4,2.7-2.2,2.5-.9-.2-1.3-1.6-.9-3.1.4-1.6,1.4-2.7,2.2-2.5.9.2,1.3,1.6.9,3.1Z"/><path class="cls-4" d="M33.5,170.9c-1.7,2.1-11.7,3-13.3,1.9-2-1.4.2-9.2,1.5-11.2.2-.9.6-2.6,1.2-4.6,2.8,1.1,6,1,8.7-.5h.2c-.6,1.1-1.1,2.1-1.5,2.7h0c2.5.7,4.8,9.8,3.2,11.8Z"/><path class="cls-5" d="M46.1,136.1l-.3.2c-1.4,1-2.7,1.9-3.7,2.7-2.5,4.4-4.2,7.1-6.2,10.2-.4.7-2.6,4.4-4.2,7.2h-.2c-2.6,1.4-5.9,1.5-8.7.4.9-3.4,2-7.5,2.3-8.8,1.8-5.3,4.1-10,8.3-16,1.5-2.2,3.7-5.1,6-8.1.6,4.2,3.6,8.9,6.7,12.1Z"/><path class="cls-7" d="M30.2,159.1c-.1.2-.2.4-.3.6"/><path class="cls-7" d="M61,126h-.1"/><path class="cls-5" d="M120.4,144.1h0c0,2.2-.4,4.2-1,5.5-1.1,2.1-2.2,2.3-3.2,2.9-3.5,1.4-6.4,2.2-9.1,2.7-4.2.8-7.7.7-11.8.3-1.7-.2-8.2-1.1-12.2-1.6v-.2c-1-3.3.3-7.2,3.1-9.2v-.2c1.8-.3,7.9-1.2,8.7-1.4,3.8-.4,7.3-.8,13.2-1.6.7,0,1.4-.2,2.1-.3,3.6-.7,7.5.5,10,3Z"/><path class="cls-4" d="M83.2,153.8v.2c-.9-.1-1.6-.2-2.1-.2-.1,0-.2,0-.3,0-1.1.4-3.3.7-5.6.7-3.5,0-7.3-.5-8-2.1-.9-2.2,2.7-13.1,5.6-14.9,0,0,.1,0,.2-.1,1.5-.7,5.1.5,8.1,2.3,2.6,1.5,4.7,3.4,4.8,4.8,0,0,.2,0,.4,0v.2c-2.8,2-4.1,5.9-3.1,9.2Z"/><path class="cls-2" d="M120.4,144.1c-2.6-2.6-6.5-3.8-10-3-.7,0-1.4.2-2.1.3h0c-.1-1-2.2-16.7-2.3-17.7-.7-8.7.9-12,2.9-14.6.5-.3,1-.6,1.6-.9,3.4,1.9,5.6,5,7.1,9.1,2,5.4,1.8,12.6,2.4,17.9.2,2.1.5,5.7.4,9Z"/><path class="cls-7" d="M59.7,176.1s0,0,0,0"/><path class="cls-6" d="M110.4,176c-1.2-.4-2.3-.9-3.4-1.2,0,0,0,0,0,0-3.9-1.1-6.3-3.1-14.4-4.9-17-3.7-31.2-7.1-32.7,2.9,0,1.1-.1,2.2-.1,3.3-3.8-13.4-1.1-11.7,1.1-37.1,0-5.2.4-8.8,0-12.9-.2-2.2-.5-4.5-1.1-7.1-.5-1.9-.8-4-1-6.1,1.3-2.5,3.2-4.8,5.5-6.5,2.7,7.7.8,19.3,12.3,21,1.7.5,3.3.8,4.8.9,13.4,1.2,18.5-10.3,18.9-11.2,1.4-3.5,5.2-5.9,8.7-8.1-2,2.6-3.6,5.9-2.9,14.6.1.9,2.2,16.7,2.3,17.7h0c-6,.8-9.4,1.2-13.2,1.6-.8.1-7,1.1-8.8,1.4-.2,0-.3,0-.4,0,0-1.4-2.2-3.3-4.8-4.8v-8.9h-5c-.3,1-.7,1.7-1.3,2.2-.6.4-1.6.7-2.9.8v3.7h1c-2.9,1.8-6.5,12.7-5.6,14.9.6,1.6,4.4,2.1,8,2.1v1.5h5.9v-2.2c.5,0,1.2.1,2.1.2,3.9.5,10.5,1.4,12.2,1.6,4.1.4,7.6.5,11.8-.3h0c0,4.2,1.9,15.4,3.3,20.7Z"/><path class="cls-7" d="M107,174.8c-1.2-.4-2.2-.8-3-1.1"/><path class="cls-1" d="M117.9,228.7c-1.3,10.9-2.3,14.9-5,25-2.8,10.5-5.8,21.2-9.5,31.3l.2.2c-.4.3-.7.7-1,1.1-3.6,1.8-7.8,2.5-11.8,1.9-.3-10.8-.9-27,2.3-36.5,1.2-3.4,2.4-7.4,2.9-11,.5-3.7.2-6.4-1.5-9.8-1.6-4.6-15.5-16.4-20.6-32.1.8.2,1.7.5,2.6.7,13,3.2,24,4.3,35.5,5.4v1.1c3.1,11.3,6.3,14.1,5.9,22.7Z"/><line class="cls-1" x1="73.9" y1="198.8" x2="73.9" y2="198.8"/><path class="cls-7" d="M172.2,217c0,0,0,0-.1,0"/><path class="cls-1" d="M172.3,216.7c0,.1,0,.2-.2.3-20.4-8.4-23.1-.2-35.5-11.5-10.9-2-12.3.1-19.7-.1-.1,0-.2,0-.4,0-1.5-.1-3.1-.3-4.6-.4-11.5-1.1-22.5-2.2-35.5-5.4-1-.2-1.8-.5-2.6-.7-1.1-.3-2-.6-2.7-.9-4.9-2.5-11.5-9.3-11.5-21.8,0-1.1,0-2.1.1-3.3,1.5-10,15.7-6.6,32.7-2.9,8.1,1.8,10.5,3.8,14.4,4.9,0,0,0,0,0,0,1,.4,2.2.8,3.4,1.2,4.7,1.8,10,3.9,12.3,4.8,9.3,3.8,8.6,2.3,20.2,9.4,13.1,4.8,21,7.9,32.7,12.2.2,4.9-1,9.9-3.4,14.2Z"/><path class="cls-4" d="M172.4,216.7h-.1c2.4-4.3,3.6-9.3,3.4-14.2,1.9.7,3.9,1.5,6.1,2.2,0,1.5.5,2.4,1.1,3.8.7,1.3-9.5,12.2-10.5,8.2Z"/><path class="cls-7" d="M181.7,204.7c0-1.4-.3-.1.9,0"/><path class="cls-5" d="M218.1,210.6c-1.7,3-4.8,4.9-7.8,6.5-9.3,5-19.3,8.4-29.3,11.8-1.2.4-2.5.8-3.6.3h-.3c-.4-.4-.6-.9-.9-1.4-1.7-3.5-3-7.3-3.8-11.1,1,4,11.1-6.9,10.5-8.2-.7-1.3-1.1-2.2-1.1-3.8.3,0,.6,0,.9,0,0,0,.2,0,.3,0,9-.8,19.9-2.1,28.7-2.9,1.6-.1,3.3-.3,4.7.3,3,1.3,3.5,5.5,1.9,8.5Z"/><path class="cls-7" d="M177.8,229.9c-.3-.2-.6-.4-.8-.6"/><path class="cls-7" d="M108.9,175.2c-.7-.1-1.2-.2-1.8-.4"/><path class="cls-7" d="M113.1,80c.4,2.4,0,6-8.3,2.1"/><path class="cls-1" d="M126.4,46.6c-3.2-5.9-5.3-6.5-10.9-10.1-14-9.1-33.3-4.8-42.2,6.8-2.8,3.6-5.1,7.6-6.8,11.8-5.4,13-6.2,27.4-6.4,41.5,0,1-.6,4.1.1,4.8.7.7,1.6.7,2.2,1.5.8,1,1.4,2.2,1.9,3.6,2.7,7.7.8,19.3,12.3,21,1.7.5,3.3.8,4.8.9,13.4,1.2,18.5-10.3,18.9-11.2,1.4-3.5,5.2-5.9,8.7-8.1.5-.3,1-.6,1.6-.9,2.4-1.4,4.5-2.8,5.3-4.3,5.4-9.5,9.8-15.4,11.8-26.1,2.6-13.8,1.3-26.8-1.1-31.2ZM124.5,64.5c-.6,2.8-1.5,4.7-2.4,6.3-1.1,1.9.6,16-7.6,22.6,0,0-6.1,5.6-10.2,6.3-2.6.4-12.8-3.9-17.5-7.8-5.9-4.8-3-25.8-.5-33,4.1-11.8,13.8-13.8,17.5-14.6,7.2-1.6,19.1,0,21.2,16.1,0,1.6-.3,2.9-.5,4.2Z"/><path class="cls-5" d="M111.2,87.9c-3.5,6.1-11.6,5.6-12.8-4.1,4.6,3.1,7.8,3.6,12.8,4.1Z"/><path class="cls-3" d="M103.8,44.2c-3.7.8-13.4,2.8-17.5,14.6,10.4,1.7,21.4-.5,30.4-5.9,0,0,0,.2-.1.2.9,5.1,2.8,8.8,7.5,11.2h.5c.3-1.1.4-2.5.5-4.1-2.1-16.1-14-17.6-21.2-16.1ZM116.7,52.9c0,0,0-.1,0,0,0,0,0,0,0,0Z"/><path class="cls-2" d="M60.8,126.1c-2.7,2.1-8.4,7.3-13.7,11-.3-.3-.7-.7-1-1-3.1-3.2-6.1-7.9-6.7-12.1,2.7-3.5,5.5-6.9,7.2-8.7,2.3-2.8,7.3-10.4,13.5-14-1.4,3.5-1.7,7.6-1.4,11.5.2,2.1.5,4.2,1,6.1.6,2.7.9,5,1.1,7.1Z"/><path class="cls-8" d="M118.2,74.5c-.4,1.5-1.4,2.7-2.2,2.5-.9-.2-1.3-1.6-.9-3.1.4-1.6,1.4-2.7,2.2-2.5.9.2,1.3,1.6.9,3.1Z"/><path class="cls-8" d="M101.2,70.6c-.3,1.5-1.4,2.6-2.3,2.4-.9-.2-1.4-1.6-1-3.1.3-1.5,1.3-2.5,2.3-2.4.9.2,1.4,1.6,1,3Z"/><polyline class="cls-7" points="116.7 52.9 116.6 53 116.7 52.9"/><path class="cls-7" d="M116.5,53.1s0,0,0,0"/><path class="cls-4" d="M102.5,286.3c-.6.8-1,1.7-1.5,2.6-.8,1.4-1.6,2.9-3.2,3.7-2.6,1.3-6.1-.2-7.2-2.7h0c0-.5,0-1.1,0-1.6,4,.5,8.2-.1,11.8-1.9Z"/><path class="cls-7" d="M90.7,289.8s0,0,0-.1"/><path class="cls-5" d="M133.3,312.1c-3.4,1.7-7.6,1.6-11.5,1.2-11.9-1.2-21-4.1-32.5-7.2-1.4-.4-2.9-.8-3.6-2-.5-.9-.4-1.9-.2-2.8.6-4.2,1.8-8.3,3.5-12.2l.4-1.1c.4,0,.9.2,1.3.2,0,.6,0,1.1,0,1.6h0c1.1,2.5,4.6,4,7.2,2.7,1.5-.8,2.4-2.3,3.2-3.7.5-.9.9-1.8,1.5-2.6.3-.4.6-.8,1-1.1.1-.1.2-.2.4-.3,1.3-1,2.6-1.2,3.8,0h.1c9.2,5,15.8,9.9,25,14.9,1.6.9,3.2,1.8,4.2,3.2,2,3.1-.2,7.4-3.6,9.1Z"/><path class="cls-7" d="M104.1,285.4c-.5.3-1.1.6-1.6.9"/><path class="cls-7" d="M172.1,216.9s0,0,0,0"/><path class="cls-7" d="M22.8,156.9c0,0-.1,0-.2,0"/><path class="cls-7" d="M106,124.2c0-.2,0-.4,0-.5"/><path class="cls-7" d="M39.4,124c0-.1,0-.2,0-.3"/><line class="cls-7" x1="120.4" y1="144.1" x2="120.4" y2="144.1"/><path class="cls-5" d="M64.2,106.4c-2.3,1.7-4.2,3.9-5.5,6.5-.3-4,0-8.1,1.4-11.5.7.7,1.6.7,2.2,1.5.8,1,1.4,2.2,1.9,3.6Z"/><path class="cls-7" d="M58.7,112.8c0,.2-.2.4-.3.5"/><path class="cls-7" d="M64.4,106.2c0,0-.2.1-.2.2"/><path class="cls-5" d="M81.1,153.7v2.2h-5.9v-1.5c2.3,0,4.5-.3,5.6-.7,0,0,.2,0,.3,0Z"/><line class="cls-7" x1="75.2" y1="154.4" x2="75.2" y2="154.2"/><line class="cls-7" x1="81.1" y1="153.7" x2="81.1" y2="153.7"/><path class="cls-5" d="M81.1,130.7v8.9c-3-1.8-6.6-3-8.1-2.3,0,0-.1,0-.2.1h-1v-3.7c1.3-.1,2.3-.4,2.9-.8.6-.4,1.1-1.2,1.3-2.2h5Z"/><line class="cls-7" x1="73" y1="137.4" x2="72.8" y2="137.4"/><path class="cls-3" d="M105,61.9c0,.3.2.7,0,1s-.4.7-.8.8c-.7.2-1.4-.2-2-.5-2-1-4.6-1.4-7-1,.1-.1.2-.3.4-.4l.5-.2c3.8-2.2,7.2-1.6,9,.3h0Z"/><path class="cls-3" d="M120.9,67.9c.2-2.5-3.4-3.1-5.2-2h-.2c-.5.2-.4.9,0,1.2s1.2.4,1.9.5,1.3,0,1.9.3c.4.2.7.4,1.1.4s.9-.2.7-.5h-.3Z"/></svg>