<?xml version="1.0" encoding="UTF-8"?><svg id="usa" xmlns="http://www.w3.org/2000/svg" width="235" height="321.9" viewBox="0 0 235 321.9"><defs><style>.cls-1{fill:#3a2e28;}.cls-1,.cls-2,.cls-3,.cls-4,.cls-5,.cls-6,.cls-7,.cls-8{stroke:#000;stroke-linecap:round;stroke-linejoin:round;}.cls-2{fill:#83a5c8;}.cls-3{fill:#b62026;}.cls-4{fill:#d14752;}.cls-5{fill:#a57463;}.cls-6{fill:#fff;}.cls-7{fill:none;}</style></defs><path class="cls-6" d="M81.7,83c-1.9,0-4.8,3.5-4.8,5.5v.2c-3.5-.8-7.1-1-10.6-.5,2.8-3.1,6.5-4.8,11.5-5.4h0c1.4,0,2.7.1,3.9.2Z"/><path class="cls-3" d="M77.8,82.8c-5,.6-8.7,2.3-11.5,5.4-4.5,5-6.7,13.8-8,28.1-.2,2.6-.5,5-.7,7.3.2-4.8.2-8.6-.4-12.8h0c-5.2,4.7-12,10.6-14.7,12.5-.5-.3-1-.6-1.5-.9-4.2-2.9-7.6-7.8-8.8-10.6-.4-.8-.5-1.4-.5-1.8.2-1.1,15.3-16.7,16.1-17.4,4.6-4.1,7.9-7.3,14-8.5,1.6-.3,9.7-1.3,16.1-1.1Z"/><path class="cls-6" d="M40.9,122.3h0c-1.7,1.3-2.4,1.8-4,3-5.2,9.3-9.1,13.6-12.9,21.2,0,.2-.2.4-.3.6h-.5c-2.8-.3-5.7.3-8.1,1.8h-.3c2.9-13.2,4.8-20,12.7-31.1,1.4-2,2.5-3.5,4.6-6.2,1.2,2.8,4.6,7.8,8.8,10.6Z"/><path class="cls-5" d="M27.5,159.1c-1.9,2.3-12.7,3.2-14.5,2-2.1-1.4.2-9.8,1.7-11.9,0,0,0-.2,0-.2h.3c2.4-1.4,5.3-2.1,8.1-1.9h.5c0,0,.2-.3.3-.5h.1c2.7.8,5.2,10.4,3.5,12.5Z"/><path class="cls-3" d="M118.3,137.4s0-12.8-13.6-9.1c-.4-3.1-.9-6.4-1-11.7-.2-6.3.3-11.1.6-16.7,0-1.5.9-2.8,2-3.9.2-.2.4-.5.7-.7,1.3-1.2,4-2.2,5.7-1.6h0c.7.5,1.5,1.1,2.6,2,2.2,2,4.1,8.8,4.7,13.8,2.2,18.3,1.2,26.8-1.7,27.8Z"/><path class="cls-7" d="M107.6,91c0,0-.1,0-.2,0"/><path class="cls-6" d="M118.3,137.4c-4.1,2.8-8,4.3-12,5,0,0-.1,0-.1,0h0c-6.4,1.1-13.1.2-21.2-.9-1.5-.2-3-.4-4.6-.5-.7-3.6.7-7.5,3.5-9.8.2,0,.4,0,.6-.1,9.7-1.9,7.8.5,20.3-2.8,13.7-3.6,13.6,9.1,13.6,9.1Z"/><path class="cls-7" d="M83.8,131.3s-.1,0-.2,0"/><path class="cls-7" d="M56.2,166.6c-.1-.4-.2-.7-.3-1.1"/><path class="cls-5" d="M84.4,131h-.3c0,.1-.2.2-.3.3-2.8,2.3-4.2,6.2-3.5,9.8-.5,0-1-.1-1.5-.2-1.8.6-6.3,1-9.9.6h0c-2.4-.3-4.3-.9-4.8-2.1-1-2.4,3.1-14.4,6.3-15.9.6-.3,1.5-.3,2.6,0,1.8.3,4,1.3,6.1,2.4,1.7,1,3.3,2.1,4.2,3.1.6.7,1.1,1.4,1.1,2Z"/><path class="cls-7" d="M106.3,142.7c0,.1,0,.3-.1.4"/><path class="cls-7" d="M57.6,123.7c0,.6,0,1.2,0,1.8"/><path class="cls-7" d="M57.2,110.8c-.3-2.2-.9-4.4-1.7-7"/><path class="cls-2" d="M131.7,170.7c-.3.3-.7.8-1.1,1.3h0c-2.8,4.3-5.7,15.4-5.4,23.4,0,2.4.5,4.6,1.2,6.2.2.4-3.4-.3-8.9-1.5-12.5-2.9-34.5-8.7-43.5-10.5-2.5-.6-4.5-1.2-5.8-1.7-5.2-2.6-12.1-9.6-12.5-22.3h0c0-1.4,0-2.8.1-4.3,1.7-10.6,17.1-7.1,35.5-3.1,6.4,1.4,9.5,2.9,12.4,4.1,1.2.5,2.4.9,3.7,1.2v-.2c8.3,2.2,25.2,6.4,24,7.5Z"/><path class="cls-7" d="M107.8,163.2c-1.6-.4-3-.8-3.7-1.1"/><path class="cls-2" d="M121.1,228.4c-1,.2-2,.3-2.9.5-8.5,1.3-12.9,1-23-.1-1-.1-2-.2-3-.3-.8-2.3-9.2-26.8-18.1-38.9,8.9,1.8,31,7.6,43.5,10.5,3.4,12,4,19.2,3.5,28.4Z"/><path class="cls-5" d="M113.6,247.1c-2.2,7.8-4.4,15.7-6.9,23.4-5.9,1.3-12.2.6-17.7-2,.2-8.8,1-17.7,3-23.5,1.2-3.6,4.1-12,3.2-16.1h0c10.2,1,14.5,1.3,23,0h0c1.1,4.3-1.7,7.5-4.7,18.2Z"/><path class="cls-6" d="M106.7,270.7c-1.1,3.2-2.2,6.5-3.4,9.6l.2.3c-1.4,1-2.2,2.5-3,3.9-.8,1.5-1.8,2.9-3.4,3.6-2.4,1-6.5-1-8-3.4-.1-4.7-.2-10.5,0-16.3,5.5,2.6,11.8,3.4,17.7,2,0,0,0,.2,0,.2Z"/><path class="cls-3" d="M133.3,312.2c-3.5,1.5-7.6,1-11.5.3-11.7-2.3-23-6.5-34.1-10.7-1.4-.5-2.8-1.1-3.4-2.4-.4-.9-.2-2,0-3,.9-4.3,2.4-8.6,4.3-12.5,0,.3.3.7.5,1,1.5,2.4,5.7,4.4,8,3.4,1.5-.7,2.5-2.2,3.4-3.6.8-1.4,1.7-2.9,3-3.9,0,0,0,0,0,0,1.4-.9,2.6-1,3.8.3h.1c8.7,6.1,17.4,12.2,26.2,18.2,1.5,1,3.1,2.2,3.9,3.8,1.8,3.5-.7,7.8-4.2,9.3Z"/><path class="cls-5" d="M176.6,190.8v.4c-.4,5.3-2.3,10.4-5.4,14.5-16.3-4.9-19.9.8-31.8-9.8-8.3-1.5-10.2-.9-14.1-.5-.3-8,2.5-19,5.4-23.4h0c10.1,4.1,2.9.1,15.5,7.7,12.2,4.4,20.3,7.4,30.4,11.1Z"/><path class="cls-6" d="M178.2,207.8c0,0,0,.2,0,.3h-.2c-2.5-1-4.8-1.8-6.8-2.4,3.1-4.1,5-9.2,5.2-14.5v-.4c3.7,1.3,7.5,2.7,11.8,4.3,0,1.6.5,2.6,1.2,4,.7,1.4-10.3,13-11.4,8.8Z"/><path class="cls-7" d="M189.3,195c-.7,0-.9-.4-1-.6"/><path class="cls-7" d="M188.3,194.4s0,0,0,0c0,0,0,.3,0,.6"/><path class="cls-3" d="M227.9,201.3c-1.8,3.1-5.2,5.2-8.5,6.9-10.1,5.3-21,8.9-31.8,12.5-1.3.4-2.8.9-3.9.3h-.4c-.4-.4-.7-.9-.9-1.5-1.8-3.7-3.2-7.5-4-11.5,0,0,0-.2,0-.3,1.1,4.2,12.1-7.3,11.4-8.8-.7-1.4-1.2-2.4-1.2-4,.3,0,.6,0,1,0,0,0,.2,0,.3,0,9.8-.9,21.6-2.2,31.1-3,1.7-.2,3.5-.3,5.1.3,3.3,1.4,3.8,5.9,2.1,9Z"/><path class="cls-7" d="M184.1,221.8c-.3-.2-.6-.4-.8-.7"/><path class="cls-6" d="M84.9,141.6c-.4.6-.9,1.1-1.5,1.6-1.9,1.4-4.4,2-7.5,1.7-2.8-.2-5.1-1.4-7-3.5,3.6.4,8.2,0,9.9-.6.5,0,1,.1,1.5.2,1.6.2,3.1.4,4.6.5Z"/><path class="cls-4" d="M107.8,163.2v.2c-1.3-.3-2.5-.8-3.7-1.2-2.9-1.1-6-2.7-12.4-4.1-18.4-3.9-33.8-7.5-35.5,3.1-.1,1.5-.2,2.9-.1,4.3-3.3-12.3-.6-21,1.7-41.8,0,0,0,0,0-.1.3-2.3.5-4.7.7-7.3,1.3-14.3,3.5-23,8-28.1,3.5-.5,7.1-.3,10.6.5,0,10.3,3.8,11.5,10.8,13.2,8.7,2,14.7-2.6,16.2-7.3h.2c.8.3,1.6.8,2.1,1.4h0c-1,1.1-1.9,2.4-2,3.9-.3,5.5-.8,10.3-.6,16.7,0,5.3.6,8.6,1,11.7-12.5,3.3-10.6.9-20.3,2.8-.2,0-.4,0-.6.1,0,0,.2-.1.3-.2h.3c0-.7-.4-1.4-1.1-2.1,2.2-1.1,3.4-3.1,3.6-5.9.2-2.5-.4-4.4-1.9-5.9-1.5-1.4-3.6-2.3-6.5-2.5-3.7-.3-6.9,1.1-9.6,4.1l4.1,4.1c1.7-1.9,3.3-2.7,4.8-2.6,1.7.1,2.4,1.1,2.3,3-.1,1.2-.5,2-1.1,2.4-2-1.1-4.3-2.1-6.1-2.4-1.1-.2-2-.2-2.6,0-3.2,1.5-7.2,13.5-6.3,15.9.5,1.1,2.4,1.8,4.8,2.1h0c1.9,2.1,4.2,3.2,7,3.5,3.1.3,5.6-.3,7.5-1.7.6-.5,1.1-1,1.5-1.6,8.1,1,14.8,2,21.2.9h0v.7c-.5,3.8,1.5,14.8,1.7,20Z"/><path class="cls-7" d="M109.3,163.6c-.5,0-1-.2-1.5-.3"/><path class="cls-6" d="M112.7,93.8h0c-1.7-.6-4.4.4-5.7,1.6-.2.2-.5.4-.7.7h0c-.6-.7-1.3-1.2-2.1-1.4h-.2c.5-1.6.5-3.1,0-4.4.5.2,1,.4,1.5.5.6.2,1.2.2,1.9,0,0,0,0,0,.1,0v.2c2.5,1.3,3.7,1.7,5.2,2.8Z"/><path class="cls-6" d="M103.9,94.6c-1.6,4.7-7.5,9.4-16.2,7.3-7-1.7-10.8-3-10.8-13.2v-.2c0-1.9,2.9-5.4,4.8-5.5,0,0,.2,0,.2,0-.2,1.6-.5,3-.8,4-2.4,7.6,3.3,9.8,7.8,11.1,6.1,1.8,15-3.4,13-8.8h0c.7.3,1.4.6,2.1.8.5,1.3.4,2.8,0,4.4Z"/><path class="cls-7" d="M82,83c0,0-.2,0-.3,0"/><path class="cls-7" d="M77,88.7s0,0,0,0"/><path class="cls-7" d="M66.3,88.2c0,0-.2,0-.3,0"/><path class="cls-7" d="M106.4,271l.3-.4c0,0,.1-.2.2-.3,0,0,0,0-.1,0"/><path class="cls-7" d="M89,268.4c-.1,0-.2,0-.3-.1"/><path class="cls-7" d="M171.3,205.7c0,0-.1.1-.2.2"/><path class="cls-1" d="M130.8,47.5c1.2-6.3-8.3-4.2-11.4-5.8-2.2-1.6-13.7-7.9-17.4-6.8-3.5,0-7,2.8-9.3,6.8-1.5,2.7-3,6.9-3.9,9.6-2.5-1-4.9-2-6.3-2.4-.7-.3-1.5-.4-2.2,0-1.4.6-2.3,4.4-2.2,6.1,0,1.6,1.1,3.2,2.5,3.8.3.1.6.2.9.3l-.5.8c-.3,2.9.2,7.1.4,8.1,0,.3.2.7.3,1,.2,1,.4,2.1.6,3.1h-.1c-11.2-7.2-9.1-28.3-4.9-36.3,3.7-7.1,11.2-15.2,21.1-16.5,16.3-2.1,39.9,11.5,32,31.5.2-1,.4-2.1.4-3.3Z"/><path class="cls-7" d="M130.4,50.8c0,0,0,.2-.1.3"/><path class="cls-5" d="M115,66.8c.3-2.4.5-4.3.9-6.4h0c-1.5-.4-2.8-1-4.3-1.3-.8,2.4-1.6,4.4-2.6,6.8-3.8-.8-9.9-2.2-14.4-3.6-.2,0,0-2.1.5-4.4h0c-1,.1-4.7-2.3-7.2-3.9-1.6.8-2-.2-2.5-1.4-.3-.7-.5-1.6-1.1-2.3-.5-.6-1.1-1.1-1.7-1.4-.7-.3-1.5-.4-2.2,0-1.4.6-2.3,4.4-2.2,6.1,0,1.6,1.1,3.2,2.5,3.8.3.1.6.2.9.3l-.5.8c-.3,2.9.2,7.1.4,8.1,0,.3.2.7.3,1,1.3,4.2,3.3,7.7,5.7,10.6,3.1,3.8,8.4,7.4,14.4,9.9.7.3,1.4.6,2.1.8.5.2,1,.4,1.5.5.6.2,1.2.2,1.9,0,0,0,0,0,.1,0,0,0,.2,0,.2,0,3.7-1.1,8-6.5,8-6.5,4.2-4.3,6.4-9.9,7.7-14.6-3.1-.8-5.7-1.8-8.5-2.7ZM102.6,73.1l.2-.2c3.8,2.7,6.7,4.6,11.1,5.1-2.6,8.1-13.9,3.9-11.2-4.8Z"/><path class="cls-6" d="M113.8,78c-2.6,8.1-13.9,3.9-11.2-4.8l.2-.2c3.8,2.7,6.7,4.6,11.1,5.1Z"/><path class="cls-7" d="M123.8,68.6c0,.3-.2.6-.3.9"/><path class="cls-5" d="M119.4,41.7c-2.2-1.6-13.7-7.9-17.4-6.8-3.5,0-7,2.8-9.3,6.8-1.5,2.7-3,6.9-3.9,9.6,2.6,1,5.2,2.1,6.9,2.4h0c.2-1,.3-1.8.4-2,1.8.5,13,3,16.7,3.7-.2.5-.3,1-.5,1.5,1.2.4,2.6.8,3.9,1.1,0-.6.2-1.2.3-1.9,2.3.8,6.8,2.4,10,3.4,1.1-2.2,3-5.1,3.8-8.7.2-1,.4-2.1.4-3.3,1.2-6.3-8.3-4.2-11.4-5.8ZM110.1,52.6c-2-.5-9.2-1.1-9.2-1.4.3-3.2,5.9-2.3,8.9-1.5,2.8.8,1,3,.3,2.9ZM125.1,58.1c-.5-.2-4.5-1.8-5-2-1.5-.8-.4-2.6.8-2.8,1.3-.2,5.3,2.5,5.2,3.2,0,.7-.3,1.8-1,1.6Z"/><path class="cls-7" d="M126.6,59.5c0,.1-.1.3-.2.4"/><path class="cls-7" d="M115.8,67.9c.7,3.6-1.2,6-7.6,3.5"/><path class="cls-7" d="M102.8,72.9c-.3-.2-.6-.4-.9-.6"/><path class="cls-5" d="M88.9,98.2c-4.4-1.3-10.1-3.5-7.8-11.1.3-1.1.6-2.4.8-4,0,0,.2,0,.3,0,0,0-.2,0-.2,0,.5-3.2.8-7.2.3-11-.1-1.1-.3-2.1-.6-3.1,1.3,4.2,3.3,7.7,5.7,10.6,3.1,3.8,8.4,7.4,14.4,9.9h0c2,5.4-6.9,10.6-13,8.8Z"/><path class="cls-7" d="M82,83s0,0,0,0"/><path class="cls-7" d="M81.5,59c1.2.2,2.4,0,3.5-.7"/><path class="cls-1" d="M110.1,52.6c-2-.5-9.2-1.1-9.2-1.4.3-3.2,5.9-2.3,8.9-1.5,2.8.8,1,3,.3,2.9Z"/><path class="cls-1" d="M126.1,56.6c0,.7-.3,1.8-1,1.6-.5-.2-4.5-1.8-5-2-1.5-.8-.4-2.6.8-2.8,1.3-.2,5.3,2.5,5.2,3.2Z"/><path class="cls-7" d="M128.2,61.2s0,0,0,0"/><path class="cls-7" d="M129.9,60.5h0s0,0,0,0c0,0,0,0,0,0"/><path class="cls-8" d="M126.6,59.5c-3.2-1-7.7-2.5-10-3.4-.1.6-.2,1.3-.3,1.9-.2.9-.3,1.6-.4,2.4-.4,2.2-.6,4.1-.9,6.4,2.8.9,5.4,1.8,8.5,2.7.9.2,1.8.5,2.7.7.2,0,.8-1.5,1.5-3.4.5-1.3,1-2.7,1.3-3.9.4-1.2.7-2.2.8-2.5-.5-.1-1.7-.5-3.2-1ZM128.2,61.3h0c-.3.8-2.5,7.3-2.8,7.2-3.7-.8-5.9-1.8-8.9-2.7.3-2.8.6-4.8,1.1-8,2.9,1,9.2,3.2,10.6,3.5,0,0,0,0,0,0,0,0,0,0,0,0Z"/><path class="cls-6" d="M117.6,57.8c-.6,3.2-.9,5.2-1.1,8,3,.9,5.3,1.9,8.9,2.7.3,0,2.5-6.5,2.8-7.2-1.5-.4-7.8-2.5-10.6-3.5ZM122.8,63.8c-.3,1.5-1.3,2.6-2.1,2.4-.8-.2-1.2-1.6-.9-3.1.3-1.5,1.3-2.6,2.1-2.4.8.2,1.2,1.6.9,3.1Z"/><path class="cls-8" d="M122.8,63.8c-.3,1.5-1.3,2.6-2.1,2.4-.8-.2-1.2-1.6-.9-3.1.3-1.5,1.3-2.6,2.1-2.4.8.2,1.2,1.6.9,3.1Z"/><path class="cls-7" d="M129.9,60.4s0,0,0,0"/><path class="cls-7" d="M96.1,51.6s0,0,0,0c0,0,0,0,0,0,0,0,0,0,0,0"/><path class="cls-8" d="M96.1,51.6c0,.2-.2,1-.4,2-.2,1.2-.5,2.8-.7,4.3-.4,2.3-.7,4.3-.5,4.4,4.5,1.3,10.5,2.8,14.4,3.6,1-2.5,1.8-4.4,2.6-6.8.2-.7.5-1.5.8-2.3.2-.5.3-1,.5-1.5-3.8-.6-15-3.2-16.7-3.7ZM108.1,64.2c-3.2-.7-8.2-1.9-12-3-.4,0,1-7.2,1.1-8h0q0-.1,0,0c1.5.4,10.8,2.5,13.9,3.1-1.1,3.2-1.8,5.2-3,7.9Z"/><path class="cls-6" d="M97.2,53.2c-.1.8-1.5,7.9-1.1,8,3.8,1.1,8.8,2.3,12,3,1.2-2.7,1.9-4.7,3-7.9-3.1-.6-12.4-2.7-13.9-3.1ZM106.2,59.9c-.3,1.5-1.3,2.5-2.1,2.3-.9-.2-1.3-1.5-1-3,.3-1.5,1.3-2.5,2.1-2.3.8.2,1.3,1.5.9,3Z"/><path class="cls-8" d="M106.2,59.9c-.3,1.5-1.3,2.5-2.1,2.3-.9-.2-1.3-1.5-1-3,.3-1.5,1.3-2.5,2.1-2.3.8.2,1.3,1.5.9,3Z"/><path class="cls-8" d="M95.8,53.7c-.2,1.2-.5,2.8-.7,4.3h0c-1,.1-4.7-2.3-7.2-3.9-1.2-.8-2.1-1.3-2.5-1.4-.3-.7-.5-1.6-1.1-2.3-.5-.6-1.1-1.1-1.7-1.4,1.4.3,3.8,1.4,6.3,2.4,2.6,1,5.2,2.1,6.9,2.4h0Z"/><path class="cls-8" d="M130.1,65.8c-.4,1.2-.9,1.9-2.4,1.1.5-1.3,1-2.7,1.3-3.9,1,.5,1.5,1.7,1.1,2.8Z"/><path class="cls-7" d="M127.7,66.8c-.2-.1-.5-.3-.8-.5"/><path class="cls-7" d="M128.6,62.8c0,0,.1,0,.2,0,0,0,.2,0,.2.1"/><path class="cls-8" d="M116.3,57.9c-.2.9-.3,1.6-.4,2.4h0c-1.5-.4-2.8-1-4.3-1.3.2-.7.5-1.5.8-2.3,1.2.4,2.6.8,3.9,1.1Z"/><path class="cls-7" d="M112.4,56.8s0,0,0,0"/><path class="cls-7" d="M111.6,59.1c0,0-.1,0-.2,0"/><path class="cls-7" d="M80.3,141.2s0,0,0-.1"/><path class="cls-7" d="M68.9,141.4c0,0-.1-.1-.2-.2"/><path class="cls-7" d="M85.1,141.2c0,.1-.2.2-.2.4"/><path class="cls-6" d="M86.9,123.1c-.2,2.9-1.5,4.8-3.6,5.9-1-1.1-2.5-2.2-4.2-3.1.6-.5,1-1.3,1.1-2.4.1-1.9-.6-2.9-2.3-3-1.5-.1-3.1.7-4.8,2.6l-4.1-4.1c2.7-3.1,5.9-4.4,9.6-4.1,2.8.2,5,1.1,6.5,2.5,1.5,1.5,2.1,3.4,1.9,5.9Z"/><path class="cls-7" d="M79,125.8c0,0-.2.1-.3.2"/></svg>